<svg width="20" height="20" viewBox="0 0 20 20" fill="none" xmlns="http://www.w3.org/2000/svg">
<path fill-rule="evenodd" clip-rule="evenodd" d="M1.25 15.69V4.4563H17.6924V15.69C17.6924 16.2294 17.255 16.6667 16.7156 16.6667H2.22675C1.68731 16.6667 1.25 16.2294 1.25 15.69ZM3.54167 6.25002C3.31155 6.25002 3.125 6.43657 3.125 6.66669V14.1667C3.125 14.3968 3.31155 14.5834 3.54167 14.5834H15.2083C15.4385 14.5834 15.625 14.3968 15.625 14.1667V6.66669C15.625 6.43657 15.4385 6.25002 15.2083 6.25002H3.54167Z" fill="#0067D1"/>
<path d="M17.2656 1.64154C17.2751 1.64204 17.2841 1.64618 17.2907 1.6531C17.2972 1.66002 17.3009 1.6692 17.3009 1.67873V4.06483H1.64148V1.67873C1.64147 1.6692 1.64511 1.66002 1.65167 1.6531C1.65823 1.64618 1.66719 1.64204 1.67671 1.64154H17.2656Z" fill="white"/>
<path d="M3.54166 6.25005C3.31154 6.25005 3.12499 6.43659 3.12499 6.66671V14.1667C3.12499 14.3968 3.31154 14.5834 3.54166 14.5834H13.4718C13.9027 13.8005 14.6956 13.2449 15.625 13.1422V6.66671C15.625 6.43659 15.4384 6.25005 15.2083 6.25005H3.54166Z" fill="white"/>
<path d="M15.9375 18.75C17.4908 18.75 18.75 17.4908 18.75 15.9375C18.75 14.3842 17.4908 13.125 15.9375 13.125C14.3842 13.125 13.125 14.3842 13.125 15.9375C13.125 17.4908 14.3842 18.75 15.9375 18.75Z" fill="white"/>
<path d="M17.2656 1.64148C17.2752 1.64199 17.2841 1.64612 17.2907 1.65305C17.2972 1.65997 17.3009 1.66914 17.3009 1.67868V4.06477H1.64148V1.67868C1.64147 1.66914 1.64512 1.65997 1.65168 1.65305C1.65823 1.64612 1.6672 1.64199 1.67672 1.64148H17.2656ZM17.2656 1.25H1.67672C1.56337 1.25052 1.45483 1.29591 1.37486 1.37625C1.29489 1.45658 1.25 1.56532 1.25 1.67868V4.45626H17.6924V1.67868C17.6924 1.56532 17.6475 1.45658 17.5675 1.37625C17.4875 1.29591 17.379 1.25052 17.2656 1.25Z" fill="#3A424A"/>
<path d="M2.73373 3.3053C2.98561 3.3053 3.18981 3.10111 3.18981 2.84922C3.18981 2.59733 2.98561 2.39314 2.73373 2.39314C2.48184 2.39314 2.27765 2.59733 2.27765 2.84922C2.27765 3.10111 2.48184 3.3053 2.73373 3.3053Z" fill="#3A424A"/>
<path d="M4.10392 3.3053C4.35581 3.3053 4.56 3.10111 4.56 2.84922C4.56 2.59733 4.35581 2.39314 4.10392 2.39314C3.85204 2.39314 3.64784 2.59733 3.64784 2.84922C3.64784 3.10111 3.85204 3.3053 4.10392 3.3053Z" fill="#3A424A"/>
<path d="M5.47412 3.3053C5.726 3.3053 5.9302 3.10111 5.9302 2.84922C5.9302 2.59733 5.726 2.39314 5.47412 2.39314C5.22223 2.39314 5.01804 2.59733 5.01804 2.84922C5.01804 3.10111 5.22223 3.3053 5.47412 3.3053Z" fill="#3A424A"/>
<path fill-rule="evenodd" clip-rule="evenodd" d="M15.9375 18.521C17.3643 18.521 18.521 17.3643 18.521 15.9375C18.521 14.5107 17.3643 13.354 15.9375 13.354C14.5107 13.354 13.354 14.5107 13.354 15.9375C13.354 17.3643 14.5107 18.521 15.9375 18.521ZM18.75 15.9375C18.75 17.4908 17.4908 18.75 15.9375 18.75C14.3842 18.75 13.125 17.4908 13.125 15.9375C13.125 14.3842 14.3842 13.125 15.9375 13.125C17.4908 13.125 18.75 14.3842 18.75 15.9375Z" fill="#3A424A"/>
<path d="M16.3294 14.2805V14.7643L16.404 14.7916C16.4324 14.8018 16.4609 14.8138 16.4888 14.8263L16.5605 14.8582L16.902 14.5167L17.4142 15.0289L17.0801 15.363L17.1148 15.4358C17.129 15.466 17.1427 15.4967 17.1546 15.528L17.1831 15.6032H17.6521V16.3294H17.2639L17.1934 16.3385L17.1706 16.4051C17.1581 16.4404 17.1438 16.4757 17.1285 16.5098L17.0966 16.5815L17.417 16.902L16.9048 17.4142L16.5923 17.1017L16.5201 17.1364C16.4829 17.1541 16.445 17.1699 16.4062 17.1837L16.3294 17.2121V17.6526H15.6032V17.2121L15.5286 17.1831C15.4898 17.1694 15.4519 17.1537 15.4148 17.1359L15.3419 17.1011L15.0295 17.4136L14.5173 16.9014L14.8377 16.581L14.8052 16.5092C14.7899 16.4751 14.7762 16.4398 14.7637 16.4045L14.7358 16.3294H14.2805V15.6032H14.7489L14.7774 15.5303C14.7893 15.499 14.8024 15.4683 14.8172 15.4381L14.8496 15.3653L14.7927 15.3084L14.515 15.0312L15.0272 14.519C15.318 14.8104 15.3186 14.8104 15.3249 14.8149L15.3784 14.8553L15.4398 14.8274C15.4671 14.8155 15.4967 14.8035 15.5246 14.7933L15.5992 14.766V14.2805H16.3294ZM15.4893 14.1667V14.6846C15.4582 14.696 15.4275 14.7085 15.3971 14.7221L15.0312 14.3568L14.3568 15.0312L14.7142 15.3892C14.6988 15.4216 14.684 15.4552 14.6709 15.4893H14.1667V16.4432H14.655C14.6686 16.4819 14.684 16.5201 14.7005 16.5571L14.359 16.9014L15.0312 17.5764L15.3676 17.24C15.4068 17.2588 15.4478 17.2759 15.4893 17.2912V17.7659H16.4432V17.2918C16.4848 17.2764 16.5252 17.2594 16.565 17.2406L16.9014 17.5764L17.5764 16.902L17.2349 16.5576C17.2514 16.5206 17.2668 16.4825 17.2799 16.4438H17.7687V15.4893H17.2622C17.2486 15.4552 17.2343 15.4216 17.2184 15.3892L17.5764 15.0312L16.902 14.3568L16.536 14.7221C16.5056 14.7085 16.4749 14.696 16.4438 14.6846V14.1667H15.4893Z" fill="#3A424A"/>
<path fill-rule="evenodd" clip-rule="evenodd" d="M15.9595 16.5001C16.2581 16.5001 16.5001 16.2581 16.5001 15.9595C16.5001 15.6608 16.2581 15.4188 15.9595 15.4188C15.6608 15.4188 15.4188 15.6608 15.4188 15.9595C15.4188 16.2581 15.6608 16.5001 15.9595 16.5001ZM15.9595 16.614C16.3209 16.614 16.614 16.3209 16.614 15.9595C16.614 15.598 16.3209 15.3049 15.9595 15.3049C15.598 15.3049 15.3049 15.598 15.3049 15.9595C15.3049 16.3209 15.598 16.614 15.9595 16.614Z" fill="#3A424A"/>
<path d="M5.53406 12.5H4.58333L6.03197 8.33333H7.1753L8.62189 12.5H7.67116L7.35971 11.5499H5.84551L5.53406 12.5ZM6.0709 10.8622H7.13637L6.62003 9.28548H6.58724L6.0709 10.8622Z" fill="#3A424A"/>
<path d="M9.12697 12.5V8.33333H10.7826C11.7353 8.33333 12.2865 8.91724 12.2865 9.74528C12.2865 10.5774 11.7251 11.1491 10.76 11.1491H10.0142V12.5H9.12697ZM10.0142 10.4431H10.6166C11.1247 10.4431 11.3727 10.1583 11.3727 9.74528C11.3727 9.33024 11.1247 9.05355 10.6125 9.05355H10.0142V10.4431Z" fill="#3A424A"/>
<path d="M13.75 8.33333V12.5H12.8628V8.33333H13.75Z" fill="#3A424A"/>
</svg>
