<svg width="20" height="20" viewBox="0 0 20 20" fill="none" xmlns="http://www.w3.org/2000/svg">
<path d="M6.64859 11.9806L3.7063 5.54077L4.08528 5.36761L7.02748 11.8072L7.57705 10.1479L7.97288 10.2791L7.18538 12.6541L4.87288 11.6958L5.0333 11.3104L6.64859 11.9806Z" fill="#3A424A"/>
<path d="M12.9724 11.8072L15.9146 5.36761L16.2936 5.54077L13.3513 11.9806L14.9666 11.3104L15.1271 11.6958L12.8146 12.6541L12.0271 10.2791L12.4229 10.1479L12.9724 11.8072Z" fill="#3A424A"/>
<path d="M9.79162 16.3511V9.27086H10.2083V16.3508L11.3979 15.0708L11.7041 15.3541L9.99997 17.1875L8.2958 15.3541L8.59997 15.0708L9.79162 16.3511Z" fill="#3A424A"/>
<path d="M3.54996 4.69585L4.25204 3.22919L5.11871 5.12502L4.60491 6.50499L4.08528 5.36766L3.70629 5.54081L4.22599 6.67827L2.84371 6.16252L1.97913 4.26877L3.54996 4.69585Z" fill="#0067D1"/>
<path d="M16.452 4.69585L15.7458 3.22919L14.8812 5.12502L15.395 6.50497L15.9146 5.36766L16.2936 5.54081L15.774 6.67812L17.1541 6.16252L18.0208 4.26877L16.452 4.69585Z" fill="#0067D1"/>
<path d="M8.74996 7.39585L9.99996 8.43752L11.25 7.39585V9.47919L10.2083 10.5209V9.2709H9.79162V10.5208L8.74996 9.47919V7.39585Z" fill="#0067D1"/>
</svg>
