<svg width="20" height="20" viewBox="0 0 20 20" fill="none" xmlns="http://www.w3.org/2000/svg">
<path d="M10.087 1.86475L17.1331 5.93194V5.97913C17.13 8.43479 16.4831 10.8467 15.257 12.9742C14.8858 13.049 14.5309 13.1958 14.2129 13.4082C13.7333 13.7287 13.3595 14.1842 13.1387 14.7172C12.9712 15.1215 12.8976 15.5567 12.9209 15.9902C12.0859 16.8089 11.1484 17.5235 10.1279 18.1147C10.1145 18.1179 10.1005 18.1179 10.087 18.1147C10.0746 18.1175 10.0617 18.1175 10.0493 18.1147C7.92029 16.8829 6.15211 15.1137 4.92164 12.984C3.69118 10.8543 3.04158 8.43875 3.03784 5.97913V5.93194L10.087 1.86475Z" fill="white"/>
<path d="M17.2223 13.7547C16.8112 13.48 16.3278 13.3334 15.8334 13.3334C15.1703 13.3334 14.5344 13.5967 14.0656 14.0656C13.5967 14.5344 13.3334 15.1703 13.3334 15.8334C13.3334 16.3278 13.48 16.8112 13.7547 17.2223C14.0294 17.6334 14.4198 17.9538 14.8766 18.1431C15.3335 18.3323 15.8361 18.3818 16.3211 18.2853C16.806 18.1889 17.2515 17.9508 17.6011 17.6011C17.9508 17.2515 18.1889 16.806 18.2853 16.3211C18.3818 15.8361 18.3323 15.3335 18.1431 14.8766C17.9538 14.4198 17.6334 14.0294 17.2223 13.7547Z" fill="white"/>
<path d="M10.0047 10.8908C11.558 10.8908 12.8172 9.63161 12.8172 8.07831C12.8172 6.52501 11.558 5.26581 10.0047 5.26581C8.45144 5.26581 7.19224 6.52501 7.19224 8.07831C7.19224 9.63161 8.45144 10.8908 10.0047 10.8908Z" fill="#0067D1"/>
<path d="M12.9209 15.9902C12.8975 15.5567 12.9712 15.1215 13.1387 14.7172C13.3572 14.1896 13.7258 13.7378 14.1985 13.4179C14.0431 13.2061 13.8709 13.0052 13.6829 12.8171C12.7061 11.8404 11.3813 11.2916 10 11.2916C9.31578 11.2916 8.63825 11.4265 8.00614 11.6884C7.37403 11.9503 6.79973 12.3343 6.31605 12.8182C5.99544 13.139 5.71881 13.4996 5.49255 13.8904C6.67447 15.6173 8.23016 17.0622 10.0493 18.1146C10.0617 18.1175 10.0746 18.1175 10.087 18.1146C10.1005 18.1179 10.1145 18.1179 10.1279 18.1146C11.1484 17.5235 12.0859 16.8089 12.9209 15.9902Z" fill="#0067D1"/>
<path d="M15.8333 13.3333C16.3278 13.3333 16.8111 13.4799 17.2222 13.7546C17.6333 14.0293 17.9538 14.4198 18.143 14.8766C18.3322 15.3334 18.3817 15.8361 18.2853 16.321C18.1888 16.806 17.9507 17.2514 17.6011 17.6011C17.2514 17.9507 16.806 18.1888 16.321 18.2853C15.8361 18.3817 15.3334 18.3322 14.8766 18.143C14.4198 17.9538 14.0293 17.6334 13.7546 17.2222C13.4799 16.8111 13.3333 16.3278 13.3333 15.8333C13.3333 15.1703 13.5967 14.5344 14.0655 14.0655C14.5344 13.5967 15.1703 13.3333 15.8333 13.3333ZM15.8333 12.9166C15.2564 12.9166 14.6925 13.0877 14.2129 13.4082C13.7332 13.7287 13.3594 14.1842 13.1386 14.7172C12.9179 15.2501 12.8601 15.8365 12.9727 16.4023C13.0852 16.9681 13.363 17.4878 13.7709 17.8957C14.1788 18.3036 14.6985 18.5814 15.2643 18.6939C15.8301 18.8065 16.4165 18.7487 16.9495 18.528C17.4824 18.3072 17.9379 17.9334 18.2584 17.4537C18.5789 16.9741 18.75 16.4102 18.75 15.8333C18.75 15.0598 18.4427 14.3179 17.8957 13.7709C17.3487 13.2239 16.6068 12.9166 15.8333 12.9166Z" fill="#3A424A"/>
<path d="M10.087 1.86467L17.133 5.93186V5.97905C17.1299 8.43472 16.483 10.8466 15.2569 12.9742C15.4458 12.9361 15.6388 12.9166 15.8333 12.9166C15.8904 12.9166 15.9474 12.9183 16.0041 12.9216C17.1526 10.7901 17.7556 8.40479 17.7558 5.97905V5.80919C17.7559 5.736 17.7368 5.66408 17.7003 5.6006C17.6639 5.53713 17.6115 5.48432 17.5482 5.44745L10.2977 1.25758C10.2328 1.22302 10.1605 1.20468 10.087 1.2041C10.0145 1.20506 9.9433 1.22339 9.87937 1.25758L2.62259 5.44745C2.5582 5.48352 2.50449 5.53598 2.46692 5.59951C2.42936 5.66304 2.40927 5.73538 2.40869 5.80919V5.97905C2.40896 8.54854 3.08552 11.0727 4.37038 13.2979C5.65524 15.5231 7.50314 17.3709 9.72839 18.6556C9.83608 18.7174 9.95809 18.75 10.0823 18.75C10.2064 18.75 10.3284 18.7174 10.4361 18.6556C11.3825 18.1092 12.2607 17.4609 13.0563 16.7251C13.0224 16.6196 12.9945 16.5118 12.9727 16.4023C12.9455 16.2658 12.9283 16.128 12.9208 15.9901C12.0859 16.8088 11.1484 17.5235 10.1279 18.1146C10.1144 18.1178 10.1004 18.1178 10.087 18.1146C10.0746 18.1174 10.0617 18.1174 10.0492 18.1146C7.92025 16.8828 6.15207 15.1136 4.9216 12.9839C3.69114 10.8542 3.04154 8.43867 3.0378 5.97905V5.93186L10.087 1.86467Z" fill="#3A424A"/>
<path fill-rule="evenodd" clip-rule="evenodd" d="M17.5 14.8606L15.6613 17.2916L14.1666 15.8095L14.4961 15.4827L15.6109 16.5882L17.1272 14.5833L17.5 14.8606Z" fill="#3A424A"/>
</svg>
