<svg width="20" height="20" viewBox="0 0 20 20" fill="none" xmlns="http://www.w3.org/2000/svg">
<path fill-rule="evenodd" clip-rule="evenodd" d="M14.943 2.73844L2.20963 13.8155L1.93616 13.5012L14.6695 2.42407L14.943 2.73844Z" fill="#3A424A"/>
<path d="M14.8833 4.77292L14.4687 4.72917L14.6854 2.6875L12.6312 2.61875L12.6458 2.20209L15.1479 2.28542L14.8833 4.77292Z" fill="#3A424A"/>
<path d="M3.72083 15.9042H1.6625C1.43468 15.9042 1.25 16.0888 1.25 16.3167V18.375C1.25 18.6028 1.43468 18.7875 1.6625 18.7875H3.72083C3.94865 18.7875 4.13333 18.6028 4.13333 18.375V16.3167C4.13333 16.0888 3.94865 15.9042 3.72083 15.9042Z" fill="#0067D1"/>
<path d="M7.375 13.0229H5.31667C5.08885 13.0229 4.90417 13.2076 4.90417 13.4354V18.375C4.90417 18.6028 5.08885 18.7875 5.31667 18.7875H7.375C7.60282 18.7875 7.7875 18.6028 7.7875 18.375V13.4354C7.7875 13.2076 7.60282 13.0229 7.375 13.0229Z" fill="#0067D1"/>
<path d="M11.0292 10.1396H8.97083C8.74302 10.1396 8.55833 10.3243 8.55833 10.5521V18.375C8.55833 18.6028 8.74302 18.7875 8.97083 18.7875H11.0292C11.257 18.7875 11.4417 18.6028 11.4417 18.375V10.5521C11.4417 10.3243 11.257 10.1396 11.0292 10.1396Z" fill="#0067D1"/>
<path d="M14.6833 7.25833H12.625C12.3972 7.25833 12.2125 7.44302 12.2125 7.67083V18.375C12.2125 18.6028 12.3972 18.7875 12.625 18.7875H14.6833C14.9112 18.7875 15.0958 18.6028 15.0958 18.375V7.67083C15.0958 7.44302 14.9112 7.25833 14.6833 7.25833Z" fill="#0067D1"/>
<path d="M18.3375 4.375H16.2792C16.0513 4.375 15.8667 4.55968 15.8667 4.7875V18.375C15.8667 18.6028 16.0513 18.7875 16.2792 18.7875H18.3375C18.5653 18.7875 18.75 18.6028 18.75 18.375V4.7875C18.75 4.55968 18.5653 4.375 18.3375 4.375Z" fill="#0067D1"/>
</svg>
