<svg width="20" height="20" viewBox="0 0 20 20" fill="none" xmlns="http://www.w3.org/2000/svg">
<path d="M14.9575 6.7042C14.8662 6.57233 14.7694 6.44381 14.6673 6.31898C13.861 5.33355 12.7627 4.62962 11.5306 4.30867C11.2761 4.24238 11.0186 4.19313 10.7598 4.16084C10.8222 3.96035 10.9168 3.7696 11.0414 3.59652C11.3173 3.21345 11.722 2.94254 12.1813 2.83336L12.3229 2.80003L12.4021 2.67711C12.7007 2.20928 13.14 1.84815 13.6567 1.64559C14.1735 1.44304 14.7411 1.40948 15.2781 1.54975C15.8151 1.69002 16.2939 1.9969 16.6455 2.42629C16.9972 2.85568 17.2037 3.38549 17.2354 3.93961L17.2521 4.24795L17.5604 4.28128C17.8586 4.32072 18.1317 4.46904 18.3271 4.6977C18.5225 4.92635 18.6265 5.2192 18.619 5.51989C18.6115 5.82058 18.4931 6.10788 18.2865 6.32651C18.0799 6.54514 17.7998 6.67967 17.5 6.7042H14.9575Z" fill="white"/>
<path d="M4.14792 18.5417C3.48211 18.5154 2.84865 18.2476 2.36595 17.7882C1.88326 17.3289 1.58436 16.7095 1.52514 16.0458C1.46592 15.3821 1.65042 14.7196 2.04417 14.182C2.43791 13.6445 3.01395 13.2687 3.66459 13.125L3.80625 13.0917L3.88542 12.9688C4.29752 12.3234 4.90359 11.8254 5.61652 11.5461C6.32946 11.2669 7.11256 11.2208 7.85332 11.4146C8.59407 11.6083 9.25433 12.0319 9.73924 12.6245C10.2241 13.217 10.5087 13.9481 10.5521 14.7125L10.5688 15.0188L10.875 15.0521C11.3305 15.0743 11.7592 15.2739 12.0694 15.6082C12.3797 15.9424 12.5468 16.3848 12.5351 16.8406C12.5234 17.2965 12.3338 17.7297 12.0068 18.0476C11.6798 18.3655 11.2415 18.5428 10.7854 18.5417H4.14792Z" fill="white"/>
<path d="M16.2799 2.33075C15.8312 1.90418 15.2357 1.66642 14.6166 1.66667C14.2104 1.66585 13.8105 1.7678 13.4543 1.96305C13.0981 2.15829 12.797 2.44047 12.5791 2.78333L12.5458 2.8375L12.4541 2.97917L12.2291 3.03333C11.8095 3.12289 11.4372 3.36293 11.1825 3.70816C11.0745 3.85455 10.9908 4.01556 10.9331 4.18505C10.8055 4.16533 10.6775 4.14976 10.5492 4.13833C10.6177 3.901 10.7267 3.67523 10.8733 3.47154C11.1782 3.04784 11.6255 2.74807 12.1333 2.62708L12.1937 2.6125L12.227 2.56042C12.4831 2.15873 12.8363 1.82808 13.2539 1.59903C13.6716 1.36999 14.1403 1.24994 14.6166 1.25C15.3402 1.24993 16.0363 1.52687 16.562 2.02395C17.0878 2.52102 17.4032 3.20052 17.4437 3.92292V4.05417L17.575 4.06875C17.9289 4.11007 18.2545 4.2823 18.4879 4.55156C18.7213 4.82083 18.8455 5.16766 18.8361 5.52386C18.8267 5.88005 18.6843 6.21985 18.4371 6.47643C18.1898 6.73301 17.8556 6.88782 17.5 6.91042H15.094C15.0065 6.77227 14.9133 6.63742 14.8144 6.50625H17.477C17.7293 6.49079 17.9667 6.38132 18.1422 6.19946C18.3178 6.0176 18.4188 5.77655 18.4253 5.52387C18.4318 5.27119 18.3434 5.02523 18.1775 4.83453C18.0116 4.64384 17.7803 4.52224 17.5291 4.49375L17.3979 4.48125L17.0458 4.44375L17.027 4.08958V3.95833C16.996 3.34003 16.7285 2.75731 16.2799 2.33075Z" fill="#3A424A"/>
<path d="M6.93954 11.5104C7.81141 11.5101 8.65028 11.8438 9.28379 12.4428C9.91729 13.0418 10.2973 13.8607 10.3458 14.7312V14.8625L10.3666 15.2167L10.7187 15.2542L10.85 15.2688C11.2348 15.3086 11.5904 15.492 11.846 15.7824C12.1016 16.0728 12.2382 16.449 12.2288 16.8357C12.2193 17.2225 12.0644 17.5914 11.7949 17.869C11.5255 18.1466 11.1613 18.3124 10.775 18.3333H4.16662C3.55481 18.3049 2.97402 18.0558 2.53175 17.6321C2.08947 17.2084 1.81567 16.6388 1.76103 16.0288C1.70638 15.4187 1.87458 14.8096 2.2345 14.314C2.59442 13.8185 3.12169 13.4701 3.71871 13.3333L3.94371 13.2792L4.03537 13.1375L4.06871 13.0854C4.37574 12.6005 4.80067 12.2013 5.30381 11.9252C5.80694 11.649 6.37185 11.5049 6.94579 11.5062M6.94579 11.0896C6.30208 11.0895 5.66875 11.2518 5.10433 11.5613C4.53992 11.8708 4.06264 12.3176 3.71662 12.8604L3.68329 12.9125L3.62287 12.9271C2.92753 13.0855 2.31313 13.4905 1.89337 14.067C1.47362 14.6436 1.27693 15.3527 1.3397 16.063C1.40248 16.7734 1.72048 17.437 2.23484 17.931C2.74921 18.425 3.42511 18.716 4.13746 18.75H10.7979C11.2876 18.7225 11.749 18.5118 12.0905 18.1599C12.4321 17.8079 12.6289 17.3404 12.6417 16.8501C12.6546 16.3598 12.4826 15.8827 12.1599 15.5133C11.8373 15.1439 11.3875 14.9094 10.9 14.8562L10.7687 14.8417V14.7104C10.7138 13.7323 10.2864 12.8124 9.57418 12.1397C8.86199 11.467 7.91918 11.0927 6.93954 11.0938L6.94579 11.0896Z" fill="#3A424A"/>
<path d="M14.8144 6.50623C14.9133 6.6374 15.0066 6.77225 15.094 6.9104C15.64 7.77304 15.9596 8.76431 16.0166 9.79167C16.8113 9.87705 17.5448 10.2585 18.0711 10.8601C18.5974 11.4616 18.878 12.2393 18.857 13.0383C18.8359 13.8374 18.5149 14.5992 17.9577 15.1723C17.4006 15.7454 16.6481 16.0878 15.8499 16.1313V16.1396H12.5278C12.4461 15.9116 12.322 15.6988 12.1599 15.5133C11.8373 15.1439 11.3875 14.9094 10.9 14.8562L10.7687 14.8416V14.7104C10.7138 13.7323 10.2864 12.8124 9.57419 12.1397C8.862 11.467 7.91919 11.0927 6.93955 11.0937L6.9458 11.0896C6.30209 11.0895 5.66876 11.2518 5.10434 11.5613C4.53993 11.8708 4.06265 12.3176 3.71663 12.8604L3.6833 12.9125L3.62288 12.9271C2.99991 13.069 2.44191 13.4088 2.03064 13.8927C1.66261 13.2863 1.43426 12.5996 1.36956 11.8827C1.26849 10.7629 1.57349 9.64407 2.22889 8.73045C2.88429 7.81684 3.84637 7.16938 4.93953 6.90626C5.62138 5.83099 6.62708 5.00002 7.81164 4.53317C8.68527 4.18886 9.6229 4.05572 10.5492 4.13831C10.6374 4.14617 10.7255 4.15598 10.8134 4.16776C10.8533 4.17311 10.8932 4.17887 10.9331 4.18503C11.1335 4.21599 11.3329 4.25718 11.5305 4.30865C11.9901 4.42836 12.431 4.60135 12.8452 4.82235C13.5414 5.19388 14.1617 5.70109 14.6673 6.31896C14.6736 6.32666 14.6798 6.33436 14.6861 6.34208C14.7299 6.39612 14.7726 6.45085 14.8144 6.50623Z" fill="#0067D1"/>
</svg>
