<svg width="20" height="20" viewBox="0 0 20 20" fill="none" xmlns="http://www.w3.org/2000/svg">
<path fill-rule="evenodd" clip-rule="evenodd" d="M7.20413 5.3125H12.7958C14.4734 5.3125 15.8333 6.67244 15.8333 8.35V10.1917C15.8333 11.8692 14.4734 13.2292 12.7958 13.2292H7.20413C5.52656 13.2292 4.16663 11.8692 4.16663 10.1917V8.35C4.16663 6.67244 5.52656 5.3125 7.20413 5.3125ZM6.23954 7.1875H13.7604C14.0998 7.1875 14.375 7.46266 14.375 7.80208V10.7396C14.375 11.079 14.0998 11.3542 13.7604 11.3542H6.23954C5.90012 11.3542 5.62496 11.079 5.62496 10.7396V7.80208C5.62496 7.46266 5.90012 7.1875 6.23954 7.1875Z" fill="#0067D1"/>
<path d="M12.7184 15.5697C13.4326 15.9459 14.0596 16.4655 14.561 17.0943C13.6768 17.6624 12.6897 18.0633 11.6486 18.2707C10.0121 18.5967 8.31578 18.4302 6.77395 17.7923C6.65802 17.7443 6.54336 17.6938 6.43003 17.6409L6.48757 17.5579C6.80806 17.0783 6.97912 16.5144 6.97912 15.9375C6.97912 15.8729 6.97697 15.8086 6.97273 15.7445C7.0737 15.6832 7.17667 15.6249 7.28151 15.5697C8.11964 15.1283 9.05268 14.7917 9.99996 14.7917C10.9472 14.7917 11.8803 15.1283 12.7184 15.5697Z" fill="#0067D1"/>
<path d="M14.6871 2.98002C13.2997 2.05308 11.6685 1.55833 9.99994 1.55833C7.7623 1.56109 5.61716 2.45149 4.0353 4.03414C2.45344 5.61678 1.56409 7.76235 1.56244 10C1.56305 11.2393 1.83659 12.4579 2.35738 13.5711C2.38347 13.5523 2.40991 13.5339 2.43667 13.516L2.44203 13.5124C2.89169 13.2119 3.41542 13.0428 3.95445 13.0228C3.99038 13.0215 4.02639 13.0208 4.06244 13.0208C4.83599 13.0208 5.57785 13.3281 6.12484 13.8751C6.62616 14.3764 6.92613 15.0415 6.97272 15.7445C7.07369 15.6832 7.17665 15.6249 7.28149 15.5697C7.84086 15.2751 8.4425 15.0272 9.06244 14.8948V13.2292H7.20411C5.78388 13.2292 4.59131 12.2545 4.25885 10.9375H2.94369C2.85363 10.9375 2.76725 10.9017 2.70357 10.838C2.63988 10.7744 2.60411 10.688 2.60411 10.5979V7.94375C2.60411 7.85369 2.63988 7.76731 2.70357 7.70363C2.76725 7.63994 2.85363 7.60417 2.94369 7.60417H4.25885C4.59131 6.28721 5.78388 5.3125 7.20411 5.3125H12.7958C14.2243 5.3125 15.4225 6.29867 15.7468 7.62737C15.7449 7.61962 15.743 7.61189 15.741 7.60417H17.0562C17.1463 7.60417 17.2326 7.63994 17.2963 7.70363C17.36 7.76731 17.3958 7.85369 17.3958 7.94375V10.5979C17.3958 10.688 17.36 10.7744 17.2963 10.838C17.2326 10.9017 17.1463 10.9375 17.0562 10.9375H15.741C15.4086 12.2545 14.216 13.2292 12.7958 13.2292H10.9374V14.8948C11.5574 15.0272 12.159 15.2751 12.7184 15.5697C13.4326 15.9459 14.0596 16.4655 14.561 17.0943C15.0666 16.7695 15.5385 16.3899 15.9676 15.9606C17.1472 14.7804 17.9504 13.277 18.2756 11.6404C18.6008 10.0038 18.4335 8.30749 17.7948 6.76598C17.156 5.22447 16.0746 3.90696 14.6871 2.98002Z" fill="white"/>
<path d="M10.5208 14.8244V14.2708H9.47911L9.47911 14.8244C9.6519 14.8031 9.82568 14.7917 9.99994 14.7917C10.1742 14.7917 10.348 14.8031 10.5208 14.8244Z" fill="white"/>
<path d="M10.5208 13.2292H9.47911V13.8542H10.5208V13.2292Z" fill="white"/>
<path d="M15.8139 10.5368C15.8145 10.5315 15.8151 10.5262 15.8156 10.5208H16.9791V8.02083H15.8156C15.8273 8.12896 15.8333 8.23878 15.8333 8.35V10.1917C15.8333 10.3084 15.8267 10.4236 15.8139 10.5368Z" fill="white"/>
<path d="M4.18424 8.02083H3.02077V10.5208H4.18424C4.17258 10.4127 4.16661 10.3029 4.16661 10.1917V8.35C4.16661 8.23878 4.17258 8.12896 4.18424 8.02083Z" fill="white"/>
<path fill-rule="evenodd" clip-rule="evenodd" d="M4.06244 13.4375C4.55689 13.4375 5.04024 13.5841 5.45136 13.8588C5.86249 14.1335 6.18292 14.524 6.37214 14.9808C6.56136 15.4376 6.61087 15.9403 6.5144 16.4252C6.41794 16.9102 6.17984 17.3556 5.83021 17.7053C5.48057 18.0549 5.03512 18.293 4.55016 18.3895C4.06521 18.4859 3.56255 18.4364 3.10573 18.2472C2.64892 18.058 2.25847 17.7375 1.98377 17.3264C1.70906 16.9153 1.56244 16.432 1.56244 15.9375C1.56244 15.2745 1.82583 14.6386 2.29467 14.1697C2.76351 13.7009 3.3994 13.4375 4.06244 13.4375ZM4.9047 17.0744L4.06243 16.2321L3.22016 17.0744L2.92553 16.7798L3.7678 15.9375L2.92553 15.0952L3.22016 14.8006L4.06243 15.6429L4.9047 14.8006L5.19933 15.0952L4.35706 15.9375L5.19933 16.7798L4.9047 17.0744Z" fill="white"/>
<path fill-rule="evenodd" clip-rule="evenodd" d="M6.23952 7.1875H13.7604C14.0998 7.1875 14.3749 7.46266 14.3749 7.80208V10.7396C14.3749 11.079 14.0998 11.3542 13.7604 11.3542H6.23952C5.9001 11.3542 5.62494 11.079 5.62494 10.7396V7.80208C5.62494 7.46266 5.9001 7.1875 6.23952 7.1875ZM8.95827 9.77917V8.83958L7.29161 8.22917V9.77917C7.29161 10.0002 7.3794 10.2121 7.53568 10.3684C7.69196 10.5247 7.90393 10.6125 8.12494 10.6125C8.34595 10.6125 8.55791 10.5247 8.71419 10.3684C8.87048 10.2121 8.95827 10.0002 8.95827 9.77917ZM12.7083 9.77917V8.3625L11.0416 8.975V9.77917C11.0416 10.0002 11.1294 10.2121 11.2857 10.3684C11.442 10.5247 11.6539 10.6125 11.8749 10.6125C12.096 10.6125 12.3079 10.5247 12.4642 10.3684C12.6205 10.2121 12.7083 10.0002 12.7083 9.77917Z" fill="white"/>
<path d="M14.6871 2.98002C13.2997 2.05308 11.6685 1.55833 9.99994 1.55833C7.7623 1.56109 5.61716 2.45149 4.0353 4.03414C2.45344 5.61678 1.56409 7.76235 1.56244 10C1.56305 11.2393 1.83659 12.4579 2.35738 13.5711C2.23899 13.6564 2.12759 13.7502 2.02395 13.8515C1.69887 13.1788 1.4585 12.4642 1.31137 11.7236C0.970054 10.0056 1.14586 8.22496 1.81654 6.60685C2.48723 4.98874 3.62269 3.60585 5.07932 2.63305C6.53595 1.66026 8.24834 1.14125 9.99994 1.14166C11.163 1.14166 12.3147 1.37082 13.3892 1.81604C14.4638 2.26127 15.44 2.91383 16.2623 3.73646C17.0845 4.55909 17.7366 5.53566 18.1813 6.61037C18.626 7.68509 18.8547 8.8369 18.8541 10C18.8537 11.7516 18.3339 13.4637 17.3604 14.9199C16.3869 16.3761 15.0035 17.5109 13.3851 18.1808C11.7666 18.8507 9.98591 19.0257 8.26804 18.6836C7.53096 18.5368 6.81966 18.2976 6.1499 17.9745C6.25111 17.8708 6.34479 17.7593 6.43001 17.6409C6.54334 17.6938 6.658 17.7443 6.77393 17.7923C8.31576 18.4302 10.0121 18.5967 11.6486 18.2707C13.285 17.9447 14.788 17.1407 15.9676 15.9606C17.1472 14.7804 17.9504 13.277 18.2756 11.6404C18.6008 10.0038 18.4335 8.30749 17.7948 6.76598C17.156 5.22447 16.0746 3.90696 14.6871 2.98002Z" fill="#3A424A"/>
<path d="M4.06243 16.2321L4.9047 17.0744L5.19933 16.7798L4.35706 15.9375L5.19933 15.0952L4.9047 14.8006L4.06243 15.6429L3.22016 14.8006L2.92553 15.0952L3.7678 15.9375L2.92553 16.7798L3.22016 17.0744L4.06243 16.2321Z" fill="#3A424A"/>
<path d="M4.06244 13.4375C4.55689 13.4375 5.04024 13.5841 5.45136 13.8588C5.86249 14.1335 6.18292 14.524 6.37214 14.9808C6.56136 15.4376 6.61087 15.9403 6.5144 16.4252C6.41794 16.9102 6.17984 17.3556 5.83021 17.7053C5.48057 18.0549 5.03512 18.293 4.55016 18.3895C4.06521 18.4859 3.56255 18.4364 3.10573 18.2472C2.64892 18.058 2.25847 17.7375 1.98377 17.3264C1.70906 16.9153 1.56244 16.432 1.56244 15.9375C1.56244 15.2745 1.82583 14.6386 2.29467 14.1697C2.76351 13.7009 3.3994 13.4375 4.06244 13.4375ZM4.06244 13.0208C3.48558 13.0208 2.92167 13.1919 2.44203 13.5124C1.96238 13.8329 1.58855 14.2884 1.36779 14.8213C1.14703 15.3543 1.08928 15.9407 1.20182 16.5065C1.31436 17.0723 1.59214 17.592 2.00004 17.9999C2.40795 18.4078 2.92765 18.6856 3.49343 18.7981C4.0592 18.9107 4.64565 18.8529 5.1786 18.6321C5.71155 18.4114 6.16707 18.0376 6.48756 17.5579C6.80805 17.0783 6.97911 16.5144 6.97911 15.9375C6.97911 15.164 6.67182 14.4221 6.12484 13.8751C5.57785 13.3281 4.83599 13.0208 4.06244 13.0208Z" fill="#3A424A"/>
<path d="M4.25885 7.60417H2.94369C2.85363 7.60417 2.76725 7.63994 2.70357 7.70363C2.63988 7.76731 2.60411 7.85369 2.60411 7.94375V10.5979C2.60411 10.688 2.63988 10.7744 2.70357 10.838C2.76725 10.9017 2.85363 10.9375 2.94369 10.9375H4.25885C4.22464 10.802 4.19954 10.6629 4.18424 10.5208H3.02077V8.02083H4.18424C4.19954 7.87878 4.22464 7.73966 4.25885 7.60417Z" fill="#3A424A"/>
<path d="M15.741 10.9375H17.0562C17.1463 10.9375 17.2326 10.9017 17.2963 10.838C17.36 10.7744 17.3958 10.688 17.3958 10.5979V7.94375C17.3958 7.85369 17.36 7.76731 17.2963 7.70363C17.2326 7.63994 17.1463 7.60417 17.0562 7.60417H15.741C15.7752 7.73966 15.8003 7.87878 15.8156 8.02083H16.9791V10.5208H15.8156C15.8003 10.6629 15.7752 10.802 15.741 10.9375Z" fill="#3A424A"/>
<path d="M8.95827 8.83958V9.77917C8.95827 10.0002 8.87048 10.2121 8.71419 10.3684C8.55791 10.5247 8.34595 10.6125 8.12494 10.6125C7.90393 10.6125 7.69196 10.5247 7.53568 10.3684C7.3794 10.2121 7.29161 10.0002 7.29161 9.77917V8.32083C7.29161 8.28958 7.29161 8.26042 7.29161 8.22917L8.95827 8.83958Z" fill="#3A424A"/>
<path d="M12.7083 8.3625V9.77917C12.7083 10.0002 12.6205 10.2121 12.4642 10.3684C12.3079 10.5247 12.096 10.6125 11.8749 10.6125C11.6539 10.6125 11.442 10.5247 11.2857 10.3684C11.1294 10.2121 11.0416 10.0002 11.0416 9.77917V8.975L12.7083 8.3625Z" fill="#3A424A"/>
<path d="M9.06244 13.2292V14.8948C9.20051 14.8654 9.33949 14.8416 9.47911 14.8244L9.47911 14.2708H10.5208V14.8244C10.6604 14.8416 10.7994 14.8654 10.9374 14.8948V13.2292H10.5208V13.8542H9.47911V13.2292H9.06244Z" fill="#3A424A"/>
</svg>
