<svg width="20" height="20" viewBox="0 0 20 20" fill="none" xmlns="http://www.w3.org/2000/svg">
<path fill-rule="evenodd" clip-rule="evenodd" d="M7.13752 4.34583H12.8646C14.5824 4.34583 15.975 5.73841 15.975 7.45624V9.34374C15.975 11.0616 14.5824 12.4542 12.8646 12.4542H7.13752C5.41968 12.4542 4.0271 11.0616 4.0271 9.34374V7.45624C4.0271 5.73841 5.41968 4.34583 7.13752 4.34583ZM8.41042 10.8458C8.41546 10.8429 8.42046 10.8398 8.42542 10.8367L8.43218 10.8407C8.56005 10.7649 8.66577 10.6569 8.73873 10.5274C8.81169 10.3979 8.84932 10.2515 8.84787 10.1028V7.97447C8.84917 7.82615 8.81145 7.68009 8.73848 7.55095C8.66552 7.42181 8.55989 7.31412 8.43218 7.23869L8.43118 7.23926C8.3 7.16105 8.14906 7.11875 7.99375 7.11875C7.76721 7.11875 7.54995 7.20875 7.38977 7.36893C7.22958 7.52912 7.13959 7.74638 7.13959 7.97292V10.1063C7.14084 10.3326 7.23057 10.5494 7.38959 10.7104C7.54998 10.8704 7.76722 10.9603 7.99375 10.9604C8.14005 10.9578 8.28333 10.9184 8.41042 10.8458ZM12.8907 7.97447V10.1028C12.8921 10.2515 12.8545 10.3979 12.7815 10.5274C12.7086 10.6569 12.6028 10.7649 12.475 10.8407L12.474 10.8402L12.4692 10.8431L12.4646 10.8458C12.3344 10.9201 12.1873 10.9595 12.0375 10.9604C11.811 10.9604 11.5937 10.8704 11.4335 10.7102C11.2733 10.5501 11.1833 10.3328 11.1833 10.1063V7.97292C11.1833 7.74638 11.2733 7.52912 11.4335 7.36893C11.5937 7.20875 11.811 7.11875 12.0375 7.11875C12.1926 7.11875 12.3434 7.16095 12.4745 7.23897C12.4665 7.24352 12.4587 7.24818 12.4509 7.25297C12.4588 7.24808 12.4669 7.24332 12.475 7.23869C12.6027 7.31412 12.7083 7.42181 12.7813 7.55095C12.8266 7.63117 12.8583 7.71793 12.8755 7.80769C12.8862 7.86173 12.8917 7.91704 12.8917 7.97292H12.8907L12.8907 7.97447Z" fill="#0067D1"/>
<path d="M12.6771 18.4375V15.6437H7.3229V18.4375H12.6771Z" fill="#0067D1"/>
<path fill-rule="evenodd" clip-rule="evenodd" d="M4.7729 14.1605H15.2271V18.8542H4.7729V14.1605ZM6.90623 15.2271H13.0937V18.8542H6.90623V15.2271Z" fill="#0067D1"/>
<path d="M10.4811 1.70732C10.3386 1.61248 10.1711 1.56207 9.99997 1.56248C9.77122 1.56248 9.55184 1.65335 9.39009 1.8151C9.31 1.89519 9.24647 1.99027 9.20312 2.09492C9.15978 2.19956 9.13747 2.31172 9.13747 2.42498C9.13705 2.59616 9.18746 2.7636 9.28231 2.9061C9.37715 3.0486 9.51216 3.15974 9.67023 3.22543C9.82829 3.29113 10.0023 3.30843 10.1702 3.27513C10.3381 3.24184 10.4924 3.15945 10.6134 3.03842C10.7344 2.91738 10.8168 2.76313 10.8501 2.59522C10.8834 2.42732 10.8661 2.25331 10.8004 2.09524C10.7347 1.93717 10.6236 1.80216 10.4811 1.70732Z" fill="white"/>
<path d="M8.42537 10.8367C8.42041 10.8398 8.41541 10.8428 8.41037 10.8458C8.28328 10.9183 8.14 10.9577 7.9937 10.9604C7.76717 10.9602 7.54993 10.8704 7.38954 10.7104C7.23052 10.5494 7.14079 10.3325 7.13954 10.1062V7.97288C7.13954 7.74634 7.22953 7.52908 7.38972 7.36889C7.5499 7.20871 7.76716 7.11871 7.9937 7.11871C8.149 7.11871 8.29995 7.16101 8.43113 7.23922C8.30193 7.31331 8.19457 7.42021 8.11993 7.54912C8.04509 7.67835 8.00579 7.82509 8.00604 7.97443V10.1028C8.00617 10.3288 8.09586 10.5455 8.25546 10.7055C8.30643 10.7562 8.36351 10.8002 8.42537 10.8367Z" fill="white"/>
<path d="M12.474 10.8401C12.4709 10.842 12.4677 10.8439 12.4645 10.8458C12.3344 10.92 12.1873 10.9595 12.0375 10.9604C11.8109 10.9604 11.5937 10.8704 11.4335 10.7102C11.2733 10.55 11.1833 10.3328 11.1833 10.1062V7.97288C11.1833 7.74634 11.2733 7.52908 11.4335 7.36889C11.5937 7.20871 11.8109 7.11871 12.0375 7.11871C12.1926 7.11871 12.3433 7.16091 12.4744 7.23893C12.345 7.31304 12.2375 7.42005 12.1627 7.54912C12.0879 7.67835 12.0486 7.82509 12.0488 7.97443V10.1028C12.049 10.3288 12.1386 10.5455 12.2982 10.7055C12.3508 10.7577 12.4099 10.803 12.474 10.8401Z" fill="white"/>
<path d="M12.8753 7.8067C12.8861 7.86104 12.8916 7.91667 12.8916 7.97288H12.8906C12.891 7.9169 12.8858 7.86124 12.8753 7.8067Z" fill="white"/>
<path d="M9.45615 14.1604H10.5437V13.5146H9.45615V14.1604Z" fill="white"/>
<path d="M10.5437 12.4541H9.45615V13.098H10.5437V12.4541Z" fill="white"/>
<path fill-rule="evenodd" clip-rule="evenodd" d="M9.99997 1.14581C9.74638 1.1454 9.49838 1.22025 9.28736 1.36088C9.07634 1.5015 8.9118 1.70159 8.81456 1.93579C8.71733 2.16999 8.69178 2.42778 8.74115 2.67651C8.79052 2.92524 8.91259 3.15373 9.0919 3.33304C9.27122 3.51236 9.4997 3.63442 9.74844 3.6838C9.7628 3.68665 9.7772 3.68925 9.79162 3.6916V4.34578H10.2083V3.69092C10.3042 3.67496 10.3984 3.64805 10.4892 3.61039C10.7234 3.51315 10.9234 3.34861 11.0641 3.13759C11.2047 2.92657 11.2795 2.67857 11.2791 2.42498C11.2791 2.257 11.246 2.09066 11.1818 1.93547C11.1175 1.78027 11.0233 1.63926 10.9045 1.52047C10.7857 1.40169 10.6447 1.30747 10.4895 1.24319C10.3343 1.1789 10.1679 1.14581 9.99997 1.14581ZM9.99997 1.56248C10.1711 1.56207 10.3386 1.61248 10.4811 1.70732C10.6236 1.80216 10.7347 1.93717 10.8004 2.09524C10.8661 2.25331 10.8834 2.42732 10.8501 2.59522C10.8168 2.76313 10.7344 2.91738 10.6134 3.03842C10.4924 3.15945 10.3381 3.24184 10.1702 3.27513C10.0023 3.30843 9.82829 3.29113 9.67023 3.22543C9.51216 3.15974 9.37715 3.0486 9.28231 2.9061C9.18746 2.7636 9.13705 2.59616 9.13747 2.42498C9.13747 2.31172 9.15978 2.19956 9.20312 2.09492C9.24647 1.99027 9.31 1.89519 9.39009 1.8151C9.55184 1.65335 9.77122 1.56248 9.99997 1.56248Z" fill="#3A424A"/>
<path d="M12.8906 7.97443V10.1028C12.8921 10.2514 12.8544 10.3978 12.7815 10.5273C12.7085 10.6568 12.6028 10.7649 12.4749 10.8406C12.4105 10.8034 12.3511 10.758 12.2982 10.7055C12.1386 10.5455 12.049 10.3288 12.0488 10.1028V7.97443C12.0486 7.82509 12.0879 7.67835 12.1627 7.54912C12.2375 7.41988 12.3453 7.31277 12.4749 7.23865C12.6026 7.31408 12.7083 7.42177 12.7812 7.55091C12.8542 7.68005 12.8919 7.82611 12.8906 7.97443Z" fill="#3A424A"/>
<path d="M8.84782 7.97443V10.1028C8.84927 10.2514 8.81163 10.3978 8.73868 10.5273C8.66572 10.6568 8.56 10.7649 8.43213 10.8406C8.36767 10.8034 8.30828 10.758 8.25546 10.7055C8.09586 10.5455 8.00617 10.3288 8.00604 10.1028V7.97443C8.00579 7.82509 8.04509 7.67835 8.11993 7.54912C8.19476 7.41988 8.30248 7.31277 8.43213 7.23865C8.55984 7.31408 8.66547 7.42177 8.73843 7.55091C8.81139 7.68005 8.84912 7.82611 8.84782 7.97443Z" fill="#3A424A"/>
<path d="M12.8753 7.8067C12.8861 7.86104 12.8916 7.91667 12.8916 7.97288H12.8906C12.891 7.9169 12.8858 7.86124 12.8753 7.8067Z" fill="#3A424A"/>
<path d="M12.677 15.6437V18.4375H7.32287V15.6437H12.677ZM13.0937 15.2271H6.9062V18.8541H13.0937V15.2271Z" fill="#3A424A"/>
<path d="M2.68743 7.54586H4.02705V7.96252H2.84159V9.05002H4.02705V9.3437C4.02705 9.38489 4.02785 9.42589 4.02944 9.46669H2.68743C2.61817 9.46669 2.55171 9.43932 2.50254 9.39054C2.45338 9.34177 2.42548 9.27553 2.42493 9.20627V7.80836C2.42493 7.73874 2.45258 7.67197 2.50181 7.62274C2.55104 7.57351 2.61781 7.54586 2.68743 7.54586Z" fill="#3A424A"/>
<path d="M15.9726 9.46669H17.3124C17.3817 9.46669 17.4481 9.43932 17.4973 9.39054C17.5465 9.34177 17.5744 9.27553 17.5749 9.20627V7.80836C17.5749 7.73874 17.5473 7.67197 17.498 7.62274C17.4488 7.57351 17.382 7.54586 17.3124 7.54586H15.975V7.96252H17.1583V9.05002H15.975V9.3437C15.975 9.38489 15.9742 9.42589 15.9726 9.46669Z" fill="#3A424A"/>
<path d="M9.03949 14.1604H9.45615V13.5146H10.5437V14.1604H10.9603V12.4541H10.5437V13.098H9.45615V12.4541H9.03949V14.1604Z" fill="#3A424A"/>
</svg>
