<svg width="20" height="20" viewBox="0 0 20 20" fill="none" xmlns="http://www.w3.org/2000/svg">
<path d="M18.75 5.20834L1.25 5.20831L1.25 17.2618C1.25 17.7385 1.71544 18.125 2.28959 18.125H17.7104C18.2846 18.125 18.75 17.7385 18.75 17.2618V5.20834Z" fill="#0067D1"/>
<path d="M18.3225 2.22481C18.3155 2.21744 18.306 2.21304 18.2958 2.2125H1.70417C1.69403 2.21304 1.68449 2.21744 1.67751 2.22481C1.67054 2.23218 1.66665 2.24194 1.66667 2.25209V4.79167H18.3333V2.25209C18.3333 2.24194 18.3295 2.23218 18.3225 2.22481Z" fill="white"/>
<path d="M18.2958 2.2125C18.306 2.21304 18.3155 2.21744 18.3225 2.22481C18.3295 2.23218 18.3333 2.24194 18.3333 2.25209V4.79167H1.66667V2.25209C1.66665 2.24194 1.67054 2.23218 1.67751 2.22481C1.68449 2.21744 1.69403 2.21304 1.70417 2.2125H18.2958ZM18.2958 1.79584H1.70417C1.58352 1.79639 1.46801 1.8447 1.3829 1.9302C1.29778 2.01571 1.25 2.13144 1.25 2.25209V5.20834H18.75V2.25209C18.75 2.13144 18.7022 2.01571 18.6171 1.9302C18.532 1.8447 18.4165 1.79639 18.2958 1.79584Z" fill="#3A424A"/>
<path d="M2.82917 3.98331C3.09725 3.98331 3.31458 3.76598 3.31458 3.4979C3.31458 3.22981 3.09725 3.01248 2.82917 3.01248C2.56108 3.01248 2.34375 3.22981 2.34375 3.4979C2.34375 3.76598 2.56108 3.98331 2.82917 3.98331Z" fill="#3A424A"/>
<path d="M4.2875 3.98331C4.55559 3.98331 4.77292 3.76598 4.77292 3.4979C4.77292 3.22981 4.55559 3.01248 4.2875 3.01248C4.01941 3.01248 3.80208 3.22981 3.80208 3.4979C3.80208 3.76598 4.01941 3.98331 4.2875 3.98331Z" fill="#3A424A"/>
<path d="M5.74583 3.98331C6.01392 3.98331 6.23125 3.76598 6.23125 3.4979C6.23125 3.22981 6.01392 3.01248 5.74583 3.01248C5.47775 3.01248 5.26042 3.22981 5.26042 3.4979C5.26042 3.76598 5.47775 3.98331 5.74583 3.98331Z" fill="#3A424A"/>
</svg>
