<svg width="20" height="20" viewBox="0 0 20 20" fill="none" xmlns="http://www.w3.org/2000/svg">
<path d="M9.74793 15.5792C12.7084 15.5792 15.1083 13.1792 15.1083 10.2188C15.1083 7.25828 12.7084 4.85834 9.74793 4.85834C6.78745 4.85834 4.38751 7.25828 4.38751 10.2188C4.38751 13.1792 6.78745 15.5792 9.74793 15.5792Z" fill="#0067D1"/>
<path d="M11.4459 8.58754C10.8188 7.96045 9.90213 7.80004 9.12713 8.10212L10.5292 9.5042L9.30004 10.7334L7.89796 9.33129C7.59587 10.1084 7.75629 11.023 8.38337 11.65C9.01046 12.2771 9.92713 12.4375 10.7021 12.1355L15.8834 17.3167L17.1125 16.0875L11.9313 10.9063C12.2334 10.1292 12.073 9.21462 11.4459 8.58754Z" fill="white"/>
<path fill-rule="evenodd" clip-rule="evenodd" d="M9.05143 7.90801C9.9004 7.5771 10.9053 7.75239 11.5932 8.44022C12.2463 9.09341 12.4373 10.0306 12.1716 10.852L17.4071 16.0875L15.8833 17.6113L10.6479 12.3759C9.82801 12.6414 8.88909 12.4504 8.23603 11.7974C7.54817 11.1095 7.37297 10.1067 7.70375 9.2558L7.81945 8.95818L9.30001 10.4387L10.2346 9.5042L8.75421 8.02386L9.05143 7.90801ZM9.52188 8.20228L10.8238 9.5042L9.30001 11.028L7.9982 9.72618C7.8711 10.3492 8.04825 11.0203 8.53066 11.5027C9.09699 12.0691 9.9254 12.2146 10.6264 11.9413L10.7532 11.8919L15.8833 17.0221L16.8179 16.0875L11.6878 10.9575L11.7371 10.8308C12.0105 10.1275 11.8648 9.30116 11.2985 8.73485C10.8162 8.25253 10.1438 8.07542 9.52188 8.20228Z" fill="#3A424A"/>
<path fill-rule="evenodd" clip-rule="evenodd" d="M8.27536 1.45831H11.5517L11.869 3.02991C12.4544 3.1663 13.022 3.39606 13.5477 3.72222L14.8809 2.83625L17.1971 5.15242L16.3111 6.48564C16.6372 7.01127 16.867 7.57892 17.0034 8.16425L18.5771 8.48154V11.758L17.0034 12.0753C16.9329 12.3762 16.8352 12.6724 16.7151 12.9595L16.3307 12.7988C16.4593 12.4914 16.5593 12.175 16.6251 11.8558L16.653 11.7209L18.1604 11.417V8.82259L16.6532 8.51868L16.6252 8.38401C16.4949 7.75657 16.2505 7.14987 15.8883 6.59756L15.8129 6.48255L16.6613 5.20587L14.8274 3.37205L13.5508 4.22045L13.4358 4.14503C12.8834 3.78283 12.2767 3.53843 11.6493 3.40813L11.5147 3.38017L11.2108 1.87498H8.61631L8.31241 3.38017L8.17778 3.40813C7.55034 3.53843 6.94364 3.78283 6.39133 4.14503L6.27632 4.22045L4.99964 3.37205L3.16582 5.20587L4.01422 6.48255L3.9388 6.59756C3.57659 7.14987 3.3322 7.75658 3.2019 8.38401L3.17393 8.51868L1.66667 8.82259V11.417L3.17393 11.7209L3.2019 11.8555C3.3322 12.483 3.57659 13.0897 3.9388 13.642L4.01422 13.757L3.16582 15.0337L4.99964 16.8675L6.27632 16.0191L6.39133 16.0945C6.94364 16.4567 7.55034 16.7011 8.17778 16.8314L8.31241 16.8594L8.61631 18.3646H11.2108L11.5147 16.859L11.6498 16.8313C11.9708 16.7655 12.2849 16.6656 12.5925 16.537L12.7533 16.9213C12.4661 17.0415 12.1713 17.1392 11.869 17.2098L11.5517 18.7812H8.27536L7.95806 17.2096C7.37272 17.0732 6.80505 16.8435 6.27941 16.5173L4.94619 17.4033L2.63002 15.0871L3.51599 13.7539C3.18984 13.2283 2.96008 12.6606 2.82368 12.0753L1.25 11.758V8.48154L2.82368 8.16425C2.96008 7.57892 3.18984 7.01126 3.51599 6.48564L2.63002 5.15242L4.94619 2.83625L6.27941 3.72222C6.80504 3.39606 7.37271 3.1663 7.95806 3.02991L8.27536 1.45831Z" fill="#3A424A"/>
</svg>
