<svg width="20" height="20" viewBox="0 0 20 20" fill="none" xmlns="http://www.w3.org/2000/svg">
<path d="M1.96456 1.14581H2.17351V1.56248H1.96456C1.93718 1.56248 1.91083 1.56516 1.88564 1.57014L1.80477 1.1614C1.85645 1.15117 1.90988 1.14581 1.96456 1.14581Z" fill="#3A424A"/>
<path d="M1.56248 11.7848H1.14581V11.9937C1.14581 12.0484 1.15117 12.1018 1.1614 12.1535L1.57014 12.0727C1.56516 12.0475 1.56248 12.0211 1.56248 11.9937V11.7848Z" fill="#3A424A"/>
<path d="M1.62996 12.2168L1.28372 12.4486C1.34349 12.5379 1.42037 12.6148 1.50965 12.6746L1.74145 12.3283C1.69743 12.2989 1.65943 12.2609 1.62996 12.2168Z" fill="#3A424A"/>
<path d="M12.3958 2.17351H12.8125V1.96456C12.8125 1.90988 12.8071 1.85645 12.7969 1.80477L12.3882 1.88564C12.3931 1.91083 12.3958 1.93718 12.3958 1.96456V2.17351Z" fill="#3A424A"/>
<path d="M12.3283 1.74145L12.6746 1.50965C12.6148 1.42037 12.5379 1.34349 12.4486 1.28372L12.2168 1.62996C12.2609 1.65943 12.2989 1.69743 12.3283 1.74145Z" fill="#3A424A"/>
<path d="M2.59139 1.56248V1.14581H3.00927V1.56248H2.59139Z" fill="#3A424A"/>
<path d="M3.42715 1.56248V1.14581H3.84503V1.56248H3.42715Z" fill="#3A424A"/>
<path d="M4.26291 1.56248V1.14581H4.6808V1.56248H4.26291Z" fill="#3A424A"/>
<path d="M5.09868 1.56248V1.14581H5.51656V1.56248H5.09868Z" fill="#3A424A"/>
<path d="M5.93444 1.56248V1.14581H6.35232V1.56248H5.93444Z" fill="#3A424A"/>
<path d="M6.77021 1.56248V1.14581H7.18809V1.56248H6.77021Z" fill="#3A424A"/>
<path d="M7.60597 1.56248V1.14581H8.02385V1.56248H7.60597Z" fill="#3A424A"/>
<path d="M8.44173 1.56248V1.14581H8.85961V1.56248H8.44173Z" fill="#3A424A"/>
<path d="M9.2775 1.56248V1.14581H9.69538V1.56248H9.2775Z" fill="#3A424A"/>
<path d="M10.1133 1.56248V1.14581H10.5311V1.56248H10.1133Z" fill="#3A424A"/>
<path d="M10.949 1.56248V1.14581H11.3669V1.56248H10.949Z" fill="#3A424A"/>
<path d="M11.7848 1.56248V1.14581H11.9937C12.0484 1.14581 12.1018 1.15117 12.1535 1.1614L12.0727 1.57014C12.0475 1.56516 12.0211 1.56248 11.9937 1.56248H11.7848Z" fill="#3A424A"/>
<path d="M12.3958 2.59139H12.8125V3.00927H12.3958V2.59139Z" fill="#3A424A"/>
<path d="M12.3958 3.42715H12.8125V3.84503H12.3958V3.42715Z" fill="#3A424A"/>
<path d="M12.3958 4.26291H12.8125V4.6808H12.3958V4.26291Z" fill="#3A424A"/>
<path d="M12.3958 5.09868H12.8125V5.51656H12.3958V5.09868Z" fill="#3A424A"/>
<path d="M12.3958 5.93444H12.8125V6.35232H12.3958V5.93444Z" fill="#3A424A"/>
<path d="M12.3958 6.77021H12.8125V7.18748H12.3958V6.77021Z" fill="#3A424A"/>
<path d="M7.18748 12.3958H6.77021V12.8125H7.18748V12.3958Z" fill="#3A424A"/>
<path d="M6.35232 12.3958V12.8125H5.93444V12.3958H6.35232Z" fill="#3A424A"/>
<path d="M5.51656 12.3958V12.8125H5.09868V12.3958H5.51656Z" fill="#3A424A"/>
<path d="M4.6808 12.3958V12.8125H4.26291V12.3958H4.6808Z" fill="#3A424A"/>
<path d="M3.84503 12.3958V12.8125H3.42715V12.3958H3.84503Z" fill="#3A424A"/>
<path d="M3.00927 12.3958V12.8125H2.59139V12.3958H3.00927Z" fill="#3A424A"/>
<path d="M2.1735 12.3958V12.8125H1.96456C1.90988 12.8125 1.85645 12.8071 1.80477 12.7969L1.88564 12.3882C1.91083 12.3931 1.93718 12.3958 1.96456 12.3958H2.1735Z" fill="#3A424A"/>
<path d="M1.56248 11.3669H1.14581V10.949H1.56248V11.3669Z" fill="#3A424A"/>
<path d="M1.56248 10.5311H1.14581V10.1133H1.56248V10.5311Z" fill="#3A424A"/>
<path d="M1.56248 9.69538H1.14581V9.2775H1.56248V9.69538Z" fill="#3A424A"/>
<path d="M1.56248 8.85961H1.14581V8.44173H1.56248V8.85961Z" fill="#3A424A"/>
<path d="M1.56248 8.02385H1.14581V7.60597H1.56248V8.02385Z" fill="#3A424A"/>
<path d="M1.56248 7.18809H1.14581V6.77021H1.56248V7.18809Z" fill="#3A424A"/>
<path d="M1.56248 6.35232H1.14581V5.93444H1.56248V6.35232Z" fill="#3A424A"/>
<path d="M1.56248 5.51656H1.14581V5.09868H1.56248V5.51656Z" fill="#3A424A"/>
<path d="M1.56248 4.6808H1.14581V4.26291H1.56248V4.6808Z" fill="#3A424A"/>
<path d="M1.56248 3.84503H1.14581V3.42715H1.56248V3.84503Z" fill="#3A424A"/>
<path d="M1.56248 3.00927H1.14581V2.59139H1.56248V3.00927Z" fill="#3A424A"/>
<path d="M1.56248 2.1735H1.14581V1.96456C1.14581 1.90988 1.15117 1.85645 1.1614 1.80477L1.57014 1.88564C1.56516 1.91083 1.56248 1.93718 1.56248 1.96456V2.1735Z" fill="#3A424A"/>
<path d="M1.62996 1.74145L1.28372 1.50965C1.34349 1.42037 1.42037 1.34349 1.50965 1.28372L1.74145 1.62996C1.69743 1.65943 1.65943 1.69743 1.62996 1.74145Z" fill="#3A424A"/>
<path fill-rule="evenodd" clip-rule="evenodd" d="M3.54026 5.10811L5.6994 2.78318L6.00472 3.06672L3.55136 5.70846L2.33391 4.49102L2.62854 4.19639L3.54026 5.10811Z" fill="#3A424A"/>
<path fill-rule="evenodd" clip-rule="evenodd" d="M9.47777 11.0456L11.6369 8.72071L11.9422 9.00425L9.48886 11.646L8.27142 10.4285L8.56604 10.1339L9.47777 11.0456Z" fill="#3A424A"/>
<path fill-rule="evenodd" clip-rule="evenodd" d="M16.0416 16.7708H9.99998V16.3541H16.0416V16.7708Z" fill="#3A424A"/>
<path fill-rule="evenodd" clip-rule="evenodd" d="M16.0416 15.4166H9.99998V15H16.0416V15.4166Z" fill="#3A424A"/>
<path fill-rule="evenodd" clip-rule="evenodd" d="M16.0416 14.0625H9.99998V13.6458H16.0416V14.0625Z" fill="#3A424A"/>
<path fill-rule="evenodd" clip-rule="evenodd" d="M8.00625 7.1875H18.0354C18.2524 7.18805 18.4603 7.27449 18.6138 7.42791C18.7672 7.58134 18.8536 7.78927 18.8542 8.00625V18.0354C18.8536 18.2524 18.7672 18.4603 18.6138 18.6138C18.4603 18.7672 18.2524 18.8536 18.0354 18.8542H8.00625C7.78927 18.8536 7.58134 18.7672 7.42791 18.6138C7.27449 18.4603 7.18805 18.2524 7.1875 18.0354V8.00625C7.18805 7.78927 7.27449 7.58134 7.42791 7.42791C7.58134 7.27449 7.78927 7.18805 8.00625 7.1875ZM11.6369 8.7207L9.47778 11.0456L8.56606 10.1339L8.27143 10.4285L9.48888 11.646L11.9422 9.00424L11.6369 8.7207ZM10 16.7708H16.0417V16.3541H10V16.7708ZM16.0417 15.4166H10V15H16.0417V15.4166ZM10 14.0625H16.0417V13.6458H10V14.0625Z" fill="#0067D1"/>
<path fill-rule="evenodd" clip-rule="evenodd" d="M11.3669 1.14581H11.7848V1.56248H11.9937C12.0211 1.56248 12.0475 1.56516 12.0727 1.57014L12.1535 1.1614C12.2609 1.18265 12.3608 1.22491 12.4486 1.28372L12.2168 1.62996C12.2609 1.65943 12.2989 1.69743 12.3283 1.74145L12.6746 1.50965C12.7334 1.5975 12.7756 1.69736 12.7969 1.80477L12.3882 1.88564C12.3931 1.91083 12.3958 1.93718 12.3958 1.96456V2.17351H12.8125V2.59139H12.3958V3.00927H12.8125V3.42715H12.3958V3.84503H12.8125V4.26291H12.3958V4.6808H12.8125V5.09868H12.3958V5.51656H12.8125V5.93444H12.3958V6.35232H12.8125V6.77021H12.3958V7.18748H8.00623C7.78925 7.18803 7.58132 7.27447 7.42789 7.42789C7.27447 7.58132 7.18803 7.78925 7.18748 8.00623V12.3958H6.77021V12.8125H6.35232V12.3958H5.93444V12.8125H5.51656V12.3958H5.09868V12.8125H4.6808V12.3958H4.26291V12.8125H3.84503V12.3958H3.42715V12.8125H3.00927V12.3958H2.59139V12.8125H2.1735V12.3958H1.96456C1.93718 12.3958 1.91083 12.3931 1.88564 12.3882L1.80477 12.7969C1.69619 12.7754 1.59533 12.7325 1.50679 12.6727L1.50965 12.6746L1.74145 12.3283C1.69743 12.2989 1.65943 12.2609 1.62996 12.2168L1.28372 12.4486C1.22491 12.3608 1.18265 12.2609 1.1614 12.1535L1.57014 12.0727C1.56516 12.0475 1.56248 12.0211 1.56248 11.9937V11.7848H1.14581V11.3669H1.56248V10.949H1.14581V10.5311H1.56248V10.1133H1.14581V9.69538H1.56248V9.2775H1.14581V8.85962H1.56248V8.44173H1.14581V8.02385H1.56248V7.60597H1.14581V7.18809H1.56248V6.77021H1.14581V6.35232H1.56248V5.93444H1.14581V5.51656H1.56248V5.09868H1.14581V4.6808H1.56248V4.26291H1.14581V3.84503H1.56248V3.42715H1.14581V3.00927H1.56248V2.59139H1.14581V2.1735H1.56248V1.96456C1.56248 1.93718 1.56516 1.91083 1.57014 1.88564L1.1614 1.80477C1.18265 1.69736 1.22491 1.5975 1.28372 1.50965L1.62996 1.74145C1.65943 1.69743 1.69743 1.65943 1.74145 1.62996L1.50965 1.28372C1.5975 1.22491 1.69736 1.18265 1.80477 1.1614L1.88564 1.57014C1.91083 1.56516 1.93718 1.56248 1.96456 1.56248H2.17351V1.14581H2.59139V1.56248H3.00927V1.14581H3.42715V1.56248H3.84503V1.14581H4.26291V1.56248H4.6808V1.14581H5.09868V1.56248H5.51656V1.14581H5.93444V1.56248H6.35232V1.14581H6.77021V1.56248H7.18809V1.14581H7.60597V1.56248H8.02385V1.14581H8.44173V1.56248H8.85962V1.14581H9.2775V1.56248H9.69538V1.14581H10.1133V1.56248H10.5311V1.14581H10.949V1.56248H11.3669V1.14581ZM5.6994 2.78318L3.54026 5.10811L2.62854 4.19639L2.33391 4.49102L3.55136 5.70846L6.00472 3.06672L5.6994 2.78318Z" fill="white"/>
</svg>
