<svg width="20" height="20" viewBox="0 0 20 20" fill="none" xmlns="http://www.w3.org/2000/svg">
<path fill-rule="evenodd" clip-rule="evenodd" d="M7.82528 10.5459C7.16721 9.56794 6.81246 8.41618 6.80688 7.23626C5.94126 7.301 5.10076 7.56794 4.35399 8.01804C3.48685 8.54069 2.77908 9.29042 2.30717 10.1862C1.83527 11.0819 1.61719 12.0897 1.67651 13.1004C1.73583 14.1111 2.0703 15.0864 2.64375 15.9208L2.76458 16.0958L2.69166 16.3041L2.12708 17.8791L3.84583 17.3833L4.02916 17.3291L4.18958 17.4333C4.91401 17.9051 5.73858 18.2013 6.59764 18.2982C7.45671 18.3952 8.32655 18.2903 9.13793 17.9919C9.9493 17.6935 10.6798 17.2098 11.2713 16.5793C11.8628 15.9488 12.299 15.1889 12.5451 14.3601C12.6589 13.9766 12.7307 13.5833 12.7598 13.187C12.4499 13.1856 12.1388 13.1601 11.8294 13.11C11.5216 13.0601 11.2201 12.9866 10.9271 12.8908V13.0563H3.9271V12.6396H10.2866C9.45523 12.2571 8.71617 11.6857 8.13268 10.9625H3.9271V10.5459H7.82528ZM10.9271 14.7334H3.9271V15.15H10.9271V14.7334Z" fill="white"/>
<path d="M6.81962 6.81693C5.87208 6.87901 4.95088 7.16638 4.13369 7.65764C3.19975 8.21907 2.43727 9.02538 1.92885 9.9892C1.42043 10.953 1.18547 12.0376 1.24943 13.1254C1.31339 14.2132 1.67382 15.2628 2.29167 16.1604L1.45834 18.5042L3.95834 17.7813C4.73694 18.2888 5.62326 18.6075 6.54674 18.7121C7.47022 18.8167 8.40537 18.7043 9.27775 18.3838C10.1501 18.0633 10.9356 17.5435 11.5718 16.866C12.2079 16.1884 12.6771 15.3717 12.9419 14.4808C13.0689 14.0539 13.1472 13.6157 13.1765 13.1743C13.038 13.1833 12.899 13.1876 12.7598 13.187C12.7307 13.5833 12.6589 13.9767 12.5451 14.3602C12.299 15.1889 11.8628 15.9488 11.2713 16.5793C10.6798 17.2098 9.94931 17.6935 9.13793 17.9919C8.32655 18.2903 7.45671 18.3953 6.59764 18.2983C5.73858 18.2013 4.91401 17.9051 4.18958 17.4333L4.02916 17.3292L3.84583 17.3833L2.12708 17.8792L2.69166 16.3042L2.76458 16.0958L2.64375 15.9208C2.0703 15.0864 1.73583 14.1111 1.67651 13.1004C1.61719 12.0897 1.83527 11.082 2.30717 10.1862C2.77908 9.29046 3.48685 8.54073 4.35399 8.01808C5.10076 7.56797 5.94126 7.30103 6.80688 7.23629C6.80625 7.10191 6.81014 6.96719 6.81863 6.83229C6.81895 6.82717 6.81928 6.82205 6.81962 6.81693Z" fill="#3A424A"/>
<path fill-rule="evenodd" clip-rule="evenodd" d="M9.27919 8.96881H16.2792V9.38548H9.27919V8.96881Z" fill="#3A424A"/>
<path fill-rule="evenodd" clip-rule="evenodd" d="M9.27919 6.87506H16.2792V7.29173H9.27919V6.87506Z" fill="#3A424A"/>
<path fill-rule="evenodd" clip-rule="evenodd" d="M9.27919 4.78131H16.2792V5.19798H9.27919V4.78131Z" fill="#3A424A"/>
<path d="M10.2866 12.6397C10.4946 12.7354 10.7085 12.8194 10.9271 12.8908V13.0563H3.9271V12.6397H10.2866Z" fill="#3A424A"/>
<path d="M7.82528 10.5459C7.91547 10.6799 8.01142 10.8107 8.11289 10.9378C8.11949 10.9461 8.12604 10.9544 8.13268 10.9626H3.9271V10.5459H7.82528Z" fill="#3A424A"/>
<path d="M3.9271 14.7334H10.9271V15.1501H3.9271V14.7334Z" fill="#3A424A"/>
<path fill-rule="evenodd" clip-rule="evenodd" d="M18.7125 6.41609C18.909 7.88769 18.5511 9.37979 17.7083 10.602L18.5416 12.9458L16.0416 12.2229C14.7964 13.0313 13.2949 13.3475 11.8293 13.11C10.3638 12.8724 9.03902 12.0981 8.11284 10.9378C7.18667 9.7774 6.72532 8.31397 6.81858 6.83223C6.91184 5.3505 7.55303 3.95645 8.61738 2.92137C9.68173 1.88629 11.0931 1.28421 12.5769 1.2323C14.0606 1.18038 15.5106 1.68235 16.6447 2.64051C17.7788 3.59867 18.5159 4.9445 18.7125 6.41609ZM16.2791 4.78129H9.27914V5.19796H16.2791V4.78129ZM9.27914 6.87504H16.2791V7.29171H9.27914V6.87504ZM9.27914 8.96879H16.2791V9.38546H9.27914V8.96879Z" fill="#0067D1"/>
</svg>
