<svg width="20" height="20" viewBox="0 0 20 20" fill="none" xmlns="http://www.w3.org/2000/svg">
<path fill-rule="evenodd" clip-rule="evenodd" d="M16.9959 18.3333V1.66667H3.00421V18.3333H16.9959ZM4.46255 4.03542H6.87714C7.11991 4.03542 7.31672 4.23222 7.31672 4.475V6.88958C7.31672 7.13236 7.11991 7.32917 6.87714 7.32917H4.46255C4.21978 7.32917 4.02297 7.13236 4.02297 6.88958V4.475C4.02297 4.23222 4.21978 4.03542 4.46255 4.03542ZM4.46255 12.6812H6.87714C7.11991 12.6812 7.31672 12.8781 7.31672 13.1208V15.5354C7.31672 15.7782 7.11991 15.975 6.87714 15.975H4.46255C4.21978 15.975 4.02297 15.7782 4.02297 15.5354V13.1208C4.02297 12.8781 4.21978 12.6812 4.46255 12.6812ZM6.87714 8.35833H4.46255C4.21978 8.35833 4.02297 8.55514 4.02297 8.79792V11.2125C4.02297 11.4553 4.21978 11.6521 4.46255 11.6521H6.87714C7.11991 11.6521 7.31672 11.4553 7.31672 11.2125V8.79792C7.31672 8.55514 7.11991 8.35833 6.87714 8.35833ZM15.8667 5.88542H7.83754V5.46875H15.8667V5.88542ZM15.8667 10.2083H7.83754V9.79167H15.8667V10.2083ZM7.83754 14.5312H15.8667V14.1146H7.83754V14.5312Z" fill="white"/>
<path d="M16.9958 1.66667V18.3333H3.00409V1.66667H16.9958ZM2.99992 1.25C2.88941 1.25 2.78343 1.2939 2.70529 1.37204C2.62715 1.45018 2.58325 1.55616 2.58325 1.66667V18.3333C2.58325 18.4438 2.62715 18.5498 2.70529 18.628C2.78343 18.7061 2.88941 18.75 2.99992 18.75H16.9999C17.1104 18.75 17.2164 18.7061 17.2945 18.628C17.3727 18.5498 17.4166 18.4438 17.4166 18.3333V1.66667C17.4166 1.55616 17.3727 1.45018 17.2945 1.37204C17.2164 1.2939 17.1104 1.25 16.9999 1.25H2.99992Z" fill="#3A424A"/>
<path fill-rule="evenodd" clip-rule="evenodd" d="M15.8666 5.88542H7.83742V5.46875H15.8666V5.88542Z" fill="#3A424A"/>
<path fill-rule="evenodd" clip-rule="evenodd" d="M15.8666 10.2083H7.83742V9.79167H15.8666V10.2083Z" fill="#3A424A"/>
<path fill-rule="evenodd" clip-rule="evenodd" d="M15.8666 14.5312H7.83742V14.1146H15.8666V14.5312Z" fill="#3A424A"/>
<path fill-rule="evenodd" clip-rule="evenodd" d="M6.7498 5.07932L5.5098 6.72951L4.60885 5.82856L4.90348 5.53394L5.46503 6.09549L6.4167 4.82901L6.7498 5.07932Z" fill="#3A424A"/>
<path fill-rule="evenodd" clip-rule="evenodd" d="M6.7498 13.7252L5.51001 15.3751L4.60907 14.4767L4.90327 14.1816L5.46483 14.7416L6.4167 13.4748L6.7498 13.7252Z" fill="#3A424A"/>
<path d="M5.97076 10L6.64712 9.32451L6.35268 9.02969L5.67594 9.70557L4.9992 9.02969L4.70476 9.32451L5.38113 10L4.70476 10.6755L4.9992 10.9703L5.67594 10.2945L6.35268 10.9703L6.64712 10.6755L5.97076 10Z" fill="#3A424A"/>
<path fill-rule="evenodd" clip-rule="evenodd" d="M6.87712 4.0354H4.46253C4.21976 4.0354 4.02295 4.23221 4.02295 4.47498V6.88957C4.02295 7.13234 4.21976 7.32915 4.46253 7.32915H6.87712C7.11989 7.32915 7.3167 7.13234 7.3167 6.88957V4.47498C7.3167 4.23221 7.11989 4.0354 6.87712 4.0354ZM6.74991 5.0793L5.50991 6.72949L4.60896 5.82855L4.90359 5.53392L5.46514 6.09547L6.41681 4.829L6.74991 5.0793Z" fill="#0067D1"/>
<path fill-rule="evenodd" clip-rule="evenodd" d="M6.87712 12.6812H4.46253C4.21976 12.6812 4.02295 12.878 4.02295 13.1208V15.5354C4.02295 15.7782 4.21976 15.975 4.46253 15.975H6.87712C7.11989 15.975 7.3167 15.7782 7.3167 15.5354V13.1208C7.3167 12.878 7.11989 12.6812 6.87712 12.6812ZM6.74991 13.7251L5.51012 15.3751L4.60917 14.4767L4.90338 14.1816L5.46494 14.7416L6.41681 13.4748L6.74991 13.7251Z" fill="#0067D1"/>
<path fill-rule="evenodd" clip-rule="evenodd" d="M4.46253 8.35832H6.87712C7.11989 8.35832 7.3167 8.55512 7.3167 8.7979V11.2125C7.3167 11.4553 7.11989 11.6521 6.87712 11.6521H4.46253C4.21976 11.6521 4.02295 11.4553 4.02295 11.2125V8.7979C4.02295 8.55512 4.21976 8.35832 4.46253 8.35832ZM6.64723 9.32449L5.97086 10L6.64723 10.6755L6.35279 10.9703L5.67605 10.2944L4.99931 10.9703L4.70487 10.6755L5.38124 10L4.70487 9.32449L4.99931 9.02968L5.67605 9.70556L6.35279 9.02968L6.64723 9.32449Z" fill="#0067D1"/>
</svg>
