<svg width="20" height="20" viewBox="0 0 20 20" fill="none" xmlns="http://www.w3.org/2000/svg">
<path d="M16.3396 9.15422C16.4659 9.15477 16.587 9.20521 16.6763 9.29456C16.7657 9.38391 16.8161 9.50494 16.8167 9.6313V16.3396C16.8161 16.466 16.7657 16.587 16.6763 16.6764C16.587 16.7657 16.4659 16.8162 16.3396 16.8167H9.63124C9.50488 16.8162 9.38385 16.7657 9.2945 16.6764C9.20515 16.587 9.15471 16.466 9.15416 16.3396V9.6313C9.15471 9.50494 9.20515 9.38391 9.2945 9.29456C9.38385 9.20521 9.50488 9.15477 9.63124 9.15422H16.3396Z" fill="white"/>
<path fill-rule="evenodd" clip-rule="evenodd" d="M12.1646 8.73755H13.6687V7.22089H14.0854V8.73755H16.3396C16.4569 8.73755 16.5732 8.76067 16.6816 8.80559C16.79 8.8505 16.8886 8.91633 16.9716 8.99933C17.0545 9.08232 17.1204 9.18084 17.1653 9.28928C17.2102 9.39771 17.2333 9.51393 17.2333 9.6313V11.8855H18.75V12.3021H17.2333V13.8063H18.75V14.223H17.2333V16.3396C17.2333 16.457 17.2102 16.5732 17.1653 16.6817C17.1204 16.7901 17.0545 16.8886 16.9716 16.9716C16.8886 17.0546 16.79 17.1204 16.6816 17.1654C16.5732 17.2103 16.4569 17.2334 16.3396 17.2334H14.0854V18.7501H13.6687V17.2334H12.1646V18.7501H11.7479V17.2334H9.63124C9.51387 17.2334 9.39765 17.2103 9.28922 17.1654C9.18078 17.1204 9.08226 17.0546 8.99926 16.9716C8.91627 16.8886 8.85044 16.7901 8.80552 16.6817C8.76061 16.5732 8.73749 16.457 8.73749 16.3396V14.223H7.22083V13.8063H8.73749V12.3021H7.22083V11.8855H8.73749V9.6313C8.73749 9.39427 8.83165 9.16694 8.99926 8.99933C9.16688 8.83172 9.3942 8.73755 9.63124 8.73755H11.7479V7.22089H12.1646V8.73755ZM16.6763 9.29456C16.587 9.20521 16.4659 9.15477 16.3396 9.15422H9.63124C9.50488 9.15477 9.38385 9.20521 9.2945 9.29456C9.20515 9.38391 9.15471 9.50494 9.15416 9.6313V16.3396C9.15471 16.466 9.20515 16.587 9.2945 16.6764C9.38385 16.7657 9.50488 16.8162 9.63124 16.8167H16.3396C16.4659 16.8162 16.587 16.7657 16.6763 16.6764C16.7657 16.587 16.8161 16.466 16.8167 16.3396V9.6313C16.8161 9.50494 16.7657 9.38391 16.6763 9.29456Z" fill="#3A424A"/>
<path d="M8.73756 13.2646H5.68131C4.55871 13.2015 3.49624 12.7367 2.68786 11.9552C1.87947 11.1737 1.37908 10.1276 1.27801 9.00776C1.17694 7.88793 1.48194 6.7691 2.13734 5.85549C2.79274 4.94188 3.75482 4.29442 4.84798 4.03129C5.5322 2.95945 6.53864 2.13214 7.72263 1.66828C8.90662 1.20441 10.2072 1.12788 11.4374 1.44967C12.6676 1.77146 13.7642 2.47502 14.5694 3.45921C15.3746 4.44339 15.847 5.65754 15.9188 6.92713C16.7136 7.01269 17.447 7.39432 17.9732 7.99609C18.4994 8.59786 18.7797 9.37567 18.7584 10.1747C18.742 10.7902 18.5477 11.3835 18.2045 11.8854H17.2334V9.63128C17.2334 9.51391 17.2103 9.39769 17.1654 9.28926C17.1205 9.18082 17.0546 9.0823 16.9716 8.99931C16.8886 8.91631 16.7901 8.85048 16.6817 8.80557C16.5732 8.76065 16.457 8.73753 16.3396 8.73753H14.0855V7.22087H13.6688V8.73753H12.1646V7.22087H11.748V8.73753H9.63131C9.39428 8.73753 9.16695 8.8317 8.99934 8.99931C8.83173 9.16692 8.73756 9.39425 8.73756 9.63128V11.8854H7.2209V12.3021H8.73756V13.2646Z" fill="#0067D1"/>
<path d="M17.8646 12.3021C17.8626 12.3043 17.8605 12.3064 17.8584 12.3085C17.6704 12.5018 17.4601 12.6688 17.2334 12.8069V12.3021H17.8646Z" fill="#0067D1"/>
</svg>
