<svg width="20" height="20" viewBox="0 0 20 20" fill="none" xmlns="http://www.w3.org/2000/svg">
<path fill-rule="evenodd" clip-rule="evenodd" d="M16.8301 18.0209C16.1188 18.4963 15.2825 18.75 14.4271 18.75C13.8592 18.7503 13.2968 18.6386 12.7721 18.4215C12.2474 18.2044 11.7706 17.886 11.3689 17.4846C10.9673 17.0831 10.6487 16.6065 10.4313 16.0819C10.2139 15.5572 10.1021 14.9949 10.1021 14.4271C10.1016 13.5716 10.3549 12.7352 10.8299 12.0237C11.3049 11.3121 11.9802 10.7575 12.7705 10.4298C13.5608 10.1021 14.4304 10.0162 15.2695 10.1828C16.1086 10.3495 16.8795 10.7612 17.4846 11.366C18.0896 11.9708 18.5017 12.7414 18.6688 13.5804C18.8358 14.4195 18.7503 15.2892 18.423 16.0796C18.0957 16.87 17.5414 17.5456 16.8301 18.0209Z" fill="#0067D1"/>
<path fill-rule="evenodd" clip-rule="evenodd" d="M6.3 14.2188V12.5521L6.16458 12.5C6.01875 12.4458 5.87292 12.3854 5.73542 12.3188L5.60208 12.2563L4.41458 13.4437L2.23958 11.2625L3.45417 10.0479L3.39375 9.91667C3.33542 9.7875 3.28125 9.65208 3.23542 9.51667L3.18542 9.375H1.45833V6.3H3.23958L3.28958 6.16667C3.33542 6.04792 3.3875 5.92917 3.44167 5.81458L3.50625 5.68125L2.23958 4.41458L4.41458 2.23958L5.70833 3.54167L5.83958 3.48125C5.94514 3.43403 6.05347 3.39028 6.16458 3.35L6.3 3.3V1.45833H9.375V3.29167L9.51042 3.34167C9.62153 3.38194 9.72986 3.42569 9.83542 3.47292L9.96667 3.53333L11.2604 2.23958L13.4375 4.41458L12.1708 5.68125L12.2333 5.81458C12.2875 5.92917 12.3396 6.04583 12.3854 6.16667L12.4375 6.3H14.2188V9.375H12.5L12.4521 9.51458C12.4042 9.65 12.3521 9.78542 12.2937 9.91458L12.2333 10.0458L12.6634 10.4759C11.9193 10.8083 11.2833 11.3445 10.83 12.0237C10.6955 12.2251 10.5788 12.4365 10.4806 12.6556L10.075 12.25L9.94167 12.3125C9.80208 12.3792 9.65833 12.4396 9.5125 12.4937L9.37708 12.5437V14.2104L6.3 14.2188ZM10.2083 7.8125C10.2083 9.13568 9.13568 10.2083 7.8125 10.2083C6.48932 10.2083 5.41667 9.13568 5.41667 7.8125C5.41667 6.48932 6.48932 5.41667 7.8125 5.41667C9.13568 5.41667 10.2083 6.48932 10.2083 7.8125Z" fill="white"/>
<path fill-rule="evenodd" clip-rule="evenodd" d="M17.0419 12.5851L13.9583 16.7089L11.8215 14.5744L12.116 14.2796L13.9126 16.0743L16.7082 12.3356L17.0419 12.5851Z" fill="#3A424A"/>
<path d="M9.16667 3.4375V1.66667H6.49375V3.44375L6.22083 3.54375C6.11875 3.58125 6.01042 3.625 5.91042 3.66875L5.68542 3.77083L5.48958 3.62292L5.48923 3.62266C5.46662 3.60622 5.45911 3.60076 4.4 2.53958L2.525 4.41458L3.54167 5.42917L3.75 5.6375L3.63125 5.90417C3.57708 6.01458 3.52917 6.12708 3.48542 6.24167L3.38125 6.50833H1.66667V9.16667H3.33333L3.43542 9.44167C3.48125 9.57083 3.53125 9.7 3.5875 9.825L3.70625 10.0875L2.53333 11.2604L4.40833 13.1354L5.55208 11.9917L5.81875 12.1188C5.95441 12.1839 6.09351 12.2416 6.23542 12.2917L6.50833 12.3979V14.0104H9.16667V12.3979L9.44792 12.2937C9.58967 12.2433 9.72875 12.1856 9.86458 12.1208L10.1292 11.9938L10.5814 12.446C10.5111 12.5826 10.4483 12.7226 10.3931 12.8654L10.0292 12.5021C9.88333 12.5708 9.73542 12.6333 9.58333 12.6896V14.425H6.09167V12.6875C5.93958 12.6313 5.78958 12.5688 5.64583 12.5L4.41458 13.7313L1.95417 11.2604L3.20417 10C3.14375 9.86458 3.0875 9.725 3.0375 9.58333H1.25V6.09167H3.09583C3.14375 5.96667 3.19792 5.84375 3.25417 5.725L1.94583 4.41458L4.41458 1.94583L5.75417 3.28333C5.86528 3.23333 5.97778 3.1875 6.09167 3.14583V1.25H9.58542V3.14583C9.6993 3.1875 9.81181 3.23333 9.92292 3.28333L11.2625 1.94583L13.7313 4.41458L12.4208 5.725C12.4792 5.84375 12.5312 5.96667 12.5812 6.09167H14.4354V9.58542H12.6458C12.5979 9.72708 12.5417 9.86667 12.4812 10.0021L12.8671 10.3911C12.8348 10.4036 12.8026 10.4165 12.7705 10.4298C12.6646 10.4737 12.5607 10.5218 12.4591 10.5737L11.975 10.0896L12.0917 9.82708C12.1479 9.70208 12.2 9.57292 12.2458 9.44375L12.3292 9.2L12.5875 9.16667H14.0083V6.50833H12.2917L12.1875 6.23333C12.1438 6.11875 12.0938 6.00625 12.0417 5.89583L11.9146 5.62917L13.1375 4.40625L11.2625 2.53125L10.0125 3.78125L9.75 3.66458C9.64792 3.61875 9.54375 3.575 9.43958 3.5375L9.16667 3.4375Z" fill="#3A424A"/>
<path fill-rule="evenodd" clip-rule="evenodd" d="M7.8125 9.79167C8.90556 9.79167 9.79167 8.90556 9.79167 7.8125C9.79167 6.71944 8.90556 5.83333 7.8125 5.83333C6.71944 5.83333 5.83333 6.71944 5.83333 7.8125C5.83333 8.90556 6.71944 9.79167 7.8125 9.79167ZM7.8125 10.2083C9.13568 10.2083 10.2083 9.13568 10.2083 7.8125C10.2083 6.48932 9.13568 5.41667 7.8125 5.41667C6.48932 5.41667 5.41667 6.48932 5.41667 7.8125C5.41667 9.13568 6.48932 10.2083 7.8125 10.2083Z" fill="#3A424A"/>
</svg>
