<svg width="20" height="20" viewBox="0 0 20 20" fill="none" xmlns="http://www.w3.org/2000/svg">
<path d="M2.89381 5.4049C3.02788 5.43971 3.16725 5.46134 3.31048 5.46834V5.75798H2.89381V5.4049Z" fill="#3A424A"/>
<path d="M10.2084 5.46062C10.1406 5.46737 10.0718 5.47083 10.0021 5.47083C9.9311 5.47083 9.86091 5.46723 9.79172 5.4602V5.8399H10.2084V5.46062Z" fill="#3A424A"/>
<path d="M17.1105 6.10103V5.70312H16.6938V6.10103H17.1105Z" fill="#3A424A"/>
<path d="M2.89381 6.62603V6.192H3.31048V6.62603H2.89381Z" fill="#3A424A"/>
<path d="M17.1105 6.89687V6.49895H16.6938V6.89687H17.1105Z" fill="#3A424A"/>
<path d="M2.89381 7.49409V7.06006H3.31048V7.49409H2.89381Z" fill="#3A424A"/>
<path d="M17.1105 7.6927V7.29478H16.6938V7.6927H17.1105Z" fill="#3A424A"/>
<path d="M2.89381 8.36214V7.92811H3.31048V8.36214H2.89381Z" fill="#3A424A"/>
<path d="M17.1105 8.48853V8.09062H16.6938V8.48853H17.1105Z" fill="#3A424A"/>
<path d="M2.89381 9.2302V8.79617H3.31048V9.2302H2.89381Z" fill="#3A424A"/>
<path d="M17.1105 9.28437V8.88645H16.6938V9.28437H17.1105Z" fill="#3A424A"/>
<path d="M2.89381 9.88124V9.66423H3.31048V9.88124C3.31048 9.94749 3.31245 10.0132 3.31633 10.0782L2.9004 10.103C2.89603 10.0297 2.89381 9.95577 2.89381 9.88124Z" fill="#3A424A"/>
<path d="M17.1105 9.88124V9.68228H16.6938V9.88124C16.6938 9.94749 16.6918 10.0132 16.688 10.0782L17.1039 10.103C17.1083 10.0297 17.1105 9.95577 17.1105 9.88124Z" fill="#3A424A"/>
<path d="M3.06114 10.9746C3.01681 10.8352 2.98075 10.6912 2.9536 10.5433L3.36342 10.4681C3.38741 10.5988 3.41923 10.7258 3.45821 10.8483L3.06114 10.9746Z" fill="#3A424A"/>
<path d="M16.9431 10.9746C16.9875 10.8352 17.0235 10.6912 17.0507 10.5433L16.6409 10.4681C16.6169 10.5988 16.5851 10.7258 16.5461 10.8483L16.9431 10.9746Z" fill="#3A424A"/>
<path d="M3.44177 11.7801C3.36103 11.6568 3.28811 11.5263 3.22375 11.3896L3.60072 11.2121C3.65695 11.3315 3.72043 11.445 3.79035 11.5518L3.44177 11.7801Z" fill="#3A424A"/>
<path d="M16.5625 11.7801C16.6433 11.6568 16.7162 11.5263 16.7805 11.3896L16.4036 11.2121C16.3473 11.3315 16.2839 11.445 16.2139 11.5518L16.5625 11.7801Z" fill="#3A424A"/>
<path d="M4.04253 12.4481C3.92605 12.3544 3.81659 12.2502 3.71507 12.1367L4.02559 11.8589C4.11248 11.956 4.20551 12.0445 4.30373 12.1235L4.04253 12.4481Z" fill="#3A424A"/>
<path d="M15.9618 12.4481C16.0782 12.3544 16.1877 12.2502 16.2892 12.1367L15.9787 11.8589C15.8918 11.956 15.7988 12.0445 15.7006 12.1235L15.9618 12.4481Z" fill="#3A424A"/>
<path d="M4.8424 12.8807C4.69621 12.8347 4.55535 12.7743 4.42095 12.7011L4.62021 12.3352C4.73171 12.3959 4.84777 12.4456 4.96746 12.4832L4.8424 12.8807Z" fill="#3A424A"/>
<path d="M15.1619 12.8807C15.3081 12.8347 15.4489 12.7743 15.5833 12.7011L15.3841 12.3352C15.2726 12.3959 15.1565 12.4456 15.0368 12.4832L15.1619 12.8807Z" fill="#3A424A"/>
<path d="M5.52298 12.9854C5.44547 12.9854 5.3687 12.9815 5.29279 12.9737L5.33515 12.5592C5.39701 12.5655 5.45966 12.5687 5.52298 12.5687H5.72658V12.9854H5.52298Z" fill="#3A424A"/>
<path d="M14.4813 12.9854C14.5588 12.9854 14.6356 12.9815 14.7115 12.9737L14.6691 12.5592C14.6073 12.5655 14.5446 12.5687 14.4813 12.5687H14.2777V12.9854H14.4813Z" fill="#3A424A"/>
<path d="M6.54097 12.9854H6.13377V12.5687H6.54097V12.9854Z" fill="#3A424A"/>
<path d="M6.94817 12.9854H7.35536V12.5687H6.94817V12.9854Z" fill="#3A424A"/>
<path d="M8.16976 12.9854H7.76256V12.5687H8.16976V12.9854Z" fill="#3A424A"/>
<path d="M8.57695 12.9854H8.98415V12.5687H8.57695V12.9854Z" fill="#3A424A"/>
<path d="M9.79855 12.9854H9.39135V12.5687H9.79172V12.209H10.2084V12.5687H10.6129V12.9854H10.2057V12.6336H9.79855V12.9854Z" fill="#3A424A"/>
<path d="M11.0201 12.9854H11.4273V12.5687H11.0201V12.9854Z" fill="#3A424A"/>
<path d="M12.2417 12.9854H11.8345V12.5687H12.2417V12.9854Z" fill="#3A424A"/>
<path d="M12.6489 12.9854H13.0561V12.5687H12.6489V12.9854Z" fill="#3A424A"/>
<path d="M13.8705 12.9854H13.4633V12.5687H13.8705V12.9854Z" fill="#3A424A"/>
<path d="M9.79172 6.68912V6.26451H10.2084V6.68912H9.79172Z" fill="#3A424A"/>
<path d="M9.79172 7.11373V7.53833H10.2084V7.11373H9.79172Z" fill="#3A424A"/>
<path d="M9.79172 8.38755V7.96294H10.2084V8.38755H9.79172Z" fill="#3A424A"/>
<path d="M9.79172 8.81216V9.23677H10.2084V8.81216H9.79172Z" fill="#3A424A"/>
<path d="M9.79172 10.086V9.66138H10.2084V10.086H9.79172Z" fill="#3A424A"/>
<path d="M9.79172 10.5106V10.9352H10.2084V10.5106H9.79172Z" fill="#3A424A"/>
<path d="M9.79172 11.7844V11.3598H10.2084V11.7844H9.79172Z" fill="#3A424A"/>
<path d="M9.79172 13.0583V13.4829H10.2084V13.0583H9.79172Z" fill="#3A424A"/>
<path d="M9.79172 14.3321V13.9075H10.2084V14.3321H9.79172Z" fill="#3A424A"/>
<path d="M9.79172 14.7567V15.1813H10.2084V14.7567H9.79172Z" fill="#3A424A"/>
<path d="M9.79172 16.0305V15.6059H10.2084V16.0305H9.79172Z" fill="#3A424A"/>
<path fill-rule="evenodd" clip-rule="evenodd" d="M11.2313 2.69583L9.81147 4.58894L8.79161 3.55909L9.08767 3.2659L9.76781 3.95271L10.898 2.44583L11.2313 2.69583Z" fill="#3A424A"/>
<path fill-rule="evenodd" clip-rule="evenodd" d="M18.0251 2.69583L16.6056 4.58847L15.5816 3.55945L15.8769 3.26554L16.5612 3.95318L17.6917 2.44583L18.0251 2.69583Z" fill="#3A424A"/>
<path fill-rule="evenodd" clip-rule="evenodd" d="M4.64599 2.68736L3.22202 4.58908L2.20203 3.55909L2.49809 3.2659L3.17809 3.95257L4.31246 2.43762L4.64599 2.68736Z" fill="#3A424A"/>
<path fill-rule="evenodd" clip-rule="evenodd" d="M3.41246 5.47085C4.54925 5.47085 5.47079 4.54931 5.47079 3.41252C5.47079 2.27573 4.54925 1.35419 3.41246 1.35419C2.27567 1.35419 1.35413 2.27573 1.35413 3.41252C1.35413 4.54931 2.27567 5.47085 3.41246 5.47085ZM3.22192 4.58911L4.64589 2.68739L4.31236 2.43765L3.178 3.9526L2.49799 3.26593L2.20193 3.55911L3.22192 4.58911Z" fill="#0067D1"/>
<path fill-rule="evenodd" clip-rule="evenodd" d="M12.0604 3.41252C12.0604 4.54931 11.1388 5.47085 10.002 5.47085C8.86526 5.47085 7.94371 4.54931 7.94371 3.41252C7.94371 2.27573 8.86526 1.35419 10.002 1.35419C11.1388 1.35419 12.0604 2.27573 12.0604 3.41252ZM11.2312 2.69585L9.81137 4.58897L8.79151 3.55911L9.08757 3.26593L9.76772 3.95274L10.8979 2.44585L11.2312 2.69585Z" fill="#0067D1"/>
<path d="M11.3395 17.6188C11.3395 18.3011 10.7864 18.8542 10.1041 18.8542C9.42182 18.8542 8.86871 18.3011 8.86871 17.6188C8.86871 16.9365 9.42182 16.3834 10.1041 16.3834C10.7864 16.3834 11.3395 16.9365 11.3395 17.6188Z" fill="#0067D1"/>
<path fill-rule="evenodd" clip-rule="evenodd" d="M16.7958 5.47085C17.9326 5.47085 18.8541 4.54931 18.8541 3.41252C18.8541 2.27573 17.9326 1.35419 16.7958 1.35419C15.659 1.35419 14.7375 2.27573 14.7375 3.41252C14.7375 4.54931 15.659 5.47085 16.7958 5.47085ZM18.025 2.69585L16.6055 4.58849L15.5815 3.55947L15.8768 3.26556L16.5611 3.95321L17.6916 2.44585L18.025 2.69585Z" fill="#0067D1"/>
</svg>
