<svg width="20" height="20" viewBox="0 0 20 20" fill="none" xmlns="http://www.w3.org/2000/svg">
<path d="M3.9303 9.63661C3.9303 9.6366 3.9303 9.63661 3.9303 9.63661V9.63661Z" fill="#0067D1"/>
<path d="M6.18246 10.0118C6.18852 10.0174 6.19456 10.023 6.20056 10.0287L6.18246 10.0118Z" fill="#0067D1"/>
<path d="M13.9854 12.7729H8.49821C8.50619 12.4534 8.39349 12.1426 8.18254 11.9025C7.97121 11.6619 7.67686 11.51 7.35835 11.4771H7.27293V11.3917C7.23472 10.7561 6.95541 10.159 6.49198 9.72225C6.02856 9.28554 5.41595 9.04213 4.77918 9.04168H4.77501C4.49185 9.04153 4.21177 9.08971 3.94656 9.18321C4.0056 8.62657 4.20781 8.09078 4.53833 7.63018C4.99309 6.99646 5.66047 6.5473 6.41878 6.3646C6.89132 5.61687 7.58956 5.03892 8.41241 4.71442C9.23527 4.38991 10.14 4.33569 10.9958 4.5596C11.8515 4.7835 12.6137 5.27392 13.1722 5.95986C13.7307 6.6458 14.0564 7.49167 14.1021 8.37501C14.6529 8.43544 15.1608 8.70071 15.5251 9.11818C15.8894 9.53565 16.0835 10.0748 16.0688 10.6287C16.0541 11.1826 15.8318 11.7107 15.4459 12.1083C15.0599 12.5059 14.5386 12.7439 13.9854 12.775V12.7729Z" fill="#0067D1"/>
<path d="M7.85535 12.1811C7.85535 12.1811 7.85535 12.1811 7.85535 12.1811C7.85425 12.1798 7.85314 12.1786 7.85204 12.1773L7.85535 12.1811Z" fill="#0067D1"/>
<path d="M14.3333 2.91667C14.9621 2.91667 15.5671 3.15698 16.0245 3.58842C16.4819 4.01986 16.7571 4.60981 16.7937 5.23751V5.37084L16.8125 5.72501L17.1646 5.76251L17.2979 5.77709C17.5457 5.81845 17.7702 5.94798 17.9301 6.14182C18.0899 6.33566 18.1743 6.58074 18.1677 6.8319C18.1611 7.08306 18.064 7.32337 17.8942 7.50855C17.7244 7.69373 17.4934 7.8113 17.2437 7.83959H14.0394C13.9136 7.15287 13.6166 6.50572 13.1722 5.95985C12.6622 5.33343 11.9822 4.87006 11.2163 4.62384C11.4175 4.46875 11.6509 4.3569 11.9021 4.29792L11.9646 4.28334L12.1271 4.24376L12.2187 4.10209L12.2521 4.04792C12.4758 3.69946 12.7838 3.41309 13.1476 3.21534C13.5114 3.0176 13.9192 2.91487 14.3333 2.91667Z" fill="white"/>
<path d="M6.2005 10.0287C5.81631 9.66499 5.30815 9.46109 4.77912 9.45834H4.77496C4.42585 9.45741 4.08221 9.54502 3.77617 9.71298C3.47012 9.88095 3.21166 10.1238 3.02496 10.4188L3.00412 10.4521L2.91246 10.5938L2.74996 10.6333L2.70829 10.6438C2.36354 10.7333 2.06185 10.9425 1.85705 11.2339C1.65226 11.5254 1.55769 11.8801 1.59023 12.2348C1.62278 12.5895 1.78031 12.9211 2.03471 13.1704C2.28912 13.4197 2.62383 13.5705 2.97912 13.5958H7.25829C7.47252 13.5842 7.67451 13.4924 7.82413 13.3386C7.97374 13.1848 8.06001 12.9804 8.06578 12.7659C8.07156 12.5515 7.99641 12.3427 7.85529 12.1811C7.71417 12.0195 7.51741 11.9169 7.30412 11.8938H7.21871L6.86662 11.8563L6.84787 11.5021V11.4167C6.81614 10.8886 6.58469 10.3924 6.2005 10.0287Z" fill="white"/>
<path d="M17.1353 8.2625H17.275C17.371 8.25271 17.4652 8.23348 17.5562 8.20544V8.94373H17.1403L17.1353 8.2625Z" fill="#3A424A"/>
<path d="M16.8788 10.0423L17.1304 9.90826L17.1403 11.2687H17.5562V9.4229H17.2384L16.7857 9.66508L16.8788 10.0423Z" fill="#3A424A"/>
<path fill-rule="evenodd" clip-rule="evenodd" d="M11.6854 13.2388C11.5688 13.4146 11.3938 13.5083 11.1791 13.5083C10.982 13.5083 10.817 13.4134 10.7045 13.2454C10.6219 13.122 10.5686 12.961 10.5458 12.7703H11.8393C11.8174 12.9577 11.7668 13.1162 11.6854 13.2388ZM10.9773 12.7703C10.9907 12.87 11.0139 12.9497 11.0434 13.0086C11.09 13.1018 11.1431 13.1291 11.1916 13.1291C11.2383 13.1291 11.2931 13.1009 11.3417 13.0025C11.3708 12.9437 11.394 12.8658 11.408 12.7703H10.9773Z" fill="#3A424A"/>
<path d="M8.9796 12.7703L8.9839 13.5083H9.39996V12.7703H8.9796Z" fill="#3A424A"/>
<path d="M8.97597 14.4486L8.72961 14.5808L8.6277 14.2056L9.08218 13.9625H9.39996V15.8083H8.9839L8.97597 14.4486Z" fill="#3A424A"/>
<path d="M8.71936 16.8203L8.97595 16.6874L8.9839 18.0521H9.39996V16.2062H9.08218L8.62986 16.4482L8.71936 16.8203Z" fill="#3A424A"/>
<path d="M4.9833 14.6436L4.72347 14.7771L4.62648 14.403L5.08011 14.1604H5.39997V16.0083H4.9833V14.6436Z" fill="#3A424A"/>
<path d="M4.7246 17.0315L4.9833 16.8876V18.2562H5.39997V16.4104H5.08011L4.62648 16.653L4.7246 17.0315Z" fill="#3A424A"/>
<path fill-rule="evenodd" clip-rule="evenodd" d="M11.6854 15.9579C11.5687 16.1334 11.3938 16.2271 11.1791 16.2271C10.9823 16.2271 10.8171 16.1329 10.7046 15.965C10.5946 15.801 10.5366 15.5704 10.5333 15.2908C10.53 15.0084 10.5923 14.7726 10.7098 14.6042C10.8292 14.4332 11.0036 14.3354 11.2062 14.3354C11.4079 14.3354 11.5752 14.4283 11.6877 14.5958C11.7973 14.7588 11.852 14.987 11.852 15.2604C11.852 15.5491 11.7984 15.788 11.6854 15.9579ZM11.0433 15.7282C11.0897 15.8206 11.1427 15.8479 11.1916 15.8479C11.2383 15.8479 11.2931 15.8197 11.3417 15.7213C11.3907 15.6223 11.4229 15.4691 11.4229 15.2687C11.4229 15.0649 11.397 14.9167 11.3523 14.8233C11.3306 14.7778 11.3063 14.7494 11.2822 14.7323C11.2591 14.7159 11.231 14.7062 11.1937 14.7062C11.1479 14.7062 11.0946 14.7316 11.047 14.8241C10.9984 14.9188 10.9645 15.0712 10.9645 15.2854C10.9645 15.4852 10.9958 15.6337 11.0433 15.7282Z" fill="#3A424A"/>
<path fill-rule="evenodd" clip-rule="evenodd" d="M11.1791 18.8625C11.3941 18.8625 11.569 18.768 11.6855 18.5921C11.7984 18.4218 11.852 18.1824 11.852 17.8937C11.852 17.6205 11.7979 17.3924 11.6886 17.2292C11.5762 17.0616 11.4088 16.9687 11.2062 16.9687C11.0023 16.9687 10.8274 17.0678 10.7079 17.2394C10.5903 17.4086 10.5279 17.6448 10.5312 17.9262C10.5345 18.2048 10.5926 18.4354 10.7028 18.5997C10.8156 18.7678 10.9812 18.8625 11.1791 18.8625ZM11.1916 18.4791C11.1425 18.4791 11.089 18.4516 11.0421 18.3591C10.9942 18.2647 10.9625 18.1162 10.9625 17.9166C10.9625 17.7038 10.9968 17.552 11.0458 17.4573C11.0937 17.3649 11.1478 17.3382 11.1943 17.3375C11.2309 17.3376 11.2585 17.3473 11.2812 17.3637C11.3052 17.381 11.3294 17.4098 11.351 17.4558C11.3955 17.5502 11.4208 17.6991 11.4208 17.9021C11.4208 18.1015 11.3891 18.2543 11.3406 18.353C11.2924 18.4512 11.2381 18.4791 11.1916 18.4791Z" fill="#3A424A"/>
<path fill-rule="evenodd" clip-rule="evenodd" d="M3.51457 15.9579C3.3979 16.1334 3.22297 16.2271 3.00829 16.2271C2.81067 16.2271 2.6449 16.1332 2.53218 15.965C2.42213 15.8008 2.36464 15.5701 2.36246 15.2904C2.36027 15.0083 2.42258 14.7726 2.53972 14.6043C2.65873 14.4333 2.83268 14.3354 3.03538 14.3354C3.2371 14.3354 3.40432 14.4283 3.51688 14.5958C3.62651 14.7588 3.68121 14.987 3.68121 15.2604C3.68121 15.5491 3.62755 15.788 3.51457 15.9579ZM2.87126 15.7279C2.91813 15.8204 2.97164 15.8479 3.02079 15.8479C3.06749 15.8479 3.12223 15.8197 3.17091 15.7213C3.21985 15.6223 3.25204 15.4691 3.25204 15.2687C3.25204 15.0649 3.2262 14.9167 3.18151 14.8233C3.15976 14.7778 3.13546 14.7494 3.11137 14.7323C3.08828 14.7159 3.06021 14.7062 3.02288 14.7062C2.97684 14.7062 2.92298 14.7319 2.875 14.8245C2.82595 14.9191 2.79163 15.0714 2.79163 15.2854C2.79163 15.4849 2.82338 15.6334 2.87126 15.7279Z" fill="#3A424A"/>
<path fill-rule="evenodd" clip-rule="evenodd" d="M3.00829 18.8625C3.22324 18.8625 3.39813 18.768 3.51466 18.5921C3.62754 18.4218 3.68121 18.1824 3.68121 17.8937C3.68121 17.6203 3.62651 17.3922 3.51688 17.2291C3.40432 17.0617 3.2371 16.9687 3.03538 16.9687C2.83218 16.9687 2.65832 17.0681 2.53957 17.2397C2.42261 17.4086 2.36027 17.6446 2.36246 17.9258C2.36464 18.2045 2.42216 18.4352 2.53214 18.5996C2.64471 18.7678 2.81042 18.8625 3.00829 18.8625ZM3.02079 18.4791C2.97164 18.4791 2.91813 18.4516 2.87126 18.3591C2.82338 18.2647 2.79163 18.1162 2.79163 17.9166C2.79163 17.7038 2.82592 17.552 2.875 17.4573C2.92287 17.3649 2.97693 17.3382 3.02346 17.3375C3.06012 17.3376 3.08787 17.3473 3.1109 17.3638C3.1351 17.3812 3.15953 17.4101 3.18139 17.4561C3.22623 17.5505 3.25204 17.6994 3.25204 17.9021C3.25204 18.1013 3.21987 18.254 3.17095 18.3527C3.12228 18.4509 3.06753 18.4791 3.02079 18.4791Z" fill="#3A424A"/>
<path fill-rule="evenodd" clip-rule="evenodd" d="M7.57257 15.958C7.45553 16.1336 7.28004 16.2271 7.06454 16.2271C6.86771 16.2271 6.70256 16.1329 6.59 15.965C6.48005 15.801 6.42198 15.5704 6.41872 15.2908C6.41542 15.0084 6.47775 14.7726 6.59559 14.6041C6.71528 14.433 6.8903 14.3354 7.09371 14.3354C7.29633 14.3354 7.46367 14.4282 7.57607 14.5959C7.68543 14.759 7.73954 14.9872 7.73954 15.2604C7.73954 15.5491 7.68589 15.788 7.57257 15.958ZM6.92942 15.7281C6.97625 15.8209 7.02936 15.8479 7.07704 15.8479C7.12249 15.8479 7.17736 15.8199 7.22646 15.7211C7.27565 15.6221 7.30829 15.4688 7.30829 15.2687C7.30829 15.0647 7.28292 14.9164 7.23864 14.823C7.21709 14.7775 7.19302 14.7492 7.1692 14.7322C7.14638 14.7159 7.11853 14.7062 7.08121 14.7062C7.03392 14.7062 6.9802 14.7321 6.93264 14.8243C6.88383 14.9189 6.84996 15.0712 6.84996 15.2854C6.84996 15.4849 6.88171 15.6335 6.92942 15.7281Z" fill="#3A424A"/>
<path fill-rule="evenodd" clip-rule="evenodd" d="M7.06454 18.8625C7.27949 18.8625 7.45438 18.768 7.57091 18.5921C7.68379 18.4218 7.73746 18.1824 7.73746 17.8937C7.73746 17.6205 7.68335 17.3924 7.57398 17.2292C7.46158 17.0616 7.29425 16.9687 7.09163 16.9687C6.88752 16.9687 6.71356 17.068 6.59497 17.2398C6.47826 17.4088 6.41652 17.6448 6.41871 17.9258C6.42089 18.2045 6.47841 18.4352 6.58838 18.5996C6.70096 18.7678 6.86667 18.8625 7.06454 18.8625ZM7.07704 18.4791C7.02789 18.4791 6.97438 18.4516 6.92751 18.3591C6.87963 18.2647 6.84788 18.1162 6.84788 17.9166C6.84788 17.7038 6.88217 17.552 6.93125 17.4573C6.97911 17.3649 7.03318 17.3382 7.07971 17.3375C7.11637 17.3376 7.14412 17.3473 7.16714 17.3638C7.19135 17.3812 7.21578 17.4101 7.23764 17.4561C7.28248 17.5505 7.30829 17.6994 7.30829 17.9021C7.30829 18.1013 7.27612 18.254 7.2272 18.3527C7.17853 18.4509 7.12378 18.4791 7.07704 18.4791Z" fill="#3A424A"/>
<path d="M13.5041 12.7703V13.5604H13.0882L13.0825 12.7703H13.5041Z" fill="#3A424A"/>
<path d="M12.8235 16.8252L13.0778 16.6806L13.0837 18.0479H13.5V16.2021H13.18L12.7295 16.4444L12.8235 16.8252Z" fill="#3A424A"/>
<path d="M13.0783 14.4333L12.8267 14.5673L12.7336 14.1903L13.1841 13.9479H13.5041V15.7937H13.0882L13.0783 14.4333Z" fill="#3A424A"/>
<path d="M17.1875 14.4387L16.9407 14.5711L16.8431 14.1947L17.2968 13.9521H17.6145V15.8H17.1875V14.4387Z" fill="#3A424A"/>
<path d="M16.9441 16.8261L17.1875 16.6837V18.0479H17.6166V16.2021H17.2989L16.8452 16.4447L16.9441 16.8261Z" fill="#3A424A"/>
<path d="M17.1304 12.1469L16.879 12.2827L16.7857 11.9047L17.2384 11.6625H17.5562V13.5083H17.1403L17.1304 12.1469Z" fill="#3A424A"/>
<path fill-rule="evenodd" clip-rule="evenodd" d="M15.2979 16.1771C15.5128 16.1771 15.6877 16.0826 15.8042 15.9067C15.9171 15.7364 15.9708 15.497 15.9708 15.2083C15.9708 14.9399 15.9165 14.7121 15.8076 14.5481C15.6958 14.3799 15.5289 14.2833 15.325 14.2833C15.1209 14.2833 14.9469 14.3826 14.8283 14.5543C14.7116 14.7234 14.6498 14.9594 14.652 15.2404C14.6542 15.5191 14.7117 15.7498 14.8217 15.9142C14.9343 16.0824 15.1 16.1771 15.2979 16.1771ZM15.1647 14.7779C15.1159 14.8726 15.0817 15.0235 15.0812 15.2374C15.0816 15.4349 15.1133 15.5826 15.1609 15.677C15.208 15.7703 15.2616 15.7979 15.3104 15.7979C15.3568 15.7979 15.4111 15.77 15.4593 15.6716C15.5078 15.5726 15.5395 15.4193 15.5395 15.2187C15.5395 15.0147 15.5142 14.8658 15.4698 14.7718C15.4482 14.726 15.4241 14.6974 15.4002 14.6802C15.3778 14.6642 15.3508 14.6546 15.3148 14.6542C15.2663 14.657 15.2119 14.6864 15.1647 14.7779Z" fill="#3A424A"/>
<path fill-rule="evenodd" clip-rule="evenodd" d="M15.8042 18.5921C15.6877 18.768 15.5128 18.8625 15.2979 18.8625C15.1 18.8625 14.9343 18.7678 14.8217 18.5996C14.7117 18.4352 14.6542 18.2045 14.652 17.9258C14.6498 17.6448 14.7116 17.4088 14.8283 17.2398C14.9469 17.068 15.1209 16.9687 15.325 16.9687C15.5276 16.9687 15.6949 17.0616 15.8073 17.2292C15.9167 17.3924 15.9708 17.6205 15.9708 17.8937C15.9708 18.1824 15.9171 18.4218 15.8042 18.5921ZM15.1608 18.3591C15.2077 18.4516 15.2612 18.4791 15.3104 18.4791C15.3569 18.4791 15.4111 18.4512 15.4593 18.353C15.5078 18.2543 15.5395 18.1015 15.5395 17.9021C15.5395 17.6991 15.5142 17.5502 15.4698 17.4558C15.4481 17.4098 15.4239 17.381 15.4 17.3637C15.3772 17.3473 15.3497 17.3376 15.313 17.3375C15.2665 17.3382 15.2124 17.3649 15.1646 17.4573C15.1155 17.552 15.0812 17.7038 15.0812 17.9166C15.0812 18.1162 15.113 18.2647 15.1608 18.3591Z" fill="#3A424A"/>
<path fill-rule="evenodd" clip-rule="evenodd" d="M15.8042 13.2388C15.6876 13.4146 15.5126 13.5083 15.2979 13.5083C15.1 13.5083 14.9343 13.4136 14.8217 13.2454C14.7198 13.093 14.6629 12.8836 14.6534 12.6318C15.1379 12.4099 15.383 12.241 15.7159 11.7669C15.7495 11.7986 15.7801 11.8351 15.8074 11.8759C15.9167 12.0392 15.9708 12.2673 15.9708 12.5396C15.9708 12.8292 15.9172 13.0686 15.8042 13.2388ZM15.161 13.0083C15.208 13.1015 15.2616 13.1291 15.3104 13.1291C15.3569 13.1291 15.4111 13.1012 15.4593 13.0028C15.5078 12.9038 15.5396 12.7505 15.5396 12.55C15.5396 12.346 15.5142 12.1953 15.4696 12.0994C15.468 12.0958 15.4663 12.0924 15.4646 12.089C15.3193 12.243 15.2362 12.2998 15.0882 12.4064C15.0837 12.4549 15.0812 12.5076 15.0812 12.5646C15.0812 12.7641 15.113 12.9132 15.161 13.0083Z" fill="#3A424A"/>
<path d="M16.0245 3.58842C15.5671 3.15698 14.9621 2.91667 14.3333 2.91667C13.9192 2.91487 13.5114 3.0176 13.1476 3.21534C12.7838 3.41309 12.4758 3.69946 12.2521 4.04792L12.2187 4.10209L12.1271 4.24376L11.9646 4.28334L11.9021 4.29792C11.6509 4.3569 11.4175 4.46875 11.2163 4.62384C11.1435 4.60045 11.07 4.57901 10.9957 4.55959C10.9125 4.53781 10.8288 4.51866 10.7447 4.50213C11.0338 4.20825 11.401 3.99925 11.8062 3.90209L11.8666 3.88751L11.9021 3.83334C12.1623 3.42441 12.5216 3.08779 12.9466 2.85471C13.3716 2.62163 13.8486 2.49963 14.3333 2.50001C15.0714 2.49833 15.782 2.77975 16.3188 3.28631C16.8556 3.79287 17.1777 4.486 17.2187 5.22292V5.35626L17.3521 5.37084C17.7023 5.42554 18.0206 5.60592 18.2475 5.87826C18.4743 6.15059 18.5943 6.49623 18.5848 6.85056C18.5754 7.20489 18.4372 7.54366 18.1961 7.80351C17.9551 8.06337 17.6276 8.22653 17.275 8.2625L14.0947 8.26251C14.0835 8.12025 14.065 7.9791 14.0394 7.83959H17.2437C17.4934 7.8113 17.7244 7.69373 17.8942 7.50855C18.064 7.32337 18.1611 7.08306 18.1677 6.8319C18.1743 6.58074 18.0899 6.33566 17.9301 6.14182C17.7702 5.94798 17.5457 5.81845 17.2979 5.77709L17.1646 5.76251L16.8125 5.72501L16.7937 5.37084V5.23751C16.7571 4.60981 16.4819 4.01986 16.0245 3.58842Z" fill="#3A424A"/>
<path d="M4.77912 9.45834C5.30815 9.46109 5.81631 9.66499 6.2005 10.0287C6.58469 10.3924 6.81614 10.8886 6.84787 11.4167V11.5021L6.86662 11.8563L7.21871 11.8938H7.30412C7.51741 11.9169 7.71417 12.0195 7.85529 12.1811C7.99641 12.3427 8.07156 12.5515 8.06578 12.7659C8.06001 12.9804 7.97374 13.1848 7.82413 13.3386C7.67451 13.4924 7.47252 13.5842 7.25829 13.5958H2.97912C2.62383 13.5705 2.28912 13.4197 2.03471 13.1704C1.78031 12.9211 1.62278 12.5895 1.59023 12.2348C1.55769 11.8801 1.65226 11.5254 1.85705 11.2339C2.06185 10.9425 2.36354 10.7333 2.70829 10.6438L2.74996 10.6333L2.91246 10.5938L3.00412 10.4521L3.02496 10.4188C3.21166 10.1238 3.47012 9.88095 3.77617 9.71298C4.08221 9.54502 4.42585 9.45741 4.77496 9.45834M4.77496 9.04167C4.35625 9.04144 3.94425 9.14691 3.57716 9.34831C3.21006 9.5497 2.89974 9.8405 2.67496 10.1938L2.65204 10.2292H2.61246C2.16481 10.3368 1.77079 10.6018 1.50229 10.9758C1.2338 11.3498 1.10873 11.8078 1.14991 12.2664C1.19109 12.7249 1.39577 13.1534 1.72661 13.4736C2.05745 13.7937 2.49239 13.9843 2.95204 14.0104H7.29162C7.61143 13.9943 7.91336 13.8581 8.13705 13.629C8.36074 13.3998 8.48969 13.0947 8.49811 12.7746C8.50654 12.4545 8.39381 12.1431 8.18249 11.9025C7.97116 11.6619 7.6768 11.51 7.35829 11.4771H7.27287V11.3917C7.23467 10.756 6.95535 10.159 6.49193 9.72224C6.0285 9.28553 5.5208 9.0625 4.77912 9.04167H4.77496Z" fill="#3A424A"/>
</svg>
