<svg width="20" height="20" viewBox="0 0 20 20" fill="none" xmlns="http://www.w3.org/2000/svg">
<path d="M9.79167 6.38451V1.25H10.2083V6.38415L11.3979 5.10417L11.7042 5.3875L10 7.22083L8.29583 5.3875L8.6 5.10417L9.79167 6.38451Z" fill="#3A424A"/>
<path d="M9.79167 18.75V13.6158L8.60208 14.8958L8.29583 14.6125L10 12.7791L11.7042 14.6125L11.4 14.8958L10.2083 13.6155V18.75H9.79167Z" fill="#3A424A"/>
<path d="M14.8688 8.76667H5.18542V8.35H14.8688V8.76667Z" fill="#3A424A"/>
<path d="M14.8688 10.2083H5.18542V9.79167H14.8688V10.2083Z" fill="#3A424A"/>
<path d="M5.18542 11.65H14.8688V11.2333H5.18542V11.65Z" fill="#3A424A"/>
<path fill-rule="evenodd" clip-rule="evenodd" d="M9.79164 3.41248V6.38451L8.59997 5.10417L8.2958 5.3875L9.99997 7.22083L11.7041 5.3875L11.3979 5.10417L10.2083 6.38415V3.41248H15.6646C16.1754 3.41248 16.5896 3.82661 16.5896 4.33748V15.6646C16.5896 16.1754 16.1754 16.5896 15.6646 16.5896H10.2083V13.6155L11.4 14.8958L11.7041 14.6125L9.99997 12.7791L8.2958 14.6125L8.60205 14.8958L9.79164 13.6158V16.5896H4.33748C3.82661 16.5896 3.41248 16.1754 3.41248 15.6646V4.33748C3.41248 3.82661 3.82661 3.41248 4.33748 3.41248H9.79164ZM5.18539 8.76667H14.8687V8.35H5.18539V8.76667ZM14.8687 10.2083H5.18539V9.79167H14.8687V10.2083ZM14.8687 11.65H5.18539V11.2333H14.8687V11.65Z" fill="#0067D1"/>
</svg>
