<svg width="20" height="20" viewBox="0 0 20 20" fill="none" xmlns="http://www.w3.org/2000/svg">
<path d="M12.7792 7.32084H12.4251V7.73751H12.7792V7.32084Z" fill="#3A424A"/>
<path d="M3.72083 10.0027V10.2083H3.96093V9.79167H3.72083V9.99726C3.72083 9.99818 3.72083 9.99909 3.72083 10C3.72083 10.0009 3.72083 10.0018 3.72083 10.0027Z" fill="#3A424A"/>
<path d="M12.7792 12.2625V12.6792H12.4251V12.2625H12.7792Z" fill="#3A424A"/>
<path d="M8.85075 2.28801C8.92445 2.28076 8.99859 2.2771 9.07292 2.2771H9.28455V2.69377H9.07292C9.01226 2.69377 8.95174 2.69675 8.89159 2.70267L8.85075 2.28801Z" fill="#3A424A"/>
<path d="M9.70782 2.2771H10.1311V2.69377H9.70782V2.2771Z" fill="#3A424A"/>
<path d="M10.9776 2.2771H10.5543V2.69377H10.9776V2.2771Z" fill="#3A424A"/>
<path d="M11.4009 2.2771H11.8241V2.69377H11.4009V2.2771Z" fill="#3A424A"/>
<path d="M12.6707 2.2771H12.2474V2.69377H12.6707V2.2771Z" fill="#3A424A"/>
<path d="M8.41494 2.3747C8.34407 2.3962 8.27417 2.4212 8.20551 2.44964C8.13684 2.47808 8.06974 2.50983 8.00442 2.54474L8.20084 2.91221C8.25414 2.88372 8.30891 2.8578 8.36496 2.83459C8.421 2.81137 8.47805 2.79097 8.53589 2.77343L8.41494 2.3747Z" fill="#3A424A"/>
<path d="M7.47015 2.94099C7.5227 2.88843 7.57772 2.83859 7.63496 2.79161L7.89929 3.1137C7.85257 3.15204 7.80767 3.19272 7.76477 3.23562C7.72188 3.27851 7.6812 3.32341 7.64285 3.37014L7.32076 3.10581C7.36775 3.04856 7.41759 2.99355 7.47015 2.94099Z" fill="#3A424A"/>
<path d="M7.0739 3.47527C7.03899 3.54058 7.00724 3.60768 6.97879 3.67635C6.95035 3.74502 6.92535 3.81492 6.90386 3.88579L7.30258 4.00674C7.32013 3.9489 7.34053 3.89185 7.36374 3.8358C7.38696 3.77976 7.41287 3.72499 7.44137 3.67168L7.0739 3.47527Z" fill="#3A424A"/>
<path d="M6.80625 4.54377C6.80625 4.46944 6.80991 4.3953 6.81717 4.32159L7.23183 4.36243C7.2259 4.42259 7.22292 4.4831 7.22292 4.54377V4.74966H6.80625V4.54377Z" fill="#3A424A"/>
<path d="M6.80625 5.16143V5.57321H7.22292V5.16143H6.80625Z" fill="#3A424A"/>
<path d="M6.80625 6.39677V5.98499H7.22292V6.39677H6.80625Z" fill="#3A424A"/>
<path d="M6.80625 6.80855V7.22033H7.22292V6.80855H6.80625Z" fill="#3A424A"/>
<path d="M6.80625 8.04389V7.63211H7.22292V8.04389H6.80625Z" fill="#3A424A"/>
<path d="M6.80625 8.45567V8.86744H7.22292V8.45567H6.80625Z" fill="#3A424A"/>
<path d="M6.80625 9.691V9.27922H7.22292V9.691H6.80625Z" fill="#3A424A"/>
<path d="M6.80625 10.1028V10.5146H7.22292V10.1028H6.80625Z" fill="#3A424A"/>
<path d="M6.80625 11.3381V10.9263H7.22292V11.3381H6.80625Z" fill="#3A424A"/>
<path d="M6.80625 11.7499V12.1617H7.22292V11.7499H6.80625Z" fill="#3A424A"/>
<path d="M6.80625 12.9852V12.5735H7.22292V12.9852H6.80625Z" fill="#3A424A"/>
<path d="M6.80625 13.397V13.8088H7.22292V13.397H6.80625Z" fill="#3A424A"/>
<path d="M6.80625 14.6323V14.2206H7.22292V14.6323H6.80625Z" fill="#3A424A"/>
<path d="M6.80625 15.0441V15.25C6.80625 15.3243 6.80991 15.3985 6.81717 15.4722L7.23183 15.4313C7.2259 15.3712 7.22292 15.3107 7.22292 15.25V15.0441H6.80625Z" fill="#3A424A"/>
<path d="M6.97879 16.1174C6.95035 16.0488 6.92535 15.9789 6.90386 15.908L7.30258 15.787C7.32013 15.8449 7.34053 15.9019 7.36374 15.958C7.38696 16.014 7.41287 16.0688 7.44137 16.1221L7.0739 16.3185C7.03899 16.2532 7.00724 16.1861 6.97879 16.1174Z" fill="#3A424A"/>
<path d="M7.32076 16.688C7.36775 16.7452 7.41759 16.8002 7.47015 16.8528C7.5227 16.9053 7.57772 16.9552 7.63496 17.0022L7.89929 16.6801C7.85257 16.6417 7.80767 16.6011 7.76477 16.5582C7.72188 16.5153 7.6812 16.4704 7.64285 16.4236L7.32076 16.688Z" fill="#3A424A"/>
<path d="M8.20551 17.3441C8.13684 17.3157 8.06974 17.2839 8.00442 17.249L8.20084 16.8816C8.25414 16.9101 8.30891 16.936 8.36496 16.9592C8.421 16.9824 8.47805 17.0028 8.53589 17.0204L8.41494 17.4191C8.34407 17.3976 8.27417 17.3726 8.20551 17.3441Z" fill="#3A424A"/>
<path d="M8.85075 17.5058C8.92445 17.513 8.99859 17.5167 9.07292 17.5167H9.28455V17.1H9.07292C9.01226 17.1 8.95174 17.097 8.89159 17.0911L8.85075 17.5058Z" fill="#3A424A"/>
<path d="M10.1311 17.5167H9.70782V17.1H10.1311V17.5167Z" fill="#3A424A"/>
<path d="M10.5543 17.5167H10.9776V17.1H10.5543V17.5167Z" fill="#3A424A"/>
<path d="M11.8241 17.5167H11.4009V17.1H11.8241V17.5167Z" fill="#3A424A"/>
<path d="M12.2474 17.5167H12.6707V17.1H12.2474V17.5167Z" fill="#3A424A"/>
<path d="M4.92135 10.2083H4.44114V9.79167H4.92135V10.2083Z" fill="#3A424A"/>
<path d="M5.40155 10.2083H5.88176V9.79167H5.40155V10.2083Z" fill="#3A424A"/>
<path d="M6.60208 10.2083H6.36197V9.79167H6.60208V10.2083Z" fill="#3A424A"/>
<path d="M7.64439 12.6792H7.42708V12.2625H7.64439V12.6792Z" fill="#3A424A"/>
<path d="M8.07899 12.6792H8.5136V12.2625H8.07899V12.6792Z" fill="#3A424A"/>
<path d="M9.38281 12.6792H8.94821V12.2625H9.38281V12.6792Z" fill="#3A424A"/>
<path d="M9.81742 12.6792H10.252V12.2625H9.81742V12.6792Z" fill="#3A424A"/>
<path d="M11.1212 12.6792H10.6866V12.2625H11.1212V12.6792Z" fill="#3A424A"/>
<path d="M11.5558 12.6792H11.9905V12.2625H11.5558V12.6792Z" fill="#3A424A"/>
<path d="M7.42708 7.73751H7.64439V7.32084H7.42708V7.73751Z" fill="#3A424A"/>
<path d="M8.5136 7.73751H8.07899V7.32084H8.5136V7.73751Z" fill="#3A424A"/>
<path d="M8.94821 7.73751H9.38281V7.32084H8.94821V7.73751Z" fill="#3A424A"/>
<path d="M10.252 7.73751H9.81742V7.32084H10.252V7.73751Z" fill="#3A424A"/>
<path d="M10.6866 7.73751H11.1212V7.32084H10.6866V7.73751Z" fill="#3A424A"/>
<path d="M11.9905 7.73751H11.5558V7.32084H11.9905V7.73751Z" fill="#3A424A"/>
<path d="M2.48542 11.2354C3.16772 11.2354 3.72083 10.6823 3.72083 10C3.72083 9.3177 3.16772 8.76458 2.48542 8.76458C1.80311 8.76458 1.25 9.3177 1.25 10C1.25 10.6823 1.80311 11.2354 2.48542 11.2354Z" fill="#0067D1"/>
<path d="M18.3375 16.0729H13.1917C12.9638 16.0729 12.7792 16.2576 12.7792 16.4854V18.3375C12.7792 18.5653 12.9638 18.75 13.1917 18.75H18.3375C18.5653 18.75 18.75 18.5653 18.75 18.3375V16.4854C18.75 16.2576 18.5653 16.0729 18.3375 16.0729Z" fill="#0067D1"/>
<path d="M18.3375 11.1333H13.1917C12.9638 11.1333 12.7792 11.318 12.7792 11.5458V13.3979C12.7792 13.6257 12.9638 13.8104 13.1917 13.8104H18.3375C18.5653 13.8104 18.75 13.6257 18.75 13.3979V11.5458C18.75 11.318 18.5653 11.1333 18.3375 11.1333Z" fill="#0067D1"/>
<path d="M18.3375 6.19167H13.1917C12.9638 6.19167 12.7792 6.37635 12.7792 6.60417V8.45625C12.7792 8.68407 12.9638 8.86875 13.1917 8.86875H18.3375C18.5653 8.86875 18.75 8.68407 18.75 8.45625V6.60417C18.75 6.37635 18.5653 6.19167 18.3375 6.19167Z" fill="#0067D1"/>
<path d="M18.3375 1.25H13.1917C12.9638 1.25 12.7792 1.43468 12.7792 1.6625V3.51458C12.7792 3.7424 12.9638 3.92708 13.1917 3.92708H18.3375C18.5653 3.92708 18.75 3.7424 18.75 3.51458V1.6625C18.75 1.43468 18.5653 1.25 18.3375 1.25Z" fill="#0067D1"/>
</svg>
