<svg width="20" height="20" viewBox="0 0 20 20" fill="none" xmlns="http://www.w3.org/2000/svg">
<path d="M13.4542 5.625H6.54583C6.03727 5.625 5.625 6.03727 5.625 6.54583V13.4542C5.625 13.9627 6.03727 14.375 6.54583 14.375H13.4542C13.9627 14.375 14.375 13.9627 14.375 13.4542V6.54583C14.375 6.03727 13.9627 5.625 13.4542 5.625Z" fill="#0067D1"/>
<path d="M2.19029 1.14581H1.97921C1.92355 1.14581 1.86917 1.15127 1.81657 1.16167L1.89743 1.57042C1.92355 1.56525 1.95085 1.56248 1.97921 1.56248H2.19029V1.14581Z" fill="#3A424A"/>
<path d="M1.14587 17.8097H1.56254V18.0208C1.56254 18.0492 1.56531 18.0765 1.57048 18.1026L1.16174 18.1834C1.15133 18.1308 1.14587 18.0765 1.14587 18.0208V17.8097Z" fill="#3A424A"/>
<path d="M1.28624 18.4838L1.63247 18.252C1.66301 18.2976 1.70238 18.337 1.74799 18.3675L1.51619 18.7138C1.42532 18.6529 1.34708 18.5747 1.28624 18.4838Z" fill="#3A424A"/>
<path d="M17.8098 18.8541V18.4375H18.0209C18.0492 18.4375 18.0765 18.4347 18.1026 18.4295L18.1835 18.8383C18.1309 18.8487 18.0765 18.8541 18.0209 18.8541H17.8098Z" fill="#3A424A"/>
<path d="M18.4839 18.7138L18.2521 18.3675C18.2977 18.337 18.3371 18.2976 18.3676 18.252L18.7138 18.4838C18.653 18.5747 18.5748 18.6529 18.4839 18.7138Z" fill="#3A424A"/>
<path d="M18.8542 2.19023H18.4375V1.97915C18.4375 1.95079 18.4348 1.92349 18.4296 1.89737L18.8383 1.81651C18.8488 1.86911 18.8542 1.92349 18.8542 1.97915V2.19023Z" fill="#3A424A"/>
<path d="M18.7138 1.51613L18.3676 1.74793C18.3371 1.70232 18.2977 1.66295 18.2521 1.63241L18.4839 1.28618C18.5748 1.34702 18.653 1.42526 18.7138 1.51613Z" fill="#3A424A"/>
<path d="M2.61244 1.14581V1.56248H3.03459V1.14581H2.61244Z" fill="#3A424A"/>
<path d="M3.45674 1.14581V1.56248H3.87889V1.14581H3.45674Z" fill="#3A424A"/>
<path d="M4.30103 1.14581V1.56248H4.72318V1.14581H4.30103Z" fill="#3A424A"/>
<path d="M5.14533 1.14581V1.56248H5.56748V1.14581H5.14533Z" fill="#3A424A"/>
<path d="M5.98963 1.14581V1.56248H6.41178V1.14581H5.98963Z" fill="#3A424A"/>
<path d="M6.83393 1.14581V1.56248H7.25608V1.14581H6.83393Z" fill="#3A424A"/>
<path d="M7.67822 1.14581V1.56248H8.10037V1.14581H7.67822Z" fill="#3A424A"/>
<path d="M8.52252 1.14581V1.56248H8.94467V1.14581H8.52252Z" fill="#3A424A"/>
<path d="M9.36682 1.14581V1.56248H9.78897V1.14581H9.36682Z" fill="#3A424A"/>
<path d="M10.2111 1.14581V1.56248H10.6333V1.14581H10.2111Z" fill="#3A424A"/>
<path d="M11.0554 1.14581V1.56248H11.4776V1.14581H11.0554Z" fill="#3A424A"/>
<path d="M11.8997 1.14581V1.56248H12.3219V1.14581H11.8997Z" fill="#3A424A"/>
<path d="M12.744 1.14581V1.56248H13.1662V1.14581H12.744Z" fill="#3A424A"/>
<path d="M13.5883 1.14581V1.56248H14.0105V1.14581H13.5883Z" fill="#3A424A"/>
<path d="M14.4326 1.14581V1.56248H14.8548V1.14581H14.4326Z" fill="#3A424A"/>
<path d="M15.2769 1.14581V1.56248H15.6991V1.14581H15.2769Z" fill="#3A424A"/>
<path d="M16.1212 1.14581V1.56248H16.5434V1.14581H16.1212Z" fill="#3A424A"/>
<path d="M16.9655 1.14581V1.56248H17.3877V1.14581H16.9655Z" fill="#3A424A"/>
<path d="M17.8098 1.14581V1.56248H18.0209C18.0492 1.56248 18.0765 1.56525 18.1026 1.57042L18.1835 1.16167C18.1309 1.15127 18.0765 1.14581 18.0209 1.14581H17.8098Z" fill="#3A424A"/>
<path d="M18.8542 2.61238H18.4375V3.03453H18.8542V2.61238Z" fill="#3A424A"/>
<path d="M18.8542 3.45668H18.4375V3.87882H18.8542V3.45668Z" fill="#3A424A"/>
<path d="M18.8542 4.30097H18.4375V4.72312H18.8542V4.30097Z" fill="#3A424A"/>
<path d="M18.8542 5.14527H18.4375V5.56742H18.8542V5.14527Z" fill="#3A424A"/>
<path d="M18.8542 5.98957H18.4375V6.41172H18.8542V5.98957Z" fill="#3A424A"/>
<path d="M18.8542 6.83387H18.4375V7.25601H18.8542V6.83387Z" fill="#3A424A"/>
<path d="M18.8542 7.67816H18.4375V8.10031H18.8542V7.67816Z" fill="#3A424A"/>
<path d="M18.8542 8.52246H18.4375V8.94461H18.8542V8.52246Z" fill="#3A424A"/>
<path d="M18.8542 9.36676H18.4375V9.78891H18.8542V9.36676Z" fill="#3A424A"/>
<path d="M18.8542 10.2111H18.4375V10.6332H18.8542V10.2111Z" fill="#3A424A"/>
<path d="M18.8542 11.0554H18.4375V11.4775H18.8542V11.0554Z" fill="#3A424A"/>
<path d="M18.8542 11.8997H18.4375V12.3218H18.8542V11.8997Z" fill="#3A424A"/>
<path d="M18.8542 12.7439H18.4375V13.1661H18.8542V12.7439Z" fill="#3A424A"/>
<path d="M18.8542 13.5882H18.4375V14.0104H18.8542V13.5882Z" fill="#3A424A"/>
<path d="M18.8542 14.4325H18.4375V14.8547H18.8542V14.4325Z" fill="#3A424A"/>
<path d="M18.8542 15.2768H18.4375V15.699H18.8542V15.2768Z" fill="#3A424A"/>
<path d="M18.8542 16.1211H18.4375V16.5433H18.8542V16.1211Z" fill="#3A424A"/>
<path d="M18.8542 16.9654H18.4375V17.3876H18.8542V16.9654Z" fill="#3A424A"/>
<path d="M18.8542 17.8097H18.4375V18.0208C18.4375 18.0492 18.4348 18.0765 18.4296 18.1026L18.8383 18.1834C18.8488 18.1308 18.8542 18.0765 18.8542 18.0208V17.8097Z" fill="#3A424A"/>
<path d="M17.3876 18.8541V18.4375H16.9655V18.8541H17.3876Z" fill="#3A424A"/>
<path d="M16.5433 18.8541V18.4375H16.1212V18.8541H16.5433Z" fill="#3A424A"/>
<path d="M15.699 18.8541V18.4375H15.2769V18.8541H15.699Z" fill="#3A424A"/>
<path d="M14.8548 18.8541V18.4375H14.4326V18.8541H14.8548Z" fill="#3A424A"/>
<path d="M14.0105 18.8541V18.4375H13.5883V18.8541H14.0105Z" fill="#3A424A"/>
<path d="M13.1662 18.8541V18.4375H12.744V18.8541H13.1662Z" fill="#3A424A"/>
<path d="M12.3219 18.8541V18.4375H11.8997V18.8541H12.3219Z" fill="#3A424A"/>
<path d="M11.4776 18.8541V18.4375H11.0554V18.8541H11.4776Z" fill="#3A424A"/>
<path d="M10.6333 18.8541V18.4375H10.2111V18.8541H10.6333Z" fill="#3A424A"/>
<path d="M9.78897 18.8541V18.4375H9.36682V18.8541H9.78897Z" fill="#3A424A"/>
<path d="M8.94467 18.8541V18.4375H8.52252V18.8541H8.94467Z" fill="#3A424A"/>
<path d="M8.10037 18.8541V18.4375H7.67822V18.8541H8.10037Z" fill="#3A424A"/>
<path d="M7.25607 18.8541V18.4375H6.83392V18.8541H7.25607Z" fill="#3A424A"/>
<path d="M6.41177 18.8541V18.4375H5.98962V18.8541H6.41177Z" fill="#3A424A"/>
<path d="M5.56747 18.8541V18.4375H5.14533V18.8541H5.56747Z" fill="#3A424A"/>
<path d="M4.72318 18.8541V18.4375H4.30103V18.8541H4.72318Z" fill="#3A424A"/>
<path d="M3.87888 18.8541V18.4375H3.45673V18.8541H3.87888Z" fill="#3A424A"/>
<path d="M3.03458 18.8541V18.4375H2.61243V18.8541H3.03458Z" fill="#3A424A"/>
<path d="M2.19028 18.8541V18.4375H1.97921C1.95085 18.4375 1.92355 18.4347 1.89743 18.4295L1.81657 18.8383C1.86917 18.8487 1.92355 18.8541 1.97921 18.8541H2.19028Z" fill="#3A424A"/>
<path d="M1.14587 17.3876H1.56254V16.9654H1.14587V17.3876Z" fill="#3A424A"/>
<path d="M1.14587 16.5433H1.56254V16.1211H1.14587V16.5433Z" fill="#3A424A"/>
<path d="M1.14587 15.699H1.56254V15.2768H1.14587V15.699Z" fill="#3A424A"/>
<path d="M1.14587 14.8547H1.56254V14.4325H1.14587V14.8547Z" fill="#3A424A"/>
<path d="M1.14587 14.0104H1.56254V13.5882H1.14587V14.0104Z" fill="#3A424A"/>
<path d="M1.14587 13.1661H1.56254V12.7439H1.14587V13.1661Z" fill="#3A424A"/>
<path d="M1.14587 12.3218H1.56254V11.8996H1.14587V12.3218Z" fill="#3A424A"/>
<path d="M1.14587 11.4775H1.56254V11.0554H1.14587V11.4775Z" fill="#3A424A"/>
<path d="M1.14587 10.6332H1.56254V10.2111H1.14587V10.6332Z" fill="#3A424A"/>
<path d="M1.14587 9.78891H1.56254V9.36676H1.14587V9.78891Z" fill="#3A424A"/>
<path d="M1.14587 8.94461H1.56254V8.52246H1.14587V8.94461Z" fill="#3A424A"/>
<path d="M1.14587 8.10031H1.56254V7.67816H1.14587V8.10031Z" fill="#3A424A"/>
<path d="M1.14587 7.25601H1.56254V6.83386H1.14587V7.25601Z" fill="#3A424A"/>
<path d="M1.14587 6.41171H1.56254V5.98956H1.14587V6.41171Z" fill="#3A424A"/>
<path d="M1.14587 5.56741H1.56254V5.14526H1.14587V5.56741Z" fill="#3A424A"/>
<path d="M1.14587 4.72312H1.56254V4.30097H1.14587V4.72312Z" fill="#3A424A"/>
<path d="M1.14587 3.87882H1.56254V3.45667H1.14587V3.87882Z" fill="#3A424A"/>
<path d="M1.14587 3.03452H1.56254V2.61237H1.14587V3.03452Z" fill="#3A424A"/>
<path d="M1.14587 2.19022H1.56254V1.97915C1.56254 1.95079 1.56531 1.92349 1.57048 1.89737L1.16174 1.81651C1.15133 1.86911 1.14587 1.92349 1.14587 1.97915V2.19022Z" fill="#3A424A"/>
<path d="M1.28624 1.51613L1.63247 1.74793C1.66301 1.70232 1.70238 1.66295 1.74799 1.63241L1.51619 1.28618C1.42532 1.34702 1.34708 1.42526 1.28624 1.51613Z" fill="#3A424A"/>
<path d="M8.73129 5.62498V4.06248H9.14796V5.62498H8.73129Z" fill="#3A424A"/>
<path d="M5.62504 8.8729H4.06254V9.28956H5.62504V8.8729Z" fill="#3A424A"/>
<path d="M5.62504 10.8521H4.06254V11.2687H5.62504V10.8521Z" fill="#3A424A"/>
<path d="M8.73129 14.375V15.9375H9.14796V14.375H8.73129Z" fill="#3A424A"/>
<path d="M10.7105 14.375V15.9375H11.1271V14.375H10.7105Z" fill="#3A424A"/>
<path d="M14.375 11.2687H15.9375V10.8521H14.375V11.2687Z" fill="#3A424A"/>
<path d="M14.375 9.28956H15.9375V8.8729H14.375V9.28956Z" fill="#3A424A"/>
<path d="M11.1271 5.62498V4.06248H10.7105V5.62498H11.1271Z" fill="#3A424A"/>
<path fill-rule="evenodd" clip-rule="evenodd" d="M17.3877 1.14581H17.8098V1.56248H18.0209C18.0492 1.56248 18.0765 1.56525 18.1026 1.57042L18.1835 1.16167C18.2928 1.1833 18.3945 1.22632 18.4839 1.28618L18.2521 1.63241C18.2977 1.66295 18.3371 1.70232 18.3676 1.74793L18.7138 1.51613C18.7737 1.60554 18.8167 1.70718 18.8383 1.81651L18.4296 1.89737C18.4348 1.92349 18.4375 1.95079 18.4375 1.97915V2.19023H18.8542V2.61238H18.4375V3.03453H18.8542V3.45668H18.4375V3.87882H18.8542V4.30097H18.4375V4.72312H18.8542V5.14527H18.4375V5.56742H18.8542V5.98957H18.4375V6.41172H18.8542V6.83387H18.4375V7.25601H18.8542V7.67816H18.4375V8.10031H18.8542V8.52246H18.4375V8.94461H18.8542V9.36676H18.4375V9.78891H18.8542V10.2111H18.4375V10.6332H18.8542V11.0554H18.4375V11.4775H18.8542V11.8997H18.4375V12.3218H18.8542V12.7439H18.4375V13.1661H18.8542V13.5882H18.4375V14.0104H18.8542V14.4325H18.4375V14.8547H18.8542V15.2768H18.4375V15.699H18.8542V16.1211H18.4375V16.5433H18.8542V16.9654H18.4375V17.3876H18.8542V17.8097H18.4375V18.0208C18.4375 18.0492 18.4348 18.0765 18.4296 18.1026L18.8383 18.1834C18.8165 18.294 18.7728 18.3966 18.7119 18.4867C18.7125 18.4858 18.7132 18.4848 18.7138 18.4838L18.3676 18.252C18.3371 18.2976 18.2977 18.337 18.2521 18.3675L18.4839 18.7138C18.3945 18.7736 18.2928 18.8167 18.1835 18.8383L18.1026 18.4295C18.0765 18.4347 18.0492 18.4375 18.0209 18.4375H17.8098V18.8541H17.3876V18.4375H16.9655V18.8541H16.5433V18.4375H16.1212V18.8541H15.699V18.4375H15.2769V18.8541H14.8548V18.4375H14.4326V18.8541H14.0105V18.4375H13.5883V18.8541H13.1662V18.4375H12.744V18.8541H12.3219V18.4375H11.8997V18.8541H11.4776V18.4375H11.0554V18.8541H10.6333V18.4375H10.2111V18.8541H9.78897V18.4375H9.36682V18.8541H8.94467V18.4375H8.52252V18.8541H8.10037V18.4375H7.67822V18.8541H7.25607V18.4375H6.83392V18.8541H6.41177V18.4375H5.98962V18.8541H5.56747V18.4375H5.14533V18.8541H4.72318V18.4375H4.30103V18.8541H3.87888V18.4375H3.45673V18.8541H3.03458V18.4375H2.61243V18.8541H2.19028V18.4375H1.97921C1.95085 18.4375 1.92355 18.4347 1.89743 18.4295L1.81657 18.8383C1.70724 18.8167 1.6056 18.7736 1.51619 18.7138L1.74799 18.3675C1.70238 18.337 1.66301 18.2976 1.63247 18.252L1.28624 18.4838C1.22638 18.3944 1.18336 18.2928 1.16174 18.1834L1.57048 18.1026C1.56531 18.0765 1.56254 18.0492 1.56254 18.0208V17.8097H1.14587V17.3876H1.56254V16.9654H1.14587V16.5433H1.56254V16.1211H1.14587V15.699H1.56254V15.2768H1.14587V14.8547H1.56254V14.4325H1.14587V14.0104H1.56254V13.5882H1.14587V13.1661H1.56254V12.7439H1.14587V12.3218H1.56254V11.8996H1.14587V11.4775H1.56254V11.0554H1.14587V10.6332H1.56254V10.2111H1.14587V9.78891H1.56254V9.36676H1.14587V8.94461H1.56254V8.52246H1.14587V8.10031H1.56254V7.67816H1.14587V7.25601H1.56254V6.83386H1.14587V6.41171H1.56254V5.98956H1.14587V5.56741H1.56254V5.14526H1.14587V4.72312H1.56254V4.30097H1.14587V3.87882H1.56254V3.45667H1.14587V3.03452H1.56254V2.61237H1.14587V2.19022H1.56254V1.97915C1.56254 1.95079 1.56531 1.92349 1.57048 1.89737L1.16174 1.81651C1.18336 1.70718 1.22638 1.60554 1.28624 1.51613L1.63247 1.74793C1.66301 1.70232 1.70238 1.66295 1.74799 1.63241L1.51619 1.28618C1.6056 1.22632 1.70724 1.1833 1.81657 1.16167L1.89743 1.57042C1.92355 1.56525 1.95085 1.56248 1.97921 1.56248H2.19029V1.14581H2.61244V1.56248H3.03459V1.14581H3.45674V1.56248H3.87889V1.14581H4.30103V1.56248H4.72318V1.14581H5.14533V1.56248H5.56748V1.14581H5.98963V1.56248H6.41178V1.14581H6.83393V1.56248H7.25608V1.14581H7.67822V1.56248H8.10037V1.14581H8.52252V1.56248H8.94467V1.14581H9.36682V1.56248H9.78897V1.14581H10.2111V1.56248H10.6333V1.14581H11.0554V1.56248H11.4776V1.14581H11.8997V1.56248H12.3219V1.14581H12.744V1.56248H13.1662V1.14581H13.5883V1.56248H14.0105V1.14581H14.4326V1.56248H14.8548V1.14581H15.2769V1.56248H15.6991V1.14581H16.1212V1.56248H16.5434V1.14581H16.9655V1.56248H17.3877V1.14581ZM6.54587 5.62498H8.73129V4.06248H9.14796V5.62498H10.7105V4.06248H11.1271V5.62498H13.4542C13.9628 5.62498 14.375 6.03725 14.375 6.54581V8.8729H15.9375V9.28956H14.375V10.8521H15.9375V11.2687H14.375V13.4541C14.375 13.9627 13.9628 14.375 13.4542 14.375H11.1271V15.9375H10.7105V14.375H9.14796V15.9375H8.73129V14.375H6.54587C6.03731 14.375 5.62504 13.9627 5.62504 13.4541V11.2687H4.06254V10.8521H5.62504V9.28956H4.06254V8.8729H5.62504V6.54581C5.62504 6.03725 6.03731 5.62498 6.54587 5.62498Z" fill="white"/>
</svg>
