<svg width="20" height="20" viewBox="0 0 20 20" fill="none" xmlns="http://www.w3.org/2000/svg">
<path fill-rule="evenodd" clip-rule="evenodd" d="M12.9668 6.91205L15.7605 11.8537L15.3978 12.0588L12.6041 7.11711L12.9668 6.91205Z" fill="#3A424A"/>
<path fill-rule="evenodd" clip-rule="evenodd" d="M6.80833 17.5167V17.1H12.9854V17.5167H6.80833Z" fill="#3A424A"/>
<path fill-rule="evenodd" clip-rule="evenodd" d="M7.06191 7.11552L7.18274 6.90927L7.54226 7.11989L7.42189 7.32534L7.42142 7.32615L4.67606 12.0608L4.31561 11.8517L7.06191 7.11552Z" fill="#3A424A"/>
<path d="M14.6312 17.1437V18.0812C14.6312 18.45 15.5312 18.75 16.6396 18.75C17.7479 18.75 18.6458 18.45 18.6458 18.0812V17.1437C18.6458 17.2971 18.4904 17.4386 18.2292 17.5516V18.0083C18.0854 18.127 17.5167 18.325 16.6396 18.325C15.7625 18.325 15.1812 18.1166 15.0479 18.0083V17.5512C14.7867 17.4383 14.6312 17.297 14.6312 17.1437Z" fill="#3A424A"/>
<path d="M14.6353 16.251C14.6326 16.2651 14.6312 16.2794 14.6312 16.2937V17.1437C14.6312 17.5125 15.5312 17.8125 16.6396 17.8125C17.7479 17.8125 18.6458 17.5125 18.6458 17.1437V16.2937C18.6458 16.2794 18.6445 16.2651 18.6418 16.251C18.6158 16.3879 18.466 16.5138 18.2292 16.6162V17.0833C18.0854 17.2041 17.5167 17.4 16.6396 17.4C15.7625 17.4 15.1937 17.2041 15.0479 17.0833V16.6159C14.8111 16.5135 14.6613 16.3878 14.6353 16.251Z" fill="#3A424A"/>
<path d="M14.6312 15.2708V16.2083C14.6312 16.5771 15.5312 16.8771 16.6396 16.8771C17.7479 16.8771 18.6458 16.5771 18.6458 16.2083V15.2708C18.6458 15.4242 18.4904 15.5657 18.2292 15.6787V16.15C18.0854 16.2687 17.5167 16.4667 16.6396 16.4667C15.7625 16.4667 15.1937 16.2583 15.0479 16.15V15.6784C14.7867 15.5655 14.6312 15.4241 14.6312 15.2708Z" fill="#3A424A"/>
<path d="M14.6312 14.2V15.2708C14.6312 15.6396 15.5312 15.9396 16.6396 15.9396C17.7479 15.9396 18.6458 15.6396 18.6458 15.2708V14.2C18.6458 14.1994 18.6458 14.1987 18.6458 14.1981C18.6425 14.2603 18.6259 14.3211 18.5972 14.3764C18.5684 14.4317 18.5282 14.4803 18.4792 14.5188C18.4132 14.5772 18.3289 14.6326 18.2292 14.6837V15.2083C18.0854 15.3271 17.5167 15.525 16.6396 15.525C15.7625 15.525 15.1937 15.3167 15.0479 15.2083V14.6906C14.9462 14.6388 14.8598 14.5819 14.7917 14.5209C14.7436 14.4819 14.7044 14.4332 14.6767 14.3778C14.649 14.3225 14.6335 14.2619 14.6312 14.2Z" fill="#3A424A"/>
<path d="M16.6396 13.8146C17.5437 13.8146 18.0979 14.0667 18.2125 14.1979L18.1979 14.2146C17.9896 14.3979 17.3958 14.5854 16.6396 14.5854C15.8833 14.5854 15.2833 14.3979 15.0792 14.2125L15.0646 14.2C15.1875 14.0667 15.7333 13.8146 16.6396 13.8146ZM16.6396 13.3979C15.5312 13.3979 14.6312 13.7563 14.6312 14.2C14.6335 14.2619 14.649 14.3225 14.6767 14.3778C14.7044 14.4332 14.7436 14.4819 14.7917 14.5209C15.1083 14.8042 15.8167 15 16.6396 15C17.4625 15 18.1708 14.7917 18.4792 14.5188C18.5282 14.4803 18.5684 14.4317 18.5972 14.3764C18.6259 14.3211 18.6425 14.2603 18.6458 14.1981C18.6458 13.7544 17.7479 13.3958 16.6396 13.3958V13.3979Z" fill="#3A424A"/>
<path d="M1.25 17.1437V18.0812C1.25 18.45 2.15 18.75 3.25833 18.75C4.36667 18.75 5.26458 18.45 5.26458 18.0812V17.1437C5.26458 17.2971 5.1092 17.4386 4.84792 17.5516V18.0083C4.70417 18.127 4.13542 18.325 3.25833 18.325C2.38125 18.325 1.8 18.1166 1.66667 18.0083V17.5512C1.40544 17.4383 1.25 17.297 1.25 17.1437Z" fill="#3A424A"/>
<path d="M1.25405 16.251C1.25136 16.2651 1.25 16.2794 1.25 16.2937V17.1437C1.25 17.5125 2.15 17.8125 3.25833 17.8125C4.36667 17.8125 5.26458 17.5125 5.26458 17.1437V16.2937C5.26458 16.2794 5.26322 16.2651 5.26055 16.251C5.23459 16.3879 5.08476 16.5138 4.84792 16.6162V17.0833C4.70417 17.2041 4.13542 17.4 3.25833 17.4C2.38125 17.4 1.8125 17.2041 1.66667 17.0833V16.6159C1.42989 16.5135 1.28003 16.3878 1.25405 16.251Z" fill="#3A424A"/>
<path d="M1.25 15.2708V16.2083C1.25 16.5771 2.15 16.8771 3.25833 16.8771C4.36667 16.8771 5.26458 16.5771 5.26458 16.2083V15.2708C5.26458 15.4242 5.1092 15.5657 4.84792 15.6787V16.15C4.70417 16.2687 4.13542 16.4667 3.25833 16.4667C2.38125 16.4667 1.8125 16.2583 1.66667 16.15V15.6784C1.40544 15.5655 1.25 15.4241 1.25 15.2708Z" fill="#3A424A"/>
<path d="M1.25 14.2V15.2708C1.25 15.6396 2.15 15.9396 3.25833 15.9396C4.36667 15.9396 5.26458 15.6396 5.26458 15.2708V14.2C5.26458 14.1994 5.26458 14.1987 5.26457 14.1981C5.26124 14.2603 5.24466 14.3211 5.21594 14.3764C5.1872 14.4317 5.14695 14.4803 5.09792 14.5188C5.03196 14.5772 4.94769 14.6326 4.84792 14.6837V15.2083C4.70417 15.3271 4.13542 15.525 3.25833 15.525C2.38125 15.525 1.8125 15.3167 1.66667 15.2083V14.6906C1.56494 14.6388 1.4786 14.5819 1.41042 14.5209C1.36233 14.4819 1.32312 14.4332 1.29545 14.3778C1.26778 14.3225 1.25228 14.2619 1.25 14.2Z" fill="#3A424A"/>
<path d="M3.25833 13.8146C4.1625 13.8146 4.71667 14.0667 4.83125 14.1979L4.81667 14.2146C4.60833 14.3979 4.01458 14.5854 3.25833 14.5854C2.50208 14.5854 1.90208 14.3979 1.69792 14.2125L1.68333 14.2C1.80625 14.0667 2.35208 13.8146 3.25833 13.8146ZM3.25833 13.3979C2.15 13.3979 1.25 13.7563 1.25 14.2C1.25228 14.2619 1.26778 14.3225 1.29545 14.3778C1.32312 14.4332 1.36233 14.4819 1.41042 14.5209C1.72709 14.8042 2.43542 15 3.25833 15C4.08125 15 4.78958 14.7917 5.09792 14.5188C5.14695 14.4803 5.1872 14.4317 5.21594 14.3764C5.24466 14.3211 5.26124 14.2603 5.26457 14.1981C5.26457 13.7544 4.36667 13.3958 3.25833 13.3958V13.3979Z" fill="#3A424A"/>
<path d="M8.125 4.99786V5.93537C8.125 6.30412 9.025 6.60412 10.1333 6.60412C11.2417 6.60412 12.1396 6.30412 12.1396 5.93537V4.99786C12.1396 5.15126 11.9842 5.29276 11.7229 5.40572V5.86245C11.5792 5.9812 11.0104 6.17912 10.1333 6.17912C9.25625 6.17912 8.675 5.97079 8.54167 5.86245V5.40538C8.28044 5.29248 8.125 5.15111 8.125 4.99786Z" fill="#3A424A"/>
<path d="M8.12905 4.10517C8.12636 4.1193 8.125 4.13354 8.125 4.14789V4.99786C8.125 5.36661 9.025 5.66662 10.1333 5.66662C11.2417 5.66662 12.1396 5.36661 12.1396 4.99786V4.14789C12.1396 4.13354 12.1382 4.1193 12.1355 4.10517C12.1096 4.24208 11.9598 4.36797 11.7229 4.47036V4.93747C11.5792 5.0583 11.0104 5.25414 10.1333 5.25414C9.25625 5.25414 8.6875 5.0583 8.54167 4.93747V4.47002C8.30489 4.36769 8.15503 4.24193 8.12905 4.10517Z" fill="#3A424A"/>
<path d="M8.125 3.125V4.06248C8.125 4.43123 9.025 4.73125 10.1333 4.73125C11.2417 4.73125 12.1396 4.43123 12.1396 4.06248V3.125C12.1396 3.2784 11.9842 3.4199 11.7229 3.53286V4.00414C11.5792 4.12289 11.0104 4.32081 10.1333 4.32081C9.25625 4.32081 8.6875 4.11248 8.54167 4.00414V3.53252C8.28044 3.41962 8.125 3.27825 8.125 3.125Z" fill="#3A424A"/>
<path d="M8.125 2.05419V3.125C8.125 3.49375 9.025 3.79375 10.1333 3.79375C11.2417 3.79375 12.1396 3.49375 12.1396 3.125V2.05417C12.1396 2.05353 12.1396 2.05289 12.1396 2.05226C12.1362 2.11447 12.1197 2.17525 12.0909 2.23054C12.0622 2.28588 12.022 2.33443 11.9729 2.37294C11.907 2.43132 11.8227 2.48675 11.7229 2.53781V3.0625C11.5792 3.18125 11.0104 3.37917 10.1333 3.37917C9.25625 3.37917 8.6875 3.17084 8.54167 3.0625V2.54479C8.43994 2.49298 8.3536 2.43603 8.28542 2.37503C8.23733 2.3361 8.19812 2.28732 8.17045 2.23198C8.14278 2.17664 8.12728 2.11602 8.125 2.05419Z" fill="#3A424A"/>
<path d="M10.1333 1.66875C11.0375 1.66875 11.5917 1.92083 11.7062 2.05208L11.6917 2.06875C11.4833 2.25208 10.8896 2.43958 10.1333 2.43958C9.37708 2.43958 8.77708 2.25208 8.57292 2.06667L8.55833 2.05417C8.68125 1.92083 9.22708 1.66875 10.1333 1.66875ZM10.1333 1.25208C9.025 1.25208 8.125 1.61044 8.125 2.05419C8.12728 2.11602 8.14278 2.17664 8.17045 2.23198C8.19812 2.28732 8.23733 2.3361 8.28542 2.37503C8.60209 2.65836 9.31042 2.85414 10.1333 2.85414C10.9562 2.85414 11.6646 2.64586 11.9729 2.37294C12.022 2.33443 12.0622 2.28588 12.0909 2.23054C12.1197 2.17525 12.1362 2.11447 12.1396 2.05226C12.1396 1.60851 11.2417 1.25 10.1333 1.25V1.25208Z" fill="#3A424A"/>
<path d="M18.2292 17.5516C17.8624 17.7101 17.2868 17.8125 16.6396 17.8125C15.9918 17.8125 15.4153 17.71 15.0479 17.5512V18.0083C15.1812 18.1166 15.7625 18.325 16.6396 18.325C17.5167 18.325 18.0854 18.127 18.2292 18.0083V17.5516Z" fill="white"/>
<path d="M18.2292 16.6162V17.0833C18.0854 17.2041 17.5167 17.4 16.6396 17.4C15.7625 17.4 15.1937 17.2041 15.0479 17.0833V16.6159C15.4153 16.7746 15.9918 16.8771 16.6396 16.8771C17.2868 16.8771 17.8624 16.7748 18.2292 16.6162Z" fill="white"/>
<path d="M18.2292 15.6787C17.8624 15.8373 17.2868 15.9396 16.6396 15.9396C15.9918 15.9396 15.4153 15.8371 15.0479 15.6784V16.15C15.1937 16.2583 15.7625 16.4667 16.6396 16.4667C17.5167 16.4667 18.0854 16.2687 18.2292 16.15V15.6787Z" fill="white"/>
<path d="M18.3896 14.5886C18.3419 14.6216 18.2883 14.6534 18.2292 14.6837V15.2083C18.0854 15.3271 17.5167 15.525 16.6396 15.525C15.7625 15.525 15.1937 15.3167 15.0479 15.2083V14.6906C14.9462 14.6388 14.8598 14.5819 14.7917 14.5209C15.1083 14.8042 15.8167 15 16.6396 15C17.3907 15 18.0464 14.8264 18.3896 14.5886Z" fill="white"/>
<path d="M18.2125 14.1979C18.0979 14.0667 17.5437 13.8146 16.6396 13.8146C15.7333 13.8146 15.1875 14.0667 15.0646 14.2L15.0792 14.2125C15.2833 14.3979 15.8833 14.5854 16.6396 14.5854C17.3958 14.5854 17.9896 14.3979 18.1979 14.2146L18.2125 14.1979Z" fill="white"/>
<path d="M4.84792 17.5516C4.48111 17.7101 3.90561 17.8125 3.25833 17.8125C2.6106 17.8125 2.03403 17.71 1.66667 17.5512V18.0083C1.8 18.1166 2.38125 18.325 3.25833 18.325C4.13542 18.325 4.70417 18.127 4.84792 18.0083V17.5516Z" fill="white"/>
<path d="M4.84792 16.6162V17.0833C4.70417 17.2041 4.13542 17.4 3.25833 17.4C2.38125 17.4 1.8125 17.2041 1.66667 17.0833V16.6159C2.03403 16.7746 2.6106 16.8771 3.25833 16.8771C3.90561 16.8771 4.48111 16.7748 4.84792 16.6162Z" fill="white"/>
<path d="M4.84792 15.6787C4.48111 15.8373 3.90561 15.9396 3.25833 15.9396C2.6106 15.9396 2.03403 15.8371 1.66667 15.6784V16.15C1.8125 16.2583 2.38125 16.4667 3.25833 16.4667C4.13542 16.4667 4.70417 16.2687 4.84792 16.15V15.6787Z" fill="white"/>
<path d="M5.00834 14.5886C4.96069 14.6216 4.90703 14.6534 4.84792 14.6837V15.2083C4.70417 15.3271 4.13542 15.525 3.25833 15.525C2.38125 15.525 1.8125 15.3167 1.66667 15.2083V14.6906C1.56494 14.6388 1.4786 14.5819 1.41042 14.5209C1.72709 14.8042 2.43542 15 3.25833 15C4.0095 15 4.6652 14.8264 5.00834 14.5886Z" fill="white"/>
<path d="M4.83125 14.1979C4.71667 14.0667 4.1625 13.8146 3.25833 13.8146C2.35208 13.8146 1.80625 14.0667 1.68333 14.2L1.69792 14.2125C1.90208 14.3979 2.50208 14.5854 3.25833 14.5854C4.01458 14.5854 4.60833 14.3979 4.81667 14.2146L4.83125 14.1979Z" fill="white"/>
<path d="M11.7229 5.40572C11.3561 5.5643 10.7806 5.66662 10.1333 5.66662C9.4856 5.66662 8.90903 5.56415 8.54167 5.40538V5.86245C8.675 5.97079 9.25625 6.17912 10.1333 6.17912C11.0104 6.17912 11.5792 5.9812 11.7229 5.86245V5.40572Z" fill="white"/>
<path d="M11.7229 4.47036V4.93747C11.5792 5.0583 11.0104 5.25414 10.1333 5.25414C9.25625 5.25414 8.6875 5.0583 8.54167 4.93747V4.47002C8.90903 4.62879 9.4856 4.73125 10.1333 4.73125C10.7806 4.73125 11.3561 4.62893 11.7229 4.47036Z" fill="white"/>
<path d="M11.7229 3.53286C11.3561 3.69143 10.7806 3.79375 10.1333 3.79375C9.4856 3.79375 8.90903 3.69129 8.54167 3.53252V4.00414C8.6875 4.11248 9.25625 4.32081 10.1333 4.32081C11.0104 4.32081 11.5792 4.12289 11.7229 4.00414V3.53286Z" fill="white"/>
<path d="M11.8833 2.44275C11.8357 2.47578 11.782 2.50756 11.7229 2.53781V3.0625C11.5792 3.18125 11.0104 3.37917 10.1333 3.37917C9.25625 3.37917 8.6875 3.17084 8.54167 3.0625V2.54479C8.43994 2.49298 8.3536 2.43603 8.28542 2.37503C8.60209 2.65836 9.31042 2.85414 10.1333 2.85414C10.8845 2.85414 11.5402 2.6806 11.8833 2.44275Z" fill="white"/>
<path d="M11.7062 2.05208C11.5917 1.92083 11.0375 1.66875 10.1333 1.66875C9.22708 1.66875 8.68125 1.92083 8.55833 2.05417L8.57292 2.06667C8.77708 2.25208 9.37708 2.43958 10.1333 2.43958C10.8896 2.43958 11.4833 2.25208 11.6917 2.06875L11.7062 2.05208Z" fill="white"/>
<path d="M5.26458 15.2354H14.6312V14.2C14.6312 14.0723 14.7058 13.9516 14.8386 13.8445L10.7484 6.57205C10.5546 6.59286 10.3479 6.60411 10.1333 6.60411C9.88869 6.60411 9.6542 6.58949 9.4373 6.56274L5.14429 13.9235C5.22212 14.0091 5.26457 14.1016 5.26457 14.1981L5.26458 14.2V15.2354Z" fill="#0067D1"/>
</svg>
