<svg width="20" height="20" viewBox="0 0 20 20" fill="none" xmlns="http://www.w3.org/2000/svg">
<path fill-rule="evenodd" clip-rule="evenodd" d="M1.25 3.55263C1.25 3.1887 1.54349 2.86643 1.99916 2.59553C2.45712 2.32326 3.1072 2.08478 3.89235 1.88734C5.4648 1.49193 7.62416 1.25 10 1.25C12.3758 1.25 14.5352 1.49193 16.1076 1.88734C16.8928 2.08478 17.5429 2.32326 18.0008 2.59553C18.4565 2.86643 18.75 3.1887 18.75 3.55263V16.4474C18.75 16.8113 18.4565 17.1336 18.0008 17.4045C17.5429 17.6767 16.8928 17.9152 16.1076 18.1127C14.5352 18.5081 12.3758 18.75 10 18.75C7.62416 18.75 5.4648 18.5081 3.89236 18.1127C3.1072 17.9152 2.45713 17.6767 1.99916 17.4045C1.54349 17.1336 1.25 16.8113 1.25 16.4474V3.55263ZM1.65698 3.55263C1.65698 3.3231 1.84178 3.07999 2.25107 2.83666C2.65806 2.5947 3.2596 2.37008 4.02105 2.1786C5.54184 1.79618 7.65573 1.55702 10 1.55702C12.3443 1.55702 14.4582 1.79618 15.9789 2.1786C16.7404 2.37008 17.3419 2.5947 17.7489 2.83666C18.1582 3.07999 18.343 3.3231 18.343 3.55263C18.343 3.78217 18.1582 4.02527 17.7489 4.2686C17.6981 4.29885 17.6441 4.32882 17.5873 4.35849C17.1891 4.5662 16.6452 4.75912 15.9789 4.92666C15.7888 4.97446 15.5895 5.02003 15.3816 5.06316C13.9261 5.36513 12.0512 5.54825 10 5.54825C7.65573 5.54825 5.54184 5.30908 4.02105 4.92666C3.35478 4.75912 2.81094 4.5662 2.41274 4.35849C2.35586 4.32882 2.30194 4.29885 2.25107 4.2686C1.84178 4.02527 1.65698 3.78217 1.65698 3.55263ZM1.65698 12.1491C1.65698 12.3787 1.84179 12.6218 2.25107 12.8651C2.65806 13.1071 3.2596 13.3317 4.02105 13.5232C5.54184 13.9056 7.65573 14.1447 10 14.1447C12.3443 14.1447 14.4582 13.9056 15.9789 13.5232C16.7404 13.3317 17.3419 13.1071 17.7489 12.8651C18.1582 12.6218 18.343 12.3787 18.343 12.1491V8.56817C18.2436 8.65201 18.1286 8.73201 18.0008 8.80798C17.5429 9.08025 16.8928 9.31873 16.1076 9.51617C14.5352 9.91158 12.3758 10.1535 10 10.1535C7.62416 10.1535 5.4648 9.91158 3.89236 9.51617C3.1072 9.31873 2.45713 9.08025 1.99916 8.80798C1.88525 8.74025 1.78146 8.66932 1.68987 8.59532C1.67872 8.58632 1.66776 8.57727 1.65698 8.56817V12.1491ZM1.65698 12.8664V16.4474C1.65698 16.6769 1.84179 16.92 2.25107 17.1633C2.65806 17.4053 3.2596 17.6299 4.02105 17.8214C5.54184 18.2038 7.65573 18.443 10 18.443C12.3443 18.443 14.4582 18.2038 15.9789 17.8214C16.7404 17.6299 17.3419 17.4053 17.7489 17.1633C18.1582 16.92 18.343 16.6769 18.343 16.4474V12.8664C18.3322 12.8755 18.3213 12.8846 18.3101 12.8936C18.2185 12.9676 18.1148 13.0385 18.0008 13.1062C17.5429 13.3785 16.8928 13.617 16.1076 13.8144C14.5352 14.2098 12.3758 14.4518 10 14.4518C7.62416 14.4518 5.4648 14.2098 3.89236 13.8144C3.1072 13.617 2.45713 13.3785 1.99916 13.1062C1.87139 13.0303 1.75635 12.9502 1.65698 12.8664C1.65698 12.8664 1.65697 12.8664 1.65698 12.8664ZM2.25107 8.56685C1.84179 8.32352 1.65698 8.08041 1.65698 7.85088V4.26993C1.66776 4.27902 1.67872 4.28807 1.68987 4.29708C1.78146 4.37107 1.88524 4.44201 1.99916 4.50973C2.05641 4.54377 2.11665 4.57727 2.17979 4.61024C2.62175 4.84098 3.20534 5.04516 3.89235 5.21792C4.08891 5.26735 4.29464 5.31438 4.50881 5.35883C6.00802 5.67003 7.92114 5.85526 10 5.85526C12.3758 5.85526 14.5352 5.61333 16.1076 5.21792C16.8928 5.02048 17.5429 4.782 18.0008 4.50973C18.1286 4.43377 18.2436 4.35376 18.343 4.26993V7.85088C18.343 8.08041 18.1582 8.32352 17.7489 8.56685C17.3419 8.80881 16.7404 9.03343 15.9789 9.22491C14.4582 9.60733 12.3443 9.84649 10 9.84649C7.65573 9.84649 5.54184 9.60733 4.02105 9.22491C3.2596 9.03343 2.65806 8.80881 2.25107 8.56685Z" fill="#3A424A"/>
<path d="M2.25108 12.8651C1.84179 12.6218 1.65698 12.3786 1.65698 12.1491V8.56816C1.66776 8.57726 1.67873 8.58631 1.68988 8.59531C1.78147 8.66931 1.88525 8.74024 1.99917 8.80797C2.45713 9.08024 3.10721 9.31872 3.89236 9.51616C5.46481 9.91157 7.62417 10.1535 10 10.1535C12.3758 10.1535 14.5352 9.91157 16.1076 9.51616C16.8928 9.31872 17.5429 9.08024 18.0008 8.80797C18.1286 8.732 18.2437 8.65199 18.343 8.56816V12.1491C18.343 12.3786 18.1582 12.6218 17.7489 12.8651C17.3419 13.107 16.7404 13.3317 15.9789 13.5231C14.4582 13.9056 12.3443 14.1447 10 14.1447C7.65574 14.1447 5.54185 13.9056 4.02106 13.5231C3.2596 13.3317 2.65807 13.107 2.25108 12.8651Z" fill="white"/>
<path d="M1.65698 16.4474V12.8664C1.75636 12.9502 1.87139 13.0303 1.99917 13.1062C2.45713 13.3785 3.10721 13.617 3.89236 13.8144C5.46481 14.2098 7.62417 14.4517 10 14.4517C12.3758 14.4517 14.5352 14.2098 16.1076 13.8144C16.8928 13.617 17.5429 13.3785 18.0008 13.1062C18.1148 13.0385 18.2185 12.9676 18.3101 12.8936C18.3213 12.8846 18.3322 12.8755 18.343 12.8664V16.4474C18.343 16.6769 18.1582 16.92 17.7489 17.1633C17.3419 17.4053 16.7404 17.6299 15.9789 17.8214C14.4582 18.2038 12.3443 18.443 10 18.443C7.65574 18.443 5.54185 18.2038 4.02106 17.8214C3.2596 17.6299 2.65807 17.4053 2.25108 17.1633C1.84179 16.92 1.65698 16.6769 1.65698 16.4474Z" fill="white"/>
<path d="M1.65698 7.85087C1.65698 8.0804 1.84179 8.32351 2.25108 8.56684C2.65807 8.8088 3.2596 9.03342 4.02106 9.22489C5.54185 9.60732 7.65574 9.84648 10 9.84648C12.3443 9.84648 14.4582 9.60732 15.9789 9.22489C16.7404 9.03342 17.3419 8.8088 17.7489 8.56684C18.1582 8.32351 18.343 8.0804 18.343 7.85087V4.26992C18.2437 4.35375 18.1286 4.43376 18.0008 4.50972C17.5429 4.78199 16.8928 5.02047 16.1076 5.21791C14.5352 5.61332 12.3758 5.85525 10 5.85525C7.92115 5.85525 6.00803 5.67002 4.50881 5.35882C4.29464 5.31437 4.08892 5.26734 3.89236 5.21791C3.20535 5.04515 2.62176 4.84097 2.1798 4.61023C2.11666 4.57726 2.05641 4.54376 1.99917 4.50972C1.88525 4.442 1.78147 4.37106 1.68988 4.29707C1.67873 4.28806 1.66776 4.27901 1.65698 4.26992V7.85087Z" fill="white"/>
<path d="M2.25108 2.83665C1.84179 3.07998 1.65698 3.32308 1.65698 3.55262C1.65698 3.78216 1.84179 4.02526 2.25108 4.26859C2.30195 4.29883 2.35586 4.32881 2.41275 4.35848C2.81095 4.56619 3.35478 4.75911 4.02106 4.92665C5.54185 5.30907 7.65574 5.54823 10 5.54823C12.0512 5.54823 13.9261 5.36512 15.3816 5.06315C15.5895 5.02002 15.7889 4.97445 15.979 4.92665C16.6452 4.75911 17.1891 4.56619 17.5873 4.35848C17.6441 4.32881 17.6981 4.29883 17.7489 4.26859C18.1582 4.02526 18.343 3.78216 18.343 3.55262C18.343 3.32308 18.1582 3.07998 17.7489 2.83665C17.3419 2.59469 16.7404 2.37007 15.979 2.17859C14.4582 1.79617 12.3443 1.55701 10 1.55701C7.65574 1.55701 5.54185 1.79617 4.02106 2.17859C3.2596 2.37007 2.65807 2.59469 2.25108 2.83665Z" fill="#0067D1"/>
</svg>
