<svg width="20" height="20" viewBox="0 0 20 20" fill="none" xmlns="http://www.w3.org/2000/svg">
<path d="M15.7473 13.2607H5.67228C4.54967 13.1975 3.48721 12.7328 2.67883 11.9513C1.87044 11.1698 1.37004 10.1236 1.26897 9.0038C1.16791 7.88397 1.47291 6.76513 2.12831 5.85152C2.7837 4.93791 3.74579 4.29045 4.83895 4.02732C5.52317 2.95548 6.52961 2.12818 7.7136 1.66431C8.89759 1.20045 10.1982 1.12391 11.4284 1.4457C12.6586 1.7675 13.7551 2.47105 14.5603 3.45524C15.3656 4.43943 15.838 5.65357 15.9098 6.92316C16.7046 7.00872 17.438 7.39035 17.9642 7.99212C18.4903 8.5939 18.7707 9.3717 18.7494 10.1708C18.7281 10.9699 18.4068 11.7317 17.8494 12.3046C17.2919 12.8775 16.5392 13.2196 15.741 13.2627L15.7473 13.2607Z" fill="#0067D1"/>
<path d="M1.25 16.0417C1.25 15.8115 1.43655 15.625 1.66667 15.625H7.70833C7.93845 15.625 8.125 15.8115 8.125 16.0417V18.3333C8.125 18.5635 7.93845 18.75 7.70833 18.75H1.66667C1.43655 18.75 1.25 18.5635 1.25 18.3333V16.0417Z" fill="#0067D1"/>
<path d="M15.7291 14.5833C17.2824 14.5833 18.5416 13.3241 18.5416 11.7708C18.5416 10.2175 17.2824 8.95831 15.7291 8.95831C14.1758 8.95831 12.9166 10.2175 12.9166 11.7708C12.9166 13.3241 14.1758 14.5833 15.7291 14.5833Z" fill="white"/>
<path fill-rule="evenodd" clip-rule="evenodd" d="M14.3066 10.8645L14.5844 11.1417L14.6413 11.1986L14.6089 11.2713C14.5941 11.3014 14.581 11.3322 14.5691 11.3635C14.5691 11.3635 14.5691 11.3634 14.5691 11.3635L14.5406 11.4365H14.0722V12.1627H14.5275L14.5554 12.2378C14.5554 12.2379 14.5554 12.238 14.5555 12.2381C14.568 12.2733 14.5816 12.3085 14.5969 12.3426L14.6293 12.4143L14.3089 12.7347L14.8211 13.2469L15.1336 12.9345L15.2065 12.9692C15.2072 12.9695 15.2079 12.9698 15.2085 12.9702C15.2449 12.9876 15.2822 13.003 15.3203 13.0164L15.3948 13.0454V13.486H16.1211V13.0454L16.1979 13.017C16.2354 13.0036 16.2723 12.9884 16.3083 12.9714C16.3095 12.9708 16.3106 12.9703 16.3117 12.9697L16.384 12.935L16.6965 13.2475L17.2087 12.7353L16.8883 12.4148L16.92 12.3434L16.9201 12.3431C16.9353 12.3095 16.9493 12.2747 16.9617 12.24C16.9619 12.2394 16.9621 12.2389 16.9623 12.2384L16.985 12.1718L17.0556 12.1627H17.4437V11.4365H16.9748L16.9463 11.3614C16.9348 11.3312 16.9217 11.3016 16.9081 11.2726C16.9075 11.2714 16.907 11.2703 16.9065 11.2692L16.8718 11.1963L17.2058 10.8622L16.6936 10.35L16.3521 10.6915L16.2804 10.6596C16.2527 10.6472 16.2245 10.6353 16.1962 10.6251C16.196 10.625 16.1958 10.625 16.1956 10.6249L16.1211 10.5976V10.1138H15.3909V10.5993L15.3163 10.6266C15.2897 10.6364 15.2616 10.6477 15.2354 10.659C15.2341 10.6596 15.2328 10.6602 15.2315 10.6608L15.17 10.6886L15.1165 10.6482C15.1148 10.647 15.1133 10.6459 15.1058 10.6386C15.1 10.6331 15.0905 10.6238 15.0744 10.6078C15.0718 10.6052 15.0689 10.6023 15.0658 10.5993C15.057 10.5906 15.0466 10.5802 15.0343 10.5679C15.0203 10.5539 15.0038 10.5374 14.9843 10.5179C14.981 10.5146 14.9776 10.5113 14.9742 10.5078C14.9445 10.4781 14.9083 10.4419 14.8643 10.3978C14.85 10.3835 14.8349 10.3684 14.8188 10.3523L14.3066 10.8645ZM15.186 10.5527L15.1888 10.5555C15.2178 10.5424 15.2472 10.5304 15.2769 10.5194C15.2769 10.5194 15.2769 10.5194 15.2769 10.5194C15.2783 10.5189 15.2797 10.5184 15.281 10.5179V9.99998H16.2355V10.5179C16.2663 10.5292 16.2968 10.5416 16.3269 10.5551C16.327 10.5552 16.3271 10.5552 16.3273 10.5553C16.3274 10.5553 16.3275 10.5554 16.3277 10.5555L16.6936 10.1901L17.368 10.8645L17.0101 11.2225C17.0257 11.2543 17.0396 11.2872 17.0531 11.3206C17.0531 11.3207 17.0531 11.3208 17.0532 11.3209C17.0534 11.3215 17.0536 11.3221 17.0539 11.3227H17.5604V12.2771H17.0715C17.0715 12.2771 17.0715 12.2771 17.0715 12.2771C17.0712 12.2779 17.071 12.2788 17.0707 12.2796C17.0659 12.2936 17.0609 12.3074 17.0556 12.3212C17.0466 12.3446 17.0369 12.3678 17.0268 12.3905C17.0267 12.3907 17.0266 12.3908 17.0266 12.3909L17.0267 12.3911L17.368 12.7353L16.693 13.4097L16.3567 13.0739C16.3177 13.0923 16.2782 13.109 16.2376 13.1241C16.2371 13.1243 16.2367 13.1245 16.2362 13.1246C16.2358 13.1248 16.2353 13.125 16.2349 13.1251V13.5992H15.281V13.1246C15.2802 13.1243 15.2794 13.1239 15.2785 13.1236C15.2378 13.1085 15.1977 13.0917 15.1592 13.0733L14.8229 13.4097L14.1507 12.7347L14.4922 12.3904C14.4921 12.3902 14.4921 12.3901 14.492 12.39C14.492 12.3899 14.492 12.3899 14.4919 12.3898C14.4757 12.3534 14.4606 12.316 14.4472 12.278C14.447 12.2775 14.4468 12.277 14.4467 12.2765H13.9583V11.3227H14.4626C14.4627 11.3225 14.4627 11.3223 14.4628 11.3221C14.4755 11.2891 14.4898 11.2565 14.5046 11.225C14.505 11.2242 14.5054 11.2233 14.5058 11.2225L14.5048 11.2214L14.1485 10.8645L14.8226 10.1903L14.8229 10.1901L15.186 10.5527ZM18.3333 16.0416H1.66667V18.3333H18.3333V16.0416ZM18.3126 11.7708C18.3126 13.1976 17.156 14.3543 15.7292 14.3543C14.3024 14.3543 13.1457 13.1976 13.1457 11.7708C13.1457 10.344 14.3024 9.18734 15.7292 9.18734C17.156 9.18734 18.3126 10.344 18.3126 11.7708ZM15.7292 14.5833C17.2825 14.5833 18.5417 13.3241 18.5417 11.7708C18.5417 10.2175 17.2825 8.95831 15.7292 8.95831C14.1759 8.95831 12.9167 10.2175 12.9167 11.7708C12.9167 13.3241 14.1759 14.5833 15.7292 14.5833ZM15.7511 12.3335C16.0497 12.3335 16.2918 12.0914 16.2918 11.7928C16.2918 11.4942 16.0497 11.2521 15.7511 11.2521C15.4525 11.2521 15.2104 11.4942 15.2104 11.7928C15.2104 12.0914 15.4525 12.3335 15.7511 12.3335ZM15.7511 12.4473C16.1126 12.4473 16.4056 12.1542 16.4056 11.7928C16.4056 11.4313 16.1126 11.1383 15.7511 11.1383C15.3896 11.1383 15.0966 11.4313 15.0966 11.7928C15.0966 12.1542 15.3896 12.4473 15.7511 12.4473ZM1.66667 15.625C1.43655 15.625 1.25 15.8115 1.25 16.0416V18.3333C1.25 18.5634 1.43655 18.75 1.66667 18.75H18.3333C18.5635 18.75 18.75 18.5634 18.75 18.3333V16.0416C18.75 15.8115 18.5635 15.625 18.3333 15.625H1.66667Z" fill="#3A424A"/>
</svg>
