<svg width="20" height="20" viewBox="0 0 20 20" fill="none" xmlns="http://www.w3.org/2000/svg">
<path d="M10.0062 8.675C12.0566 8.675 13.7187 7.01286 13.7187 4.9625C13.7187 2.91214 12.0566 1.25 10.0062 1.25C7.95588 1.25 6.29374 2.91214 6.29374 4.9625C6.29374 7.01286 7.95588 8.675 10.0062 8.675Z" fill="#0067D1"/>
<path d="M10 9.16667C11.8234 9.16667 13.572 9.891 14.8614 11.1803C16.1507 12.4696 16.875 14.2183 16.875 16.0417V18.7083H3.125V16.0458C3.12445 15.1426 3.30188 14.2482 3.64713 13.4136C3.99239 12.579 4.49871 11.8206 5.13717 11.1818C5.77563 10.5429 6.5337 10.0362 7.36809 9.69039C8.20248 9.34463 9.09681 9.16667 10 9.16667Z" fill="#0067D1"/>
<path d="M6.22913 17.875C6.22913 18.0201 6.26698 18.1613 6.33721 18.2855H4.16663V17.048H6.22913V17.875Z" fill="white"/>
<path d="M18.3342 10.5429C18.256 10.4648 18.1501 10.4209 18.0395 10.4209V10.4167H7.06246C6.95196 10.4167 6.84598 10.4606 6.76784 10.5387C6.6897 10.6169 6.6458 10.7228 6.6458 10.8334V17.8792C6.6458 17.9897 6.6897 18.0957 6.76784 18.1738C6.84598 18.252 6.95196 18.2959 7.06246 18.2959H18.0395C18.1501 18.2959 18.256 18.252 18.3342 18.1738C18.4123 18.0957 18.4562 17.9897 18.4562 17.8792V10.8375C18.4562 10.727 18.4123 10.621 18.3342 10.5429Z" fill="white"/>
<path fill-rule="evenodd" clip-rule="evenodd" d="M7.06251 10H18.0396C18.2606 10 18.4726 10.0878 18.6288 10.2441C18.7851 10.4004 18.8729 10.6123 18.8729 10.8333V17.875C18.8729 18.096 18.7851 18.308 18.6288 18.4643C18.4726 18.6205 18.2606 18.7083 18.0396 18.7083H7.06251C7.02786 18.7083 6.99344 18.7062 6.95942 18.7019C6.9556 18.702 6.95177 18.7021 6.94793 18.7021H4.15417C4.04698 18.7021 3.94417 18.6595 3.86838 18.5837C3.79258 18.5079 3.75 18.4051 3.75 18.2979V17.0354C3.75 16.9282 3.79258 16.8254 3.86838 16.7496C3.94417 16.6738 4.04698 16.6313 4.15417 16.6313H6.21876C6.22223 16.6313 6.22571 16.6313 6.22917 16.6314V10.8333C6.22917 10.6123 6.31697 10.4004 6.47325 10.2441C6.62953 10.0878 6.84149 10 7.06251 10ZM18.3342 10.5429C18.2561 10.4647 18.1501 10.4208 18.0396 10.4208V10.4167H7.06251C6.952 10.4167 6.84602 10.4606 6.76788 10.5387C6.68974 10.6168 6.64584 10.7228 6.64584 10.8333V17.8792C6.64584 17.9897 6.68974 18.0957 6.76788 18.1738C6.84602 18.2519 6.952 18.2958 7.06251 18.2958H18.0396C18.1501 18.2958 18.2561 18.2519 18.3342 18.1738C18.4124 18.0957 18.4563 17.9897 18.4563 17.8792V10.8375C18.4563 10.727 18.4124 10.621 18.3342 10.5429ZM6.22917 17.0479H4.16667V18.2854H6.33725C6.26702 18.1613 6.22917 18.0201 6.22917 17.875V17.0479Z" fill="#3A424A"/>
<path fill-rule="evenodd" clip-rule="evenodd" d="M12.5876 17.1839C14.1015 17.1839 15.3288 15.9566 15.3288 14.4426C15.3288 12.9287 14.1015 11.7014 12.5876 11.7014C11.0736 11.7014 9.84628 12.9287 9.84628 14.4426C9.84628 15.9566 11.0736 17.1839 12.5876 17.1839ZM15.5718 14.4426C15.5718 16.0908 14.2357 17.4269 12.5876 17.4269C10.9394 17.4269 9.60326 16.0908 9.60326 14.4426C9.60326 12.7944 10.9394 11.4583 12.5876 11.4583C14.2357 11.4583 15.5718 12.7944 15.5718 14.4426Z" fill="#3A424A"/>
<path fill-rule="evenodd" clip-rule="evenodd" d="M11.7099 13.273C11.7573 13.3204 11.7573 13.3974 11.7099 13.4448L10.7119 14.4428L11.7099 15.4407C11.7573 15.4882 11.7573 15.5651 11.7099 15.6126C11.6624 15.66 11.5855 15.66 11.538 15.6126L10.4542 14.5287C10.4314 14.5059 10.4186 14.475 10.4186 14.4428C10.4186 14.4105 10.4314 14.3796 10.4542 14.3569L11.538 13.273C11.5855 13.2255 11.6624 13.2255 11.7099 13.273Z" fill="#3A424A"/>
<path fill-rule="evenodd" clip-rule="evenodd" d="M13.4652 13.273C13.5126 13.2255 13.5896 13.2255 13.637 13.273L14.7209 14.3569C14.7437 14.3796 14.7565 14.4105 14.7565 14.4428C14.7565 14.475 14.7437 14.5059 14.7209 14.5287L13.637 15.6126C13.5896 15.66 13.5126 15.66 13.4652 15.6126C13.4177 15.5651 13.4177 15.4882 13.4652 15.4407L14.4631 14.4428L13.4652 13.4448C13.4177 13.3974 13.4177 13.3204 13.4652 13.273Z" fill="#3A424A"/>
<path fill-rule="evenodd" clip-rule="evenodd" d="M13.1783 12.9223C13.2409 12.9466 13.2719 13.017 13.2476 13.0796L12.154 15.8938C12.1297 15.9563 12.0593 15.9873 11.9967 15.963C11.9342 15.9387 11.9032 15.8683 11.9275 15.8057L13.0211 12.9916C13.0454 12.929 13.1158 12.898 13.1783 12.9223Z" fill="#3A424A"/>
</svg>
