<svg width="20" height="20" viewBox="0 0 20 20" fill="none" xmlns="http://www.w3.org/2000/svg">
<path fill-rule="evenodd" clip-rule="evenodd" d="M1.25 17.1645V5.20831H18.75V17.1645C18.75 17.7387 18.2846 18.2041 17.7104 18.2041H2.28958C1.71544 18.2041 1.25 17.7387 1.25 17.1645ZM15.1167 11.5189C15.1167 14.3448 12.8258 16.6356 9.99999 16.6356C7.17413 16.6356 4.88332 14.3448 4.88332 11.5189C4.88332 8.69307 7.17413 6.40226 9.99999 6.40226C12.8258 6.40226 15.1167 8.69307 15.1167 11.5189Z" fill="#0067D1"/>
<path fill-rule="evenodd" clip-rule="evenodd" d="M18.2958 2.2125C18.306 2.21304 18.3155 2.21744 18.3225 2.22481C18.3295 2.23218 18.3333 2.24194 18.3333 2.25209V4.79167H1.66667V2.25209C1.66665 2.24194 1.67054 2.23218 1.67751 2.22481C1.68449 2.21744 1.69403 2.21304 1.70417 2.2125H18.2958ZM2.82917 3.98334C3.09725 3.98334 3.31458 3.76601 3.31458 3.49792C3.31458 3.22983 3.09725 3.0125 2.82917 3.0125C2.56108 3.0125 2.34375 3.22983 2.34375 3.49792C2.34375 3.76601 2.56108 3.98334 2.82917 3.98334ZM4.2875 3.98334C4.55559 3.98334 4.77292 3.76601 4.77292 3.49792C4.77292 3.22983 4.55559 3.0125 4.2875 3.0125C4.01941 3.0125 3.80208 3.22983 3.80208 3.49792C3.80208 3.76601 4.01941 3.98334 4.2875 3.98334ZM6.23125 3.49792C6.23125 3.76601 6.01392 3.98334 5.74583 3.98334C5.47775 3.98334 5.26042 3.76601 5.26042 3.49792C5.26042 3.22983 5.47775 3.0125 5.74583 3.0125C6.01392 3.0125 6.23125 3.22983 6.23125 3.49792Z" fill="white"/>
<path d="M11.958 16.2461C14.5688 15.1647 15.8086 12.1716 14.7271 9.56086C13.6457 6.95011 10.6527 5.71033 8.0419 6.79174C5.43115 7.87315 4.19137 10.8662 5.27278 13.477C6.35419 16.0877 9.34728 17.3275 11.958 16.2461Z" fill="white"/>
<path d="M2.82917 3.98334C3.09725 3.98334 3.31458 3.76601 3.31458 3.49792C3.31458 3.22983 3.09725 3.0125 2.82917 3.0125C2.56108 3.0125 2.34375 3.22983 2.34375 3.49792C2.34375 3.76601 2.56108 3.98334 2.82917 3.98334Z" fill="#3A424A"/>
<path d="M4.2875 3.98334C4.55559 3.98334 4.77292 3.76601 4.77292 3.49792C4.77292 3.22983 4.55559 3.0125 4.2875 3.0125C4.01941 3.0125 3.80208 3.22983 3.80208 3.49792C3.80208 3.76601 4.01941 3.98334 4.2875 3.98334Z" fill="#3A424A"/>
<path d="M5.74583 3.98334C6.01392 3.98334 6.23125 3.76601 6.23125 3.49792C6.23125 3.22983 6.01392 3.0125 5.74583 3.0125C5.47775 3.0125 5.26042 3.22983 5.26042 3.49792C5.26042 3.76601 5.47775 3.98334 5.74583 3.98334Z" fill="#3A424A"/>
<path d="M18.2958 2.2125C18.306 2.21304 18.3155 2.21744 18.3225 2.22481C18.3295 2.23218 18.3333 2.24194 18.3333 2.25209V4.79167H1.66667V2.25209C1.66665 2.24194 1.67054 2.23218 1.67751 2.22481C1.68449 2.21744 1.69403 2.21304 1.70417 2.2125H18.2958ZM18.2958 1.79584H1.70417C1.58352 1.79639 1.46801 1.8447 1.3829 1.9302C1.29778 2.01571 1.25 2.13144 1.25 2.25209V5.20834H18.75V2.25209C18.75 2.13144 18.7022 2.01571 18.6171 1.9302C18.532 1.8447 18.4165 1.79639 18.2958 1.79584Z" fill="#3A424A"/>
<path fill-rule="evenodd" clip-rule="evenodd" d="M8.44445 9.51349C8.52581 9.59485 8.52581 9.72676 8.44445 9.80812L6.73343 11.5191L8.44445 13.2302C8.52581 13.3115 8.52581 13.4434 8.44445 13.5248C8.36309 13.6061 8.23118 13.6061 8.14982 13.5248L6.29149 11.6664C6.25242 11.6274 6.23047 11.5744 6.23047 11.5191C6.23047 11.4639 6.25242 11.4109 6.29149 11.3718L8.14982 9.51349C8.23118 9.43213 8.36309 9.43213 8.44445 9.51349Z" fill="#3A424A"/>
<path fill-rule="evenodd" clip-rule="evenodd" d="M11.454 9.51349C11.5353 9.43213 11.6672 9.43213 11.7486 9.51349L13.6069 11.3718C13.646 11.4109 13.6679 11.4639 13.6679 11.5191C13.6679 11.5744 13.646 11.6274 13.6069 11.6664L11.7486 13.5248C11.6672 13.6061 11.5353 13.6061 11.454 13.5248C11.3726 13.4434 11.3726 13.3115 11.454 13.2302L13.165 11.5191L11.454 9.80812C11.3726 9.72676 11.3726 9.59485 11.454 9.51349Z" fill="#3A424A"/>
<path fill-rule="evenodd" clip-rule="evenodd" d="M10.9622 8.91242C11.0694 8.9541 11.1226 9.07482 11.0809 9.18207L9.20591 14.0071C9.16423 14.1143 9.0435 14.1675 8.93626 14.1258C8.82901 14.0841 8.77586 13.9634 8.81753 13.8561L10.6925 9.03115C10.7342 8.9239 10.8549 8.87074 10.9622 8.91242Z" fill="#3A424A"/>
</svg>
