<svg width="20" height="20" viewBox="0 0 20 20" fill="none" xmlns="http://www.w3.org/2000/svg">
<path d="M15.4562 16.9958H16.6854V2.99998H15.4562V16.9958Z" fill="white"/>
<path d="M18.3333 16.1708L17.1084 16.1708V3.82914L18.3333 3.82915V16.1708Z" fill="white"/>
<path fill-rule="evenodd" clip-rule="evenodd" d="M4.27083 16.4583C4.67354 16.4583 5 16.1319 5 15.7292C5 15.3265 4.67354 15 4.27083 15C3.86813 15 3.54167 15.3265 3.54167 15.7292C3.54167 16.1319 3.86813 16.4583 4.27083 16.4583ZM4.27083 16.875C4.90366 16.875 5.41667 16.362 5.41667 15.7292C5.41667 15.0963 4.90366 14.5833 4.27083 14.5833C3.63801 14.5833 3.125 15.0963 3.125 15.7292C3.125 16.362 3.63801 16.875 4.27083 16.875Z" fill="white"/>
<path fill-rule="evenodd" clip-rule="evenodd" d="M4.65028 13.5232V13.1326H3.89139V13.5274C3.89156 13.6291 3.86105 13.7284 3.80388 13.8124C3.7467 13.8964 3.66552 13.9611 3.57097 13.9981L3.53091 14.015C3.46807 14.0411 3.40078 14.0547 3.33276 14.0551C3.26636 14.0555 3.20058 14.0423 3.13937 14.0166C3.07815 13.9908 3.02275 13.953 2.9765 13.9053L2.70878 13.6266L2.17334 14.1628L2.43474 14.4246C2.50662 14.4981 2.55487 14.5914 2.57328 14.6926C2.59169 14.7939 2.57941 14.8983 2.53803 14.9924C2.53592 14.9961 2.5334 15 2.53082 15.0039C2.52312 15.0157 2.51484 15.0283 2.51484 15.041C2.47675 15.1357 2.41075 15.2165 2.32564 15.2727C2.24053 15.3289 2.14035 15.3578 2.03843 15.3555H1.67163V16.1155H2.01313C2.11608 16.1163 2.2164 16.1481 2.30101 16.2069C2.38562 16.2656 2.45058 16.3485 2.48744 16.4448C2.49529 16.4678 2.50444 16.4903 2.51484 16.5123C2.55506 16.6059 2.56591 16.7095 2.54596 16.8095C2.52601 16.9094 2.47619 17.0008 2.40312 17.0717L2.17545 17.3082L2.71089 17.8444L2.93645 17.6206C3.02632 17.5278 3.14892 17.474 3.27795 17.4707C3.3506 17.47 3.42252 17.4852 3.48875 17.515L3.56886 17.5488C3.66262 17.5871 3.74282 17.6526 3.79916 17.7368C3.8555 17.8211 3.88542 17.9203 3.88506 18.0217V18.3383H4.64395V18.0217C4.64394 17.9198 4.67447 17.8203 4.7316 17.7359C4.78873 17.6516 4.86982 17.5865 4.96438 17.5488L5.04448 17.515C5.11071 17.4852 5.18264 17.47 5.25528 17.4707C5.32239 17.4698 5.38897 17.4827 5.45095 17.5084C5.51294 17.5342 5.56901 17.5724 5.61576 17.6206L5.84132 17.8486L6.37676 17.3124L6.13855 17.0717C6.06452 17.0001 6.01429 16.9074 5.99468 16.8062C5.97508 16.705 5.98703 16.6002 6.02893 16.506C6.03202 16.4992 6.03566 16.4926 6.03925 16.486C6.04791 16.4702 6.05633 16.4549 6.05633 16.4384C6.09419 16.3434 6.15959 16.2618 6.24411 16.2042C6.32864 16.1467 6.42843 16.1158 6.53064 16.1155H6.87003V15.3555H6.50113C6.40107 15.3554 6.30328 15.3256 6.22002 15.2701C6.13677 15.2145 6.07176 15.1355 6.03315 15.0431C6.02704 15.0251 6.02 15.0075 6.01207 14.9903C5.97057 14.8965 5.95824 14.7924 5.97666 14.6915C5.99508 14.5906 6.04341 14.4976 6.11536 14.4246L6.37676 14.1628L5.84132 13.6266L5.56516 13.9032C5.5182 13.9503 5.46233 13.9877 5.40081 14.0131C5.33928 14.0385 5.27333 14.0513 5.2068 14.0509C5.13949 14.0503 5.07293 14.0366 5.01075 14.0108L4.9707 13.9939C4.87615 13.9569 4.79497 13.8922 4.73779 13.8082C4.68061 13.7242 4.65011 13.6248 4.65028 13.5232ZM5.41667 15.7292C5.41667 16.362 4.90366 16.875 4.27083 16.875C3.63801 16.875 3.125 16.362 3.125 15.7292C3.125 15.0963 3.63801 14.5833 4.27083 14.5833C4.90366 14.5833 5.41667 15.0963 5.41667 15.7292Z" fill="white"/>
<path fill-rule="evenodd" clip-rule="evenodd" d="M16.6917 17.4166H15.4562V16.9958H16.6854V2.99998H15.4562V2.58331H16.6917C16.8022 2.58331 16.9082 2.62721 16.9863 2.70535C17.0645 2.78349 17.1084 2.88947 17.1084 2.99998V3.41248L18.3625 3.41248C18.4652 3.41248 18.5638 3.4533 18.6365 3.52597C18.7091 3.59865 18.75 3.69721 18.75 3.79998V16.2C18.75 16.3028 18.7091 16.4013 18.6365 16.474C18.5638 16.5467 18.4652 16.5875 18.3625 16.5875L17.1084 16.5875V17C17.1084 17.1105 17.0645 17.2165 16.9863 17.2946C16.9082 17.3727 16.8022 17.4166 16.6917 17.4166ZM17.1084 16.1708L18.3333 16.1708V3.82915L17.1084 3.82914V16.1708Z" fill="#3A424A"/>
<path d="M4.65028 13.1326V13.5232C4.65011 13.6248 4.68061 13.7242 4.73779 13.8082C4.79497 13.8922 4.87615 13.9569 4.9707 13.9939L5.01075 14.0108C5.07293 14.0366 5.13949 14.0503 5.2068 14.0509C5.27333 14.0513 5.33928 14.0385 5.40081 14.0131C5.46233 13.9877 5.5182 13.9503 5.56516 13.9032L5.84132 13.6266L6.37676 14.1628L6.11536 14.4246C6.04341 14.4976 5.99508 14.5906 5.97666 14.6915C5.95824 14.7924 5.97057 14.8965 6.01207 14.9903C6.02 15.0075 6.02704 15.0251 6.03315 15.0431C6.07176 15.1355 6.13677 15.2145 6.22002 15.2701C6.30328 15.3256 6.40107 15.3554 6.50113 15.3555H6.87003V16.1155H6.53064C6.42843 16.1158 6.32864 16.1467 6.24411 16.2042C6.15959 16.2618 6.09419 16.3434 6.05633 16.4384C6.05633 16.4617 6.03947 16.4828 6.02893 16.506C5.98703 16.6002 5.97508 16.705 5.99468 16.8062C6.01429 16.9074 6.06452 17.0001 6.13855 17.0717L6.37676 17.3124L5.84132 17.8486L5.61576 17.6206C5.56901 17.5724 5.51294 17.5342 5.45095 17.5084C5.38897 17.4827 5.32239 17.4698 5.25528 17.4707C5.18264 17.47 5.11071 17.4852 5.04448 17.515L4.96438 17.5488C4.86982 17.5865 4.78873 17.6516 4.7316 17.7359C4.67447 17.8203 4.64394 17.9198 4.64395 18.0217V18.3383H3.88506V18.0217C3.88542 17.9203 3.8555 17.8211 3.79916 17.7368C3.74282 17.6526 3.66262 17.5871 3.56886 17.5488L3.48875 17.515C3.42252 17.4852 3.3506 17.47 3.27795 17.4707C3.14892 17.474 3.02632 17.5278 2.93645 17.6206L2.71089 17.8444L2.17545 17.3082L2.40312 17.0717C2.47619 17.0008 2.52601 16.9094 2.54596 16.8095C2.56591 16.7095 2.55506 16.6059 2.51484 16.5123C2.50444 16.4903 2.49529 16.4678 2.48744 16.4448C2.45058 16.3485 2.38562 16.2656 2.30101 16.2069C2.2164 16.1481 2.11608 16.1163 2.01313 16.1155H1.67163V15.3555H2.03843C2.14035 15.3578 2.24053 15.3289 2.32564 15.2727C2.41075 15.2165 2.47675 15.1357 2.51484 15.041C2.51484 15.0241 2.5296 15.0072 2.53803 14.9924C2.57941 14.8983 2.59169 14.7939 2.57328 14.6926C2.55487 14.5914 2.50662 14.4981 2.43474 14.4246L2.17334 14.1628L2.70878 13.6266L2.9765 13.9053C3.02275 13.953 3.07815 13.9908 3.13937 14.0166C3.20058 14.0423 3.26636 14.0555 3.33276 14.0551C3.40078 14.0547 3.46807 14.0411 3.53091 14.015L3.57097 13.9981C3.66552 13.9611 3.7467 13.8964 3.80388 13.8124C3.86105 13.7284 3.89156 13.6291 3.89139 13.5274V13.1326H4.65028ZM4.98546 12.7083H3.5541C3.53174 12.7083 3.51029 12.7172 3.49448 12.7331C3.47867 12.7489 3.46978 12.7704 3.46978 12.7928V13.5211C3.46958 13.5381 3.46424 13.5547 3.45446 13.5686C3.44468 13.5826 3.43091 13.5932 3.41497 13.5992L3.3686 13.6203C3.35674 13.6223 3.34462 13.6223 3.33276 13.6203C3.32173 13.6202 3.31082 13.618 3.30068 13.6136C3.29054 13.6093 3.28137 13.6029 3.27374 13.5949L2.76148 13.082C2.75353 13.0738 2.74401 13.0674 2.7335 13.0631C2.723 13.0587 2.71172 13.0565 2.70035 13.0566C2.68932 13.0567 2.67841 13.059 2.66827 13.0633C2.65813 13.0677 2.64896 13.074 2.64133 13.082L1.62947 14.0953C1.6215 14.1031 1.61518 14.1125 1.61086 14.1228C1.60654 14.1331 1.60432 14.1442 1.60432 14.1554C1.60432 14.1666 1.60654 14.1777 1.61086 14.188C1.61518 14.1984 1.6215 14.2077 1.62947 14.2156L2.12697 14.7138C2.13931 14.7263 2.14754 14.7423 2.15055 14.7597C2.15356 14.777 2.15122 14.7949 2.14383 14.8109L2.11853 14.8721C2.11165 14.8877 2.10044 14.9009 2.08623 14.9103C2.07203 14.9196 2.05543 14.9247 2.03843 14.9249H1.33435C1.32309 14.9249 1.31196 14.9271 1.30158 14.9315C1.29121 14.9359 1.28182 14.9423 1.27397 14.9503C1.26611 14.9584 1.25994 14.968 1.25583 14.9785C1.25172 14.9889 1.24975 15.0002 1.25003 15.0114V16.4448C1.25003 16.4559 1.25221 16.4668 1.25644 16.4771C1.26068 16.4873 1.26689 16.4966 1.27472 16.5045C1.28255 16.5123 1.29185 16.5185 1.30208 16.5228C1.31231 16.527 1.32327 16.5292 1.33435 16.5292H2.01103C2.02811 16.5291 2.0448 16.5343 2.05878 16.5442C2.07276 16.554 2.08333 16.568 2.08902 16.5841C2.08902 16.6137 2.11221 16.6411 2.12275 16.6685C2.1295 16.6839 2.1315 16.701 2.12849 16.7176C2.12549 16.7341 2.11762 16.7494 2.10589 16.7614L1.62947 17.247C1.6215 17.2548 1.61518 17.2642 1.61086 17.2745C1.60654 17.2848 1.60432 17.2959 1.60432 17.3071C1.60432 17.3183 1.60654 17.3294 1.61086 17.3397C1.61518 17.3501 1.6215 17.3594 1.62947 17.3673L2.64133 18.3806C2.64896 18.3885 2.65813 18.3949 2.66827 18.3992C2.67841 18.4036 2.68932 18.4058 2.70035 18.4059C2.71172 18.406 2.723 18.4038 2.7335 18.3995C2.74401 18.3951 2.75353 18.3887 2.76148 18.3806L3.22314 17.9161C3.23078 17.9082 3.23994 17.9018 3.25008 17.8975C3.26022 17.8931 3.27114 17.8908 3.28217 17.8908C3.29401 17.8886 3.30616 17.8886 3.318 17.8908L3.41497 17.9309C3.43108 17.9373 3.44491 17.9483 3.45468 17.9626C3.46446 17.9769 3.46972 17.9938 3.46978 18.0111V18.6655C3.46978 18.6879 3.47867 18.7094 3.49448 18.7252C3.51029 18.7411 3.53174 18.75 3.5541 18.75H4.98546C4.99671 18.7503 5.0079 18.7483 5.01837 18.7442C5.02885 18.74 5.03839 18.7339 5.04645 18.726C5.0545 18.7181 5.0609 18.7087 5.06527 18.6983C5.06964 18.688 5.07189 18.6768 5.07188 18.6655V18.0217C5.07205 18.0047 5.07711 17.988 5.08645 17.9738C5.0958 17.9596 5.10904 17.9484 5.12459 17.9415L5.22366 17.9014C5.23551 17.8992 5.24765 17.8992 5.2595 17.9014C5.27053 17.9014 5.28144 17.9037 5.29158 17.908C5.30172 17.9124 5.31089 17.9187 5.31852 17.9267L5.78018 18.389C5.78814 18.3971 5.79766 18.4036 5.80817 18.4079C5.81867 18.4123 5.82995 18.4145 5.84132 18.4143C5.85235 18.4143 5.86326 18.412 5.8734 18.4077C5.88354 18.4033 5.8927 18.397 5.90034 18.389L6.9122 17.3757C6.92016 17.3679 6.92649 17.3585 6.93081 17.3482C6.93513 17.3378 6.93735 17.3268 6.93735 17.3156C6.93735 17.3044 6.93513 17.2933 6.93081 17.2829C6.92649 17.2726 6.92016 17.2633 6.9122 17.2554L6.43578 16.7699C6.42352 16.7582 6.41529 16.7429 6.41226 16.7262C6.40923 16.7095 6.41156 16.6923 6.41892 16.677L6.45054 16.5925C6.45662 16.5763 6.46757 16.5622 6.48191 16.5524C6.49625 16.5426 6.51327 16.5374 6.53064 16.5377H7.20732C7.22968 16.5377 7.25113 16.5288 7.26694 16.5129C7.28276 16.4971 7.29164 16.4756 7.29164 16.4532V15.0199C7.29192 15.0086 7.28995 14.9974 7.28584 14.9869C7.28173 14.9764 7.27556 14.9669 7.2677 14.9588C7.25984 14.9507 7.25045 14.9443 7.24008 14.9399C7.22971 14.9356 7.21857 14.9333 7.20732 14.9333H6.50113C6.48443 14.933 6.46817 14.9279 6.45433 14.9185C6.44048 14.9091 6.42965 14.8959 6.42313 14.8805L6.39784 14.8193C6.39031 14.8037 6.38789 14.7861 6.39092 14.7691C6.39394 14.752 6.40227 14.7364 6.4147 14.7243L6.9122 14.224C6.92016 14.2162 6.92649 14.2068 6.93081 14.1965C6.93513 14.1861 6.93735 14.1751 6.93735 14.1639C6.93735 14.1527 6.93513 14.1416 6.93081 14.1312C6.92649 14.1209 6.92016 14.1116 6.9122 14.1037L5.90034 13.0904C5.8927 13.0824 5.88354 13.0761 5.8734 13.0717C5.86326 13.0674 5.85235 13.0651 5.84132 13.0651C5.82995 13.065 5.81867 13.0671 5.80817 13.0715C5.79766 13.0759 5.78814 13.0823 5.78018 13.0904L5.26793 13.6034C5.25997 13.6115 5.25046 13.618 5.23995 13.6223C5.22944 13.6267 5.21817 13.6288 5.2068 13.6287H5.17307L5.12669 13.6076C5.11076 13.6017 5.09699 13.591 5.08721 13.5771C5.07743 13.5631 5.07209 13.5465 5.07188 13.5295V12.7949C5.07189 12.7836 5.06964 12.7725 5.06527 12.7621C5.0609 12.7517 5.0545 12.7423 5.04645 12.7344C5.03839 12.7265 5.02885 12.7204 5.01837 12.7163C5.0079 12.7121 4.99671 12.7102 4.98546 12.7104V12.7083Z" fill="#3A424A"/>
<path fill-rule="evenodd" clip-rule="evenodd" d="M4.27083 16.4583C4.67354 16.4583 5 16.1319 5 15.7292C5 15.3265 4.67354 15 4.27083 15C3.86813 15 3.54167 15.3265 3.54167 15.7292C3.54167 16.1319 3.86813 16.4583 4.27083 16.4583ZM4.27083 16.875C4.90366 16.875 5.41667 16.362 5.41667 15.7292C5.41667 15.0963 4.90366 14.5833 4.27083 14.5833C3.63801 14.5833 3.125 15.0963 3.125 15.7292C3.125 16.362 3.63801 16.875 4.27083 16.875Z" fill="#3A424A"/>
<path d="M13.5 3.51247H4.23543V3.92914H13.5V3.51247Z" fill="#3A424A"/>
<path d="M4.23543 5.60622H13.5V6.02289H4.23543V5.60622Z" fill="#3A424A"/>
<path d="M13.5 7.69789H4.23543V8.11456H13.5V7.69789Z" fill="#3A424A"/>
<path d="M4.23543 9.79164H13.5V10.2083H4.23543V9.79164Z" fill="#3A424A"/>
<path d="M4.23543 11.8854H13.5V12.3021H4.23543V11.8854Z" fill="#3A424A"/>
<path d="M6.78573 13.9771H13.5V14.3937H6.74345L6.9122 14.224C6.92016 14.2162 6.92649 14.2068 6.93081 14.1965C6.93513 14.1861 6.93735 14.1751 6.93735 14.1639C6.93735 14.1527 6.93513 14.1416 6.93081 14.1312C6.92649 14.1209 6.92016 14.1116 6.9122 14.1037L6.78573 13.9771Z" fill="#3A424A"/>
<path d="M7.28439 16.4875H13.5V16.0708H7.29164V16.4532C7.29164 16.4651 7.28913 16.4768 7.28439 16.4875Z" fill="#3A424A"/>
<path fill-rule="evenodd" clip-rule="evenodd" d="M2.66667 1.25H15.0688C15.2828 1.25 15.4563 1.42349 15.4563 1.6375V18.3625C15.4563 18.5765 15.2828 18.75 15.0688 18.75H4.98797C4.99838 18.75 5.00869 18.748 5.01839 18.7442C5.02887 18.74 5.03841 18.7339 5.04647 18.726C5.05452 18.7181 5.06092 18.7087 5.06529 18.6983C5.06966 18.688 5.07191 18.6768 5.07191 18.6655V18.0217C5.07207 18.0047 5.07713 17.988 5.08647 17.9738C5.09582 17.9596 5.10906 17.9484 5.12461 17.9415L5.22368 17.9014C5.23553 17.8992 5.24767 17.8992 5.25952 17.9014C5.27055 17.9014 5.28146 17.9037 5.2916 17.908C5.30174 17.9124 5.31091 17.9187 5.31854 17.9267L5.7802 18.389C5.78816 18.3971 5.79768 18.4036 5.80819 18.4079C5.81869 18.4123 5.82997 18.4145 5.84134 18.4143C5.85237 18.4143 5.86328 18.412 5.87342 18.4077C5.88356 18.4033 5.89272 18.397 5.90036 18.389L6.91222 17.3757C6.92018 17.3679 6.92651 17.3585 6.93083 17.3482C6.93515 17.3378 6.93737 17.3268 6.93737 17.3156C6.93737 17.3044 6.93515 17.2933 6.93083 17.2829C6.92651 17.2726 6.92018 17.2633 6.91222 17.2554L6.4358 16.7699C6.42354 16.7582 6.41531 16.7429 6.41228 16.7262C6.40925 16.7095 6.41158 16.6923 6.41894 16.677L6.45056 16.5925C6.45664 16.5762 6.46759 16.5622 6.48193 16.5524C6.49627 16.5426 6.51329 16.5374 6.53066 16.5377H7.20734C7.2297 16.5377 7.25115 16.5288 7.26696 16.5129C7.27436 16.5055 7.28025 16.4969 7.28441 16.4875H13.5V16.0708H7.29166V15.0199C7.29194 15.0086 7.28997 14.9974 7.28586 14.9869C7.28175 14.9764 7.27558 14.9669 7.26772 14.9588C7.25986 14.9507 7.25047 14.9443 7.2401 14.9399C7.22973 14.9356 7.21859 14.9333 7.20734 14.9333H6.50115C6.48445 14.933 6.46819 14.9279 6.45435 14.9185C6.4405 14.9091 6.42967 14.8959 6.42315 14.8805L6.39786 14.8193C6.39033 14.8037 6.38791 14.7861 6.39094 14.7691C6.39396 14.752 6.40229 14.7364 6.41472 14.7243L6.74347 14.3937H13.5V13.9771H6.78575L5.90036 13.0904C5.89272 13.0824 5.88356 13.0761 5.87342 13.0717C5.86328 13.0674 5.85237 13.0651 5.84134 13.0651C5.82997 13.065 5.81869 13.0671 5.80819 13.0715C5.79768 13.0759 5.78816 13.0823 5.7802 13.0904L5.26795 13.6034C5.25999 13.6115 5.25048 13.618 5.23997 13.6223C5.22946 13.6267 5.21819 13.6288 5.20682 13.6287H5.17309L5.12671 13.6076C5.11078 13.6017 5.09701 13.591 5.08723 13.5771C5.07745 13.5631 5.07211 13.5465 5.07191 13.5295V12.7949C5.07191 12.7836 5.06966 12.7725 5.06529 12.7621C5.06092 12.7517 5.05452 12.7423 5.04647 12.7344C5.03841 12.7265 5.02887 12.7204 5.01839 12.7163C5.00792 12.7121 4.99673 12.7102 4.98548 12.7104V12.7083H3.55412C3.53176 12.7083 3.51031 12.7172 3.4945 12.7331C3.47869 12.7489 3.4698 12.7704 3.4698 12.7928V13.5211C3.4696 13.5381 3.46426 13.5547 3.45448 13.5686C3.4447 13.5826 3.43093 13.5932 3.41499 13.5992L3.36862 13.6203C3.35676 13.6223 3.34464 13.6223 3.33278 13.6203C3.32175 13.6202 3.31084 13.618 3.3007 13.6136C3.29056 13.6093 3.28139 13.6029 3.27376 13.5949L2.7615 13.082C2.75355 13.0738 2.74403 13.0674 2.73352 13.0631C2.72302 13.0587 2.71174 13.0565 2.70037 13.0566C2.68934 13.0567 2.67843 13.0589 2.66829 13.0633C2.65815 13.0677 2.64898 13.074 2.64135 13.082L2.27917 13.4447V1.6375C2.27917 1.42349 2.45266 1.25 2.66667 1.25ZM13.5 3.51247H4.23545V3.92914H13.5V3.51247ZM4.23545 5.60622H13.5V6.02289H4.23545V5.60622ZM4.23545 7.69789H13.5V8.11455H4.23545V7.69789ZM4.23545 9.79164H13.5V10.2083H4.23545V9.79164ZM13.5 11.8854H4.23545V12.3021H13.5V11.8854Z" fill="#0067D1"/>
<path d="M2.27917 18.0179V18.3625C2.27917 18.5765 2.45266 18.75 2.66667 18.75H4.98719L4.98548 18.75H3.55412C3.53176 18.75 3.51031 18.7411 3.4945 18.7252C3.47869 18.7094 3.4698 18.6879 3.4698 18.6655V18.0111C3.46974 17.9938 3.46448 17.9769 3.4547 17.9626C3.44493 17.9483 3.4311 17.9373 3.41499 17.9309L3.31802 17.8908C3.30618 17.8886 3.29403 17.8886 3.28219 17.8908C3.27116 17.8908 3.26024 17.8931 3.2501 17.8975C3.23996 17.9018 3.2308 17.9082 3.22316 17.9161L2.7615 18.3806C2.75355 18.3887 2.74403 18.3951 2.73352 18.3995C2.72302 18.4038 2.71174 18.406 2.70037 18.4059C2.68934 18.4058 2.67843 18.4036 2.66829 18.3992C2.65815 18.3949 2.64898 18.3885 2.64135 18.3806L2.27917 18.0179Z" fill="#0067D1"/>
<path d="M5.00002 15.7292C5.00002 16.1319 4.67356 16.4583 4.27085 16.4583C3.86815 16.4583 3.54169 16.1319 3.54169 15.7292C3.54169 15.3265 3.86815 15 4.27085 15C4.67356 15 5.00002 15.3265 5.00002 15.7292Z" fill="#0067D1"/>
</svg>
