<svg width="20" height="20" viewBox="0 0 20 20" fill="none" xmlns="http://www.w3.org/2000/svg">
<path d="M18.3021 6.79791H1.69792C1.57912 6.79791 1.46519 6.8451 1.38119 6.9291C1.29719 7.0131 1.25 7.12703 1.25 7.24583V16.5583C1.25 16.6771 1.29719 16.7911 1.38119 16.8751C1.46519 16.9591 1.57912 17.0062 1.69792 17.0062H18.3021C18.4209 17.0062 18.5348 16.9591 18.6188 16.8751C18.7028 16.7911 18.75 16.6771 18.75 16.5583V7.24583C18.75 7.12703 18.7028 7.0131 18.6188 6.9291C18.5348 6.8451 18.4209 6.79791 18.3021 6.79791ZM3.25208 16.0417C3.04847 15.5799 2.68217 15.2092 2.22292 15V8.8C2.67997 8.59388 3.04597 8.22788 3.25208 7.77083H16.7479C16.954 8.22788 17.32 8.59388 17.7771 8.8V15C17.3178 15.2092 16.9515 15.5799 16.7479 16.0417H3.25208Z" fill="#0067D1"/>
<path d="M3.98333 12.6917C4.41941 12.6917 4.77292 12.3382 4.77292 11.9021C4.77292 11.466 4.41941 11.1125 3.98333 11.1125C3.54726 11.1125 3.19375 11.466 3.19375 11.9021C3.19375 12.3382 3.54726 12.6917 3.98333 12.6917Z" fill="#0067D1"/>
<path d="M16.1375 12.6917C16.5736 12.6917 16.9271 12.3382 16.9271 11.9021C16.9271 11.466 16.5736 11.1125 16.1375 11.1125C15.7014 11.1125 15.3479 11.466 15.3479 11.9021C15.3479 12.3382 15.7014 12.6917 16.1375 12.6917Z" fill="#0067D1"/>
<path d="M4.65925 6.79794H16.8551L16.6667 5.28778L4.65925 6.79794Z" fill="white"/>
<path d="M14.892 5.08747L14.3979 3.42504L4.28027 6.42022L14.892 5.08747Z" fill="white"/>
<path fill-rule="evenodd" clip-rule="evenodd" d="M14.7917 3.24587L15.3197 5.03375L16.6167 4.87086H16.6688L16.6833 4.86877C16.7821 4.86864 16.8775 4.90489 16.9513 4.9706C17.0251 5.0363 17.0721 5.12687 17.0833 5.22502L17.279 6.79794H16.8551L16.6667 5.28778L4.65925 6.79794H1.69794C1.5939 6.79794 1.49815 6.83341 1.42212 6.89291C1.45402 6.85347 1.49307 6.82036 1.53726 6.79535C1.58359 6.76912 1.63466 6.7523 1.68751 6.74586L1.73792 6.73953C1.746 6.73648 1.7542 6.73373 1.76251 6.73129L14.3396 3.00837C14.372 2.99842 14.4057 2.9935 14.4396 2.99379H14.4521C14.5283 2.99369 14.6025 3.01816 14.6636 3.06358C14.7248 3.10899 14.7697 3.17292 14.7917 3.24587ZM14.3979 3.42504L14.892 5.08747L4.28027 6.42022L14.3979 3.42504Z" fill="#3A424A"/>
<path d="M10.0604 8.85419C10.6633 8.85419 11.2525 9.03295 11.7538 9.36786C12.255 9.70277 12.6457 10.1788 12.8763 10.7357C13.107 11.2927 13.1674 11.9055 13.0498 12.4967C12.9322 13.088 12.6419 13.6311 12.2156 14.0573C11.7894 14.4836 11.2463 14.7739 10.6551 14.8915C10.0638 15.0091 9.45098 14.9487 8.89405 14.718C8.33711 14.4873 7.86109 14.0967 7.52619 13.5954C7.19128 13.0942 7.01252 12.5049 7.01252 11.9021C7.01307 11.0939 7.33437 10.319 7.90584 9.74752C8.47732 9.17604 9.25225 8.85474 10.0604 8.85419ZM10.0604 8.43753C9.37521 8.43753 8.70536 8.64072 8.13562 9.02141C7.56587 9.40211 7.1218 9.9432 6.85958 10.5763C6.59735 11.2093 6.52874 11.906 6.66242 12.578C6.7961 13.2501 7.12607 13.8674 7.61061 14.3519C8.09514 14.8365 8.71247 15.1664 9.38453 15.3001C10.0566 15.4338 10.7532 15.3652 11.3863 15.103C12.0193 14.8407 12.5604 14.3967 12.9411 13.8269C13.3218 13.2572 13.525 12.5873 13.525 11.9021C13.525 10.9832 13.16 10.102 12.5103 9.45228C11.8605 8.80254 10.9793 8.43753 10.0604 8.43753Z" fill="#3A424A"/>
<path d="M10.1959 9.80211H9.9271V10.1854C9.78339 10.1995 9.64279 10.236 9.51044 10.2938C9.34568 10.3651 9.20215 10.4777 9.09377 10.6209C8.99205 10.7652 8.93879 10.9381 8.94169 11.1146C8.93667 11.2175 8.95421 11.3202 8.99308 11.4156C9.03194 11.5109 9.0912 11.5966 9.16669 11.6667C9.34697 11.8221 9.56095 11.9333 9.79169 11.9917L9.92502 12.0292V13.2792C9.84336 13.2674 9.76262 13.25 9.68335 13.2271C9.57343 13.1905 9.47453 13.1267 9.39585 13.0417C9.31951 12.9546 9.2741 12.8448 9.26669 12.7292H8.85002C8.8613 12.9026 8.91964 13.0697 9.01877 13.2125C9.12637 13.3559 9.27018 13.4681 9.43544 13.5375C9.59276 13.6041 9.76064 13.6422 9.93127 13.65V14.0146H10.2V13.6375C10.3794 13.6282 10.5554 13.5851 10.7188 13.5104C10.8889 13.4371 11.0338 13.3154 11.1354 13.1604C11.2296 13.0147 11.2789 12.8444 11.2771 12.6709C11.2814 12.5311 11.2476 12.3928 11.1792 12.2709C11.1186 12.1657 11.0362 12.0748 10.9375 12.0042C10.84 11.9376 10.7351 11.8824 10.625 11.8396C10.5296 11.8029 10.4323 11.7716 10.3334 11.7459L10.2021 11.7104V10.5438C10.3428 10.5547 10.4786 10.5997 10.5979 10.675C10.6644 10.7171 10.7202 10.774 10.761 10.8412C10.8019 10.9084 10.8266 10.9842 10.8334 11.0625H11.2271C11.223 10.8987 11.1685 10.74 11.0709 10.6084C10.9652 10.4702 10.8261 10.3612 10.6667 10.2917C10.5184 10.2246 10.3585 10.1871 10.1959 10.1813V9.80211ZM9.9271 11.6354L9.77919 11.5875C9.70635 11.5609 9.63652 11.5267 9.57085 11.4854C9.50428 11.4446 9.44797 11.389 9.40627 11.3229C9.36078 11.2561 9.33746 11.1767 9.3396 11.0959C9.33825 10.9926 9.37041 10.8918 9.43127 10.8084C9.49647 10.7155 9.58682 10.6433 9.69169 10.6C9.76973 10.5733 9.84987 10.5531 9.93127 10.5396V11.6271L9.9271 11.6354ZM10.1959 13.2667V12.1H10.2084C10.3205 12.1316 10.4305 12.1706 10.5375 12.2167C10.6311 12.2558 10.7156 12.314 10.7854 12.3875C10.8484 12.4626 10.881 12.5584 10.8771 12.6563C10.8803 12.7733 10.8419 12.8877 10.7688 12.9792C10.6912 13.0727 10.5907 13.1445 10.4771 13.1875C10.3852 13.2174 10.2912 13.2404 10.1959 13.2563V13.2667Z" fill="#3A424A"/>
</svg>
