<svg width="20" height="20" viewBox="0 0 20 20" fill="none" xmlns="http://www.w3.org/2000/svg">
<path fill-rule="evenodd" clip-rule="evenodd" d="M9.69751 1.1506L1.66026 5.73495C1.5353 5.8093 1.43174 5.91523 1.35979 6.04228C1.28784 6.16933 1.25 6.3131 1.25 6.4594C1.25 6.60571 1.28784 6.74948 1.35979 6.87653C1.43174 7.00358 1.5353 7.10951 1.66026 7.18386L7.31302 10.4025L7.14998 10.1188L7.53123 9.91045L7.73957 10.275L7.40607 10.4555L9.70793 11.7661C9.83178 11.8375 9.97195 11.875 10.1146 11.875C10.2572 11.875 10.3974 11.8375 10.5213 11.7661L13.121 10.282L13.175 10.1875L13.2319 10.2187L18.5481 7.18386C18.673 7.10951 18.7766 7.00358 18.8485 6.87653C18.9205 6.74948 18.9583 6.60571 18.9583 6.4594C18.9583 6.3131 18.9205 6.16933 18.8485 6.04228C18.7766 5.91523 18.673 5.8093 18.5481 5.73495L10.5108 1.1506C10.387 1.07923 10.2468 1.04169 10.1042 1.04169C9.96152 1.04169 9.82135 1.07923 9.69751 1.1506ZM10.2878 8.56879H10.3125V8.15212H9.89583V8.56879H10.2627L10.0604 8.92087L10.4416 9.1292L10.65 8.7667L10.2878 8.56879ZM9.89583 7.73545H10.3125V7.31879H9.89583V7.73545ZM9.89583 6.90212H10.3125V6.48545L9.89583 6.47504V6.90212ZM9.89583 6.05837L10.3125 6.06879V5.6417L9.89583 5.63129V6.05837ZM9.89583 5.22504L10.3125 5.23545V4.80837L9.89583 4.79795V5.22504ZM9.89583 4.3917L10.3125 4.40212V3.97504L9.89583 3.96462V4.3917ZM9.89583 3.55837L10.3125 3.56879V3.1417L9.89583 3.13129V3.55837ZM9.89583 2.72504L10.3125 2.73545V2.30837L9.89583 2.29795V2.72504ZM9.89583 1.8917L10.3125 1.90212V1.47504H9.89583V1.8917ZM12.2396 10.1459L12.6229 10.3542L12.8312 9.9917L12.4479 9.78337L12.2396 10.1459ZM7.87707 9.71045L8.0854 10.075L8.46665 9.8667L8.25832 9.50212L7.87707 9.71045ZM11.5146 9.73754L11.8958 9.94587L12.1062 9.58337L11.7229 9.37504L11.5146 9.73754ZM8.60207 9.30212L8.8104 9.6667L9.19373 9.45837L8.9854 9.09379L8.60207 9.30212ZM10.7875 9.3292L11.1687 9.53754L11.3771 9.17504L10.9958 8.9667L10.7875 9.3292ZM9.32915 8.89379L9.53748 9.25837L9.92082 9.04795L9.71248 8.68545L9.32915 8.89379Z" fill="#0067D1"/>
<path d="M1.25014 6.47504L1.25 13.4042C1.25013 13.5532 1.29021 13.6994 1.36606 13.8277C1.4419 13.9559 1.55075 14.0615 1.68125 14.1334L9.67292 18.6625C9.8047 18.7363 9.95317 18.775 10.1042 18.775C10.2552 18.775 10.4036 18.7363 10.5354 18.6625L18.5271 14.1417C18.6576 14.0698 18.7664 13.9643 18.8423 13.836C18.9181 13.7078 18.9582 13.5615 18.9583 13.4125V6.47504C18.9557 6.61594 18.9179 6.75401 18.8485 6.87653C18.7766 7.00358 18.673 7.10951 18.5481 7.18386L18.5417 7.18752V13.4042C18.5427 13.4783 18.5239 13.5514 18.4873 13.6158C18.4507 13.6803 18.3975 13.7338 18.3333 13.7709L10.3313 18.2896C10.2621 18.3293 10.1838 18.3501 10.1042 18.3501C10.0245 18.3501 9.94619 18.3293 9.87708 18.2896L1.88542 13.7709C1.81927 13.7352 1.76402 13.6822 1.72551 13.6177C1.687 13.5531 1.66667 13.4794 1.66667 13.4042V7.18751L1.66026 7.18386C1.5353 7.10951 1.43174 7.00358 1.35979 6.87653C1.29041 6.75401 1.25274 6.61594 1.25014 6.47504Z" fill="#3A424A"/>
<path d="M10.3021 18.305C10.2405 18.3347 10.1728 18.3501 10.1042 18.3501C10.0277 18.3501 9.95245 18.3309 9.88541 18.2943V11.8421C9.95956 11.8638 10.0367 11.875 10.1146 11.875C10.178 11.875 10.2409 11.8676 10.3021 11.8531V18.305Z" fill="#3A424A"/>
<path d="M10.3125 8.56879H9.89583V8.15212H10.3125V8.56879ZM10.3125 7.73545H9.89583V7.31879H10.3125V7.73545ZM10.3125 6.90212H9.89583V6.47504L10.3125 6.48545V6.90212ZM10.3125 6.06879L9.89583 6.05837V5.63129L10.3125 5.6417V6.06879ZM10.3125 5.23545L9.89583 5.22504V4.79795L10.3125 4.80837V5.23545ZM10.3125 4.40212L9.89583 4.3917V3.96462L10.3125 3.97504V4.40212ZM10.3125 3.56879L9.89583 3.55837V3.13129L10.3125 3.1417V3.56879ZM10.3125 2.73545L9.89583 2.72504V2.29795L10.3125 2.30837V2.73545ZM10.3125 1.90212L9.89583 1.8917V1.47504H10.3125V1.90212Z" fill="#3A424A"/>
<path d="M18.4375 13.6167L18.0562 13.4084L18.2646 13.0459L18.5417 13.1791L18.5417 13.4229L18.4375 13.6167ZM2.27082 13.3375L2.06248 12.973L2.44373 12.7646L2.65207 13.1271L2.27082 13.3375ZM17.7083 13.2084L17.3271 13L17.5354 12.6375L17.9166 12.8459L17.7083 13.2084ZM2.9979 12.9292L2.78957 12.5667L3.17082 12.3584L3.37915 12.7209L2.9979 12.9292ZM16.9791 12.8021L16.5958 12.5938L16.8041 12.2292L17.1854 12.4375L16.9791 12.8021ZM3.72498 12.5209L3.51665 12.1584L3.8979 11.95L4.10623 12.3146L3.72498 12.5209ZM16.2562 12.3938L15.875 12.1855L16.0833 11.8209L16.4646 12.0292L16.2562 12.3938ZM4.44998 12.1146L4.24165 11.75L4.6229 11.5417L4.83123 11.9063L4.44998 12.1146ZM15.5208 11.9959L15.1396 11.7875L15.3479 11.425L15.7291 11.6334L15.5208 11.9959ZM5.17707 11.7063L4.96873 11.3417L5.34998 11.1334L5.55832 11.498L5.17707 11.7063ZM14.8021 11.5792L14.4208 11.3709L14.6291 11.0084L15.0104 11.2167L14.8021 11.5792ZM5.90415 11.298L5.69582 10.9334L6.07707 10.725L6.2854 11.0875L5.90415 11.298ZM14.075 11.1625L13.6937 10.9542L13.9021 10.5896L14.2833 10.798L14.075 11.1625ZM6.63123 10.8896L6.4229 10.5271L6.80415 10.3188L7.01248 10.6813L6.63123 10.8896ZM13.3479 10.7605L12.9666 10.5521L13.175 10.1875L13.5562 10.3959L13.3479 10.7605ZM7.35832 10.4813L7.14998 10.1188L7.53123 9.91045L7.73957 10.275L7.35832 10.4813ZM12.6229 10.3542L12.2396 10.1459L12.4479 9.78337L12.8312 9.9917L12.6229 10.3542ZM8.0854 10.075L7.87707 9.71045L8.25832 9.50212L8.46665 9.8667L8.0854 10.075ZM11.8958 9.94587L11.5146 9.73754L11.7229 9.37504L12.1062 9.58337L11.8958 9.94587ZM8.8104 9.6667L8.60207 9.30212L8.9854 9.09379L9.19373 9.45837L8.8104 9.6667ZM11.1687 9.53754L10.7875 9.3292L10.9958 8.9667L11.3771 9.17504L11.1687 9.53754ZM9.53748 9.25837L9.32915 8.89379L9.71248 8.68545L9.92082 9.04795L9.53748 9.25837ZM10.4416 9.1292L10.0604 8.92087L10.2687 8.55837L10.65 8.7667L10.4416 9.1292Z" fill="#3A424A"/>
<path d="M18.5417 13.4042L18.5417 13.4163C18.5417 13.4123 18.5417 13.4082 18.5417 13.4042Z" fill="#3A424A"/>
<path fill-rule="evenodd" clip-rule="evenodd" d="M18.5481 7.18384L18.5417 7.18749L18.5417 13.1791L18.2646 13.0458L18.0562 13.4083L18.4375 13.6167L18.5415 13.4232C18.5394 13.4908 18.5208 13.5569 18.4873 13.6158C18.4507 13.6803 18.3976 13.7338 18.3334 13.7708L10.3313 18.2896C10.3217 18.2951 10.312 18.3002 10.3021 18.305V11.8531C10.2409 11.8676 10.178 11.875 10.1146 11.875C10.0367 11.875 9.95958 11.8638 9.88542 11.842V18.2943L9.88201 18.2924L1.88543 13.7708C1.81929 13.7351 1.76403 13.6822 1.72552 13.6177C1.68701 13.5531 1.66668 13.4793 1.66668 13.4042V7.18748L1.66028 7.18384L7.313 10.4024L7.35833 10.4813L7.40612 10.4554L9.70795 11.7661C9.8318 11.8375 9.97197 11.875 10.1146 11.875C10.2573 11.875 10.3974 11.8375 10.5213 11.7661L13.1211 10.2819L12.9667 10.5521L13.3479 10.7604L13.5562 10.3958L13.2319 10.2186L18.5481 7.18384ZM2.0625 12.9729L2.27083 13.3375L2.65208 13.1271L2.44375 12.7646L2.0625 12.9729ZM17.3271 13L17.7083 13.2083L17.9167 12.8458L17.5354 12.6375L17.3271 13ZM2.78958 12.5667L2.99792 12.9292L3.37917 12.7208L3.17083 12.3583L2.78958 12.5667ZM16.5958 12.5938L16.9792 12.8021L17.1854 12.4375L16.8042 12.2292L16.5958 12.5938ZM3.51667 12.1583L3.725 12.5208L4.10625 12.3146L3.89792 11.95L3.51667 12.1583ZM15.875 12.1854L16.2562 12.3938L16.4646 12.0292L16.0833 11.8208L15.875 12.1854ZM4.24167 11.75L4.45 12.1146L4.83125 11.9063L4.62292 11.5417L4.24167 11.75ZM15.1396 11.7875L15.5208 11.9958L15.7292 11.6333L15.3479 11.425L15.1396 11.7875ZM4.96875 11.3417L5.17708 11.7063L5.55833 11.4979L5.35 11.1333L4.96875 11.3417ZM14.4208 11.3708L14.8021 11.5792L15.0104 11.2167L14.6292 11.0083L14.4208 11.3708ZM5.69583 10.9333L5.90417 11.2979L6.28542 11.0875L6.07708 10.725L5.69583 10.9333ZM13.6937 10.9542L14.075 11.1625L14.2833 10.7979L13.9021 10.5896L13.6937 10.9542ZM6.42292 10.5271L6.63125 10.8896L7.0125 10.6813L6.80417 10.3188L6.42292 10.5271Z" fill="white"/>
</svg>
