<svg width="20" height="20" viewBox="0 0 20 20" fill="none" xmlns="http://www.w3.org/2000/svg">
<path fill-rule="evenodd" clip-rule="evenodd" d="M9.99994 4.54999C10.8653 4.54999 11.7002 4.63662 12.4854 4.79734C14.4249 5.72557 15.7645 7.70637 15.7645 10C15.7645 12.2936 14.4251 14.2743 12.4858 15.2026C11.7004 15.3633 10.8654 15.45 9.99994 15.45C9.13447 15.45 8.29943 15.3633 7.51406 15.2026C5.57477 14.2743 4.23535 12.2936 4.23535 10C4.23535 7.70637 5.57493 5.72558 7.51441 4.79735C8.29968 4.63663 9.13459 4.54999 9.99994 4.54999ZM12.8833 10.0001C12.8833 11.5925 11.5924 12.8834 9.99995 12.8834C8.40753 12.8834 7.11662 11.5925 7.11662 10.0001C7.11662 8.40763 8.40753 7.11672 9.99995 7.11672C11.5924 7.11672 12.8833 8.40763 12.8833 10.0001Z" fill="#0067D1"/>
<path d="M12.4855 4.79735C15.8708 5.49019 18.3333 7.55978 18.3333 10C18.3333 12.4401 15.8709 14.5097 12.4859 15.2026C14.4251 14.2743 15.7646 12.2936 15.7646 10C15.7646 7.70637 14.425 5.72558 12.4855 4.79735Z" fill="white"/>
<path d="M7.51446 4.79735C4.1292 5.49021 1.66667 7.55979 1.66667 10C1.66667 12.4401 4.12903 14.5096 7.51411 15.2026C5.57483 14.2743 4.23541 12.2936 4.23541 10C4.23541 7.70638 5.57499 5.72559 7.51446 4.79735Z" fill="white"/>
<path d="M10 12.8834C11.5924 12.8834 12.8833 11.5924 12.8833 10C12.8833 8.40761 11.5924 7.11669 10 7.11669C8.40758 7.11669 7.11667 8.40761 7.11667 10C7.11667 11.5924 8.40758 12.8834 10 12.8834Z" fill="#3A424A"/>
<path d="M10 4.55003C14.5958 4.55003 18.3333 6.99375 18.3333 10C18.3333 13.0062 14.5958 15.45 10 15.45C5.40417 15.45 1.66667 13.0062 1.66667 10C1.66667 6.99375 5.40417 4.55003 10 4.55003ZM10 4.13336C5.16667 4.13336 1.25 6.76045 1.25 10C1.25 13.2396 5.16667 15.8667 10 15.8667C14.8333 15.8667 18.75 13.2396 18.75 10C18.75 6.76045 14.8333 4.13336 10 4.13336Z" fill="#3A424A"/>
</svg>
