<svg width="20" height="20" viewBox="0 0 20 20" fill="none" xmlns="http://www.w3.org/2000/svg">
<path fill-rule="evenodd" clip-rule="evenodd" d="M3.62711 2.5H16.3709C16.945 2.5 17.4104 2.96544 17.4104 3.53958V6.58463C17.2708 6.49618 17.1234 6.4197 16.97 6.35622C16.6201 6.21155 16.2453 6.13723 15.8667 6.1375C15.2963 6.1375 14.7388 6.30666 14.2646 6.62357C13.7904 6.94049 13.4208 7.39093 13.2027 7.91791C12.9845 8.44489 12.9275 9.02474 13.0389 9.58411C13.1504 10.1435 13.4252 10.6572 13.8286 11.0604C14.2321 11.4636 14.746 11.738 15.3055 11.849C15.8649 11.96 16.4447 11.9026 16.9716 11.6841C17.1248 11.6205 17.2716 11.5441 17.4104 11.4561V16.2833C17.4104 16.8575 16.945 17.3229 16.3709 17.3229H3.62711C3.05296 17.3229 2.58752 16.8575 2.58752 16.2833V10.152C2.71432 10.1415 2.83941 10.1114 2.95823 10.0622C3.18397 9.9687 3.37692 9.81036 3.51267 9.60719C3.58992 9.49158 3.64667 9.36441 3.68124 9.23125H3.83125V8.81458H3.71647C3.7158 8.80671 3.71506 8.79885 3.71424 8.791C3.70198 8.67322 3.67279 8.55759 3.62739 8.44773C3.5654 8.29772 3.47442 8.16142 3.35964 8.04665C3.24487 7.93187 3.10857 7.84089 2.95856 7.7789C2.84008 7.72994 2.71489 7.69983 2.58752 7.68947V3.53958C2.58752 2.96544 3.05296 2.5 3.62711 2.5ZM6.33333 9.05L6.33125 9.26042V9.05208L6.28542 9.24583C6.27686 9.24401 6.26827 9.24229 6.25967 9.24068C6.19947 9.2294 6.13837 9.22346 6.07709 9.22292H5.91667V8.80625H6.07292C6.17606 8.80556 6.2789 8.81746 6.37917 8.84167H6.39167L6.33333 9.05ZM6.86253 9.65414L7.00209 9.5125L6.83959 9.62708C6.83131 9.61542 6.82278 9.60396 6.814 9.59271C6.75256 9.51394 6.67893 9.44536 6.59583 9.38958H6.57917L6.72292 9.20833L6.82709 9.05417C6.96448 9.14541 7.08384 9.26124 7.17917 9.39583L7.00625 9.5125L6.86253 9.65414ZM7.4375 10.2937L7.01042 10.2958V10.1708C7.01043 10.1658 7.01039 10.1608 7.01032 10.1558C7.0092 10.0807 6.99874 10.0059 6.97917 9.93333V9.90417L7.1875 9.87917L7.39583 9.81458L7.20835 9.87708L7.39375 9.82917C7.42302 9.94069 7.43773 10.0555 7.4375 10.1708V10.2937ZM7.02479 13.6346C7.01525 13.5693 7.01045 13.5035 7.01042 13.4375V13.2104H7.42709V13.4333C7.42694 13.4864 7.43112 13.5393 7.43958 13.5917C7.43958 13.5917 7.43958 13.5917 7.43958 13.5917L7.23127 13.6271L7.43956 13.6021L7.02917 13.6625C7.02761 13.6532 7.02615 13.6439 7.02479 13.6346ZM7.62498 14.3576L7.51667 14.4917C7.50071 14.4788 7.48506 14.4657 7.46972 14.4521C7.36238 14.3576 7.27061 14.2465 7.19792 14.1229L7.3625 14.0229L7.55 13.8979V13.9104C7.60809 14.0087 7.68363 14.0955 7.77292 14.1667L7.64167 14.3313L7.62498 14.3576ZM7.62225 14.3619L7.6479 14.3292L7.62498 14.3576L7.62225 14.3619ZM7.61459 14.374L7.62225 14.3619L7.51878 14.4937L7.61459 14.374ZM7.61459 14.374L7.63542 14.3479L7.53335 14.5021L7.61459 14.374ZM7.95 14.725C8.08466 14.7682 8.22526 14.79 8.36667 14.7896H8.425L8.42917 14.375H8.37292C8.27454 14.3755 8.17673 14.3601 8.08333 14.3292L7.95 14.725ZM15.5408 14.7896L14.2604 15.9812L14.5438 16.2854L16.3771 14.5812L14.5438 12.8771L14.2604 13.1833L15.5404 14.3729H15.5083V14.7896L15.5408 14.7896ZM12.7396 8.81458L12.75 9.23125H12.3125V8.81458H12.7396ZM11.9063 8.81458L11.9167 9.23125H11.4792V8.81458H11.9063ZM11.073 8.81458L11.0834 9.23125H10.6459V8.81458H11.073ZM10.2396 8.81458L10.25 9.23125H9.81254V8.81458H10.2396ZM9.40629 8.81458L9.41671 9.23125H8.97921V8.81458H9.40629ZM8.57296 8.81458L8.58338 9.23125H8.14588V8.81458H8.57296ZM7.73963 8.81458L7.75004 9.23125H7.31254V8.81458H7.73963ZM7.01042 10.7125V11.1292H7.42709V10.7125H7.01042ZM7.01042 11.5458V11.9625H7.42709V11.5458H7.01042ZM7.01042 12.3792V12.7958H7.42709V12.3792H7.01042ZM9.25833 14.7896H8.84167V14.3729H9.25833V14.7896ZM10.0917 14.7896H9.675V14.3729H10.0917V14.7896ZM10.925 14.7896H10.5083V14.3729H10.925V14.7896ZM11.7583 14.7896H11.3417V14.3729H11.7583V14.7896ZM12.5917 14.7896H12.175V14.3729H12.5917V14.7896ZM13.425 14.7896H13.0083V14.3729H13.425V14.7896ZM14.2583 14.7896H13.8417V14.3729H14.2583V14.7896ZM15.0917 14.7896H14.675V14.3729H15.0917V14.7896ZM5.49792 9.23125H5.08125V8.81458H5.49792V9.23125ZM4.66458 9.23125H4.24792V8.81458H4.66458V9.23125Z" fill="#0067D1"/>
<path d="M2.94029 8.24008C2.80565 8.15012 2.64735 8.1021 2.48542 8.1021C2.26827 8.1021 2.06002 8.18836 1.90647 8.3419C1.75293 8.49545 1.66667 8.7037 1.66667 8.92085C1.66667 9.08278 1.71469 9.24108 1.80465 9.37572C1.89462 9.51036 2.02249 9.6153 2.1721 9.67727C2.3217 9.73924 2.48633 9.75546 2.64515 9.72386C2.80397 9.69227 2.94986 9.61429 3.06436 9.49979C3.17887 9.38529 3.25684 9.2394 3.28843 9.08058C3.32003 8.92176 3.30381 8.75713 3.24184 8.60752C3.17987 8.45792 3.07493 8.33005 2.94029 8.24008Z" fill="white"/>
<path d="M17.2379 6.96902C16.8319 6.69814 16.3547 6.55377 15.8667 6.55418C15.2134 6.55528 14.5871 6.8153 14.1252 7.27726C13.6632 7.73922 13.4032 8.36545 13.4021 9.01876C13.4017 9.5068 13.546 9.98399 13.8169 10.39C14.0878 10.7959 14.473 11.1124 14.9238 11.2993C15.3746 11.4863 15.8708 11.5353 16.3495 11.4402C16.8281 11.3451 17.2678 11.1101 17.6129 10.765C17.958 10.4199 18.193 9.98024 18.2881 9.50156C18.3832 9.02288 18.3342 8.52674 18.1473 8.07593C17.9603 7.62512 17.6438 7.2399 17.2379 6.96902Z" fill="white"/>
<path d="M2.48542 8.1021C2.64735 8.1021 2.80565 8.15012 2.94029 8.24008C3.07493 8.33005 3.17987 8.45792 3.24184 8.60752C3.30381 8.75713 3.32003 8.92176 3.28843 9.08058C3.25684 9.2394 3.17887 9.38529 3.06436 9.49979C2.94986 9.61429 2.80397 9.69227 2.64515 9.72386C2.48633 9.75546 2.3217 9.73924 2.1721 9.67727C2.02249 9.6153 1.89462 9.51036 1.80465 9.37572C1.71469 9.24108 1.66667 9.08278 1.66667 8.92085C1.66667 8.7037 1.75293 8.49545 1.90647 8.3419C2.06002 8.18836 2.26827 8.1021 2.48542 8.1021ZM2.48542 7.68543C2.24107 7.68543 2.00222 7.75789 1.79906 7.89363C1.59589 8.02938 1.43755 8.22233 1.34404 8.44807C1.25054 8.67382 1.22607 8.92222 1.27374 9.16186C1.32141 9.40151 1.43907 9.62164 1.61185 9.79442C1.78462 9.96719 2.00475 10.0849 2.2444 10.1325C2.48405 10.1802 2.73245 10.1557 2.95819 10.0622C3.18393 9.96872 3.37688 9.81037 3.51263 9.60721C3.64838 9.40404 3.72083 9.16519 3.72083 8.92085C3.72111 8.75853 3.68934 8.59776 3.62735 8.44775C3.56536 8.29774 3.47437 8.16144 3.3596 8.04666C3.24483 7.93189 3.10853 7.8409 2.95852 7.77891C2.8085 7.71692 2.64773 7.68516 2.48542 7.68543Z" fill="#3A424A"/>
<path d="M15.8667 6.55418C16.3547 6.55377 16.8319 6.69814 17.2379 6.96902C17.6438 7.2399 17.9603 7.62512 18.1473 8.07593C18.3342 8.52674 18.3832 9.02288 18.2881 9.50156C18.193 9.98024 17.958 10.4199 17.6129 10.765C17.2678 11.1101 16.8281 11.3451 16.3495 11.4402C15.8708 11.5353 15.3746 11.4863 14.9238 11.2993C14.473 11.1124 14.0878 10.7959 13.8169 10.39C13.546 9.98399 13.4017 9.5068 13.4021 9.01876C13.4032 8.36545 13.6632 7.73922 14.1252 7.27726C14.5871 6.8153 15.2134 6.55528 15.8667 6.55418ZM15.8667 6.13751C15.2963 6.13751 14.7388 6.30667 14.2646 6.62359C13.7903 6.9405 13.4208 7.39094 13.2026 7.91792C12.9844 8.44491 12.9275 9.02475 13.0389 9.58412C13.1503 10.1435 13.4251 10.6572 13.8286 11.0604C14.232 11.4636 14.746 11.738 15.3054 11.849C15.8649 11.9601 16.4447 11.9027 16.9715 11.6841C17.4983 11.4655 17.9485 11.0957 18.2651 10.6212C18.5817 10.1468 18.7504 9.58912 18.75 9.01876C18.75 8.64022 18.6754 8.26538 18.5305 7.91568C18.3856 7.56597 18.1731 7.24825 17.9054 6.98068C17.6376 6.7131 17.3197 6.50091 16.9699 6.35624C16.6201 6.21156 16.2452 6.13724 15.8667 6.13751Z" fill="#3A424A"/>
<path d="M14.4888 7.9354L14.7835 7.64078L15.8677 8.72501L16.9519 7.64078L17.2465 7.9354L16.1623 9.01963L17.2465 10.1039L16.9519 10.3985L15.8677 9.31426L14.7835 10.3985L14.4888 10.1039L15.5731 9.01963L14.4888 7.9354Z" fill="#3A424A"/>
<path d="M6.33121 9.26043V9.0521L6.28538 9.24585C6.21688 9.23122 6.14708 9.22355 6.07704 9.22293H5.91663V8.80626H6.07288C6.17602 8.80558 6.27886 8.81747 6.37913 8.84168H6.39163L6.33329 9.05001L6.33121 9.26043Z" fill="#3A424A"/>
<path d="M3.68118 9.23126H3.83121V8.8146H3.71641C3.7194 8.84988 3.72089 8.88532 3.72083 8.92085C3.72083 9.02614 3.70736 9.13042 3.68118 9.23126Z" fill="#3A424A"/>
<path d="M7.00204 9.51251L6.86246 9.65418L7.00621 9.51251L7.17913 9.39585C7.0838 9.26126 6.96444 9.14542 6.82704 9.05418L6.72288 9.20835L6.57913 9.3896H6.59579C6.69076 9.45334 6.77336 9.53381 6.83954 9.6271L7.00204 9.51251Z" fill="#3A424A"/>
<path d="M7.01038 10.2958V10.1708C7.01052 10.0906 7.00001 10.0108 6.97913 9.93335V9.90418L7.18746 9.87918L7.39579 9.8146L7.20829 9.8771L7.39371 9.82918C7.42298 9.9407 7.43769 10.0555 7.43746 10.1708V10.2938L7.01038 10.2958Z" fill="#3A424A"/>
<path d="M7.01038 10.7125V11.1292H7.42704V10.7125H7.01038Z" fill="#3A424A"/>
<path d="M7.01038 11.9625V11.5458H7.42704V11.9625H7.01038Z" fill="#3A424A"/>
<path d="M7.01038 12.3792V12.7958H7.42704V12.3792H7.01038Z" fill="#3A424A"/>
<path d="M7.02913 13.6625C7.01668 13.5882 7.01041 13.5129 7.01038 13.4375V13.2104H7.42704V13.4333C7.4269 13.4864 7.43108 13.5393 7.43954 13.5917L7.23121 13.6271L7.43954 13.6021L7.02913 13.6625Z" fill="#3A424A"/>
<path d="M7.51663 14.4917L7.62494 14.3576L7.62221 14.3619L7.51871 14.4938L7.61455 14.374L7.53329 14.5021L7.63538 14.3479L7.61455 14.374L7.62221 14.3619L7.64788 14.3292L7.62494 14.3576L7.64163 14.3313L7.77288 14.1667C7.68359 14.0955 7.60805 14.0087 7.54996 13.9104V13.8979L7.36246 14.0229L7.19788 14.1229C7.28095 14.2641 7.38895 14.3891 7.51663 14.4917Z" fill="#3A424A"/>
<path d="M8.36663 14.7896H8.42496L8.42913 14.375H8.37288C8.2745 14.3756 8.17669 14.3601 8.08329 14.3292L7.94996 14.725C8.08462 14.7682 8.22522 14.79 8.36663 14.7896Z" fill="#3A424A"/>
<path d="M9.25829 14.7896H8.84163V14.3729H9.25829V14.7896Z" fill="#3A424A"/>
<path d="M9.67496 14.7896H10.0916V14.3729H9.67496V14.7896Z" fill="#3A424A"/>
<path d="M10.925 14.7896H10.5083V14.3729H10.925V14.7896Z" fill="#3A424A"/>
<path d="M11.3416 14.7896H11.7583V14.3729H11.3416V14.7896Z" fill="#3A424A"/>
<path d="M12.5916 14.7896H12.175V14.3729H12.5916V14.7896Z" fill="#3A424A"/>
<path d="M13.0083 14.7896H13.425V14.3729H13.0083V14.7896Z" fill="#3A424A"/>
<path d="M14.2583 14.7896H13.8416V14.3729H14.2583V14.7896Z" fill="#3A424A"/>
<path d="M14.675 14.7896H15.0916V14.3729H14.675V14.7896Z" fill="#3A424A"/>
<path d="M15.5407 14.7896L14.2604 15.9813L14.5437 16.2854L16.3771 14.5813L14.5437 12.8771L14.2604 13.1833L15.5404 14.3729H15.5083V14.7896H15.5407Z" fill="#3A424A"/>
<path d="M5.08121 9.23126H5.49788V8.8146H5.08121V9.23126Z" fill="#3A424A"/>
<path d="M4.66454 9.23126H4.24788V8.8146H4.66454V9.23126Z" fill="#3A424A"/>
<path d="M12.75 9.23126H12.3125V8.8146H12.7396L12.75 9.23126Z" fill="#3A424A"/>
<path d="M11.4792 9.23126H11.9167L11.9063 8.8146H11.4792V9.23126Z" fill="#3A424A"/>
<path d="M11.0833 9.23126H10.6458V8.8146H11.0729L11.0833 9.23126Z" fill="#3A424A"/>
<path d="M9.8125 9.23126H10.25L10.2396 8.8146H9.8125V9.23126Z" fill="#3A424A"/>
<path d="M9.41667 9.23126H8.97917V8.8146H9.40625L9.41667 9.23126Z" fill="#3A424A"/>
<path d="M8.14584 9.23126H8.58334L8.57292 8.8146H8.14584V9.23126Z" fill="#3A424A"/>
<path d="M7.75 9.23126H7.3125V8.8146H7.73959L7.75 9.23126Z" fill="#3A424A"/>
</svg>
