<svg width="20" height="20" viewBox="0 0 20 20" fill="none" xmlns="http://www.w3.org/2000/svg">
<path fill-rule="evenodd" clip-rule="evenodd" d="M13.8187 16.3538L13.8187 16.0667H13.5208V16.3563C12.8777 16.3236 12.2693 16.055 11.8119 15.6018C11.3545 15.1486 11.0803 14.5427 11.0416 13.9H11.3354V13.6063H11.0437C11.0868 12.9674 11.3628 12.3666 11.8193 11.9177C12.2759 11.4688 12.8813 11.2031 13.5208 11.1709V11.4584H13.8187V11.1667C14.4637 11.1941 15.0759 11.4591 15.5374 11.9106C15.9989 12.3621 16.2771 12.9682 16.3187 13.6125H16.0125V13.9084H16.3083C16.2676 14.553 15.9896 15.1596 15.528 15.6113C15.0688 16.0606 14.4602 16.3248 13.8187 16.3538ZM13.8416 13.3104L14.7562 12.525V12.5209L14.9458 12.7084L14.1375 13.6042C14.1683 13.6894 14.1739 13.7817 14.1536 13.87C14.1333 13.9584 14.0879 14.0389 14.0229 14.1021C13.9313 14.1924 13.8078 14.2431 13.6791 14.2431C13.5505 14.2431 13.427 14.1924 13.3354 14.1021C13.2904 14.0577 13.2547 14.0049 13.2303 13.9466C13.2059 13.8883 13.1934 13.8257 13.1934 13.7625C13.1934 13.6993 13.2059 13.6368 13.2303 13.5785C13.2547 13.5202 13.2904 13.4673 13.3354 13.4229C13.401 13.3591 13.4831 13.3147 13.5725 13.2949C13.6619 13.275 13.7551 13.2804 13.8416 13.3104Z" fill="white"/>
<path d="M14.6083 8.79171V7.95837H14.9125V7.33337H12.4125V7.95837H12.7083V8.79171C11.4525 9.02812 10.3302 9.72478 9.56111 10.7453C8.79203 11.7657 8.43155 13.0366 8.55027 14.3089C8.66899 15.5812 9.25836 16.7634 10.203 17.6239C11.1476 18.4845 12.3794 18.9615 13.6573 18.9615C14.9351 18.9615 16.1669 18.4845 17.1115 17.6239C18.0561 16.7634 18.6455 15.5812 18.7642 14.3089C18.883 13.0366 18.5225 11.7657 17.7534 10.7453C16.9843 9.72478 15.862 9.02812 14.6062 8.79171H14.6083ZM13.8187 16.3563V16.0667H13.5208V16.3563C12.8777 16.3236 12.2693 16.055 11.8119 15.6018C11.3545 15.1487 11.0803 14.5428 11.0416 13.9H11.3354V13.6063H11.0437C11.0868 12.9675 11.3628 12.3666 11.8193 11.9177C12.2759 11.4688 12.8813 11.2031 13.5208 11.1709V11.4584H13.8187V11.1667C14.4637 11.1942 15.0759 11.4591 15.5374 11.9106C15.9989 12.3621 16.2771 12.9683 16.3187 13.6125H16.0125V13.9084H16.3083C16.2676 14.553 15.9896 15.1597 15.528 15.6113C15.0663 16.063 14.4536 16.3277 13.8083 16.3542L13.8187 16.3563Z" fill="#3A424A"/>
<path d="M14.7562 12.525L13.8416 13.3105C13.7551 13.2804 13.6619 13.275 13.5725 13.2949C13.4831 13.3148 13.401 13.3591 13.3354 13.423C13.2904 13.4673 13.2547 13.5202 13.2303 13.5785C13.2059 13.6368 13.1934 13.6994 13.1934 13.7625C13.1934 13.8257 13.2059 13.8883 13.2303 13.9466C13.2547 14.0049 13.2904 14.0577 13.3354 14.1021C13.427 14.1925 13.5505 14.2431 13.6791 14.2431C13.8078 14.2431 13.9313 14.1925 14.0229 14.1021C14.0879 14.039 14.1333 13.9584 14.1536 13.8701C14.1739 13.7817 14.1683 13.6894 14.1375 13.6042L14.9458 12.7084L14.7562 12.5209V12.525Z" fill="#3A424A"/>
<path d="M18.2633 11.5755C18.121 11.2851 17.9507 11.007 17.7534 10.7453C16.9844 9.7248 15.862 9.02814 14.6063 8.79173H14.6083V7.95839H14.9125V7.33339H12.4125V7.95839H12.7083V8.79173C11.4526 9.02814 10.3303 9.7248 9.56116 10.7453C9.03565 11.4426 8.70092 12.2567 8.57948 13.1084H5.70215C4.58534 13.0438 3.52896 12.58 2.72558 11.8015C1.92221 11.023 1.42535 9.98176 1.3256 8.86755C1.22584 7.75334 1.52984 6.64038 2.18215 5.73159C2.83447 4.8228 3.79167 4.1787 4.87923 3.91673C5.55973 2.84953 6.56113 2.02562 7.73943 1.56347C8.91774 1.10131 10.2122 1.02471 11.4368 1.34469C12.6614 1.66467 13.753 2.36474 14.5546 3.34424C15.3562 4.32375 15.8265 5.53222 15.898 6.7959C16.687 6.88403 17.4142 7.26514 17.9356 7.8638C18.4571 8.46246 18.7348 9.23505 18.7138 10.0287C18.6993 10.5786 18.5422 11.1108 18.2633 11.5755Z" fill="#0067D1"/>
</svg>
