<svg width="20" height="20" viewBox="0 0 20 20" fill="none" xmlns="http://www.w3.org/2000/svg">
<path d="M10.9963 10.3042C11.205 10.578 11.4469 10.8277 11.7183 11.0469C12.4873 11.6679 13.4459 12.0066 14.4344 12.0066C14.7449 12.0066 15.0524 11.9732 15.3521 11.9081V12.1792H10.6083V10.3042H10.9963Z" fill="white"/>
<path d="M10.1092 7.22921C10.1027 7.3603 10.101 7.49163 10.1042 7.62291C10.1007 7.94948 10.1357 8.27533 10.2083 8.59374C10.2457 8.76743 10.2936 8.93786 10.3515 9.10421H7.62917V7.22921H10.1092Z" fill="white"/>
<path d="M6.41042 7.22921V9.10421H1.66667V7.22921H6.41042Z" fill="white"/>
<path d="M9.39167 12.1792V10.3042H4.64792V12.1792H9.39167Z" fill="white"/>
<path d="M9.39167 18.3334V16.4584H4.64792V18.3334H9.39167Z" fill="white"/>
<path d="M15.3521 16.4584V18.3334H10.6083V16.4584H15.3521Z" fill="white"/>
<path d="M6.41042 15.2542V13.3792H1.66667V15.2542H6.41042Z" fill="white"/>
<path d="M12.3708 15.2542V13.3792H7.62917V15.2542H12.3708Z" fill="white"/>
<path d="M18.3333 15.2542V13.3792H13.5896V15.2542H18.3333Z" fill="white"/>
<path d="M9.39167 16.4584V18.3334H4.64792V16.4584H9.39167ZM9.40626 16.0417H4.63125C4.57855 16.0417 4.52637 16.0521 4.4777 16.0723C4.42903 16.0926 4.38484 16.1222 4.34767 16.1596C4.3105 16.1969 4.28108 16.2413 4.2611 16.29C4.24112 16.3388 4.23098 16.3911 4.23126 16.4438V18.3563C4.2329 18.4613 4.27576 18.5614 4.3506 18.6351C4.42544 18.7087 4.52624 18.75 4.63125 18.75H9.40626C9.45896 18.7503 9.5112 18.7401 9.55997 18.7202C9.60874 18.7002 9.65308 18.6708 9.69045 18.6336C9.72781 18.5964 9.75746 18.5522 9.77769 18.5036C9.79792 18.4549 9.80834 18.4027 9.80834 18.35V16.4396C9.80807 16.3871 9.79745 16.3351 9.77709 16.2867C9.75674 16.2382 9.72705 16.1943 9.68971 16.1574C9.65237 16.1204 9.60812 16.0912 9.55949 16.0713C9.51085 16.0515 9.45878 16.0414 9.40626 16.0417Z" fill="#3A424A"/>
<path d="M15.3521 16.4584V18.3334H10.6083V16.4584H15.3521ZM15.3688 16.0417H10.5938C10.5409 16.0414 10.4885 16.0516 10.4396 16.0717C10.3907 16.0918 10.3462 16.1214 10.3088 16.1588C10.2714 16.1962 10.2418 16.2407 10.2217 16.2896C10.2016 16.3385 10.1914 16.3909 10.1917 16.4438V18.3563C10.1933 18.4616 10.2365 18.5621 10.3118 18.6358C10.387 18.7095 10.4884 18.7506 10.5938 18.75H15.3688C15.4748 18.75 15.5766 18.7079 15.6516 18.6328C15.7266 18.5578 15.7688 18.4561 15.7688 18.35V16.4396C15.7682 16.3339 15.7258 16.2327 15.6509 16.1581C15.5759 16.0835 15.4745 16.0417 15.3688 16.0417Z" fill="#3A424A"/>
<path d="M9.39167 10.3042V12.1792H4.64792V10.3042H9.39167ZM9.40626 9.88751H4.63126C4.52517 9.88751 4.42343 9.92965 4.34841 10.0047C4.2734 10.0797 4.23126 10.1814 4.23126 10.2875V12.2C4.23126 12.3061 4.2734 12.4078 4.34841 12.4828C4.42343 12.5579 4.52517 12.6 4.63126 12.6H9.40626C9.45896 12.6003 9.5112 12.5901 9.55997 12.5702C9.60874 12.5502 9.65308 12.5208 9.69045 12.4836C9.72781 12.4464 9.75746 12.4022 9.77769 12.3536C9.79792 12.3049 9.80834 12.2527 9.80834 12.2V10.2875C9.80834 10.2348 9.79792 10.1826 9.77769 10.1339C9.75746 10.0853 9.72781 10.0411 9.69045 10.0039C9.65308 9.96675 9.60874 9.93733 9.55997 9.91735C9.5112 9.89737 9.45896 9.88723 9.40626 9.88751Z" fill="#3A424A"/>
<path d="M15.3521 10.3042V12.1792H10.6083V10.3042L15.3521 10.3042ZM15.3688 9.88751H10.5938C10.5411 9.88723 10.4888 9.89737 10.44 9.91735C10.3913 9.93733 10.3469 9.96675 10.3096 10.0039C10.2722 10.0411 10.2425 10.0853 10.2223 10.1339C10.2021 10.1826 10.1917 10.2348 10.1917 10.2875V12.2C10.1917 12.2527 10.2021 12.3049 10.2223 12.3536C10.2425 12.4022 10.2722 12.4464 10.3096 12.4836C10.3469 12.5208 10.3913 12.5502 10.44 12.5702C10.4888 12.5901 10.5411 12.6003 10.5938 12.6H15.3688C15.4748 12.6 15.5766 12.5579 15.6516 12.4828C15.7266 12.4078 15.7688 12.3061 15.7688 12.2V10.2875C15.7688 10.1814 15.7266 10.0797 15.6516 10.0047C15.5766 9.92965 15.4748 9.88751 15.3688 9.88751Z" fill="#3A424A"/>
<path d="M6.41042 13.3792V15.2542H1.66667V13.3792H6.41042ZM6.42709 12.9625H1.65209C1.59938 12.9622 1.54715 12.9724 1.49838 12.9924C1.4496 13.0123 1.40526 13.0418 1.3679 13.0789C1.33053 13.1161 1.30088 13.1603 1.28065 13.2089C1.26042 13.2576 1.25 13.3098 1.25001 13.3625V15.275C1.24973 15.3279 1.25994 15.3803 1.28005 15.4292C1.30016 15.4781 1.32977 15.5225 1.36716 15.5599C1.40455 15.5973 1.44898 15.6269 1.49789 15.647C1.5468 15.6672 1.59921 15.6774 1.65209 15.6771H6.42709C6.47979 15.6771 6.53198 15.6667 6.58064 15.6464C6.62931 15.6262 6.6735 15.5966 6.71067 15.5592C6.74784 15.5218 6.77726 15.4775 6.79724 15.4287C6.81722 15.3799 6.82736 15.3277 6.82709 15.275V13.3625C6.82709 13.2564 6.78495 13.1547 6.70993 13.0797C6.63492 13.0046 6.53318 12.9625 6.42709 12.9625Z" fill="#3A424A"/>
<path d="M12.3708 13.3792V15.2542H7.62917V13.3792H12.3708ZM12.3875 12.9625H7.61251C7.50642 12.9625 7.40468 13.0046 7.32966 13.0797C7.25465 13.1547 7.2125 13.2564 7.2125 13.3625V15.275C7.21223 15.3277 7.22237 15.3799 7.24235 15.4287C7.26233 15.4775 7.29175 15.5218 7.32892 15.5592C7.36609 15.5966 7.41028 15.6262 7.45895 15.6464C7.50762 15.6667 7.5598 15.6771 7.61251 15.6771H12.3875C12.4402 15.6771 12.4924 15.6667 12.5411 15.6464C12.5897 15.6262 12.6339 15.5966 12.6711 15.5592C12.7083 15.5218 12.7377 15.4775 12.7577 15.4287C12.7776 15.3799 12.7878 15.3277 12.7875 15.275V13.3625C12.7875 13.2564 12.7454 13.1547 12.6703 13.0797C12.5953 13.0046 12.4936 12.9625 12.3875 12.9625Z" fill="#3A424A"/>
<path d="M18.3333 13.3792V15.2542H13.5896V13.3792H18.3333ZM18.3479 12.9625H13.5729C13.4668 12.9625 13.3651 13.0046 13.2901 13.0797C13.2151 13.1547 13.1729 13.2564 13.1729 13.3625V15.275C13.1726 15.3277 13.1828 15.3799 13.2028 15.4287C13.2227 15.4775 13.2522 15.5218 13.2893 15.5592C13.3265 15.5966 13.3707 15.6262 13.4194 15.6464C13.468 15.6667 13.5202 15.6771 13.5729 15.6771H18.3479C18.4008 15.6774 18.4532 15.6672 18.5021 15.647C18.551 15.6269 18.5955 15.5973 18.6329 15.5599C18.6702 15.5225 18.6999 15.4781 18.72 15.4292C18.7401 15.3803 18.7503 15.3279 18.75 15.275V13.3625C18.75 13.3098 18.7396 13.2576 18.7194 13.2089C18.6991 13.1603 18.6695 13.1161 18.6321 13.0789C18.5947 13.0418 18.5504 13.0123 18.5016 12.9924C18.4529 12.9724 18.4006 12.9622 18.3479 12.9625Z" fill="#3A424A"/>
<path d="M6.41042 7.22921V9.10421H1.66667V7.22921H6.41042ZM6.42709 6.81251H1.65209C1.59938 6.81223 1.54715 6.82237 1.49838 6.84235C1.4496 6.86233 1.40526 6.89175 1.3679 6.92892C1.33053 6.96609 1.30088 7.01028 1.28065 7.05895C1.26042 7.10762 1.25 7.1598 1.25001 7.21251V9.12501C1.25 9.17771 1.26042 9.22989 1.28065 9.27856C1.30088 9.32723 1.33053 9.37142 1.3679 9.40859C1.40526 9.44576 1.4496 9.47518 1.49838 9.49516C1.54715 9.51514 1.59938 9.52528 1.65209 9.52501H6.42709C6.53318 9.52501 6.63492 9.48286 6.70993 9.40785C6.78495 9.33283 6.82709 9.23109 6.82709 9.12501V7.21251C6.82709 7.10642 6.78495 7.00468 6.70993 6.92966C6.63492 6.85465 6.53318 6.81251 6.42709 6.81251Z" fill="#3A424A"/>
<path d="M12.3708 7.22917V9.10417L7.62917 9.10421V7.22921L12.3708 7.22917ZM12.3875 6.81251H7.61251C7.50642 6.81251 7.40468 6.85465 7.32966 6.92966C7.25465 7.00468 7.21251 7.10642 7.21251 7.21251V9.12501C7.21251 9.23109 7.25465 9.33283 7.32966 9.40785C7.40468 9.48286 7.50642 9.52501 7.61251 9.52501H12.3875C12.4936 9.52501 12.5953 9.48286 12.6703 9.40785C12.7454 9.33283 12.7875 9.23109 12.7875 9.12501V7.21251C12.7875 7.10642 12.7454 7.00468 12.6703 6.92966C12.5953 6.85465 12.4936 6.81251 12.3875 6.81251Z" fill="#3A424A"/>
<path d="M18.3333 7.22917V9.10417H13.5896V7.22917H18.3333ZM18.3479 6.81251H13.5729C13.4668 6.81251 13.3651 6.85465 13.2901 6.92966C13.2151 7.00468 13.1729 7.10642 13.1729 7.21251V9.12501C13.1729 9.23109 13.2151 9.33283 13.2901 9.40785C13.3651 9.48286 13.4668 9.52501 13.5729 9.52501H18.3479C18.4006 9.52528 18.4529 9.51514 18.5016 9.49516C18.5504 9.47518 18.5947 9.44576 18.6321 9.40859C18.6695 9.37142 18.6991 9.32723 18.7194 9.27856C18.7396 9.22989 18.75 9.17771 18.75 9.12501V7.21251C18.75 7.1598 18.7396 7.10762 18.7194 7.05895C18.6991 7.01028 18.6695 6.96609 18.6321 6.92892C18.5947 6.89175 18.5504 6.86233 18.5016 6.84235C18.4529 6.82237 18.4006 6.81223 18.3479 6.81251Z" fill="#3A424A"/>
<path d="M17.32 4.11824C17.3852 4.0466 17.4351 3.96242 17.4667 3.87084C18.21 4.79836 18.6504 5.92724 18.7353 7.10512C18.731 7.08948 18.7256 7.07407 18.7194 7.05901C18.6991 7.01034 18.6695 6.96616 18.6321 6.92899C18.5948 6.89181 18.5504 6.86239 18.5016 6.84241C18.4529 6.82244 18.4006 6.81229 18.3479 6.81257H13.5729C13.4668 6.81257 13.3651 6.85471 13.2901 6.92972C13.2151 7.00474 13.1729 7.10648 13.1729 7.21257V9.12507C13.1729 9.23115 13.2151 9.3329 13.2901 9.40791C13.3651 9.48292 13.4668 9.52507 13.5729 9.52507H18.3455C18.069 10.1123 17.6619 10.6338 17.1504 11.0469C16.7365 11.3811 16.2676 11.6336 15.7688 11.7955V10.2876C15.7688 10.1815 15.7266 10.0797 15.6516 10.0047C15.5766 9.92971 15.4749 9.88757 15.3688 9.88757H10.7154C10.6457 9.76993 10.5816 9.64896 10.5232 9.52507H12.3875C12.4936 9.52507 12.5953 9.48292 12.6704 9.40791C12.7454 9.3329 12.7875 9.23115 12.7875 9.12507V7.21257C12.7875 7.10648 12.7454 7.00474 12.6704 6.92972C12.5953 6.85471 12.4936 6.81257 12.3875 6.81257H10.146C10.2865 5.68006 10.7546 4.61209 11.4943 3.74059C12.2625 2.8355 13.2874 2.18495 14.4333 1.87501C14.9681 1.7254 15.5219 1.65521 16.0771 1.66667V3.69792C16.0937 3.87661 16.1763 4.04267 16.3089 4.16365C16.4414 4.28463 16.6143 4.35182 16.7937 4.35209C16.8952 4.35224 16.9955 4.33019 17.0875 4.28751C17.1757 4.24748 17.2548 4.18988 17.32 4.11824Z" fill="#0067D1"/>
<path d="M10.3515 9.10423C10.2936 8.93788 10.2457 8.76744 10.2083 8.59376C10.1357 8.27535 10.1007 7.9495 10.1042 7.62292C10.101 7.49164 10.1027 7.36032 10.1092 7.22923H12.3708V9.10423H10.3515Z" fill="#0067D1"/>
<path d="M15.3521 11.9081C15.0524 11.9732 14.7449 12.0066 14.4344 12.0066C13.4459 12.0066 12.4873 11.6679 11.7183 11.0469C11.447 10.8277 11.205 10.578 10.9963 10.3042H15.3521V11.9081Z" fill="#0067D1"/>
<path d="M18.75 7.80231C18.7517 7.73448 18.7517 7.66661 18.75 7.59875V7.80231Z" fill="#0067D1"/>
<path d="M18.75 7.59624C18.7506 7.54896 18.7506 7.50173 18.75 7.45454V7.59624Z" fill="#0067D1"/>
<path d="M18.3333 9.10423V7.22923H13.5896V9.10423H18.3333Z" fill="#0067D1"/>
</svg>
