<svg width="20" height="20" viewBox="0 0 20 20" fill="none" xmlns="http://www.w3.org/2000/svg">
<path d="M1.66669 4.3396H12.3667V5.27148C12.0029 5.46845 11.6661 5.71833 11.3683 6.01615C10.5576 6.82686 10.1021 7.92641 10.1021 9.07292C10.1021 10.3036 11.2527 12.1819 12.3667 13.7121V15.6604H1.66669V4.3396Z" fill="white"/>
<path d="M12.2446 1.78871C12.1665 1.71057 12.0605 1.66667 11.95 1.66667H2.07083C1.96251 1.66992 1.85971 1.71525 1.78425 1.79304C1.7088 1.87083 1.66662 1.97496 1.66667 2.08333V17.9167C1.66928 18.0232 1.71264 18.1247 1.78782 18.2003C1.863 18.2759 1.96429 18.3197 2.07083 18.3229H11.95C12.0587 18.3229 12.1632 18.2805 12.241 18.2046C12.3189 18.1287 12.3639 18.0254 12.3667 17.9167V13.7121C12.5069 13.9047 12.6466 14.0919 12.7833 14.2715V17.9271C12.7806 18.1463 12.6916 18.3556 12.5356 18.5096C12.3796 18.6637 12.1692 18.75 11.95 18.75H2.07083C1.85199 18.7467 1.64323 18.6575 1.48964 18.5015C1.33605 18.3456 1.24998 18.1355 1.25 17.9167V2.08333C1.24998 1.86447 1.33605 1.65438 1.48964 1.49845C1.64323 1.34253 1.85199 1.25328 2.07083 1.25H11.95C12.171 1.25 12.383 1.3378 12.5393 1.49408C12.6955 1.65036 12.7833 1.86232 12.7833 2.08333V5.07386C12.6411 5.13224 12.502 5.19819 12.3667 5.27148V2.08333C12.3667 1.97283 12.3228 1.86685 12.2446 1.78871Z" fill="#3A424A"/>
<path d="M12.3667 15.6604H1.66669V17.9167C1.6693 18.0233 1.71266 18.1248 1.78784 18.2003C1.86302 18.2759 1.96431 18.3198 2.07085 18.3229H11.95C12.0587 18.323 12.1632 18.2805 12.241 18.2046C12.3189 18.1287 12.364 18.0254 12.3667 17.9167V15.6604Z" fill="#0067D1"/>
<path d="M1.66669 4.3396V2.08335C1.66664 1.97498 1.70882 1.87085 1.78427 1.79306C1.85973 1.71527 1.96253 1.66994 2.07085 1.66669H11.95C12.0605 1.66669 12.1665 1.71059 12.2446 1.78873C12.3228 1.86687 12.3667 1.97285 12.3667 2.08335V4.3396H1.66669Z" fill="#0067D1"/>
<path fill-rule="evenodd" clip-rule="evenodd" d="M14.425 16.2771C14.425 16.2771 18.75 11.4584 18.75 9.07295H18.7479C18.7479 7.92644 18.2925 6.82689 17.4818 6.01618C16.6711 5.20548 15.5715 4.75003 14.425 4.75003C13.2785 4.75003 12.179 5.20548 11.3683 6.01618C10.5576 6.82689 10.1021 7.92644 10.1021 9.07295C10.1021 11.4584 14.425 16.2771 14.425 16.2771ZM16.5855 9.07292C16.5855 10.2661 15.6182 11.2333 14.425 11.2333C13.2319 11.2333 12.2646 10.2661 12.2646 9.07292C12.2646 7.87976 13.2319 6.91251 14.425 6.91251C15.6182 6.91251 16.5855 7.87976 16.5855 9.07292Z" fill="#0067D1"/>
</svg>
