<svg width="20" height="20" viewBox="0 0 20 20" fill="none" xmlns="http://www.w3.org/2000/svg">
<path fill-rule="evenodd" clip-rule="evenodd" d="M9.99996 1.06671C5.05297 1.06671 1.04163 5.06574 1.04163 10C1.04163 14.9344 5.05297 18.9334 9.99996 18.9334C14.9469 18.9334 18.9583 14.9344 18.9583 10C18.9583 5.06574 14.9469 1.06671 9.99996 1.06671ZM8.4298 1.62695C6.01113 2.07501 3.9507 3.5392 2.7105 5.55838H5.0126C5.00428 5.6141 4.99996 5.67114 4.99996 5.72919C4.99996 5.81358 5.00908 5.89584 5.0264 5.97504H2.47053C1.87108 7.08753 1.51239 8.34815 1.46394 9.68754H5.34235C5.3608 8.66046 5.46987 7.6764 5.65525 6.765C5.77914 6.82378 5.91526 6.86099 6.05875 6.87176C5.88225 7.74711 5.77734 8.69491 5.75908 9.68754H9.03639C8.98596 9.81668 8.95828 9.95722 8.95828 10.1042H5.75653C5.76354 11.2514 5.88626 12.342 6.10186 13.3342C5.95796 13.3396 5.82085 13.3716 5.69528 13.4253C5.47236 12.4004 5.34687 11.2789 5.33985 10.1042H1.45892C1.47696 11.6052 1.88447 13.0128 2.58539 14.2313H5.02685C5.00924 14.3111 4.99996 14.3941 4.99996 14.4792C4.99996 14.5365 5.00417 14.5929 5.0123 14.648H2.84129C4.09279 16.5604 6.09427 17.9405 8.4298 18.3731C7.74479 17.9117 7.14571 17.1614 6.66652 16.2279C6.56408 16.0283 6.4666 15.8195 6.37443 15.6022C6.51413 15.5739 6.64461 15.5202 6.76083 15.4461C6.84828 15.6519 6.94052 15.8492 7.0372 16.0376C7.78073 17.486 8.75736 18.3514 9.79163 18.4543V14.648H7.27928C7.28741 14.5929 7.29163 14.5365 7.29163 14.4792C7.29163 14.3941 7.28234 14.3111 7.26474 14.2313H9.79163V11.2069C9.89096 11.235 9.99578 11.25 10.1041 11.25C10.1392 11.25 10.174 11.2484 10.2083 11.2453V14.2313H12.7352C12.7176 14.3111 12.7083 14.3941 12.7083 14.4792C12.7083 14.5365 12.7125 14.5929 12.7206 14.648H10.2083V18.4543C11.2426 18.3514 12.2192 17.486 12.9627 16.0376C13.0594 15.8492 13.1516 15.6519 13.2391 15.4461C13.3553 15.5202 13.4858 15.5739 13.6255 15.6022C13.5333 15.8195 13.4358 16.0283 13.3334 16.2279C12.8542 17.1614 12.2551 17.9117 11.5701 18.3731C13.9056 17.9405 15.9071 16.5604 17.1586 14.648H14.9876C14.9957 14.5929 15 14.5365 15 14.4792C15 14.3941 14.9907 14.3111 14.9731 14.2313H17.4145C18.1155 13.0128 18.523 11.6052 18.541 10.1042H14.6601C14.6531 11.2789 14.5276 12.4004 14.3046 13.4253C14.1791 13.3716 14.042 13.3396 13.8981 13.3342C14.1137 12.342 14.2364 11.2514 14.2434 10.1042H11.25C11.25 9.95722 11.2223 9.81668 11.1718 9.68754H14.2408C14.2226 8.69491 14.1177 7.74711 13.9412 6.87176C14.0847 6.86099 14.2208 6.82378 14.3447 6.765C14.5301 7.6764 14.6391 8.66046 14.6576 9.68754H18.536C18.4875 8.34815 18.1288 7.08753 17.5294 5.97504H14.9735C14.9908 5.89584 15 5.81358 15 5.72919C15 5.67114 14.9956 5.6141 14.9873 5.55838H17.2894C16.0492 3.5392 13.9888 2.07501 11.5701 1.62695C12.2551 2.0884 12.8542 2.83873 13.3334 3.77223C13.4661 4.03078 13.5905 4.30485 13.7059 4.59286C13.5635 4.61125 13.4294 4.65574 13.3084 4.72139C13.2008 4.45481 13.0853 4.20139 12.9627 3.96251C12.2192 2.51406 11.2426 1.64866 10.2083 1.54581V5.55838H12.7209C12.7126 5.6141 12.7083 5.67114 12.7083 5.72919C12.7083 5.81358 12.7174 5.89584 12.7347 5.97504H10.2083V8.96303C10.174 8.95994 10.1392 8.95836 10.1041 8.95836C9.99578 8.95836 9.89096 8.97339 9.79163 9.00148V5.97504H7.26519C7.2825 5.89584 7.29163 5.81358 7.29163 5.72919C7.29163 5.67114 7.28731 5.6141 7.27898 5.55838H9.79163V1.54581C8.75736 1.64866 7.78073 2.51406 7.0372 3.96251C6.91458 4.20139 6.79909 4.45481 6.69148 4.72139C6.5705 4.65574 6.43638 4.61125 6.29407 4.59286C6.40939 4.30485 6.5338 4.03078 6.66652 3.77223C7.14571 2.83873 7.74479 2.0884 8.4298 1.62695Z" fill="#3A424A"/>
<path d="M13.8542 6.87498C14.487 6.87498 15 6.36197 15 5.72915C15 5.09632 14.487 4.58331 13.8542 4.58331C13.2213 4.58331 12.7083 5.09632 12.7083 5.72915C12.7083 6.36197 13.2213 6.87498 13.8542 6.87498Z" fill="#0067D1"/>
<path d="M6.14583 6.87498C6.77866 6.87498 7.29167 6.36197 7.29167 5.72915C7.29167 5.09632 6.77866 4.58331 6.14583 4.58331C5.51301 4.58331 5 5.09632 5 5.72915C5 6.36197 5.51301 6.87498 6.14583 6.87498Z" fill="#0067D1"/>
<path d="M6.14583 15.625C6.77866 15.625 7.29167 15.112 7.29167 14.4791C7.29167 13.8463 6.77866 13.3333 6.14583 13.3333C5.51301 13.3333 5 13.8463 5 14.4791C5 15.112 5.51301 15.625 6.14583 15.625Z" fill="#0067D1"/>
<path d="M10.1042 11.25C10.737 11.25 11.25 10.737 11.25 10.1041C11.25 9.47132 10.737 8.95832 10.1042 8.95832C9.47133 8.95832 8.95833 9.47132 8.95833 10.1041C8.95833 10.737 9.47133 11.25 10.1042 11.25Z" fill="#0067D1"/>
<path d="M13.8542 15.625C14.487 15.625 15 15.112 15 14.4791C15 13.8463 14.487 13.3333 13.8542 13.3333C13.2213 13.3333 12.7083 13.8463 12.7083 14.4791C12.7083 15.112 13.2213 15.625 13.8542 15.625Z" fill="#0067D1"/>
</svg>
