<svg width="20" height="20" viewBox="0 0 20 20" fill="none" xmlns="http://www.w3.org/2000/svg">
<path d="M17.2378 13.817C16.8319 13.5461 16.3547 13.4017 15.8666 13.4021C15.2133 13.4032 14.5871 13.6632 14.1251 14.1252C13.6632 14.5871 13.4032 15.2134 13.402 15.8667C13.4016 16.3547 13.546 16.8319 13.8169 17.2379C14.0878 17.6438 14.473 17.9603 14.9238 18.1473C15.3746 18.3342 15.8707 18.3833 16.3494 18.2881C16.8281 18.193 17.2678 17.9581 17.6129 17.613C17.958 17.2679 18.193 16.8282 18.2881 16.3495C18.3832 15.8708 18.3342 15.3747 18.1472 14.9239C17.9603 14.4731 17.6438 14.0878 17.2378 13.817Z" fill="white"/>
<path d="M9.99996 10.8334C10.4602 10.8334 10.8333 10.4603 10.8333 10C10.8333 9.53978 10.4602 9.16669 9.99996 9.16669C9.53972 9.16669 9.16663 9.53978 9.16663 10C9.16663 10.4603 9.53972 10.8334 9.99996 10.8334Z" fill="white"/>
<path d="M15.8666 13.4021C16.3547 13.4017 16.8319 13.5461 17.2378 13.8169C17.6438 14.0878 17.9603 14.473 18.1472 14.9239C18.3342 15.3747 18.3832 15.8708 18.2881 16.3495C18.193 16.8282 17.958 17.2679 17.6129 17.613C17.2678 17.9581 16.8281 18.193 16.3494 18.2881C15.8707 18.3833 15.3746 18.3342 14.9238 18.1473C14.473 17.9603 14.0878 17.6438 13.8169 17.2379C13.546 16.8319 13.4016 16.3547 13.402 15.8667C13.4031 15.2134 13.6632 14.5871 14.1251 14.1252C14.5871 13.6632 15.2133 13.4032 15.8666 13.4021ZM15.8666 12.9854C15.2963 12.9854 14.7387 13.1546 14.2645 13.4715C13.7903 13.7884 13.4207 14.2389 13.2026 14.7658C12.9844 15.2928 12.9274 15.8727 13.0388 16.432C13.1503 16.9914 13.4251 17.5052 13.8285 17.9083C14.232 18.3115 14.7459 18.5859 15.3054 18.697C15.8648 18.808 16.4447 18.7506 16.9715 18.532C17.4983 18.3135 17.9485 17.9436 18.265 17.4691C18.5816 16.9947 18.7504 16.437 18.75 15.8667C18.75 15.4881 18.6754 15.1133 18.5304 14.7636C18.3855 14.4139 18.1731 14.0962 17.9053 13.8286C17.6376 13.561 17.3197 13.3488 16.9699 13.2042C16.6201 13.0595 16.2452 12.9852 15.8666 12.9854Z" fill="#3A424A"/>
<path d="M17.2666 16.2334L17.5708 15.95L15.8687 14.1188L14.1645 15.95L14.4687 16.2334L15.6583 14.9553V17.6167H16.075V14.9511L17.2666 16.2334Z" fill="#3A424A"/>
<path d="M10.5932 10.5852L13.1876 12.3352L13.4206 11.9898L10.8028 10.224C10.7644 10.3622 10.6912 10.486 10.5932 10.5852Z" fill="#3A424A"/>
<path d="M9.89371 2.90202C8.53623 2.92233 7.21219 3.33147 6.0791 4.08202C5.74519 4.3032 5.43212 4.55121 5.14256 4.82282L5.81789 5.49623L5.52369 5.79128L4.84716 5.11668C4.26572 5.73005 3.79545 6.4455 3.4624 7.23165C3.11701 8.04695 2.92892 8.91536 2.90304 9.79167H3.86662V10.2083H2.90296C2.91363 10.574 2.9526 10.9398 3.02021 11.3025C3.2627 12.6031 3.86348 13.8087 4.7529 14.7844L5.6843 13.8315L5.98226 14.1227L4.74925 15.3842L4.60029 15.2304C3.5732 14.1698 2.88119 12.8302 2.6106 11.3789C2.34001 9.92747 2.50284 8.42855 3.07875 7.06912C3.65466 5.70969 4.61816 4.54996 5.84901 3.73465C7.07986 2.91934 8.52356 2.48456 9.99995 2.48456C11.4763 2.48456 12.92 2.91934 14.1509 3.73465C15.3817 4.54996 16.3452 5.70969 16.9211 7.06912C17.4971 8.42855 17.6599 9.92747 17.3893 11.3789C17.2748 11.9932 17.0847 12.5875 16.8257 13.149C16.6924 13.1021 16.556 13.0651 16.4176 13.0382C16.6775 12.4891 16.8672 11.906 16.9797 11.3025C17.0476 10.9383 17.0866 10.571 17.0971 10.2038C17.097 10.2053 17.097 10.2068 17.0969 10.2083H16.1854V9.79167H17.0969C17.071 8.91536 16.8829 8.04695 16.5375 7.23165C16.2035 6.44325 15.7315 5.72596 15.1477 5.11142L14.4681 5.79107L14.1735 5.49644L14.852 4.81787C14.564 4.5482 14.2527 4.30185 13.9208 4.08202C12.8446 3.36916 11.5961 2.96427 10.3104 2.90801V3.72084H9.89371V2.90202Z" fill="#3A424A"/>
<path fill-rule="evenodd" clip-rule="evenodd" d="M13.8031 17.8825C12.6531 18.4384 11.3629 18.75 10 18.75C5.16751 18.75 1.25 14.8325 1.25 10C1.25 5.16751 5.16751 1.25 10 1.25C14.8325 1.25 18.75 5.16751 18.75 10C18.75 11.3637 18.438 12.6546 17.8816 13.8051C17.6188 13.5486 17.3094 13.3446 16.9699 13.2042C16.9223 13.1845 16.8743 13.1661 16.8258 13.149C17.0848 12.5874 17.2748 11.9932 17.3893 11.3788C17.6599 9.92745 17.4971 8.42853 16.9212 7.0691C16.3453 5.70967 15.3818 4.54994 14.1509 3.73463C12.9201 2.91932 11.4764 2.48454 9.99999 2.48454C8.5236 2.48454 7.0799 2.91932 5.84905 3.73463C4.6182 4.54994 3.6547 5.70967 3.07879 7.0691C2.50288 8.42853 2.34006 9.92745 2.61064 11.3788C2.88123 12.8302 3.57324 14.1698 4.60033 15.2304L4.74929 15.3842L5.98231 14.1227L5.68434 13.8315L4.75294 14.7844C3.86352 13.8087 3.26274 12.6031 3.02025 11.3025C2.95264 10.9398 2.91367 10.574 2.903 10.2083H3.86666V9.79165H2.90308C2.92896 8.91534 3.11705 8.04692 3.46245 7.23163C3.79549 6.44548 4.26576 5.73003 4.8472 5.11666L5.52373 5.79126L5.81793 5.49621L5.1426 4.8228C5.43216 4.55119 5.74523 4.30318 6.07914 4.082C7.21223 3.33145 8.53627 2.92231 9.89375 2.902V3.72082H10.3104V2.90799C11.5962 2.96425 12.8446 3.36913 13.9208 4.082C14.2527 4.30183 14.564 4.54818 14.8521 4.81785L14.1735 5.49642L14.4681 5.79105L15.1478 5.1114C15.7315 5.72594 16.2035 6.44323 16.5375 7.23163C16.8829 8.04693 17.071 8.91534 17.0969 9.79165H16.1854V10.2083H17.097L17.0971 10.2038C17.0866 10.571 17.0476 10.9383 16.9797 11.3025C16.8672 11.906 16.6775 12.4891 16.4177 13.0382C16.2366 13.0031 16.052 12.9853 15.8667 12.9854C15.2963 12.9854 14.7388 13.1546 14.2645 13.4715C13.7903 13.7884 13.4208 14.2389 13.2026 14.7658C12.9844 15.2928 12.9275 15.8727 13.0389 16.432C13.1479 16.9795 13.4135 17.4834 13.8031 17.8825ZM10.8029 10.224C10.8227 10.1527 10.8333 10.0776 10.8333 10C10.8333 9.53976 10.4602 9.16667 10 9.16667C9.53976 9.16667 9.16667 9.53976 9.16667 10C9.16667 10.4602 9.53976 10.8333 10 10.8333C10.2322 10.8333 10.4421 10.7384 10.5933 10.5852L13.1877 12.3352L13.4207 11.9898L10.8029 10.224Z" fill="#0067D1"/>
</svg>
