<svg width="20" height="20" viewBox="0 0 20 20" fill="none" xmlns="http://www.w3.org/2000/svg">
<path d="M9.9045 10.1021L9.99588 10.195L10.0903 10.1021H9.9045Z" fill="#3A424A"/>
<path d="M10.117 10.1021L10.1811 10.1686L10.25 10.1021H10.117Z" fill="#3A424A"/>
<path d="M15.6562 15.6027L15.4836 15.7726L15.6562 15.9481V15.6027Z" fill="#3A424A"/>
<path d="M11.6962 15.5292L11.618 15.2106L11.2134 15.3098L11.2672 15.5292H11.6962Z" fill="#3A424A"/>
<path d="M4.27809 15.5354H4.01697L4.15224 15.4049L4.27809 15.5354Z" fill="#3A424A"/>
<path d="M10.1091 10.8082L10.0087 10.3989L10.4133 10.2996L10.4257 10.3499L10.5817 10.1963L10.8705 10.4899L10.5735 10.7821L10.5039 10.7113L10.1091 10.8082Z" fill="#3A424A"/>
<path d="M10.3098 11.6266L10.2095 11.2174L10.6141 11.1181L10.7145 11.5274L10.3098 11.6266Z" fill="#3A424A"/>
<path d="M10.5106 12.4451L10.4102 12.0359L10.8149 11.9366L10.9153 12.3459L10.5106 12.4451Z" fill="#3A424A"/>
<path d="M10.7114 13.2636L10.611 12.8544L11.0157 12.7551L11.1161 13.1644L10.7114 13.2636Z" fill="#3A424A"/>
<path d="M10.9122 14.0821L10.8118 13.6729L11.2165 13.5736L11.3169 13.9828L10.9122 14.0821Z" fill="#3A424A"/>
<path d="M11.113 14.9006L11.0126 14.4914L11.4172 14.3921L11.5176 14.8013L11.113 14.9006Z" fill="#3A424A"/>
<path d="M9.57692 10.7513L9.87901 10.4599L9.58974 10.1601L9.28765 10.4514L9.57692 10.7513Z" fill="#3A424A"/>
<path d="M8.97276 11.3341L9.27484 11.0427L8.98557 10.7428L8.68349 11.0342L8.97276 11.3341Z" fill="#3A424A"/>
<path d="M8.36859 11.9169L8.67067 11.6255L8.3814 11.3256L8.07932 11.617L8.36859 11.9169Z" fill="#3A424A"/>
<path d="M7.76442 12.4996L8.06651 12.2082L7.77724 11.9084L7.47515 12.1997L7.76442 12.4996Z" fill="#3A424A"/>
<path d="M7.16026 13.0824L7.46234 12.791L7.17307 12.4911L6.87099 12.7825L7.16026 13.0824Z" fill="#3A424A"/>
<path d="M6.55609 13.6652L6.85817 13.3738L6.5689 13.0739L6.26682 13.3653L6.55609 13.6652Z" fill="#3A424A"/>
<path d="M5.95192 14.2479L6.25401 13.9565L5.96474 13.6566L5.66265 13.948L5.95192 14.2479Z" fill="#3A424A"/>
<path d="M5.34776 14.8307L5.64984 14.5393L5.36057 14.2394L5.05849 14.5308L5.34776 14.8307Z" fill="#3A424A"/>
<path d="M4.74359 15.4135L5.04567 15.1221L4.7564 14.8222L4.45432 15.1136L4.74359 15.4135Z" fill="#3A424A"/>
<path d="M10.8624 11.0757L11.1512 11.3692L11.4482 11.077L11.1594 10.7834L10.8624 11.0757Z" fill="#3A424A"/>
<path d="M11.44 11.6628L11.7288 11.9563L12.0259 11.6641L11.737 11.3705L11.44 11.6628Z" fill="#3A424A"/>
<path d="M12.0177 12.2499L12.3065 12.5435L12.6035 12.2512L12.3147 11.9577L12.0177 12.2499Z" fill="#3A424A"/>
<path d="M12.5953 12.837L12.8841 13.1306L13.1812 12.8384L12.8923 12.5448L12.5953 12.837Z" fill="#3A424A"/>
<path d="M13.173 13.4241L13.4618 13.7177L13.7588 13.4255L13.47 13.1319L13.173 13.4241Z" fill="#3A424A"/>
<path d="M13.7506 14.0113L14.0394 14.3048L14.3365 14.0126L14.0476 13.719L13.7506 14.0113Z" fill="#3A424A"/>
<path d="M14.3283 14.5984L14.6171 14.8919L14.9141 14.5997L14.6253 14.3062L14.3283 14.5984Z" fill="#3A424A"/>
<path d="M14.9059 15.1855L15.1947 15.4791L15.4918 15.1868L15.2029 14.8933L14.9059 15.1855Z" fill="#3A424A"/>
<path d="M15.0937 4.66459L18.3333 7.80209V9.27918C18.3306 9.38787 18.2855 9.49119 18.2077 9.56709C18.1298 9.64299 18.0254 9.68546 17.9167 9.68543H5.69167L8.95833 6.72084L10.3625 8.08126C10.5173 8.22778 10.7223 8.30944 10.9354 8.30944C11.1485 8.30944 11.3536 8.22778 11.5083 8.08126L15.0937 4.66459ZM15.0937 4.24793C14.9885 4.24829 14.8873 4.28848 14.8104 4.36043L11.2125 7.77501C11.1353 7.84706 11.0337 7.88714 10.9281 7.88714C10.8226 7.88714 10.7209 7.84706 10.6438 7.77501L9.23958 6.41459C9.16295 6.34389 9.0626 6.3045 8.95833 6.30418C8.85556 6.30374 8.75648 6.34248 8.68125 6.41251L4.61875 10.1021H17.9271C18.1463 10.1021 18.3567 10.0157 18.5127 9.86171C18.6687 9.70767 18.7577 9.49838 18.7604 9.27918V7.62501L15.3813 4.36251C15.3037 4.28882 15.2007 4.24779 15.0937 4.24793Z" fill="#3A424A"/>
<path fill-rule="evenodd" clip-rule="evenodd" d="M17.9375 1.35205H2.08334C1.86412 1.35203 1.65373 1.4384 1.49774 1.59243C1.34176 1.74647 1.25275 1.95576 1.25001 2.17497V9.27913C1.25275 9.49834 1.34176 9.70763 1.49774 9.86167C1.65373 10.0157 1.86412 10.1021 2.08334 10.1021H4.61878L8.68127 6.41247C8.7565 6.34245 8.85558 6.30371 8.95835 6.30414C9.06262 6.30446 9.16297 6.34386 9.2396 6.41456L10.6438 7.77497C10.7209 7.84703 10.8226 7.8871 10.9281 7.8871C11.0337 7.8871 11.1354 7.84703 11.2125 7.77497L14.8104 4.36039C14.8873 4.28845 14.9885 4.24825 15.0938 4.24789C15.2008 4.24776 15.3037 4.28878 15.3813 4.36247L18.7604 7.62497V9.27914C18.7603 9.29045 18.7599 9.30173 18.7593 9.31297C18.767 9.26468 18.7708 9.21575 18.7708 9.16663V2.17497C18.7681 1.95576 18.6791 1.74647 18.5231 1.59243C18.3671 1.4384 18.1567 1.35203 17.9375 1.35205ZM4.85346 5.66021C4.65021 5.79614 4.41119 5.86871 4.16667 5.86871C3.83991 5.86816 3.52662 5.7384 3.29518 5.50773C3.06373 5.27706 2.93291 4.96422 2.93126 4.63746C2.93043 4.39294 3.00219 4.15368 3.13743 3.94996C3.27268 3.74625 3.46534 3.58726 3.69101 3.49311C3.91667 3.39897 4.16521 3.37391 4.40513 3.42111C4.64505 3.4683 4.86557 3.58564 5.03876 3.75824C5.21195 3.93085 5.33003 4.15098 5.37804 4.39074C5.42605 4.6305 5.40182 4.87911 5.30844 5.1051C5.21506 5.33108 5.05672 5.52427 4.85346 5.66021Z" fill="#0067D1"/>
<path d="M18.4962 12.5518C18.4447 12.5299 18.3893 12.5187 18.3333 12.5187H16.0729C16.017 12.5187 15.9616 12.5299 15.91 12.5518C15.8585 12.5736 15.8119 12.6056 15.773 12.6459C15.7341 12.6861 15.7038 12.7338 15.6837 12.786C15.6636 12.8383 15.6543 12.894 15.6563 12.95V18.3375C15.6543 18.3934 15.6636 18.4492 15.6837 18.5014C15.7038 18.5536 15.7341 18.6013 15.773 18.6416C15.8119 18.6818 15.8585 18.7138 15.91 18.7357C15.9616 18.7575 16.017 18.7688 16.0729 18.7687H18.3333C18.3893 18.7688 18.4447 18.7575 18.4962 18.7357C18.5478 18.7138 18.5944 18.6818 18.6333 18.6416C18.6721 18.6013 18.7025 18.5536 18.7226 18.5014C18.7426 18.4492 18.752 18.3934 18.75 18.3375V12.95C18.752 12.894 18.7426 12.8383 18.7226 12.786C18.7025 12.7338 18.6721 12.6861 18.6333 12.6459C18.5944 12.6056 18.5478 12.5736 18.4962 12.5518Z" fill="#0067D1"/>
<path d="M12.9622 15.7965C12.9421 15.7442 12.9117 15.6965 12.8728 15.6563C12.8339 15.616 12.7873 15.584 12.7358 15.5622C12.6843 15.5403 12.6289 15.5291 12.5729 15.5291H10.3167C10.2607 15.5291 10.2053 15.5403 10.1538 15.5622C10.1023 15.584 10.0557 15.616 10.0168 15.6563C9.97788 15.6965 9.9475 15.7442 9.92744 15.7965C9.90738 15.8487 9.89805 15.9045 9.90001 15.9604V18.3375C9.89805 18.3934 9.90738 18.4492 9.92744 18.5014C9.9475 18.5536 9.97788 18.6013 10.0168 18.6416C10.0557 18.6818 10.1023 18.7138 10.1538 18.7357C10.2053 18.7575 10.2607 18.7688 10.3167 18.7687H12.5729C12.6289 18.7688 12.6843 18.7575 12.7358 18.7357C12.7873 18.7138 12.8339 18.6818 12.8728 18.6416C12.9117 18.6013 12.9421 18.5536 12.9622 18.5014C12.9822 18.4492 12.9916 18.3934 12.9896 18.3375V15.9604C12.9916 15.9045 12.9822 15.8487 12.9622 15.7965Z" fill="#0067D1"/>
<path d="M7.22084 15.9666V18.3375C7.2228 18.3934 7.21347 18.4492 7.19341 18.5014C7.17335 18.5536 7.14297 18.6013 7.10408 18.6416C7.0652 18.6818 7.0186 18.7138 6.96707 18.7357C6.91554 18.7575 6.86014 18.7688 6.80418 18.7687H1.66668C1.61071 18.7688 1.55531 18.7575 1.50378 18.7357C1.45226 18.7138 1.40566 18.6818 1.36677 18.6416C1.32788 18.6013 1.2975 18.5536 1.27744 18.5014C1.25738 18.4492 1.24805 18.3934 1.25001 18.3375V15.9666C1.24805 15.9107 1.25738 15.8549 1.27744 15.8027C1.2975 15.7505 1.32788 15.7028 1.36677 15.6625C1.40566 15.6223 1.45226 15.5903 1.50378 15.5684C1.55531 15.5466 1.61071 15.5353 1.66668 15.5354H6.81251C6.86777 15.5365 6.92227 15.5485 6.97283 15.5708C7.02338 15.5932 7.06899 15.6254 7.10699 15.6655C7.145 15.7056 7.17463 15.7529 7.19418 15.8046C7.21373 15.8563 7.22279 15.9114 7.22084 15.9666Z" fill="#0067D1"/>
<path d="M18.3334 7.80211L15.0938 4.66461L11.5084 8.08127C11.3536 8.2278 11.1486 8.30945 10.9355 8.30945C10.7223 8.30945 10.5173 8.2278 10.3625 8.08127L8.95838 6.72086L5.69171 9.68544H17.9167C18.0254 9.68547 18.1299 9.64301 18.2077 9.56711C18.2856 9.49121 18.3307 9.38788 18.3334 9.27919V7.80211Z" fill="white"/>
<path d="M4.1667 5.86878C4.41122 5.86878 4.65024 5.79622 4.85349 5.66028C5.05674 5.52435 5.21509 5.33116 5.30847 5.10517C5.40185 4.87919 5.42607 4.63057 5.37806 4.39081C5.33006 4.15105 5.21198 3.93093 5.03879 3.75832C4.86559 3.58571 4.64507 3.46838 4.40515 3.42118C4.16523 3.37398 3.9167 3.39905 3.69103 3.49319C3.46536 3.58734 3.27271 3.74633 3.13746 3.95004C3.00221 4.15375 2.93046 4.39302 2.93128 4.63753C2.93293 4.96429 3.06375 5.27714 3.2952 5.50781C3.52665 5.73847 3.83993 5.86824 4.1667 5.86878Z" fill="white"/>
</svg>
