<svg width="20" height="20" viewBox="0 0 20 20" fill="none" xmlns="http://www.w3.org/2000/svg">
<path d="M11.7042 2.56252L11.4 2.84585L10.2083 1.56551V15H9.79164V1.56587L8.60207 2.84585L8.29582 2.56252L9.99998 0.729187L11.7042 2.56252Z" fill="#3A424A"/>
<path d="M14.6208 7.56252L14.3167 7.84585L13.125 6.56549V17.8958H12.7083V6.56586L11.5187 7.84585L11.2125 7.56252L12.9167 5.72919L14.6208 7.56252Z" fill="#3A424A"/>
<path d="M8.48332 7.84585L8.78748 7.56252L7.08332 5.72919L5.37915 7.56252L5.6854 7.84585L6.87497 6.56586V17.8958H7.29164V6.56549L8.48332 7.84585Z" fill="#3A424A"/>
<path d="M9.79171 3.33332H4.27296C4.14985 3.33304 4.02788 3.35702 3.91403 3.40388C3.80019 3.45074 3.69668 3.51957 3.60944 3.60643C3.52219 3.69329 3.4529 3.79649 3.40554 3.91012C3.35817 4.02376 3.33365 4.14562 3.33338 4.26873V15.7271C3.3331 15.8502 3.35708 15.9721 3.40394 16.086C3.4508 16.1998 3.51963 16.3033 3.60649 16.3906C3.69335 16.4778 3.79655 16.5471 3.91019 16.5945C4.02382 16.6419 4.14568 16.6664 4.26879 16.6666H6.87504V6.56582L5.68547 7.84581L5.37922 7.56248L7.08339 5.72915L8.78755 7.56248L8.48339 7.84581L7.29171 6.56545V16.6666H12.7084V6.56582L11.5188 7.84581L11.2126 7.56248L12.9167 5.72915L14.6209 7.56248L14.3167 7.84581L13.125 6.56545V16.6666H15.7271C15.8502 16.6669 15.9722 16.6429 16.0861 16.5961C16.1999 16.5492 16.3034 16.4804 16.3907 16.3935C16.4779 16.3067 16.5472 16.2035 16.5946 16.0898C16.6419 15.9762 16.6664 15.8543 16.6667 15.7312V4.2729C16.667 4.14978 16.643 4.02782 16.5961 3.91397C16.5493 3.80013 16.4805 3.69662 16.3936 3.60938C16.3067 3.52213 16.2035 3.45284 16.0899 3.40548C15.9763 3.35811 15.8544 3.33359 15.7313 3.33332H10.2084V15H9.79171V3.33332Z" fill="#0067D1"/>
</svg>
