<svg width="20" height="20" viewBox="0 0 20 20" fill="none" xmlns="http://www.w3.org/2000/svg">
<path d="M15.9708 18.8167C17.5425 18.8167 18.8167 17.5425 18.8167 15.9708C18.8167 14.3991 17.5425 13.125 15.9708 13.125C14.3991 13.125 13.125 14.3991 13.125 15.9708C13.125 17.5425 14.3991 18.8167 15.9708 18.8167Z" fill="#0067D1"/>
<path fill-rule="evenodd" clip-rule="evenodd" d="M14.0268 1.58763C13.3332 1.58765 12.6493 1.74957 12.0293 2.0605C11.4094 2.37143 10.8706 2.82278 10.4558 3.37863C10.041 3.93448 9.76174 4.57948 9.64017 5.26228C9.53018 5.87998 9.55202 6.5132 9.70335 7.12056C9.00804 6.83706 8.26298 6.69044 7.50925 6.69042L7.51579 6.68606C6.45636 6.68493 5.41678 6.9734 4.50942 7.52029C3.60206 8.06719 2.86145 8.8517 2.36766 9.78901C1.87386 10.7263 1.64567 11.7808 1.70774 12.8384C1.76981 13.896 2.11979 14.9165 2.71984 15.7896L2.84628 15.9728L2.76998 16.1907L2.17921 17.8388L3.97769 17.32L4.16953 17.2633L4.33739 17.3723C5.09542 17.866 5.95824 18.1759 6.85715 18.2774C7.75607 18.3788 8.66626 18.2691 9.51527 17.9568C10.3643 17.6445 11.1287 17.1384 11.7476 16.4786C12.3666 15.8189 12.823 15.0238 13.0805 14.1566C13.338 13.2894 13.3895 12.3741 13.2309 11.4834C13.1621 11.0968 13.0545 10.7195 12.9105 10.3569C13.4365 10.4931 13.9843 10.5322 14.5267 10.471C15.2159 10.3932 15.8774 10.1556 16.4585 9.77707L16.5872 9.69351L16.7343 9.73696L18.1131 10.1347L17.6602 8.87122L17.6017 8.70409L17.6986 8.5637C18.1587 7.89431 18.427 7.11191 18.4746 6.30108C18.5222 5.49024 18.3472 4.68183 17.9687 3.96322C17.5901 3.24461 17.0223 2.64316 16.3266 2.22387C15.631 1.80459 14.834 1.58342 14.0218 1.58429L14.0268 1.58763ZM4.06272 14.5469H11.3874V14.9829H4.06272V14.5469ZM11.3874 12.3561H4.06272V12.7921H11.3874V12.3561ZM4.06272 10.1653H11.3874V10.6013H4.06272V10.1653Z" fill="white"/>
<path d="M15.9709 15.7003C15.8214 15.7003 15.7003 15.8214 15.7003 15.9709C15.7003 16.1203 15.8214 16.2415 15.9709 16.2415C16.1203 16.2415 16.2415 16.1203 16.2415 15.9709C16.2415 15.8214 16.1203 15.7003 15.9709 15.7003Z" fill="white"/>
<path fill-rule="evenodd" clip-rule="evenodd" d="M15.9709 13.4913C14.6015 13.4913 13.4913 14.6015 13.4913 15.9709C13.4913 17.3403 14.6015 18.4504 15.9709 18.4504C17.3403 18.4504 18.4504 17.3403 18.4504 15.9709C18.4504 14.6015 17.3403 13.4913 15.9709 13.4913ZM13.6971 15.9709C13.6971 14.7151 14.7151 13.6971 15.9709 13.6971C17.2267 13.6971 18.2447 14.7151 18.2447 15.9709C18.2447 17.2267 17.2267 18.2447 15.9709 18.2447C14.7151 18.2447 13.6971 17.2267 13.6971 15.9709Z" fill="white"/>
<path d="M15.3157 6.09681C15.3157 6.46603 15.615 6.76534 15.9842 6.76534C16.3534 6.76534 16.6527 6.46603 16.6527 6.09681C16.6527 5.72759 16.3534 5.42828 15.9842 5.42828C15.615 5.42828 15.3157 5.72759 15.3157 6.09681Z" fill="#3A424A"/>
<path d="M13.3101 6.09681C13.3101 6.46603 13.6094 6.76534 13.9786 6.76534C14.3478 6.76534 14.6471 6.46603 14.6471 6.09681C14.6471 5.72759 14.3478 5.42828 13.9786 5.42828C13.6094 5.42828 13.3101 5.72759 13.3101 6.09681Z" fill="#3A424A"/>
<path d="M11.3045 6.09681C11.3045 6.46603 11.6038 6.76534 11.973 6.76534C12.3422 6.76534 12.6416 6.46603 12.6416 6.09681C12.6416 5.72759 12.3422 5.42828 11.973 5.42828C11.6038 5.42828 11.3045 5.72759 11.3045 6.09681Z" fill="#3A424A"/>
<path d="M11.3874 14.5469H4.06265V14.9829H11.3874V14.5469Z" fill="#3A424A"/>
<path d="M4.06265 12.3561H11.3874V12.7921H4.06265V12.3561Z" fill="#3A424A"/>
<path d="M11.3874 10.1652H4.06265V10.6012H11.3874V10.1652Z" fill="#3A424A"/>
<path fill-rule="evenodd" clip-rule="evenodd" d="M14.5675 10.8029C14.2184 10.8424 13.8672 10.8433 13.5202 10.8063C13.5761 11.0044 13.6222 11.2055 13.6584 11.4091C13.8285 12.3666 13.7728 13.3506 13.4957 14.2828C13.2185 15.2149 12.7276 16.0695 12.0619 16.7785C11.3963 17.4876 10.5744 18.0314 9.66151 18.3667C8.74866 18.7021 7.77013 18.8198 6.80381 18.7103C5.83749 18.6009 4.91006 18.2673 4.09534 17.7363L1.47937 18.4928L2.35136 16.0403C1.70485 15.101 1.32769 14.0028 1.26077 12.8645C1.19385 11.7262 1.43971 10.5913 1.97171 9.58279C2.50371 8.57426 3.30157 7.73054 4.27883 7.14307C5.25609 6.55559 6.37548 6.24676 7.51572 6.25003L7.50918 6.25439C8.10392 6.2546 8.69361 6.33971 9.26078 6.50559C9.21887 6.07325 9.23581 5.63579 9.31231 5.20531C9.44275 4.47123 9.74276 3.77773 10.1884 3.18002C10.6341 2.58232 11.2132 2.0969 11.8795 1.76242C12.5459 1.42794 13.2811 1.25363 14.0267 1.25336L14.0217 1.25002C14.8959 1.24751 15.7541 1.48429 16.5033 1.93469C17.2525 2.38508 17.8642 3.03193 18.2721 3.80514C18.68 4.57835 18.8685 5.44843 18.8172 6.32112C18.7658 7.1938 18.4767 8.0358 17.981 8.75589L18.6496 10.6361L16.644 10.0562C16.0194 10.4633 15.3083 10.719 14.5675 10.8029ZM12.0293 2.06049C12.6492 1.74956 13.3332 1.58765 14.0267 1.58763L14.0217 1.58428C14.8339 1.58341 15.6309 1.80458 16.3266 2.22386C17.0222 2.64315 17.59 3.2446 17.9686 3.96321C18.3472 4.68182 18.5221 5.49023 18.4745 6.30107C18.4269 7.1119 18.1586 7.8943 17.6986 8.56369L17.6016 8.70408L17.6601 8.87121L18.1131 10.1347L16.7342 9.73695L16.5872 9.6935L16.4585 9.77706C15.8773 10.1556 15.2158 10.3932 14.5266 10.4709C14.1541 10.513 13.7791 10.5077 13.4103 10.4562C13.201 9.85256 12.8998 9.2827 12.5156 8.76742C11.9343 7.9878 11.179 7.35465 10.3098 6.91837C10.0817 6.80388 9.84746 6.70378 9.60837 6.61839C9.54985 6.16875 9.56013 5.71141 9.6401 5.26227C9.76168 4.57947 10.041 3.93447 10.4557 3.37862C10.8705 2.82277 11.4093 2.37142 12.0293 2.06049ZM10.1146 7.30716C9.30593 6.9016 8.41381 6.69041 7.50918 6.69038L7.51572 6.68602C6.4563 6.68489 5.41671 6.97336 4.50935 7.52025C3.602 8.06715 2.86139 8.85166 2.36759 9.78897C1.8738 10.7263 1.6456 11.7807 1.70767 12.8383C1.76975 13.896 2.11973 14.9165 2.71978 15.7896L2.84622 15.9727L2.76992 16.1907L2.17915 17.8388L3.97763 17.3199L4.16946 17.2633L4.33732 17.3723C5.09536 17.8659 5.95817 18.1758 6.85709 18.2773C7.756 18.3788 8.66619 18.269 9.51521 17.9568C10.3642 17.6445 11.1286 17.1383 11.7476 16.4786C12.3665 15.8189 12.8229 15.0237 13.0804 14.1565C13.3379 13.2894 13.3894 12.374 13.2308 11.4834C13.0723 10.5928 12.708 9.75148 12.167 9.02646C11.626 8.30144 10.9232 7.71272 10.1146 7.30716Z" fill="#3A424A"/>
<path d="M15.9708 15.7003C15.9344 15.7003 15.8997 15.7075 15.868 15.7205L15.868 14.3298H16.0737L16.0737 15.7205C16.042 15.7075 16.0073 15.7003 15.9708 15.7003Z" fill="#3A424A"/>
<path d="M16.0758 16.2203C16.1413 16.1927 16.1937 16.1401 16.2209 16.0744L16.948 16.8015L16.8025 16.947L16.0758 16.2203Z" fill="#3A424A"/>
</svg>
