<svg width="20" height="20" viewBox="0 0 20 20" fill="none" xmlns="http://www.w3.org/2000/svg">
<path d="M6.56043 4.5708C6.56043 3.8885 6.00732 3.33539 5.32502 3.33539C4.64271 3.33539 4.0896 3.8885 4.0896 4.5708C4.0896 5.25311 4.64271 5.80622 5.32502 5.80622C6.00732 5.80622 6.56043 5.25311 6.56043 4.5708Z" fill="#0067D1"/>
<path d="M6.56043 8.19164C6.56043 7.50934 6.00732 6.95622 5.32502 6.95622C4.64271 6.95622 4.0896 7.50934 4.0896 8.19164C4.0896 8.87394 4.64271 9.42705 5.32502 9.42705C6.00732 9.42705 6.56043 8.87394 6.56043 8.19164Z" fill="#0067D1"/>
<path d="M6.5646 11.8104C6.5646 11.1281 6.01148 10.575 5.32918 10.575C4.64688 10.575 4.09377 11.1281 4.09377 11.8104C4.09377 12.4927 4.64688 13.0458 5.32918 13.0458C6.01148 13.0458 6.5646 12.4927 6.5646 11.8104Z" fill="#0067D1"/>
<path d="M6.5646 15.4291C6.5646 14.7468 6.01148 14.1937 5.32918 14.1937C4.64688 14.1937 4.09377 14.7468 4.09377 15.4291C4.09377 16.1114 4.64688 16.6646 5.32918 16.6646C6.01148 16.6646 6.5646 16.1114 6.5646 15.4291Z" fill="#0067D1"/>
<path fill-rule="evenodd" clip-rule="evenodd" d="M16.9959 18.3333V1.66667H3.00421V18.3333H16.9959ZM15.8667 8.39583H6.99378V7.97916H15.8667V8.39583ZM6.99378 12.0187H15.8667V11.6021H6.99378V12.0187ZM15.8667 15.6375H6.99378V15.2208H15.8667V15.6375ZM5.32504 3.33542C6.00734 3.33542 6.56046 3.88853 6.56046 4.57084C6.56046 5.25314 6.00734 5.80625 5.32504 5.80625C4.64274 5.80625 4.08963 5.25314 4.08963 4.57084C4.08963 3.88853 4.64274 3.33542 5.32504 3.33542ZM5.32504 6.95625C6.00734 6.95625 6.56046 7.50937 6.56046 8.19167C6.56046 8.87397 6.00734 9.42708 5.32504 9.42708C4.64274 9.42708 4.08963 8.87397 4.08963 8.19167C4.08963 7.50937 4.64274 6.95625 5.32504 6.95625ZM6.56463 11.8104C6.56463 11.1281 6.01151 10.575 5.32921 10.575C4.64691 10.575 4.09379 11.1281 4.09379 11.8104C4.09379 12.4927 4.64691 13.0458 5.32921 13.0458C6.01151 13.0458 6.56463 12.4927 6.56463 11.8104ZM5.32921 14.1938C6.01151 14.1938 6.56463 14.7469 6.56463 15.4292C6.56463 16.1115 6.01151 16.6646 5.32921 16.6646C4.64691 16.6646 4.09379 16.1115 4.09379 15.4292C4.09379 14.7469 4.64691 14.1938 5.32921 14.1938Z" fill="white"/>
<path d="M16.9959 1.66667V18.3333H3.00421V1.66667H16.9959ZM3.00004 1.25C2.88953 1.25 2.78355 1.2939 2.70541 1.37204C2.62727 1.45018 2.58337 1.55616 2.58337 1.66667V18.3333C2.58337 18.4438 2.62727 18.5498 2.70541 18.628C2.78355 18.7061 2.88953 18.75 3.00004 18.75H17C17.1105 18.75 17.2165 18.7061 17.2947 18.628C17.3728 18.5498 17.4167 18.4438 17.4167 18.3333V1.66667C17.4167 1.55616 17.3728 1.45018 17.2947 1.37204C17.2165 1.2939 17.1105 1.25 17 1.25H3.00004Z" fill="#3A424A"/>
<path fill-rule="evenodd" clip-rule="evenodd" d="M15.8667 4.77708H6.99378V4.36041H15.8667V4.77708Z" fill="#3A424A"/>
<path fill-rule="evenodd" clip-rule="evenodd" d="M15.8667 8.39583H6.99378V7.97916H15.8667V8.39583Z" fill="#3A424A"/>
<path fill-rule="evenodd" clip-rule="evenodd" d="M15.8667 12.0187H6.99378V11.6021H15.8667V12.0187Z" fill="#3A424A"/>
<path fill-rule="evenodd" clip-rule="evenodd" d="M15.8667 15.6375H6.99378V15.2208H15.8667V15.6375Z" fill="#3A424A"/>
</svg>
