<svg width="20" height="20" viewBox="0 0 20 20" fill="none" xmlns="http://www.w3.org/2000/svg">
<path d="M14.9062 6.93334C14.3569 6.38426 13.6121 6.07581 12.8354 6.07581C12.0587 6.07581 11.3139 6.38426 10.7646 6.93334L9.99999 7.70834L9.23541 6.94376C8.68611 6.39467 7.94124 6.08622 7.16457 6.08622C6.3879 6.08622 5.64303 6.39467 5.09374 6.94376C4.54466 7.49305 4.23621 8.23792 4.23621 9.01459C4.23621 9.79126 4.54466 10.5361 5.09374 11.0854L9.98749 15.9813L9.99999 15.9583L10.0125 15.9708L14.9062 11.075C15.4553 10.5257 15.7638 9.78084 15.7638 9.00417C15.7638 8.2275 15.4553 7.48263 14.9062 6.93334Z" fill="#0067D1"/>
<path fill-rule="evenodd" clip-rule="evenodd" d="M14.3095 2.86364C13.0089 2.0794 11.5187 1.6655 9.99996 1.66667C8.70231 1.66578 7.42238 1.96794 6.26214 2.5491C5.1019 3.13025 4.09341 3.97434 3.31702 5.0141C2.54062 6.05387 2.01778 7.26058 1.79013 8.53811C1.56249 9.81564 1.63634 11.1287 2.0058 12.3726C2.37526 13.6166 3.03012 14.757 3.91821 15.7032C4.8063 16.6493 5.90308 17.375 7.12117 17.8224C8.33926 18.2698 9.645 18.4265 10.9344 18.2801C12.2237 18.1337 13.4611 17.6883 14.5479 16.9792L14.7083 16.875L14.9 16.9354L17.7833 17.7688L16.827 15.1021L16.7541 14.8938L16.875 14.7188C17.7349 13.467 18.2365 12.0039 18.3254 10.4878C18.4143 8.97168 18.0872 7.46008 17.3794 6.11635C16.6716 4.77263 15.6101 3.64788 14.3095 2.86364ZM14.9062 6.93338C14.3569 6.3843 13.612 6.07585 12.8354 6.07585C12.0587 6.07585 11.3138 6.3843 10.7645 6.93338L9.99994 7.70838L9.23536 6.9438C8.68606 6.39472 7.94119 6.08626 7.16452 6.08626C6.38786 6.08626 5.64298 6.39472 5.09369 6.9438C4.54461 7.49309 4.23616 8.23796 4.23616 9.01463C4.23616 9.7913 4.54461 10.5362 5.09369 11.0855L9.98744 15.9813L9.99994 15.9584L10.0124 15.9709L14.9062 11.075C15.4553 10.5258 15.7637 9.78088 15.7637 9.00421C15.7637 8.22755 15.4553 7.48267 14.9062 6.93338Z" fill="white"/>
<path d="M9.99996 1.66667C11.5187 1.6655 13.0089 2.0794 14.3095 2.86364C15.6101 3.64788 16.6716 4.77263 17.3794 6.11635C18.0872 7.46008 18.4143 8.97168 18.3254 10.4878C18.2365 12.0039 17.7349 13.467 16.875 14.7188L16.7541 14.8938L16.827 15.1021L17.7833 17.7688L14.9 16.9354L14.7083 16.875L14.5479 16.9792C13.4611 17.6883 12.2237 18.1337 10.9344 18.2801C9.645 18.4265 8.33926 18.2698 7.12117 17.8224C5.90308 17.375 4.8063 16.6493 3.91821 15.7032C3.03012 14.757 2.37526 13.6166 2.0058 12.3726C1.63634 11.1287 1.56249 9.81564 1.79013 8.53811C2.01778 7.26058 2.54062 6.05387 3.31702 5.0141C4.09341 3.97434 5.1019 3.13025 6.26214 2.5491C7.42238 1.96794 8.70231 1.66578 9.99996 1.66667ZM9.99996 1.25C8.63765 1.24959 7.29406 1.56728 6.07619 2.17777C4.85833 2.78826 3.79983 3.67468 2.98501 4.76645C2.17018 5.85821 1.62154 7.12516 1.38276 8.46638C1.14399 9.80761 1.22169 11.1861 1.60966 12.492C1.99764 13.7978 2.68519 14.9951 3.61754 15.9884C4.54989 16.9817 5.70129 17.7435 6.98004 18.2133C8.2588 18.6831 9.62957 18.8478 10.9832 18.6943C12.3368 18.5408 13.6359 18.0733 14.777 17.3292L18.4416 18.3896L17.2104 14.9542C18.1128 13.6404 18.6393 12.105 18.7329 10.5139C18.8265 8.92277 18.4837 7.33629 17.7415 5.92574C16.9994 4.51518 15.886 3.33414 14.5217 2.51011C13.1574 1.68608 11.5938 1.25036 9.99996 1.25Z" fill="#3A424A"/>
</svg>
