<svg width="20" height="20" viewBox="0 0 20 20" fill="none" xmlns="http://www.w3.org/2000/svg">
<path d="M18.575 4.50419L18.9771 4.39585L18.3271 1.97919L15.9625 2.80419L16.1 3.19794L17.7402 2.62536L12.8262 11.9684C12.9529 12.0351 13.0657 12.1247 13.1588 12.2319L18.1184 2.81252L18.575 4.50419Z" fill="#3A424A"/>
<path d="M11.3005 12.4117C11.3721 12.2876 11.4663 12.1781 11.5774 12.0889L8.49087 8.11009C8.40966 8.22512 8.30779 8.32452 8.19067 8.4029L11.3005 12.4117Z" fill="#3A424A"/>
<path d="M7.03025 8.46928C6.90384 8.40417 6.7911 8.31624 6.69749 8.21093L1.18091 18.0229L1.54411 18.2271L7.03025 8.46928Z" fill="#3A424A"/>
<path d="M12.2937 14.1292C12.9266 14.1292 13.4396 13.6161 13.4396 12.9833C13.4396 12.3505 12.9266 11.8375 12.2937 11.8375C11.6609 11.8375 11.1479 12.3505 11.1479 12.9833C11.1479 13.6161 11.6609 14.1292 12.2937 14.1292Z" fill="white"/>
<path d="M7.55416 8.5958C8.18699 8.5958 8.69999 8.0828 8.69999 7.44997C8.69999 6.81715 8.18699 6.30414 7.55416 6.30414C6.92133 6.30414 6.40833 6.81715 6.40833 7.44997C6.40833 8.0828 6.92133 8.5958 7.55416 8.5958Z" fill="white"/>
<path d="M16.6667 4.66646V4.2729C16.667 4.14978 16.643 4.02782 16.5961 3.91397C16.5493 3.80013 16.4805 3.69662 16.3936 3.60938C16.3067 3.52213 16.2035 3.45284 16.0899 3.40548C15.9763 3.35811 15.8544 3.33359 15.7313 3.33332H4.27296C4.14985 3.33304 4.02788 3.35702 3.91403 3.40388C3.80019 3.45074 3.69668 3.51957 3.60944 3.60643C3.52219 3.69329 3.4529 3.79649 3.40554 3.91012C3.35817 4.02376 3.33365 4.14562 3.33338 4.26873V14.1945L6.69753 8.21089C6.51764 8.00853 6.40838 7.74199 6.40838 7.44993C6.40838 6.8171 6.92138 6.3041 7.55421 6.3041C8.18704 6.3041 8.70004 6.8171 8.70004 7.44993C8.70004 7.69573 8.62265 7.92345 8.4909 8.11005L11.5775 12.0889C11.7737 11.9316 12.0227 11.8374 12.2938 11.8374C12.486 11.8374 12.6671 11.8848 12.8262 11.9684L16.6667 4.66646Z" fill="#0067D1"/>
<path d="M3.33338 15.0447L7.03028 8.46924C7.1873 8.55011 7.36542 8.59576 7.55421 8.59576C7.78973 8.59576 8.00865 8.52471 8.19071 8.40286L11.3005 12.4116C11.2035 12.5799 11.148 12.7751 11.148 12.9833C11.148 13.6161 11.661 14.1291 12.2938 14.1291C12.9266 14.1291 13.4396 13.6161 13.4396 12.9833C13.4396 12.6958 13.3338 12.433 13.1589 12.2319L16.6667 5.56959V15.7312C16.6664 15.8543 16.6419 15.9762 16.5946 16.0898C16.5472 16.2035 16.4779 16.3067 16.3907 16.3935C16.3034 16.4804 16.1999 16.5492 16.0861 16.5961C15.9722 16.6429 15.8502 16.6669 15.7271 16.6666H4.26879C4.14568 16.6664 4.02382 16.6419 3.91019 16.5945C3.79655 16.5471 3.69335 16.4778 3.60649 16.3906C3.51963 16.3033 3.4508 16.1998 3.40394 16.086C3.35708 15.9721 3.3331 15.8502 3.33338 15.7271V15.0447Z" fill="#0067D1"/>
</svg>
