<svg width="20" height="20" viewBox="0 0 20 20" fill="none" xmlns="http://www.w3.org/2000/svg">
<path fill-rule="evenodd" clip-rule="evenodd" d="M15.3875 8.16877C15.3952 8.16877 15.4027 8.17184 15.4081 8.17731C15.4136 8.18278 15.4167 8.1902 15.4167 8.19793V10.2229C15.4167 10.2307 15.4136 10.2381 15.4081 10.2436C15.4027 10.249 15.3952 10.2521 15.3875 10.2521H4.6125C4.60476 10.2521 4.59735 10.249 4.59188 10.2436C4.58641 10.2381 4.58333 10.2307 4.58333 10.2229V8.19793C4.58333 8.1902 4.58641 8.18278 4.59188 8.17731C4.59735 8.17184 4.60476 8.16877 4.6125 8.16877H15.3875ZM5.74583 9.69585C6.01392 9.69585 6.23125 9.47852 6.23125 9.21043C6.23125 8.94234 6.01392 8.72502 5.74583 8.72502C5.47775 8.72502 5.26042 8.94234 5.26042 9.21043C5.26042 9.47852 5.47775 9.69585 5.74583 9.69585ZM7.68958 9.21043C7.68958 9.47852 7.47226 9.69585 7.20417 9.69585C6.93608 9.69585 6.71875 9.47852 6.71875 9.21043C6.71875 8.94234 6.93608 8.72502 7.20417 8.72502C7.47226 8.72502 7.68958 8.94234 7.68958 9.21043ZM8.6625 9.69585C8.93059 9.69585 9.14792 9.47852 9.14792 9.21043C9.14792 8.94234 8.93059 8.72502 8.6625 8.72502C8.39441 8.72502 8.17708 8.94234 8.17708 9.21043C8.17708 9.47852 8.39441 9.69585 8.6625 9.69585Z" fill="#0067D1"/>
<path fill-rule="evenodd" clip-rule="evenodd" d="M15.4081 12.5523C15.4027 12.5468 15.3952 12.5438 15.3875 12.5438H4.6125C4.60476 12.5438 4.59735 12.5468 4.59188 12.5523C4.58641 12.5578 4.58333 12.5652 4.58333 12.5729V14.5979C4.58333 14.6057 4.58641 14.6131 4.59188 14.6186C4.59735 14.624 4.60476 14.6271 4.6125 14.6271H15.3875C15.3952 14.6271 15.4027 14.624 15.4081 14.6186C15.4136 14.6131 15.4167 14.6057 15.4167 14.5979V12.5729C15.4167 12.5652 15.4136 12.5578 15.4081 12.5523ZM9.14792 13.5854C9.14792 13.8535 8.93059 14.0708 8.6625 14.0708C8.39441 14.0708 8.17708 13.8535 8.17708 13.5854C8.17708 13.3173 8.39441 13.1 8.6625 13.1C8.93059 13.1 9.14792 13.3173 9.14792 13.5854ZM6.23125 13.5854C6.23125 13.8535 6.01392 14.0708 5.74583 14.0708C5.47775 14.0708 5.26042 13.8535 5.26042 13.5854C5.26042 13.3173 5.47775 13.1 5.74583 13.1C6.01392 13.1 6.23125 13.3173 6.23125 13.5854ZM7.20417 14.0708C7.47226 14.0708 7.68958 13.8535 7.68958 13.5854C7.68958 13.3173 7.47226 13.1 7.20417 13.1C6.93608 13.1 6.71875 13.3173 6.71875 13.5854C6.71875 13.8535 6.93608 14.0708 7.20417 14.0708ZM10.1208 14.0708C10.3889 14.0708 10.6062 13.8535 10.6062 13.5854C10.6062 13.3173 10.3889 13.1 10.1208 13.1C9.85275 13.1 9.63542 13.3173 9.63542 13.5854C9.63542 13.8535 9.85275 14.0708 10.1208 14.0708ZM12.0646 13.5854C12.0646 13.8535 11.8473 14.0708 11.5792 14.0708C11.3111 14.0708 11.0938 13.8535 11.0938 13.5854C11.0938 13.3173 11.3111 13.1 11.5792 13.1C11.8473 13.1 12.0646 13.3173 12.0646 13.5854Z" fill="#0067D1"/>
<path fill-rule="evenodd" clip-rule="evenodd" d="M1.25 5.20837V17.1646C1.25 17.7387 1.71544 18.2042 2.28958 18.2042H17.7104C18.2846 18.2042 18.75 17.7387 18.75 17.1646V5.20837H1.25ZM15.3875 7.7521H4.6125C4.49426 7.7521 4.38086 7.79907 4.29725 7.88268C4.21364 7.96629 4.16667 8.07969 4.16667 8.19793V10.2229C4.16667 10.3412 4.21364 10.4546 4.29725 10.5382C4.38086 10.6218 4.49426 10.6688 4.6125 10.6688H15.3875C15.446 10.6688 15.504 10.6572 15.5581 10.6348C15.6122 10.6124 15.6614 10.5796 15.7028 10.5382C15.7442 10.4968 15.777 10.4476 15.7994 10.3935C15.8218 10.3395 15.8333 10.2815 15.8333 10.2229V8.19793C15.8333 8.13938 15.8218 8.08141 15.7994 8.02732C15.777 7.97323 15.7442 7.92408 15.7028 7.88268C15.6614 7.84128 15.6122 7.80844 15.5581 7.78604C15.504 7.76363 15.446 7.7521 15.3875 7.7521ZM4.6125 12.1271H15.3875C15.446 12.1271 15.504 12.1386 15.5581 12.161C15.6122 12.1834 15.6614 12.2163 15.7028 12.2577C15.7442 12.2991 15.777 12.3482 15.7994 12.4023C15.8218 12.4564 15.8333 12.5144 15.8333 12.5729V14.5979C15.8333 14.6565 15.8218 14.7145 15.7994 14.7685C15.777 14.8226 15.7442 14.8718 15.7028 14.9132C15.6614 14.9546 15.6122 14.9874 15.5581 15.0098C15.504 15.0322 15.446 15.0438 15.3875 15.0438H4.6125C4.49426 15.0438 4.38086 14.9968 4.29725 14.9132C4.21364 14.8296 4.16667 14.7162 4.16667 14.5979V12.5729C4.16667 12.4547 4.21364 12.3413 4.29725 12.2577C4.38086 12.1741 4.49426 12.1271 4.6125 12.1271Z" fill="#0067D1"/>
<path d="M8.6625 14.0708C8.93059 14.0708 9.14792 13.8535 9.14792 13.5854C9.14792 13.3173 8.93059 13.1 8.6625 13.1C8.39441 13.1 8.17708 13.3173 8.17708 13.5854C8.17708 13.8535 8.39441 14.0708 8.6625 14.0708Z" fill="white"/>
<path d="M18.3225 2.22481C18.3155 2.21744 18.306 2.21304 18.2958 2.2125H1.70417C1.69403 2.21304 1.68449 2.21744 1.67751 2.22481C1.67054 2.23218 1.66665 2.24194 1.66667 2.25209V4.79167H18.3333V2.25209C18.3333 2.24194 18.3295 2.23218 18.3225 2.22481Z" fill="white"/>
<path d="M5.74583 9.69581C6.01392 9.69581 6.23125 9.47848 6.23125 9.2104C6.23125 8.94231 6.01392 8.72498 5.74583 8.72498C5.47775 8.72498 5.26042 8.94231 5.26042 9.2104C5.26042 9.47848 5.47775 9.69581 5.74583 9.69581Z" fill="white"/>
<path d="M7.20417 9.69581C7.47226 9.69581 7.68958 9.47848 7.68958 9.2104C7.68958 8.94231 7.47226 8.72498 7.20417 8.72498C6.93608 8.72498 6.71875 8.94231 6.71875 9.2104C6.71875 9.47848 6.93608 9.69581 7.20417 9.69581Z" fill="white"/>
<path d="M8.6625 9.69581C8.93059 9.69581 9.14792 9.47848 9.14792 9.2104C9.14792 8.94231 8.93059 8.72498 8.6625 8.72498C8.39441 8.72498 8.17708 8.94231 8.17708 9.2104C8.17708 9.47848 8.39441 9.69581 8.6625 9.69581Z" fill="white"/>
<path d="M5.74583 14.0708C6.01392 14.0708 6.23125 13.8535 6.23125 13.5854C6.23125 13.3173 6.01392 13.1 5.74583 13.1C5.47775 13.1 5.26042 13.3173 5.26042 13.5854C5.26042 13.8535 5.47775 14.0708 5.74583 14.0708Z" fill="white"/>
<path d="M7.20417 14.0708C7.47226 14.0708 7.68958 13.8535 7.68958 13.5854C7.68958 13.3173 7.47226 13.1 7.20417 13.1C6.93608 13.1 6.71875 13.3173 6.71875 13.5854C6.71875 13.8535 6.93608 14.0708 7.20417 14.0708Z" fill="white"/>
<path d="M8.6625 14.0708C8.93059 14.0708 9.14792 13.8535 9.14792 13.5854C9.14792 13.3173 8.93059 13.1 8.6625 13.1C8.39441 13.1 8.17708 13.3173 8.17708 13.5854C8.17708 13.8535 8.39441 14.0708 8.6625 14.0708Z" fill="white"/>
<path d="M10.1208 14.0708C10.3889 14.0708 10.6062 13.8535 10.6062 13.5854C10.6062 13.3173 10.3889 13.1 10.1208 13.1C9.85275 13.1 9.63542 13.3173 9.63542 13.5854C9.63542 13.8535 9.85275 14.0708 10.1208 14.0708Z" fill="white"/>
<path d="M11.5792 14.0708C11.8473 14.0708 12.0646 13.8535 12.0646 13.5854C12.0646 13.3173 11.8473 13.1 11.5792 13.1C11.3111 13.1 11.0938 13.3173 11.0938 13.5854C11.0938 13.8535 11.3111 14.0708 11.5792 14.0708Z" fill="white"/>
<path d="M18.2958 2.2125C18.306 2.21304 18.3155 2.21744 18.3225 2.22481C18.3295 2.23218 18.3333 2.24194 18.3333 2.25209V4.79167H1.66667V2.25209C1.66665 2.24194 1.67054 2.23218 1.67751 2.22481C1.68449 2.21744 1.69403 2.21304 1.70417 2.2125H18.2958ZM18.2958 1.79584H1.70417C1.58352 1.79639 1.46801 1.8447 1.3829 1.9302C1.29778 2.01571 1.25 2.13144 1.25 2.25209V5.20834H18.75V2.25209C18.75 2.13144 18.7022 2.01571 18.6171 1.9302C18.532 1.8447 18.4165 1.79639 18.2958 1.79584Z" fill="#3A424A"/>
<path d="M2.82917 3.98331C3.09725 3.98331 3.31458 3.76598 3.31458 3.4979C3.31458 3.22981 3.09725 3.01248 2.82917 3.01248C2.56108 3.01248 2.34375 3.22981 2.34375 3.4979C2.34375 3.76598 2.56108 3.98331 2.82917 3.98331Z" fill="#3A424A"/>
<path d="M4.2875 3.98331C4.55559 3.98331 4.77292 3.76598 4.77292 3.4979C4.77292 3.22981 4.55559 3.01248 4.2875 3.01248C4.01941 3.01248 3.80208 3.22981 3.80208 3.4979C3.80208 3.76598 4.01941 3.98331 4.2875 3.98331Z" fill="#3A424A"/>
<path d="M5.74583 3.98331C6.01392 3.98331 6.23125 3.76598 6.23125 3.4979C6.23125 3.22981 6.01392 3.01248 5.74583 3.01248C5.47775 3.01248 5.26042 3.22981 5.26042 3.4979C5.26042 3.76598 5.47775 3.98331 5.74583 3.98331Z" fill="#3A424A"/>
<path d="M15.3875 8.16873C15.3952 8.16873 15.4027 8.1718 15.4081 8.17727C15.4136 8.18274 15.4167 8.19016 15.4167 8.1979V10.2229C15.4167 10.2306 15.4136 10.2381 15.4081 10.2435C15.4027 10.249 15.3952 10.2521 15.3875 10.2521H4.6125C4.60476 10.2521 4.59735 10.249 4.59188 10.2435C4.58641 10.2381 4.58333 10.2306 4.58333 10.2229V8.1979C4.58333 8.19016 4.58641 8.18274 4.59188 8.17727C4.59735 8.1718 4.60476 8.16873 4.6125 8.16873H15.3875ZM15.3875 7.75206H4.6125C4.49426 7.75206 4.38086 7.79904 4.29725 7.88265C4.21364 7.96625 4.16667 8.07965 4.16667 8.1979V10.2229C4.16667 10.3411 4.21364 10.4545 4.29725 10.5381C4.38086 10.6218 4.49426 10.6687 4.6125 10.6687H15.3875C15.446 10.6687 15.504 10.6572 15.5581 10.6348C15.6122 10.6124 15.6614 10.5795 15.7028 10.5381C15.7442 10.4967 15.777 10.4476 15.7994 10.3935C15.8218 10.3394 15.8333 10.2814 15.8333 10.2229V8.1979C15.8333 8.13935 15.8218 8.08138 15.7994 8.02728C15.777 7.97319 15.7442 7.92404 15.7028 7.88265C15.6614 7.84125 15.6122 7.80841 15.5581 7.786C15.504 7.7636 15.446 7.75206 15.3875 7.75206Z" fill="#3A424A"/>
<path d="M15.3875 12.5437C15.3952 12.5437 15.4027 12.5468 15.4081 12.5523C15.4136 12.5577 15.4167 12.5652 15.4167 12.5729V14.5979C15.4167 14.6056 15.4136 14.6131 15.4081 14.6185C15.4027 14.624 15.3952 14.6271 15.3875 14.6271H4.6125C4.60476 14.6271 4.59735 14.624 4.59188 14.6185C4.58641 14.6131 4.58333 14.6056 4.58333 14.5979V12.5729C4.58333 12.5652 4.58641 12.5577 4.59188 12.5523C4.59735 12.5468 4.60476 12.5437 4.6125 12.5437H15.3875ZM15.3875 12.1271H4.6125C4.49426 12.1271 4.38086 12.174 4.29725 12.2576C4.21364 12.3413 4.16667 12.4547 4.16667 12.5729V14.5979C4.16667 14.7161 4.21364 14.8295 4.29725 14.9131C4.38086 14.9968 4.49426 15.0437 4.6125 15.0437H15.3875C15.446 15.0437 15.504 15.0322 15.5581 15.0098C15.6122 14.9874 15.6614 14.9545 15.7028 14.9131C15.7442 14.8717 15.777 14.8226 15.7994 14.7685C15.8218 14.7144 15.8333 14.6564 15.8333 14.5979V12.5729C15.8333 12.5143 15.8218 12.4564 15.7994 12.4023C15.777 12.3482 15.7442 12.299 15.7028 12.2576C15.6614 12.2162 15.6122 12.1834 15.5581 12.161C15.504 12.1386 15.446 12.1271 15.3875 12.1271Z" fill="#3A424A"/>
</svg>
