<svg width="20" height="20" viewBox="0 0 20 20" fill="none" xmlns="http://www.w3.org/2000/svg">
<path d="M14.3583 1.56249C14.9672 1.5626 15.553 1.7958 15.9955 2.21421C16.4379 2.63262 16.7034 3.2045 16.7375 3.81249V3.94166L16.7562 4.29583L17.1083 4.33333L17.2395 4.34791C17.4864 4.37638 17.7137 4.49633 17.8765 4.68411C18.0393 4.87189 18.1259 5.11386 18.1191 5.36231C18.1123 5.61075 18.0126 5.84763 17.8398 6.02622C17.667 6.20481 17.4335 6.31216 17.1854 6.32708H15.0383C15.1176 6.46245 15.1915 6.60076 15.2597 6.74166H17.2145C17.5659 6.71961 17.8964 6.56693 18.1409 6.31361C18.3855 6.0603 18.5264 5.72467 18.5361 5.37271C18.5458 5.02075 18.4234 4.6779 18.1931 4.41155C17.9629 4.1452 17.6413 3.97462 17.2916 3.93333L17.1625 3.91874V3.78958C17.1224 3.07366 16.8093 2.40037 16.2876 1.9085C15.7659 1.41662 15.0753 1.14364 14.3583 1.14583C13.8876 1.14585 13.4244 1.26437 13.0115 1.49047C12.5987 1.71657 12.2493 2.04297 11.9958 2.43958L11.9625 2.49374L11.902 2.50624C11.4013 2.62839 10.961 2.92638 10.6616 3.34593C10.642 3.37334 10.6231 3.40115 10.6049 3.42934C10.7602 3.44759 10.9151 3.472 11.0691 3.50259C11.3068 3.21208 11.6333 3.00583 12 2.91666L12.0604 2.90208L12.2229 2.86249L12.3145 2.72083L12.3479 2.66874C12.5624 2.32966 12.8592 2.0504 13.2108 1.85697C13.5623 1.66353 13.9571 1.56223 14.3583 1.56249Z" fill="#3A424A"/>
<path d="M11.4 7.96249L11.7042 7.67916L9.99999 5.84583L8.29583 7.67916L8.60208 7.96249L9.79165 6.6825V13.9645H10.2083V6.68213L11.4 7.96249Z" fill="#3A424A"/>
<path d="M14.5521 11.5458L14.2479 11.8292L13.0562 10.5469V18.6458H12.6395V10.5511L11.45 11.8292L11.1458 11.5458L12.85 9.7125L14.5521 11.5458Z" fill="#3A424A"/>
<path d="M8.54996 11.8292L8.85621 11.5458L7.15204 9.7125L5.44788 11.5458L5.75204 11.8292L6.94375 10.5488V18.6458H7.36041V10.5492L8.54996 11.8292Z" fill="#3A424A"/>
<path d="M15.9955 2.21421C15.5531 1.7958 14.9673 1.56261 14.3583 1.5625C13.9571 1.56224 13.5623 1.66354 13.2108 1.85697C12.8593 2.0504 12.5624 2.32967 12.3479 2.66875L12.3146 2.72083L12.2229 2.8625L12.0604 2.90208L12 2.91667C11.6333 3.00584 11.3068 3.21208 11.0692 3.5026C11.1844 3.5255 11.2992 3.55185 11.4134 3.58168C12.6293 3.89932 13.7132 4.59433 14.5093 5.56679C14.7061 5.80719 14.8828 6.06149 15.0384 6.32708H17.1854C17.4335 6.31216 17.667 6.20482 17.8398 6.02623C18.0127 5.84764 18.1123 5.61076 18.1191 5.36231C18.1259 5.11387 18.0394 4.8719 17.8766 4.68412C17.7137 4.49634 17.4865 4.37639 17.2396 4.34792L17.1083 4.33333L16.7562 4.29583L16.7375 3.94167V3.8125C16.7034 3.20451 16.4379 2.63262 15.9955 2.21421Z" fill="white"/>
<path fill-rule="evenodd" clip-rule="evenodd" d="M15.0384 6.32712C15.1177 6.46249 15.1915 6.6008 15.2597 6.7417C15.5989 7.44253 15.7991 8.20739 15.8437 8.99382C16.6269 9.08167 17.3485 9.46024 17.8659 10.0546C18.3832 10.649 18.6587 11.4159 18.6377 12.2037C18.6168 12.9914 18.301 13.7426 17.7527 14.3087C17.2045 14.8747 16.4637 15.2144 15.6771 15.2605H13.0562V10.5469L14.2479 11.8292L14.5521 11.5459L12.85 9.71254L11.1458 11.5459L11.45 11.8292L12.6396 10.5511V15.2605H7.36043V10.5492L8.54998 11.8292L8.85623 11.5459L7.15206 9.71254L5.4479 11.5459L5.75206 11.8292L6.94377 10.5488V15.2605H5.71874C4.60844 15.1988 3.55745 14.7395 2.75798 13.9665C1.95851 13.1936 1.464 12.1587 1.36487 11.0511C1.26575 9.94351 1.56863 8.83725 2.21814 7.93464C2.86765 7.03202 3.82037 6.39337 4.90207 6.13549C5.57785 5.07591 6.57219 4.25789 7.74216 3.79902C8.65542 3.44083 9.63898 3.31589 10.605 3.42938C10.7603 3.44763 10.9151 3.47204 11.0691 3.50263C11.1533 3.51935 11.2372 3.53791 11.3208 3.55832C11.3517 3.56586 11.3826 3.57366 11.4134 3.58171C11.4894 3.60157 11.5649 3.62289 11.6398 3.64567C11.8272 3.70263 12.0111 3.76866 12.191 3.84338C13.0899 4.21679 13.8874 4.80715 14.5093 5.56682C14.5831 5.65697 14.654 5.74908 14.7221 5.843C14.8356 5.99954 14.9411 6.16112 15.0384 6.32712ZM11.4 7.96253L11.7042 7.6792L10 5.84587L8.29585 7.6792L8.6021 7.96253L9.79167 6.68254V13.9646H10.2083V6.68217L11.4 7.96253Z" fill="#0067D1"/>
</svg>
