<svg width="20" height="20" viewBox="0 0 20 20" fill="none" xmlns="http://www.w3.org/2000/svg">
<path fill-rule="evenodd" clip-rule="evenodd" d="M15.3764 10.2042C14.734 9.77496 13.9788 9.54586 13.2062 9.54586C12.1706 9.54696 11.1776 9.95887 10.4453 10.6912C9.71298 11.4235 9.30108 12.4164 9.29997 13.4521C9.29997 14.2247 9.52907 14.9799 9.9583 15.6223C10.3875 16.2647 10.9976 16.7654 11.7114 17.061C12.4251 17.3567 13.2106 17.434 13.9683 17.2833C14.726 17.1326 15.4221 16.7605 15.9684 16.2142C16.5147 15.6679 16.8867 14.9719 17.0374 14.2142C17.1881 13.4564 17.1108 12.671 16.8151 11.9573C16.5195 11.2435 16.0188 10.6334 15.3764 10.2042ZM12.8204 15.4026L15.4146 11.9438L15.0812 11.6938L12.7753 14.7683L11.3119 13.3048L11.0172 13.5994L12.8204 15.4026Z" fill="white"/>
<path d="M15.3583 4.33752H4.64164V15.6625H9.49116C9.24108 15.2422 9.0628 14.7803 8.96637 14.2955C8.79957 13.4569 8.88518 12.5877 9.21237 11.7978C9.53956 11.0079 10.0936 10.3327 10.8045 9.85773C11.5154 9.38273 12.3512 9.12919 13.2062 9.12919C13.7739 9.12919 14.3361 9.24101 14.8605 9.45825C15.0319 9.52923 15.1981 9.61101 15.3583 9.70296V4.33752Z" fill="white"/>
<path fill-rule="evenodd" clip-rule="evenodd" d="M10.8045 9.85773C11.5154 9.38273 12.3512 9.12919 13.2062 9.12919C13.7739 9.12919 14.3361 9.24101 14.8605 9.45825C15.385 9.6755 15.8616 9.99392 16.263 10.3953C16.6644 10.7968 16.9828 11.2733 17.2001 11.7978C17.4173 12.3223 17.5291 12.8844 17.5291 13.4521C17.5291 14.3071 17.2756 15.1429 16.8006 15.8538C16.7137 15.9838 16.6202 16.1086 16.5204 16.2277L18.691 18.3964L18.3964 18.6911L16.2376 16.5341C15.8434 16.9218 15.3764 17.2323 14.8605 17.446C14.0706 17.7732 13.2014 17.8588 12.3629 17.692C11.5243 17.5252 10.754 17.1134 10.1495 16.5089C9.54489 15.9043 9.13317 15.134 8.96637 14.2955C8.79957 13.4569 8.88518 12.5877 9.21237 11.7978C9.53956 11.0079 10.0936 10.3327 10.8045 9.85773ZM15.3764 10.2042C14.734 9.77496 13.9788 9.54586 13.2062 9.54586C12.1706 9.54696 11.1776 9.95887 10.4453 10.6912C9.71298 11.4235 9.30108 12.4164 9.29997 13.4521C9.29997 14.2247 9.52907 14.9799 9.9583 15.6223C10.3875 16.2647 10.9976 16.7654 11.7114 17.061C12.4251 17.3567 13.2106 17.434 13.9683 17.2833C14.726 17.1326 15.4221 16.7605 15.9684 16.2142C16.5147 15.6679 16.8867 14.9719 17.0374 14.2142C17.1881 13.4564 17.1108 12.671 16.8151 11.9573C16.5195 11.2435 16.0188 10.6334 15.3764 10.2042Z" fill="#3A424A"/>
<path fill-rule="evenodd" clip-rule="evenodd" d="M15.4146 11.9438L12.8204 15.4026L11.0172 13.5994L11.3119 13.3048L12.7753 14.7683L15.0812 11.6938L15.4146 11.9438Z" fill="#3A424A"/>
<path d="M15.2326 1.78502C15.1548 1.70912 15.0504 1.66665 14.9416 1.66669V1.6771H5.05831C4.94958 1.67707 4.84515 1.71954 4.7673 1.79544C4.68946 1.87134 4.64436 1.97466 4.64164 2.08335V17.9271C4.64164 18.0376 4.68554 18.1436 4.76368 18.2217C4.84182 18.2999 4.9478 18.3438 5.05831 18.3438H14.9416C15.0521 18.3438 15.1581 18.2999 15.2363 18.2217C15.3144 18.1436 15.3583 18.0376 15.3583 17.9271V17.2013C15.5025 17.1185 15.6416 17.0276 15.775 16.9291V17.9375C15.775 18.1585 15.6872 18.3705 15.5309 18.5268C15.3746 18.6831 15.1627 18.7709 14.9416 18.7709H5.05831C4.8373 18.7709 4.62533 18.6831 4.46905 18.5268C4.31277 18.3705 4.22498 18.1585 4.22498 17.9375V2.08335C4.22772 1.86415 4.31672 1.65485 4.47271 1.50082C4.62869 1.34679 4.83909 1.26042 5.05831 1.26044H14.9416C15.1609 1.26042 15.3713 1.34679 15.5272 1.50082C15.6832 1.65485 15.7722 1.86415 15.775 2.08335V9.97517C15.6414 9.87652 15.5023 9.78563 15.3583 9.70296V2.07294C15.3556 1.96425 15.3105 1.86092 15.2326 1.78502Z" fill="#3A424A"/>
<path d="M15.3583 4.33752V2.07294C15.3556 1.96425 15.3105 1.86092 15.2327 1.78502C15.1548 1.70912 15.0504 1.66665 14.9417 1.66669V1.6771H5.05833C4.9496 1.67707 4.84517 1.71954 4.76732 1.79544C4.68948 1.87134 4.64438 1.97466 4.64166 2.08335V4.33752H15.3583Z" fill="#0067D1"/>
<path d="M15.3583 17.2013V17.9271C15.3583 18.0376 15.3144 18.1436 15.2363 18.2217C15.1582 18.2999 15.0522 18.3438 14.9417 18.3438H5.05833C4.94782 18.3438 4.84184 18.2999 4.7637 18.2217C4.68556 18.1436 4.64166 18.0376 4.64166 17.9271V15.6625H9.49118C9.67368 15.9693 9.89442 16.2538 10.1495 16.5089C10.7541 17.1134 11.5243 17.5252 12.3629 17.692C13.2015 17.8588 14.0706 17.7732 14.8606 17.446C15.0322 17.3749 15.1984 17.2931 15.3583 17.2013Z" fill="#0067D1"/>
</svg>
