<svg width="20" height="20" viewBox="0 0 20 20" fill="none" xmlns="http://www.w3.org/2000/svg">
<path fill-rule="evenodd" clip-rule="evenodd" d="M1.25 5.20837V17.1646C1.25 17.7387 1.71544 18.2042 2.28958 18.2042H17.7104C18.2846 18.2042 18.75 17.7387 18.75 17.1646V5.20837H1.25ZM13.2979 13.4375C13.0618 12.7273 12.6634 12.0818 12.1343 11.5524C11.6052 11.023 10.9601 10.6241 10.25 10.3875C10.1947 10.3875 10.1418 10.3656 10.1027 10.3265C10.0636 10.2874 10.0417 10.2344 10.0417 10.1792C10.0417 10.1239 10.0636 10.0709 10.1027 10.0319C10.1418 9.9928 10.1947 9.97085 10.25 9.97085C10.9594 9.73486 11.6041 9.33696 12.1332 8.80867C12.6622 8.28037 13.061 7.63618 13.2979 6.9271C13.2979 6.87185 13.3199 6.81886 13.3589 6.77979C13.398 6.74072 13.451 6.71877 13.5063 6.71877C13.5615 6.71877 13.6145 6.74072 13.6536 6.77979C13.6926 6.81886 13.7146 6.87185 13.7146 6.9271C13.9503 7.63689 14.3481 8.28204 14.8764 8.81144C15.4047 9.34083 16.049 9.73992 16.7583 9.9771C16.8136 9.9771 16.8666 9.99905 16.9056 10.0381C16.9447 10.0772 16.9667 10.1302 16.9667 10.1854C16.9667 10.2407 16.9447 10.2937 16.9056 10.3327C16.8666 10.3718 16.8136 10.3938 16.7583 10.3938C16.0489 10.6298 15.4042 11.0277 14.8752 11.5559C14.3462 12.0842 13.9474 12.7284 13.7104 13.4375C13.7033 13.4872 13.6786 13.5326 13.6407 13.5655C13.6028 13.5984 13.5543 13.6165 13.5042 13.6165C13.454 13.6165 13.4055 13.5984 13.3676 13.5655C13.3297 13.5326 13.305 13.4872 13.2979 13.4375ZM8.85187 15.3198C9.15446 15.622 9.38275 15.9904 9.51875 16.3958C9.52688 16.4204 9.54253 16.4417 9.56347 16.4568C9.58441 16.4719 9.60959 16.4801 9.63542 16.4801C9.66125 16.4801 9.68642 16.4719 9.70736 16.4568C9.7283 16.4417 9.74395 16.4204 9.75208 16.3958C9.88809 15.9904 10.1164 15.622 10.419 15.3198C10.7216 15.0175 11.0902 14.7897 11.4958 14.6542C11.5201 14.6455 11.5411 14.6295 11.5559 14.6085C11.5708 14.5874 11.5788 14.5623 11.5788 14.5365C11.5788 14.5107 11.5708 14.4856 11.5559 14.4645C11.5411 14.4434 11.5201 14.4274 11.4958 14.4188C11.0899 14.2838 10.7209 14.0562 10.4183 13.7539C10.1156 13.4515 9.88751 13.0829 9.75208 12.6771C9.74395 12.6526 9.7283 12.6313 9.70736 12.6161C9.68642 12.601 9.66125 12.5929 9.63542 12.5929C9.60959 12.5929 9.58441 12.601 9.56347 12.6161C9.54253 12.6313 9.52688 12.6526 9.51875 12.6771C9.38332 13.0829 9.15523 13.4515 8.85256 13.7539C8.54988 14.0562 8.18095 14.2838 7.775 14.4188C7.75073 14.4274 7.72973 14.4434 7.71488 14.4645C7.70004 14.4856 7.69207 14.5107 7.69207 14.5365C7.69207 14.5623 7.70004 14.5874 7.71488 14.6085C7.72973 14.6295 7.75073 14.6455 7.775 14.6542C8.18064 14.7897 8.54927 15.0175 8.85187 15.3198Z" fill="#0067D1"/>
<path d="M18.3225 2.22481C18.3155 2.21744 18.306 2.21304 18.2958 2.2125H1.70417C1.69403 2.21304 1.68449 2.21744 1.67751 2.22481C1.67054 2.23218 1.66665 2.24194 1.66667 2.25209V4.79167H18.3333V2.25209C18.3333 2.24194 18.3295 2.23218 18.3225 2.22481Z" fill="white"/>
<path d="M13.2979 13.4375C13.0618 12.7272 12.6634 12.0818 12.1343 11.5524C11.6052 11.0229 10.9601 10.6241 10.25 10.3875C10.1947 10.3875 10.1418 10.3655 10.1027 10.3265C10.0636 10.2874 10.0417 10.2344 10.0417 10.1791C10.0417 10.1239 10.0636 10.0709 10.1027 10.0318C10.1418 9.99276 10.1947 9.97081 10.25 9.97081C10.9594 9.73482 11.6041 9.33692 12.1332 8.80863C12.6622 8.28034 13.061 7.63615 13.2979 6.92706C13.2979 6.87181 13.3199 6.81882 13.3589 6.77975C13.398 6.74068 13.451 6.71873 13.5063 6.71873C13.5615 6.71873 13.6145 6.74068 13.6536 6.77975C13.6926 6.81882 13.7146 6.87181 13.7146 6.92706C13.9503 7.63686 14.3481 8.28201 14.8764 8.8114C15.4047 9.3408 16.049 9.73989 16.7583 9.97706C16.8136 9.97706 16.8666 9.99901 16.9056 10.0381C16.9447 10.0772 16.9667 10.1301 16.9667 10.1854C16.9667 10.2406 16.9447 10.2936 16.9056 10.3327C16.8666 10.3718 16.8136 10.3937 16.7583 10.3937C16.0489 10.6297 15.4042 11.0276 14.8752 11.5559C14.3462 12.0842 13.9474 12.7284 13.7104 13.4375C13.7033 13.4871 13.6786 13.5326 13.6407 13.5655C13.6028 13.5983 13.5543 13.6164 13.5042 13.6164C13.454 13.6164 13.4055 13.5983 13.3676 13.5655C13.3297 13.5326 13.305 13.4871 13.2979 13.4375Z" fill="white"/>
<path d="M9.51875 16.3958C9.38275 15.9903 9.15446 15.622 8.85187 15.3197C8.54927 15.0175 8.18064 14.7897 7.775 14.6541C7.75073 14.6455 7.72973 14.6295 7.71488 14.6084C7.70004 14.5874 7.69207 14.5622 7.69207 14.5364C7.69207 14.5107 7.70004 14.4855 7.71488 14.4644C7.72973 14.4434 7.75073 14.4274 7.775 14.4187C8.18095 14.2838 8.54988 14.0561 8.85256 13.7538C9.15523 13.4515 9.38332 13.0829 9.51875 12.6771C9.52688 12.6525 9.54253 12.6312 9.56347 12.6161C9.58441 12.601 9.60959 12.5928 9.63542 12.5928C9.66125 12.5928 9.68642 12.601 9.70736 12.6161C9.7283 12.6312 9.74395 12.6525 9.75208 12.6771C9.88751 13.0829 10.1156 13.4515 10.4183 13.7538C10.7209 14.0561 11.0899 14.2838 11.4958 14.4187C11.5201 14.4274 11.5411 14.4434 11.5559 14.4644C11.5708 14.4855 11.5788 14.5107 11.5788 14.5364C11.5788 14.5622 11.5708 14.5874 11.5559 14.6084C11.5411 14.6295 11.5201 14.6455 11.4958 14.6541C11.0902 14.7897 10.7216 15.0175 10.419 15.3197C10.1164 15.622 9.88809 15.9903 9.75208 16.3958C9.74395 16.4203 9.7283 16.4417 9.70736 16.4568C9.68642 16.4719 9.66125 16.48 9.63542 16.48C9.60959 16.48 9.58441 16.4719 9.56347 16.4568C9.54253 16.4417 9.52688 16.4203 9.51875 16.3958Z" fill="white"/>
<path d="M18.2958 2.2125C18.306 2.21304 18.3155 2.21744 18.3225 2.22481C18.3295 2.23218 18.3333 2.24194 18.3333 2.25209V4.79167H1.66667V2.25209C1.66665 2.24194 1.67054 2.23218 1.67751 2.22481C1.68449 2.21744 1.69403 2.21304 1.70417 2.2125H18.2958ZM18.2958 1.79584H1.70417C1.58352 1.79639 1.46801 1.8447 1.3829 1.9302C1.29778 2.01571 1.25 2.13144 1.25 2.25209V5.20834H18.75V2.25209C18.75 2.13144 18.7022 2.01571 18.6171 1.9302C18.532 1.8447 18.4165 1.79639 18.2958 1.79584Z" fill="#3A424A"/>
<path d="M2.82917 3.98331C3.09725 3.98331 3.31458 3.76598 3.31458 3.4979C3.31458 3.22981 3.09725 3.01248 2.82917 3.01248C2.56108 3.01248 2.34375 3.22981 2.34375 3.4979C2.34375 3.76598 2.56108 3.98331 2.82917 3.98331Z" fill="#3A424A"/>
<path d="M4.2875 3.98331C4.55559 3.98331 4.77292 3.76598 4.77292 3.4979C4.77292 3.22981 4.55559 3.01248 4.2875 3.01248C4.01941 3.01248 3.80208 3.22981 3.80208 3.4979C3.80208 3.76598 4.01941 3.98331 4.2875 3.98331Z" fill="#3A424A"/>
<path d="M5.74583 3.98331C6.01392 3.98331 6.23125 3.76598 6.23125 3.4979C6.23125 3.22981 6.01392 3.01248 5.74583 3.01248C5.47775 3.01248 5.26042 3.22981 5.26042 3.4979C5.26042 3.76598 5.47775 3.98331 5.74583 3.98331Z" fill="#3A424A"/>
</svg>
