<svg width="20" height="20" viewBox="0 0 20 20" fill="none" xmlns="http://www.w3.org/2000/svg">
<path d="M1.25 2.08331H1.25172C1.25058 2.09644 1.25 2.10966 1.25 2.12294V2.08331Z" fill="white"/>
<path d="M13.3875 16.6986C13.4607 17.0668 13.6065 17.4148 13.8143 17.7232H2.28958C1.97309 17.7232 1.66667 17.4485 1.66667 17.0481V5.07919H18.3333V14.3718C18.2728 14.2974 18.2085 14.2261 18.1405 14.1581C17.879 13.8966 17.5686 13.6892 17.2269 13.5477C16.8853 13.4061 16.5191 13.3333 16.1493 13.3333C15.5924 13.3333 15.0479 13.4985 14.5849 13.8079C14.1218 14.1173 13.7609 14.5571 13.5477 15.0716C13.3346 15.5862 13.2788 16.1524 13.3875 16.6986Z" fill="white"/>
<path d="M18.75 2.12292V2.08331H18.7483C18.7494 2.09643 18.75 2.10965 18.75 2.12292Z" fill="white"/>
<path fill-rule="evenodd" clip-rule="evenodd" d="M18.2958 2.08335C18.306 2.08389 18.3155 2.08829 18.3225 2.09566C18.3295 2.10303 18.3333 2.11279 18.3333 2.12294V4.6625H1.66667V2.12294C1.66665 2.11279 1.67054 2.10303 1.67751 2.09566C1.68449 2.08829 1.69403 2.08389 1.70417 2.08335H18.2958ZM2.82917 3.8542C3.09725 3.8542 3.31458 3.63687 3.31458 3.36878C3.31458 3.10069 3.09725 2.88336 2.82917 2.88336C2.56108 2.88336 2.34375 3.10069 2.34375 3.36878C2.34375 3.63687 2.56108 3.8542 2.82917 3.8542ZM4.77292 3.36878C4.77292 3.63687 4.55559 3.8542 4.2875 3.8542C4.01941 3.8542 3.80208 3.63687 3.80208 3.36878C3.80208 3.10069 4.01941 2.88336 4.2875 2.88336C4.55559 2.88336 4.77292 3.10069 4.77292 3.36878ZM5.74583 3.8542C6.01392 3.8542 6.23125 3.63687 6.23125 3.36878C6.23125 3.10069 6.01392 2.88336 5.74583 2.88336C5.47775 2.88336 5.26042 3.10069 5.26042 3.36878C5.26042 3.63687 5.47775 3.8542 5.74583 3.8542Z" fill="white"/>
<path fill-rule="evenodd" clip-rule="evenodd" d="M18.7 16.15C18.7 17.5583 17.5583 18.7 16.15 18.7C14.7416 18.7 13.6 17.5583 13.6 16.15C13.6 14.7416 14.7416 13.6 16.15 13.6C17.5583 13.6 18.7 14.7416 18.7 16.15ZM16.1459 13.9583C16.5785 13.9583 17.0014 14.0866 17.3612 14.327C17.7209 14.5673 18.0013 14.909 18.1669 15.3087C18.3324 15.7084 18.3757 16.1482 18.2913 16.5726C18.2069 16.9969 17.9986 17.3867 17.6927 17.6926C17.3867 17.9985 16.997 18.2069 16.5726 18.2913C16.1483 18.3757 15.7085 18.3324 15.3088 18.1668C14.909 18.0012 14.5674 17.7209 14.327 17.3611C14.0867 17.0014 13.9584 16.5785 13.9584 16.1458C13.959 15.5658 14.1897 15.0098 14.5998 14.5997C15.0099 14.1896 15.5659 13.9589 16.1459 13.9583Z" fill="white"/>
<path d="M15.8016 6.875H14.4631C14.315 6.875 14.1949 6.98712 14.1949 7.12543V14.122C14.3147 14.0064 14.4452 13.9012 14.5849 13.8079C15.0259 13.5132 15.5407 13.3494 16.0699 13.3344V7.12543C16.0699 6.98712 15.9498 6.875 15.8016 6.875Z" fill="#0067D1"/>
<path d="M10.6231 8.54167H9.43332C9.30164 8.54167 9.19489 8.69294 9.19489 8.87954V15.2871C9.19489 15.4737 9.30164 15.625 9.43332 15.625H10.6231C10.7548 15.625 10.8616 15.4737 10.8616 15.2871V8.87954C10.8616 8.69294 10.7548 8.54167 10.6231 8.54167Z" fill="#0067D1"/>
<path d="M8.09493 12.2917H6.90515C6.77346 12.2917 6.66671 12.3985 6.66671 12.5302V15.3865C6.66671 15.5182 6.77346 15.625 6.90515 15.625H8.09493C8.22662 15.625 8.33337 15.5182 8.33337 15.3865V12.5302C8.33337 12.3985 8.22662 12.2917 8.09493 12.2917Z" fill="#0067D1"/>
<path d="M4.21373 13.8038H5.48794C5.62897 13.8038 5.7433 13.9181 5.7433 14.0591V15.3334C5.7433 15.4744 5.62897 15.5887 5.48794 15.5887H4.21373C4.0727 15.5887 3.95837 15.4744 3.95837 15.3334V14.0591C3.95837 13.9181 4.0727 13.8038 4.21373 13.8038Z" fill="#0067D1"/>
<path d="M13.1231 9.79167H11.9333C11.8016 9.79167 11.6949 9.88511 11.6949 10.0004V15.4163C11.6949 15.5316 11.8016 15.625 11.9333 15.625H13.1231C13.2548 15.625 13.3616 15.5316 13.3616 15.4163V10.0004C13.3616 9.88511 13.2548 9.79167 13.1231 9.79167Z" fill="#0067D1"/>
<path fill-rule="evenodd" clip-rule="evenodd" d="M16.1458 13.9583C16.5785 13.9583 17.0014 14.0866 17.3611 14.327C17.7209 14.5674 18.0013 14.909 18.1668 15.3087C18.3324 15.7084 18.3757 16.1483 18.2913 16.5726C18.2069 16.9969 17.9986 17.3867 17.6926 17.6926C17.3867 17.9986 16.9969 18.2069 16.5726 18.2913C16.1483 18.3757 15.7084 18.3324 15.3087 18.1668C14.909 18.0013 14.5674 17.7209 14.327 17.3611C14.0866 17.0014 13.9583 16.5785 13.9583 16.1458C13.959 15.5659 14.1896 15.0098 14.5997 14.5997C15.0098 14.1896 15.5659 13.959 16.1458 13.9583ZM15.9003 17.5L17.5 15.3391L17.3269 15.2083L15.8765 17.1674L14.9445 16.227L14.7917 16.3815L15.9003 17.5Z" fill="#0067D1"/>
<path d="M3.31458 3.36878C3.31458 3.63687 3.09725 3.8542 2.82917 3.8542C2.56108 3.8542 2.34375 3.63687 2.34375 3.36878C2.34375 3.10069 2.56108 2.88336 2.82917 2.88336C3.09725 2.88336 3.31458 3.10069 3.31458 3.36878Z" fill="#3A424A"/>
<path d="M4.2875 3.8542C4.55559 3.8542 4.77292 3.63687 4.77292 3.36878C4.77292 3.10069 4.55559 2.88336 4.2875 2.88336C4.01941 2.88336 3.80208 3.10069 3.80208 3.36878C3.80208 3.63687 4.01941 3.8542 4.2875 3.8542Z" fill="#3A424A"/>
<path d="M6.23125 3.36878C6.23125 3.63687 6.01392 3.8542 5.74583 3.8542C5.47775 3.8542 5.26042 3.63687 5.26042 3.36878C5.26042 3.10069 5.47775 2.88336 5.74583 2.88336C6.01392 2.88336 6.23125 3.10069 6.23125 3.36878Z" fill="#3A424A"/>
<path d="M15.9003 17.5L17.5 15.3391L17.3269 15.2083L15.8765 17.1674L14.9445 16.227L14.7917 16.3815L15.9003 17.5Z" fill="#3A424A"/>
<path fill-rule="evenodd" clip-rule="evenodd" d="M18.75 2.12294C18.75 2.00229 18.7022 1.88656 18.6171 1.80105C18.532 1.71555 18.4165 1.66724 18.2958 1.66669H1.70417C1.58352 1.66724 1.46801 1.71555 1.3829 1.80105C1.29778 1.88656 1.25 2.00229 1.25 2.12294V17.0481C1.25 17.6429 1.71544 18.125 2.28958 18.125H14.1429C14.1479 18.1302 14.153 18.1353 14.1581 18.1404C14.552 18.5342 15.0537 18.8024 15.5999 18.9111C16.1462 19.0197 16.7124 18.9639 17.2269 18.7508C17.563 18.6116 17.8671 18.4094 18.1239 18.1568L19.5302 19.5619L19.7221 19.37L18.3081 17.9572C18.3731 17.8797 18.4341 17.7984 18.4907 17.7137C18.8001 17.2506 18.9652 16.7062 18.9652 16.1492C18.9652 15.7794 18.8924 15.4133 18.7509 15.0716L18.75 15.0695V2.12294ZM18.3333 14.3718V5.07919H1.66667V17.0481C1.66667 17.4485 1.97309 17.7232 2.28958 17.7232H13.8143C13.6065 17.4148 13.4607 17.0668 13.3875 16.6986C13.2788 16.1524 13.3346 15.5862 13.5477 15.0716C13.7609 14.5571 14.1218 14.1173 14.5849 13.8079C15.0479 13.4985 15.5924 13.3333 16.1493 13.3333C16.5191 13.3333 16.8853 13.4061 17.2269 13.5477C17.5686 13.6892 17.879 13.8966 18.1405 14.1581C18.2085 14.2261 18.2728 14.2974 18.3333 14.3718ZM18.3225 2.09566C18.3155 2.08829 18.306 2.08389 18.2958 2.08335H1.70417C1.69403 2.08389 1.68449 2.08829 1.67751 2.09566C1.67054 2.10303 1.66665 2.11279 1.66667 2.12294V4.6625H18.3333V2.12294C18.3333 2.11279 18.3295 2.10303 18.3225 2.09566ZM16.1493 13.6047C16.6526 13.6047 17.1445 13.754 17.563 14.0336C17.9814 14.3131 18.3075 14.7105 18.5001 15.1755C18.6927 15.6404 18.7431 16.1521 18.6449 16.6456C18.5467 17.1392 18.3044 17.5926 17.9485 17.9485C17.5927 18.3043 17.1393 18.5467 16.6457 18.6449C16.1521 18.743 15.6405 18.6926 15.1756 18.5001C14.7106 18.3075 14.3132 17.9813 14.0336 17.5629C13.754 17.1444 13.6048 16.6525 13.6048 16.1492C13.6055 15.4746 13.8738 14.8278 14.3509 14.3508C14.8279 13.8738 15.4747 13.6054 16.1493 13.6047Z" fill="#3A424A"/>
</svg>
