<svg width="20" height="20" viewBox="0 0 20 20" fill="none" xmlns="http://www.w3.org/2000/svg">
<path d="M5.85837 1.71873C6.26277 1.71832 6.65819 1.83788 6.9946 2.0623C7.33102 2.28671 7.59329 2.60588 7.74824 2.97941C7.90318 3.35294 7.94383 3.76404 7.86504 4.16068C7.78625 4.55733 7.59155 4.92168 7.30561 5.20763C7.01966 5.49358 6.6553 5.68827 6.25866 5.76706C5.86202 5.84585 5.45092 5.8052 5.07739 5.65026C4.70385 5.49532 4.38469 5.23304 4.16027 4.89663C3.93586 4.56022 3.8163 4.16479 3.81671 3.7604C3.81781 3.21925 4.03327 2.70059 4.41591 2.31794C4.79856 1.93529 5.31723 1.71983 5.85837 1.71873Z" fill="white"/>
<path d="M15.2779 2.0623C14.9415 1.83788 14.5461 1.71832 14.1417 1.71873C13.6004 1.71928 13.0814 1.93456 12.6986 2.31733C12.3159 2.7001 12.1006 3.21908 12.1 3.7604C12.0996 4.16479 12.2192 4.56022 12.4436 4.89663C12.668 5.23304 12.9872 5.49532 13.3607 5.65026C13.7343 5.8052 14.1454 5.84585 14.542 5.76706C14.9386 5.68827 15.303 5.49358 15.5889 5.20763C15.8749 4.92168 16.0696 4.55733 16.1484 4.16068C16.2272 3.76404 16.1865 3.35294 16.0316 2.97941C15.8766 2.60588 15.6144 2.28671 15.2779 2.0623Z" fill="white"/>
<path d="M8.48556 10.507C7.65442 9.99701 7.10003 9.07992 7.10003 8.03335C7.10003 7.75013 7.14063 7.47639 7.21633 7.21764C6.78369 7.06712 6.32512 6.98796 5.85837 6.98749C4.76083 6.98859 3.70855 7.42508 2.93246 8.20116C2.15638 8.97725 1.71989 10.0295 1.71879 11.1271V12.4771H6.70208C7.23594 12.062 7.84149 11.7529 8.48556 11.5637V11.7563H11.6078V11.592C12.217 11.7831 12.79 12.0821 13.298 12.4771H18.2813V11.1271C18.2802 10.0295 17.8437 8.97725 17.0676 8.20116C16.2915 7.42508 15.2393 6.98859 14.1417 6.98749C13.675 6.98796 13.2164 7.06713 12.7837 7.21764C12.8594 7.47639 12.9 7.75013 12.9 8.03335C12.9 9.04027 12.3869 9.92732 11.6078 10.4473V9.99998H8.48556V10.507Z" fill="white"/>
<path fill-rule="evenodd" clip-rule="evenodd" d="M4.49066 1.71585C4.89559 1.44566 5.37157 1.30165 5.85837 1.30206C6.51037 1.30206 7.13565 1.56107 7.59668 2.02209C8.05771 2.48312 8.31671 3.10841 8.31671 3.7604C8.31712 4.2472 8.17312 4.72318 7.90292 5.12812C7.63272 5.53305 7.24848 5.84873 6.79881 6.03521C6.34915 6.22169 5.85427 6.27059 5.3768 6.17572C4.89933 6.08085 4.46074 5.84648 4.11651 5.50226C3.77229 5.15804 3.53792 4.71944 3.44305 4.24197C3.34818 3.7645 3.39708 3.26962 3.58356 2.81996C3.77004 2.37029 4.08572 1.98605 4.49066 1.71585ZM6.9946 2.0623C6.65819 1.83788 6.26277 1.71832 5.85837 1.71873C5.31723 1.71983 4.79856 1.93529 4.41591 2.31794C4.03327 2.70059 3.81781 3.21925 3.81671 3.7604C3.8163 4.16479 3.93586 4.56022 4.16027 4.89663C4.38469 5.23304 4.70385 5.49532 5.07739 5.65026C5.45092 5.8052 5.86202 5.84585 6.25866 5.76706C6.6553 5.68827 7.01966 5.49358 7.30561 5.20763C7.59155 4.92168 7.78625 4.55733 7.86504 4.16068C7.94383 3.76404 7.90318 3.35294 7.74824 2.97941C7.59329 2.60588 7.33102 2.28671 6.9946 2.0623Z" fill="#3A424A"/>
<path fill-rule="evenodd" clip-rule="evenodd" d="M14.1417 1.30206C13.6549 1.30165 13.1789 1.44566 12.774 1.71585C12.3691 1.98605 12.0534 2.37029 11.8669 2.81996C11.6804 3.26962 11.6315 3.7645 11.7264 4.24197C11.8213 4.71944 12.0556 5.15804 12.3998 5.50226C12.7441 5.84648 13.1827 6.08085 13.6601 6.17572C14.1376 6.27059 14.6325 6.22169 15.0821 6.03521C15.5318 5.84873 15.9161 5.53305 16.1863 5.12812C16.4565 4.72318 16.6005 4.2472 16.6 3.7604C16.6 3.10841 16.341 2.48312 15.88 2.02209C15.419 1.56107 14.7937 1.30206 14.1417 1.30206ZM14.1417 1.71873C14.5461 1.71832 14.9415 1.83788 15.2779 2.0623C15.6144 2.28671 15.8766 2.60588 16.0316 2.97941C16.1865 3.35294 16.2272 3.76404 16.1484 4.16068C16.0696 4.55733 15.8749 4.92168 15.5889 5.20763C15.303 5.49358 14.9386 5.68827 14.542 5.76706C14.1454 5.84585 13.7343 5.8052 13.3607 5.65026C12.9872 5.49532 12.668 5.23304 12.4436 4.89663C12.2192 4.56022 12.0996 4.16479 12.1 3.7604C12.1006 3.21908 12.3159 2.7001 12.6986 2.31733C13.0814 1.93456 13.6004 1.71928 14.1417 1.71873Z" fill="#3A424A"/>
<path d="M7.21633 7.21764C6.78369 7.06712 6.32512 6.98796 5.85837 6.98749C4.76083 6.98859 3.70855 7.42508 2.93246 8.20116C2.15638 8.97725 1.71989 10.0295 1.71879 11.1271V12.4771H6.70208C6.53642 12.6059 6.37765 12.7449 6.22679 12.8937H1.30212V11.1271C1.30212 9.91868 1.78216 8.75978 2.63662 7.90532C3.49108 7.05085 4.64998 6.57082 5.85837 6.57082C6.37119 6.57059 6.87973 6.65692 7.36272 6.8256C7.30489 6.95168 7.25583 7.08262 7.21633 7.21764Z" fill="#3A424A"/>
<path d="M12.7837 7.21764C13.2164 7.06713 13.675 6.98796 14.1417 6.98749C15.2393 6.98859 16.2915 7.42508 17.0676 8.20116C17.8437 8.97725 18.2802 10.0295 18.2813 11.1271V12.4771H13.298C13.4636 12.6059 13.6224 12.7449 13.7733 12.8937H18.698V11.1271C18.698 10.5287 18.5801 9.93626 18.3511 9.38347C18.1222 8.83068 17.7866 8.3284 17.3635 7.90532C16.9404 7.48223 16.4381 7.14662 15.8853 6.91765C15.3325 6.68867 14.74 6.57082 14.1417 6.57082C13.6289 6.57059 13.1203 6.65693 12.6374 6.82561C12.6952 6.95168 12.7442 7.08262 12.7837 7.21764Z" fill="#3A424A"/>
<path d="M9.99999 10.9334C11.6016 10.9334 12.9 9.63499 12.9 8.03336C12.9 6.43174 11.6016 5.13336 9.99999 5.13336C8.39837 5.13336 7.09999 6.43174 7.09999 8.03336C7.09999 9.63499 8.39837 10.9334 9.99999 10.9334Z" fill="#0067D1"/>
<path d="M9.99999 11.3459C11.425 11.3459 12.7916 11.9119 13.7992 12.9196C14.8068 13.9272 15.3729 15.2938 15.3729 16.7188V18.8021H4.62708V16.7188C4.62708 15.2938 5.19315 13.9272 6.20077 12.9196C7.20838 11.9119 8.57501 11.3459 9.99999 11.3459Z" fill="#0067D1"/>
</svg>
