<svg width="20" height="20" viewBox="0 0 20 20" fill="none" xmlns="http://www.w3.org/2000/svg">
<path fill-rule="evenodd" clip-rule="evenodd" d="M9.99997 1.66669C10.8656 1.66669 11.7007 1.75345 12.4861 1.91435C14.4253 2.84272 15.7645 4.82332 15.7645 7.11674C15.7645 9.41273 14.4222 11.3952 12.4796 12.3223C11.696 12.4824 10.8631 12.5688 9.99997 12.5688C9.13703 12.5688 8.30435 12.4825 7.52099 12.3226C5.57798 11.3957 4.23538 9.41298 4.23538 7.11674C4.23538 4.82307 5.57496 2.84228 7.51444 1.91404C8.29971 1.75333 9.13462 1.66669 9.99997 1.66669ZM12.8833 7.11665C12.8833 8.70907 11.5924 9.99998 9.99998 9.99998C8.40756 9.99998 7.11665 8.70907 7.11665 7.11665C7.11665 5.52423 8.40756 4.23332 9.99998 4.23332C11.5924 4.23332 12.8833 5.52423 12.8833 7.11665Z" fill="#0067D1"/>
<path d="M12.5729 15.6626H7.42707C7.19925 15.6626 7.01457 15.8472 7.01457 16.0751V18.3376C7.01457 18.5654 7.19925 18.7501 7.42707 18.7501H12.5729C12.8007 18.7501 12.9854 18.5654 12.9854 18.3376V16.0751C12.9854 15.8472 12.8007 15.6626 12.5729 15.6626Z" fill="#0067D1"/>
<path d="M16.8958 14.6375H14.6333C14.4055 14.6375 14.2208 14.8222 14.2208 15.05V17.3125C14.2208 17.5403 14.4055 17.725 14.6333 17.725H16.8958C17.1236 17.725 17.3083 17.5403 17.3083 17.3125V15.05C17.3083 14.8222 17.1236 14.6375 16.8958 14.6375Z" fill="#0067D1"/>
<path d="M5.36665 14.6375H3.10415C2.87633 14.6375 2.69165 14.8222 2.69165 15.05V17.3125C2.69165 17.5403 2.87633 17.725 3.10415 17.725H5.36665C5.59447 17.725 5.77915 17.5403 5.77915 17.3125V15.05C5.77915 14.8222 5.59447 14.6375 5.36665 14.6375Z" fill="#0067D1"/>
<path d="M7.52102 12.3226C5.57801 11.3957 4.23541 9.413 4.23541 7.11675C4.23541 4.82309 5.57499 2.8423 7.51446 1.91406C4.1292 2.60691 1.66667 4.6765 1.66667 7.1167C1.66667 9.55848 4.13238 11.6305 7.52102 12.3226Z" fill="white"/>
<path d="M12.4862 1.91437C15.8711 2.60781 18.3333 4.67834 18.3333 7.1167C18.3333 9.55664 15.8679 11.6297 12.4796 12.3223C14.4223 11.3952 15.7646 9.41275 15.7646 7.11675C15.7646 4.82334 14.4253 2.84274 12.4862 1.91437Z" fill="white"/>
<path d="M10 10C11.5924 10 12.8833 8.70909 12.8833 7.11667C12.8833 5.52425 11.5924 4.23333 10 4.23333C8.40758 4.23333 7.11667 5.52425 7.11667 7.11667C7.11667 8.70909 8.40758 10 10 10Z" fill="#3A424A"/>
<path fill-rule="evenodd" clip-rule="evenodd" d="M1.25 7.11667C1.25 3.87708 5.16667 1.25 10 1.25C14.8333 1.25 18.75 3.875 18.75 7.11667C18.75 10.3583 14.8333 12.9854 10 12.9854C5.16667 12.9854 1.25 10.3562 1.25 7.11667ZM18.3333 7.1167C18.3333 4.11254 14.5958 1.66667 10 1.66667C5.40417 1.66667 1.66667 4.11045 1.66667 7.1167C1.66667 10.123 5.40417 12.5688 10 12.5688C14.5958 12.5688 18.3333 10.1209 18.3333 7.1167Z" fill="#3A424A"/>
<path d="M9.79167 12.9854V13.8499H4.55443C4.47586 13.8469 4.39742 13.8592 4.3235 13.8861C4.24787 13.9137 4.17848 13.956 4.11939 14.0107C4.0603 14.0653 4.01268 14.1312 3.97932 14.2045C3.94596 14.2778 3.92753 14.3569 3.92509 14.4374L3.92499 14.4405V14.6374H4.34166V14.4474C4.34273 14.4231 4.34845 14.3993 4.35852 14.3772C4.36896 14.3543 4.38385 14.3337 4.40233 14.3166C4.42081 14.2995 4.4425 14.2862 4.46615 14.2776C4.4898 14.269 4.51493 14.2652 4.54008 14.2664L4.54503 14.2666H9.79167V15.6625H10.2083V14.2666H15.4612L15.4662 14.2664C15.4913 14.2652 15.5164 14.269 15.5401 14.2776C15.5637 14.2862 15.5854 14.2995 15.6039 14.3166C15.6224 14.3337 15.6373 14.3543 15.6477 14.3772C15.6578 14.3993 15.6635 14.4232 15.6646 14.4474V14.6374H16.0812V14.4405L16.0811 14.4374C16.0787 14.3569 16.0603 14.2777 16.0269 14.2045C15.9936 14.1312 15.9459 14.0653 15.8868 14.0107C15.8278 13.956 15.7584 13.9137 15.6827 13.8861C15.6088 13.8592 15.5304 13.8469 15.4518 13.8499H10.2083V12.9854H9.79167Z" fill="#3A424A"/>
</svg>
