<svg width="20" height="20" viewBox="0 0 20 20" fill="none" xmlns="http://www.w3.org/2000/svg">
<path d="M18.3375 2.30212V6.16462H15.2354V2.30212H18.3375Z" fill="white"/>
<path d="M7.82494 2.33961V6.33336H1.67078V2.33961H7.82494Z" fill="white"/>
<path fill-rule="evenodd" clip-rule="evenodd" d="M13.4291 11.9563V12.9125H6.57914V11.9563H13.4291ZM6.98749 12.6479C7.10485 12.6479 7.19999 12.5528 7.19999 12.4354C7.19999 12.3181 7.10485 12.2229 6.98749 12.2229C6.87013 12.2229 6.77499 12.3181 6.77499 12.4354C6.77499 12.5528 6.87013 12.6479 6.98749 12.6479ZM7.62916 12.6479C7.74652 12.6479 7.84166 12.5528 7.84166 12.4354C7.84166 12.3181 7.74652 12.2229 7.62916 12.2229C7.5118 12.2229 7.41666 12.3181 7.41666 12.4354C7.41666 12.5528 7.5118 12.6479 7.62916 12.6479ZM8.48124 12.4354C8.48124 12.5528 8.3861 12.6479 8.26874 12.6479C8.15138 12.6479 8.05624 12.5528 8.05624 12.4354C8.05624 12.3181 8.15138 12.2229 8.26874 12.2229C8.3861 12.2229 8.48124 12.3181 8.48124 12.4354Z" fill="white"/>
<path d="M18.3375 1.66247V6.79997H15.2354V1.66247H18.3375ZM18.4729 1.2458H15.1C15.063 1.24552 15.0263 1.25261 14.9921 1.26664C14.9578 1.28068 14.9267 1.30139 14.9005 1.32756C14.8744 1.35373 14.8536 1.38484 14.8396 1.41909C14.8256 1.45334 14.8185 1.49004 14.8188 1.52705V6.94372C14.8188 6.98055 14.8261 7.01702 14.8402 7.05103C14.8544 7.08504 14.8751 7.11591 14.9013 7.14186C14.9274 7.16781 14.9584 7.18833 14.9925 7.20223C15.0267 7.21614 15.0632 7.22316 15.1 7.22288H18.4688C18.5065 7.22374 18.544 7.21694 18.579 7.2029C18.614 7.18886 18.6458 7.16786 18.6725 7.14119C18.6992 7.11451 18.7202 7.08271 18.7342 7.04769C18.7482 7.01268 18.755 6.97518 18.7542 6.93747V1.53122C18.755 1.4935 18.7482 1.456 18.7342 1.42099C18.7202 1.38597 18.6992 1.35417 18.6725 1.32749C18.6458 1.30082 18.614 1.27983 18.579 1.26578C18.544 1.25174 18.5065 1.24494 18.4688 1.2458H18.4729Z" fill="#3A424A"/>
<path d="M7.82501 1.66245V7.0062H1.67084V1.66245H7.82501ZM7.86251 1.24578H1.63126C1.58119 1.24632 1.53172 1.25672 1.48567 1.27639C1.43962 1.29605 1.3979 1.32459 1.36289 1.36038C1.32787 1.39617 1.30025 1.43851 1.28159 1.48498C1.26294 1.53144 1.25362 1.58113 1.25417 1.6312V7.04786C1.25417 7.14897 1.29434 7.24595 1.36584 7.31745C1.43734 7.38894 1.53431 7.42911 1.63542 7.42911H7.86251C7.91248 7.42911 7.96195 7.41924 8.00809 7.40005C8.05423 7.38087 8.09612 7.35275 8.13136 7.31732C8.16659 7.28189 8.19448 7.23985 8.21341 7.1936C8.23234 7.14736 8.24195 7.09783 8.24167 7.04786V1.6312C8.2425 1.58088 8.23331 1.5309 8.21462 1.48417C8.19594 1.43745 8.16814 1.39491 8.13285 1.35903C8.09756 1.32316 8.05548 1.29467 8.00907 1.27523C7.96265 1.25578 7.91283 1.24577 7.86251 1.24578Z" fill="#3A424A"/>
<path d="M13.4292 11.9562V12.9124H6.57918V11.9562H13.4292ZM13.6375 11.5395H6.38127C6.35214 11.538 6.32303 11.5427 6.29582 11.5531C6.2686 11.5636 6.24388 11.5797 6.22326 11.6003C6.20264 11.6209 6.18658 11.6456 6.17612 11.6728C6.16565 11.7 6.16102 11.7292 6.16252 11.7583V13.3291H13.8458V11.7583C13.8473 11.7301 13.8429 11.7018 13.8331 11.6754C13.8232 11.6489 13.8081 11.6246 13.7886 11.6042C13.7692 11.5837 13.7457 11.5674 13.7197 11.5563C13.6937 11.5452 13.6658 11.5395 13.6375 11.5395Z" fill="#3A424A"/>
<path d="M6.98753 12.6478C7.1049 12.6478 7.20003 12.5527 7.20003 12.4353C7.20003 12.318 7.1049 12.2228 6.98753 12.2228C6.87017 12.2228 6.77503 12.318 6.77503 12.4353C6.77503 12.5527 6.87017 12.6478 6.98753 12.6478Z" fill="#3A424A"/>
<path d="M7.6292 12.6478C7.74656 12.6478 7.8417 12.5527 7.8417 12.4353C7.8417 12.318 7.74656 12.2228 7.6292 12.2228C7.51184 12.2228 7.4167 12.318 7.4167 12.4353C7.4167 12.5527 7.51184 12.6478 7.6292 12.6478Z" fill="#3A424A"/>
<path d="M8.26878 12.6478C8.38614 12.6478 8.48128 12.5527 8.48128 12.4353C8.48128 12.318 8.38614 12.2228 8.26878 12.2228C8.15142 12.2228 8.05628 12.318 8.05628 12.4353C8.05628 12.5527 8.15142 12.6478 8.26878 12.6478Z" fill="#3A424A"/>
<path d="M8.38622 4.54788V4.13122H8.79136V4.54788H8.38622Z" fill="#3A424A"/>
<path d="M14.8187 6.61513L14.743 6.56972L14.5309 6.92343L14.8882 7.13776L14.8917 7.13189C14.87 7.10814 14.8526 7.08078 14.8402 7.05103C14.8261 7.01702 14.8188 6.98055 14.8188 6.94372L14.8187 6.61513Z" fill="#3A424A"/>
<path d="M7.76871 11.5395H8.24335L8.10659 11.2889L7.74082 11.4884L7.76871 11.5395Z" fill="#3A424A"/>
<path d="M11.8024 11.5395H11.7619L11.7726 11.5217L11.8024 11.5395Z" fill="#3A424A"/>
<path d="M14.676 7.49147L14.3187 7.27714L14.1065 7.63085L14.4638 7.84518L14.676 7.49147Z" fill="#3A424A"/>
<path d="M13.8943 7.98456L14.2516 8.19889L14.0395 8.5526L13.6822 8.33827L13.8943 7.98456Z" fill="#3A424A"/>
<path d="M13.8273 8.90631L13.47 8.69198L13.2578 9.04569L13.6151 9.26003L13.8273 8.90631Z" fill="#3A424A"/>
<path d="M13.0456 9.3994L13.4029 9.61374L13.1908 9.96745L12.8335 9.75311L13.0456 9.3994Z" fill="#3A424A"/>
<path d="M12.9786 10.3212L12.6213 10.1068L12.4091 10.4605L12.7664 10.6749L12.9786 10.3212Z" fill="#3A424A"/>
<path d="M12.1969 10.8142L12.5542 11.0286L12.3421 11.3823L11.9848 11.168L12.1969 10.8142Z" fill="#3A424A"/>
<path d="M7.53499 11.1111L7.90076 10.9116L7.69493 10.5343L7.32915 10.7338L7.53499 11.1111Z" fill="#3A424A"/>
<path d="M7.48909 10.157L7.12332 10.3565L6.91749 9.97924L7.28326 9.77969L7.48909 10.157Z" fill="#3A424A"/>
<path d="M6.71165 9.60194L7.07743 9.4024L6.87159 9.0251L6.50582 9.22465L6.71165 9.60194Z" fill="#3A424A"/>
<path d="M6.66576 8.64781L6.29999 8.84736L6.09415 8.47007L6.45993 8.27052L6.66576 8.64781Z" fill="#3A424A"/>
<path d="M5.88832 8.09278L6.25409 7.89323L6.04826 7.51594L5.68249 7.71549L5.88832 8.09278Z" fill="#3A424A"/>
<path d="M9.1965 4.13122V4.54788H9.60165V4.13122H9.1965Z" fill="#3A424A"/>
<path d="M10.0068 4.54788V4.13122H10.4119V4.54788H10.0068Z" fill="#3A424A"/>
<path d="M10.8171 4.13122V4.54788H11.2222V4.13122H10.8171Z" fill="#3A424A"/>
<path d="M11.6274 4.54788V4.13122H12.0325V4.54788H11.6274Z" fill="#3A424A"/>
<path d="M12.4376 4.13122V4.54788H12.8428V4.13122H12.4376Z" fill="#3A424A"/>
<path d="M13.2479 4.54788V4.13122H13.6531V4.54788H13.2479Z" fill="#3A424A"/>
<path d="M14.0582 4.13122V4.54788H14.4634V4.13122H14.0582Z" fill="#3A424A"/>
<path d="M18.3375 2.30206V1.66248H15.2354V2.30206H18.3375Z" fill="#0067D1"/>
<path d="M18.3375 6.16456H15.2354V6.79998H18.3375V6.16456Z" fill="#0067D1"/>
<path d="M7.82494 2.33956V1.66248H1.67078V2.33956H7.82494Z" fill="#0067D1"/>
<path d="M7.82494 6.33331H1.67078V7.00623H7.82494V6.33331Z" fill="#0067D1"/>
<path d="M6.16251 13.3291V18.2854C6.16251 18.5374 6.36678 18.7416 6.61876 18.7416H13.3896C13.6416 18.7416 13.8458 18.5374 13.8458 18.2854C13.8458 17.5241 13.8458 13.3291 13.8458 13.3291H6.16251Z" fill="#0067D1"/>
</svg>
