<svg width="20" height="20" viewBox="0 0 20 20" fill="none" xmlns="http://www.w3.org/2000/svg">
<path fill-rule="evenodd" clip-rule="evenodd" d="M15.9042 9.99999C15.9042 13.2608 13.2608 15.9042 9.99999 15.9042C6.73921 15.9042 4.09583 13.2608 4.09583 9.99999C4.09583 6.73921 6.73921 4.09583 9.99999 4.09583C13.2608 4.09583 15.9042 6.73921 15.9042 9.99999ZM9.3971 12.7819L13.2478 7.66061L12.9147 7.41021L9.35293 12.1473L7.06633 9.85293L6.7712 10.1471L9.3971 12.7819Z" fill="#0067D1"/>
<path fill-rule="evenodd" clip-rule="evenodd" d="M18.5417 17.9167V9.89378H18.9584V17.9167C18.9584 18.193 18.8486 18.4579 18.6533 18.6533C18.4579 18.8486 18.193 18.9584 17.9167 18.9584H9.68336V18.5417H17.9167C18.0825 18.5417 18.2414 18.4758 18.3586 18.3586C18.4758 18.2414 18.5417 18.0825 18.5417 17.9167Z" fill="#3A424A"/>
<path fill-rule="evenodd" clip-rule="evenodd" d="M2.09115 1.45834C2.00776 1.45729 1.925 1.47294 1.84775 1.50438C1.7705 1.53581 1.70032 1.58238 1.64135 1.64135C1.58238 1.70032 1.53581 1.7705 1.50438 1.84775C1.47294 1.925 1.45729 2.00776 1.45834 2.09115L1.45838 2.09378L1.45836 10.1063H1.04169V2.09501C1.04013 1.95649 1.06622 1.81905 1.11843 1.69073C1.17081 1.56197 1.24844 1.44501 1.34672 1.34672C1.44501 1.24844 1.56197 1.17081 1.69073 1.11843C1.81905 1.06622 1.95649 1.04013 2.09501 1.04169H10.1063V1.45836L2.09115 1.45834Z" fill="#3A424A"/>
<path fill-rule="evenodd" clip-rule="evenodd" d="M13.2478 7.66064L9.39711 12.7819L6.77121 10.1471L7.06634 9.85296L9.35294 12.1473L12.9148 7.41024L13.2478 7.66064Z" fill="#3A424A"/>
<path d="M12.6756 4.73552L14.8898 2.55901L14.5977 2.26187L12.2714 4.5486C12.4089 4.60593 12.5437 4.66832 12.6756 4.73552Z" fill="#3A424A"/>
<path d="M4.69028 12.5849L3.04542 14.2018L4.79379 14.1521L4.80629 14.5688L2.3042 14.6396L2.4167 12.1396L2.83337 12.1563L2.75546 13.9026L4.51036 12.1775C4.56532 12.316 4.62538 12.4519 4.69028 12.5849Z" fill="#3A424A"/>
<path d="M7.18617 15.1918C7.31507 15.2618 7.44687 15.3272 7.58134 15.3876L5.29608 17.634L5.00399 17.3369L7.18617 15.1918Z" fill="#3A424A"/>
<path d="M15.4284 7.67415C15.3702 7.53863 15.3072 7.40572 15.2394 7.27565L16.8486 5.69381L15.1 5.74169L15.0896 5.32502L17.5917 5.25627L17.4771 7.75627L17.0625 7.73752L17.1405 5.99116L15.4284 7.67415Z" fill="#3A424A"/>
</svg>
