<svg width="20" height="20" viewBox="0 0 20 20" fill="none" xmlns="http://www.w3.org/2000/svg">
<path fill-rule="evenodd" clip-rule="evenodd" d="M16.4 7.04791H1.63337C1.36414 7.04791 1.14587 7.26617 1.14587 7.53541V18.3667C1.14587 18.6359 1.36414 18.8542 1.63337 18.8542H16.4C16.6693 18.8542 16.8875 18.6359 16.8875 18.3667V16.1951C16.4003 16.363 15.8761 16.3991 15.3685 16.2981C14.8028 16.1856 14.283 15.9078 13.8751 15.4999C13.4672 15.092 13.1895 14.5723 13.0769 14.0065C12.9644 13.4407 13.0221 12.8543 13.2429 12.3213C13.4636 11.7884 13.8375 11.3328 14.3171 11.0124C14.7968 10.6919 15.3607 10.5208 15.9375 10.5208C16.2639 10.5208 16.5847 10.5755 16.8875 10.6799V7.53541C16.8875 7.26617 16.6693 7.04791 16.4 7.04791ZM10.625 12.9166C10.625 13.7605 9.99787 14.4579 9.18421 14.5681L9.68911 15.4657C9.77577 15.6198 9.66444 15.8102 9.48767 15.8102H8.42907C8.25231 15.8102 8.14097 15.6198 8.22764 15.4657L8.73253 14.5681C7.91888 14.4579 7.29171 13.7605 7.29171 12.9166C7.29171 11.9962 8.0379 11.25 8.95837 11.25C9.87885 11.25 10.625 11.9962 10.625 12.9166Z" fill="#0067D1"/>
<path d="M9.18413 14.5681C9.99779 14.4579 10.625 13.7605 10.625 12.9166C10.625 11.9962 9.87877 11.25 8.95829 11.25C8.03782 11.25 7.29163 11.9962 7.29163 12.9166C7.29163 13.7605 7.9188 14.4579 8.73245 14.5681L8.22755 15.4657C8.14089 15.6198 8.25223 15.8102 8.42899 15.8102H9.48759C9.66436 15.8102 9.77569 15.6198 9.68903 15.4657L9.18413 14.5681Z" fill="white"/>
<path d="M17.3264 11.3588C16.9153 11.0841 16.4319 10.9375 15.9375 10.9375C15.2744 10.9375 14.6385 11.2009 14.1697 11.6697C13.7009 12.1386 13.4375 12.7744 13.4375 13.4375C13.4375 13.9319 13.5841 14.4153 13.8588 14.8264C14.1335 15.2375 14.5239 15.558 14.9808 15.7472C15.4376 15.9364 15.9402 15.9859 16.4252 15.8894C16.9101 15.793 17.3556 15.5549 17.7052 15.2052C18.0549 14.8556 18.293 14.4102 18.3894 13.9252C18.4859 13.4403 18.4364 12.9376 18.2472 12.4808C18.0579 12.024 17.7375 11.6335 17.3264 11.3588Z" fill="white"/>
<path d="M11.8011 2.71758C11.0626 1.979 10.0612 1.56358 9.01665 1.56248C7.97215 1.56358 6.97074 1.979 6.23216 2.71758C5.49359 3.45615 5.07817 4.45756 5.07707 5.50206V7.04791H4.6604V5.50206C4.6604 4.34671 5.11936 3.23868 5.93632 2.42173C6.75327 1.60477 7.8613 1.14581 9.01665 1.14581C10.172 1.14581 11.28 1.60477 12.097 2.42173C12.9139 3.23868 13.3729 4.34671 13.3729 5.50206V7.04791H12.9562V5.50206C12.9551 4.45756 12.5397 3.45615 11.8011 2.71758Z" fill="#3A424A"/>
<path d="M15.9375 10.9375C16.4319 10.9375 16.9153 11.0841 17.3264 11.3588C17.7375 11.6335 18.0579 12.024 18.2472 12.4808C18.4364 12.9376 18.4859 13.4403 18.3894 13.9252C18.293 14.4102 18.0549 14.8556 17.7052 15.2052C17.3556 15.5549 16.9101 15.793 16.4252 15.8894C15.9402 15.9859 15.4376 15.9364 14.9808 15.7472C14.5239 15.558 14.1335 15.2375 13.8588 14.8264C13.5841 14.4153 13.4375 13.9319 13.4375 13.4375C13.4375 12.7744 13.7009 12.1386 14.1697 11.6697C14.6385 11.2009 15.2744 10.9375 15.9375 10.9375ZM15.9375 10.5208C15.3606 10.5208 14.7967 10.6919 14.317 11.0124C13.8374 11.3328 13.4636 11.7884 13.2428 12.3213C13.0221 12.8543 12.9643 13.4407 13.0768 14.0065C13.1894 14.5723 13.4672 15.092 13.8751 15.4999C14.283 15.9078 14.8027 16.1856 15.3684 16.2981C15.9342 16.4106 16.5207 16.3529 17.0536 16.1321C17.5866 15.9114 18.0421 15.5375 18.3626 15.0579C18.6831 14.5782 18.8541 14.0143 18.8541 13.4375C18.8541 12.6639 18.5468 11.9221 17.9999 11.3751C17.4529 10.8281 16.711 10.5208 15.9375 10.5208Z" fill="#3A424A"/>
<path d="M16.2321 13.4375L17.0744 12.5952L16.7797 12.3006L15.9375 13.1429L15.0952 12.3006L14.8006 12.5952L15.6428 13.4375L14.8006 14.2798L15.0952 14.5744L15.9375 13.7321L16.7797 14.5744L17.0744 14.2798L16.2321 13.4375Z" fill="#3A424A"/>
</svg>
