<svg width="20" height="20" viewBox="0 0 20 20" fill="none" xmlns="http://www.w3.org/2000/svg">
<path d="M3.19373 10.7833L10.2833 1.33331L16.7812 7.83123L7.32914 14.9187L3.19373 10.7833Z" fill="#0067D1"/>
<path fill-rule="evenodd" clip-rule="evenodd" d="M6.73541 14.9145L3.19374 11.3728L1.71666 12.852L5.25833 16.3937L6.73541 14.9145ZM4.30207 14.5696C4.63969 14.5696 4.91339 14.2959 4.91339 13.9583C4.91339 13.6207 4.63969 13.347 4.30207 13.347C3.96445 13.347 3.69076 13.6207 3.69076 13.9583C3.69076 14.2959 3.96445 14.5696 4.30207 14.5696Z" fill="white"/>
<path d="M7.10831 15.2874L9.47081 17.652L8.87914 18.2437L6.51456 15.8791L7.10831 15.2874Z" fill="white"/>
<path d="M4.30207 14.5696C4.63969 14.5696 4.91339 14.2959 4.91339 13.9583C4.91339 13.6207 4.63969 13.347 4.30207 13.347C3.96445 13.347 3.69076 13.6207 3.69076 13.9583C3.69076 14.2959 3.96445 14.5696 4.30207 14.5696Z" fill="#3A424A"/>
<path fill-rule="evenodd" clip-rule="evenodd" d="M1.12708 12.852L3.19374 10.7833L10.0604 17.652L8.87914 18.8333L6.14841 16.1006L5.26249 16.9874L1.12708 12.852ZM6.73541 14.9145L3.19374 11.3728L1.71666 12.852L5.25833 16.3937L6.73541 14.9145ZM9.47081 17.652L7.10831 15.2874L6.51456 15.8791L8.87914 18.2437L9.47081 17.652Z" fill="#3A424A"/>
<path d="M14.122 5.17194C14.2731 5.02076 14.3666 4.81191 14.3666 4.58122C14.3666 4.11983 13.9926 3.7458 13.5312 3.7458C13.3005 3.7458 13.0917 3.83931 12.9405 3.99048L14.122 5.17194Z" fill="#3A424A"/>
<path fill-rule="evenodd" clip-rule="evenodd" d="M16.5202 1.89729L14.641 3.77646L14.3464 3.48183L16.2256 1.60266L16.5202 1.89729Z" fill="#3A424A"/>
<path fill-rule="evenodd" clip-rule="evenodd" d="M16.4159 3.25576L15.2659 4.40367L14.9716 4.10878L16.1216 2.96086L16.4159 3.25576Z" fill="#3A424A"/>
<path fill-rule="evenodd" clip-rule="evenodd" d="M15.162 2.00132L14.0141 3.15132L13.7192 2.85696L14.8671 1.70696L15.162 2.00132Z" fill="#3A424A"/>
</svg>
