<svg width="20" height="20" viewBox="0 0 20 20" fill="none" xmlns="http://www.w3.org/2000/svg">
<path d="M15.6743 14.8748H5.64514C4.52834 14.8101 3.47195 14.3463 2.66858 13.5678C1.8652 12.7894 1.36834 11.7481 1.26859 10.6339C1.16884 9.5197 1.47283 8.40674 2.12515 7.49795C2.77747 6.58916 3.73466 5.94506 4.82222 5.68309C5.50272 4.61589 6.50412 3.79198 7.68242 3.32982C8.86073 2.86767 10.1552 2.79107 11.3798 3.11105C12.6044 3.43103 13.696 4.1311 14.4976 5.1106C15.2992 6.0901 15.7695 7.29857 15.841 8.56225C16.63 8.65039 17.3572 9.0315 17.8786 9.63016C18.4001 10.2288 18.6778 11.0014 18.6568 11.795C18.6359 12.5887 18.3178 13.3455 17.7655 13.9159C17.2131 14.4862 16.4669 14.8284 15.6743 14.8748Z" fill="#0067D1"/>
<path d="M4.77454 16.5091V9.44269C4.77454 9.32174 4.87259 9.22369 4.99353 9.22369H8.21777C8.33872 9.22369 8.43677 9.32174 8.43677 9.44269V10.0767C8.43677 10.1977 8.53482 10.2957 8.65577 10.2957H14.9144C15.0354 10.2957 15.1334 10.3938 15.1334 10.5147V16.5091C15.1334 16.63 15.0354 16.7281 14.9144 16.7281H4.99354C4.87259 16.7281 4.77454 16.63 4.77454 16.5091Z" fill="white"/>
<path fill-rule="evenodd" clip-rule="evenodd" d="M4.44653 16.509V9.44266C4.44653 9.14058 4.69142 8.89569 4.9935 8.89569H8.21774C8.51982 8.89569 8.76471 9.14058 8.76471 9.44266V9.96774H14.9144C15.2165 9.96774 15.4614 10.2126 15.4614 10.5147V16.509C15.4614 16.8111 15.2165 17.056 14.9144 17.056H4.9935C4.69142 17.056 4.44653 16.8111 4.44653 16.509ZM4.7745 9.44266V16.509C4.7745 16.63 4.87255 16.728 4.9935 16.728H14.9144C15.0354 16.728 15.1334 16.63 15.1334 16.509V10.5147C15.1334 10.3938 15.0354 10.2957 14.9144 10.2957H8.65574C8.53479 10.2957 8.43674 10.1977 8.43674 10.0767V9.44266C8.43674 9.32171 8.33869 9.22366 8.21774 9.22366H4.9935C4.87255 9.22366 4.7745 9.32171 4.7745 9.44266Z" fill="#3A424A"/>
</svg>
