<svg width="20" height="20" viewBox="0 0 20 20" fill="none" xmlns="http://www.w3.org/2000/svg">
<path fill-rule="evenodd" clip-rule="evenodd" d="M10 15.4444C13.0069 15.4444 15.4444 13.0069 15.4444 10C15.4444 6.99312 13.0069 4.55556 10 4.55556C6.99312 4.55556 4.55556 6.99312 4.55556 10C4.55556 13.0069 6.99312 15.4444 10 15.4444ZM10 15.8333C13.2217 15.8333 15.8333 13.2217 15.8333 10C15.8333 6.77834 13.2217 4.16667 10 4.16667C6.77834 4.16667 4.16667 6.77834 4.16667 10C4.16667 13.2217 6.77834 15.8333 10 15.8333Z" fill="#3A424A"/>
<path fill-rule="evenodd" clip-rule="evenodd" d="M10.1042 2.5V4.375H9.89583V2.5H10.1042ZM15.6987 4.55282L14.1362 6.11532L13.9888 5.96801L15.5513 4.40551L15.6987 4.55282Z" fill="#3A424A"/>
<path fill-rule="evenodd" clip-rule="evenodd" d="M2.5 9.89583H4.375V10.1042H2.5V9.89583ZM17.5 10.1042H15.625V9.89583H17.5V10.1042Z" fill="#3A424A"/>
<path fill-rule="evenodd" clip-rule="evenodd" d="M4.44866 4.40551L6.01116 5.96801L5.86384 6.11532L4.30134 4.55282L4.44866 4.40551ZM4.30134 15.4472L5.86384 13.8847L6.01116 14.032L4.44866 15.5945L4.30134 15.4472ZM15.5513 15.5945L13.9888 14.032L14.1362 13.8847L15.6987 15.4472L15.5513 15.5945ZM9.89583 17.5V15.7292H10.1042V17.5H9.89583Z" fill="#3A424A"/>
<path d="M14.1667 10C14.1667 12.3012 12.3012 14.1667 10 14.1667C7.69881 14.1667 5.83333 12.3012 5.83333 10C5.83333 7.69881 7.69881 5.83333 10 5.83333C12.3012 5.83333 14.1667 7.69881 14.1667 10Z" fill="#0067D1"/>
<path d="M10.625 1.875C10.625 2.22018 10.3452 2.5 10 2.5C9.65482 2.5 9.375 2.22018 9.375 1.875C9.375 1.52982 9.65482 1.25 10 1.25C10.3452 1.25 10.625 1.52982 10.625 1.875Z" fill="#0067D1"/>
<path d="M16.4583 4.16667C16.4583 4.51184 16.1785 4.79167 15.8333 4.79167C15.4882 4.79167 15.2083 4.51184 15.2083 4.16667C15.2083 3.82149 15.4882 3.54167 15.8333 3.54167C16.1785 3.54167 16.4583 3.82149 16.4583 4.16667Z" fill="#0067D1"/>
<path d="M18.75 10C18.75 10.3452 18.4702 10.625 18.125 10.625C17.7798 10.625 17.5 10.3452 17.5 10C17.5 9.65482 17.7798 9.375 18.125 9.375C18.4702 9.375 18.75 9.65482 18.75 10Z" fill="#0067D1"/>
<path d="M3.54167 4.16667C3.54167 4.51184 3.82149 4.79167 4.16667 4.79167C4.51184 4.79167 4.79167 4.51184 4.79167 4.16667C4.79167 3.82149 4.51184 3.54167 4.16667 3.54167C3.82149 3.54167 3.54167 3.82149 3.54167 4.16667Z" fill="#0067D1"/>
<path d="M1.25 10C1.25 10.3452 1.52982 10.625 1.875 10.625C2.22018 10.625 2.5 10.3452 2.5 10C2.5 9.65482 2.22018 9.375 1.875 9.375C1.52982 9.375 1.25 9.65482 1.25 10Z" fill="#0067D1"/>
<path d="M10.625 18.125C10.625 17.7798 10.3452 17.5 10 17.5C9.65482 17.5 9.375 17.7798 9.375 18.125C9.375 18.4702 9.65482 18.75 10 18.75C10.3452 18.75 10.625 18.4702 10.625 18.125Z" fill="#0067D1"/>
<path d="M16.4583 15.8333C16.4583 15.4882 16.1785 15.2083 15.8333 15.2083C15.4882 15.2083 15.2083 15.4882 15.2083 15.8333C15.2083 16.1785 15.4882 16.4583 15.8333 16.4583C16.1785 16.4583 16.4583 16.1785 16.4583 15.8333Z" fill="#0067D1"/>
<path d="M3.54167 15.8333C3.54167 15.4882 3.82149 15.2083 4.16667 15.2083C4.51184 15.2083 4.79167 15.4882 4.79167 15.8333C4.79167 16.1785 4.51184 16.4583 4.16667 16.4583C3.82149 16.4583 3.54167 16.1785 3.54167 15.8333Z" fill="#0067D1"/>
<path d="M8.67851 8.54169L7.5 9.7202H8.125L8.125 11.3869H9.27083V9.7202H9.85702L8.67851 8.54169Z" fill="white"/>
<path d="M11.2173 11.3869L12.3958 10.2084H11.7708V8.54169L10.625 8.54169V10.2084H10.0388L11.2173 11.3869Z" fill="white"/>
</svg>
