<svg width="20" height="20" viewBox="0 0 20 20" fill="none" xmlns="http://www.w3.org/2000/svg">
<path d="M16.2833 15.8687V18.2979H18.3333V15.8687H16.2833Z" fill="white"/>
<path d="M3.925 15.8687H3.71667V18.2979H1.66667V15.8687H1.45833H3.925Z" fill="white"/>
<path d="M15.8667 15.8687V18.5666C15.8667 18.5862 15.8706 18.6056 15.8781 18.6237C15.8857 18.6418 15.8968 18.6582 15.9107 18.672C15.9247 18.6857 15.9412 18.6966 15.9594 18.7039C15.9776 18.7112 15.9971 18.7148 16.0167 18.7145H18.6021C18.6413 18.7145 18.6789 18.6989 18.7067 18.6712C18.7344 18.6435 18.75 18.6058 18.75 18.5666L18.75 15.8687H18.3333V18.2979H16.2833V15.8687H15.8667Z" fill="#3A424A"/>
<path d="M1.25 15.8687V18.5666C1.25 18.6058 1.26558 18.6435 1.29332 18.6712C1.32106 18.6989 1.35869 18.7145 1.39792 18.7145H3.98333C4.00293 18.7148 4.02239 18.7112 4.04058 18.7039C4.05877 18.6966 4.07532 18.6857 4.08928 18.672C4.10323 18.6582 4.11431 18.6418 4.12188 18.6237C4.12944 18.6056 4.13334 18.5862 4.13333 18.5666V15.8687H3.71667V18.2979H1.66667V15.8687H1.25Z" fill="#3A424A"/>
<path fill-rule="evenodd" clip-rule="evenodd" d="M18.3813 1.25H1.61875C1.41509 1.25 1.25 1.41509 1.25 1.61875V5.47917C1.25 5.68282 1.41509 5.84792 1.61875 5.84792H18.3813C18.5849 5.84792 18.75 5.68282 18.75 5.47917V1.61875C18.75 1.41509 18.5849 1.25 18.3813 1.25ZM6.19168 4.16667C6.06762 4.16665 5.94638 4.12972 5.84339 4.06057C5.74039 3.99142 5.66031 3.89319 5.61332 3.77838C5.56634 3.66356 5.55458 3.53737 5.57956 3.41585C5.60453 3.29434 5.6651 3.18301 5.75355 3.09603C5.842 3.00905 5.95434 2.95036 6.07626 2.92743C6.19817 2.90451 6.32415 2.91838 6.43816 2.96729C6.55217 3.01619 6.64904 3.09792 6.71645 3.20206C6.78385 3.3062 6.81874 3.42805 6.81668 3.55208C6.81394 3.71603 6.74689 3.87234 6.62998 3.98731C6.51306 4.10227 6.35565 4.16669 6.19168 4.16667ZM3.72085 4.16668C3.59681 4.16875 3.47496 4.13386 3.37082 4.06645C3.26668 3.99904 3.18495 3.90217 3.13605 3.78816C3.08714 3.67416 3.07327 3.54818 3.0962 3.42626C3.11912 3.30435 3.17781 3.19201 3.26479 3.10356C3.35177 3.0151 3.4631 2.95453 3.58462 2.92956C3.70613 2.90459 3.83233 2.91634 3.94714 2.96333C4.06195 3.01031 4.16018 3.0904 4.22933 3.19339C4.29848 3.29639 4.33541 3.41763 4.33543 3.54168C4.33545 3.70565 4.27104 3.86307 4.15607 3.97998C4.0411 4.0969 3.88479 4.16395 3.72085 4.16668ZM8.31422 4.06057C8.41721 4.12972 8.53845 4.16665 8.66251 4.16667C8.82648 4.16669 8.98389 4.10227 9.1008 3.98731C9.21772 3.87234 9.28477 3.71603 9.28751 3.55208C9.28957 3.42805 9.25468 3.3062 9.18728 3.20206C9.11987 3.09792 9.02299 3.01619 8.90899 2.96729C8.79498 2.91838 8.669 2.90451 8.54708 2.92743C8.42517 2.95036 8.31283 3.00905 8.22438 3.09603C8.13593 3.18301 8.07536 3.29434 8.05039 3.41585C8.02541 3.53737 8.03717 3.66356 8.08415 3.77838C8.13113 3.89319 8.21122 3.99142 8.31422 4.06057Z" fill="#0067D1"/>
<path fill-rule="evenodd" clip-rule="evenodd" d="M1.61875 11.2708H18.3813C18.479 11.2708 18.5728 11.3097 18.642 11.3788C18.7111 11.448 18.75 11.5418 18.75 11.6396V15.8687H1.25V11.6396C1.25 11.5418 1.28885 11.448 1.358 11.3788C1.42716 11.3097 1.52095 11.2708 1.61875 11.2708ZM3.72085 14.1854C3.59681 14.1875 3.47496 14.1526 3.37082 14.0852C3.26668 14.0178 3.18495 13.9209 3.13605 13.8069C3.08714 13.6929 3.07327 13.5669 3.0962 13.445C3.11912 13.3231 3.17781 13.2107 3.26479 13.1223C3.35177 13.0338 3.4631 12.9733 3.58462 12.9483C3.70613 12.9233 3.83233 12.9351 3.94714 12.982C4.06195 13.029 4.16018 13.1091 4.22933 13.2121C4.29848 13.3151 4.33541 13.4363 4.33543 13.5604C4.33681 13.642 4.32194 13.723 4.29167 13.7988C4.2614 13.8746 4.21635 13.9435 4.15915 14.0017C4.10194 14.0599 4.03372 14.1061 3.95847 14.1376C3.88322 14.1692 3.80244 14.1854 3.72085 14.1854ZM5.84443 14.0801C5.94721 14.1488 6.06805 14.1854 6.19166 14.1854C6.35742 14.1854 6.51639 14.1196 6.6336 14.0024C6.75081 13.8852 6.81666 13.7262 6.81666 13.5604C6.81666 13.4368 6.78 13.316 6.71133 13.2132C6.64265 13.1104 6.54504 13.0303 6.43084 12.983C6.31663 12.9357 6.19097 12.9233 6.06973 12.9474C5.94849 12.9716 5.83713 13.0311 5.74972 13.1185C5.66231 13.2059 5.60279 13.3173 5.57867 13.4385C5.55455 13.5597 5.56693 13.6854 5.61424 13.7996C5.66154 13.9138 5.74165 14.0114 5.84443 14.0801ZM8.66249 14.1854C8.53888 14.1854 8.41804 14.1488 8.31526 14.0801C8.21248 14.0114 8.13237 13.9138 8.08507 13.7996C8.03776 13.6854 8.02538 13.5597 8.0495 13.4385C8.07362 13.3173 8.13314 13.2059 8.22055 13.1185C8.30796 13.0311 8.41932 12.9716 8.54056 12.9474C8.6618 12.9233 8.78746 12.9357 8.90167 12.983C9.01587 13.0303 9.11348 13.1104 9.18216 13.2132C9.25084 13.316 9.28749 13.4368 9.28749 13.5604C9.28749 13.7262 9.22164 13.8852 9.10443 14.0024C8.98722 14.1196 8.82825 14.1854 8.66249 14.1854Z" fill="#0067D1"/>
<path fill-rule="evenodd" clip-rule="evenodd" d="M1.61875 6.26042H18.3813C18.5849 6.26042 18.75 6.42551 18.75 6.62917V10.4896C18.75 10.6932 18.5849 10.8583 18.3813 10.8583H1.61875C1.41509 10.8583 1.25 10.6932 1.25 10.4896V6.62917C1.25 6.42551 1.41509 6.26042 1.61875 6.26042ZM3.36974 9.0657C3.47411 9.13358 3.59636 9.16874 3.72084 9.16668C3.883 9.164 4.03777 9.09839 4.15245 8.98371C4.26713 8.86903 4.33274 8.71426 4.33542 8.5521C4.33748 8.42762 4.30231 8.30537 4.23444 8.20101C4.16656 8.09664 4.06907 8.01493 3.95445 7.96634C3.83983 7.91775 3.71331 7.9045 3.59111 7.92828C3.46891 7.95206 3.35659 8.0118 3.26856 8.09983C3.18053 8.18786 3.1208 8.30017 3.09702 8.42237C3.07323 8.54457 3.08649 8.67109 3.13508 8.78571C3.18367 8.90033 3.26538 8.99783 3.36974 9.0657ZM6.19168 9.16667C6.06762 9.16665 5.94638 9.12972 5.84339 9.06057C5.74039 8.99142 5.66031 8.89319 5.61332 8.77838C5.56634 8.66356 5.55458 8.53737 5.57956 8.41585C5.60453 8.29434 5.6651 8.18301 5.75355 8.09603C5.842 8.00905 5.95434 7.95036 6.07626 7.92743C6.19817 7.90451 6.32415 7.91838 6.43816 7.96729C6.55217 8.01619 6.64904 8.09792 6.71645 8.20206C6.78385 8.3062 6.81874 8.42805 6.81668 8.55208C6.81394 8.71603 6.74689 8.87234 6.62998 8.98731C6.51306 9.10227 6.35565 9.16669 6.19168 9.16667ZM8.31422 9.06057C8.41721 9.12972 8.53845 9.16665 8.66251 9.16667C8.82648 9.16669 8.98389 9.10227 9.1008 8.98731C9.21772 8.87234 9.28477 8.71603 9.28751 8.55208C9.28957 8.42805 9.25468 8.3062 9.18728 8.20206C9.11987 8.09792 9.02299 8.01619 8.90899 7.96729C8.79498 7.91838 8.669 7.90451 8.54708 7.92743C8.42517 7.95036 8.31283 8.00905 8.22438 8.09603C8.13593 8.18301 8.07536 8.29434 8.05039 8.41585C8.02541 8.53737 8.03717 8.66356 8.08415 8.77838C8.13113 8.89319 8.21122 8.99142 8.31422 9.06057Z" fill="#0067D1"/>
</svg>
