<svg width="20" height="20" viewBox="0 0 20 20" fill="none" xmlns="http://www.w3.org/2000/svg">
<path d="M15.0785 17.1225C15.1664 17.0591 15.2522 16.994 15.3375 16.9266C15.2528 16.9943 15.1664 17.0595 15.0785 17.1225Z" fill="white"/>
<path d="M4.92579 17.1256C5.03039 17.2004 5.1371 17.2722 5.24562 17.3415C5.13452 17.2715 5.02876 17.1998 4.92579 17.1256Z" fill="white"/>
<path d="M1.25 10.0013C1.25001 9.99881 1.25001 9.99629 1.25001 9.99377V9.97733C1.25 9.98533 1.25 9.99333 1.25 10.0013Z" fill="white"/>
<path d="M1.2581 9.61669H1.26251V9.52532C1.26088 9.55578 1.25941 9.58623 1.2581 9.61669Z" fill="white"/>
<path d="M1.33505 8.77611C1.52526 7.42174 2.03062 6.12908 2.81244 5.00298C3.66048 3.78148 4.80585 2.79627 6.14039 2.14034C7.47493 1.48442 8.95462 1.17943 10.4398 1.25416C11.9249 1.3289 13.3665 1.78089 14.6285 2.56748C15.7303 3.25425 16.6634 4.17629 17.3624 5.26479C16.6685 4.18642 15.7434 3.26997 14.6493 2.58467C13.2558 1.71175 11.6444 1.24919 10 1.25002C8.35597 1.24958 6.74506 1.71232 5.35189 2.58522C3.95872 3.45812 2.83965 4.70585 2.12293 6.18544C2.05626 6.32433 1.99376 6.46322 1.93543 6.60211C1.87293 6.74794 1.8146 6.89586 1.76251 7.04794C1.56126 7.60853 1.41815 8.18763 1.33505 8.77611Z" fill="white"/>
<path fill-rule="evenodd" clip-rule="evenodd" d="M14.4214 2.94681C13.096 2.11583 11.5644 1.67239 10 1.66669C8.44633 1.67069 6.92435 2.10648 5.604 2.92539C4.28366 3.74431 3.21693 4.91412 2.52293 6.30419L2.48543 6.38127L2.43751 6.48336C2.3896 6.57919 2.34585 6.67919 2.30626 6.7771C2.2396 6.92502 2.18751 7.06044 2.14168 7.19377C1.86983 7.95197 1.70982 8.74571 1.66668 9.55002C1.6657 9.5632 1.6657 9.57643 1.66668 9.5896V10C1.66475 11.2748 1.95679 12.5329 2.52009 13.6765C3.08339 14.82 3.90278 15.8183 4.9146 16.5938C5.09313 16.7374 5.27953 16.8709 5.47293 16.9938C6.82157 17.8664 8.39367 18.3307 10 18.3307C11.6064 18.3307 13.1785 17.8664 14.5271 16.9938C14.718 16.8724 14.9023 16.741 15.0792 16.6C16.0932 15.8238 16.9144 14.8241 17.4788 13.6786C18.0432 12.5331 18.3357 11.2728 18.3333 9.99585V9.77711C18.3062 8.7408 18.0842 7.71886 17.6792 6.76461C17.6146 6.61461 17.5563 6.48336 17.5 6.36877C16.8133 4.96315 15.7469 3.77779 14.4214 2.94681ZM6.0088 7.01255L8.23526 5.21127L8.23545 5.21112C8.60467 4.91112 9.066 4.74755 9.54174 4.74795H12.2381C12.5291 4.74886 12.8166 4.81126 13.0817 4.93106C13.3469 5.05086 13.5837 5.22535 13.7767 5.44309L13.778 5.44453L14.9481 6.81461H15.8667V12.3334H14.3613C14.401 12.4475 14.4204 12.5688 14.4174 12.6918C14.4111 12.9524 14.3046 13.2006 14.1202 13.3849L14.0988 13.4063L14.098 13.4071C13.9291 13.5791 13.7044 13.6851 13.4643 13.7063C13.4273 13.7095 13.3903 13.7107 13.3535 13.7099L12.7244 14.339C12.5341 14.5291 12.2762 14.6359 12.0073 14.6359C11.9501 14.6359 11.8933 14.6311 11.8377 14.6216L11.2778 15.1835L11.2773 15.1841C11.1804 15.2826 11.0649 15.3609 10.9375 15.4144C10.8099 15.468 10.6728 15.4956 10.5344 15.4956C10.3989 15.4956 10.2647 15.4691 10.1394 15.4178L9.63464 15.9226C9.44406 16.1127 9.18587 16.2194 8.91669 16.2194C8.64751 16.2194 8.38932 16.1127 8.19873 15.9226L8.19719 15.921L8.14947 15.8714L8.1485 15.8724L4.85119 12.5751H4.1332C4.13329 12.5716 4.13333 12.5681 4.13333 12.5646V7.01255H6.0088Z" fill="white"/>
<path d="M9.54147 5.16461C9.16146 5.16427 8.79295 5.29495 8.49805 5.53462L8.49769 5.53491L5.86923 7.66142L5.86892 7.66167C5.84293 7.68296 5.82176 7.70952 5.80679 7.73959C5.79176 7.76979 5.78334 7.80283 5.78208 7.83654C5.78082 7.87024 5.78675 7.90383 5.79948 7.93506C5.81221 7.96629 5.83145 7.99445 5.85591 8.01767L5.86258 8.024L5.86867 8.0309C6.04595 8.2317 6.28797 8.36405 6.55269 8.40495C6.81741 8.44585 7.08809 8.39271 7.31771 8.25478L9.11753 7.17263L11.9378 9.75151L12.0226 9.83633L13.1015 10.9194L14.0988 11.9167H15.8646V7.23128H14.756L13.4637 5.71809C13.3099 5.54493 13.1213 5.40614 12.9102 5.31077C12.6986 5.21519 12.4693 5.16538 12.2372 5.16461L9.54147 5.16461Z" fill="white"/>
<path d="M11.6294 10.047L11.5455 9.95746L9.11917 7.73874C9.09346 7.727 9.06759 7.71558 9.04158 7.70448L7.53227 8.61195C7.21916 8.80005 6.85005 8.8725 6.48907 8.81673C6.13094 8.7614 5.80327 8.58332 5.56205 8.31313C5.49801 8.2505 5.44748 8.17535 5.41364 8.09234C5.37857 8.00631 5.36223 7.91381 5.3657 7.82097C5.36917 7.72814 5.39237 7.63711 5.43376 7.55394C5.45598 7.5093 5.48317 7.46748 5.51471 7.42922H4.13333V12.1584H5.02378L6.38073 13.5153L6.38283 13.5132L8.44257 15.5751L8.49441 15.629C8.60675 15.7403 8.7585 15.8027 8.91669 15.8027C9.07552 15.8027 9.22786 15.7398 9.34033 15.6276L9.78768 15.1803L8.3468 13.7394L7.94434 13.339L7.8985 13.2932L8.19317 12.9986L8.23901 13.0444L8.64109 13.4444L10.0817 14.885L10.0828 14.8861L10.106 14.909C10.1603 14.9601 10.2235 15.0012 10.2925 15.0302C10.3691 15.0623 10.4513 15.0789 10.5344 15.0789C10.6174 15.0789 10.6997 15.0623 10.7763 15.0302C10.8529 14.998 10.9223 14.9509 10.9805 14.8916L10.9816 14.8905L11.4035 14.467L10.6184 13.6818L10.6173 13.6807L10.4784 13.544L9.51293 12.5883L9.81893 12.2823L10.7702 13.2361L10.9161 13.3736L11.5847 14.0443C11.6968 14.1563 11.8488 14.2192 12.0073 14.2192C12.1657 14.2192 12.3177 14.1563 12.4298 14.0443L12.8777 13.5965L12.8339 13.5531C12.8181 13.5431 12.8025 13.5326 12.7873 13.5217L12.7732 13.5116L10.7568 11.4932L11.0515 11.1986L12.9575 13.1046C12.9813 13.129 13.0074 13.1511 13.0354 13.1706L13.0504 13.181L13.0908 13.221C13.1933 13.2768 13.3105 13.3015 13.4278 13.2912C13.5693 13.2787 13.7018 13.2161 13.8012 13.1147L13.8027 13.1131L13.8256 13.0902C13.9343 12.9816 13.9971 12.8353 14.0009 12.6817C14.0046 12.5284 13.9493 12.3796 13.8465 12.2659L13.8229 12.2405L11.6294 10.047Z" fill="white"/>
<path d="M17.1875 11.5625C17.1875 11.4475 17.2808 11.3542 17.3958 11.3542C17.5109 11.3542 17.6042 11.4475 17.6042 11.5625C17.6042 11.6776 17.5109 11.7709 17.3958 11.7709C17.2808 11.7709 17.1875 11.6776 17.1875 11.5625Z" fill="white"/>
<path d="M15.0785 17.1225C15.1664 17.0591 15.2522 16.994 15.3375 16.9266C15.2528 16.9943 15.1664 17.0595 15.0785 17.1225Z" fill="#3A424A"/>
<path d="M4.92579 17.1256C5.03039 17.2004 5.1371 17.2722 5.24562 17.3415C5.13452 17.2715 5.02876 17.1998 4.92579 17.1256Z" fill="#3A424A"/>
<path d="M1.25 10.0013C1.25001 9.99881 1.25001 9.99629 1.25001 9.99377V9.97733C1.25 9.98533 1.25 9.99333 1.25 10.0013Z" fill="#3A424A"/>
<path d="M1.2581 9.61669H1.26251V9.52532C1.26088 9.55578 1.25941 9.58623 1.2581 9.61669Z" fill="#3A424A"/>
<path d="M1.33505 8.77611C1.52526 7.42174 2.03062 6.12908 2.81244 5.00298C3.66048 3.78148 4.80585 2.79627 6.14039 2.14034C7.47493 1.48442 8.95462 1.17943 10.4398 1.25416C11.9249 1.3289 13.3665 1.78089 14.6285 2.56748C15.7303 3.25425 16.6634 4.17629 17.3624 5.26479C16.6685 4.18642 15.7434 3.26997 14.6493 2.58467C13.2558 1.71175 11.6444 1.24919 10 1.25002C8.35597 1.24958 6.74506 1.71232 5.35189 2.58522C3.95872 3.45812 2.83965 4.70585 2.12293 6.18544C2.05626 6.32433 1.99376 6.46322 1.93543 6.60211C1.87293 6.74794 1.8146 6.89586 1.76251 7.04794C1.56126 7.60853 1.41815 8.18763 1.33505 8.77611Z" fill="#3A424A"/>
<path fill-rule="evenodd" clip-rule="evenodd" d="M8.23526 5.21127L6.0088 7.01255H4.13333L4.13333 7.42922H5.51471C5.48317 7.46748 5.45598 7.5093 5.43376 7.55394C5.39237 7.63711 5.36917 7.72814 5.3657 7.82097C5.36223 7.91381 5.37857 8.00631 5.41364 8.09234C5.44748 8.17535 5.49801 8.2505 5.56205 8.31313C5.80327 8.58332 6.13094 8.7614 6.48907 8.81673C6.85005 8.8725 7.21916 8.80005 7.53227 8.61195L9.04158 7.70448C9.06759 7.71558 9.09346 7.727 9.11917 7.73874L11.5455 9.95746L11.6294 10.047L13.8229 12.2405L13.8465 12.2659C13.9493 12.3796 14.0046 12.5284 14.0009 12.6817C13.9971 12.8353 13.9343 12.9816 13.8256 13.0902L13.8027 13.1131L13.8012 13.1147C13.7018 13.2161 13.5693 13.2787 13.4278 13.2912C13.3105 13.3015 13.1933 13.2768 13.0908 13.221L13.0504 13.181L13.0354 13.1706C13.0074 13.1511 12.9813 13.129 12.9575 13.1046L11.0515 11.1986L10.7568 11.4932L12.7732 13.5116L12.7873 13.5217C12.8025 13.5326 12.8181 13.5431 12.8339 13.5531L12.8777 13.5965L12.4298 14.0443C12.3177 14.1563 12.1657 14.2192 12.0073 14.2192C11.8488 14.2192 11.6968 14.1563 11.5847 14.0443L10.9161 13.3736L10.7702 13.2361L9.81893 12.2823L9.51293 12.5883L10.4788 13.5443L10.6173 13.6807L10.6184 13.6818L11.4035 14.467L10.9816 14.8905L10.9805 14.8916C10.9223 14.9509 10.8529 14.998 10.7763 15.0302C10.6997 15.0623 10.6174 15.0789 10.5344 15.0789C10.4513 15.0789 10.3691 15.0623 10.2925 15.0302C10.2235 15.0012 10.1603 14.9601 10.106 14.909L10.0828 14.8861L10.0817 14.885L8.64109 13.4444L8.23901 13.0444L8.19317 12.9986L7.8985 13.2932L7.94434 13.339L8.3468 13.7394L9.78768 15.1803L9.34033 15.6276C9.22786 15.7398 9.07552 15.8027 8.91669 15.8027C8.7585 15.8027 8.60675 15.7403 8.49441 15.629L8.44257 15.5751L6.38283 13.5132L6.38073 13.5153L5.02378 12.1584H4.13333L4.13333 12.5646C4.13333 12.5681 4.13329 12.5716 4.1332 12.5751H4.85119L8.1485 15.8724L8.14947 15.8714L8.19719 15.921L8.19873 15.9226C8.38932 16.1127 8.64751 16.2194 8.91669 16.2194C9.18587 16.2194 9.44406 16.1127 9.63464 15.9226L10.1394 15.4178C10.2647 15.4691 10.3989 15.4956 10.5344 15.4956C10.6728 15.4956 10.8099 15.468 10.9375 15.4144C11.0649 15.3609 11.1804 15.2826 11.2773 15.1841L11.2778 15.1835L11.8377 14.6216C11.8933 14.6311 11.9501 14.6359 12.0073 14.6359C12.2762 14.6359 12.5341 14.5291 12.7244 14.339L13.3535 13.7099C13.3903 13.7107 13.4273 13.7095 13.4643 13.7063C13.7044 13.6851 13.9291 13.5791 14.098 13.4071L14.0988 13.4063L14.1202 13.3849C14.3046 13.2006 14.4111 12.9524 14.4174 12.6918C14.4204 12.5688 14.401 12.4475 14.3613 12.3334H15.8667V6.81461H14.9481L13.778 5.44453L13.7767 5.44309C13.5837 5.22535 13.3469 5.05086 13.0817 4.93106C12.8166 4.81126 12.5291 4.74886 12.2381 4.74795H9.54174C9.066 4.74755 8.60467 4.91112 8.23545 5.21112L8.23526 5.21127ZM9.54147 5.16461C9.16146 5.16427 8.79295 5.29495 8.49805 5.53462L8.49769 5.53491L5.86923 7.66142L5.86892 7.66167C5.84293 7.68296 5.82176 7.70952 5.80679 7.73959C5.79176 7.76979 5.78334 7.80283 5.78208 7.83654C5.78082 7.87024 5.78675 7.90383 5.79948 7.93506C5.81221 7.96629 5.83145 7.99445 5.85591 8.01767L5.86258 8.024L5.86867 8.0309C6.04595 8.2317 6.28797 8.36405 6.55269 8.40495C6.81741 8.44585 7.08809 8.39271 7.31771 8.25478L9.11753 7.17263L11.9378 9.75151L12.0226 9.83633L13.1015 10.9194L14.0988 11.9167H15.8646V7.23128H14.756L13.4637 5.71809C13.3099 5.54493 13.1213 5.40614 12.9102 5.31077C12.6986 5.21519 12.4693 5.16538 12.2372 5.16461L9.54147 5.16461Z" fill="#3A424A"/>
<path d="M10 1.66669C11.5644 1.67239 13.096 2.11583 14.4214 2.94681C15.7469 3.77779 16.8133 4.96315 17.5 6.36877C17.5563 6.48336 17.6146 6.61461 17.6792 6.76461C18.0842 7.71886 18.3062 8.7408 18.3333 9.77711L18.3333 9.81669C18.3333 9.8771 18.3333 9.93544 18.3333 9.99585C18.3357 11.2728 18.0432 12.5331 17.4788 13.6786C16.9144 14.8241 16.0932 15.8238 15.0792 16.6C14.9023 16.741 14.718 16.8724 14.5271 16.9938C13.1785 17.8664 11.6064 18.3307 10 18.3307C8.39367 18.3307 6.82157 17.8664 5.47293 16.9938C5.27953 16.8709 5.09313 16.7374 4.9146 16.5938C3.90278 15.8183 3.08339 14.82 2.52009 13.6765C1.95679 12.5329 1.66475 11.2748 1.66668 10C1.66668 9.8646 1.66667 9.75002 1.66667 9.64377C1.66667 9.62502 1.66668 9.60835 1.66668 9.5896C1.6657 9.57643 1.6657 9.5632 1.66668 9.55002C1.70982 8.74571 1.86983 7.95197 2.14168 7.19377C2.18751 7.06044 2.2396 6.92502 2.30626 6.7771C2.34585 6.67919 2.3896 6.57919 2.43751 6.48336L2.48543 6.38127L2.52293 6.30419C3.21693 4.91412 4.28366 3.74431 5.604 2.92539C6.92435 2.10648 8.44633 1.67069 10 1.66669ZM10 1.25002C8.35597 1.24958 6.74506 1.71232 5.35189 2.58522C3.95872 3.45812 2.83965 4.70585 2.12293 6.18544C2.05626 6.32433 1.99376 6.46322 1.93543 6.60211C1.87293 6.74794 1.8146 6.89586 1.76251 7.04794C1.47731 7.84234 1.30888 8.67392 1.2625 9.51669C1.2625 9.55002 1.26251 9.58335 1.26251 9.61669H1.25C1.25 9.74169 1.25001 9.86669 1.25001 9.99377C1.24759 11.3335 1.554 12.6557 2.14547 13.8578C2.73694 15.0599 3.59753 16.1095 4.66042 16.925C4.84792 17.075 5.04375 17.2125 5.24583 17.3417C6.66252 18.257 8.31333 18.7439 10 18.7439C11.6867 18.7439 13.3375 18.257 14.7542 17.3417C14.9625 17.2104 15.1521 17.0729 15.3396 16.925C16.4016 16.1101 17.2617 15.0615 17.8531 13.8606C18.4446 12.6597 18.7515 11.3387 18.75 10C18.75 9.93544 18.75 9.87294 18.75 9.80835V9.77085C18.7232 8.68129 18.4921 7.60643 18.0688 6.6021C18.0083 6.46044 17.9458 6.32085 17.8792 6.18544C17.1623 4.70553 16.0429 3.45758 14.6493 2.58467C13.2558 1.71175 11.6444 1.24919 10 1.25002Z" fill="#3A424A"/>
<path fill-rule="evenodd" clip-rule="evenodd" d="M17.3958 11.3542C17.2808 11.3542 17.1875 11.4475 17.1875 11.5625C17.1875 11.6776 17.2808 11.7709 17.3958 11.7709C17.5109 11.7709 17.6042 11.6776 17.6042 11.5625C17.6042 11.4475 17.5109 11.3542 17.3958 11.3542ZM16.7708 11.5625C16.7708 11.2173 17.0507 10.9375 17.3958 10.9375C17.741 10.9375 18.0208 11.2173 18.0208 11.5625C18.0208 11.9077 17.741 12.1875 17.3958 12.1875C17.0507 12.1875 16.7708 11.9077 16.7708 11.5625Z" fill="#3A424A"/>
<path d="M1.66675 10C1.66521 11.0213 1.85232 12.0318 2.21641 12.9813H3.71674C3.82724 12.9813 3.93322 12.9374 4.01136 12.8592C4.0895 12.7811 4.1334 12.6751 4.1334 12.5646V6.60209C4.1334 6.49158 4.0895 6.3856 4.01136 6.30746C3.93322 6.22932 3.82724 6.18542 3.71674 6.18542H2.58348C2.56302 6.22483 2.54286 6.26442 2.523 6.30419L2.4855 6.38127L2.43758 6.48336C2.38967 6.57919 2.34592 6.67919 2.30633 6.7771C2.23967 6.92502 2.18758 7.06044 2.14175 7.19377C1.8699 7.95197 1.70989 8.74571 1.66675 9.55002C1.66577 9.5632 1.66577 9.57643 1.66675 9.5896V10Z" fill="#0067D1"/>
<path fill-rule="evenodd" clip-rule="evenodd" d="M17.5001 6.36877C17.47 6.30723 17.4392 6.24611 17.4077 6.18542H16.2834C16.1729 6.18542 16.0669 6.22932 15.9888 6.30746C15.9106 6.3856 15.8667 6.49158 15.8667 6.60209V12.5646C15.8667 12.6751 15.9106 12.7811 15.9888 12.8592C16.0669 12.9374 16.1729 12.9813 16.2834 12.9813H17.7836C18.1481 12.0304 18.3353 11.0185 18.3334 9.99585V9.7771C18.3062 8.7408 18.0843 7.71886 17.6793 6.76461C17.6147 6.61461 17.5563 6.48335 17.5001 6.36877ZM17.3959 10.9375C17.0507 10.9375 16.7709 11.2173 16.7709 11.5625C16.7709 11.9077 17.0507 12.1875 17.3959 12.1875C17.7411 12.1875 18.0209 11.9077 18.0209 11.5625C18.0209 11.2173 17.7411 10.9375 17.3959 10.9375Z" fill="#0067D1"/>
</svg>
