<svg width="20" height="20" viewBox="0 0 20 20" fill="none" xmlns="http://www.w3.org/2000/svg">
<path fill-rule="evenodd" clip-rule="evenodd" d="M16.5042 7.04791H1.7375C1.46826 7.04791 1.25 7.26617 1.25 7.53541V18.3667C1.25 18.6359 1.46826 18.8542 1.7375 18.8542H16.5042C16.7734 18.8542 16.9917 18.6359 16.9917 18.3667V16.1951C16.5044 16.363 15.9802 16.3991 15.4727 16.2981C14.9069 16.1856 14.3872 15.9078 13.9793 15.4999C13.5714 15.092 13.2936 14.5723 13.181 14.0065C13.0685 13.4407 13.1263 12.8543 13.347 12.3213C13.5678 11.7884 13.9416 11.3328 14.4213 11.0124C14.9009 10.6919 15.4648 10.5208 16.0417 10.5208C16.3681 10.5208 16.6888 10.5755 16.9917 10.6799V7.53541C16.9917 7.26617 16.7734 7.04791 16.5042 7.04791ZM10.7292 12.9166C10.7292 13.7605 10.102 14.4579 9.28834 14.5681L9.79324 15.4657C9.8799 15.6198 9.76857 15.8102 9.5918 15.8102H8.5332C8.35643 15.8102 8.2451 15.6198 8.33176 15.4657L8.83666 14.5681C8.023 14.4579 7.39583 13.7605 7.39583 12.9166C7.39583 11.9962 8.14203 11.25 9.0625 11.25C9.98297 11.25 10.7292 11.9962 10.7292 12.9166Z" fill="#0067D1"/>
<path d="M9.28832 14.5681C10.102 14.4579 10.7291 13.7605 10.7291 12.9166C10.7291 11.9962 9.98295 11.25 9.06248 11.25C8.142 11.25 7.39581 11.9962 7.39581 12.9166C7.39581 13.7605 8.02298 14.4579 8.83664 14.5681L8.33174 15.4657C8.24508 15.6198 8.35641 15.8102 8.53318 15.8102H9.59178C9.76855 15.8102 9.87988 15.6198 9.79322 15.4657L9.28832 14.5681Z" fill="white"/>
<path d="M17.4306 11.3588C17.0194 11.0841 16.5361 10.9375 16.0416 10.9375C15.3786 10.9375 14.7427 11.2009 14.2739 11.6697C13.805 12.1386 13.5416 12.7744 13.5416 13.4375C13.5416 13.9319 13.6883 14.4153 13.963 14.8264C14.2377 15.2375 14.6281 15.558 15.0849 15.7472C15.5418 15.9364 16.0444 15.9859 16.5294 15.8894C17.0143 15.793 17.4598 15.5549 17.8094 15.2052C18.159 14.8556 18.3971 14.4102 18.4936 13.9252C18.5901 13.4403 18.5406 12.9376 18.3513 12.4808C18.1621 12.024 17.8417 11.6335 17.4306 11.3588Z" fill="white"/>
<path d="M11.9053 2.71758C11.1667 1.979 10.1653 1.56358 9.12084 1.56248C8.07633 1.56358 7.07493 1.979 6.33635 2.71758C5.59777 3.45615 5.18236 4.45756 5.18125 5.50206V7.04791H4.76459V5.50206C4.76459 4.34671 5.22355 3.23868 6.0405 2.42173C6.85746 1.60477 7.96549 1.14581 9.12084 1.14581C10.2762 1.14581 11.3842 1.60477 12.2012 2.42173C13.0181 3.23868 13.4771 4.34671 13.4771 5.50206V7.04791H13.0604V5.50206C13.0593 4.45756 12.6439 3.45615 11.9053 2.71758Z" fill="#3A424A"/>
<path d="M16.0416 10.9375C16.5361 10.9375 17.0194 11.0841 17.4306 11.3588C17.8417 11.6335 18.1621 12.024 18.3513 12.4808C18.5406 12.9376 18.5901 13.4403 18.4936 13.9252C18.3971 14.4102 18.159 14.8556 17.8094 15.2052C17.4598 15.5549 17.0143 15.793 16.5294 15.8894C16.0444 15.9859 15.5418 15.9364 15.0849 15.7472C14.6281 15.558 14.2377 15.2375 13.963 14.8264C13.6883 14.4153 13.5416 13.9319 13.5416 13.4375C13.5416 12.7744 13.805 12.1386 14.2739 11.6697C14.7427 11.2009 15.3786 10.9375 16.0416 10.9375ZM16.0416 10.5208C15.4648 10.5208 14.9009 10.6919 14.4212 11.0124C13.9416 11.3328 13.5678 11.7884 13.347 12.3213C13.1262 12.8543 13.0685 13.4407 13.181 14.0065C13.2936 14.5723 13.5713 15.092 13.9793 15.4999C14.3872 15.9078 14.9069 16.1856 15.4726 16.2981C16.0384 16.4106 16.6249 16.3529 17.1578 16.1321C17.6908 15.9114 18.1463 15.5375 18.4668 15.0579C18.7873 14.5782 18.9583 14.0143 18.9583 13.4375C18.9583 12.6639 18.651 11.9221 18.104 11.3751C17.5571 10.8281 16.8152 10.5208 16.0416 10.5208Z" fill="#3A424A"/>
<path fill-rule="evenodd" clip-rule="evenodd" d="M17.2916 13.75H14.7916V13.3333H17.2916V13.75Z" fill="#3A424A"/>
</svg>
