<svg width="20" height="20" viewBox="0 0 20 20" fill="none" xmlns="http://www.w3.org/2000/svg">
<path d="M13.267 12.9099C12.4657 13.8089 11.299 14.375 9.99996 14.375C8.70096 14.375 7.53419 13.8089 6.73291 12.9099C6.77528 12.7006 6.83776 12.4954 6.91978 12.2971C7.08717 11.8925 7.33266 11.5248 7.64222 11.215C7.95177 10.9053 8.31933 10.6596 8.72388 10.4919C9.12843 10.3243 9.56205 10.238 9.99996 10.238C10.884 10.238 11.7319 10.5892 12.357 11.2143C12.8238 11.6812 13.1379 12.2723 13.267 12.9099Z" fill="#0067D1"/>
<path d="M10.003 9.98147C10.9971 9.98147 11.803 9.17558 11.803 8.18147C11.803 7.18736 10.9971 6.38147 10.003 6.38147C9.00887 6.38147 8.20298 7.18736 8.20298 8.18147C8.20298 9.17558 9.00887 9.98147 10.003 9.98147Z" fill="#0067D1"/>
<path d="M16.0542 18.775C17.5569 18.775 18.775 17.5568 18.775 16.0541C18.775 14.5515 17.5569 13.3333 16.0542 13.3333C14.5515 13.3333 13.3334 14.5515 13.3334 16.0541C13.3334 17.5568 14.5515 18.775 16.0542 18.775Z" fill="white"/>
<path fill-rule="evenodd" clip-rule="evenodd" d="M10 14.375C12.4162 14.375 14.375 12.4162 14.375 10C14.375 7.58375 12.4162 5.625 10 5.625C7.58375 5.625 5.625 7.58375 5.625 10C5.625 12.4162 7.58375 14.375 10 14.375ZM10 14.7917C12.6464 14.7917 14.7917 12.6464 14.7917 10C14.7917 7.35364 12.6464 5.20833 10 5.20833C7.35364 5.20833 5.20833 7.35364 5.20833 10C5.20833 12.6464 7.35364 14.7917 10 14.7917Z" fill="#3A424A"/>
<path d="M14.2717 3.24802L14.3286 3.87447C13.1058 3.00875 11.6123 2.5 10 2.5C8.22915 2.5 6.60165 3.11373 5.31859 4.14009L5.61515 4.43665C6.82123 3.48476 8.34427 2.91667 10 2.91667C11.5205 2.91667 12.9292 3.39578 14.0832 4.21127L13.4186 4.27168L13.4564 4.68664L14.8097 4.56361L14.6866 3.2103L14.2717 3.24802Z" fill="#3A424A"/>
<path d="M13.3401 16.2479C12.3451 16.781 11.2078 17.0833 10 17.0833C8.47049 17.0833 7.05421 16.5986 5.89642 15.7743L6.50007 15.7366L6.47413 15.3208L5.11788 15.4054L5.20247 16.7616L5.61833 16.7357L5.576 16.0569C6.81621 16.9643 8.34555 17.5 10 17.5C11.2265 17.5 12.3843 17.2056 13.4065 16.6835C13.373 16.5423 13.3506 16.3968 13.3401 16.2479Z" fill="#3A424A"/>
<path d="M16.6835 13.4065C17.2056 12.3843 17.5 11.2265 17.5 10C17.5 8.22916 16.8863 6.60166 15.8599 5.3186L15.5634 5.61516C16.5153 6.82124 17.0833 8.34428 17.0833 10C17.0833 11.2078 16.781 12.3451 16.2479 13.3401C16.3968 13.3506 16.5423 13.373 16.6835 13.4065Z" fill="#3A424A"/>
<path d="M4.43665 14.3848C3.48475 13.1788 2.91667 11.6557 2.91667 10C2.91667 8.49522 3.3859 7.10003 4.18602 5.95278L4.1811 6.48986L4.59775 6.49367L4.61019 5.13484L3.25136 5.1224L3.24754 5.53905L3.96545 5.54562C3.0445 6.79121 2.5 8.33202 2.5 10C2.5 11.7708 3.11373 13.3984 4.14009 14.6814L4.43665 14.3848Z" fill="#3A424A"/>
<path fill-rule="evenodd" clip-rule="evenodd" d="M16.0542 18.5534C17.4345 18.5534 18.5534 17.4345 18.5534 16.0542C18.5534 14.6739 17.4345 13.5549 16.0542 13.5549C14.6739 13.5549 13.5549 14.6739 13.5549 16.0542C13.5549 17.4345 14.6739 18.5534 16.0542 18.5534ZM18.775 16.0542C18.775 17.5568 17.5568 18.775 16.0542 18.775C14.5515 18.775 13.3333 17.5568 13.3333 16.0542C13.3333 14.5515 14.5515 13.3333 16.0542 13.3333C17.5568 13.3333 18.775 14.5515 18.775 16.0542Z" fill="#3A424A"/>
<path d="M16.406 14.4647V14.9228L16.4766 14.9486C16.5036 14.9583 16.5305 14.9696 16.5569 14.9815L16.6248 15.0117L16.9481 14.6884L17.4331 15.1733L17.1168 15.4896L17.1496 15.5586C17.1631 15.5872 17.176 15.6163 17.1874 15.6459L17.2143 15.717H17.6583V16.4046H17.2908L17.224 16.4132L17.2024 16.4763C17.1906 16.5097 17.1771 16.5431 17.1626 16.5754L17.1324 16.6433L17.4358 16.9467L16.9508 17.4316L16.655 17.1358L16.5865 17.1687C16.5514 17.1854 16.5154 17.2004 16.4788 17.2134L16.406 17.2404V17.6574H15.7185V17.2404L15.6479 17.2129C15.6112 17.1999 15.5752 17.185 15.5401 17.1682L15.4711 17.1353L15.1753 17.4311L14.6903 16.9461L14.9937 16.6428L14.963 16.5749C14.9484 16.5425 14.9355 16.5091 14.9236 16.4757L14.8972 16.4046H14.4662V15.717H14.9096L14.9366 15.6481C14.9479 15.6184 14.9603 15.5893 14.9743 15.5608L15.005 15.4918L14.9511 15.4379L14.6882 15.1755L15.1731 14.6905C15.4485 14.9664 15.449 14.9664 15.455 14.9707L15.5056 15.009L15.5638 14.9826C15.5897 14.9713 15.6177 14.9599 15.6441 14.9502L15.7147 14.9244V14.4647H16.406ZM15.6107 14.357V14.8473C15.5812 14.8581 15.5521 14.87 15.5234 14.8829L15.1769 14.5369L14.5384 15.1755L14.8768 15.5144C14.8622 15.5451 14.8482 15.5769 14.8358 15.6093H14.3584V16.5124H14.8207C14.8337 16.549 14.8482 16.5851 14.8638 16.6201L14.5405 16.9461L15.1769 17.5852L15.4954 17.2668C15.5325 17.2845 15.5713 17.3007 15.6107 17.3153V17.7647H16.5138V17.3158C16.5531 17.3012 16.5914 17.2851 16.6291 17.2673L16.9476 17.5852L17.5866 16.9467L17.2633 16.6207C17.279 16.5857 17.2935 16.5496 17.3059 16.5129H17.7688V15.6093H17.2892C17.2763 15.5769 17.2628 15.5451 17.2477 15.5144L17.5866 15.1755L16.9481 14.5369L16.6016 14.8829C16.5729 14.87 16.5438 14.8581 16.5143 14.8473V14.357H15.6107Z" fill="#3A424A"/>
<path fill-rule="evenodd" clip-rule="evenodd" d="M16.0558 16.5663C16.3385 16.5663 16.5677 16.3371 16.5677 16.0543C16.5677 15.7716 16.3385 15.5424 16.0558 15.5424C15.7731 15.5424 15.5439 15.7716 15.5439 16.0543C15.5439 16.3371 15.7731 16.5663 16.0558 16.5663ZM16.0558 16.674C16.398 16.674 16.6754 16.3966 16.6754 16.0543C16.6754 15.7121 16.398 15.4347 16.0558 15.4347C15.7135 15.4347 15.4361 15.7121 15.4361 16.0543C15.4361 16.3966 15.7135 16.674 16.0558 16.674Z" fill="#3A424A"/>
</svg>
