<svg width="20" height="20" viewBox="0 0 20 20" fill="none" xmlns="http://www.w3.org/2000/svg">
<path d="M5 1.66667C5 1.43655 5.18655 1.25 5.41667 1.25H14.5833C14.8135 1.25 15 1.43655 15 1.66667V5.83333C15 6.06345 14.8135 6.25 14.5833 6.25H5.41667C5.18655 6.25 5 6.06345 5 5.83333V1.66667Z" fill="#0067D1"/>
<path d="M5 14.1667C5 13.9365 5.18655 13.75 5.41667 13.75H14.5833C14.8135 13.75 15 13.9365 15 14.1667V18.3333C15 18.5635 14.8135 18.75 14.5833 18.75H5.41667C5.18655 18.75 5 18.5635 5 18.3333V14.1667Z" fill="#0067D1"/>
<path d="M5 7.91667C5 7.68655 5.18655 7.5 5.41667 7.5H14.5833C14.8135 7.5 15 7.68655 15 7.91667V12.0833C15 12.3135 14.8135 12.5 14.5833 12.5H5.41667C5.18655 12.5 5 12.3135 5 12.0833V7.91667Z" fill="#0067D1"/>
<path d="M9.79163 12.5V13.75H10.2083V12.5H9.79163Z" fill="#3A424A"/>
<path d="M9.79163 7.49998H10.2083V6.24998H9.79163V7.49998Z" fill="#3A424A"/>
<path d="M3.1487 2.4397L2.89289 2.76859L3.3511 3.12498H1.66663V16.4583H4.99996V16.0416H2.08329V3.54165H3.41033L2.88238 4.01094L3.1592 4.32236L4.28389 3.32263L3.1487 2.4397Z" fill="#3A424A"/>
<path d="M16.8512 17.1435L17.107 16.8146L16.6488 16.4583H18.3333V3.12492H15V3.54159H17.9166V16.0416H16.5896L17.1175 15.5723L16.8407 15.2609L15.716 16.2606L16.8512 17.1435Z" fill="#3A424A"/>
<path d="M8.54163 3.75C8.54163 4.09518 8.2618 4.375 7.91663 4.375C7.57145 4.375 7.29163 4.09518 7.29163 3.75C7.29163 3.40482 7.57145 3.125 7.91663 3.125C8.2618 3.125 8.54163 3.40482 8.54163 3.75Z" fill="white"/>
<path d="M10.625 3.75C10.625 4.09518 10.3451 4.375 9.99996 4.375C9.65478 4.375 9.37496 4.09518 9.37496 3.75C9.37496 3.40482 9.65478 3.125 9.99996 3.125C10.3451 3.125 10.625 3.40482 10.625 3.75Z" fill="white"/>
<path d="M12.7083 3.75C12.7083 4.09518 12.4285 4.375 12.0833 4.375C11.7381 4.375 11.4583 4.09518 11.4583 3.75C11.4583 3.40482 11.7381 3.125 12.0833 3.125C12.4285 3.125 12.7083 3.40482 12.7083 3.75Z" fill="white"/>
<path d="M9.58329 10C9.58329 10.3452 9.30347 10.625 8.95829 10.625C8.61311 10.625 8.33329 10.3452 8.33329 10C8.33329 9.65482 8.61311 9.375 8.95829 9.375C9.30347 9.375 9.58329 9.65482 9.58329 10Z" fill="white"/>
<path d="M11.6666 10C11.6666 10.3452 11.3868 10.625 11.0416 10.625C10.6964 10.625 10.4166 10.3452 10.4166 10C10.4166 9.65482 10.6964 9.375 11.0416 9.375C11.3868 9.375 11.6666 9.65482 11.6666 10Z" fill="white"/>
<path d="M10.625 16.4583C10.625 16.8035 10.3451 17.0833 9.99996 17.0833C9.65478 17.0833 9.37496 16.8035 9.37496 16.4583C9.37496 16.1132 9.65478 15.8333 9.99996 15.8333C10.3451 15.8333 10.625 16.1132 10.625 16.4583Z" fill="white"/>
</svg>
