<svg width="20" height="20" viewBox="0 0 20 20" fill="none" xmlns="http://www.w3.org/2000/svg">
<path d="M10.1042 3.61875C9.30913 3.61875 8.6646 4.26328 8.6646 5.05834C8.6646 5.8534 9.30913 6.49792 10.1042 6.49792C10.8992 6.49792 11.5438 5.8534 11.5438 5.05834C11.5438 4.26328 10.8992 3.61875 10.1042 3.61875Z" fill="#0067D1"/>
<path d="M10.1042 8.56042C9.30913 8.56042 8.6646 9.20494 8.6646 10C8.6646 10.7951 9.30913 11.4396 10.1042 11.4396C10.8992 11.4396 11.5438 10.7951 11.5438 10C11.5438 9.20494 10.8992 8.56042 10.1042 8.56042Z" fill="#0067D1"/>
<path fill-rule="evenodd" clip-rule="evenodd" d="M13.9688 1.56665H6.23958C6.07275 1.56665 5.9375 1.7019 5.9375 1.86873V18.1292C5.9375 18.296 6.07275 18.4312 6.23958 18.4312H13.9688C14.1356 18.4312 14.2708 18.296 14.2708 18.1292V1.86873C14.2708 1.7019 14.1356 1.56665 13.9688 1.56665ZM8.24794 5.05834C8.24794 4.03316 9.07901 3.20209 10.1042 3.20209C11.1294 3.20209 11.9604 4.03316 11.9604 5.05834C11.9604 6.08352 11.1294 6.91459 10.1042 6.91459C9.07901 6.91459 8.24794 6.08352 8.24794 5.05834ZM8.24794 10C8.24794 8.97482 9.07901 8.14375 10.1042 8.14375C11.1294 8.14375 11.9604 8.97482 11.9604 10C11.9604 11.0252 11.1294 11.8563 10.1042 11.8563C9.07901 11.8563 8.24794 11.0252 8.24794 10ZM10.1042 13.0854C9.07901 13.0854 8.24794 13.9165 8.24794 14.9417C8.24794 15.9668 9.07901 16.7979 10.1042 16.7979C11.1294 16.7979 11.9604 15.9668 11.9604 14.9417C11.9604 13.9165 11.1294 13.0854 10.1042 13.0854Z" fill="#0067D1"/>
<path d="M8.66455 14.9417C8.66455 14.1466 9.30907 13.5021 10.1041 13.5021C10.8992 13.5021 11.5437 14.1466 11.5437 14.9417C11.5437 15.7367 10.8992 16.3812 10.1041 16.3812C9.30907 16.3812 8.66455 15.7367 8.66455 14.9417Z" fill="white"/>
<path fill-rule="evenodd" clip-rule="evenodd" d="M10.1042 3.61869C9.30909 3.61869 8.66457 4.26322 8.66457 5.05828C8.66457 5.85334 9.30909 6.49786 10.1042 6.49786C10.8992 6.49786 11.5437 5.85334 11.5437 5.05828C11.5437 4.26322 10.8992 3.61869 10.1042 3.61869ZM8.2479 5.05828C8.2479 4.0331 9.07897 3.20203 10.1042 3.20203C11.1293 3.20203 11.9604 4.0331 11.9604 5.05828C11.9604 6.08346 11.1293 6.91453 10.1042 6.91453C9.07897 6.91453 8.2479 6.08346 8.2479 5.05828Z" fill="#3A424A"/>
<path fill-rule="evenodd" clip-rule="evenodd" d="M10.1042 8.56036C9.30909 8.56036 8.66457 9.20488 8.66457 9.99994C8.66457 10.795 9.30909 11.4395 10.1042 11.4395C10.8992 11.4395 11.5437 10.795 11.5437 9.99994C11.5437 9.20488 10.8992 8.56036 10.1042 8.56036ZM8.2479 9.99994C8.2479 8.97476 9.07897 8.14369 10.1042 8.14369C11.1293 8.14369 11.9604 8.97476 11.9604 9.99994C11.9604 11.0251 11.1293 11.8562 10.1042 11.8562C9.07897 11.8562 8.2479 11.0251 8.2479 9.99994Z" fill="#3A424A"/>
<path fill-rule="evenodd" clip-rule="evenodd" d="M10.1042 13.502C9.30911 13.502 8.66459 14.1466 8.66459 14.9416C8.66459 15.7367 9.30911 16.3812 10.1042 16.3812C10.8992 16.3812 11.5438 15.7367 11.5438 14.9416C11.5438 14.1466 10.8992 13.502 10.1042 13.502ZM8.2479 14.9416C8.2479 13.9164 9.07897 13.0854 10.1042 13.0854C11.1293 13.0854 11.9604 13.9164 11.9604 14.9416C11.9604 15.9668 11.1293 16.7979 10.1042 16.7979C9.07897 16.7979 8.2479 15.9668 8.2479 14.9416Z" fill="#3A424A"/>
<path fill-rule="evenodd" clip-rule="evenodd" d="M18.1417 15.0958H15.5208V14.6791H18.1417V15.0958Z" fill="#3A424A"/>
<path fill-rule="evenodd" clip-rule="evenodd" d="M17.1229 15.9708H15.5208V15.5541H17.1229V15.9708Z" fill="#3A424A"/>
<path fill-rule="evenodd" clip-rule="evenodd" d="M17.1229 14.2229H15.5208V13.8062H17.1229V14.2229Z" fill="#3A424A"/>
<path fill-rule="evenodd" clip-rule="evenodd" d="M2.06665 14.6791H4.68748V15.0958H2.06665V14.6791Z" fill="#3A424A"/>
<path fill-rule="evenodd" clip-rule="evenodd" d="M3.0854 13.8062H4.68748V14.2229H3.0854V13.8062Z" fill="#3A424A"/>
<path fill-rule="evenodd" clip-rule="evenodd" d="M3.0854 15.5541H4.68748V15.9708H3.0854V15.5541Z" fill="#3A424A"/>
</svg>
