<svg width="20" height="20" viewBox="0 0 20 20" fill="none" xmlns="http://www.w3.org/2000/svg">
<path d="M17.2379 13.8169C16.832 13.5461 16.3548 13.4017 15.8667 13.4021C15.2134 13.4032 14.5872 13.6632 14.1252 14.1252C13.6633 14.5871 13.4032 15.2134 13.4021 15.8667C13.4017 16.3547 13.5461 16.8319 13.817 17.2379C14.0879 17.6438 14.4731 17.9603 14.9239 18.1473C15.3747 18.3342 15.8708 18.3833 16.3495 18.2881C16.8282 18.193 17.2679 17.9581 17.613 17.613C17.9581 17.2679 18.1931 16.8282 18.2882 16.3495C18.3833 15.8708 18.3343 15.3747 18.1473 14.9239C17.9604 14.473 17.6439 14.0878 17.2379 13.8169Z" fill="white"/>
<path d="M10.0001 10.8334C10.4603 10.8334 10.8334 10.4603 10.8334 10C10.8334 9.53978 10.4603 9.16669 10.0001 9.16669C9.53982 9.16669 9.16672 9.53978 9.16672 10C9.16672 10.4603 9.53982 10.8334 10.0001 10.8334Z" fill="white"/>
<path d="M15.8667 13.4021C16.3548 13.4017 16.832 13.5461 17.2379 13.8169C17.6439 14.0878 17.9604 14.473 18.1473 14.9239C18.3343 15.3747 18.3833 15.8708 18.2882 16.3495C18.1931 16.8282 17.9581 17.2679 17.613 17.613C17.2679 17.9581 16.8282 18.193 16.3495 18.2881C15.8708 18.3833 15.3747 18.3342 14.9239 18.1473C14.4731 17.9603 14.0879 17.6438 13.817 17.2379C13.5461 16.8319 13.4017 16.3547 13.4021 15.8667C13.4032 15.2134 13.6633 14.5871 14.1252 14.1252C14.5872 13.6632 15.2134 13.4032 15.8667 13.4021ZM15.8667 12.9854C15.2964 12.9854 14.7388 13.1546 14.2646 13.4715C13.7904 13.7884 13.4208 14.2389 13.2027 14.7658C12.9845 15.2928 12.9275 15.8727 13.0389 16.432C13.1504 16.9914 13.4252 17.5052 13.8286 17.9083C14.2321 18.3115 14.746 18.5859 15.3055 18.697C15.8649 18.808 16.4447 18.7506 16.9716 18.532C17.4984 18.3135 17.9486 17.9436 18.2651 17.4691C18.5817 16.9947 18.7505 16.437 18.7501 15.8667C18.7501 15.4881 18.6755 15.1133 18.5305 14.7636C18.3856 14.4139 18.1732 14.0962 17.9054 13.8286C17.6376 13.561 17.3198 13.3488 16.97 13.2042C16.6202 13.0595 16.2453 12.9852 15.8667 12.9854Z" fill="#3A424A"/>
<path d="M15.6584 16.7818V14.1167H16.075V16.7821L17.2667 15.5L17.5709 15.7854L15.8667 17.6167L14.1626 15.7854L14.4688 15.5L15.6584 16.7818Z" fill="#3A424A"/>
<path d="M2.90007 10C2.90007 6.07878 6.07884 2.9 10.0001 2.9C13.9213 2.9 17.1001 6.07878 17.1001 10C17.1001 11.0872 16.8557 12.1173 16.4189 13.0385C16.5573 13.0654 16.6938 13.1025 16.8271 13.1495C17.2698 12.1915 17.5167 11.1246 17.5167 10C17.5167 5.84866 14.1514 2.48334 10.0001 2.48334C5.84872 2.48334 2.4834 5.84866 2.4834 10C2.4834 14.1513 5.84872 17.5167 10.0001 17.5167C11.1239 17.5167 12.1901 17.27 13.1476 16.8279C13.1022 16.6992 13.0658 16.567 13.0389 16.432C13.0381 16.428 13.0373 16.4239 13.0365 16.4198C12.1159 16.856 11.0865 17.1 10.0001 17.1C6.07884 17.1 2.90007 13.9212 2.90007 10Z" fill="#3A424A"/>
<path d="M10.4234 10.718C10.5447 10.6463 10.6463 10.5447 10.718 10.4234L12.9265 12.6319L12.6319 12.9265L10.4234 10.718Z" fill="#3A424A"/>
<path d="M10.2084 9.19294C10.1418 9.1758 10.072 9.16669 10.0001 9.16669C9.92812 9.16669 9.85831 9.1758 9.79172 9.19294V4.95628H10.2084V9.19294Z" fill="#3A424A"/>
<path d="M13.8031 17.8825C12.6531 18.4384 11.3629 18.75 10 18.75C5.16751 18.75 1.25 14.8325 1.25 10C1.25 5.16751 5.16751 1.25 10 1.25C14.8325 1.25 18.75 5.16751 18.75 10C18.75 11.3637 18.438 12.6546 17.8816 13.8051C17.6188 13.5486 17.3094 13.3446 16.9699 13.2042C16.9227 13.1846 16.8751 13.1664 16.827 13.1495C17.2697 12.1915 17.5167 11.1246 17.5167 9.99998C17.5167 5.84864 14.1514 2.48332 10 2.48332C5.84867 2.48332 2.48334 5.84864 2.48334 9.99998C2.48334 14.1513 5.84867 17.5167 10 17.5167C11.1239 17.5167 12.1901 17.27 13.1476 16.8279C13.2864 17.2215 13.5095 17.5817 13.8031 17.8825Z" fill="#0067D1"/>
<path fill-rule="evenodd" clip-rule="evenodd" d="M13.0365 16.4198C12.9283 15.8642 12.9861 15.289 13.2026 14.7658C13.4208 14.2389 13.7904 13.7884 14.2646 13.4715C14.7388 13.1546 15.2963 12.9854 15.8667 12.9854C16.0525 12.9853 16.2374 13.0031 16.4188 13.0384C16.8556 12.1173 17.1 11.0872 17.1 9.99998C17.1 6.07876 13.9212 2.89998 10 2.89998C6.07879 2.89998 2.90001 6.07876 2.90001 9.99998C2.90001 13.9212 6.07879 17.1 10 17.1C11.0864 17.1 12.1159 16.856 13.0365 16.4198ZM10.718 10.4233C10.7913 10.2993 10.8333 10.1545 10.8333 10C10.8333 9.6117 10.5678 9.28543 10.2083 9.19292V4.95626H9.79167V9.19292C9.43224 9.28543 9.16667 9.6117 9.16667 10C9.16667 10.4602 9.53976 10.8333 10 10.8333C10.1582 10.8333 10.3061 10.7892 10.4321 10.7127C10.4292 10.7145 10.4263 10.7162 10.4233 10.718L12.6319 12.9265L12.9265 12.6319L10.718 10.4233Z" fill="#0067D1"/>
</svg>
