<svg width="20" height="20" viewBox="0 0 20 20" fill="none" xmlns="http://www.w3.org/2000/svg">
<path d="M17.8476 1.7713C18.0492 1.75554 18.2241 1.90237 18.2427 2.1037C18.4166 3.99574 17.4541 6.64709 15.1261 9.33632C12.6523 12.1939 9.75364 13.7371 8.65175 12.7833C7.68638 11.9475 8.42041 9.47239 10.2806 6.95028H1.61475V4.72736C1.61473 4.71847 1.61813 4.70993 1.62424 4.70348C1.63035 4.69703 1.6387 4.69318 1.64757 4.69271H12.2719C14.2599 2.81416 16.297 1.89252 17.8476 1.7713Z" fill="white"/>
<path d="M9.02563 8.08093C8.33034 8.16066 7.70316 8.46753 7.25376 8.98666C6.95306 9.334 6.75867 9.74456 6.66855 10.1868C7.11409 10.1687 7.56972 10.2228 8.01655 10.3475C8.04382 10.2537 8.07368 10.1586 8.10608 10.0623C8.12669 10.0001 8.14831 9.93765 8.17091 9.87486C8.37411 9.31034 8.66228 8.70446 9.02563 8.08093Z" fill="white"/>
<path d="M12.6091 13.6228C12.3084 13.9701 11.93 14.2213 11.5052 14.3738C11.4593 13.9303 11.3405 13.4871 11.1531 13.0628C11.8159 12.7614 12.5309 12.3068 13.2515 11.7313C13.2741 12.4338 13.0603 13.1016 12.6091 13.6228Z" fill="white"/>
<path d="M7.12481 13.1147L6.44303 13.9023L6.75806 14.175L7.43984 13.3874L7.12481 13.1147Z" fill="white"/>
<path d="M7.75486 13.6601L6.66401 14.9202L6.97903 15.1929L8.06988 13.9329L7.75486 13.6601Z" fill="white"/>
<path d="M8.3849 14.2056L7.70312 14.9931L8.01815 15.2658L8.69993 14.4783L8.3849 14.2056Z" fill="white"/>
<path fill-rule="evenodd" clip-rule="evenodd" d="M1.61475 6.81453H1.25V17.7953C1.25 18.3226 1.66003 18.75 2.16582 18.75H15.7508C16.2566 18.75 16.6667 18.3226 16.6667 17.7953V7.2629C16.2424 7.94309 15.7302 8.63843 15.1261 9.33633C12.6523 12.1939 9.75364 13.7372 8.65175 12.7833C7.68638 11.9476 8.42041 9.4724 10.2806 6.95029H1.61475V6.81453ZM7.25376 8.98667C7.70316 8.46755 8.33034 8.16068 9.02563 8.08095C8.66228 8.70448 8.37411 9.31035 8.17091 9.87487C8.14831 9.93767 8.12669 10.0001 8.10608 10.0623C8.07368 10.1586 8.04382 10.2537 8.01655 10.3475C7.56972 10.2229 7.11409 10.1687 6.66855 10.1868C6.75867 9.74458 6.95306 9.33402 7.25376 8.98667ZM12.6091 13.6228C12.3084 13.9701 11.93 14.2213 11.5052 14.3739C11.4593 13.9303 11.3405 13.4871 11.1531 13.0628C11.8159 12.7614 12.5309 12.3068 13.2515 11.7313C13.2741 12.4338 13.0603 13.1016 12.6091 13.6228ZM6.44303 13.9023L7.12481 13.1147L7.43984 13.3874L6.75806 14.175L6.44303 13.9023ZM7.75486 13.6602L6.66401 14.9203L6.97903 15.193L8.06988 13.9329L7.75486 13.6602ZM7.70312 14.9931L8.3849 14.2056L8.69993 14.4783L8.01815 15.2659L7.70312 14.9931Z" fill="#0067D1"/>
<path d="M17.8446 5.33205C15.9938 5.454 14.4791 3.6039 14.7094 2.61792C14.7094 2.61792 16.7444 1.49465 17.9013 1.59399C18.1191 1.61269 18.2999 1.76597 18.3583 1.97657C18.6838 3.15102 17.8446 5.33205 17.8446 5.33205Z" fill="#0067D1"/>
<path d="M2.63214 6.24262C2.8668 6.24262 3.05703 6.05239 3.05703 5.81773C3.05703 5.58307 2.8668 5.39284 2.63214 5.39284C2.39748 5.39284 2.20725 5.58307 2.20725 5.81773C2.20725 6.05239 2.39748 6.24262 2.63214 6.24262Z" fill="#3A424A"/>
<path d="M3.90863 6.24262C4.14329 6.24262 4.33352 6.05239 4.33352 5.81773C4.33352 5.58307 4.14329 5.39284 3.90863 5.39284C3.67397 5.39284 3.48374 5.58307 3.48374 5.81773C3.48374 6.05239 3.67397 6.24262 3.90863 6.24262Z" fill="#3A424A"/>
<path d="M5.18512 6.24262C5.41978 6.24262 5.61001 6.05239 5.61001 5.81773C5.61001 5.58307 5.41978 5.39284 5.18512 5.39284C4.95046 5.39284 4.76023 5.58307 4.76023 5.81773C4.76023 6.05239 4.95046 6.24262 5.18512 6.24262Z" fill="#3A424A"/>
<path fill-rule="evenodd" clip-rule="evenodd" d="M12.1953 8.37162C12.432 8.09822 12.4123 7.69344 12.1513 7.46752C11.8903 7.2416 11.4869 7.28009 11.2502 7.55349C11.0135 7.82689 11.0332 8.23167 11.2942 8.45759C11.5552 8.68351 11.9586 8.64502 12.1953 8.37162ZM12.0149 7.62503C12.1821 7.76974 12.2052 8.04187 12.0378 8.23527C11.8704 8.42866 11.5977 8.44479 11.4306 8.30008C11.2634 8.15537 11.2403 7.88324 11.4077 7.68984C11.5751 7.49645 11.8478 7.48032 12.0149 7.62503Z" fill="#3A424A"/>
<path fill-rule="evenodd" clip-rule="evenodd" d="M13.2667 7.13404C13.5033 6.86063 13.4836 6.45585 13.2227 6.22993C12.9617 6.00401 12.5583 6.0425 12.3216 6.3159C12.0849 6.5893 12.1046 6.99408 12.3656 7.22C12.6265 7.44592 13.03 7.40743 13.2667 7.13404ZM13.0863 6.38744C13.2535 6.53215 13.2766 6.80428 13.1091 6.99768C12.9417 7.19107 12.6691 7.2072 12.5019 7.06249C12.3348 6.91778 12.3117 6.64565 12.4791 6.45225C12.6465 6.25886 12.9192 6.24274 13.0863 6.38744Z" fill="#3A424A"/>
<path fill-rule="evenodd" clip-rule="evenodd" d="M14.294 4.99234C14.555 5.21826 14.5747 5.62305 14.338 5.89645C14.1013 6.16985 13.6979 6.20834 13.4369 5.98241C13.176 5.75649 13.1563 5.35171 13.393 5.07831C13.6296 4.80491 14.0331 4.76642 14.294 4.99234ZM14.1577 5.14985C14.3248 5.29456 14.3479 5.5667 14.1805 5.76009C14.0131 5.95349 13.7405 5.96961 13.5733 5.8249C13.4061 5.6802 13.383 5.40806 13.5505 5.21467C13.7179 5.02127 13.9905 5.00515 14.1577 5.14985Z" fill="#3A424A"/>
<path fill-rule="evenodd" clip-rule="evenodd" d="M1.24988 7.31487L9.50432 7.31487C9.43074 7.42522 9.35931 7.53532 9.29009 7.64505C8.3837 7.67078 7.53335 8.02707 6.93862 8.71407C6.55946 9.15206 6.32821 9.67362 6.23743 10.2276C6.21429 10.3688 6.20028 10.5122 6.19527 10.6568C6.33294 10.6319 6.47297 10.6153 6.6146 10.6068C7.04013 10.5813 7.48006 10.6295 7.91338 10.7514L7.9168 10.7524C7.84713 11.0817 7.81313 11.3949 7.82057 11.6847C7.8344 12.223 7.99454 12.7264 8.38899 13.0679C8.78344 13.4093 9.30463 13.4957 9.83937 13.4323C10.1302 13.3978 10.4385 13.318 10.7579 13.2C10.7613 13.2075 10.7647 13.2151 10.7681 13.2227C10.9508 13.6341 11.0615 14.0626 11.0972 14.4874C11.1091 14.6288 11.1127 14.7697 11.1079 14.9095C11.2503 14.8839 11.3901 14.8495 11.5266 14.8063C12.0618 14.6372 12.5449 14.3336 12.9241 13.8956C13.5208 13.2063 13.7512 12.3099 13.6442 11.4061L13.6418 11.3865C14.2524 10.864 14.8647 10.2559 15.4511 9.57863C17.8185 6.84385 18.8559 4.08386 18.6675 2.03515C18.628 1.60573 18.2527 1.29207 17.8251 1.3255C16.1648 1.45529 14.0579 2.42246 12.0293 4.32788L1.64741 4.32788C1.54181 4.32836 1.4407 4.37065 1.3662 4.44549C1.2917 4.52033 1.24988 4.62163 1.24988 4.72724L1.24988 7.31487ZM1.64741 4.69259L11.6536 4.69259C11.3768 4.97013 11.102 5.26546 10.8307 5.57885C10.4386 6.03186 10.0787 6.49191 9.75481 6.95016L1.61459 6.95016L1.61459 4.72724C1.61458 4.71835 1.61798 4.70981 1.62409 4.70336C1.63019 4.69691 1.63854 4.69306 1.64741 4.69259ZM9.77419 7.66232C10.1659 7.06314 10.6258 6.45222 11.1457 5.85156C13.4695 3.16726 16.0092 1.8854 17.8575 1.7409C18.0591 1.72514 18.2341 1.87197 18.2526 2.0733C18.4266 3.96534 17.4641 6.61669 15.136 9.30592C12.6622 12.1635 9.76359 13.7067 8.6617 12.7529C8.13696 12.2986 8.11433 11.3599 8.50177 10.1926C8.72211 9.53844 9.0701 8.81367 9.52972 8.06284C9.61081 7.93037 9.69537 7.79709 9.78332 7.66324L9.77419 7.66232ZM9.02552 8.08106C8.33022 8.16078 7.70305 8.46766 7.25365 8.98678C6.95295 9.33413 6.75856 9.74468 6.66844 10.1869C7.11398 10.1688 7.5696 10.223 8.01644 10.3476C8.0437 10.2538 8.07357 10.1587 8.10597 10.0624C8.12658 10.0003 8.1482 9.93777 8.1708 9.87498C8.37399 9.31046 8.66217 8.70458 9.02552 8.08106ZM12.609 13.6229C12.3083 13.9702 11.9299 14.2214 11.5051 14.374C11.4592 13.9304 11.3403 13.4872 11.153 13.0629C11.8158 12.7616 12.5308 12.3069 13.2514 11.7314C13.274 12.4339 13.0602 13.1017 12.609 13.6229Z" fill="#3A424A"/>
</svg>
