<svg width="20" height="20" viewBox="0 0 20 20" fill="none" xmlns="http://www.w3.org/2000/svg">
<path fill-rule="evenodd" clip-rule="evenodd" d="M18.75 10C18.75 14.8325 14.8325 18.75 10 18.75C5.16751 18.75 1.25 14.8325 1.25 10C1.25 5.16751 5.16751 1.25 10 1.25C14.8325 1.25 18.75 5.16751 18.75 10Z" fill="#0067D1"/>
<path d="M8.29585 4.95833L8.60001 5.24167L10 3.7375L9.79168 3.96167V8.3464C9.93044 8.32892 10.0704 8.32903 10.2083 8.34641V3.96167L11.3979 5.24167L11.7042 4.95833L10 3.125L8.29585 4.95833Z" fill="#3A424A"/>
<path d="M11.6536 9.79168C11.6623 9.86053 11.6667 9.9301 11.6667 10C11.6666 10.07 11.6621 10.1396 11.6534 10.2083H16.0383L14.7583 11.3979L15.0417 11.7042L16.875 10L15.0417 8.29585L14.7583 8.60001L16.2625 10L16.0383 9.79168H11.6536Z" fill="#3A424A"/>
<path d="M10.2083 11.6534C10.1396 11.6621 10.07 11.6666 10 11.6667C9.9301 11.6667 9.86053 11.6623 9.79168 11.6536V16.0387L8.60001 14.7583L8.29585 15.0417L10 16.875L11.7042 15.0417L11.3979 14.7583L10.2083 16.0383V11.6534Z" fill="#3A424A"/>
<path d="M8.34641 10.2083C8.32903 10.0704 8.32892 9.93044 8.3464 9.79168H3.96133L5.24167 8.60001L4.95833 8.29585L3.125 10L4.95833 11.7042L5.24167 11.3979L3.96167 10.2083H8.34641Z" fill="#3A424A"/>
<path d="M10 11.6666C9.67041 11.6666 9.34817 11.5689 9.07409 11.3858C8.80001 11.2026 8.58639 10.9423 8.46024 10.6378C8.3341 10.3332 8.30109 9.99813 8.3654 9.67483C8.42971 9.35153 8.58844 9.05456 8.82153 8.82147C9.05462 8.58838 9.35159 8.42965 9.67489 8.36534C9.99819 8.30103 10.3333 8.33404 10.6378 8.46018C10.9424 8.58633 11.2027 8.79995 11.3858 9.07403C11.569 9.34811 11.6667 9.67034 11.6667 9.99998C11.6663 10.4419 11.4906 10.8656 11.1781 11.1781C10.8657 11.4906 10.442 11.6663 10 11.6666Z" fill="white"/>
</svg>
