<svg width="20" height="20" viewBox="0 0 20 20" fill="none" xmlns="http://www.w3.org/2000/svg">
<path fill-rule="evenodd" clip-rule="evenodd" d="M12.8822 1.78929C12.484 1.78929 12.0899 1.869 11.723 2.02373C11.3561 2.17846 11.0239 2.40507 10.7459 2.6902C10.468 2.97534 10.2499 3.31324 10.1046 3.68397C9.95932 4.0547 9.88971 4.45077 9.89988 4.84883L9.89995 4.85149V5.36874H9.48328V4.85678C9.47207 4.40403 9.55142 3.9536 9.71669 3.53192C9.88229 3.10941 10.1308 2.72433 10.4476 2.39936C10.7643 2.0744 11.1429 1.81614 11.5611 1.6398C11.9792 1.46347 12.4284 1.37262 12.8822 1.37262C13.336 1.37262 13.7853 1.46347 14.2034 1.6398C14.6215 1.81614 15.0002 2.0744 15.3169 2.39936C15.6337 2.72433 15.8822 3.10941 16.0478 3.53192C16.2131 3.9536 16.2924 4.40403 16.2812 4.85678V5.36874H15.8645V4.85149L15.8646 4.84883C15.8748 4.45077 15.8052 4.0547 15.6598 3.68397C15.5145 3.31324 15.2965 2.97534 15.0185 2.6902C14.7406 2.40507 14.4084 2.17846 14.0415 2.02373C13.6746 1.869 13.2804 1.78929 12.8822 1.78929Z" fill="#3A424A"/>
<path d="M15.1541 9.50211L15.5708 9.51669L15.6625 7.01669L13.1604 7.10627L13.175 7.52294L14.9233 7.45911L12.8381 9.54435L13.1327 9.83897L15.218 7.7537L15.1541 9.50211Z" fill="#3A424A"/>
<path d="M7.63745 5.86429C7.80644 5.90364 7.97234 5.95681 8.13342 6.02347C8.52052 6.18367 8.87224 6.4186 9.16848 6.71483C9.46471 7.01107 9.69965 7.36279 9.85984 7.7499C10.02 8.137 10.1023 8.55188 10.1021 8.97082V10.1042H9.68541V8.97082C9.68486 8.23557 9.39253 7.53058 8.87263 7.01068C8.35273 6.49078 7.64775 6.19845 6.91249 6.1979C6.17705 6.19845 5.47185 6.49071 4.95161 7.01055C4.43138 7.5304 4.1386 8.23537 4.13749 8.97082V10.1042H3.72083V8.97082C3.72083 8.55178 3.80339 8.13685 3.96382 7.74974C4.12424 7.36262 4.35937 7.01091 4.65577 6.71471C4.95217 6.4185 5.30403 6.1836 5.69125 6.02343C6.07847 5.86326 6.49345 5.78096 6.91249 5.78124C7.01562 5.78117 7.1185 5.78611 7.22078 5.79598V5.72499C7.22078 5.52824 7.38028 5.36874 7.57703 5.36874H7.8775V5.78541H7.63745V5.86429Z" fill="#3A424A"/>
<path d="M8.47842 5.78541V5.36874H9.07935V5.78541H8.47842Z" fill="#3A424A"/>
<path d="M9.68027 5.36874V5.78541H10.2812V5.36874H9.68027Z" fill="#3A424A"/>
<path d="M10.8821 5.78541V5.36874H11.4831V5.78541H10.8821Z" fill="#3A424A"/>
<path d="M12.084 5.36874V5.78541H12.6849V5.36874H12.084Z" fill="#3A424A"/>
<path d="M13.2858 5.78541V5.36874H13.8868V5.78541H13.2858Z" fill="#3A424A"/>
<path d="M14.4877 5.36874V5.78541H15.0886V5.36874H14.4877Z" fill="#3A424A"/>
<path d="M15.6895 5.78541V5.36874H16.2905V5.78541H15.6895Z" fill="#3A424A"/>
<path d="M16.8914 5.36874V5.78541H17.4923V5.36874H16.8914Z" fill="#3A424A"/>
<path d="M18.0932 5.78541V5.36874H18.3937C18.5905 5.36874 18.75 5.52824 18.75 5.72499V6.05563H18.3333V5.78541H18.0932Z" fill="#3A424A"/>
<path d="M18.75 6.71692H18.3333V7.3782H18.75V6.71692Z" fill="#3A424A"/>
<path d="M18.3333 8.03949H18.75V8.70077H18.3333V8.03949Z" fill="#3A424A"/>
<path d="M18.75 9.36206H18.3333V10.0233H18.75V9.36206Z" fill="#3A424A"/>
<path d="M18.3333 10.6846H18.75V11.3459H18.3333V10.6846Z" fill="#3A424A"/>
<path d="M18.75 12.0072H18.3333V12.6685H18.75V12.0072Z" fill="#3A424A"/>
<path d="M18.3333 13.3298H18.75V13.6604C18.75 13.8572 18.5905 14.0167 18.3937 14.0167H18.0932V13.6H18.3333V13.3298Z" fill="#3A424A"/>
<path d="M17.4923 14.0167V13.6H16.8914V14.0167H17.4923Z" fill="#3A424A"/>
<path d="M16.2905 13.6V14.0167H15.6895V13.6H16.2905Z" fill="#3A424A"/>
<path d="M15.0886 14.0167V13.6H14.4877V14.0167H15.0886Z" fill="#3A424A"/>
<path d="M13.8868 13.6V14.0167H13.2858V13.6H13.8868Z" fill="#3A424A"/>
<path d="M7.22078 10.0233H7.63745V9.36206H7.22078V10.0233Z" fill="#3A424A"/>
<path d="M7.63745 8.70077H7.22078V8.03949H7.63745V8.70077Z" fill="#3A424A"/>
<path d="M7.22078 7.3782H7.63745V6.71692H7.22078V7.3782Z" fill="#3A424A"/>
<path fill-rule="evenodd" clip-rule="evenodd" d="M18.0933 5.36877H17.4924V5.78544H16.8915V5.36877H16.2905V5.78544H15.6896V5.36877H15.0887V5.78544H14.4878V5.36877H13.8868V5.78544H13.2859V5.36877H12.685V5.78544H12.084V5.36877H11.4831V5.78544H10.8822V5.36877H10.2813V5.78544H9.68035V5.36877H9.07942V5.78544H8.47849V5.36877H7.87757V5.78544H7.63752V5.86432C7.80652 5.90367 7.97241 5.95685 8.13349 6.02351C8.52059 6.1837 8.87231 6.41863 9.16855 6.71487C9.46478 7.0111 9.69972 7.36283 9.85991 7.74993C10.0201 8.13703 10.1024 8.55192 10.1021 8.97085V10.1042H12.423C12.6197 10.1042 12.7792 10.2637 12.7792 10.4604V14.0167H13.2859V13.6H13.8868V14.0167H14.4878V13.6H15.0887V14.0167H15.6896V13.6H16.2905V14.0167H16.8915V13.6H17.4924V14.0167H18.0933V13.6H18.3334V13.3298H18.75V12.6685H18.3334V12.0072H18.75V11.3459H18.3334V10.6847H18.75V10.0234H18.3334V9.36209H18.75V8.70081H18.3334V8.03952H18.75V7.37824H18.3334V6.71695H18.75V6.05567H18.3334V5.78544H18.0933V5.36877ZM15.1542 9.50214L15.5709 9.51672L15.6625 7.01672L13.1604 7.10631L13.175 7.52297L14.9234 7.45914L12.8381 9.54438L13.1328 9.83901L15.218 7.75373L15.1542 9.50214Z" fill="white"/>
<path d="M9.68548 10.1042V8.97085C9.68493 8.2356 9.3926 7.53062 8.8727 7.01072C8.42599 6.564 7.84264 6.28531 7.22086 6.21534V6.71695H7.63752V7.37824H7.22086V8.03952H7.63752V8.70081H7.22086V9.36209H7.63752V10.0234H7.22086V10.1042H9.68548Z" fill="white"/>
<path d="M7.21673 15.5505C7.81148 15.4699 8.26992 14.9601 8.26992 14.3433C8.26992 13.6705 7.72448 13.125 7.05165 13.125C6.37881 13.125 5.83337 13.6705 5.83337 14.3433C5.83337 14.9601 6.29181 15.4699 6.88657 15.5505L6.5175 16.2066C6.45416 16.3192 6.53554 16.4584 6.66475 16.4584H7.43855C7.56776 16.4584 7.64914 16.3192 7.58579 16.2066L7.21673 15.5505Z" fill="white"/>
<path fill-rule="evenodd" clip-rule="evenodd" d="M1.60625 10.1042H12.4229C12.6197 10.1042 12.7792 10.2637 12.7792 10.4604V18.3959C12.7792 18.5926 12.6197 18.7521 12.4229 18.7521H1.60625C1.4095 18.7521 1.25 18.5926 1.25 18.3959V10.4604C1.25 10.2637 1.4095 10.1042 1.60625 10.1042ZM8.26988 14.3433C8.26988 14.9601 7.81144 15.4699 7.21669 15.5505L7.58575 16.2066C7.6491 16.3192 7.56772 16.4584 7.43851 16.4584H6.66471C6.5355 16.4584 6.45412 16.3192 6.51746 16.2066L6.88653 15.5505C6.29177 15.4699 5.83333 14.9601 5.83333 14.3433C5.83333 13.6705 6.37877 13.125 7.05161 13.125C7.72444 13.125 8.26988 13.6705 8.26988 14.3433Z" fill="#0067D1"/>
</svg>
