<svg width="20" height="20" viewBox="0 0 20 20" fill="none" xmlns="http://www.w3.org/2000/svg">
<path d="M11.7396 7.42706C11.7946 7.42706 11.849 7.4325 11.9022 7.44307L11.8209 7.85173C11.7943 7.84645 11.7671 7.84373 11.7396 7.84373H11.5215V7.42706H11.7396Z" fill="#3A424A"/>
<path d="M4.97854 7.84373V7.42706H4.76044C4.70544 7.42706 4.65101 7.4325 4.59786 7.44307L4.67915 7.85173C4.70571 7.84645 4.73292 7.84373 4.76044 7.84373H4.97854Z" fill="#3A424A"/>
<path d="M4.52894 7.91395L4.29746 7.5675C4.2524 7.59761 4.21007 7.63225 4.17118 7.67114C4.1323 7.71003 4.09765 7.75236 4.06754 7.79742L4.41399 8.0289C4.42903 8.00639 4.44635 7.98523 4.46581 7.96577C4.48527 7.94631 4.50643 7.92899 4.52894 7.91395Z" fill="#3A424A"/>
<path d="M11.5215 15.6562V16.0729H11.7396C11.7946 16.0729 11.849 16.0675 11.9022 16.0569L11.8209 15.6482C11.7943 15.6535 11.7671 15.6562 11.7396 15.6562H11.5215Z" fill="#3A424A"/>
<path d="M11.9711 15.586L12.2026 15.9325C12.2476 15.9023 12.29 15.8677 12.3289 15.8288C12.3677 15.7899 12.4024 15.7476 12.4325 15.7025L12.086 15.4711C12.071 15.4936 12.0537 15.5147 12.0342 15.5342C12.0148 15.5536 11.9936 15.571 11.9711 15.586Z" fill="#3A424A"/>
<path d="M12.1563 8.4785H12.5729V8.2604C12.5729 8.2054 12.5675 8.15097 12.5569 8.09782L12.1483 8.17911C12.1536 8.20567 12.1563 8.23288 12.1563 8.2604V8.4785Z" fill="#3A424A"/>
<path d="M12.086 8.0289L12.4325 7.79742C12.4024 7.75236 12.3677 7.71003 12.3289 7.67114C12.29 7.63225 12.2476 7.59761 12.2026 7.5675L11.9711 7.91395C11.9936 7.92899 12.0148 7.94631 12.0342 7.96577C12.0537 7.98523 12.071 8.00639 12.086 8.0289Z" fill="#3A424A"/>
<path d="M12.1563 8.91469H12.5729V9.35089H12.1563V8.91469Z" fill="#3A424A"/>
<path d="M12.1563 9.78709H12.5729V10.2233H12.1563V9.78709Z" fill="#3A424A"/>
<path d="M12.1563 10.6595H12.5729V11.0957H12.1563V10.6595Z" fill="#3A424A"/>
<path d="M12.1563 11.5319H12.5729V11.9681H12.1563V11.5319Z" fill="#3A424A"/>
<path d="M12.1563 12.4043H12.5729V12.8405H12.1563V12.4043Z" fill="#3A424A"/>
<path d="M12.1563 13.2767H12.5729V13.7129H12.1563V13.2767Z" fill="#3A424A"/>
<path d="M12.1563 14.1491H12.5729V14.5853H12.1563V14.1491Z" fill="#3A424A"/>
<path d="M12.1563 15.0215H12.5729V15.2396C12.5729 15.2946 12.5675 15.349 12.5569 15.4021L12.1483 15.3208C12.1536 15.2943 12.1563 15.2671 12.1563 15.2396V15.0215Z" fill="#3A424A"/>
<path d="M11.0853 15.6562V16.0729H10.6491V15.6562H11.0853Z" fill="#3A424A"/>
<path d="M4.34377 15.0215H3.9271V15.2396C3.9271 15.2946 3.93254 15.349 3.94311 15.4021L4.35177 15.3208C4.34649 15.2943 4.34377 15.2671 4.34377 15.2396V15.0215Z" fill="#3A424A"/>
<path d="M4.41399 15.4711L4.06754 15.7025C4.09765 15.7476 4.1323 15.7899 4.17118 15.8288C4.21007 15.8677 4.2524 15.9023 4.29746 15.9325L4.52894 15.586C4.50643 15.571 4.48527 15.5537 4.46581 15.5342C4.44635 15.5147 4.42903 15.4936 4.41399 15.4711Z" fill="#3A424A"/>
<path d="M9.34052 15.6562V16.0729H8.90432V15.6562H9.34052Z" fill="#3A424A"/>
<path d="M8.46812 15.6562V16.0729H8.03192V15.6562H8.46812Z" fill="#3A424A"/>
<path d="M7.59572 15.6562V16.0729H7.15953V15.6562H7.59572Z" fill="#3A424A"/>
<path d="M6.72333 15.6562V16.0729H6.28713V15.6562H6.72333Z" fill="#3A424A"/>
<path d="M5.85093 15.6562V16.0729H5.41473V15.6562H5.85093Z" fill="#3A424A"/>
<path d="M4.97854 15.6562V16.0729H4.76044C4.70544 16.0729 4.65101 16.0675 4.59786 16.0569L4.67915 15.6482C4.70571 15.6535 4.73292 15.6562 4.76044 15.6562H4.97854Z" fill="#3A424A"/>
<path d="M4.34377 14.5853H3.9271V14.1491H4.34377V14.5853Z" fill="#3A424A"/>
<path d="M4.34377 13.7129H3.9271V13.2767H4.34377V13.7129Z" fill="#3A424A"/>
<path d="M4.34377 12.8405H3.9271V12.4043H4.34377V12.8405Z" fill="#3A424A"/>
<path d="M4.34377 11.9681H3.9271V11.5319H4.34377V11.9681Z" fill="#3A424A"/>
<path d="M4.34377 11.0957H3.9271V10.6595H4.34377V11.0957Z" fill="#3A424A"/>
<path fill-rule="evenodd" clip-rule="evenodd" d="M10.2129 15.6562V16.0729H9.89792V17.9437C9.89736 18.1577 9.81196 18.3628 9.66043 18.514C9.50889 18.6651 9.30361 18.75 9.08958 18.75H2.05625C1.84242 18.75 1.63735 18.665 1.48615 18.5138C1.33494 18.3626 1.25 18.1576 1.25 17.9437V10.9104C1.25 10.6964 1.33488 10.4911 1.48602 10.3395C1.63716 10.188 1.84223 10.1026 2.05625 10.1021H3.9271V9.78709H4.34377V10.1021H9.08958C9.30397 10.1021 9.50957 10.1872 9.66116 10.3388C9.81275 10.4904 9.89792 10.696 9.89792 10.9104V15.6562H10.2129ZM9.36593 10.634C9.29259 10.5607 9.19329 10.5193 9.08958 10.5187H2.05625C1.95273 10.5193 1.85365 10.5608 1.78065 10.6342C1.70764 10.7076 1.66667 10.8069 1.66667 10.9104V17.9437C1.66667 18.047 1.70771 18.1461 1.78077 18.2192C1.85383 18.2923 1.95293 18.3333 2.05625 18.3333H9.08958C9.1931 18.3333 9.29241 18.2923 9.3658 18.2193C9.43919 18.1463 9.4807 18.0472 9.48125 17.9437V10.9104C9.4807 10.8067 9.43926 10.7074 9.36593 10.634Z" fill="#3A424A"/>
<path d="M4.34377 9.35089H3.9271V8.91469H4.34377V9.35089Z" fill="#3A424A"/>
<path d="M4.34377 8.4785H3.9271V8.2604C3.9271 8.2054 3.93254 8.15097 3.94311 8.09782L4.35177 8.17911C4.34649 8.20567 4.34377 8.23288 4.34377 8.2604V8.4785Z" fill="#3A424A"/>
<path d="M5.41473 7.84373V7.42706H5.85093V7.84373H5.41473Z" fill="#3A424A"/>
<path d="M6.28713 7.84373V7.42706H6.72333V7.84373H6.28713Z" fill="#3A424A"/>
<path d="M7.15953 7.84373V7.42706H7.59572V7.84373H7.15953Z" fill="#3A424A"/>
<path d="M8.03192 7.84373V7.42706H8.46812V7.84373H8.03192Z" fill="#3A424A"/>
<path d="M8.90432 7.84373V7.42706H9.34052V7.84373H8.90432Z" fill="#3A424A"/>
<path d="M9.77671 7.84373V7.42706H10.2129V7.84373H9.77671Z" fill="#3A424A"/>
<path d="M10.6491 7.84373V7.42706H11.0853V7.84373H10.6491Z" fill="#3A424A"/>
<path fill-rule="evenodd" clip-rule="evenodd" d="M4.76046 1.25H17.9167C18.3769 1.25 18.75 1.6231 18.75 2.08333V15.2396C18.75 15.6998 18.3769 16.0729 17.9167 16.0729H11.7424C11.7965 16.0727 11.85 16.0673 11.9022 16.0569L11.8209 15.6483C11.7943 15.6535 11.7671 15.6563 11.7396 15.6563H11.5215V16.0729H11.0853V15.6563H10.6491V16.0729H10.2129V15.6563H9.89794V10.9104C9.89794 10.696 9.81277 10.4904 9.66118 10.3388C9.50959 10.1872 9.30399 10.1021 9.0896 10.1021H4.34379V9.78711H3.92712V9.35092H4.34379V8.91472H3.92712V8.47852H4.34379V8.26042C4.34379 8.2329 4.34651 8.2057 4.35179 8.17914L3.94313 8.09785C3.93256 8.151 3.92712 8.20543 3.92712 8.26042V2.08333C3.92712 1.6231 4.30022 1.25 4.76046 1.25ZM4.97856 7.84375V7.42709H4.76046C4.70547 7.42709 4.65103 7.43252 4.59788 7.4431L4.67917 7.85176C4.70573 7.84647 4.73294 7.84375 4.76046 7.84375H4.97856ZM11.7396 7.42709C11.7946 7.42709 11.849 7.43252 11.9022 7.4431L11.8209 7.85176C11.7944 7.84647 11.7671 7.84375 11.7396 7.84375H11.5215V7.42709H11.7396ZM4.29748 7.56753L4.52896 7.91398C4.50645 7.92902 4.48529 7.94633 4.46583 7.96579C4.44637 7.98525 4.42905 8.00641 4.41401 8.02893L4.06756 7.79744C4.09767 7.75238 4.13232 7.71005 4.1712 7.67117C4.21009 7.63228 4.25242 7.59763 4.29748 7.56753ZM12.2026 15.9325L11.9711 15.586C11.9936 15.571 12.0148 15.5537 12.0343 15.5342C12.0537 15.5148 12.071 15.4936 12.0861 15.4711L12.4325 15.7026C12.4024 15.7476 12.3678 15.79 12.3289 15.8288C12.29 15.8677 12.2477 15.9024 12.2026 15.9325ZM12.1563 8.47852H12.573V8.26042C12.573 8.20543 12.5675 8.151 12.5569 8.09784L12.1483 8.17914C12.1536 8.2057 12.1563 8.2329 12.1563 8.26042V8.47852ZM12.4325 7.79744L12.0861 8.02893C12.071 8.00641 12.0537 7.98525 12.0343 7.96579C12.0148 7.94633 11.9936 7.92902 11.9711 7.91398L12.2026 7.56753C12.2477 7.59763 12.29 7.63228 12.3289 7.67117C12.3678 7.71005 12.4024 7.75238 12.4325 7.79744ZM12.1563 8.91472H12.573V9.35092H12.1563V8.91472ZM12.573 9.78711H12.1563V10.2233H12.573V9.78711ZM12.1563 10.6595H12.573V11.0957H12.1563V10.6595ZM12.573 11.5319H12.1563V11.9681H12.573V11.5319ZM12.1563 12.4043H12.573V12.8405H12.1563V12.4043ZM12.573 13.2767H12.1563V13.7129H12.573V13.2767ZM12.1563 14.1491H12.573V14.5853H12.1563V14.1491ZM12.573 15.0215H12.1563V15.2396C12.1563 15.2671 12.1536 15.2943 12.1483 15.3209L12.5569 15.4022C12.5675 15.349 12.573 15.2946 12.573 15.2396V15.0215ZM5.41475 7.42709V7.84375H5.85095V7.42709H5.41475ZM6.28715 7.84375V7.42709H6.72335V7.84375H6.28715ZM7.15955 7.42709V7.84375H7.59574V7.42709H7.15955ZM8.03194 7.84375V7.42709H8.46814V7.84375H8.03194ZM8.90434 7.42709V7.84375H9.34054V7.42709H8.90434ZM9.77673 7.84375V7.42709H10.2129V7.84375H9.77673ZM10.6491 7.42709V7.84375H11.0853V7.42709H10.6491Z" fill="#0067D1"/>
<path d="M9.48127 16.0729V10.9104C9.48072 10.8067 9.43928 10.7074 9.36595 10.6341C9.29262 10.5607 9.19331 10.5193 9.0896 10.5187H3.92712V10.6595H4.34379V11.0957H3.92712V11.5319H4.34379V11.9681H3.92712V12.4043H4.34379V12.8405H3.92712V13.2767H4.34379V13.7129H3.92712V14.1491H4.34379V14.5853H3.92712V15.0215H4.34379V15.2396C4.34379 15.2671 4.34651 15.2943 4.35179 15.3209L3.94313 15.4022C3.93256 15.349 3.92712 15.2946 3.92712 15.2396C3.92712 15.4509 4.0058 15.6439 4.13546 15.7908C4.11077 15.7628 4.08811 15.7333 4.06756 15.7026L4.41401 15.4711C4.42905 15.4936 4.44637 15.5148 4.46583 15.5342C4.48529 15.5537 4.50645 15.571 4.52896 15.586L4.29748 15.9325C4.26886 15.9134 4.24134 15.8924 4.2151 15.8697C4.35633 15.992 4.53909 16.0677 4.73941 16.0727C4.69158 16.0715 4.64424 16.0661 4.59788 16.0569L4.67917 15.6483C4.70573 15.6535 4.73294 15.6563 4.76046 15.6563H4.97856V16.0729H5.41475V15.6563H5.85095V16.0729H6.28715V15.6563H6.72335V16.0729H7.15955V15.6563H7.59574V16.0729H8.03194V15.6563H8.46814V16.0729H8.90434V15.6563H9.34054V16.0729L9.48127 16.0729Z" fill="#0067D1"/>
</svg>
