<svg width="20" height="20" viewBox="0 0 20 20" fill="none" xmlns="http://www.w3.org/2000/svg">
<path fill-rule="evenodd" clip-rule="evenodd" d="M18.75 10C18.75 14.8325 14.8325 18.75 10 18.75C5.16751 18.75 1.25 14.8325 1.25 10C1.25 5.16751 5.16751 1.25 10 1.25C14.8325 1.25 18.75 5.16751 18.75 10Z" fill="#0067D1"/>
<path d="M10.0563 11.5646C9.72668 11.5646 9.40445 11.4668 9.13037 11.2837C8.85628 11.1006 8.64266 10.8403 8.51652 10.5357C8.39037 10.2312 8.35737 9.89608 8.42167 9.57278C8.48598 9.24948 8.64472 8.95251 8.8778 8.71942C9.11089 8.48633 9.40786 8.3276 9.73117 8.26329C10.0545 8.19898 10.3896 8.23198 10.6941 8.35813C10.9987 8.48428 11.259 8.6979 11.4421 8.97198C11.6252 9.24606 11.723 9.56829 11.723 9.89793C11.7226 10.3398 11.5469 10.7635 11.2344 11.076C10.9219 11.3885 10.4982 11.5642 10.0563 11.5646Z" fill="white"/>
<path d="M8.35212 4.75002L8.65629 5.03335L9.84797 3.75301V8.24434C9.98673 8.22686 10.1267 8.22697 10.2646 8.24435V3.75337L11.4542 5.03335L11.7605 4.75002L10.0563 2.91669L8.35212 4.75002Z" fill="#3A424A"/>
<path d="M11.3706 8.87302C11.3955 8.90505 11.4194 8.93806 11.4421 8.97199C11.4972 9.05455 11.5447 9.14148 11.584 9.23167L15.5104 7.18879L14.923 8.83752L15.3167 8.9771L16.1563 6.61877L13.7438 5.9521L13.6313 6.35419L15.3162 6.82015L11.3706 8.87302Z" fill="#3A424A"/>
<path d="M11.6496 10.3858C11.6087 10.5192 11.5511 10.6471 11.4782 10.7663L15.3162 12.7632L13.6313 13.2292L13.7438 13.6313L16.1563 12.9646L15.3167 10.6084L14.923 10.7479L15.5102 12.3945L11.6496 10.3858Z" fill="#3A424A"/>
<path d="M10.2646 11.5514C10.1959 11.5601 10.1263 11.5645 10.0563 11.5646C9.98639 11.5646 9.91682 11.5602 9.84797 11.5515V15.8304L8.65629 14.55L8.35212 14.8334L10.0563 16.6667L11.7605 14.8334L11.4542 14.55L10.2646 15.83V11.5514Z" fill="#3A424A"/>
<path d="M8.63389 10.7666C8.58902 10.6931 8.54972 10.616 8.5165 10.5357C8.49612 10.4866 8.47818 10.4366 8.46268 10.386L4.60311 12.3941L5.18962 10.7479L4.79587 10.6084L3.95837 12.9646L6.36879 13.6313L6.48129 13.2292L4.79414 12.7644L8.63389 10.7666Z" fill="#3A424A"/>
<path d="M8.5286 9.23166C8.58435 9.10383 8.65602 8.9833 8.74202 8.87302L4.79418 6.81898L6.48129 6.35419L6.36879 5.9521L3.95837 6.61877L4.79587 8.97502L5.18962 8.83544L4.60309 7.18925L8.5286 9.23166Z" fill="#3A424A"/>
</svg>
