<svg width="20" height="20" viewBox="0 0 20 20" fill="none" xmlns="http://www.w3.org/2000/svg">
<path d="M13.9583 1.66665C13.9712 1.66664 13.9836 1.67162 13.9929 1.68056C14.0023 1.68949 14.0078 1.70167 14.0083 1.71457V4.12707H11.55V1.71457C11.55 1.70186 11.555 1.68968 11.564 1.68069C11.573 1.6717 11.5852 1.66665 11.5979 1.66665H13.9583Z" fill="white"/>
<path d="M14.0104 5.94999V8.4104H11.55V5.94999H14.0104Z" fill="white"/>
<path d="M13.9937 10.2875C13.9843 10.2782 13.9716 10.2729 13.9583 10.2729H11.5979C11.5914 10.2729 11.585 10.2742 11.5791 10.2767C11.5731 10.2793 11.5677 10.283 11.5632 10.2877C11.5588 10.2923 11.5553 10.2979 11.553 10.3039C11.5507 10.31 11.5497 10.3164 11.55 10.3229V12.6854C11.55 12.6981 11.555 12.7103 11.564 12.7193C11.573 12.7283 11.5852 12.7333 11.5979 12.7333H14.0083V10.3229C14.0083 10.3096 14.003 10.2969 13.9937 10.2875Z" fill="white"/>
<path d="M18.3194 10.2883C18.3105 10.2789 18.2983 10.2734 18.2854 10.2729H15.9208C15.9143 10.2729 15.9079 10.2742 15.902 10.2767C15.896 10.2793 15.8906 10.283 15.8862 10.2877C15.8817 10.2923 15.8782 10.2979 15.8759 10.3039C15.8736 10.31 15.8726 10.3164 15.8729 10.3229V12.7333H18.3333V10.3229C18.3333 10.31 18.3283 10.2976 18.3194 10.2883Z" fill="white"/>
<path d="M18.3333 8.4104V5.94999H15.8729V8.4104H18.3333Z" fill="white"/>
<path d="M9.68539 8.4104V5.94999H7.22497V8.4104H9.68539Z" fill="white"/>
<path d="M9.63747 1.66665C9.65018 1.66665 9.66237 1.6717 9.67135 1.68069C9.68034 1.68968 9.68539 1.70186 9.68539 1.71457V4.12707H7.22497V1.71457C7.22551 1.70167 7.23101 1.68949 7.24033 1.68056C7.24965 1.67162 7.26206 1.66664 7.27497 1.66665H9.63747Z" fill="white"/>
<path d="M18.3187 1.68126C18.3098 1.67238 18.2979 1.66717 18.2854 1.66665H15.9208C15.9081 1.66665 15.8959 1.6717 15.8869 1.68069C15.8779 1.68968 15.8729 1.70186 15.8729 1.71457V4.12707H18.3333V1.71457C18.3328 1.70203 18.3276 1.69013 18.3187 1.68126Z" fill="white"/>
<path d="M13.9583 10.273C13.9716 10.273 13.9843 10.2782 13.9937 10.2876C14.003 10.297 14.0083 10.3097 14.0083 10.323V12.7334H11.5979C11.5852 12.7334 11.573 12.7283 11.564 12.7193C11.555 12.7104 11.55 12.6982 11.55 12.6855V10.323C11.5497 10.3165 11.5507 10.31 11.553 10.304C11.5553 10.2979 11.5588 10.2924 11.5632 10.2877C11.5677 10.2831 11.5731 10.2793 11.5791 10.2768C11.585 10.2743 11.5914 10.273 11.5979 10.273H13.9583ZM13.9583 9.8563H11.5979C11.5367 9.85629 11.4761 9.86838 11.4196 9.89186C11.3631 9.91534 11.3118 9.94974 11.2686 9.9931C11.2255 10.0365 11.1913 10.0879 11.1681 10.1445C11.1449 10.2011 11.133 10.2618 11.1333 10.323V12.6855C11.1333 12.8087 11.1823 12.9268 11.2694 13.014C11.3565 13.1011 11.4747 13.15 11.5979 13.15H14.1291C14.1682 13.1503 14.2069 13.1429 14.243 13.1281C14.2791 13.1134 14.312 13.0916 14.3397 13.0641C14.3674 13.0366 14.3893 13.0039 14.4043 12.9679C14.4193 12.9319 14.4271 12.8932 14.4271 12.8542V10.323C14.4271 10.2615 14.4149 10.2006 14.3913 10.1439C14.3678 10.0871 14.3332 10.0356 14.2896 9.99224C14.2461 9.94888 14.1944 9.91455 14.1375 9.89122C14.0807 9.86789 14.0198 9.85602 13.9583 9.8563Z" fill="#3A424A"/>
<path d="M18.2854 10.273C18.2983 10.2735 18.3105 10.279 18.3194 10.2883C18.3283 10.2976 18.3333 10.3101 18.3333 10.323V12.7334H15.8729V10.323C15.8726 10.3165 15.8736 10.31 15.8759 10.304C15.8782 10.2979 15.8817 10.2924 15.8862 10.2877C15.8906 10.2831 15.896 10.2793 15.902 10.2768C15.9079 10.2743 15.9143 10.273 15.9208 10.273H18.2854ZM18.2854 9.8563H15.9208C15.8596 9.8563 15.799 9.86838 15.7425 9.89186C15.686 9.91534 15.6347 9.94974 15.5916 9.9931C15.5484 10.0365 15.5142 10.0879 15.491 10.1445C15.4678 10.2011 15.456 10.2618 15.4562 10.323V12.8542C15.4562 12.9327 15.4874 13.0079 15.5429 13.0634C15.5984 13.1189 15.6736 13.15 15.7521 13.15H18.4604C18.5378 13.1484 18.6114 13.1165 18.6656 13.0612C18.7197 13.0059 18.75 12.9316 18.75 12.8542V10.323C18.7503 10.2618 18.7384 10.2011 18.7152 10.1445C18.692 10.0879 18.6578 10.0365 18.6146 9.9931C18.5715 9.94974 18.5202 9.91534 18.4637 9.89186C18.4072 9.86838 18.3466 9.8563 18.2854 9.8563Z" fill="#3A424A"/>
<path d="M14.0104 5.95005V8.41047H11.55V5.95005H14.0104ZM14.1291 5.53338H11.4208C11.3431 5.53556 11.2693 5.56826 11.2155 5.62441C11.1617 5.68055 11.1322 5.75562 11.1333 5.83338V8.54171C11.1333 8.62017 11.1645 8.69542 11.22 8.7509C11.2754 8.80638 11.3507 8.83755 11.4291 8.83755H14.1375C14.2147 8.83539 14.288 8.80333 14.342 8.74814C14.3961 8.69295 14.4265 8.61894 14.4271 8.54171V5.83338C14.4265 5.75473 14.3949 5.67949 14.3391 5.62407C14.2833 5.56865 14.2078 5.53754 14.1291 5.53755V5.53338Z" fill="#3A424A"/>
<path d="M18.3333 5.95005V8.41047H15.8729V5.95005H18.3333ZM18.4541 5.53338H15.7458C15.6679 5.53556 15.5939 5.56819 15.5398 5.62428C15.4857 5.68036 15.4557 5.75543 15.4562 5.83338V8.54171C15.4568 8.62 15.4881 8.69493 15.5435 8.7503C15.5988 8.80566 15.6738 8.837 15.7521 8.83755H18.4604C18.5376 8.83539 18.6109 8.80333 18.665 8.74814C18.719 8.69295 18.7495 8.61894 18.75 8.54171V5.83338C18.7494 5.75509 18.7181 5.68016 18.6627 5.6248C18.6074 5.56943 18.5324 5.53809 18.4541 5.53755V5.53338Z" fill="#3A424A"/>
<path d="M13.9583 1.66672C13.9712 1.6667 13.9836 1.67169 13.9929 1.68062C14.0023 1.68955 14.0078 1.70174 14.0083 1.71463V4.12713H11.55V1.71463C11.55 1.70192 11.555 1.68974 11.564 1.68075C11.573 1.67176 11.5852 1.66672 11.5979 1.66672H13.9583ZM13.9583 1.25005H11.5979C11.4747 1.25005 11.3565 1.29899 11.2694 1.38612C11.1823 1.47325 11.1333 1.59141 11.1333 1.71463V4.24796C11.1333 4.28681 11.141 4.32528 11.1558 4.36117C11.1707 4.39707 11.1925 4.42968 11.22 4.45715C11.2474 4.48462 11.28 4.50641 11.3159 4.52128C11.3518 4.53614 11.3903 4.5438 11.4291 4.5438H14.1375C14.2161 4.5438 14.2916 4.5127 14.3474 4.45728C14.4032 4.40186 14.4348 4.32661 14.4354 4.24796V1.71463C14.4354 1.65255 14.423 1.5911 14.3989 1.53391C14.3747 1.47671 14.3394 1.42493 14.2949 1.38162C14.2505 1.33831 14.1978 1.30436 14.1399 1.28176C14.0821 1.25916 14.0204 1.24838 13.9583 1.25005Z" fill="#3A424A"/>
<path d="M9.68539 5.95005V8.41047H7.22497V5.95005H9.68539ZM9.80623 5.53338H7.09789C7.01997 5.53556 6.94601 5.56819 6.89187 5.62428C6.83773 5.68036 6.80773 5.75543 6.80831 5.83338V8.54171C6.80886 8.62036 6.84049 8.69561 6.8963 8.75103C6.95211 8.80645 7.02757 8.83755 7.10623 8.83755H9.81456C9.89157 8.83538 9.96469 8.80325 10.0184 8.74801C10.0721 8.69276 10.1021 8.61875 10.1021 8.54171V5.83338C10.1021 5.75492 10.0709 5.67967 10.0154 5.62419C9.95993 5.56871 9.88469 5.53755 9.80623 5.53755V5.53338Z" fill="#3A424A"/>
<path d="M9.63747 1.66672C9.65018 1.66672 9.66237 1.67176 9.67135 1.68075C9.68034 1.68974 9.68539 1.70192 9.68539 1.71463V4.12713H7.22497V1.71463C7.22551 1.70174 7.23101 1.68955 7.24033 1.68062C7.24965 1.67169 7.26206 1.6667 7.27497 1.66672H9.63747ZM9.63748 1.25005H7.27498C7.21379 1.24977 7.15316 1.26159 7.09655 1.28481C7.03994 1.30804 6.98848 1.34221 6.94512 1.38538C6.90176 1.42855 6.86735 1.47986 6.84387 1.53636C6.82039 1.59286 6.80831 1.65344 6.80831 1.71463V4.24796C6.80886 4.32661 6.84049 4.40186 6.8963 4.45728C6.95211 4.5127 7.02757 4.5438 7.10623 4.5438H9.81456C9.85341 4.5438 9.89188 4.53614 9.92777 4.52128C9.96366 4.50641 9.99627 4.48462 10.0237 4.45715C10.0512 4.42968 10.073 4.39707 10.0879 4.36117C10.1027 4.32528 10.1104 4.28681 10.1104 4.24796V1.71463C10.1104 1.65291 10.0981 1.59181 10.0742 1.5349C10.0504 1.47798 10.0154 1.42639 9.97139 1.38314C9.92736 1.33989 9.87516 1.30584 9.81782 1.28299C9.76049 1.26014 9.69918 1.24894 9.63748 1.25005Z" fill="#3A424A"/>
<path d="M18.2854 1.66672C18.2979 1.66723 18.3098 1.67244 18.3187 1.68132C18.3276 1.6902 18.3328 1.70209 18.3333 1.71463V4.12713H15.8729V1.71463C15.8729 1.70192 15.8779 1.68974 15.8869 1.68075C15.8959 1.67176 15.9081 1.66672 15.9208 1.66672H18.2854ZM18.2854 1.25005H15.9208C15.7976 1.25005 15.6794 1.29899 15.5923 1.38612C15.5052 1.47325 15.4562 1.59141 15.4562 1.71463V4.24796C15.4568 4.32625 15.4881 4.40118 15.5435 4.45655C15.5988 4.51191 15.6738 4.54325 15.7521 4.5438H18.4604C18.5376 4.54164 18.6109 4.50958 18.665 4.45439C18.719 4.3992 18.7495 4.32519 18.75 4.24796V1.71463C18.75 1.65362 18.738 1.59321 18.7146 1.53684C18.6913 1.48048 18.657 1.42926 18.6139 1.38612C18.5708 1.34298 18.5195 1.30876 18.4632 1.28541C18.4068 1.26206 18.3464 1.25005 18.2854 1.25005Z" fill="#3A424A"/>
<path fill-rule="evenodd" clip-rule="evenodd" d="M7.54148 13.1107L5.23042 16.1839L3.62537 14.5742L3.92042 14.28L5.1862 15.5495L7.20847 12.8603L7.54148 13.1107Z" fill="#3A424A"/>
<path fill-rule="evenodd" clip-rule="evenodd" d="M1.73125 10.1021H9.41667C9.68245 10.1021 9.89792 10.3175 9.89792 10.5833V18.2687C9.89792 18.5345 9.68245 18.75 9.41667 18.75H1.73125C1.46546 18.75 1.25 18.5345 1.25 18.2687V10.5833C1.25 10.3175 1.46546 10.1021 1.73125 10.1021ZM5.23044 16.1839L7.54151 13.1106L7.20849 12.8602L5.18622 15.5494L3.92044 14.28L3.62539 14.5742L5.23044 16.1839Z" fill="#0067D1"/>
</svg>
