<svg width="20" height="20" viewBox="0 0 20 20" fill="none" xmlns="http://www.w3.org/2000/svg">
<path d="M4.16667 2.91669C3.72658 2.91669 3.49139 3.28978 3.49139 3.75002L3.48804 8.41383L9.80487 10.5358C9.89689 10.5667 9.99671 10.5669 10.0888 10.5363L16.5104 8.40633V3.75002C16.5104 3.33335 16.2936 2.91669 15.8333 2.91669H4.16667Z" fill="#0067D1"/>
<path d="M16.6666 2.49992C16.6666 2.03973 16.2935 1.66669 15.8333 1.66669H4.16663C3.70642 1.66669 3.33335 2.03973 3.33329 2.49992C3.52334 2.24697 3.82588 2.08335 4.16663 2.08335H15.8333C16.174 2.08335 16.4766 2.24697 16.6666 2.49992Z" fill="white"/>
<path d="M3.67913 2.65627C3.74996 2.32294 4.06246 2.29169 4.16663 2.29169H15.8333C16.2935 2.29169 16.3229 2.54737 16.3229 2.65627C16.3132 2.65627 16.1281 2.5521 15.8333 2.5521H4.16663C3.87744 2.5521 3.68921 2.65627 3.67913 2.65627Z" fill="white"/>
<path d="M16.875 8.28091L17.8563 7.95504L16.875 7.6343V8.28091Z" fill="white"/>
<path d="M2.13852 7.95835L3.12496 7.63725V8.28986L2.13852 7.95835Z" fill="white"/>
<path d="M18.3333 8.25717L10.2296 10.9481C10.0447 11.0095 9.84448 11.0092 9.65985 10.9471L1.66663 8.26086L1.66663 13.8604L2.13852 14.0675L9.80305 16.6433C9.89537 16.6743 9.9955 16.6745 10.0879 16.6438L12.9182 15.704C12.9297 15.3598 13.0028 15.0186 13.1359 14.6971C13.3541 14.1701 13.7236 13.7197 14.1979 13.4028C14.6721 13.0858 15.2296 12.9167 15.8 12.9167C16.1785 12.9164 16.5534 12.9907 16.9032 13.1354C17.253 13.2801 17.5709 13.4923 17.8387 13.7598C17.9161 13.8372 17.9889 13.9188 18.0568 14.0042L18.3333 13.9215V8.25717Z" fill="white"/>
<path fill-rule="evenodd" clip-rule="evenodd" d="M17.1712 13.7482C16.7652 13.4773 16.288 13.3329 15.8 13.3334C15.1467 13.3345 14.5204 13.5945 14.0585 14.0564C13.5965 14.5184 13.3365 15.1446 13.3354 15.7979C13.335 16.286 13.4793 16.7632 13.7502 17.1691C14.0211 17.5751 14.4063 17.8916 14.8571 18.0785C15.3079 18.2655 15.8041 18.3145 16.2828 18.2194C16.7614 18.1243 17.2011 17.8893 17.5462 17.5442C17.8913 17.1991 18.1263 16.7594 18.2214 16.2807C18.3165 15.8021 18.2675 15.3059 18.0805 14.8551C17.8936 14.4043 17.5771 14.0191 17.1712 13.7482Z" fill="white"/>
<path fill-rule="evenodd" clip-rule="evenodd" d="M8.71321 4.93756C8.78841 5.01193 8.78841 5.13251 8.71321 5.20688L7.13159 6.77098L8.71321 8.33507C8.78841 8.40944 8.78841 8.53003 8.71321 8.6044C8.638 8.67877 8.51607 8.67877 8.44086 8.6044L6.72307 6.90564C6.68696 6.86993 6.66667 6.82149 6.66667 6.77098C6.66667 6.72047 6.68696 6.67203 6.72307 6.63631L8.44086 4.93756C8.51607 4.86318 8.638 4.86318 8.71321 4.93756Z" fill="#3A424A"/>
<path fill-rule="evenodd" clip-rule="evenodd" d="M11.4951 4.93756C11.5703 4.86318 11.6923 4.86318 11.7675 4.93756L13.4853 6.63631C13.5214 6.67203 13.5417 6.72047 13.5417 6.77098C13.5417 6.82149 13.5214 6.86993 13.4853 6.90564L11.7675 8.6044C11.6923 8.67877 11.5703 8.67877 11.4951 8.6044C11.4199 8.53003 11.4199 8.40944 11.4951 8.33507L13.0767 6.77098L11.4951 5.20688C11.4199 5.13251 11.4199 5.01193 11.4951 4.93756Z" fill="#3A424A"/>
<path fill-rule="evenodd" clip-rule="evenodd" d="M11.0405 4.38796C11.1397 4.42606 11.1888 4.53642 11.1503 4.63446L9.41708 9.04513C9.37855 9.14317 9.26696 9.19176 9.16782 9.15366C9.06869 9.11557 9.01955 9.00521 9.05808 8.90717L10.7913 4.49649C10.8298 4.39846 10.9414 4.34987 11.0405 4.38796Z" fill="#3A424A"/>
<path d="M15.8 13.3333C16.288 13.3329 16.7652 13.4773 17.1712 13.7482C17.5772 14.019 17.8936 14.4043 18.0806 14.8551C18.2675 15.3059 18.3166 15.802 18.2215 16.2807C18.1263 16.7594 17.8914 17.1991 17.5463 17.5442C17.2012 17.8893 16.7615 18.1242 16.2828 18.2194C15.8041 18.3145 15.308 18.2654 14.8572 18.0785C14.4064 17.8915 14.0211 17.575 13.7503 17.1691C13.4794 16.7631 13.335 16.2859 13.3354 15.7979C13.3365 15.1446 13.5965 14.5184 14.0585 14.0564C14.5205 13.5944 15.1467 13.3344 15.8 13.3333ZM15.8 12.9166C15.2296 12.9166 14.6721 13.0858 14.1979 13.4027C13.7237 13.7196 13.3541 14.1701 13.1359 14.6971C12.9178 15.224 12.8608 15.8039 12.9722 16.3633C13.0836 16.9226 13.3585 17.4364 13.7619 17.8395C14.1654 18.2427 14.6793 18.5171 15.2388 18.6282C15.7982 18.7392 16.378 18.6818 16.9048 18.4632C17.4317 18.2447 17.8818 17.8748 18.1984 17.4004C18.515 16.9259 18.6837 16.3683 18.6833 15.7979C18.6833 15.4194 18.6087 15.0445 18.4638 14.6948C18.3189 14.3451 18.1065 14.0274 17.8387 13.7598C17.5709 13.4922 17.2531 13.28 16.9032 13.1354C16.5534 12.9907 16.1785 12.9164 15.8 12.9166Z" fill="#3A424A"/>
<path fill-rule="evenodd" clip-rule="evenodd" d="M3.125 7.19762V2.49998C3.125 1.92468 3.59137 1.45831 4.16667 1.45831H15.8333C16.4086 1.45831 16.875 1.92468 16.875 2.49998V7.19377L18.5984 7.75699C18.6886 7.78645 18.7385 7.85889 18.7481 7.93588H18.75V14.0252H18.7481C18.7599 14.1201 18.7104 14.2219 18.5995 14.2587L17.894 14.493C17.8124 14.3623 17.7188 14.2397 17.6145 14.1268L17.8327 14.0543L18.3081 13.9121V8.26618L10.2301 10.9484C10.0458 11.0096 9.84616 11.0092 9.66211 10.9474L1.69417 8.26985L1.69416 13.8512L2.16456 14.0576L9.80486 16.625C9.89689 16.656 9.99671 16.6561 10.0888 16.6256L13.349 15.543C13.3401 15.6273 13.3356 15.7124 13.3354 15.7979C13.3354 15.8668 13.3382 15.9355 13.3439 16.0038L10.2301 17.0377C10.0458 17.0989 9.84616 17.0985 9.66211 17.0367L1.39955 14.2601C1.28736 14.2224 1.2384 14.1183 1.25231 14.0224V7.99709C1.23829 7.90046 1.28817 7.79547 1.40157 7.75856L3.125 7.19762ZM3.48958 8.41358L9.80486 10.5358C9.81637 10.5396 9.82799 10.543 9.83971 10.5459C9.92172 10.5662 10.0082 10.563 10.0888 10.5363L16.5104 8.40406V3.74998C16.5104 3.37604 16.3214 2.91665 15.8333 2.91665H4.16667C3.67857 2.91665 3.48958 3.37604 3.48958 3.74998V8.41358ZM16.875 7.65206V8.28301L17.8327 7.96503L16.875 7.65206ZM3.125 8.29107V7.65572L2.16456 7.96833L3.125 8.29107ZM16.3214 2.65572C16.3214 2.49998 16.25 2.29165 15.8333 2.29165H4.16667C3.85417 2.29165 3.71717 2.49998 3.67857 2.65572C3.82763 2.58913 3.99283 2.55206 4.16667 2.55206H15.8333C16.0072 2.55206 16.1724 2.58913 16.3214 2.65572ZM16.3214 2.03072C16.3214 1.87498 16.1458 1.77081 15.8333 1.77081H4.16667C3.95833 1.77081 3.75 1.87498 3.67857 2.03072C3.82763 1.96413 3.99283 1.92706 4.16667 1.92706H15.8333C16.0072 1.92706 16.1724 1.96413 16.3214 2.03072Z" fill="#3A424A"/>
<path fill-rule="evenodd" clip-rule="evenodd" d="M14.9884 14.2194C15.1982 14.2168 15.4103 14.2966 15.5721 14.4584C15.7826 14.6689 15.8544 14.9647 15.7863 15.2295L17.2993 16.7424C17.3442 16.7873 17.3449 16.8593 17.301 16.9032L16.9032 17.301C16.8593 17.3449 16.7873 17.3441 16.7424 17.2993L15.2295 15.7863C14.9647 15.8544 14.6689 15.7826 14.4584 15.5721C14.2966 15.4103 14.2168 15.1981 14.2194 14.9884C14.2202 14.9253 14.2285 14.8623 14.2443 14.8011L14.884 15.4409L15.4409 14.884L14.8011 14.2442C14.8624 14.2285 14.9253 14.2202 14.9884 14.2194ZM15.225 14.8803L14.695 14.3503C14.6559 14.3112 14.6399 14.2549 14.6529 14.2026C14.666 14.1502 14.7061 14.1098 14.7584 14.0963C15.0729 14.0154 15.4262 14.1004 15.6782 14.3524C15.9067 14.5809 15.9979 14.8928 15.9525 15.1835L17.4054 16.6364C17.5122 16.7432 17.5119 16.9118 17.4107 17.013L17.013 17.4107C16.9118 17.5119 16.7432 17.5122 16.6364 17.4053L15.1835 15.9525C14.8928 15.9979 14.5809 15.9067 14.3524 15.6782C14.1004 15.4262 14.0154 15.0729 14.0963 14.7583C14.1098 14.7061 14.1503 14.6659 14.2026 14.6529C14.2549 14.6399 14.3112 14.6559 14.3503 14.695L14.8803 15.225L15.225 14.8803Z" fill="#3A424A"/>
</svg>
