<svg width="20" height="20" viewBox="0 0 20 20" fill="none" xmlns="http://www.w3.org/2000/svg">
<path fill-rule="evenodd" clip-rule="evenodd" d="M16.325 7.08331H1.73125C1.46546 7.08331 1.25 7.29878 1.25 7.56456V18.2687C1.25 18.5345 1.46546 18.75 1.73125 18.75H16.325C16.5908 18.75 16.8062 18.5345 16.8062 18.2687V16.1239C16.3244 16.29 15.8061 16.3257 15.3042 16.2259C14.7449 16.1146 14.2311 15.84 13.8279 15.4368C13.4246 15.0335 13.15 14.5198 13.0388 13.9605C12.9275 13.4011 12.9846 12.8214 13.2028 12.2945C13.4211 11.7677 13.7906 11.3174 14.2648 11.0005C14.739 10.6837 15.2964 10.5146 15.8667 10.5146C16.1868 10.5144 16.5043 10.5675 16.8062 10.6714V7.56456C16.8062 7.29878 16.5908 7.08331 16.325 7.08331ZM10.625 12.9166C10.625 13.7605 9.99783 14.4579 9.18417 14.5681L9.68907 15.4657C9.77573 15.6198 9.6644 15.8102 9.48763 15.8102H8.42903C8.25227 15.8102 8.14093 15.6198 8.2276 15.4657L8.73249 14.5681C7.91884 14.4579 7.29167 13.7605 7.29167 12.9166C7.29167 11.9962 8.03786 11.25 8.95833 11.25C9.87881 11.25 10.625 11.9962 10.625 12.9166Z" fill="#0067D1"/>
<path d="M9.18417 14.5682C9.99783 14.4579 10.625 13.7605 10.625 12.9167C10.625 11.9962 9.87881 11.25 8.95833 11.25C8.03786 11.25 7.29167 11.9962 7.29167 12.9167C7.29167 13.7605 7.91884 14.4579 8.73249 14.5682L8.2276 15.4658C8.14093 15.6198 8.25227 15.8102 8.42903 15.8102H9.48763C9.6644 15.8102 9.77573 15.6198 9.68907 15.4658L9.18417 14.5682Z" fill="white"/>
<path fill-rule="evenodd" clip-rule="evenodd" d="M15.8667 10.9312C16.3546 10.9308 16.8317 11.0752 17.2376 11.3459C17.6436 11.6167 17.96 12.0018 18.1471 12.4525C18.3341 12.9032 18.3832 13.3992 18.2883 13.8779C18.1933 14.3565 17.9586 14.7962 17.6137 15.1414C17.2688 15.4866 16.8293 15.7217 16.3507 15.817C15.8722 15.9124 15.3761 15.8637 14.9253 15.677C14.4744 15.4904 14.0891 15.1742 13.8179 14.7685C13.5468 14.3629 13.4021 13.8859 13.4021 13.3979C13.4026 12.7442 13.6624 12.1175 14.1244 11.6551C14.5864 11.1927 15.213 10.9324 15.8667 10.9312ZM15.6077 14.8458L17.4581 12.39L17.1253 12.1392L15.5631 14.2126L14.5993 13.2505L14.3049 13.5454L15.6077 14.8458Z" fill="white"/>
<path d="M11.7768 2.80651C11.0475 2.07719 10.0585 1.66722 9.02707 1.66667C7.99602 1.66777 7.00754 2.07799 6.27867 2.80724C5.5498 3.5365 5.14012 4.5252 5.13957 5.55625V7.08333H4.7229V5.55625C4.72263 4.99084 4.83376 4.43092 5.04994 3.90848C5.26612 3.38603 5.58312 2.9113 5.98283 2.5114C6.38253 2.1115 6.85711 1.79427 7.37945 1.57783C7.90179 1.3614 8.46166 1.25 9.02707 1.25C9.59265 1.24973 10.1527 1.36092 10.6753 1.57724C11.1979 1.79355 11.6727 2.11073 12.0727 2.51066C12.4726 2.91059 12.7898 3.38541 13.0061 3.908C13.2224 4.43058 13.3336 4.99067 13.3333 5.55625V7.08333H12.9167V5.55625C12.9161 4.52484 12.5061 3.53583 11.7768 2.80651Z" fill="#3A424A"/>
<path fill-rule="evenodd" clip-rule="evenodd" d="M17.4581 12.39L15.6077 14.8458L14.3049 13.5454L14.5993 13.2505L15.5631 14.2126L17.1253 12.1392L17.4581 12.39Z" fill="#3A424A"/>
<path d="M15.8667 10.9312C16.3546 10.9308 16.8317 11.0752 17.2376 11.3459C17.6436 11.6167 17.96 12.0018 18.1471 12.4525C18.3341 12.9032 18.3832 13.3992 18.2883 13.8779C18.1933 14.3565 17.9586 14.7962 17.6137 15.1414C17.2688 15.4866 16.8293 15.7217 16.3507 15.817C15.8722 15.9124 15.3761 15.8637 14.9253 15.677C14.4744 15.4904 14.0891 15.1742 13.8179 14.7685C13.5468 14.3629 13.4021 13.8859 13.4021 13.3979C13.4026 12.7442 13.6624 12.1175 14.1244 11.6551C14.5864 11.1927 15.213 10.9324 15.8667 10.9312ZM15.8667 10.5146C15.2964 10.5146 14.7389 10.6837 14.2648 11.0005C13.7906 11.3173 13.421 11.7677 13.2028 12.2945C12.9846 12.8214 12.9275 13.4011 13.0387 13.9604C13.15 14.5197 13.4246 15.0335 13.8278 15.4367C14.2311 15.84 14.7448 16.1146 15.3042 16.2258C15.8635 16.3371 16.4432 16.28 16.9701 16.0618C17.4969 15.8435 17.9472 15.474 18.2641 14.9998C18.5809 14.5256 18.75 13.9682 18.75 13.3979C18.7503 13.0192 18.6759 12.6441 18.5311 12.2942C18.3863 11.9442 18.1739 11.6263 17.9061 11.3585C17.6383 11.0907 17.3203 10.8783 16.9704 10.7335C16.6204 10.5887 16.2454 10.5143 15.8667 10.5146Z" fill="#3A424A"/>
</svg>
