<svg width="20" height="20" viewBox="0 0 20 20" fill="none" xmlns="http://www.w3.org/2000/svg">
<path d="M7.256 1.97228C6.76539 1.76917 6.23939 1.6653 5.7084 1.66668C4.90891 1.6665 4.12732 1.90344 3.46251 2.34754C2.7977 2.79163 2.27953 3.42292 1.97355 4.16154C1.66758 4.90017 1.58754 5.71295 1.74356 6.49708C1.89958 7.2812 2.28466 8.00144 2.85007 8.56668L11.4334 17.15C12.1915 17.9081 13.2197 18.334 14.2917 18.334C15.3638 18.334 16.392 17.9081 17.1501 17.15C17.9081 16.3919 18.334 15.3638 18.334 14.2917C18.334 13.2196 17.9081 12.1914 17.1501 11.4333L8.56674 2.85001C8.1921 2.47371 7.74661 2.17539 7.256 1.97228Z" fill="white"/>
<path d="M5.7084 1.66668C6.23939 1.6653 6.76539 1.76917 7.256 1.97228C7.74661 2.17539 8.1921 2.47371 8.56674 2.85001L17.1501 11.4333C17.9081 12.1914 18.334 13.2196 18.334 14.2917C18.334 15.3638 17.9081 16.3919 17.1501 17.15C16.392 17.9081 15.3638 18.334 14.2917 18.334C13.2197 18.334 12.1915 17.9081 11.4334 17.15L2.85007 8.56668C2.28466 8.00144 1.89958 7.2812 1.74356 6.49708C1.58754 5.71295 1.66758 4.90017 1.97355 4.16154C2.27953 3.42292 2.7977 2.79163 3.46251 2.34754C4.12732 1.90344 4.90891 1.6665 5.7084 1.66668ZM5.70838 1.25C5.12282 1.24921 4.54287 1.36421 4.00191 1.58839C3.46095 1.81256 2.96966 2.14149 2.5563 2.55625C2.14212 2.97027 1.81357 3.46183 1.58941 4.00285C1.36525 4.54387 1.24988 5.12376 1.24988 5.70938C1.24988 6.295 1.36525 6.87488 1.58941 7.41591C1.81357 7.95693 2.14212 8.44849 2.5563 8.8625L11.1376 17.4438C11.5516 17.8579 12.0431 18.1865 12.5842 18.4106C13.1252 18.6348 13.7051 18.7502 14.2907 18.7502C14.8763 18.7502 15.4562 18.6348 15.9972 18.4106C16.5382 18.1865 17.0298 17.8579 17.4438 17.4438C17.858 17.0297 18.1865 16.5382 18.4107 15.9972C18.6348 15.4561 18.7502 14.8763 18.7502 14.2906C18.7502 13.705 18.6348 13.1251 18.4107 12.5841C18.1865 12.0431 17.858 11.5515 17.4438 11.1375L8.86255 2.55625C8.44881 2.14143 7.95715 1.81248 7.41585 1.5883C6.87454 1.36413 6.29427 1.24916 5.70838 1.25Z" fill="#3A424A"/>
<path d="M10.0004 3.69413L16.3055 9.99917L17.4438 8.86079C19.1849 7.1197 19.1849 4.29684 17.4438 2.55575C15.7028 0.814667 12.8799 0.814667 11.1388 2.55575L10.0004 3.69413Z" fill="#0067D1"/>
<path d="M9.99922 16.3054L8.86134 17.4433C7.12025 19.1844 4.29739 19.1844 2.5563 17.4433C0.815216 15.7022 0.815216 12.8793 2.5563 11.1383L3.69419 10.0004L9.99922 16.3054Z" fill="#0067D1"/>
<path d="M16.3063 13.9979C16.5801 13.9979 16.8021 13.7759 16.8021 13.5021C16.8021 13.2282 16.5801 13.0062 16.3063 13.0062C16.0324 13.0062 15.8104 13.2282 15.8104 13.5021C15.8104 13.7759 16.0324 13.9979 16.3063 13.9979Z" fill="#0067D1"/>
<path d="M15.0792 12.7729C15.353 12.7729 15.575 12.5509 15.575 12.2771C15.575 12.0032 15.353 11.7812 15.0792 11.7812C14.8054 11.7812 14.5834 12.0032 14.5834 12.2771C14.5834 12.5509 14.8054 12.7729 15.0792 12.7729Z" fill="#0067D1"/>
<path d="M14.9042 15.4C15.178 15.4 15.4 15.178 15.4 14.9042C15.4 14.6303 15.178 14.4083 14.9042 14.4083C14.6304 14.4083 14.4084 14.6303 14.4084 14.9042C14.4084 15.178 14.6304 15.4 14.9042 15.4Z" fill="#0067D1"/>
<path d="M13.6792 14.175C13.953 14.175 14.175 13.953 14.175 13.6792C14.175 13.4053 13.953 13.1833 13.6792 13.1833C13.4054 13.1833 13.1834 13.4053 13.1834 13.6792C13.1834 13.953 13.4054 14.175 13.6792 14.175Z" fill="#0067D1"/>
<path d="M13.5021 16.8021C13.776 16.8021 13.9979 16.5801 13.9979 16.3062C13.9979 16.0324 13.776 15.8104 13.5021 15.8104C13.2283 15.8104 13.0063 16.0324 13.0063 16.3062C13.0063 16.5801 13.2283 16.8021 13.5021 16.8021Z" fill="#0067D1"/>
<path d="M12.2771 15.575C12.551 15.575 12.7729 15.353 12.7729 15.0792C12.7729 14.8053 12.551 14.5833 12.2771 14.5833C12.0033 14.5833 11.7813 14.8053 11.7813 15.0792C11.7813 15.353 12.0033 15.575 12.2771 15.575Z" fill="#0067D1"/>
<path d="M7.72295 5.41666C7.99679 5.41666 8.21878 5.19466 8.21878 4.92082C8.21878 4.64698 7.99679 4.42499 7.72295 4.42499C7.44911 4.42499 7.22711 4.64698 7.22711 4.92082C7.22711 5.19466 7.44911 5.41666 7.72295 5.41666Z" fill="#0067D1"/>
<path d="M6.49795 4.18957C6.77179 4.18957 6.99378 3.96758 6.99378 3.69374C6.99378 3.4199 6.77179 3.19791 6.49795 3.19791C6.22411 3.19791 6.00211 3.4199 6.00211 3.69374C6.00211 3.96758 6.22411 4.18957 6.49795 4.18957Z" fill="#0067D1"/>
<path d="M6.32086 6.81666C6.59471 6.81666 6.8167 6.59466 6.8167 6.32082C6.8167 6.04698 6.59471 5.82499 6.32086 5.82499C6.04702 5.82499 5.82503 6.04698 5.82503 6.32082C5.82503 6.59466 6.04702 6.81666 6.32086 6.81666Z" fill="#0067D1"/>
<path d="M5.09586 5.59166C5.36971 5.59166 5.5917 5.36966 5.5917 5.09582C5.5917 4.82198 5.36971 4.59999 5.09586 4.59999C4.82202 4.59999 4.60003 4.82198 4.60003 5.09582C4.60003 5.36966 4.82202 5.59166 5.09586 5.59166Z" fill="#0067D1"/>
<path d="M4.92086 8.21874C5.19471 8.21874 5.4167 7.99675 5.4167 7.72291C5.4167 7.44907 5.19471 7.22707 4.92086 7.22707C4.64702 7.22707 4.42503 7.44907 4.42503 7.72291C4.42503 7.99675 4.64702 8.21874 4.92086 8.21874Z" fill="#0067D1"/>
<path d="M3.69378 6.99374C3.96762 6.99374 4.18961 6.77175 4.18961 6.49791C4.18961 6.22407 3.96762 6.00207 3.69378 6.00207C3.41994 6.00207 3.19795 6.22407 3.19795 6.49791C3.19795 6.77175 3.41994 6.99374 3.69378 6.99374Z" fill="#0067D1"/>
<path d="M9.59325 15.3099L4.68917 10.4058L10.4058 4.68912L15.3099 9.5932L9.59325 15.3099Z" fill="#0067D1"/>
</svg>
