<svg width="21" height="20" viewBox="0 0 21 20" fill="none" xmlns="http://www.w3.org/2000/svg">
<path d="M1.25 5.28748L1.25 17.2437C1.25 17.8179 1.71544 18.2833 2.28958 18.2833H17.7104C18.2846 18.2833 18.75 17.8179 18.75 17.2437V5.28748H1.25Z" fill="#0067D1"/>
<path d="M18.3224 2.30399C18.3155 2.29663 18.3059 2.29222 18.2958 2.29169H1.70413C1.69399 2.29222 1.68445 2.29663 1.67747 2.30399C1.6705 2.31136 1.66661 2.32112 1.66663 2.33127V4.87085H18.3333V2.33127C18.3333 2.32112 18.3294 2.31136 18.3224 2.30399Z" fill="white"/>
<path d="M3.33329 7.08335C3.33329 6.85323 3.51984 6.66669 3.74996 6.66669H8.12496C8.35508 6.66669 8.54163 6.85323 8.54163 7.08335V9.79169C8.54163 10.0218 8.35508 10.2084 8.12496 10.2084H3.74996C3.51984 10.2084 3.33329 10.0218 3.33329 9.79169V7.08335Z" fill="white"/>
<path d="M3.33329 14.1667C3.33329 13.9366 3.51984 13.75 3.74996 13.75H5.83329C6.06341 13.75 6.24996 13.9366 6.24996 14.1667V15.8334C6.24996 16.0635 6.06341 16.25 5.83329 16.25H3.74996C3.51984 16.25 3.33329 16.0635 3.33329 15.8334V14.1667Z" fill="white"/>
<path d="M9.37496 7.08335H16.6666V6.66669H9.37496V7.08335Z" fill="white"/>
<path d="M16.6666 8.54169H9.37496V8.12502H16.6666V8.54169Z" fill="white"/>
<path d="M9.37496 10H16.6666V9.58335H9.37496V10Z" fill="white"/>
<path d="M12.4146 11.4584H3.33329V11.0417H13.276C12.9734 11.1446 12.6841 11.2844 12.4146 11.4584Z" fill="white"/>
<path d="M11.3327 12.5H3.33329V12.9167H11.078C11.154 12.773 11.239 12.6338 11.3327 12.5Z" fill="white"/>
<path d="M10.7046 13.9584H6.87496V14.375H10.6424C10.6557 14.2347 10.6765 14.0956 10.7046 13.9584Z" fill="white"/>
<path d="M10.6841 15.4167H6.87496V15.8334H10.7812C10.7413 15.6965 10.7088 15.5574 10.6841 15.4167Z" fill="white"/>
<path d="M16.7014 11.4917C16.059 11.0625 15.3038 10.8334 14.5312 10.8334C13.4955 10.8345 12.5026 11.2464 11.7703 11.9787C11.038 12.711 10.6261 13.7039 10.625 14.7396C10.625 15.5122 10.8541 16.2674 11.2833 16.9098C11.7125 17.5522 12.3226 18.0529 13.0364 18.3485C13.7501 18.6442 14.5355 18.7215 15.2933 18.5708C16.051 18.4201 16.747 18.048 17.2933 17.5017C17.8396 16.9554 18.2117 16.2594 18.3624 15.5017C18.5131 14.7439 18.4358 13.9585 18.1401 13.2447C17.8445 12.531 17.3438 11.9209 16.7014 11.4917Z" fill="white"/>
<path d="M18.2958 2.29167C18.306 2.2922 18.3155 2.29661 18.3225 2.30397C18.3295 2.31134 18.3333 2.3211 18.3333 2.33125V4.87083H1.66667V2.33125C1.66665 2.3211 1.67054 2.31134 1.67751 2.30397C1.68449 2.29661 1.69403 2.2922 1.70417 2.29167H18.2958ZM18.2958 1.875H1.70417C1.58352 1.87555 1.46801 1.92386 1.3829 2.00937C1.29778 2.09487 1.25 2.21061 1.25 2.33125V5.2875H18.75V2.33125C18.75 2.21061 18.7022 2.09487 18.6171 2.00937C18.532 1.92386 18.4165 1.87555 18.2958 1.875Z" fill="#3A424A"/>
<path d="M2.82917 4.06251C3.09725 4.06251 3.31458 3.84518 3.31458 3.57709C3.31458 3.309 3.09725 3.09167 2.82917 3.09167C2.56108 3.09167 2.34375 3.309 2.34375 3.57709C2.34375 3.84518 2.56108 4.06251 2.82917 4.06251Z" fill="#3A424A"/>
<path d="M4.2875 4.06251C4.55559 4.06251 4.77292 3.84518 4.77292 3.57709C4.77292 3.309 4.55559 3.09167 4.2875 3.09167C4.01941 3.09167 3.80208 3.309 3.80208 3.57709C3.80208 3.84518 4.01941 4.06251 4.2875 4.06251Z" fill="#3A424A"/>
<path d="M5.74583 4.06251C6.01392 4.06251 6.23125 3.84518 6.23125 3.57709C6.23125 3.309 6.01392 3.09167 5.74583 3.09167C5.47775 3.09167 5.26042 3.309 5.26042 3.57709C5.26042 3.84518 5.47775 4.06251 5.74583 4.06251Z" fill="#3A424A"/>
<path fill-rule="evenodd" clip-rule="evenodd" d="M12.1296 11.1452C12.8405 10.6702 13.6763 10.4167 14.5313 10.4167C15.0989 10.4167 15.6611 10.5285 16.1856 10.7457C16.71 10.963 17.1866 11.2814 17.588 11.6828C17.9894 12.0842 18.3079 12.5608 18.5251 13.0853C18.7424 13.6098 18.8542 14.1719 18.8542 14.7396C18.8542 15.5946 18.6006 16.4304 18.1256 17.1413C18.0387 17.2713 17.9452 17.3961 17.8454 17.5152L20.0161 19.6839L19.7214 19.9786L17.5626 17.8216C17.1684 18.2093 16.7014 18.5198 16.1856 18.7334C15.3956 19.0606 14.5265 19.1462 13.6879 18.9794C12.8493 18.8126 12.0791 18.4009 11.4745 17.7963C10.8699 17.1918 10.4582 16.4215 10.2914 15.5829C10.1246 14.7444 10.2102 13.8752 10.5374 13.0853C10.8646 12.2954 11.4187 11.6202 12.1296 11.1452ZM16.7014 11.4917C16.0591 11.0624 15.3038 10.8333 14.5313 10.8333C13.4956 10.8344 12.5027 11.2463 11.7703 11.9787C11.038 12.711 10.6261 13.7039 10.625 14.7396C10.625 15.5122 10.8541 16.2674 11.2833 16.9098C11.7125 17.5522 12.3226 18.0528 13.0364 18.3485C13.7502 18.6441 14.5356 18.7215 15.2933 18.5708C16.0511 18.4201 16.7471 18.048 17.2934 17.5017C17.8397 16.9554 18.2117 16.2594 18.3624 15.5017C18.5132 14.7439 18.4358 13.9585 18.1402 13.2447C17.8445 12.531 17.3438 11.9209 16.7014 11.4917Z" fill="#3A424A"/>
<path d="M12.8857 14.3891C12.8692 14.2223 12.7376 14.1249 12.5232 14.1249C12.3037 14.1249 12.1825 14.2254 12.1825 14.3621C12.1794 14.5144 12.3337 14.5827 12.5181 14.6252L12.7086 14.6708C13.0774 14.7536 13.3435 14.9411 13.3446 15.2943C13.3435 15.6827 13.039 15.9303 12.5212 15.9303C12.0064 15.9303 11.6781 15.6931 11.6667 15.2342H12.1006C12.1151 15.4466 12.2829 15.5543 12.516 15.5543C12.7438 15.5543 12.8909 15.4486 12.892 15.2933C12.8909 15.1503 12.7625 15.084 12.5315 15.0281L12.3005 14.9701C11.9422 14.8841 11.7216 14.705 11.7226 14.3922C11.7205 14.0069 12.0613 13.75 12.5263 13.75C12.9986 13.75 13.3094 14.011 13.3156 14.3891H12.8857Z" fill="#3A424A"/>
<path d="M13.6462 15.9002V13.779H15.0756V14.1488H14.0947V14.6542H15.002V15.024H14.0947V15.5305H15.0797V15.9002H13.6462Z" fill="#3A424A"/>
<path d="M17.3814 14.8396C17.3814 15.5336 16.9505 15.9292 16.3881 15.9292C15.8226 15.9292 15.3948 15.5305 15.3948 14.8396C15.3948 14.1457 15.8226 13.75 16.3881 13.75C16.9505 13.75 17.3814 14.1457 17.3814 14.8396ZM16.9267 14.8396C16.9267 14.3901 16.7133 14.1467 16.3881 14.1467C16.0619 14.1467 15.8495 14.3901 15.8495 14.8396C15.8495 15.2891 16.0619 15.5325 16.3881 15.5325C16.7133 15.5325 16.9267 15.2891 16.9267 14.8396Z" fill="#3A424A"/>
</svg>
