<svg width="20" height="20" viewBox="0 0 20 20" fill="none" xmlns="http://www.w3.org/2000/svg">
<path fill-rule="evenodd" clip-rule="evenodd" d="M4.44679 2.36444C5.68797 1.53554 7.14708 1.09334 8.6396 1.09375C9.63043 1.09375 10.6116 1.28894 11.5269 1.66818C12.4423 2.04742 13.274 2.60328 13.9746 3.304C14.6751 4.00472 15.2307 4.83659 15.6097 5.75208C15.9887 6.66757 16.1836 7.64875 16.1833 8.63958C16.1833 10.1321 15.7407 11.5911 14.9115 12.832C14.6748 13.1862 14.4097 13.5181 14.1195 13.8249L18.7411 18.4465L18.4465 18.7411L13.8249 14.1196C13.1591 14.7499 12.3805 15.2568 11.5247 15.6112C10.1458 16.1823 8.62843 16.3316 7.16463 16.0403C5.70082 15.7489 4.35629 15.0301 3.30106 13.9746C2.24584 12.919 1.52734 11.5743 1.23642 10.1104C0.945493 8.64654 1.09522 7.12926 1.66667 5.75047C2.23811 4.37169 3.20561 3.19334 4.44679 2.36444ZM12.6003 2.7119C11.428 1.92854 10.0496 1.51042 8.6396 1.51042C6.7495 1.51262 4.93745 2.26444 3.60095 3.60094C2.26445 4.93744 1.51263 6.74949 1.51043 8.63958C1.51043 10.0496 1.92855 11.428 2.71191 12.6003C3.49527 13.7727 4.6087 14.6865 5.91138 15.2261C7.21407 15.7657 8.6475 15.9068 10.0304 15.6318C11.4134 15.3567 12.6836 14.6777 13.6807 13.6807C14.6777 12.6836 15.3567 11.4133 15.6318 10.0304C15.9069 8.64749 15.7657 7.21406 15.2261 5.91137C14.6865 4.60869 13.7727 3.49526 12.6003 2.7119Z" fill="#3A424A"/>
<path d="M10.0375 8.13539L10.3438 7.85206L8.6396 6.01873L6.93543 7.85206L7.2396 8.13539L8.43128 6.85505V11.2583H8.84795V6.85541L10.0375 8.13539Z" fill="#3A424A"/>
<path fill-rule="evenodd" clip-rule="evenodd" d="M14.5084 8.63962C14.5084 11.8808 11.8808 14.5084 8.63962 14.5084C5.3984 14.5084 2.77087 11.8808 2.77087 8.63962C2.77087 5.3984 5.3984 2.77087 8.63962 2.77087C11.8808 2.77087 14.5084 5.3984 14.5084 8.63962ZM10.3438 7.85209L10.0375 8.13543L8.84797 6.85544V11.2583H8.4313V6.85508L7.23962 8.13543L6.93546 7.85209L8.63962 6.01876L10.3438 7.85209Z" fill="#0067D1"/>
<path fill-rule="evenodd" clip-rule="evenodd" d="M8.6396 1.51042C10.0496 1.51042 11.428 1.92854 12.6003 2.7119C13.7727 3.49526 14.6865 4.60869 15.2261 5.91137C15.7657 7.21406 15.9069 8.64749 15.6318 10.0304C15.3567 11.4133 14.6777 12.6836 13.6807 13.6807C12.6836 14.6777 11.4134 15.3567 10.0304 15.6318C8.6475 15.9068 7.21407 15.7657 5.91138 15.2261C4.6087 14.6865 3.49527 13.7727 2.71191 12.6003C1.92855 11.428 1.51043 10.0496 1.51043 8.63958C1.51263 6.74949 2.26445 4.93744 3.60095 3.60094C4.93745 2.26444 6.7495 1.51262 8.6396 1.51042ZM14.5084 8.63959C14.5084 11.8808 11.8808 14.5083 8.6396 14.5083C5.39838 14.5083 2.77085 11.8808 2.77085 8.63959C2.77085 5.39837 5.39838 2.77084 8.6396 2.77084C11.8808 2.77084 14.5084 5.39837 14.5084 8.63959Z" fill="white"/>
</svg>
