<svg width="20" height="20" viewBox="0 0 20 20" fill="none" xmlns="http://www.w3.org/2000/svg">
<path fill-rule="evenodd" clip-rule="evenodd" d="M3.55208 2.5H16.4479C17.029 2.5 17.5 2.97103 17.5 3.55208V16.4479C17.5 17.029 17.029 17.5 16.4479 17.5H3.55208C2.97103 17.5 2.5 17.029 2.5 16.4479V3.55208C2.5 2.97103 2.97103 2.5 3.55208 2.5ZM8.125 6.35417C8.60058 6.35417 9.00172 6.03546 9.12649 5.59998H15.625V5.18331H9.15873C9.09511 4.66897 8.65655 4.27083 8.125 4.27083C7.59345 4.27083 7.15489 4.66897 7.09127 5.18331H4.375V5.59998H7.12351C7.24828 6.03546 7.64942 6.35417 8.125 6.35417ZM12.6682 8.72498H15.625V8.30831H12.7004C12.6368 7.79397 12.1982 7.39583 11.6667 7.39583C11.1351 7.39583 10.6966 7.79397 10.6329 8.30831H4.375V8.72498H10.6652C10.7899 9.16046 11.1911 9.47917 11.6667 9.47917C12.1422 9.47917 12.5434 9.16046 12.6682 8.72498ZM6.66667 12.6042C7.14225 12.6042 7.54339 12.2855 7.66816 11.85H15.625V11.4333H7.7004C7.63678 10.919 7.19822 10.5208 6.66667 10.5208C6.13512 10.5208 5.69656 10.919 5.63293 11.4333H4.375V11.85H5.66517C5.78995 12.2855 6.19109 12.6042 6.66667 12.6042ZM14.5432 14.975H15.625V14.5583H14.5754C14.5118 14.044 14.0732 13.6458 13.5417 13.6458C13.0101 13.6458 12.5716 14.044 12.5079 14.5583H4.375V14.975H12.5402C12.6649 15.4105 13.0661 15.7292 13.5417 15.7292C14.0172 15.7292 14.4184 15.4105 14.5432 14.975Z" fill="#0067D1"/>
<path d="M9.12649 5.59996H15.625V5.18329H9.15873C9.16397 5.22562 9.16667 5.26873 9.16667 5.31248C9.16667 5.4122 9.15265 5.50864 9.12649 5.59996Z" fill="#3A424A"/>
<path d="M7.12351 5.59996C7.09735 5.50864 7.08333 5.4122 7.08333 5.31248C7.08333 5.26873 7.08603 5.22562 7.09127 5.18329H4.375V5.59996H7.12351Z" fill="#3A424A"/>
<path d="M12.6682 8.72496H15.625V8.30829H12.7004C12.7056 8.35062 12.7083 8.39373 12.7083 8.43748C12.7083 8.5372 12.6943 8.63364 12.6682 8.72496Z" fill="#3A424A"/>
<path d="M10.6652 8.72496C10.639 8.63364 10.625 8.5372 10.625 8.43748C10.625 8.39373 10.6277 8.35062 10.6329 8.30829H4.375V8.72496H10.6652Z" fill="#3A424A"/>
<path d="M7.66816 11.85C7.69432 11.7586 7.70833 11.6622 7.70833 11.5625C7.70833 11.5187 7.70564 11.4756 7.7004 11.4333H15.625V11.85H7.66816Z" fill="#3A424A"/>
<path d="M5.66517 11.85H4.375V11.4333H5.63293C5.6277 11.4756 5.625 11.5187 5.625 11.5625C5.625 11.6622 5.63901 11.7586 5.66517 11.85Z" fill="#3A424A"/>
<path d="M14.5432 14.975H15.625V14.5583H14.5754C14.5806 14.6006 14.5833 14.6437 14.5833 14.6875C14.5833 14.7872 14.5693 14.8836 14.5432 14.975Z" fill="#3A424A"/>
<path d="M12.5402 14.975C12.514 14.8836 12.5 14.7872 12.5 14.6875C12.5 14.6437 12.5027 14.6006 12.5079 14.5583H4.375V14.975H12.5402Z" fill="#3A424A"/>
<path d="M9.15873 5.18329C9.16397 5.22562 9.16667 5.26873 9.16667 5.31248C9.16667 5.4122 9.15265 5.50864 9.12649 5.59996C9.00172 6.03544 8.60058 6.35415 8.125 6.35415C7.64942 6.35415 7.24828 6.03544 7.12351 5.59996C7.09735 5.50864 7.08333 5.4122 7.08333 5.31248C7.08333 5.26873 7.08603 5.22562 7.09127 5.18329C7.15489 4.66895 7.59345 4.27081 8.125 4.27081C8.65655 4.27081 9.09511 4.66895 9.15873 5.18329Z" fill="white"/>
<path d="M12.7004 8.30829C12.7056 8.35062 12.7083 8.39373 12.7083 8.43748C12.7083 8.5372 12.6943 8.63364 12.6682 8.72496C12.5434 9.16044 12.1422 9.47915 11.6667 9.47915C11.1911 9.47915 10.7899 9.16044 10.6652 8.72496C10.639 8.63364 10.625 8.5372 10.625 8.43748C10.625 8.39373 10.6277 8.35062 10.6329 8.30829C10.6966 7.79395 11.1351 7.39581 11.6667 7.39581C12.1982 7.39581 12.6368 7.79395 12.7004 8.30829Z" fill="white"/>
<path d="M7.66816 11.85C7.69432 11.7586 7.70833 11.6622 7.70833 11.5625C7.70833 11.5256 7.70642 11.4892 7.70268 11.4533C7.6481 10.9293 7.20509 10.5208 6.66667 10.5208C6.09411 10.5208 5.62945 10.9827 5.62503 11.5543C5.62501 11.557 5.625 11.5597 5.625 11.5625C5.625 11.6622 5.63901 11.7586 5.66517 11.85C5.78995 12.2854 6.19109 12.6041 6.66667 12.6041C7.14224 12.6041 7.54339 12.2854 7.66816 11.85Z" fill="white"/>
<path d="M14.5754 14.5583C14.5806 14.6006 14.5833 14.6437 14.5833 14.6875C14.5833 14.7872 14.5693 14.8836 14.5432 14.975C14.4184 15.4104 14.0172 15.7291 13.5417 15.7291C13.0661 15.7291 12.6649 15.4104 12.5402 14.975C12.514 14.8836 12.5 14.7872 12.5 14.6875C12.5 14.6437 12.5027 14.6006 12.5079 14.5583C12.5716 14.044 13.0101 13.6458 13.5417 13.6458C14.0732 13.6458 14.5118 14.044 14.5754 14.5583Z" fill="white"/>
</svg>
