<svg width="20" height="20" viewBox="0 0 20 20" fill="none" xmlns="http://www.w3.org/2000/svg">
<path fill-rule="evenodd" clip-rule="evenodd" d="M4.2229 7.02705V6.90205C4.22336 6.84831 4.23758 6.79558 4.26421 6.7489C4.29083 6.70222 4.32897 6.66314 4.37498 6.63538L9.74165 3.54163C9.78831 3.51394 9.84156 3.49933 9.89582 3.49933C9.95007 3.49933 10.0033 3.51394 10.05 3.54163L15.4167 6.63538C15.465 6.66157 15.5056 6.69997 15.5345 6.74676C15.5634 6.79355 15.5795 6.84709 15.5812 6.90205V7.02705C15.5813 8.92777 15.0807 10.795 14.1298 12.4407C13.1789 14.0865 11.8113 15.4528 10.1646 16.402C10.0848 16.4481 9.99422 16.4724 9.90207 16.4724C9.80991 16.4724 9.71938 16.4481 9.63957 16.402C7.99286 15.4528 6.62524 14.0865 5.67435 12.4407C4.72346 10.795 4.22285 8.92777 4.2229 7.02705ZM11.6204 12.4251C11.1407 12.7456 10.5768 12.9166 9.99998 12.9166C9.22643 12.9166 8.48457 12.6094 7.93759 12.0624C7.3906 11.5154 7.08331 10.7735 7.08331 9.99998C7.08331 9.42312 7.25437 8.85921 7.57486 8.37957C7.89535 7.89992 8.35087 7.52609 8.88382 7.30533C9.41677 7.08458 10.0032 7.02682 10.569 7.13936C11.1348 7.2519 11.6545 7.52968 12.0624 7.93759C12.4703 8.34549 12.7481 8.86519 12.8606 9.43097C12.9731 9.99675 12.9154 10.5832 12.6946 11.1161C12.4739 11.6491 12.1 12.1046 11.6204 12.4251Z" fill="#0067D1"/>
<path d="M9.89587 1.64378L17.1313 5.82086V5.98961C17.1298 8.47918 16.4748 10.9248 15.2318 13.0818C13.9888 15.2388 12.2012 17.0318 10.048 18.2813C10.0038 18.3073 9.9534 18.321 9.90212 18.321C9.85083 18.321 9.80048 18.3073 9.75628 18.2813C7.60452 17.0326 5.81797 15.2414 4.57502 13.0863C3.33207 10.9313 2.67622 8.48783 2.67295 6.00003V5.83336L9.89587 1.64378ZM9.89587 1.22711C9.82269 1.22724 9.75083 1.24664 9.68753 1.28336L2.45003 5.46253C2.38706 5.49889 2.3347 5.55109 2.29815 5.61395C2.2616 5.67682 2.24214 5.74815 2.2417 5.82086V5.98961C2.24068 8.55164 2.91396 11.0688 4.1939 13.2882C5.47383 15.5076 7.31533 17.3511 9.53337 18.6334C9.64132 18.6947 9.76336 18.727 9.88753 18.727C10.0117 18.727 10.1338 18.6947 10.2417 18.6334C12.4597 17.3511 14.3012 15.5076 15.5812 13.2882C16.8611 11.0688 17.5344 8.55164 17.5334 5.98961V5.82086C17.5329 5.74815 17.5135 5.67682 17.4769 5.61395C17.4404 5.55109 17.388 5.49889 17.325 5.46253L10.1042 1.28336C10.0409 1.24664 9.96905 1.22724 9.89587 1.22711Z" fill="#3A424A"/>
<path fill-rule="evenodd" clip-rule="evenodd" d="M11.596 8.97692L9.73736 11.4611L8.42355 10.1473L8.71818 9.85271L9.69188 10.8264L11.2624 8.72731L11.596 8.97692Z" fill="#3A424A"/>
<path fill-rule="evenodd" clip-rule="evenodd" d="M9.89587 1.64378L17.1313 5.82086V5.98961C17.1298 8.47918 16.4748 10.9248 15.2318 13.0818C13.9888 15.2388 12.2012 17.0318 10.048 18.2813C10.0038 18.3073 9.9534 18.321 9.90212 18.321C9.85083 18.321 9.80048 18.3073 9.75628 18.2813C7.60452 17.0326 5.81797 15.2414 4.57502 13.0863C3.33207 10.9313 2.67622 8.48783 2.67295 6.00003V5.83336L9.89587 1.64378ZM4.22295 7.02709V6.9021C4.22342 6.84836 4.23764 6.79563 4.26426 6.74895C4.29088 6.70227 4.32902 6.66319 4.37504 6.63543L9.7417 3.54168C9.78836 3.51399 9.84162 3.49938 9.89587 3.49938C9.95013 3.49938 10.0034 3.51399 10.05 3.54168L15.4167 6.63543C15.465 6.66162 15.5057 6.70002 15.5346 6.74681C15.5634 6.7936 15.5796 6.84714 15.5813 6.9021V7.02709C15.5813 8.92782 15.0807 10.795 14.1298 12.4408C13.1789 14.0866 11.8113 15.4528 10.1646 16.4021C10.0848 16.4482 9.99428 16.4724 9.90212 16.4724C9.80996 16.4724 9.71943 16.4482 9.63962 16.4021C7.99291 15.4528 6.6253 14.0866 5.67441 12.4408C4.72352 10.795 4.22291 8.92782 4.22295 7.02709Z" fill="white"/>
<path fill-rule="evenodd" clip-rule="evenodd" d="M11.6204 12.4252C11.1408 12.7456 10.5769 12.9167 10 12.9167C9.22649 12.9167 8.48462 12.6094 7.93764 12.0624C7.39066 11.5154 7.08337 10.7736 7.08337 10C7.08337 9.42317 7.25443 8.85926 7.57491 8.37962C7.8954 7.89997 8.35092 7.52614 8.88387 7.30538C9.41683 7.08463 10.0033 7.02687 10.569 7.13941C11.1348 7.25195 11.6545 7.52973 12.0624 7.93764C12.4703 8.34554 12.7481 8.86524 12.8607 9.43102C12.9732 9.99679 12.9154 10.5832 12.6947 11.1162C12.4739 11.6491 12.1001 12.1047 11.6204 12.4252ZM9.73736 11.4611L11.596 8.97692L11.2624 8.72731L10.4771 9.77686L9.69188 10.8264L8.71818 9.85271L8.42355 10.1473L9.73736 11.4611Z" fill="white"/>
</svg>
