<svg width="20" height="20" viewBox="0 0 20 20" fill="none" xmlns="http://www.w3.org/2000/svg">
<path d="M2.56873 10.9021V10.9854C2.56922 12.2468 2.90156 13.4858 3.53236 14.5781C4.16316 15.6704 5.07022 16.5775 6.16248 17.2083C6.21563 17.2381 6.27552 17.2537 6.33643 17.2537C6.39734 17.2537 6.45724 17.2381 6.51039 17.2083C7.60265 16.5775 8.50971 15.6704 9.14051 14.5781C9.77131 13.4858 10.1036 12.2468 10.1041 10.9854V10.9021C10.1036 10.8661 10.0937 10.8308 10.0754 10.7998C10.0571 10.7688 10.0312 10.743 9.99998 10.725L6.43956 8.66875C6.40789 8.65047 6.37196 8.64084 6.33539 8.64084C6.29882 8.64084 6.2629 8.65047 6.23123 8.66875L2.67289 10.725C2.64171 10.743 2.61572 10.7688 2.59746 10.7998C2.57921 10.8308 2.56931 10.8661 2.56873 10.9021Z" fill="#0067D1"/>
<path d="M13.1916 12.5708C16.3742 12.5708 18.9541 9.99088 18.9541 6.80834C18.9541 3.6258 16.3742 1.04584 13.1916 1.04584C10.0091 1.04584 7.42912 3.6258 7.42912 6.80834C7.42912 7.13458 7.45624 7.4545 7.50833 7.76595L8.38822 8.27441C8.24685 7.81063 8.1708 7.31837 8.1708 6.80835C8.1708 4.03542 10.4187 1.78752 13.1916 1.78752C15.9646 1.78752 18.2125 4.03542 18.2125 6.80835C18.2125 9.58128 15.9646 11.8292 13.1916 11.8292C12.5385 11.8292 11.9145 11.7045 11.3422 11.4776C11.3113 11.7284 11.2707 11.9777 11.2205 12.2249C11.8355 12.4487 12.4993 12.5708 13.1916 12.5708Z" fill="#0067D1"/>
<path fill-rule="evenodd" clip-rule="evenodd" d="M11.3855 11.0448C11.9401 11.2815 12.5506 11.4125 13.1916 11.4125C15.7344 11.4125 17.7958 9.35116 17.7958 6.80835C17.7958 4.26554 15.7344 2.20418 13.1916 2.20418C10.6488 2.20418 8.58747 4.26554 8.58747 6.80835C8.58747 7.44311 8.71592 8.04786 8.94825 8.59804L11.2771 9.9438C11.3189 9.96822 11.3537 10.0032 11.3778 10.0452C11.4019 10.0873 11.4146 10.1349 11.4146 10.1834V10.2959C11.4145 10.5463 11.4048 10.7961 11.3855 11.0448ZM13.4 6.30138C13.5993 6.38338 13.7395 6.57945 13.7395 6.80829C13.7395 6.88257 13.7248 6.95339 13.698 7.01799L15.1702 8.4902L14.8756 8.78483L13.4042 7.31345C13.3388 7.34099 13.267 7.35621 13.1916 7.35621C12.889 7.35621 12.6437 7.1109 12.6437 6.80829C12.6437 6.57943 12.784 6.38334 12.9833 6.30136V3.48541H13.4V6.30138Z" fill="#0067D1"/>
<path d="M17.0021 11.1313C15.9864 12.0273 14.6525 12.5709 13.1916 12.5709C12.4993 12.5709 11.8355 12.4488 11.2205 12.2249C11.013 13.2469 10.641 14.2328 10.1153 15.1433C9.72488 15.8195 9.25592 16.443 8.72033 17.0021H16.5854C16.6959 17.0021 16.8019 16.9582 16.88 16.8801C16.9582 16.802 17.0021 16.696 17.0021 16.5855V11.1313Z" fill="white"/>
<path d="M2.99789 15.8482C3.28377 16.2574 3.60027 16.6431 3.94425 17.0021H3.41456C3.30405 17.0021 3.19807 16.9582 3.11993 16.8801C3.04179 16.802 2.99789 16.696 2.99789 16.5855V15.8482Z" fill="white"/>
<path d="M2.99789 9.01643V3.41463C2.99789 3.30413 3.04179 3.19814 3.11993 3.12C3.19807 3.04186 3.30405 2.99797 3.41456 2.99797H8.86867C7.97274 4.01364 7.42915 5.34752 7.42915 6.80836C7.42915 7.1346 7.45626 7.45452 7.50835 7.76597L6.475 7.16882C6.43201 7.14593 6.38412 7.13378 6.33542 7.1334C6.28741 7.13404 6.24026 7.14618 6.19792 7.16882L2.99789 9.01643Z" fill="white"/>
<path fill-rule="evenodd" clip-rule="evenodd" d="M6.33542 7.5709L11.0021 10.2647V10.2959C11 11.9245 10.5704 13.5241 9.75623 14.9346C8.94203 16.3451 7.77177 17.5171 6.3625 18.3334C6.3536 18.3355 6.34432 18.3355 6.33542 18.3334C6.32719 18.3353 6.31865 18.3353 6.31042 18.3334C4.90037 17.5176 3.72928 16.3458 2.91433 14.9353C2.09938 13.5248 1.66914 11.9249 1.66667 10.2959V10.2647L6.33542 7.5709ZM2.56877 10.9854V10.9021C2.56935 10.8661 2.57925 10.8309 2.5975 10.7998C2.61576 10.7688 2.64175 10.743 2.67293 10.725L6.23127 8.66878C6.26294 8.6505 6.29886 8.64087 6.33543 8.64087C6.372 8.64087 6.40793 8.6505 6.4396 8.66878L10 10.725C10.0312 10.743 10.0572 10.7688 10.0754 10.7998C10.0937 10.8309 10.1036 10.8661 10.1042 10.9021V10.9854C10.1037 12.2468 9.77135 13.4858 9.14055 14.5781C8.50975 15.6704 7.60269 16.5775 6.51043 17.2084C6.45728 17.2381 6.39739 17.2537 6.33647 17.2537C6.27556 17.2537 6.21567 17.2381 6.16252 17.2084C5.07026 16.5775 4.1632 15.6704 3.5324 14.5781C2.9016 13.4858 2.56927 12.2468 2.56877 10.9854Z" fill="white"/>
<path d="M8.58749 6.80837C8.58749 4.26556 10.6488 2.2042 13.1917 2.2042C15.7345 2.2042 17.7958 4.26556 17.7958 6.80837C17.7958 9.35118 15.7345 11.4125 13.1917 11.4125C12.5506 11.4125 11.9401 11.2815 11.3855 11.0448C11.3743 11.1895 11.3599 11.3338 11.3422 11.4776C11.9145 11.7045 12.5385 11.8292 13.1917 11.8292C15.9646 11.8292 18.2125 9.5813 18.2125 6.80837C18.2125 4.03544 15.9646 1.78754 13.1917 1.78754C10.4187 1.78754 8.17083 4.03544 8.17083 6.80837C8.17083 7.31839 8.24687 7.81066 8.38825 8.27443L8.94827 8.59806C8.71595 8.04788 8.58749 7.44313 8.58749 6.80837Z" fill="white"/>
<path d="M13.1917 6.2604C12.889 6.2604 12.6437 6.50571 12.6437 6.80831C12.6437 7.11092 12.889 7.35623 13.1917 7.35623C13.4943 7.35623 13.7396 7.11092 13.7396 6.80831C13.7396 6.50571 13.4943 6.2604 13.1917 6.2604Z" fill="white"/>
<path d="M2.99789 15.8482C3.28377 16.2574 3.60027 16.6431 3.94425 17.0021H3.41456C3.30405 17.0021 3.19807 16.9582 3.11993 16.8801C3.04179 16.802 2.99789 16.696 2.99789 16.5855V15.8482Z" fill="#3A424A"/>
<path fill-rule="evenodd" clip-rule="evenodd" d="M8.86867 2.99797C8.99712 2.85235 9.13281 2.71327 9.27519 2.5813H3.41456C3.19355 2.5813 2.98159 2.6691 2.82531 2.82538C2.66903 2.98166 2.58123 3.19362 2.58123 3.41463V9.257L1.39167 9.94382C1.34902 9.96771 1.31345 10.0025 1.28857 10.0445C1.26369 10.0866 1.25038 10.1345 1.25 10.1834V10.2959C1.25018 11.9977 1.69827 13.6695 2.54925 15.1433C2.55985 15.1616 2.57051 15.1799 2.58123 15.1982V16.5855C2.58123 16.8065 2.66903 17.0184 2.82531 17.1747C2.98159 17.331 3.19355 17.4188 3.41456 17.4188H4.36866C4.89399 17.9038 5.47352 18.3312 6.09792 18.6917C6.16924 18.7327 6.25005 18.7542 6.33229 18.7542C6.41453 18.7542 6.49534 18.7327 6.56667 18.6917C7.19106 18.3312 7.7706 17.9038 8.29592 17.4188H16.5854C16.8064 17.4188 17.0184 17.331 17.1747 17.1747C17.3309 17.0184 17.4187 16.8065 17.4187 16.5855V10.7248C17.2868 10.8672 17.1477 11.0029 17.0021 11.1313V16.5855C17.0021 16.696 16.9582 16.802 16.88 16.8801C16.8019 16.9582 16.6959 17.0021 16.5854 17.0021H8.72033C9.25592 16.443 9.72488 15.8195 10.1153 15.1433C10.9663 13.6695 11.4144 11.9977 11.4146 10.2959V10.1834C11.4146 10.1349 11.4019 10.0873 11.3778 10.0453C11.3537 10.0032 11.319 9.96824 11.2771 9.94382L6.475 7.16882C6.43201 7.14593 6.38412 7.13378 6.33542 7.1334C6.28741 7.13404 6.24026 7.14618 6.19792 7.16882L2.99789 9.01643V3.41463C2.99789 3.30413 3.04179 3.19814 3.11993 3.12C3.19807 3.04186 3.30405 2.99797 3.41456 2.99797H8.86867ZM3.94425 17.0021C3.60027 16.6431 3.28377 16.2574 2.99789 15.8482V16.5855C2.99789 16.696 3.04179 16.802 3.11993 16.8801C3.19807 16.9582 3.30405 17.0021 3.41456 17.0021H3.94425ZM11.0021 10.2647L6.33542 7.5709L1.66667 10.2647V10.2959C1.66914 11.9249 2.09938 13.5248 2.91433 14.9353C3.72928 16.3458 4.90037 17.5176 6.31042 18.3334C6.31865 18.3353 6.32719 18.3353 6.33542 18.3334C6.34432 18.3355 6.3536 18.3355 6.3625 18.3334C7.77177 17.5171 8.94203 16.3451 9.75623 14.9346C10.5704 13.5241 11 11.9245 11.0021 10.2959V10.2647Z" fill="#3A424A"/>
<path d="M12.9833 6.30138C13.0476 6.27497 13.1179 6.2604 13.1917 6.2604C13.2654 6.2604 13.3358 6.27497 13.4 6.3014V3.48543H12.9833V6.30138Z" fill="#3A424A"/>
<path d="M13.698 7.01801C13.6429 7.15102 13.5368 7.2576 13.4042 7.31347L14.8756 8.78485L15.1702 8.49022L13.698 7.01801Z" fill="#3A424A"/>
</svg>
