<svg width="20" height="20" viewBox="0 0 20 20" fill="none" xmlns="http://www.w3.org/2000/svg">
<path d="M18.3333 5.86244L11.1729 1.73119L4.02083 5.86661V6.02911C4.02313 7.4664 4.24548 8.88867 4.67495 10.2479H6.04243C5.93095 9.89054 5.83825 9.52753 5.76474 9.16038H4.75001L5.47293 8.29371L4.75001 7.42704H5.56263C5.55837 7.30363 5.55623 7.18001 5.55624 7.05626V6.93334C5.55588 6.87944 5.56975 6.8264 5.59646 6.77958C5.62316 6.73275 5.66175 6.69381 5.70832 6.66667L11.0187 3.60209C11.0654 3.57541 11.1181 3.56138 11.1719 3.56138C11.2256 3.56138 11.2784 3.57541 11.325 3.60209L16.6354 6.66667C16.6825 6.69338 16.7216 6.73217 16.7487 6.77905C16.7758 6.82593 16.7899 6.87919 16.7896 6.93334V7.05626C16.7893 8.93713 16.2939 10.7848 15.3534 12.4136C14.4128 14.0424 13.0601 15.395 11.4312 16.3354C11.3522 16.3806 11.2628 16.4043 11.1719 16.4043C11.0809 16.4043 10.9915 16.3806 10.9125 16.3354C9.65535 15.6094 8.5628 14.6379 7.69737 13.4833H6.60207L7.2024 12.7636C7.12988 12.6484 7.05948 12.5316 6.99126 12.4134C6.88587 12.2308 6.78608 12.0455 6.69195 11.8577L6.60207 11.75H6.6387C6.46631 11.3961 6.31388 11.0338 6.18185 10.6645H4.81379C5.10233 11.4874 5.46782 12.2849 5.90731 13.046C7.13935 15.1796 8.90978 16.9525 11.0417 18.1874C11.0816 18.2107 11.1267 18.2236 11.1729 18.2249C11.2226 18.2251 11.2715 18.2121 11.3146 18.1874C13.4459 16.952 15.2158 15.179 16.4475 13.0455C17.6791 10.912 18.3294 8.49261 18.3333 6.02911V5.86244Z" fill="white"/>
<path d="M4.75001 9.16031L5.47293 8.29365L4.75001 7.42698H6.19584L6.85421 8.08535H9.95328L9.8527 7.98477L10.1473 7.69014L10.4636 8.00637L10.7798 7.69014L11.0744 7.98477L10.7582 8.301L11.0744 8.61723L10.7798 8.91186L10.4636 8.59563L10.1473 8.91186L9.8527 8.61723L9.96792 8.50201H6.85415L6.19584 9.16031H4.75001Z" fill="#3A424A"/>
<path d="M7.32499 12.6166L6.60207 13.4832H8.0479L8.70779 12.8249H9.96807L9.85285 12.9399L10.1472 13.2349L10.4635 12.9192L10.7799 13.2349L11.0742 12.9399L10.7585 12.6249L11.0742 12.3099L10.7799 12.0149L10.4635 12.3306L10.1472 12.0149L9.85285 12.3099L9.95149 12.4083H8.70785L8.0479 11.7499H6.60207L7.32499 12.6166Z" fill="#3A424A"/>
<path fill-rule="evenodd" clip-rule="evenodd" d="M4.36001 10.6645C4.66464 11.5612 5.05784 12.4293 5.53604 13.2556C6.80723 15.452 8.63421 17.275 10.8333 18.5415C10.9397 18.603 11.0605 18.6353 11.1833 18.6353C11.3062 18.6353 11.4269 18.603 11.5333 18.5415C13.7279 17.272 15.55 15.4476 16.8167 13.2514C18.0834 11.0552 18.7501 8.56438 18.75 6.02904V5.86238C18.7492 5.79002 18.7296 5.71911 18.693 5.65665C18.6565 5.59418 18.6043 5.54231 18.5417 5.50613L11.3792 1.36863C11.3159 1.33191 11.244 1.31251 11.1708 1.31238L11.1729 1.31446C11.0997 1.31398 11.0276 1.33343 10.9646 1.37071L3.8 5.50613C3.73733 5.54231 3.68516 5.59418 3.64863 5.65665C3.6121 5.71911 3.59247 5.79002 3.59166 5.86238V6.02904C3.59313 7.46497 3.80847 8.88635 4.22546 10.2478H3.35465L2.69583 9.58742H1.25L1.97292 10.4562L1.25 11.3228H2.69583L3.35418 10.6645H4.36001ZM18.3333 5.86238L11.1729 1.73113L4.02083 5.86654V6.02904C4.02313 7.46634 4.24548 8.8886 4.67495 10.2478H9.95328L9.8527 10.1472L10.1473 9.85262L10.4636 10.1688L10.7798 9.85262L11.0744 10.1472L10.7582 10.4635L11.0744 10.7797L10.7798 11.0743L10.4636 10.7581L10.1473 11.0743L9.8527 10.7797L9.96792 10.6645H4.81379C5.10233 11.4874 5.46782 12.2849 5.90731 13.046C7.13935 15.1795 8.90978 16.9524 11.0417 18.1874C11.0816 18.2106 11.1267 18.2235 11.1729 18.2249C11.2226 18.225 11.2715 18.2121 11.3146 18.1874C13.4459 16.952 15.2158 15.179 16.4475 13.0454C17.6791 10.9119 18.3294 8.49255 18.3333 6.02904V5.86238Z" fill="#3A424A"/>
<path d="M5.55628 7.05628V6.93336C5.55592 6.87946 5.56979 6.82642 5.5965 6.7796C5.6232 6.73277 5.66179 6.69383 5.70836 6.66669L11.0188 3.60211C11.0654 3.57543 11.1182 3.5614 11.1719 3.5614C11.2256 3.5614 11.2784 3.57543 11.325 3.60211L16.6354 6.66669C16.6826 6.6934 16.7217 6.73219 16.7488 6.77907C16.7759 6.82595 16.79 6.87921 16.7896 6.93336V7.05628C16.7893 8.93715 16.294 10.7848 15.3534 12.4136C14.4129 14.0424 13.0602 15.395 11.4313 16.3354C11.3523 16.3806 11.2629 16.4043 11.1719 16.4043C11.0809 16.4043 10.9915 16.3806 10.9125 16.3354C9.65539 15.6094 8.56284 14.6379 7.69741 13.4833H8.04795L8.70783 12.825H9.96812L9.8529 12.94L10.1472 13.2349L10.4636 12.9193L10.78 13.2349L11.0743 12.94L10.7585 12.625L11.0743 12.3099L10.78 12.015L10.4636 12.3307L10.1472 12.015L9.8529 12.3099L9.95153 12.4083H8.70789L8.04795 11.75H6.63874C6.46635 11.3962 6.31392 11.0338 6.18189 10.6646H9.96796L9.85274 10.7798L10.1474 11.0744L10.4636 10.7582L10.7798 11.0744L11.0745 10.7798L10.7582 10.4636L11.0745 10.1473L10.7798 9.8527L10.4636 10.1689L10.1474 9.8527L9.85274 10.1473L9.95332 10.2479H6.04247C5.93099 9.89056 5.83829 9.52755 5.76478 9.1604H6.19588L6.85419 8.5021H9.96796L9.85274 8.61731L10.1474 8.91194L10.4636 8.59571L10.7798 8.91194L11.0745 8.61731L10.7582 8.30108L11.0745 7.98485L10.7798 7.69023L10.4636 8.00645L10.1474 7.69023L9.85274 7.98485L9.95332 8.08543H6.85425L6.19588 7.42706H5.56267C5.55841 7.30365 5.55627 7.18003 5.55628 7.05628Z" fill="#0067D1"/>
<path d="M6.69199 11.8577C6.78612 12.0455 6.88591 12.2309 6.9913 12.4134C7.05952 12.5316 7.12992 12.6484 7.20244 12.7636L7.32503 12.6166L6.69199 11.8577Z" fill="#0067D1"/>
</svg>
