<svg width="20" height="20" viewBox="0 0 20 20" fill="none" xmlns="http://www.w3.org/2000/svg">
<path fill-rule="evenodd" clip-rule="evenodd" d="M9.89583 1.64374L17.1312 5.82082V5.98957C17.1298 8.47914 16.4748 10.9247 15.2318 13.0818C13.9887 15.2388 12.2012 17.0317 10.0479 18.2812C10.0037 18.3073 9.95336 18.321 9.90208 18.321C9.85079 18.321 9.80044 18.3073 9.75625 18.2812C7.60448 17.0326 5.81793 15.2413 4.57498 13.0863C3.33203 10.9312 2.67618 8.48779 2.67291 5.99999V5.83332L9.89583 1.64374ZM4.22292 7.02705V6.90205C4.22338 6.84832 4.2376 6.79559 4.26422 6.74891C4.29085 6.70223 4.32898 6.66315 4.375 6.63539L9.74167 3.54164C9.78832 3.51395 9.84158 3.49934 9.89583 3.49934C9.95009 3.49934 10.0033 3.51395 10.05 3.54164L15.4167 6.63539C15.465 6.66158 15.5056 6.69998 15.5345 6.74677C15.5634 6.79356 15.5795 6.8471 15.5812 6.90205V7.02705C15.5813 8.92778 15.0807 10.795 14.1298 12.4408C13.1789 14.0865 11.8113 15.4528 10.1646 16.4021C10.0848 16.4481 9.99424 16.4724 9.90208 16.4724C9.80993 16.4724 9.71939 16.4481 9.63958 16.4021C7.99288 15.4528 6.62526 14.0865 5.67437 12.4408C4.72348 10.795 4.22287 8.92778 4.22292 7.02705Z" fill="white"/>
<path d="M9.20416 8.69166L9.64166 7.78749C9.67555 7.71648 9.72885 7.65651 9.7954 7.61453C9.86195 7.57255 9.93902 7.55027 10.0177 7.55027C10.0964 7.55027 10.1735 7.57255 10.24 7.61453C10.3066 7.65651 10.3599 7.71648 10.3937 7.78749L10.8104 8.70207C10.8367 8.76805 10.8793 8.82623 10.9344 8.87107C10.9895 8.91592 11.0551 8.94596 11.125 8.95832L12.1125 9.12082C12.1882 9.13318 12.2591 9.16621 12.3172 9.21627C12.3753 9.26632 12.4185 9.33146 12.442 9.4045C12.4655 9.47754 12.4684 9.55564 12.4503 9.63021C12.4322 9.70477 12.3939 9.77289 12.3396 9.82707L11.5917 10.5625C11.5451 10.6087 11.51 10.6652 11.4894 10.7274C11.4687 10.7897 11.4631 10.856 11.4729 10.9208L11.6333 11.9625C11.6443 12.0402 11.6331 12.1195 11.601 12.1911C11.5689 12.2627 11.5172 12.3238 11.4519 12.3674C11.3866 12.4109 11.3103 12.4351 11.2318 12.4372C11.1533 12.4393 11.0759 12.4192 11.0083 12.3792L10.1646 11.9021C10.1033 11.8685 10.0345 11.8509 9.96458 11.8509C9.89468 11.8509 9.8259 11.8685 9.76458 11.9021L8.90833 12.3604C8.8395 12.3965 8.76194 12.4126 8.68442 12.407C8.6069 12.4013 8.53252 12.3741 8.46967 12.3283C8.40682 12.2826 8.35801 12.2202 8.32876 12.1482C8.29952 12.0762 8.291 11.9974 8.30416 11.9208L8.48541 10.8792C8.49656 10.8151 8.49257 10.7494 8.47375 10.6871C8.45494 10.6249 8.42184 10.568 8.37708 10.5208L7.64583 9.75624C7.59303 9.70091 7.55648 9.63211 7.54019 9.55739C7.52389 9.48267 7.52847 9.40491 7.55342 9.33262C7.57838 9.26033 7.62275 9.1963 7.68168 9.14755C7.7406 9.0988 7.81181 9.06721 7.8875 9.05624L8.87916 8.91665C8.94773 8.90899 9.01332 8.88442 9.07004 8.84515C9.12677 8.80588 9.17285 8.75313 9.20416 8.69166Z" fill="white"/>
<path d="M9.89587 1.64378L17.1313 5.82086V5.98961C17.1298 8.47918 16.4748 10.9248 15.2318 13.0818C13.9888 15.2388 12.2012 17.0318 10.048 18.2813C10.0038 18.3073 9.9534 18.321 9.90212 18.321C9.85083 18.321 9.80048 18.3073 9.75628 18.2813C7.60452 17.0326 5.81797 15.2414 4.57502 13.0863C3.33207 10.9313 2.67622 8.48783 2.67295 6.00003V5.83336L9.89587 1.64378ZM9.89587 1.22711C9.82269 1.22724 9.75083 1.24664 9.68753 1.28336L2.45003 5.46253C2.38706 5.49889 2.3347 5.55109 2.29815 5.61395C2.2616 5.67682 2.24214 5.74815 2.2417 5.82086V5.98961C2.24068 8.55164 2.91396 11.0688 4.1939 13.2882C5.47383 15.5076 7.31533 17.3511 9.53337 18.6334C9.64132 18.6947 9.76336 18.727 9.88753 18.727C10.0117 18.727 10.1337 18.6947 10.2417 18.6334C12.4597 17.3511 14.3012 15.5076 15.5812 13.2882C16.8611 11.0688 17.5344 8.55164 17.5334 5.98961V5.82086C17.5329 5.74815 17.5135 5.67682 17.4769 5.61395C17.4404 5.55109 17.388 5.49889 17.325 5.46253L10.1042 1.28336C10.0409 1.24664 9.96905 1.22724 9.89587 1.22711Z" fill="#3A424A"/>
<path fill-rule="evenodd" clip-rule="evenodd" d="M4.2229 7.02705V6.90205C4.22336 6.84831 4.23758 6.79558 4.26421 6.7489C4.29083 6.70222 4.32897 6.66314 4.37498 6.63538L9.74165 3.54163C9.78831 3.51394 9.84156 3.49933 9.89582 3.49933C9.95007 3.49933 10.0033 3.51394 10.05 3.54163L15.4167 6.63538C15.465 6.66157 15.5056 6.69997 15.5345 6.74676C15.5634 6.79355 15.5795 6.84709 15.5812 6.90205V7.02705C15.5813 8.92777 15.0807 10.795 14.1298 12.4407C13.1789 14.0865 11.8113 15.4528 10.1646 16.402C10.0848 16.4481 9.99422 16.4724 9.90207 16.4724C9.80991 16.4724 9.71938 16.4481 9.63957 16.402C7.99286 15.4528 6.62524 14.0865 5.67435 12.4407C4.72346 10.795 4.22285 8.92777 4.2229 7.02705ZM9.64165 7.78745L9.20415 8.69161C9.17284 8.75309 9.12675 8.80583 9.07003 8.8451C9.0133 8.88438 8.94771 8.90895 8.87915 8.91661L7.88748 9.0562C7.8118 9.06717 7.74059 9.09876 7.68167 9.14751C7.62274 9.19626 7.57837 9.26029 7.55341 9.33258C7.52845 9.40487 7.52387 9.48263 7.54017 9.55735C7.55647 9.63207 7.59302 9.70087 7.64582 9.7562L8.37707 10.5208C8.42182 10.5679 8.45493 10.6249 8.47374 10.6871C8.49255 10.7493 8.49654 10.8151 8.4854 10.8791L8.30415 11.9208C8.29098 11.9974 8.2995 12.0761 8.32875 12.1481C8.358 12.2202 8.4068 12.2826 8.46965 12.3283C8.5325 12.374 8.60689 12.4013 8.68441 12.4069C8.76193 12.4126 8.83948 12.3965 8.90832 12.3604L9.76457 11.902C9.82589 11.8685 9.89467 11.8509 9.96457 11.8509C10.0345 11.8509 10.1032 11.8685 10.1646 11.902L11.0083 12.3791C11.0758 12.4191 11.1533 12.4393 11.2318 12.4372C11.3103 12.4351 11.3865 12.4109 11.4519 12.3673C11.5172 12.3238 11.5689 12.2627 11.601 12.1911C11.6331 12.1194 11.6443 12.0402 11.6333 11.9624L11.4729 10.9208C11.4631 10.8559 11.4687 10.7897 11.4894 10.7274C11.51 10.6651 11.545 10.6086 11.5917 10.5624L12.3396 9.82703C12.3939 9.77285 12.4322 9.70473 12.4503 9.63016C12.4684 9.5556 12.4655 9.4775 12.442 9.40446C12.4185 9.33142 12.3753 9.26628 12.3172 9.21623C12.259 9.16617 12.1882 9.13314 12.1125 9.12078L11.125 8.95828C11.0551 8.94591 10.9895 8.91588 10.9344 8.87103C10.8793 8.82618 10.8367 8.76801 10.8104 8.70203L10.3937 7.78745C10.3598 7.71643 10.3065 7.65647 10.24 7.61449C10.1734 7.57251 10.0964 7.55023 10.0177 7.55023C9.93901 7.55023 9.86193 7.57251 9.79539 7.61449C9.72884 7.65647 9.67554 7.71643 9.64165 7.78745Z" fill="#0067D1"/>
</svg>
