<svg width="20" height="20" viewBox="0 0 20 20" fill="none" xmlns="http://www.w3.org/2000/svg">
<path d="M1.65209 5.88544L9.60833 1.38752C9.73092 1.31795 9.86946 1.28137 10.0104 1.28137C10.1514 1.28137 10.2899 1.31795 10.4125 1.38752L18.3667 5.88544C18.4923 5.95697 18.5967 6.06048 18.6693 6.18544C18.742 6.3104 18.7802 6.45236 18.7802 6.5969C18.7802 6.74144 18.742 6.8834 18.6693 7.00836C18.5967 7.13332 18.4923 7.23683 18.3667 7.30836L10.4167 11.8063C10.2941 11.8758 10.1555 11.9124 10.0146 11.9124C9.87363 11.9124 9.73509 11.8758 9.6125 11.8063L1.65209 7.30836C1.52649 7.23683 1.42206 7.13332 1.34943 7.00836C1.27679 6.8834 1.23853 6.74144 1.23853 6.5969C1.23853 6.45236 1.27679 6.3104 1.34943 6.18544C1.42206 6.06048 1.52649 5.95697 1.65209 5.88544Z" fill="#0067D1"/>
<path fill-rule="evenodd" clip-rule="evenodd" d="M15.8896 13.4125C16.3795 13.4125 16.8584 13.5578 17.2658 13.8299C17.6732 14.1021 17.9906 14.489 18.1781 14.9416C18.3656 15.3943 18.4147 15.8923 18.3191 16.3728C18.2235 16.8533 17.9876 17.2947 17.6412 17.6411C17.2947 17.9876 16.8534 18.2235 16.3729 18.3191C15.8924 18.4146 15.3943 18.3656 14.9417 18.1781C14.489 17.9906 14.1022 17.6731 13.83 17.2658C13.5578 16.8584 13.4125 16.3795 13.4125 15.8896C13.4131 15.2328 13.6742 14.603 14.1387 14.1386C14.6031 13.6742 15.2328 13.413 15.8896 13.4125ZM15.6122 17.4005L17.548 14.8187L17.2146 14.5688L15.567 16.7661L14.5432 15.7423L14.2485 16.0369L15.6122 17.4005Z" fill="white"/>
<path d="M15.8896 13.4125C16.3795 13.4125 16.8584 13.5578 17.2658 13.8299C17.6732 14.1021 17.9906 14.489 18.1781 14.9416C18.3656 15.3943 18.4147 15.8923 18.3191 16.3728C18.2235 16.8533 17.9876 17.2947 17.6412 17.6411C17.2947 17.9876 16.8534 18.2235 16.3729 18.3191C15.8924 18.4146 15.3943 18.3656 14.9417 18.1781C14.489 17.9906 14.1022 17.6731 13.83 17.2658C13.5578 16.8584 13.4125 16.3795 13.4125 15.8896C13.4131 15.2328 13.6742 14.603 14.1387 14.1386C14.6031 13.6742 15.2328 13.413 15.8896 13.4125ZM15.8896 12.9958C15.3172 12.9954 14.7575 13.1648 14.2814 13.4825C13.8052 13.8002 13.434 14.252 13.2146 14.7807C12.9953 15.3095 12.9377 15.8914 13.0491 16.4528C13.1605 17.0143 13.436 17.5301 13.8406 17.935C14.2452 18.3399 14.7608 18.6157 15.3222 18.7276C15.8836 18.8394 16.4655 18.7822 16.9944 18.5632C17.5233 18.3443 17.9754 17.9734 18.2934 17.4975C18.6115 17.0215 18.7813 16.462 18.7813 15.8896C18.7813 15.1225 18.4767 14.3867 17.9344 13.8441C17.3922 13.3015 16.6567 12.9964 15.8896 12.9958Z" fill="#3A424A"/>
<path fill-rule="evenodd" clip-rule="evenodd" d="M17.548 14.8187L15.6122 17.4005L14.2485 16.0369L14.5432 15.7423L15.567 16.7661L17.2146 14.5688L17.548 14.8187Z" fill="#3A424A"/>
<path fill-rule="evenodd" clip-rule="evenodd" d="M2.38563 7.72278L1.65209 8.13747C1.52649 8.209 1.42206 8.31251 1.34943 8.43747C1.27679 8.56243 1.23853 8.70439 1.23853 8.84893C1.23853 8.99347 1.27679 9.13543 1.34943 9.2604C1.42206 9.38536 1.52649 9.48886 1.65209 9.56039L2.3851 9.97479L1.65209 10.3896C1.52649 10.4611 1.42206 10.5646 1.34943 10.6896C1.27679 10.8145 1.23853 10.9565 1.23853 11.101C1.23853 11.2456 1.27679 11.3875 1.34943 11.5125C1.42206 11.6374 1.52649 11.741 1.65209 11.8125L2.38545 12.2271L1.65209 12.6417C1.52649 12.7132 1.42206 12.8167 1.34943 12.9417C1.27679 13.0666 1.23853 13.2086 1.23853 13.3531C1.23853 13.4977 1.27679 13.6396 1.34943 13.7646C1.42206 13.8895 1.52649 13.9931 1.65209 14.0646L9.60834 18.5625C9.73092 18.6321 9.86946 18.6686 10.0104 18.6686C10.1514 18.6686 10.2899 18.6321 10.4125 18.5625L13.2078 16.9818C13.1545 16.851 13.1107 16.716 13.0769 16.5779L10.2083 18.2C10.1485 18.2337 10.0811 18.2516 10.0125 18.2521C9.94323 18.2514 9.8752 18.2335 9.81459 18.2L1.85834 13.7021C1.79632 13.6673 1.74468 13.6167 1.70874 13.5553C1.6728 13.494 1.65386 13.4242 1.65386 13.3531C1.65386 13.282 1.6728 13.2122 1.70874 13.1509C1.74468 13.0896 1.79632 13.0389 1.85834 13.0042L2.80905 12.4666L9.60834 16.3104C9.73092 16.38 9.86946 16.4166 10.0104 16.4166C10.1514 16.4166 10.2899 16.38 10.4125 16.3104L13.2459 14.7082C13.3701 14.4306 13.5366 14.1755 13.7385 13.9517L10.2083 15.9479C10.1489 15.9825 10.0813 16.0005 10.0125 16C9.94308 16.0005 9.87478 15.9825 9.81459 15.9479L3.22663 12.2304L4.80063 11.3404L9.60834 14.0583C9.73092 14.1279 9.86946 14.1645 10.0104 14.1645C10.1514 14.1645 10.2899 14.1279 10.4125 14.0583L15.2192 11.3402L16.7881 12.2272L15.3346 13.0491C15.5166 13.0137 15.7024 12.9957 15.8896 12.9958C16.0062 12.9959 16.1221 13.003 16.2367 13.0169L17.2108 12.4661L18.1625 13.0042C18.224 13.0394 18.2751 13.0902 18.3106 13.1514C18.3461 13.2127 18.3648 13.2823 18.3648 13.3531C18.3648 13.424 18.3461 13.4935 18.3106 13.5548C18.2751 13.6161 18.224 13.6669 18.1625 13.7021L17.9261 13.8358L17.9344 13.8441C18.0324 13.9422 18.1227 14.0465 18.2047 14.1562L18.3667 14.0646C18.4923 13.9931 18.5967 13.8895 18.6693 13.7646C18.742 13.6396 18.7802 13.4977 18.7802 13.3531C18.7802 13.2086 18.742 13.0666 18.6693 12.9417C18.5967 12.8167 18.4923 12.7132 18.3667 12.6417L17.6337 12.227L18.3667 11.8125C18.4923 11.741 18.5967 11.6374 18.6693 11.5125C18.742 11.3875 18.7802 11.2456 18.7802 11.101C18.7802 10.9565 18.742 10.8145 18.6693 10.6896C18.5967 10.5646 18.4923 10.4611 18.3667 10.3896L17.6337 9.97487L18.3667 9.56039C18.4923 9.48886 18.5967 9.38536 18.6693 9.2604C18.742 9.13543 18.7802 8.99347 18.7802 8.84893C18.7802 8.70439 18.742 8.56243 18.6693 8.43747C18.5967 8.31251 18.4923 8.209 18.3667 8.13747L17.6339 7.72289L17.2102 7.9626L18.1625 8.49997C18.224 8.53516 18.2751 8.58597 18.3106 8.64725C18.3461 8.70852 18.3648 8.7781 18.3648 8.84893C18.3648 8.91977 18.3461 8.98934 18.3106 9.05062C18.2751 9.1119 18.224 9.1627 18.1625 9.19789L17.2112 9.73583L15.6436 8.84893L15.2218 9.0876L16.7889 9.97462L15.2204 10.8616L13.6533 9.97498L13.229 10.2151L14.7965 11.1013L10.2083 13.6958C10.1489 13.7304 10.0813 13.7484 10.0125 13.7479C9.94308 13.7484 9.87478 13.7304 9.81459 13.6958L5.22431 11.1008L6.79355 10.2134L6.37035 9.97428L4.80101 10.8615L3.23818 9.97796L4.80472 9.08965L4.37672 8.84782L2.80864 9.73513L1.85834 9.19789C1.79632 9.16314 1.74468 9.11249 1.70874 9.05116C1.6728 8.98983 1.65386 8.92002 1.65386 8.84893C1.65386 8.77784 1.6728 8.70804 1.70874 8.6467C1.74468 8.58537 1.79632 8.53472 1.85834 8.49997L2.80935 7.96219L2.38563 7.72278ZM17.2113 10.2137L15.6429 11.1006L17.2112 11.9879L18.1625 11.45C18.224 11.4148 18.2751 11.364 18.3106 11.3027C18.3461 11.2414 18.3648 11.1719 18.3648 11.101C18.3648 11.0302 18.3461 10.9606 18.3106 10.8993C18.2751 10.8381 18.224 10.7873 18.1625 10.7521L17.2113 10.2137ZM2.81509 10.2179L4.37728 11.101L2.80268 11.9912L1.85834 11.4583C1.79632 11.4236 1.74468 11.3729 1.70874 11.3116C1.6728 11.2503 1.65386 11.1804 1.65386 11.1094C1.65386 11.0383 1.6728 10.9685 1.70874 10.9071C1.74468 10.8458 1.79632 10.7951 1.85834 10.7604L2.81509 10.2179Z" fill="#3A424A"/>
</svg>
