<svg width="20" height="20" viewBox="0 0 20 20" fill="none" xmlns="http://www.w3.org/2000/svg">
<path d="M16.9917 1.66667V18.3333H3.00417V1.66667H16.9917Z" fill="white"/>
<path fill-rule="evenodd" clip-rule="evenodd" d="M16.9917 18.3333V1.66667H3.00417V18.3333H16.9917ZM4.46252 4.03542H6.8771C7.11988 4.03542 7.31669 4.23222 7.31669 4.475V6.88958C7.31669 7.13236 7.11988 7.32917 6.8771 7.32917H4.46252C4.21975 7.32917 4.02294 7.13236 4.02294 6.88958V4.475C4.02294 4.23222 4.21975 4.03542 4.46252 4.03542ZM4.46252 12.6812H6.8771C7.11988 12.6812 7.31669 12.8781 7.31669 13.1208V15.5354C7.31669 15.7782 7.11988 15.975 6.8771 15.975H4.46252C4.21975 15.975 4.02294 15.7782 4.02294 15.5354V13.1208C4.02294 12.8781 4.21975 12.6812 4.46252 12.6812ZM6.8771 8.35833H4.46252C4.21975 8.35833 4.02294 8.55514 4.02294 8.79792V11.2125C4.02294 11.4553 4.21975 11.6521 4.46252 11.6521H6.8771C7.11988 11.6521 7.31669 11.4553 7.31669 11.2125V8.79792C7.31669 8.55514 7.11988 8.35833 6.8771 8.35833ZM15.8667 5.88542H7.83753V5.46875H15.8667V5.88542ZM15.8667 10.2083H7.83753V9.79167H15.8667V10.2083ZM7.83753 14.5312H15.8667V14.1146H7.83753V14.5312Z" fill="white"/>
<path d="M16.9917 1.66667V18.3333H3.00417V1.66667H16.9917ZM16.9917 1.25H3.00834C2.89783 1.25 2.79185 1.2939 2.71371 1.37204C2.63557 1.45018 2.59167 1.55616 2.59167 1.66667V18.3333C2.59167 18.4438 2.63557 18.5498 2.71371 18.628C2.79185 18.7061 2.89783 18.75 3.00834 18.75H16.9917C17.1022 18.75 17.2082 18.7061 17.2863 18.628C17.3644 18.5498 17.4083 18.4438 17.4083 18.3333V1.66667C17.4083 1.55616 17.3644 1.45018 17.2863 1.37204C17.2082 1.2939 17.1022 1.25 16.9917 1.25Z" fill="#3A424A"/>
<path fill-rule="evenodd" clip-rule="evenodd" d="M15.8667 5.88542H7.83753V5.46875H15.8667V5.88542Z" fill="#3A424A"/>
<path fill-rule="evenodd" clip-rule="evenodd" d="M15.8667 10.2083H7.83753V9.79167H15.8667V10.2083Z" fill="#3A424A"/>
<path fill-rule="evenodd" clip-rule="evenodd" d="M15.8667 14.5312H7.83753V14.1146H15.8667V14.5312Z" fill="#3A424A"/>
<path fill-rule="evenodd" clip-rule="evenodd" d="M6.74989 5.07932L5.50989 6.72951L4.60894 5.82856L4.90357 5.53394L5.46512 6.09549L6.41679 4.82901L6.74989 5.07932Z" fill="#3A424A"/>
<path fill-rule="evenodd" clip-rule="evenodd" d="M6.74989 9.39807L5.50989 11.0483L4.60894 10.1473L4.90357 9.85269L5.46512 10.4142L6.41679 9.14776L6.74989 9.39807Z" fill="#3A424A"/>
<path fill-rule="evenodd" clip-rule="evenodd" d="M6.74989 13.7252L5.5101 15.3751L4.60915 14.4767L4.90336 14.1816L5.46492 14.7416L6.41679 13.4748L6.74989 13.7252Z" fill="#3A424A"/>
<path fill-rule="evenodd" clip-rule="evenodd" d="M6.87712 4.0354H4.46253C4.21976 4.0354 4.02295 4.23221 4.02295 4.47498V6.88957C4.02295 7.13234 4.21976 7.32915 4.46253 7.32915H6.87712C7.11989 7.32915 7.3167 7.13234 7.3167 6.88957V4.47498C7.3167 4.23221 7.11989 4.0354 6.87712 4.0354ZM6.74989 5.0793L5.50989 6.72949L4.60894 5.82855L4.90357 5.53392L5.46512 6.09547L6.41678 4.829L6.74989 5.0793Z" fill="#0067D1"/>
<path fill-rule="evenodd" clip-rule="evenodd" d="M6.87712 12.6812H4.46253C4.21976 12.6812 4.02295 12.878 4.02295 13.1208V15.5354C4.02295 15.7782 4.21976 15.975 4.46253 15.975H6.87712C7.11989 15.975 7.3167 15.7782 7.3167 15.5354V13.1208C7.3167 12.878 7.11989 12.6812 6.87712 12.6812ZM5.51009 15.3751L6.74989 13.7251L6.41678 13.4748L5.46491 14.7416L4.90336 14.1816L4.60915 14.4767L5.51009 15.3751Z" fill="#0067D1"/>
<path fill-rule="evenodd" clip-rule="evenodd" d="M4.46253 8.35832H6.87712C7.11989 8.35832 7.3167 8.55512 7.3167 8.7979V11.2125C7.3167 11.4553 7.11989 11.6521 6.87712 11.6521H4.46253C4.21976 11.6521 4.02295 11.4553 4.02295 11.2125V8.7979C4.02295 8.55512 4.21976 8.35832 4.46253 8.35832ZM6.74989 9.39805L5.50989 11.0482L4.60894 10.1473L4.90357 9.85267L5.46512 10.4142L6.41678 9.14775L6.74989 9.39805Z" fill="#0067D1"/>
</svg>
