<svg width="20" height="20" viewBox="0 0 20 20" fill="none" xmlns="http://www.w3.org/2000/svg">
<path fill-rule="evenodd" clip-rule="evenodd" d="M18.75 10C18.75 14.8325 14.8325 18.75 10 18.75C5.16751 18.75 1.25 14.8325 1.25 10C1.25 5.16751 5.16751 1.25 10 1.25C14.8325 1.25 18.75 5.16751 18.75 10ZM7.95362 4.16902C9.33002 3.68624 10.8329 3.7061 12.196 4.2251C13.5592 4.74409 14.6947 5.72874 15.4016 7.00467C16.1084 8.28059 16.3409 9.76548 16.0579 11.1964C15.796 12.5204 15.1085 13.7191 14.1047 14.6123L14.2833 12.8042L13.8687 12.7646L13.6229 15.2542L16.125 15.3188L16.1354 14.9L14.4532 14.8591C15.4858 13.9127 16.1934 12.6589 16.4666 11.2772C16.7687 9.7498 16.5205 8.16475 15.766 6.80276C15.0115 5.44076 13.7994 4.3897 12.3443 3.8357C10.8892 3.28169 9.28495 3.26049 7.8157 3.77584C6.34645 4.29119 5.10697 5.30985 4.31674 6.65143C3.52652 7.993 3.23653 9.57094 3.49814 11.1058C3.75975 12.6407 4.55607 14.0335 5.7461 15.0375C6.93612 16.0416 8.44306 16.5921 10.0001 16.5917L9.99995 16.175C8.54133 16.1754 7.12961 15.6597 6.01479 14.7191C4.89996 13.7785 4.15396 12.4737 3.90888 11.0358C3.66381 9.59792 3.93547 8.1197 4.67576 6.8629C5.41605 5.60609 6.57721 4.65181 7.95362 4.16902Z" fill="#0067D1"/>
<path d="M12.1961 4.22509C10.8329 3.70609 9.33005 3.68623 7.95365 4.16901C6.57724 4.6518 5.41608 5.60608 4.67579 6.86289C3.9355 8.11969 3.66384 9.59791 3.90892 11.0358C4.15399 12.4737 4.9 13.7785 6.01482 14.7191C7.12964 15.6597 8.54136 16.1754 9.99998 16.175L10.0001 16.5917C8.44309 16.5921 6.93615 16.0416 5.74613 15.0375C4.5561 14.0335 3.75978 12.6407 3.49817 11.1058C3.23656 9.57093 3.52655 7.99299 4.31677 6.65142C5.107 5.30984 6.34648 4.29118 7.81573 3.77583C9.28499 3.26048 10.8892 3.28168 12.3443 3.83569C13.7994 4.38969 15.0116 5.44075 15.7661 6.80275C16.5206 8.16474 16.7687 9.74979 16.4666 11.2772C16.1934 12.6589 15.4859 13.9127 14.4532 14.859L16.1354 14.9L16.125 15.3187L13.6229 15.2542L13.8688 12.7646L14.2833 12.8042L14.1047 14.6123C15.1085 13.7191 15.796 12.5203 16.0579 11.1964C16.3409 9.76547 16.1084 8.28058 15.4016 7.00466C14.6948 5.72873 13.5592 4.74408 12.1961 4.22509Z" fill="#3A424A"/>
</svg>
