<svg width="20" height="20" viewBox="0 0 20 20" fill="none" xmlns="http://www.w3.org/2000/svg">
<path fill-rule="evenodd" clip-rule="evenodd" d="M1.14587 17.25V5.14172H18.8542V17.25C18.8542 17.8311 18.3832 18.3021 17.8021 18.3021H2.19796C1.61691 18.3021 1.14587 17.8311 1.14587 17.25ZM7.83873 6.6445C10.4739 5.55297 13.495 6.80435 14.5866 9.43955C15.6781 12.0748 14.4267 15.0959 11.7915 16.1874C9.15633 17.2789 6.13521 16.0276 5.04367 13.3924C3.95214 10.7572 5.20352 7.73604 7.83873 6.6445Z" fill="#0067D1"/>
<path fill-rule="evenodd" clip-rule="evenodd" d="M18.3938 2.11668C18.3994 2.1164 18.4051 2.11726 18.4104 2.11923C18.4157 2.1212 18.4205 2.12422 18.4246 2.12812C18.4287 2.13202 18.432 2.13671 18.4342 2.1419C18.4364 2.1471 18.4375 2.15269 18.4375 2.15835V4.72501H1.56254V2.15835C1.56253 2.15269 1.56368 2.1471 1.5659 2.1419C1.56812 2.13671 1.57138 2.13202 1.57547 2.12812C1.57956 2.12422 1.58441 2.1212 1.58971 2.11923C1.595 2.11726 1.60065 2.1164 1.60629 2.11668H18.3938ZM2.74379 3.91251C3.01533 3.91251 3.23546 3.69239 3.23546 3.42085C3.23546 3.14931 3.01533 2.92918 2.74379 2.92918C2.47225 2.92918 2.25212 3.14931 2.25212 3.42085C2.25212 3.69239 2.47225 3.91251 2.74379 3.91251ZM4.22087 3.91251C4.49241 3.91251 4.71254 3.69239 4.71254 3.42085C4.71254 3.14931 4.49241 2.92918 4.22087 2.92918C3.94933 2.92918 3.72921 3.14931 3.72921 3.42085C3.72921 3.69239 3.94933 3.91251 4.22087 3.91251ZM6.18754 3.42085C6.18754 3.69239 5.96741 3.91251 5.69587 3.91251C5.42433 3.91251 5.20421 3.69239 5.20421 3.42085C5.20421 3.14931 5.42433 2.92918 5.69587 2.92918C5.96741 2.92918 6.18754 3.14931 6.18754 3.42085Z" fill="white"/>
<path fill-rule="evenodd" clip-rule="evenodd" d="M7.83872 6.64449C10.4739 5.55296 13.495 6.80435 14.5866 9.43955C15.6781 12.0747 14.4267 15.0959 11.7915 16.1874C9.15632 17.2789 6.13521 16.0275 5.04367 13.3923C3.95214 10.7571 5.20352 7.73603 7.83872 6.64449ZM12.8507 10.6276C12.8507 10.9846 12.6829 11.2606 12.3854 11.4337C12.7803 11.6122 13.0022 11.9369 13.0022 12.3589C13.0022 13.0406 12.4232 13.5221 11.563 13.5221C10.6324 13.5221 10.0318 12.9649 10.1671 12.1316H10.8434C10.746 12.624 11.0598 12.9486 11.5684 12.9486C12.0175 12.9486 12.3313 12.7106 12.3313 12.3372C12.3313 11.9585 12.0066 11.7096 11.5251 11.7096H11.1951V11.1902H11.5251C11.9147 11.1902 12.1798 10.9955 12.1798 10.66C12.1798 10.3462 11.9363 10.1568 11.5576 10.1568C11.1247 10.1568 10.8542 10.4165 10.9462 10.8223H10.2969C10.14 10.1027 10.7244 9.58334 11.5684 9.58334C12.3313 9.58334 12.8507 10.0054 12.8507 10.6276ZM7.5061 9.65909C7.34378 10.1731 6.86226 10.5789 6.31581 10.6546V11.2498C6.78651 11.1848 7.20311 10.963 7.5061 10.5843V13.4464H8.16076V9.65909H7.5061ZM9.25146 13.5059C9.50034 13.5059 9.68971 13.3165 9.68971 13.0677C9.68971 12.8188 9.50034 12.6348 9.25146 12.6348C9.00258 12.6348 8.81322 12.8188 8.81322 13.0677C8.81322 13.3165 9.00258 13.5059 9.25146 13.5059Z" fill="white"/>
<path d="M2.74379 3.91245C3.01533 3.91245 3.23546 3.69232 3.23546 3.42078C3.23546 3.14924 3.01533 2.92912 2.74379 2.92912C2.47225 2.92912 2.25212 3.14924 2.25212 3.42078C2.25212 3.69232 2.47225 3.91245 2.74379 3.91245Z" fill="#3A424A"/>
<path d="M4.22087 3.91245C4.49241 3.91245 4.71254 3.69232 4.71254 3.42078C4.71254 3.14924 4.49241 2.92912 4.22087 2.92912C3.94933 2.92912 3.72921 3.14924 3.72921 3.42078C3.72921 3.69232 3.94933 3.91245 4.22087 3.91245Z" fill="#3A424A"/>
<path d="M5.69587 3.91245C5.96741 3.91245 6.18754 3.69232 6.18754 3.42078C6.18754 3.14924 5.96741 2.92912 5.69587 2.92912C5.42433 2.92912 5.20421 3.14924 5.20421 3.42078C5.20421 3.69232 5.42433 3.91245 5.69587 3.91245Z" fill="#3A424A"/>
<path d="M18.3938 2.11662C18.3994 2.11634 18.4051 2.1172 18.4104 2.11917C18.4157 2.12114 18.4205 2.12416 18.4246 2.12806C18.4287 2.13196 18.432 2.13665 18.4342 2.14184C18.4364 2.14704 18.4375 2.15263 18.4375 2.15828V4.72495H1.56254V2.15828C1.56253 2.15263 1.56368 2.14704 1.5659 2.14184C1.56812 2.13665 1.57138 2.13196 1.57547 2.12806C1.57956 2.12416 1.58441 2.12114 1.58971 2.11917C1.595 2.1172 1.60065 2.11634 1.60629 2.11662H18.3938ZM18.3938 1.69995H1.60629C1.48454 1.69995 1.36775 1.74817 1.28146 1.83407C1.19518 1.91996 1.14642 2.03654 1.14587 2.15828V5.14162H18.8542V2.15828C18.8537 2.03654 18.8049 1.91996 18.7186 1.83407C18.6323 1.74817 18.5155 1.69995 18.3938 1.69995Z" fill="#3A424A"/>
<path d="M7.5061 9.65903C7.34378 10.173 6.86226 10.5788 6.31581 10.6545V11.2497C6.78651 11.1848 7.20311 10.9629 7.5061 10.5842V13.4463H8.16076V9.65903H7.5061Z" fill="#3A424A"/>
<path d="M9.25146 13.5058C9.50034 13.5058 9.68971 13.3165 9.68971 13.0676C9.68971 12.8187 9.50034 12.6348 9.25146 12.6348C9.00258 12.6348 8.81322 12.8187 8.81322 13.0676C8.81322 13.3165 9.00258 13.5058 9.25146 13.5058Z" fill="#3A424A"/>
<path d="M12.3854 11.4336C12.6829 11.2605 12.8507 10.9846 12.8507 10.6275C12.8507 10.0053 12.3313 9.58328 11.5684 9.58328C10.7244 9.58328 10.14 10.1027 10.2969 10.8223H10.9462C10.8542 10.4165 11.1247 10.1568 11.5576 10.1568C11.9363 10.1568 12.1798 10.3462 12.1798 10.66C12.1798 10.9954 11.9147 11.1902 11.5251 11.1902H11.1951V11.7096H11.5251C12.0066 11.7096 12.3313 11.9585 12.3313 12.3372C12.3313 12.7105 12.0175 12.9486 11.5684 12.9486C11.0598 12.9486 10.746 12.6239 10.8434 12.1316H10.1671C10.0318 12.9648 10.6324 13.5221 11.563 13.5221C12.4232 13.5221 13.0022 13.0405 13.0022 12.3588C13.0022 11.9368 12.7803 11.6122 12.3854 11.4336Z" fill="#3A424A"/>
</svg>
