<svg width="20" height="20" viewBox="0 0 20 20" fill="none" xmlns="http://www.w3.org/2000/svg">
<path d="M10.1063 9.125H13.6729C13.9465 9.13225 14.2189 9.08554 14.4744 8.98754C14.7299 8.88954 14.9637 8.74217 15.1622 8.55384C15.3608 8.36551 15.5204 8.13991 15.6318 7.88993C15.7432 7.63994 15.8042 7.37046 15.8115 7.09687C15.8187 6.82328 15.772 6.55095 15.674 6.29541C15.576 6.03988 15.4286 5.80614 15.2403 5.60756C15.052 5.40898 14.8264 5.24944 14.5764 5.13804C14.3264 5.02665 14.0569 4.96558 13.7834 4.95833C13.7314 4.12668 13.4184 3.33263 12.8888 2.6893C12.3592 2.04596 11.6401 1.58615 10.834 1.37537C10.0278 1.1646 9.17569 1.2136 8.399 1.51541C7.62231 1.81722 6.96068 2.35644 6.50835 3.05625C5.78959 3.2283 5.15669 3.65313 4.72522 4.25317C4.29375 4.85321 4.09249 5.58842 4.15819 6.32456C4.2239 7.0607 4.55218 7.74864 5.0831 8.26279C5.61402 8.77693 6.31215 9.08296 7.05002 9.125H9.68962V5.92625L8.49796 7.20834L8.1938 6.92293L9.89796 5.08959L11.6021 6.92293L11.2959 7.20834L10.1063 5.92656V9.125Z" fill="#0067D1"/>
<path fill-rule="evenodd" clip-rule="evenodd" d="M10.7037 14.8051C10.4899 14.9481 10.2385 15.0244 9.98127 15.0244C9.81065 15.0246 9.64165 14.9913 9.48394 14.9262C9.32622 14.8611 9.1829 14.7655 9.06215 14.645C8.94141 14.5244 8.84562 14.3812 8.78026 14.2236C8.71491 14.066 8.68127 13.8971 8.68127 13.7265C8.68085 13.4692 8.75675 13.2177 8.89934 13.0036C9.04194 12.7896 9.24483 12.6226 9.48233 12.5239C9.71984 12.4252 9.98129 12.3992 10.2336 12.4491C10.4859 12.499 10.7177 12.6227 10.8998 12.8044C11.0818 12.9861 11.2058 13.2178 11.2561 13.47C11.3065 13.7222 11.2808 13.9837 11.1825 14.2214C11.0842 14.459 10.9176 14.6622 10.7037 14.8051Z" fill="#0067D1"/>
<path d="M8.02558 14.9003L7.05607 16.6895C7.05093 16.6992 7.04809 16.71 7.04779 16.721C7.04748 16.732 7.04972 16.7429 7.05431 16.7528C7.05891 16.7628 7.06575 16.7716 7.07429 16.7785C7.08283 16.7854 7.09286 16.7902 7.10357 16.7926C7.11629 16.7951 7.12943 16.7943 7.14173 16.7902L8.43491 16.3684C8.44784 16.3688 8.46057 16.3718 8.47237 16.3771C8.48422 16.38 8.49513 16.3859 8.50406 16.3942C8.51299 16.4026 8.51963 16.413 8.52336 16.4247L8.97291 17.8089C8.9763 17.8207 8.98284 17.8313 8.99182 17.8397C9.00081 17.8481 9.0119 17.8538 9.02391 17.8564C9.03931 17.8601 9.05551 17.8586 9.06996 17.852C9.0844 17.8455 9.09626 17.8344 9.10368 17.8204L9.99648 16.1716L10.8937 17.7138C10.9013 17.7278 10.9134 17.7387 10.9281 17.7448C10.9429 17.7509 10.9592 17.7518 10.9745 17.7473C10.9863 17.744 10.997 17.7378 11.0057 17.7292C11.0143 17.7206 11.0206 17.71 11.024 17.6982L11.431 16.3009C11.4343 16.2892 11.4407 16.2785 11.4493 16.2699C11.458 16.2613 11.4687 16.2551 11.4805 16.2518C11.4915 16.2462 11.5035 16.243 11.5159 16.2425L12.8231 16.624C12.8355 16.6282 12.8488 16.6286 12.8614 16.6253C12.872 16.6225 12.8819 16.6174 12.8902 16.6102C12.8985 16.6031 12.9051 16.5941 12.9094 16.584C12.9137 16.5739 12.9156 16.5629 12.9149 16.5519C12.9143 16.541 12.9111 16.5303 12.9057 16.5208L11.9486 14.8736C11.9249 14.9143 11.8999 14.9543 11.8737 14.9935C11.6229 15.3685 11.2664 15.6606 10.8495 15.8329C10.4325 16.0051 9.97381 16.0498 9.53147 15.9612C9.08913 15.8726 8.68304 15.6547 8.36463 15.3351C8.23374 15.2037 8.12009 15.0576 8.02558 14.9003Z" fill="#0067D1"/>
<path fill-rule="evenodd" clip-rule="evenodd" d="M16.1563 10.9292V18.3125H3.84379V10.9292H16.1563ZM8.71903 11.8273C9.09493 11.5779 9.53641 11.4456 9.98753 11.4473H9.98128C10.5854 11.4478 11.1646 11.6882 11.5916 12.1156C12.0185 12.5429 12.2584 13.1223 12.2584 13.7264C12.2584 14.1303 12.1511 14.5261 11.9486 14.8736L12.9057 16.5208C12.9111 16.5303 12.9143 16.541 12.9149 16.5519C12.9156 16.5629 12.9137 16.5739 12.9094 16.584C12.9051 16.5941 12.8985 16.6031 12.8902 16.6102C12.8819 16.6174 12.872 16.6226 12.8614 16.6253C12.8488 16.6286 12.8355 16.6282 12.8232 16.624L11.5159 16.2425C11.5036 16.243 11.4915 16.2462 11.4805 16.2519C11.4687 16.2551 11.458 16.2613 11.4493 16.2699C11.4407 16.2785 11.4344 16.2892 11.431 16.3009L11.024 17.6982C11.0207 17.71 11.0143 17.7206 11.0057 17.7292C10.997 17.7378 10.9863 17.7441 10.9745 17.7473C10.9592 17.7518 10.9429 17.751 10.9282 17.7448C10.9134 17.7387 10.9013 17.7278 10.8937 17.7138L9.99649 16.1716L9.10369 17.8204C9.09627 17.8344 9.08441 17.8455 9.06997 17.8521C9.05552 17.8586 9.03932 17.8601 9.02392 17.8564C9.01191 17.8538 9.00082 17.8481 8.99183 17.8397C8.98285 17.8313 8.97631 17.8207 8.97292 17.8089L8.52337 16.4247C8.51965 16.413 8.513 16.4026 8.50407 16.3942C8.49514 16.3859 8.48423 16.38 8.47238 16.3771C8.46058 16.3718 8.44786 16.3689 8.43492 16.3684L7.14174 16.7902C7.12944 16.7943 7.1163 16.7952 7.10359 16.7927C7.09287 16.7903 7.08284 16.7854 7.0743 16.7785C7.06576 16.7716 7.05892 16.7628 7.05432 16.7529C7.04973 16.7429 7.04749 16.732 7.0478 16.721C7.0481 16.71 7.05094 16.6992 7.05608 16.6895L8.02559 14.9003C7.89018 14.6749 7.79405 14.4266 7.74282 14.1659C7.65582 13.7233 7.70214 13.2648 7.87593 12.8484C8.04971 12.4321 8.34313 12.0768 8.71903 11.8273Z" fill="white"/>
<path d="M11.2959 7.20835L11.6021 6.92293L9.89797 5.0896L8.19381 6.92293L8.49797 7.20835L9.68963 5.92626V9.91121H10.1063V5.92656L11.2959 7.20835Z" fill="#3A424A"/>
<path d="M16.1563 10.9292V18.3125H3.84379V10.9292H16.1563ZM16.3063 10.5125H3.69379C3.62307 10.5125 3.55524 10.5406 3.50523 10.5906C3.45522 10.6406 3.42712 10.7084 3.42712 10.7792V18.4625C3.42712 18.5332 3.45522 18.6011 3.50523 18.6511C3.55524 18.7011 3.62307 18.7292 3.69379 18.7292H16.3063C16.377 18.7292 16.4448 18.7011 16.4949 18.6511C16.5449 18.6011 16.573 18.5332 16.573 18.4625V10.7792C16.573 10.7084 16.5449 10.6406 16.4949 10.5906C16.4448 10.5406 16.377 10.5125 16.3063 10.5125Z" fill="#3A424A"/>
<path d="M9.98129 11.8639C10.3499 11.8627 10.7106 11.9709 11.0177 12.1748C11.3248 12.3787 11.5645 12.6691 11.7065 13.0093C11.8484 13.3495 11.8862 13.7242 11.815 14.0859C11.7439 14.4476 11.567 14.7801 11.3067 15.0412C11.0465 15.3023 10.7147 15.4803 10.3532 15.5527C9.99174 15.625 9.61694 15.5885 9.27624 15.4477C8.93555 15.3069 8.6443 15.0682 8.43937 14.7618C8.23444 14.4554 8.12504 14.095 8.12504 13.7264C8.12504 13.2324 8.32127 12.7587 8.67055 12.4094C9.01984 12.0601 9.49357 11.8639 9.98754 11.8639M9.98753 11.4473C9.53641 11.4456 9.09493 11.5779 8.71903 11.8273C8.34313 12.0768 8.04971 12.4321 7.87593 12.8484C7.70214 13.2648 7.65582 13.7233 7.74282 14.1659C7.82981 14.6086 8.04622 15.0155 8.36464 15.3351C8.68305 15.6547 9.08914 15.8726 9.53148 15.9612C9.97382 16.0498 10.4325 16.0052 10.8495 15.8329C11.2664 15.6606 11.6229 15.3685 11.8737 14.9935C12.1245 14.6185 12.2584 14.1776 12.2584 13.7264C12.2584 13.1223 12.0185 12.5429 11.5916 12.1156C11.1646 11.6882 10.5854 11.4478 9.98128 11.4473H9.98753Z" fill="#3A424A"/>
<path fill-rule="evenodd" clip-rule="evenodd" d="M10.7913 13.3415L9.87623 14.5534L9.19651 13.8737L9.49114 13.5791L9.83226 13.9202L10.4588 13.0905L10.7913 13.3415Z" fill="#3A424A"/>
</svg>
