<svg width="20" height="20" viewBox="0 0 20 20" fill="none" xmlns="http://www.w3.org/2000/svg">
<path fill-rule="evenodd" clip-rule="evenodd" d="M6.88848 3.30219C6.48181 3.03046 6.0037 2.88543 5.51461 2.88543C4.85892 2.88598 4.23024 3.14669 3.7666 3.61034C3.30296 4.07398 3.04224 4.70265 3.04169 5.35834C3.04169 5.84744 3.18672 6.32555 3.45845 6.73222C3.73018 7.13889 4.11639 7.45585 4.56826 7.64302C5.02013 7.83019 5.51735 7.87916 5.99705 7.78374C6.47675 7.68833 6.91738 7.4528 7.26322 7.10696C7.60907 6.76112 7.84459 6.32049 7.94 5.84079C8.03542 5.36109 7.98645 4.86387 7.79928 4.412C7.61211 3.96013 7.29515 3.57392 6.88848 3.30219ZM6.43092 6.72734C6.1596 6.90825 5.8407 7.0046 5.5146 7.00419C5.07827 7.00364 4.65996 6.83006 4.35143 6.52153C4.04289 6.213 3.86932 5.79469 3.86877 5.35836C3.86835 5.03225 3.9647 4.71336 4.14562 4.44204C4.32654 4.17072 4.58389 3.95918 4.88509 3.8342C5.18629 3.70921 5.5178 3.6764 5.83766 3.73992C6.15752 3.80344 6.45134 3.96043 6.68193 4.19102C6.91253 4.42161 7.06952 4.71544 7.13304 5.03529C7.19655 5.35515 7.16374 5.68667 7.03876 5.98787C6.91377 6.28907 6.70223 6.54642 6.43092 6.72734Z" fill="white"/>
<path fill-rule="evenodd" clip-rule="evenodd" d="M8.12505 12.3469V10.9563C8.12505 10.7733 8.27336 10.625 8.4563 10.625H9.48125V1.65002H1.66667V12.3521L8.12505 12.3469ZM3.90924 2.95574C4.38443 2.63823 4.9431 2.46876 5.51461 2.46876C5.89407 2.46876 6.26982 2.5435 6.6204 2.68872C6.97098 2.83393 7.28953 3.04678 7.55785 3.3151C7.82617 3.58342 8.03902 3.90197 8.18423 4.25255C8.32945 4.60313 8.40419 4.97888 8.40419 5.35834C8.40419 5.85345 8.277 6.33892 8.03655 6.76883L9.25967 9.3545C9.26566 9.36651 9.26877 9.37975 9.26873 9.39317C9.2687 9.40659 9.26553 9.41982 9.25948 9.43179C9.25343 9.44377 9.24466 9.45417 9.23388 9.46216C9.22309 9.47015 9.21059 9.47551 9.19737 9.47781C9.18158 9.48092 9.16522 9.47944 9.15024 9.47356L7.60553 8.87474C7.59054 8.86886 7.57419 8.86739 7.55839 8.8705C7.54378 8.87327 7.53011 8.8797 7.51867 8.88919C7.50722 8.89868 7.49837 8.91093 7.49294 8.92477L6.87187 10.5769C6.86633 10.591 6.85723 10.6034 6.84546 10.613C6.83369 10.6226 6.81964 10.6289 6.80468 10.6314C6.78616 10.6346 6.76712 10.6316 6.75046 10.6229C6.7338 10.6142 6.72044 10.6003 6.71241 10.5833L5.66664 8.38974L4.64533 10.6213C4.63843 10.637 4.62701 10.6503 4.61253 10.6594C4.59805 10.6686 4.58116 10.6732 4.56404 10.6727C4.54691 10.6722 4.53031 10.6666 4.51638 10.6567C4.50244 10.6467 4.4918 10.6328 4.4858 10.6168L3.82713 8.97122C3.82168 8.95735 3.81273 8.94513 3.80114 8.93576C3.78955 8.92639 3.77573 8.92018 3.76103 8.91775C3.7452 8.91483 3.72886 8.9165 3.71395 8.92257L2.17661 9.54005C2.16227 9.54597 2.14655 9.54774 2.13126 9.54515C2.118 9.54292 2.10543 9.53767 2.09451 9.52982C2.08359 9.52196 2.07463 9.51171 2.0683 9.49984C2.06197 9.48798 2.05844 9.47482 2.058 9.46138C2.05756 9.44794 2.0602 9.43458 2.06574 9.42232L3.16095 7.03466C2.92502 6.70339 2.76059 6.3245 2.68054 5.92207C2.56905 5.36155 2.62627 4.78055 2.84498 4.25255C3.06368 3.72455 3.43405 3.27325 3.90924 2.95574Z" fill="white"/>
<path d="M13.5886 15.8156C14.1461 15.74 14.5759 15.2621 14.5759 14.6838C14.5759 14.053 14.0646 13.5417 13.4338 13.5417C12.803 13.5417 12.2917 14.053 12.2917 14.6838C12.2917 15.2621 12.7215 15.74 13.279 15.8156L12.933 16.4307C12.8737 16.5362 12.9499 16.6667 13.0711 16.6667H13.7965C13.9177 16.6667 13.9939 16.5362 13.9346 16.4307L13.5886 15.8156Z" fill="white"/>
<path d="M9.48125 10.625V1.64996H1.66667V12.352L8.12505 12.3469V12.7687H1.66667C1.55616 12.7687 1.45018 12.7248 1.37204 12.6467C1.2939 12.5685 1.25 12.4625 1.25 12.352V1.64996C1.25 1.53945 1.2939 1.43347 1.37204 1.35533C1.45018 1.27719 1.55616 1.23329 1.66667 1.23329H9.48125L9.48542 1.22913C9.59592 1.22913 9.7019 1.27302 9.78004 1.35116C9.85818 1.4293 9.90208 1.53529 9.90208 1.64579V10.625H9.48125Z" fill="#3A424A"/>
<path d="M5.37707 6.32111L6.48968 4.83525L6.15615 4.58551L5.33126 5.68714L4.85333 5.21074L4.55917 5.50584L5.37707 6.32111Z" fill="#3A424A"/>
<path fill-rule="evenodd" clip-rule="evenodd" d="M5.51461 2.4687C4.9431 2.4687 4.38443 2.63817 3.90924 2.95568C3.43405 3.27319 3.06368 3.72448 2.84498 4.25249C2.62627 4.78049 2.56905 5.36149 2.68054 5.92201C2.79204 6.48254 3.06725 6.99742 3.47136 7.40153C3.87548 7.80565 4.39035 8.08085 4.95087 8.19235C5.5114 8.30384 6.0924 8.24662 6.6204 8.02791C7.1484 7.80921 7.59969 7.43884 7.91721 6.96365C8.23472 6.48846 8.40419 5.92979 8.40419 5.35828C8.40419 4.97882 8.32945 4.60307 8.18423 4.25249C8.03902 3.90191 7.82617 3.58336 7.55785 3.31504C7.28953 3.04672 6.97098 2.83387 6.6204 2.68866C6.26982 2.54344 5.89407 2.4687 5.51461 2.4687ZM5.51461 2.88537C6.0037 2.88537 6.48181 3.0304 6.88848 3.30213C7.29515 3.57385 7.61211 3.96007 7.79928 4.41194C7.98645 4.8638 8.03542 5.36103 7.94 5.84072C7.84459 6.32042 7.60906 6.76105 7.26322 7.1069C6.91738 7.45274 6.47675 7.68826 5.99705 7.78368C5.51735 7.8791 5.02013 7.83013 4.56826 7.64296C4.11639 7.45579 3.73018 7.13883 3.45845 6.73216C3.18672 6.32549 3.04169 5.84738 3.04169 5.35828C3.04224 4.70259 3.30296 4.07392 3.7666 3.61028C4.23024 3.14663 4.85892 2.88592 5.51461 2.88537Z" fill="#3A424A"/>
<path d="M15.1017 7.76496C14.6244 7.28764 13.9771 7.01924 13.3021 7.01869C12.6269 7.01924 11.9795 7.28757 11.5018 7.76483C11.0242 8.24209 10.7553 8.88931 10.7542 9.56453V10.625H10.3375V9.56453C10.3381 8.77863 10.6507 8.02511 11.2066 7.46959C11.7625 6.91408 12.5162 6.60203 13.3021 6.60203C14.0878 6.60203 14.8413 6.91414 15.3969 7.46972C15.9525 8.0253 16.2646 8.77882 16.2646 9.56453V10.625H15.8479V9.56453C15.8474 8.8895 15.579 8.24228 15.1017 7.76496Z" fill="#3A424A"/>
<path d="M15.0437 2.26454H11.3375V1.84787H15.0437C15.32 1.84787 15.585 1.95762 15.7803 2.15297C15.9757 2.34832 16.0854 2.61327 16.0854 2.88954V4.9167L17.2667 3.64579L17.5708 3.9312L15.8667 5.76245L14.1625 3.9312L14.4687 3.64579L15.6687 4.93877V2.88954C15.6687 2.72378 15.6029 2.5648 15.4857 2.44759C15.3685 2.33038 15.2095 2.26454 15.0437 2.26454Z" fill="#3A424A"/>
<path d="M2.68956 15.4395V13.7916H3.10623V15.4395C3.10622 15.6039 3.17099 15.7618 3.28652 15.8787C3.40176 15.9954 3.55825 16.0622 3.72221 16.0645H5.77841L4.48542 14.8645L4.77084 14.5604L6.60209 16.2625L4.77084 17.9666L4.48542 17.6625L5.75633 16.4812H3.71821C3.44421 16.4778 3.18259 16.3665 2.99004 16.1715C2.7975 15.9765 2.68955 15.7135 2.68956 15.4395Z" fill="#3A424A"/>
<path fill-rule="evenodd" clip-rule="evenodd" d="M8.45633 10.625H18.5001C18.683 10.625 18.8313 10.7733 18.8313 10.9563V18.3229C18.8313 18.5059 18.683 18.6542 18.5001 18.6542H8.45633C8.27339 18.6542 8.12508 18.5059 8.12508 18.3229V10.9563C8.12508 10.7733 8.27339 10.625 8.45633 10.625ZM14.576 14.6838C14.576 15.2621 14.1462 15.74 13.5886 15.8156L13.9346 16.4307C13.994 16.5362 13.9177 16.6667 13.7965 16.6667H13.0711C12.95 16.6667 12.8737 16.5362 12.9331 16.4307L13.2791 15.8156C12.7215 15.74 12.2917 15.2621 12.2917 14.6838C12.2917 14.053 12.803 13.5417 13.4338 13.5417C14.0646 13.5417 14.576 14.053 14.576 14.6838Z" fill="#0067D1"/>
<path d="M8.03658 6.76884L9.2597 9.35451C9.26569 9.36652 9.2688 9.37976 9.26876 9.39318C9.26873 9.4066 9.26556 9.41983 9.25951 9.43181C9.25346 9.44379 9.24469 9.45419 9.23391 9.46217C9.22312 9.47016 9.21062 9.47552 9.1974 9.47782C9.18161 9.48093 9.16525 9.47946 9.15027 9.47358L7.60556 8.87476C7.59057 8.86888 7.57422 8.8674 7.55842 8.87051C7.54381 8.87328 7.53014 8.87972 7.5187 8.88921C7.50725 8.8987 7.4984 8.91094 7.49297 8.92479L6.8719 10.5769C6.86636 10.591 6.85726 10.6034 6.84549 10.613C6.83372 10.6226 6.81967 10.6289 6.80471 10.6315C6.78619 10.6346 6.76715 10.6316 6.75049 10.6229C6.73383 10.6142 6.72047 10.6003 6.71244 10.5834L5.66667 8.38975L4.64536 10.6213C4.63846 10.637 4.62704 10.6503 4.61256 10.6594C4.59808 10.6686 4.5812 10.6732 4.56407 10.6727C4.54694 10.6723 4.53034 10.6667 4.51641 10.6567C4.50247 10.6467 4.49183 10.6328 4.48583 10.6168L3.82716 8.97124C3.82171 8.95737 3.81276 8.94515 3.80117 8.93578C3.78958 8.9264 3.77576 8.9202 3.76106 8.91776C3.74523 8.91484 3.72889 8.91652 3.71398 8.92258L2.17664 9.54006C2.1623 9.54599 2.14658 9.54775 2.13129 9.54516C2.11803 9.54293 2.10546 9.53769 2.09454 9.52983C2.08362 9.52198 2.07466 9.51172 2.06833 9.49986C2.062 9.48799 2.05847 9.47483 2.05803 9.46139C2.05759 9.44795 2.06023 9.43459 2.06577 9.42233L3.16098 7.03467C3.25368 7.16482 3.35741 7.28762 3.47139 7.4016C3.87551 7.80572 4.39038 8.08092 4.95091 8.19242C5.51143 8.30391 6.09243 8.24669 6.62043 8.02799C7.14843 7.80928 7.59972 7.43891 7.91724 6.96372C7.95968 6.9002 7.99948 6.83518 8.03658 6.76884Z" fill="#0067D1"/>
<path fill-rule="evenodd" clip-rule="evenodd" d="M6.43095 6.72735C6.15963 6.90827 5.84073 7.00462 5.51463 7.00421C5.0783 7.00366 4.65999 6.83008 4.35146 6.52154C4.04292 6.21301 3.86935 5.79471 3.8688 5.35837C3.86838 5.03227 3.96474 4.71337 4.14565 4.44206C4.32657 4.17074 4.58392 3.9592 4.88512 3.83421C5.18632 3.70923 5.51784 3.67642 5.83769 3.73994C6.15755 3.80346 6.45137 3.96045 6.68196 4.19104C6.91256 4.42163 7.06955 4.71545 7.13307 5.03531C7.19658 5.35517 7.16377 5.68668 7.03879 5.98788C6.91381 6.28909 6.70226 6.54643 6.43095 6.72735ZM5.3771 6.32119L6.48971 4.83532L6.15618 4.58558L5.33129 5.68721L4.85336 5.21081L4.5592 5.50591L5.3771 6.32119Z" fill="#0067D1"/>
</svg>
