<svg width="20" height="20" viewBox="0 0 20 20" fill="none" xmlns="http://www.w3.org/2000/svg">
<circle cx="10" cy="9.99998" r="6.04167" fill="#0067D1"/>
<path d="M8.76734 9.99667C8.1616 10.1535 7.48557 9.99056 7.0051 9.51009C6.52462 9.02962 6.36166 8.35358 6.51851 7.74784L7.72518 8.95451L9.00084 7.67885L7.79418 6.47218C8.39991 6.31533 9.07595 6.47829 9.55642 6.95876C10.0369 7.43923 10.1999 8.11527 10.043 8.72101L13.4964 12.1744C13.5988 12.2768 13.6003 12.4414 13.4996 12.5421L12.5884 13.4533C12.4878 13.5539 12.3232 13.5525 12.2207 13.4501L8.76734 9.99667Z" fill="white"/>
<path fill-rule="evenodd" clip-rule="evenodd" d="M7.75107 6.30578C8.41429 6.13404 9.15335 6.31264 9.67793 6.83722C10.177 7.3363 10.3629 8.02952 10.2319 8.66687L13.6179 12.0529C13.7855 12.2204 13.7909 12.4939 13.6211 12.6636L12.7099 13.5748C12.5402 13.7446 12.2667 13.7391 12.0992 13.5716L8.71319 10.1856C8.07584 10.3166 7.38262 10.1307 6.88354 9.63161C6.35896 9.10703 6.18036 8.36797 6.3521 7.70475C6.36756 7.64505 6.41381 7.59821 6.47331 7.582C6.5328 7.56579 6.59642 7.58269 6.64002 7.6263L7.72515 8.71143L8.75775 7.67883L7.67262 6.5937C7.62902 6.5501 7.61211 6.48648 7.62832 6.42699C7.64453 6.36749 7.69137 6.32124 7.75107 6.30578ZM8.15407 6.58902L9.12235 7.5573C9.18947 7.62442 9.18947 7.73324 9.12235 7.80037L7.84669 9.07603C7.77957 9.14315 7.67074 9.14315 7.60362 9.07603L6.63534 8.10775C6.60909 8.56503 6.77289 9.03482 7.12661 9.38854C7.56297 9.82491 8.17598 9.97224 8.72423 9.83027C8.78317 9.81501 8.84579 9.83207 8.88885 9.87512L12.3423 13.3285C12.3796 13.3658 12.4353 13.3633 12.4669 13.3317L13.3781 12.4205C13.4096 12.389 13.4121 12.3332 13.3749 12.2959L9.92144 8.84253C9.87839 8.79947 9.86133 8.73685 9.87659 8.67791C10.0186 8.12966 9.87123 7.51665 9.43486 7.08029C9.08114 6.72656 8.61135 6.56276 8.15407 6.58902Z" fill="#3A424A"/>
<path d="M14.0033 3.54493L15.1448 3.71106C13.7437 2.56355 11.9523 1.875 10 1.875C5.51269 1.875 1.875 5.51269 1.875 10C1.875 11.8796 2.51322 13.6101 3.58476 14.9866L3.11151 15.3961C1.94535 13.9095 1.25 12.036 1.25 10C1.25 5.16751 5.16751 1.25 10 1.25C12.1114 1.25 14.0481 1.99782 15.5597 3.24304L15.3213 2.26124L15.9287 2.11377L16.4092 4.09294C16.4337 4.19383 16.4065 4.30029 16.3366 4.37706C16.2667 4.45382 16.1633 4.49087 16.0605 4.47592L13.9133 4.16342L14.0033 3.54493Z" fill="#3A424A"/>
<path d="M4.17659 15.9266L6.21224 15.9914L6.19238 16.616L5.24051 16.5858C6.57814 17.5541 8.2224 18.125 10 18.125C14.4873 18.125 18.125 14.4873 18.125 10C18.125 8.41378 17.6705 6.93372 16.8845 5.68298L17.3623 5.26955C18.2405 6.63348 18.75 8.25724 18.75 10C18.75 14.8325 14.8325 18.75 10 18.75C8.04763 18.75 6.24461 18.1106 4.78893 17.0297L5.20606 18.1691L4.61916 18.384L3.87321 16.3464C3.83752 16.2489 3.85258 16.1401 3.91339 16.0559C3.9742 15.9718 4.07283 15.9233 4.17659 15.9266Z" fill="#3A424A"/>
</svg>
