<svg width="20" height="20" viewBox="0 0 20 20" fill="none" xmlns="http://www.w3.org/2000/svg">
<path d="M11.3542 4.27083H11.7708V1.25H11.3542V4.27083Z" fill="#3A424A"/>
<path d="M15.9376 9.89583V10.3125H18.5236L17.2436 11.5021L17.5269 11.8084L19.3602 10.1042L17.5269 8.40007L17.2436 8.70423L18.5238 9.89583H15.9376Z" fill="#3A424A"/>
<path d="M11.7708 15.9375H11.3542V18.9583H11.7708V15.9375Z" fill="#3A424A"/>
<path d="M8.85418 4.27083V1.25H8.43751V4.27083H8.85418Z" fill="#3A424A"/>
<path d="M8.85418 15.9375H8.43751V18.9583H8.85418V15.9375Z" fill="#3A424A"/>
<path d="M3.6381 10.3125H4.02977V9.89583H3.6381V10.3125Z" fill="#3A424A"/>
<path d="M2.85269 10.3125H3.24435V9.89583H2.85269V10.3125Z" fill="#3A424A"/>
<path d="M2.06935 10.3125H2.45477V9.89583H2.06935V10.3125Z" fill="#3A424A"/>
<path d="M1.28394 10.3125H1.66935L1.6756 9.89583H1.28394V10.3125Z" fill="#3A424A"/>
<path fill-rule="evenodd" clip-rule="evenodd" d="M9.10907 11.7831L12.637 7.98325L12.9423 8.26675L9.12021 12.3835L7.2715 10.5348L7.56612 10.2402L9.10907 11.7831Z" fill="#3A424A"/>
<path fill-rule="evenodd" clip-rule="evenodd" d="M5.08962 4.27081H15.1188C15.3358 4.27136 15.5437 4.3578 15.6971 4.51123C15.8506 4.66465 15.937 4.87259 15.9375 5.08956V15.1187C15.937 15.3357 15.8506 15.5436 15.6971 15.6971C15.5437 15.8505 15.3358 15.9369 15.1188 15.9375H5.08962C4.87265 15.9369 4.66471 15.8505 4.51129 15.6971C4.35786 15.5436 4.27142 15.3357 4.27087 15.1187V5.08956C4.27142 4.87259 4.35786 4.66465 4.51129 4.51123C4.66471 4.3578 4.87265 4.27136 5.08962 4.27081ZM12.6369 7.98328L9.10904 11.7832L7.56609 10.2402L7.27146 10.5348L9.12018 12.3836L12.9423 8.26677L12.6369 7.98328Z" fill="#0067D1"/>
</svg>
