<svg width="20" height="20" viewBox="0 0 20 20" fill="none" xmlns="http://www.w3.org/2000/svg">
<path d="M13.5979 3.31458V1.66667H1.66667V3.31458H13.5979Z" fill="white"/>
<path d="M6.65625 10.2021C6.85185 10.2021 7.01042 10.0435 7.01042 9.84792C7.01042 9.65232 6.85185 9.49375 6.65625 9.49375C6.46065 9.49375 6.30208 9.65232 6.30208 9.84792C6.30208 10.0435 6.46065 10.2021 6.65625 10.2021Z" fill="white"/>
<path d="M4.52917 7.01042C4.72477 7.01042 4.88333 6.85185 4.88333 6.65625C4.88333 6.46065 4.72477 6.30208 4.52917 6.30208C4.33357 6.30208 4.175 6.46065 4.175 6.65625C4.175 6.85185 4.33357 7.01042 4.52917 7.01042Z" fill="white"/>
<path d="M5.59375 7.01042C5.78935 7.01042 5.94792 6.85185 5.94792 6.65625C5.94792 6.46065 5.78935 6.30208 5.59375 6.30208C5.39815 6.30208 5.23958 6.46065 5.23958 6.65625C5.23958 6.85185 5.39815 7.01042 5.59375 7.01042Z" fill="white"/>
<path d="M6.65625 7.01042C6.85185 7.01042 7.01042 6.85185 7.01042 6.65625C7.01042 6.46065 6.85185 6.30208 6.65625 6.30208C6.46065 6.30208 6.30208 6.46065 6.30208 6.65625C6.30208 6.85185 6.46065 7.01042 6.65625 7.01042Z" fill="white"/>
<path d="M4.52917 10.2021C4.72477 10.2021 4.88333 10.0435 4.88333 9.84792C4.88333 9.65232 4.72477 9.49375 4.52917 9.49375C4.33357 9.49375 4.175 9.65232 4.175 9.84792C4.175 10.0435 4.33357 10.2021 4.52917 10.2021Z" fill="white"/>
<path d="M5.59375 10.2021C5.78935 10.2021 5.94792 10.0435 5.94792 9.84792C5.94792 9.65232 5.78935 9.49375 5.59375 9.49375C5.39815 9.49375 5.23958 9.65232 5.23958 9.84792C5.23958 10.0435 5.39815 10.2021 5.59375 10.2021Z" fill="white"/>
<path d="M6.65625 10.2021C6.85185 10.2021 7.01042 10.0435 7.01042 9.84792C7.01042 9.65232 6.85185 9.49375 6.65625 9.49375C6.46065 9.49375 6.30208 9.65232 6.30208 9.84792C6.30208 10.0435 6.46065 10.2021 6.65625 10.2021Z" fill="white"/>
<path d="M7.72083 10.2021C7.91643 10.2021 8.075 10.0435 8.075 9.84792C8.075 9.65232 7.91643 9.49375 7.72083 9.49375C7.52523 9.49375 7.36667 9.65232 7.36667 9.84792C7.36667 10.0435 7.52523 10.2021 7.72083 10.2021Z" fill="white"/>
<path d="M8.78542 10.2021C8.98102 10.2021 9.13958 10.0435 9.13958 9.84792C9.13958 9.65232 8.98102 9.49375 8.78542 9.49375C8.58982 9.49375 8.43125 9.65232 8.43125 9.84792C8.43125 10.0435 8.58982 10.2021 8.78542 10.2021Z" fill="white"/>
<path fill-rule="evenodd" clip-rule="evenodd" d="M17.0833 17.5104V16.5188H13.8021V17.5104H17.0833ZM14.3792 17.3688C14.5748 17.3688 14.7333 17.2102 14.7333 17.0146C14.7333 16.819 14.5748 16.6604 14.3792 16.6604C14.1836 16.6604 14.025 16.819 14.025 17.0146C14.025 17.2102 14.1836 17.3688 14.3792 17.3688ZM15.4438 17.3688C15.6394 17.3688 15.7979 17.2102 15.7979 17.0146C15.7979 16.819 15.6394 16.6604 15.4438 16.6604C15.2481 16.6604 15.0896 16.819 15.0896 17.0146C15.0896 17.2102 15.2481 17.3688 15.4438 17.3688ZM16.8625 17.0146C16.8625 17.2102 16.7039 17.3688 16.5083 17.3688C16.3127 17.3688 16.1542 17.2102 16.1542 17.0146C16.1542 16.819 16.3127 16.6604 16.5083 16.6604C16.7039 16.6604 16.8625 16.819 16.8625 17.0146Z" fill="white"/>
<path fill-rule="evenodd" clip-rule="evenodd" d="M12.5667 10.5146H18.3208V18.2792C18.3208 18.2863 18.3194 18.2933 18.3167 18.2999C18.314 18.3065 18.31 18.3124 18.305 18.3175C18.2999 18.3225 18.294 18.3265 18.2874 18.3292C18.2808 18.3319 18.2738 18.3333 18.2667 18.3333H12.6208C12.6137 18.3333 12.6067 18.3319 12.6001 18.3292C12.5935 18.3265 12.5876 18.3225 12.5825 18.3175C12.5775 18.3124 12.5735 18.3065 12.5708 18.2999C12.5681 18.2933 12.5667 18.2863 12.5667 18.2792V10.5146ZM13.4464 16.1631C13.4855 16.124 13.5385 16.1021 13.5938 16.1021H17.2917V16.1042C17.3469 16.1042 17.3999 16.1261 17.439 16.1652C17.4781 16.2043 17.5 16.2573 17.5 16.3125V17.7083C17.5 17.7636 17.4781 17.8166 17.439 17.8557C17.3999 17.8947 17.3469 17.9167 17.2917 17.9167H13.5938C13.5385 17.9167 13.4855 17.8947 13.4464 17.8557C13.4074 17.8166 13.3854 17.7636 13.3854 17.7083V16.3104C13.3854 16.2552 13.4074 16.2022 13.4464 16.1631Z" fill="white"/>
<path d="M13.5979 1.66667V3.31458H1.66667V1.66667H13.5979ZM13.6833 1.25H1.58125C1.4934 1.25 1.40914 1.2849 1.34702 1.34702C1.2849 1.40914 1.25 1.4934 1.25 1.58125V3.73125H14.0146V1.58125C14.0146 1.4934 13.9797 1.40914 13.9176 1.34702C13.8554 1.2849 13.7712 1.25 13.6833 1.25Z" fill="#3A424A"/>
<path d="M2.40208 2.84583C2.59768 2.84583 2.75625 2.68727 2.75625 2.49167C2.75625 2.29607 2.59768 2.1375 2.40208 2.1375C2.20648 2.1375 2.04792 2.29607 2.04792 2.49167C2.04792 2.68727 2.20648 2.84583 2.40208 2.84583Z" fill="#3A424A"/>
<path d="M3.46667 2.84583C3.66227 2.84583 3.82083 2.68727 3.82083 2.49167C3.82083 2.29607 3.66227 2.1375 3.46667 2.1375C3.27107 2.1375 3.1125 2.29607 3.1125 2.49167C3.1125 2.68727 3.27107 2.84583 3.46667 2.84583Z" fill="#3A424A"/>
<path d="M4.52917 2.84583C4.72477 2.84583 4.88333 2.68727 4.88333 2.49167C4.88333 2.29607 4.72477 2.1375 4.52917 2.1375C4.33357 2.1375 4.175 2.29607 4.175 2.49167C4.175 2.68727 4.33357 2.84583 4.52917 2.84583Z" fill="#3A424A"/>
<path d="M7.42083 6.01042V7.30417H3.79375V6.01042H7.42083ZM7.60208 5.59375H3.6125C3.58123 5.59375 3.55027 5.59997 3.52144 5.61206C3.4926 5.62415 3.46646 5.64186 3.44454 5.66417C3.42263 5.68647 3.40538 5.71292 3.39379 5.74196C3.38221 5.77101 3.37653 5.80207 3.37708 5.83333V7.5C3.37708 7.56244 3.40189 7.62232 3.44604 7.66646C3.49018 7.71061 3.55006 7.73542 3.6125 7.73542H7.60208C7.63308 7.73569 7.66381 7.7298 7.6925 7.71806C7.72119 7.70633 7.74725 7.689 7.76917 7.66708C7.79108 7.64517 7.80841 7.61911 7.82015 7.59042C7.83188 7.56173 7.83778 7.53099 7.8375 7.5V5.83333C7.83778 5.80234 7.83188 5.7716 7.82015 5.74292C7.80841 5.71423 7.79108 5.68817 7.76917 5.66625C7.74725 5.64433 7.72119 5.627 7.6925 5.61527C7.66381 5.60354 7.63308 5.59764 7.60208 5.59792V5.59375Z" fill="#3A424A"/>
<path d="M10.0979 9.20208V10.4958H3.79375V9.20208H10.0979ZM10.2167 8.78542H3.675C3.59635 8.78541 3.52089 8.81652 3.46507 8.87194C3.40926 8.92736 3.37763 9.0026 3.37708 9.08125V10.625C3.37708 10.704 3.40847 10.7798 3.46434 10.8357C3.52021 10.8915 3.59599 10.9229 3.675 10.9229H10.2083C10.2482 10.924 10.2878 10.9171 10.3249 10.9027C10.362 10.8882 10.3958 10.8664 10.4244 10.8387C10.453 10.8109 10.4756 10.7777 10.4911 10.741C10.5066 10.7043 10.5146 10.6648 10.5146 10.625V9.08125C10.5143 9.04159 10.5061 9.00238 10.4905 8.96593C10.4749 8.92947 10.4522 8.8965 10.4237 8.86895C10.3951 8.84139 10.3614 8.81981 10.3244 8.80547C10.2874 8.79112 10.248 8.78431 10.2083 8.78542H10.2167Z" fill="#3A424A"/>
<path d="M18.2667 9.16667C18.281 9.16667 18.2948 9.17237 18.305 9.18253C18.3151 9.19269 18.3208 9.20647 18.3208 9.22083V18.2792C18.3208 18.2863 18.3194 18.2933 18.3167 18.2999C18.314 18.3065 18.31 18.3124 18.305 18.3175C18.2999 18.3225 18.294 18.3265 18.2874 18.3292C18.2808 18.3319 18.2738 18.3333 18.2667 18.3333H12.6208C12.6137 18.3333 12.6067 18.3319 12.6001 18.3292C12.5935 18.3265 12.5876 18.3225 12.5825 18.3175C12.5775 18.3124 12.5735 18.3065 12.5708 18.2999C12.5681 18.2933 12.5667 18.2863 12.5667 18.2792V9.22083C12.5667 9.20647 12.5724 9.19269 12.5825 9.18253C12.5927 9.17237 12.6065 9.16667 12.6208 9.16667H18.2667ZM18.2667 8.75H12.6208C12.496 8.75 12.3762 8.79961 12.2879 8.8879C12.1996 8.9762 12.15 9.09596 12.15 9.22083V18.2792C12.15 18.404 12.1996 18.5238 12.2879 18.6121C12.3762 18.7004 12.496 18.75 12.6208 18.75H18.2667C18.3285 18.75 18.3897 18.7378 18.4468 18.7142C18.504 18.6905 18.5559 18.6558 18.5996 18.6121C18.6433 18.5684 18.678 18.5165 18.7016 18.4593C18.7253 18.4022 18.7375 18.341 18.7375 18.2792V9.22083C18.7375 9.159 18.7253 9.09778 18.7016 9.04065C18.678 8.98353 18.6433 8.93162 18.5996 8.8879C18.5559 8.84418 18.504 8.8095 18.4468 8.78584C18.3897 8.76218 18.3285 8.75 18.2667 8.75Z" fill="#3A424A"/>
<path d="M15.6645 11.5986C15.5859 11.5662 15.5017 11.5497 15.4167 11.55C15.2454 11.55 15.0811 11.618 14.96 11.7392C14.8389 11.8603 14.7708 12.0245 14.7708 12.1958V12.5729H14.3542V12.1958C14.3542 11.914 14.4661 11.6438 14.6654 11.4445C14.8646 11.2453 15.1349 11.1333 15.4167 11.1333C15.5564 11.133 15.6948 11.1603 15.8239 11.2136C15.9531 11.2669 16.0704 11.3451 16.1693 11.4438C16.2682 11.5425 16.3467 11.6597 16.4002 11.7887C16.4537 11.9178 16.4813 12.0561 16.4813 12.1958V12.5729H16.0646V12.1958C16.0646 12.1108 16.0478 12.0267 16.0152 11.9482C15.9826 11.8697 15.9349 11.7984 15.8747 11.7384C15.8145 11.6784 15.7431 11.6309 15.6645 11.5986Z" fill="#3A424A"/>
<path d="M14.3792 17.3688C14.5748 17.3688 14.7333 17.2102 14.7333 17.0146C14.7333 16.819 14.5748 16.6604 14.3792 16.6604C14.1836 16.6604 14.025 16.819 14.025 17.0146C14.025 17.2102 14.1836 17.3688 14.3792 17.3688Z" fill="#3A424A"/>
<path d="M15.4438 17.3688C15.6394 17.3688 15.7979 17.2102 15.7979 17.0146C15.7979 16.819 15.6394 16.6604 15.4438 16.6604C15.2481 16.6604 15.0896 16.819 15.0896 17.0146C15.0896 17.2102 15.2481 17.3688 15.4438 17.3688Z" fill="#3A424A"/>
<path d="M16.5083 17.3688C16.7039 17.3688 16.8625 17.2102 16.8625 17.0146C16.8625 16.819 16.7039 16.6604 16.5083 16.6604C16.3127 16.6604 16.1542 16.819 16.1542 17.0146C16.1542 17.2102 16.3127 17.3688 16.5083 17.3688Z" fill="#3A424A"/>
<path d="M17.0833 16.5188V17.5104H13.8021V16.5188H17.0833ZM17.2917 16.1021H13.5938C13.5385 16.1021 13.4855 16.124 13.4464 16.1631C13.4074 16.2022 13.3854 16.2552 13.3854 16.3104V17.7083C13.3854 17.7636 13.4074 17.8166 13.4464 17.8557C13.4855 17.8947 13.5385 17.9167 13.5938 17.9167H17.2917C17.3469 17.9167 17.3999 17.8947 17.439 17.8557C17.4781 17.8166 17.5 17.7636 17.5 17.7083V16.3125C17.5 16.2573 17.4781 16.2043 17.439 16.1652C17.3999 16.1261 17.3469 16.1042 17.2917 16.1042V16.1021Z" fill="#3A424A"/>
<path d="M18.3208 10.5146H12.5667V9.22084C12.5667 9.20647 12.5724 9.1927 12.5825 9.18254C12.5927 9.17238 12.6065 9.16667 12.6208 9.16667H18.2667C18.281 9.16667 18.2948 9.17238 18.305 9.18254C18.3151 9.1927 18.3208 9.20647 18.3208 9.22084V10.5146Z" fill="#0067D1"/>
<path fill-rule="evenodd" clip-rule="evenodd" d="M13.6521 12.5729H17.2583C17.3239 12.5729 17.3771 12.6261 17.3771 12.6917V15.3375C17.3771 15.4031 17.3239 15.4563 17.2583 15.4563H13.6521C13.5865 15.4563 13.5333 15.4031 13.5333 15.3375V12.6917C13.5333 12.6261 13.5865 12.5729 13.6521 12.5729ZM15.7977 13.7857C15.8426 13.8536 15.8666 13.9332 15.8667 14.0146C15.8662 14.1088 15.8337 14.2 15.7747 14.2734C15.7157 14.3468 15.6312 14.4105 15.5393 14.4313L15.6604 14.6396C15.6658 14.6497 15.6685 14.661 15.6682 14.6725C15.6679 14.6839 15.6647 14.6951 15.6588 14.705C15.6529 14.7148 15.6446 14.723 15.6347 14.7287C15.6248 14.7344 15.6135 14.7374 15.6021 14.7375H15.3667C15.355 14.7381 15.3434 14.7354 15.333 14.7299C15.3227 14.7244 15.3141 14.7161 15.3081 14.7061C15.3021 14.696 15.299 14.6845 15.299 14.6728C15.2991 14.6611 15.3023 14.6496 15.3083 14.6396L15.4271 14.4313C15.3458 14.4268 15.2676 14.3986 15.2022 14.3502C15.1367 14.3018 15.0869 14.2352 15.0589 14.1588C15.0308 14.0824 15.0258 13.9994 15.0443 13.9202C15.0629 13.8409 15.1043 13.7688 15.1634 13.7128C15.2225 13.6568 15.2966 13.6194 15.3768 13.605C15.4569 13.5907 15.5395 13.6002 15.6143 13.6323C15.6891 13.6644 15.7529 13.7177 15.7977 13.7857Z" fill="#0067D1"/>
<path fill-rule="evenodd" clip-rule="evenodd" d="M7.42083 6.01043V7.30418H3.79375V6.01043H7.42083ZM4.52917 7.01043C4.72477 7.01043 4.88333 6.85186 4.88333 6.65626C4.88333 6.46066 4.72477 6.3021 4.52917 6.3021C4.33357 6.3021 4.175 6.46066 4.175 6.65626C4.175 6.85186 4.33357 7.01043 4.52917 7.01043ZM5.94792 6.65626C5.94792 6.85186 5.78935 7.01043 5.59375 7.01043C5.39815 7.01043 5.23958 6.85186 5.23958 6.65626C5.23958 6.46066 5.39815 6.3021 5.59375 6.3021C5.78935 6.3021 5.94792 6.46066 5.94792 6.65626ZM6.65625 7.01043C6.85185 7.01043 7.01042 6.85186 7.01042 6.65626C7.01042 6.46066 6.85185 6.3021 6.65625 6.3021C6.46065 6.3021 6.30208 6.46066 6.30208 6.65626C6.30208 6.85186 6.46065 7.01043 6.65625 7.01043Z" fill="#0067D1"/>
<path fill-rule="evenodd" clip-rule="evenodd" d="M10.0979 10.4958V9.2021H3.79375V10.4958H10.0979ZM7.01042 9.84793C7.01042 10.0435 6.85185 10.2021 6.65625 10.2021C6.46065 10.2021 6.30208 10.0435 6.30208 9.84793C6.30208 9.65233 6.46065 9.49376 6.65625 9.49376C6.85185 9.49376 7.01042 9.65233 7.01042 9.84793ZM4.88333 9.84793C4.88333 10.0435 4.72477 10.2021 4.52917 10.2021C4.33357 10.2021 4.175 10.0435 4.175 9.84793C4.175 9.65233 4.33357 9.49376 4.52917 9.49376C4.72477 9.49376 4.88333 9.65233 4.88333 9.84793ZM5.59375 10.2021C5.78935 10.2021 5.94792 10.0435 5.94792 9.84793C5.94792 9.65233 5.78935 9.49376 5.59375 9.49376C5.39815 9.49376 5.23958 9.65233 5.23958 9.84793C5.23958 10.0435 5.39815 10.2021 5.59375 10.2021ZM7.72083 10.2021C7.91643 10.2021 8.075 10.0435 8.075 9.84793C8.075 9.65233 7.91643 9.49376 7.72083 9.49376C7.52523 9.49376 7.36667 9.65233 7.36667 9.84793C7.36667 10.0435 7.52523 10.2021 7.72083 10.2021ZM9.13958 9.84793C9.13958 10.0435 8.98102 10.2021 8.78542 10.2021C8.58982 10.2021 8.43125 10.0435 8.43125 9.84793C8.43125 9.65233 8.58982 9.49376 8.78542 9.49376C8.98102 9.49376 9.13958 9.65233 9.13958 9.84793Z" fill="#0067D1"/>
<path fill-rule="evenodd" clip-rule="evenodd" d="M1.25 12.4583V3.73126H14.0146V8.75001H12.6208C12.496 8.75001 12.3762 8.79961 12.2879 8.88791C12.1996 8.97621 12.15 9.09597 12.15 9.22084V13.2167H2.00833C1.58952 13.2167 1.25 12.8772 1.25 12.4583ZM3.6125 5.59376H7.60208V5.59793C7.63308 5.59765 7.66381 5.60355 7.6925 5.61528C7.72119 5.62702 7.74725 5.64435 7.76917 5.66626C7.79108 5.68818 7.80841 5.71424 7.82015 5.74293C7.83188 5.77162 7.83778 5.80235 7.8375 5.83335V7.50001C7.83778 7.53101 7.83188 7.56174 7.82015 7.59043C7.80841 7.61912 7.79108 7.64518 7.76917 7.6671C7.74725 7.68901 7.72119 7.70634 7.6925 7.71808C7.66381 7.72981 7.63308 7.73571 7.60208 7.73543H3.6125C3.55006 7.73543 3.49018 7.71063 3.44604 7.66648C3.40189 7.62233 3.37708 7.56245 3.37708 7.50001V5.83335C3.37653 5.80208 3.38221 5.77102 3.39379 5.74198C3.40538 5.71293 3.42263 5.68648 3.44454 5.66418C3.46646 5.64188 3.4926 5.62416 3.52144 5.61207C3.55027 5.59998 3.58123 5.59376 3.6125 5.59376ZM10.2083 8.78543H3.675C3.59635 8.78543 3.52088 8.81653 3.46507 8.87195C3.40926 8.92737 3.37763 9.00261 3.37708 9.08126V10.625C3.37708 10.704 3.40847 10.7798 3.46434 10.8357C3.52021 10.8915 3.59599 10.9229 3.675 10.9229H10.2083C10.2482 10.924 10.2878 10.9172 10.3249 10.9027C10.362 10.8882 10.3958 10.8664 10.4244 10.8387C10.453 10.8109 10.4756 10.7777 10.4911 10.741C10.5066 10.7043 10.5146 10.6648 10.5146 10.625V9.08126C10.5143 9.0416 10.5061 9.0024 10.4905 8.96594C10.4749 8.92948 10.4522 8.89651 10.4237 8.86896C10.3951 8.8414 10.3614 8.81982 10.3244 8.80548C10.2874 8.79114 10.248 8.78432 10.2083 8.78543Z" fill="#0067D1"/>
</svg>
