<svg width="20" height="20" viewBox="0 0 20 20" fill="none" xmlns="http://www.w3.org/2000/svg">
<path d="M3.4375 4.58335H7.17083C7.4584 4.58335 7.73422 4.69747 7.93772 4.90065C8.14117 5.10377 8.25573 5.37931 8.25625 5.66679L8.25625 5.66702L8.25625 8.70835C8.25625 8.90534 8.29505 9.10039 8.37043 9.28238C8.44581 9.46437 8.5563 9.62973 8.69559 9.76901C8.70323 9.77666 8.71096 9.78422 8.71876 9.79169H3.4375V10.2084H8.71876C8.71096 10.2158 8.70324 10.2234 8.69559 10.231C8.41429 10.5123 8.25625 10.8939 8.25625 11.2917L8.25625 14.333L8.25625 14.3333C8.25573 14.6207 8.14117 14.8963 7.93772 15.0994C7.73422 15.3026 7.4584 15.4167 7.17083 15.4167H3.4375V15.8334H7.17083C7.56879 15.8334 7.95049 15.6754 8.23211 15.3943C8.51374 15.1131 8.67228 14.7316 8.67292 14.3337L8.67292 14.3334V11.2917C8.67292 11.0044 8.78705 10.7288 8.99022 10.5257C9.19338 10.3225 9.46893 10.2084 9.75625 10.2084H15.7259L14.4459 11.3979L14.7292 11.7042L16.5625 10L14.7292 8.29585L14.4459 8.60002L15.7262 9.79169H9.75625C9.61398 9.79169 9.47311 9.76367 9.34168 9.70922C9.21024 9.65478 9.09081 9.57498 8.99022 9.47439C8.88962 9.37379 8.80982 9.25436 8.75538 9.12293C8.70094 8.99149 8.67292 8.85062 8.67292 8.70835L8.67292 5.66669L8.67292 5.66635C8.67228 5.26839 8.51374 4.88695 8.23211 4.60578C7.95049 4.32461 7.56879 4.16669 7.17083 4.16669H3.4375V4.58335Z" fill="#3A424A"/>
<path fill-rule="evenodd" clip-rule="evenodd" d="M3.55208 2.4646H16.4479C17.029 2.4646 17.5 2.93563 17.5 3.51668V16.4125C17.5 16.9936 17.029 17.4646 16.4479 17.4646H3.55208C2.97103 17.4646 2.5 16.9936 2.5 16.4125V3.51668C2.5 2.93563 2.97103 2.4646 3.55208 2.4646ZM7.17083 4.58335H3.4375V4.16668H7.17083C7.56879 4.16668 7.95049 4.3246 8.23211 4.60578C8.51374 4.88695 8.67228 5.26839 8.67292 5.66635L8.67292 5.66668L8.67292 8.70835C8.67292 8.85061 8.70094 8.99149 8.75538 9.12292C8.80982 9.25436 8.88962 9.37378 8.99022 9.47438C9.09081 9.57498 9.21024 9.65478 9.34168 9.70922C9.47311 9.76366 9.61398 9.79168 9.75625 9.79168H15.7262L14.4459 8.60002L14.7292 8.29585L16.5625 10L14.7292 11.7042L14.4459 11.3979L15.7259 10.2083H9.75625C9.46893 10.2083 9.19338 10.3225 8.99022 10.5257C8.78705 10.7288 8.67292 11.0044 8.67292 11.2917V14.3333L8.67292 14.3337C8.67228 14.7316 8.51374 15.1131 8.23211 15.3943C7.95049 15.6754 7.56879 15.8333 7.17083 15.8333H3.4375V15.4167H7.17083C7.4584 15.4167 7.73422 15.3026 7.93772 15.0994C8.14117 14.8963 8.25573 14.6207 8.25625 14.3332L8.25625 14.333L8.25625 11.2917C8.25625 10.8939 8.41429 10.5123 8.69559 10.231C8.70324 10.2234 8.71096 10.2158 8.71876 10.2083H3.4375V9.79168H8.71876C8.71096 9.78421 8.70323 9.77665 8.69559 9.76901C8.5563 9.62972 8.44581 9.46436 8.37043 9.28237C8.29505 9.10039 8.25625 8.90533 8.25625 8.70835L8.25625 5.66702L8.25625 5.66679C8.25573 5.3793 8.14117 5.10377 7.93772 4.90064C7.73422 4.69746 7.4584 4.58335 7.17083 4.58335Z" fill="#0067D1"/>
</svg>
