<svg width="20" height="20" viewBox="0 0 20 20" fill="none" xmlns="http://www.w3.org/2000/svg">
<path fill-rule="evenodd" clip-rule="evenodd" d="M17.9792 10.5146C18.0897 10.5146 18.1957 10.5585 18.2738 10.6367C18.352 10.7148 18.3959 10.8208 18.3959 10.9313V17.973C18.3959 18.0835 18.352 18.1895 18.2738 18.2676C18.1957 18.3457 18.0897 18.3896 17.9792 18.3896H7.00211C6.8916 18.3896 6.78562 18.3457 6.70748 18.2676C6.62934 18.1895 6.58544 18.0835 6.58544 17.973V10.9271C6.58544 10.8166 6.62934 10.7107 6.70748 10.6325C6.78562 10.5544 6.8916 10.5105 7.00211 10.5105H17.9792V10.5146ZM12.5 13.4125C12.294 13.4125 12.0926 13.4736 11.9213 13.588C11.75 13.7025 11.6165 13.8652 11.5376 14.0555C11.4588 14.2459 11.4382 14.4553 11.4783 14.6574C11.5185 14.8594 11.6178 15.0451 11.7634 15.1907C11.9091 15.3364 12.0947 15.4356 12.2968 15.4758C12.4988 15.516 12.7083 15.4954 12.8986 15.4165C13.089 15.3377 13.2517 15.2042 13.3661 15.0329C13.4806 14.8616 13.5417 14.6602 13.5417 14.4542C13.5417 14.1779 13.4319 13.9129 13.2366 13.7176C13.0412 13.5222 12.7763 13.4125 12.5 13.4125Z" fill="white"/>
<path d="M6.27679 18.3791C6.2066 18.2551 6.16877 18.1139 6.16877 17.9688V17.1416H4.10624V18.3791H6.27679Z" fill="white"/>
<path d="M11.9213 13.588C12.0926 13.4736 12.294 13.4125 12.5 13.4125C12.7763 13.4125 13.0412 13.5222 13.2366 13.7176C13.4319 13.9129 13.5417 14.1779 13.5417 14.4542C13.5417 14.6602 13.4806 14.8616 13.3661 15.0329C13.2517 15.2042 13.089 15.3377 12.8986 15.4165C12.7083 15.4954 12.4988 15.516 12.2968 15.4758C12.0947 15.4356 11.9091 15.3364 11.7634 15.1907C11.6178 15.0451 11.5185 14.8594 11.4783 14.6574C11.4382 14.4553 11.4588 14.2459 11.5376 14.0555C11.6165 13.8652 11.75 13.7025 11.9213 13.588Z" fill="#3A424A"/>
<path fill-rule="evenodd" clip-rule="evenodd" d="M6.89952 18.7958C6.93338 18.8 6.96763 18.8021 7.00211 18.8021H17.9792C18.2002 18.8021 18.4122 18.7143 18.5684 18.5581C18.7247 18.4018 18.8125 18.1898 18.8125 17.9688V10.9271C18.8125 10.7061 18.7247 10.4942 18.5684 10.3379C18.4122 10.1816 18.2002 10.0938 17.9792 10.0938H7.00211C6.78109 10.0938 6.56913 10.1816 6.41285 10.3379C6.25657 10.4942 6.16877 10.7061 6.16877 10.9271V16.725H4.09374C3.98655 16.725 3.88375 16.7676 3.80795 16.8434C3.73216 16.9191 3.68958 17.022 3.68958 17.1291V18.3916C3.68958 18.4988 3.73216 18.6016 3.80795 18.6774C3.88375 18.7532 3.98655 18.7958 4.09374 18.7958H6.89952ZM18.2738 10.6367C18.1957 10.5585 18.0897 10.5146 17.9792 10.5146V10.5105H7.00211C6.8916 10.5105 6.78562 10.5544 6.70748 10.6325C6.62934 10.7107 6.58544 10.8166 6.58544 10.9271V17.973C6.58544 18.0835 6.62934 18.1895 6.70748 18.2676C6.76332 18.3234 6.83338 18.3618 6.90915 18.3791C6.90958 18.3792 6.91002 18.3793 6.91046 18.3794C6.9403 18.3862 6.97103 18.3896 7.00211 18.3896H17.9792C18.0897 18.3896 18.1957 18.3457 18.2738 18.2676C18.352 18.1895 18.3959 18.0835 18.3959 17.973V10.9313C18.3959 10.8208 18.352 10.7148 18.2738 10.6367ZM6.27679 18.3791C6.2066 18.2551 6.16877 18.1139 6.16877 17.9688V17.1416H4.10624V18.3791H6.27679Z" fill="#3A424A"/>
<path d="M10.0062 8.72706C12.0566 8.72706 13.7188 7.06492 13.7188 5.01456C13.7188 2.96421 12.0566 1.30206 10.0062 1.30206C7.95589 1.30206 6.29375 2.96421 6.29375 5.01456C6.29375 7.06492 7.95589 8.72706 10.0062 8.72706Z" fill="#0067D1"/>
<path d="M10 9.25627C11.1593 9.25627 12.2885 9.54909 13.2885 10.0938H7.00211C6.78109 10.0938 6.56913 10.1816 6.41285 10.3378C6.25657 10.4941 6.16877 10.7061 6.16877 10.9271V16.7249H4.09374C3.98655 16.7249 3.88375 16.7675 3.80795 16.8433C3.73216 16.9191 3.68958 17.0219 3.68958 17.1291V18.3916C3.68958 18.4988 3.73216 18.6016 3.80795 18.6774C3.88375 18.7532 3.98655 18.7958 4.09374 18.7958C13.1135 18.7958 18.619 18.7979 3.125 18.7979V16.1354C3.12445 15.2322 3.30188 14.3378 3.64713 13.5032C3.99239 12.6686 4.49871 11.9102 5.13717 11.2714C5.77563 10.6325 6.5337 10.1258 7.36809 9.77999C8.20248 9.43423 9.09681 9.25627 10 9.25627Z" fill="#0067D1"/>
</svg>
