<svg width="20" height="20" viewBox="0 0 20 20" fill="none" xmlns="http://www.w3.org/2000/svg">
<path d="M9.99998 10.9271C11.5924 10.9271 12.8833 9.63615 12.8833 8.04373C12.8833 6.45131 11.5924 5.1604 9.99998 5.1604C8.40756 5.1604 7.11665 6.45131 7.11665 8.04373C7.11665 9.63615 8.40756 10.9271 9.99998 10.9271Z" fill="#0067D1"/>
<path d="M15.3396 16.6791V16.925C15.1521 17.075 14.9562 17.2125 14.7542 17.3417C13.3375 18.257 11.6867 18.7439 9.99998 18.7439C8.31332 18.7439 6.66251 18.257 5.24582 17.3417C5.03748 17.2104 4.8479 17.0729 4.6604 16.925V16.6791C4.6604 15.9779 4.79851 15.2836 5.06685 14.6358C5.33519 13.988 5.7285 13.3993 6.22433 12.9035C6.72015 12.4077 7.30879 12.0144 7.95661 11.746C8.60444 11.4777 9.29878 11.3396 9.99998 11.3396C10.7012 11.3396 11.3955 11.4777 12.0434 11.746C12.6912 12.0144 13.2798 12.4077 13.7756 12.9035C14.2715 13.3993 14.6648 13.988 14.9331 14.6358C15.2015 15.2836 15.3396 15.9779 15.3396 16.6791Z" fill="#0067D1"/>
<path fill-rule="evenodd" clip-rule="evenodd" d="M15.3322 16.3982C15.3003 15.793 15.1656 15.197 14.9332 14.6358C14.6648 13.988 14.2715 13.3993 13.7757 12.9035C13.2798 12.4077 12.6912 12.0144 12.0434 11.746C11.3956 11.4777 10.7012 11.3396 10 11.3396C9.29882 11.3396 8.60448 11.4777 7.95665 11.746C7.30882 12.0144 6.72019 12.4077 6.22437 12.9035C5.72854 13.3993 5.33523 13.988 5.06689 14.6358C4.83479 15.1961 4.70012 15.7913 4.66797 16.3956C3.41882 15.3521 2.50065 13.9639 2.03039 12.4009C1.5297 10.7367 1.56181 8.95765 2.12224 7.31264C2.68268 5.66762 3.74338 4.23897 5.15592 3.22661C6.56846 2.21425 8.26217 1.66882 10 1.66667C11.7387 1.66814 13.4335 2.21343 14.8468 3.22616C16.2601 4.23889 17.3213 5.66835 17.8817 7.3143C18.442 8.96025 18.4735 10.7403 17.9717 12.405C17.5007 13.9677 16.5818 15.3554 15.3322 16.3982ZM12.8834 8.04375C12.8834 9.63617 11.5924 10.9271 10 10.9271C8.4076 10.9271 7.11669 9.63617 7.11669 8.04375C7.11669 6.45133 8.4076 5.16042 10 5.16042C11.5924 5.16042 12.8834 6.45133 12.8834 8.04375Z" fill="white"/>
<path d="M10 1.66667C11.7387 1.66814 13.4335 2.21343 14.8468 3.22616C16.2601 4.23889 17.3213 5.66835 17.8817 7.3143C18.442 8.96025 18.4735 10.7403 17.9717 12.405C17.4699 14.0697 16.46 15.5358 15.0834 16.5979C14.9125 16.7312 14.7292 16.8625 14.5271 16.9937C13.1787 17.866 11.607 18.33 10.0011 18.33C8.39515 18.33 6.82343 17.866 5.47502 16.9937C5.26669 16.8604 5.08752 16.7292 4.91461 16.5938C3.53952 15.5311 2.53108 14.0651 2.03039 12.4009C1.5297 10.7367 1.56181 8.95765 2.12224 7.31264C2.68268 5.66762 3.74338 4.23897 5.15592 3.22661C6.56846 2.21425 8.26217 1.66882 10 1.66667ZM10 1.25C8.17489 1.25187 6.39602 1.82441 4.91244 2.88748C3.42887 3.95055 2.31485 5.45092 1.72634 7.17857C1.13782 8.90622 1.10428 10.7747 1.6304 12.5223C2.15653 14.27 3.21597 15.8094 4.66044 16.925C4.84794 17.075 5.04377 17.2125 5.24586 17.3417C6.66255 18.257 8.31335 18.7439 10 18.7439C11.6867 18.7439 13.3375 18.257 14.7542 17.3417C14.9625 17.2104 15.1521 17.0729 15.3396 16.925C16.7841 15.8094 17.8435 14.27 18.3696 12.5223C18.8958 10.7747 18.8622 8.90622 18.2737 7.17857C17.6852 5.45092 16.5712 3.95055 15.0876 2.88748C13.604 1.82441 11.8252 1.25187 10 1.25Z" fill="#3A424A"/>
</svg>
