<svg width="20" height="20" viewBox="0 0 20 20" fill="none" xmlns="http://www.w3.org/2000/svg">
<path fill-rule="evenodd" clip-rule="evenodd" d="M1.25 17.3453V5.26318H18.75V17.3453C18.75 17.9254 18.2846 18.3958 17.7104 18.3958H2.28958C1.71544 18.3958 1.25 17.9254 1.25 17.3453Z" fill="#0067D1"/>
<path fill-rule="evenodd" clip-rule="evenodd" d="M18.2958 2.23581C18.306 2.23635 18.3155 2.2408 18.3225 2.24825C18.3295 2.25569 18.3333 2.26556 18.3333 2.27581V4.84213H1.66667V2.27581C1.66665 2.26556 1.67054 2.25569 1.67751 2.24825C1.68449 2.2408 1.69403 2.23635 1.70417 2.23581H18.2958ZM2.82917 4.02528C3.09725 4.02528 3.31458 3.80567 3.31458 3.53476C3.31458 3.26385 3.09725 3.04423 2.82917 3.04423C2.56108 3.04423 2.34375 3.26385 2.34375 3.53476C2.34375 3.80567 2.56108 4.02528 2.82917 4.02528ZM4.2875 4.02528C4.55559 4.02528 4.77292 3.80567 4.77292 3.53476C4.77292 3.26385 4.55559 3.04423 4.2875 3.04423C4.01941 3.04423 3.80208 3.26385 3.80208 3.53476C3.80208 3.80567 4.01941 4.02528 4.2875 4.02528ZM6.23125 3.53476C6.23125 3.80567 6.01392 4.02528 5.74583 4.02528C5.47775 4.02528 5.26042 3.80567 5.26042 3.53476C5.26042 3.26385 5.47775 3.04423 5.74583 3.04423C6.01392 3.04423 6.23125 3.26385 6.23125 3.53476Z" fill="white"/>
<path d="M10 8.21052C10.6904 8.21052 11.25 7.64499 11.25 6.94737C11.25 6.87564 11.2441 6.8053 11.2327 6.73684H15V16.8421H5V6.73684H8.76728C8.75591 6.8053 8.75 6.87564 8.75 6.94737C8.75 7.64499 9.30964 8.21052 10 8.21052Z" fill="white"/>
<path d="M2.82917 4.02528C3.09725 4.02528 3.31458 3.80567 3.31458 3.53476C3.31458 3.26385 3.09725 3.04423 2.82917 3.04423C2.56108 3.04423 2.34375 3.26385 2.34375 3.53476C2.34375 3.80567 2.56108 4.02528 2.82917 4.02528Z" fill="#3A424A"/>
<path d="M4.2875 4.02528C4.55559 4.02528 4.77292 3.80567 4.77292 3.53476C4.77292 3.26385 4.55559 3.04423 4.2875 3.04423C4.01941 3.04423 3.80208 3.26385 3.80208 3.53476C3.80208 3.80567 4.01941 4.02528 4.2875 4.02528Z" fill="#3A424A"/>
<path d="M5.74583 4.02528C6.01392 4.02528 6.23125 3.80567 6.23125 3.53476C6.23125 3.26385 6.01392 3.04423 5.74583 3.04423C5.47775 3.04423 5.26042 3.26385 5.26042 3.53476C5.26042 3.80567 5.47775 4.02528 5.74583 4.02528Z" fill="#3A424A"/>
<path d="M18.2958 2.23581C18.306 2.23635 18.3155 2.2408 18.3225 2.24825C18.3295 2.25569 18.3333 2.26556 18.3333 2.27581V4.84213H1.66667V2.27581C1.66665 2.26556 1.67054 2.25569 1.67751 2.24825C1.68449 2.2408 1.69403 2.23635 1.70417 2.23581H18.2958ZM18.2958 1.81476H1.70417C1.58352 1.81531 1.46801 1.86414 1.3829 1.95054C1.29778 2.03694 1.25 2.1539 1.25 2.27581V5.26318H18.75V2.27581C18.75 2.1539 18.7022 2.03694 18.6171 1.95054C18.532 1.86414 18.4165 1.81531 18.2958 1.81476Z" fill="#3A424A"/>
<path fill-rule="evenodd" clip-rule="evenodd" d="M11.6538 7.15789C11.5513 7.98869 10.8499 8.63158 10 8.63158C9.15008 8.63158 8.44875 7.98869 8.34623 7.15789H5.41667V16.421H14.5833V7.15789H11.6538ZM11.2327 7.15788C11.1335 7.7553 10.6194 8.21052 10 8.21052C9.38062 8.21052 8.86646 7.7553 8.76728 7.15788C8.75592 7.08942 8.75 7.01909 8.75 6.94737C8.75 6.87564 8.75591 6.8053 8.76728 6.73684H5V16.8421H15V6.73684H11.2327C11.2441 6.8053 11.25 6.87564 11.25 6.94737C11.25 7.01909 11.2441 7.08942 11.2327 7.15788Z" fill="#3A424A"/>
<path d="M8.13711 15.7895L7.29167 12.6316H7.87529L8.41503 14.9522H8.44282L9.01913 12.6316H9.55009L10.1279 14.9537H10.1542L10.6939 12.6316H11.2776L10.4321 15.7895H9.89675L9.29704 13.5737H9.27364L8.67247 15.7895H8.13711Z" fill="#3A424A"/>
<path d="M11.757 15.7895H11.1777L12.2323 12.6316H12.9023L13.9583 15.7895H13.3791L13.1304 15.0108H12.0042L11.757 15.7895ZM12.1504 14.5513H12.9842L12.579 13.2792H12.5556L12.1504 14.5513Z" fill="#3A424A"/>
</svg>
