<svg width="20" height="20" viewBox="0 0 20 20" fill="none" xmlns="http://www.w3.org/2000/svg">
<path fill-rule="evenodd" clip-rule="evenodd" d="M3.37713 5.92914C3.33027 5.92887 3.28382 5.93789 3.24047 5.9557C3.19713 5.9735 3.15774 5.99974 3.12461 6.03287C3.09147 6.06601 3.06524 6.10539 3.04744 6.14874C3.02963 6.19208 3.0206 6.23853 3.02088 6.28539V13.7146C3.0206 13.7614 3.02963 13.8079 3.04744 13.8512C3.06524 13.8946 3.09147 13.9339 3.12461 13.9671C3.15774 14.0002 3.19713 14.0265 3.24047 14.0443C3.28382 14.0621 3.33027 14.0711 3.37713 14.0708H16.623C16.6698 14.0711 16.7163 14.0621 16.7596 14.0443C16.803 14.0265 16.8424 14.0002 16.8755 13.9671C16.9086 13.9339 16.9349 13.8946 16.9527 13.8512C16.9705 13.8079 16.9795 13.7614 16.9792 13.7146V6.28539C16.9795 6.23853 16.9705 6.19208 16.9527 6.14874C16.9349 6.10539 16.9086 6.06601 16.8755 6.03287C16.8424 5.99974 16.803 5.9735 16.7596 5.9557C16.7163 5.93789 16.6698 5.92887 16.623 5.92914H3.37713ZM4.61877 13.2958C4.45371 12.9244 4.15679 12.6275 3.78544 12.4625V7.52704C4.15679 7.36198 4.45371 7.06505 4.61877 6.69371H15.3813C15.5463 7.06505 15.8433 7.36198 16.2146 7.52704V12.4729C15.8433 12.6379 15.5463 12.9349 15.3813 13.3062L4.61877 13.2958Z" fill="#0067D1"/>
<path d="M5.20212 10.6312C5.55075 10.6312 5.83337 10.3486 5.83337 9.99998C5.83337 9.65135 5.55075 9.36873 5.20212 9.36873C4.85349 9.36873 4.57087 9.65135 4.57087 9.99998C4.57087 10.3486 4.85349 10.6312 5.20212 10.6312Z" fill="#0067D1"/>
<path d="M14.8938 10.6312C15.2424 10.6312 15.525 10.3486 15.525 9.99998C15.525 9.65135 15.2424 9.36873 14.8938 9.36873C14.5452 9.36873 14.2625 9.65135 14.2625 9.99998C14.2625 10.3486 14.5452 10.6312 14.8938 10.6312Z" fill="#0067D1"/>
<path d="M9.99996 1.45835C5.28253 1.45835 1.45829 5.28259 1.45829 10C1.45829 12.2838 2.35457 14.3583 3.81458 15.8908L5.63453 14.0709H3.37705C3.33019 14.0711 3.28374 14.0621 3.24039 14.0443C3.19704 14.0265 3.15766 14.0003 3.12453 13.9671C3.09139 13.934 3.06516 13.8946 3.04735 13.8513C3.02955 13.8079 3.02052 13.7615 3.0208 13.7146V6.28543C3.02052 6.23857 3.02955 6.19212 3.04735 6.14878C3.06516 6.10543 3.09139 6.06605 3.12453 6.03291C3.15766 5.99978 3.19704 5.97355 3.24039 5.95574C3.28374 5.93793 3.33019 5.92891 3.37705 5.92918H13.7762L15.8907 3.81464C14.3582 2.35464 12.2837 1.45835 9.99996 1.45835Z" fill="white"/>
<path d="M4.1092 16.1854L6.22379 14.0709H16.6229C16.6697 14.0711 16.7162 14.0621 16.7595 14.0443C16.8029 14.0265 16.8423 14.0003 16.8754 13.9671C16.9085 13.934 16.9348 13.8946 16.9526 13.8513C16.9704 13.8079 16.9794 13.7615 16.9791 13.7146V6.28543C16.9794 6.23857 16.9704 6.19212 16.9526 6.14878C16.9348 6.10543 16.9085 6.06605 16.8754 6.03291C16.8423 5.99978 16.8029 5.97355 16.7595 5.95574C16.7162 5.93793 16.6697 5.92891 16.6229 5.92918H14.3655L16.1854 4.10927C17.6454 5.64181 18.5416 7.71625 18.5416 10C18.5416 14.7175 14.7174 18.5417 9.99996 18.5417C7.71619 18.5417 5.64175 17.6454 4.1092 16.1854Z" fill="white"/>
<path fill-rule="evenodd" clip-rule="evenodd" d="M3.78536 7.52708C4.1567 7.36202 4.45363 7.06509 4.61869 6.69375H13.0116L11.824 7.88135C11.6086 7.701 11.3665 7.55428 11.106 7.44665C10.7705 7.30804 10.4109 7.23697 10.0479 7.23752C9.50159 7.23793 8.96769 7.4003 8.51368 7.7041C8.05966 8.0079 7.70591 8.43948 7.49714 8.9443C7.28837 9.44912 7.23396 10.0045 7.34079 10.5402C7.4316 10.9956 7.63545 11.4195 7.93189 11.7735L6.40782 13.2976L4.61869 13.2958C4.45363 12.9245 4.1567 12.6276 3.78536 12.4625V7.52708ZM5.83328 10C5.83328 10.3486 5.55066 10.6313 5.20203 10.6313C4.8534 10.6313 4.57078 10.3486 4.57078 10C4.57078 9.65138 4.8534 9.36876 5.20203 9.36876C5.55066 9.36876 5.83328 9.65138 5.83328 10Z" fill="white"/>
<path fill-rule="evenodd" clip-rule="evenodd" d="M15.3812 13.3062L6.99651 13.2981L8.22274 12.0719C8.58781 12.3939 9.03235 12.6144 9.51178 12.7096C10.0476 12.816 10.6029 12.7612 11.1076 12.552C11.6123 12.3429 12.0436 11.9888 12.347 11.5346C12.6505 11.0803 12.8125 10.5463 12.8125 10C12.8127 9.63699 12.7414 9.27747 12.6025 8.94205C12.4859 8.66034 12.3236 8.40028 12.1224 8.17219L13.6009 6.69375H15.3812C15.5463 7.06509 15.8432 7.36202 16.2145 7.52708V12.4729C15.8432 12.638 15.5463 12.9349 15.3812 13.3062ZM15.5249 10C15.5249 10.3486 15.2423 10.6313 14.8937 10.6313C14.5451 10.6313 14.2624 10.3486 14.2624 10C14.2624 9.65138 14.5451 9.36876 14.8937 9.36876C15.2423 9.36876 15.5249 9.65138 15.5249 10Z" fill="white"/>
<path d="M11.5293 8.17607C11.4727 8.13029 11.4138 8.08703 11.3528 8.04649C10.9663 7.78948 10.5121 7.65295 10.0479 7.65419C9.42714 7.65694 8.83271 7.90517 8.39437 8.34468C7.95603 8.78419 7.70938 9.37928 7.70829 10C7.70829 10.4642 7.84603 10.918 8.10407 11.3039C8.14361 11.3631 8.1857 11.4202 8.23018 11.4752L9.6869 10.0185C9.56453 9.96864 9.45067 9.89918 9.34996 9.81252C9.28949 9.75726 9.24177 9.68951 9.21011 9.61396C9.17846 9.53841 9.16362 9.45688 9.16662 9.37502C9.16426 9.23622 9.20503 9.1001 9.28329 8.98544C9.36991 8.87201 9.48388 8.78242 9.61454 8.72502C9.72043 8.67907 9.83294 8.65024 9.94787 8.6396V8.33335H10.152V8.6271C10.2815 8.63201 10.4088 8.66172 10.527 8.7146C10.6302 8.7591 10.7224 8.82504 10.7977 8.90771L11.5293 8.17607Z" fill="white"/>
<path d="M11.8288 8.46587L10.9726 9.32202C10.9727 9.3251 10.9728 9.32819 10.9729 9.33127H10.9634L10.3856 9.90901C10.4205 9.92045 10.4552 9.93273 10.4895 9.94585C10.5769 9.98003 10.6601 10.0241 10.7375 10.0771C10.8161 10.132 10.8821 10.2031 10.9312 10.2854C10.9863 10.3824 11.0137 10.4927 11.0104 10.6042C11.0114 10.7432 10.9716 10.8794 10.8958 10.9959C10.8151 11.1185 10.7008 11.2154 10.5666 11.275C10.4354 11.3348 10.294 11.3687 10.15 11.375V11.6667H9.94162V11.3896C9.80592 11.3847 9.67235 11.3543 9.54787 11.3C9.42424 11.2485 9.31577 11.1667 9.23244 11.0622L8.51998 11.7747C8.70915 11.9382 8.92428 12.0713 9.15786 12.1679C9.58687 12.3452 10.0589 12.3913 10.5141 12.3003C10.9693 12.2093 11.3873 11.9852 11.7151 11.6566C12.0429 11.3279 12.2658 10.9093 12.3556 10.4538C12.4454 9.99837 12.3981 9.5265 12.2196 9.09797C12.1232 8.86659 11.9909 8.65346 11.8288 8.46587Z" fill="white"/>
<path d="M10.5794 9.12601C10.5487 9.08433 10.5105 9.04864 10.4666 9.02085C10.3713 8.96217 10.2636 8.92651 10.152 8.91669V9.55334L10.5794 9.12601Z" fill="white"/>
<path d="M9.94996 8.92502V9.75543L9.92185 9.78353C9.89622 9.77535 9.85722 9.76251 9.83121 9.7521C9.77109 9.73228 9.71369 9.70498 9.66037 9.67085C9.60745 9.63912 9.56254 9.59564 9.52912 9.54377C9.4931 9.48957 9.47489 9.42548 9.47704 9.36044C9.47521 9.27807 9.50087 9.19744 9.54996 9.13127C9.60313 9.05995 9.67534 9.00507 9.75829 8.97294C9.8207 8.95156 9.88482 8.93553 9.94996 8.92502Z" fill="white"/>
<path d="M9.95204 10.3426L9.47436 10.8203C9.48936 10.8487 9.5077 10.8755 9.52912 10.9C9.59158 10.9681 9.67049 11.0191 9.75829 11.0479C9.82169 11.0668 9.88647 11.0808 9.95204 11.0896V10.3426Z" fill="white"/>
<path d="M10.1562 10.1584V11.0917L10.1666 11.0875C10.2423 11.0757 10.3169 11.0576 10.3895 11.0334C10.4814 10.9977 10.5626 10.9388 10.625 10.8625C10.6806 10.7852 10.7071 10.6908 10.7 10.5959C10.702 10.5198 10.676 10.4457 10.627 10.3875C10.5692 10.3261 10.4979 10.279 10.4187 10.25C10.3339 10.2123 10.2461 10.1816 10.1562 10.1584Z" fill="white"/>
<path fill-rule="evenodd" clip-rule="evenodd" d="M1.04163 10C1.04163 5.05247 5.05241 1.04169 9.99996 1.04169C14.9475 1.04169 18.9583 5.05247 18.9583 10C18.9583 14.9476 14.9475 18.9584 9.99996 18.9584C5.05241 18.9584 1.04163 14.9476 1.04163 10ZM9.99996 1.45835C5.28253 1.45835 1.45829 5.28259 1.45829 10C1.45829 12.2838 2.35457 14.3583 3.81458 15.8908L7.93189 11.7735C7.63545 11.4195 7.4316 10.9956 7.34079 10.5402C7.23396 10.0045 7.28837 9.44912 7.49714 8.9443C7.70591 8.43948 8.05966 8.0079 8.51368 7.7041C8.96769 7.4003 9.50159 7.23793 10.0479 7.23752C10.4109 7.23697 10.7705 7.30804 11.106 7.44665C11.3665 7.55428 11.6086 7.701 11.824 7.88135L15.8907 3.81464C14.3582 2.35464 12.2837 1.45835 9.99996 1.45835ZM11.5293 8.17607C11.4727 8.13029 11.4138 8.08703 11.3528 8.04649C10.9663 7.78948 10.5121 7.65295 10.0479 7.65419C9.42714 7.65694 8.83271 7.90517 8.39437 8.34468C7.95603 8.78419 7.70938 9.37928 7.70829 10C7.70829 10.4642 7.84603 10.918 8.10407 11.3039C8.14361 11.3631 8.1857 11.4202 8.23018 11.4752L9.6869 10.0185C9.56453 9.96864 9.45067 9.89918 9.34996 9.81252C9.28949 9.75726 9.24177 9.68951 9.21011 9.61396C9.17846 9.53841 9.16362 9.45688 9.16662 9.37502C9.16426 9.23622 9.20503 9.1001 9.28329 8.98544C9.36991 8.87201 9.48388 8.78242 9.61454 8.72502C9.72043 8.67907 9.83294 8.65024 9.94787 8.6396V8.33335H10.152V8.6271C10.2815 8.63201 10.4088 8.66172 10.527 8.7146C10.6302 8.7591 10.7224 8.82504 10.7977 8.90771L11.5293 8.17607ZM10.9726 9.32202L11.8288 8.46587C11.9909 8.65346 12.1232 8.86659 12.2196 9.09797C12.3981 9.5265 12.4454 9.99837 12.3556 10.4538C12.2658 10.9093 12.0429 11.3279 11.7151 11.6566C11.3873 11.9852 10.9693 12.2093 10.5141 12.3003C10.0589 12.3913 9.58687 12.3452 9.15786 12.1679C8.92428 12.0713 8.70915 11.9382 8.51998 11.7747L9.23244 11.0622C9.31577 11.1667 9.42424 11.2485 9.54787 11.3C9.67235 11.3543 9.80592 11.3847 9.94162 11.3896V11.6667H10.15V11.375C10.294 11.3687 10.4354 11.3348 10.5666 11.275C10.7008 11.2154 10.8151 11.1185 10.8958 10.9959C10.9716 10.8794 11.0114 10.7432 11.0104 10.6042C11.0137 10.4927 10.9863 10.3824 10.9312 10.2854C10.8821 10.2031 10.8161 10.132 10.7375 10.0771C10.6601 10.0241 10.5769 9.98003 10.4895 9.94585C10.4552 9.93273 10.4205 9.92045 10.3856 9.90901L10.9634 9.33127H10.9729C10.9728 9.32819 10.9727 9.3251 10.9726 9.32202ZM10.5794 9.12601C10.5487 9.08433 10.5105 9.04864 10.4666 9.02085C10.3713 8.96217 10.2636 8.92651 10.152 8.91669V9.55334L10.5794 9.12601ZM9.94996 9.75543V8.92502C9.88482 8.93553 9.8207 8.95156 9.75829 8.97294C9.67534 9.00507 9.60313 9.05995 9.54996 9.13127C9.50087 9.19744 9.47521 9.27807 9.47704 9.36044C9.47489 9.42548 9.4931 9.48957 9.52912 9.54377C9.56254 9.59564 9.60745 9.63912 9.66037 9.67085C9.71369 9.70498 9.77109 9.73228 9.83121 9.7521C9.85722 9.76251 9.89622 9.77535 9.92185 9.78353L9.94996 9.75543ZM9.95204 10.3426L9.47436 10.8203C9.48936 10.8487 9.5077 10.8755 9.52912 10.9C9.59158 10.9681 9.67049 11.0191 9.75829 11.0479C9.82169 11.0668 9.88647 11.0808 9.95204 11.0896V10.3426ZM8.22274 12.0719C8.58781 12.3939 9.03235 12.6144 9.51178 12.7096C10.0476 12.816 10.6029 12.7612 11.1076 12.552C11.6123 12.3429 12.0436 11.9888 12.347 11.5346C12.6505 11.0803 12.8125 10.5463 12.8125 10C12.8127 9.63699 12.7414 9.27747 12.6025 8.94205C12.4859 8.66034 12.3236 8.40028 12.1224 8.17219L16.1854 4.10927C17.6454 5.64181 18.5416 7.71625 18.5416 10C18.5416 14.7175 14.7174 18.5417 9.99996 18.5417C7.71619 18.5417 5.64175 17.6454 4.1092 16.1854L8.22274 12.0719ZM10.1562 10.1584V11.0917L10.1666 11.0875C10.2423 11.0757 10.3169 11.0576 10.3895 11.0334C10.4814 10.9977 10.5626 10.9388 10.625 10.8625C10.6806 10.7852 10.7071 10.6908 10.7 10.5959C10.702 10.5198 10.676 10.4457 10.627 10.3875C10.5692 10.3261 10.4979 10.279 10.4187 10.25C10.3339 10.2123 10.2461 10.1816 10.1562 10.1584Z" fill="#3A424A"/>
</svg>
