<svg width="18" height="20" viewBox="0 0 18 20" fill="none" xmlns="http://www.w3.org/2000/svg">
<g clip-path="url(#clip0_70_2013)">
<path d="M10.4011 2.53893V1.08542H10.9202V0H6.61633V1.08542H7.13544V2.54837C3.07692 3.32232 0 6.89948 0 11.194C0 16.0547 3.94526 20 8.80604 20C13.6668 20 17.6121 16.0547 17.6121 11.194C17.6121 6.8806 14.5068 3.28457 10.4011 2.53893ZM9.05144 15.715V15.2053H8.54177V15.7055C6.24823 15.5734 4.41718 13.7235 4.29448 11.4299H4.80415V10.9202H4.30392C4.43605 8.63615 6.26711 6.81454 8.5512 6.67296V7.1732H9.06088V6.66352C11.3639 6.78622 13.2138 8.62671 13.3365 10.9297H12.8268V11.4394H13.3365C13.1949 13.7518 11.3544 15.6017 9.05144 15.715Z" fill="#3A424A"/>
<path d="M10.656 9.042L9.08919 10.4106C8.7966 10.3067 8.45682 10.3728 8.22086 10.6088C7.89051 10.9391 7.89051 11.4677 8.22086 11.7886C8.5512 12.1189 9.07975 12.1189 9.40066 11.7886C9.63662 11.5526 9.70269 11.2128 9.59887 10.9202L10.9863 9.37235L10.656 9.042Z" fill="#3A424A"/>
</g>
<defs>
<clipPath id="clip0_70_2013">
<rect width="17.6121" height="20" fill="white"/>
</clipPath>
</defs>
</svg>
