<svg width="20" height="20" viewBox="0 0 20 20" fill="none" xmlns="http://www.w3.org/2000/svg">
<g clip-path="url(#clip0_70_2001)">
<path d="M13.6124 12.2631H15.1788V11.4657H14.6595V6.25H13.6124V12.2631Z" fill="#3A424A"/>
<path d="M0 11.4657H0.533485V8.94864H0V8.25624L0.533485 8.16827V7.46737C0.533485 6.6189 0.717934 6.25 1.79909 6.25C2.03178 6.25 2.30988 6.28405 2.55392 6.32946L2.40919 7.1836C2.24461 7.15806 2.16232 7.15238 2.06016 7.15238C1.67991 7.15238 1.58343 7.18927 1.58343 7.56385V8.17111H2.37514V8.95148H1.58343V11.4685H2.11124V12.2659H0.00283768V11.4657H0Z" fill="#3A424A"/>
<path d="M13.0761 11.2131C12.9115 11.2472 12.7696 11.2443 12.6646 11.2472C12.2333 11.2585 12.2701 11.1166 12.2701 10.708V8.94864H13.0931V8.16827H12.2701V6.25H11.2202V10.9265C11.2202 11.8459 11.4472 12.2631 12.4347 12.2631C12.6674 12.2631 12.9909 12.2035 13.2321 12.1495L13.0761 11.2131Z" fill="#3A424A"/>
<path d="M19.597 11.4713C19.8184 11.4713 19.9972 11.6473 19.9972 11.8686C19.9972 12.09 19.8184 12.2631 19.597 12.2631C19.3757 12.2631 19.1998 12.0871 19.1998 11.8686C19.1998 11.6444 19.3785 11.4713 19.597 11.4713ZM19.597 12.2006C19.7815 12.2006 19.9291 12.0502 19.9291 11.8658C19.9291 11.6813 19.7787 11.5366 19.597 11.5366C19.4126 11.5366 19.265 11.6813 19.265 11.8658C19.265 12.0502 19.4154 12.2006 19.597 12.2006ZM19.6708 12.0616L19.5914 11.9452H19.5346V12.0616H19.4467V11.6728H19.6084C19.7049 11.6728 19.7645 11.7211 19.7645 11.8062C19.7645 11.8686 19.7333 11.9112 19.6822 11.9282L19.7787 12.0616H19.6708ZM19.5346 11.8658H19.6056C19.6453 11.8658 19.6737 11.8488 19.6737 11.8062C19.6737 11.7665 19.6453 11.7494 19.6084 11.7494H19.5346V11.8658Z" fill="#3A424A"/>
<path d="M9.91203 8.9458V8.80675C9.59421 8.75 9.27923 8.74716 9.10897 8.74716C8.62088 8.74716 8.56129 9.00539 8.56129 9.14728C8.56129 9.34591 8.6294 9.45375 9.15721 9.57009C9.9319 9.74319 10.7066 9.9248 10.7066 10.8839C10.7066 11.7948 10.2384 12.2631 9.25369 12.2631C8.59535 12.2631 7.95403 12.1212 7.46595 11.9963V11.2131H8.2605V11.3522C8.60386 11.4174 8.96141 11.4117 9.14869 11.4117C9.67083 11.4117 9.75312 11.1308 9.75312 10.9833C9.75312 10.7761 9.60273 10.6768 9.11464 10.5775C8.19523 10.4214 7.46311 10.1064 7.46311 9.17281C7.46311 8.28746 8.05619 7.94126 9.04086 7.94126C9.70772 7.94126 10.2157 8.04342 10.7037 8.16827V8.9458H9.91203Z" fill="#3A424A"/>
<path d="M4.99432 9.57293L4.6084 9.91061C4.53746 9.88507 4.45233 9.9021 4.39557 9.95885C4.31612 10.0383 4.31612 10.1688 4.39557 10.2483C4.47503 10.3278 4.60556 10.3278 4.68502 10.2483C4.74177 10.1915 4.7588 10.1064 4.73326 10.0355L5.07378 9.65522L4.99432 9.57293Z" fill="#3A424A"/>
<path d="M6.68842 7.94694H5.63848V8.24205C5.42282 8.11436 5.18445 8.02355 4.9319 7.97815V7.6206H5.05959V7.35386H4.00397V7.6206H4.13167V7.98099C3.1328 8.17111 2.37798 9.04796 2.37798 10.1036C2.37798 11.2982 3.34563 12.2659 4.5403 12.2659C4.94325 12.2659 5.3235 12.1552 5.64699 11.9623L5.83428 12.2659H6.94381V11.2159H6.68842V7.94694ZM5.64983 10.166C5.61862 10.7307 5.16459 11.1819 4.59989 11.2131V11.0883H4.47503V11.2131C3.91317 11.1791 3.46198 10.7279 3.4336 10.1632H3.55846V10.0383H3.4336C3.46765 9.47929 3.916 9.03093 4.47503 8.99688V9.12174H4.59989V8.99688C5.16459 9.02526 5.61862 9.47929 5.64983 10.044H5.52497V10.1688H5.64983V10.166Z" fill="#3A424A"/>
<path d="M17.8348 8.16827H20V8.94864H19.4835L18.1555 12.2148C17.7753 13.1314 17.151 13.9969 16.1975 13.9969C15.9648 13.9969 15.6527 13.9713 15.437 13.9203L15.5306 12.9668C15.6697 12.9923 15.8513 13.0094 15.945 13.0094C16.3876 13.0094 16.8842 12.7369 17.0403 12.2602L15.6952 8.94864H15.1788V8.16827H17.3439V8.94864H16.8275L17.5908 10.8243L18.3541 8.94864H17.8377V8.16827H17.8348Z" fill="#3A424A"/>
</g>
<defs>
<clipPath id="clip0_70_2001">
<rect width="20" height="20" fill="white"/>
</clipPath>
</defs>
</svg>
