<svg width="20" height="20" viewBox="0 0 20 20" fill="none" xmlns="http://www.w3.org/2000/svg">
<path d="M11.3609 3.28504V1.97688H11.8281V1H7.95457V1.97688H8.42177V3.29353C4.76911 3.99009 1.99988 7.20953 1.99988 11.0746C1.99988 15.4493 5.55061 19 9.92531 19C14.3 19 17.8507 15.4493 17.8507 11.0746C17.8507 7.19254 15.056 3.95611 11.3609 3.28504ZM10.1462 15.1435V14.6848H9.68747V15.135C7.62328 15.016 5.97534 13.3511 5.86491 11.2869H6.32362V10.8282H5.8734C5.99233 8.77253 7.64027 7.13308 9.69596 7.00566V7.45588H10.1547V6.99717C12.2273 7.1076 13.8923 8.76404 14.0027 10.8367H13.544V11.2954H14.0027C13.8753 13.3766 12.2188 15.0415 10.1462 15.1435Z" fill="#3A424A"/>
<path d="M11.5902 9.13779L10.1801 10.3695C9.9168 10.2761 9.611 10.3355 9.39864 10.5479C9.10133 10.8452 9.10133 11.3209 9.39864 11.6097C9.69595 11.907 10.1716 11.907 10.4605 11.6097C10.6728 11.3973 10.7323 11.0915 10.6388 10.8282L11.8875 9.4351L11.5902 9.13779Z" fill="#3A424A"/>
</svg>
