<svg width="20" height="8" viewBox="0 0 20 8" fill="none" xmlns="http://www.w3.org/2000/svg">
<g clip-path="url(#clip0_70_2018)">
<path d="M13.6124 6.01305H15.1788V5.21566H14.6595V0H13.6124V6.01305Z" fill="#3A424A"/>
<path d="M0 5.21566H0.533485V2.69864H0V2.00624L0.533485 1.91827V1.21737C0.533485 0.368899 0.717934 0 1.79909 0C2.03178 0 2.30988 0.0340522 2.55392 0.0794552L2.40919 0.933598C2.24461 0.908059 2.16232 0.902384 2.06016 0.902384C1.67991 0.902384 1.58343 0.939274 1.58343 1.31385V1.92111H2.37514V2.70148H1.58343V5.2185H2.11124V6.01589H0.00283768V5.21566H0Z" fill="#3A424A"/>
<path d="M13.076 4.96311C12.9115 4.99716 12.7696 4.99433 12.6646 4.99716C12.2333 5.00851 12.2701 4.86663 12.2701 4.458V2.69864H13.0931V1.91827H12.2701V0H11.2202V4.6765C11.2202 5.59591 11.4472 6.01305 12.4347 6.01305C12.6674 6.01305 12.9909 5.95346 13.2321 5.89955L13.076 4.96311Z" fill="#3A424A"/>
<path d="M19.597 5.22134C19.8184 5.22134 19.9972 5.39728 19.9972 5.61862C19.9972 5.83995 19.8184 6.01305 19.597 6.01305C19.3757 6.01305 19.1998 5.83712 19.1998 5.61862C19.1998 5.39444 19.3785 5.22134 19.597 5.22134ZM19.597 5.95062C19.7815 5.95062 19.9291 5.80023 19.9291 5.61578C19.9291 5.43133 19.7787 5.28661 19.597 5.28661C19.4126 5.28661 19.265 5.43133 19.265 5.61578C19.265 5.80023 19.4154 5.95062 19.597 5.95062ZM19.6708 5.81158L19.5914 5.69523H19.5346V5.81158H19.4467V5.42281H19.6084C19.7049 5.42281 19.7645 5.47106 19.7645 5.55619C19.7645 5.61862 19.7333 5.66118 19.6822 5.67821L19.7787 5.81158H19.6708ZM19.5346 5.61578H19.6056C19.6453 5.61578 19.6737 5.59875 19.6737 5.55619C19.6737 5.51646 19.6453 5.49943 19.6084 5.49943H19.5346V5.61578Z" fill="#3A424A"/>
<path d="M9.91203 2.6958V2.55675C9.59421 2.5 9.27923 2.49716 9.10897 2.49716C8.62088 2.49716 8.56129 2.75539 8.56129 2.89728C8.56129 3.09591 8.6294 3.20375 9.15721 3.32009C9.9319 3.49319 10.7066 3.6748 10.7066 4.63394C10.7066 5.54484 10.2384 6.01305 9.25369 6.01305C8.59535 6.01305 7.95403 5.87117 7.46595 5.74631V4.96311H8.2605V5.10216C8.60386 5.16742 8.96141 5.16175 9.14869 5.16175C9.67083 5.16175 9.75312 4.88082 9.75312 4.73326C9.75312 4.52611 9.60272 4.42679 9.11464 4.32747C8.19523 4.1714 7.46311 3.85641 7.46311 2.92282C7.46311 2.03746 8.05619 1.69126 9.04086 1.69126C9.70772 1.69126 10.2157 1.79342 10.7037 1.91827V2.6958H9.91203Z" fill="#3A424A"/>
<path d="M4.99432 3.32293L4.6084 3.66061C4.53746 3.63507 4.45233 3.6521 4.39557 3.70885C4.31612 3.78831 4.31612 3.91884 4.39557 3.9983C4.47503 4.07775 4.60556 4.07775 4.68502 3.9983C4.74177 3.94154 4.7588 3.85641 4.73326 3.78547L5.07378 3.40522L4.99432 3.32293Z" fill="#3A424A"/>
<path d="M6.68842 1.69694H5.63848V1.99205C5.42282 1.86436 5.18445 1.77355 4.9319 1.72815V1.3706H5.05959V1.10386H4.00397V1.3706H4.13167V1.73099C3.1328 1.92111 2.37798 2.79796 2.37798 3.85358C2.37798 5.04824 3.34563 6.01589 4.5403 6.01589C4.94325 6.01589 5.3235 5.90522 5.64699 5.71226L5.83428 6.01589H6.94381V4.96595H6.68842V1.69694ZM5.64983 3.916C5.61862 4.4807 5.16459 4.9319 4.59989 4.96311V4.83825H4.47503V4.96311C3.91317 4.92906 3.46198 4.47787 3.4336 3.91317H3.55846V3.78831H3.4336C3.46765 3.22929 3.916 2.78093 4.47503 2.74688V2.87174H4.59989V2.74688C5.16459 2.77526 5.61862 3.22928 5.64983 3.79398H5.52497V3.91884H5.64983V3.916Z" fill="#3A424A"/>
<path d="M17.8348 1.91827H20V2.69864H19.4835L18.1555 5.96481C17.7753 6.88139 17.151 7.74688 16.1975 7.74688C15.9648 7.74688 15.6527 7.72134 15.437 7.67026L15.5306 6.7168C15.6697 6.74234 15.8513 6.75937 15.9449 6.75937C16.3876 6.75937 16.8842 6.48695 17.0403 6.01022L15.6952 2.69864H15.1788V1.91827H17.3439V2.69864H16.8275L17.5908 4.57435L18.3541 2.69864H17.8377V1.91827H17.8348Z" fill="#3A424A"/>
</g>
<defs>
<clipPath id="clip0_70_2018">
<rect width="20" height="7.74404" fill="white"/>
</clipPath>
</defs>
</svg>
