<svg width="20" height="20" viewBox="0 0 20 20" fill="none" xmlns="http://www.w3.org/2000/svg">
<path fill-rule="evenodd" clip-rule="evenodd" d="M4.16666 4.25287C4.16666 4.45781 4.25246 4.65625 4.41494 4.78705C4.69264 5.0424 5.1218 5.04876 5.40661 4.80866C6.67333 3.73271 8.30066 3.13313 9.95969 3.13313C11.656 3.13313 13.3028 3.75039 14.5896 4.8649C14.8525 5.1245 15.2924 5.11248 15.5823 4.86811C15.7555 4.69923 15.8333 4.52707 15.8333 4.31232C15.8333 4.11275 15.7514 3.92134 15.6033 3.77565C14.0258 2.41184 12.0238 1.66669 9.95969 1.66669C7.93529 1.66669 5.95492 2.39231 4.41676 3.69789C4.2557 3.81562 4.16666 4.02361 4.16666 4.25287ZM9.97987 7.05716C8.32972 7.05716 6.98766 8.38412 6.98766 10.0001C6.98766 11.616 8.32972 12.943 9.97987 12.943C11.6365 12.943 12.9721 11.6294 12.9721 10.0001C12.9721 8.37072 11.6365 7.05716 9.97987 7.05716ZM9.97981 8.13714C11.0276 8.13714 11.8739 8.96948 11.8739 10C11.8739 11.0305 11.0276 11.8629 9.97981 11.8629C8.93202 11.8629 8.08573 11.0305 8.08573 10C8.08573 8.96948 8.93202 8.13714 9.97981 8.13714ZM4.43703 15.2501C4.28818 15.3965 4.20696 15.5663 4.20696 15.767C4.20696 15.9996 4.29983 16.2025 4.47945 16.3437C6.02017 17.6307 7.96021 18.3334 9.97984 18.3334C12.0341 18.3334 14.0133 17.6014 15.5655 16.2604C15.7241 16.1448 15.8132 15.9368 15.8132 15.7075C15.8132 15.4937 15.7197 15.2869 15.5432 15.1566C15.3088 14.9209 14.8802 14.9095 14.572 15.1368C13.2916 16.242 11.6476 16.8471 9.95969 16.8471C8.31602 16.8471 6.70869 16.2642 5.44549 15.21C5.11978 14.9689 4.71128 14.9804 4.43703 15.2501ZM6.14134 13.8447C6.23172 14.2054 6.30195 14.3499 6.48351 14.4638C7.49232 15.2189 8.69475 15.6183 9.95969 15.6183C11.2536 15.6183 12.5252 15.1736 13.5389 14.3676C13.7234 14.189 13.8183 14.0022 13.8183 13.7852C13.8183 13.5713 13.7249 13.3645 13.5483 13.2343C13.3219 13.0064 12.9185 12.9831 12.6245 13.1896C11.8484 13.8032 10.9035 14.1321 9.93954 14.1321C9.00606 14.1321 8.11564 13.8293 7.34337 13.255C7.0412 13.0425 6.63773 13.0659 6.37141 13.3278C6.22256 13.4742 6.14134 13.644 6.14134 13.8447ZM6.37141 6.67223L6.3924 6.69135C6.66037 6.91725 7.05033 6.95109 7.33522 6.75095C8.11456 6.15312 9.00248 5.84817 9.95969 5.84817C10.9472 5.84817 11.8891 6.17902 12.6435 6.79428C12.933 7.0384 13.3539 7.00187 13.6286 6.73168C13.7774 6.58529 13.8586 6.41553 13.8586 6.21483C13.8586 5.99786 13.7637 5.81102 13.6084 5.65834C12.5751 4.81301 11.2841 4.3619 9.95969 4.3619C8.67088 4.3619 7.44035 4.78357 6.42456 5.57006C6.23421 5.71982 6.14134 5.9228 6.14134 6.15538C6.14134 6.35607 6.22256 6.52584 6.37141 6.67223Z" fill="#3A424A"/>
</svg>
