<svg width="20" height="20" viewBox="0 0 20 20" fill="none" xmlns="http://www.w3.org/2000/svg">
<path d="M3 16V4.49415C3 4.08138 3.14696 3.72917 3.44088 3.4375C3.73479 3.14583 4.08811 3 4.50083 3H13.5059C13.9186 3 14.2708 3.14688 14.5625 3.44063C14.8542 3.73438 15 4.0875 15 4.5V8V7.96875V7.97917C14.75 8.00694 14.4965 8.03819 14.2396 8.07292C13.9826 8.10764 13.7361 8.16667 13.5 8.25V4.5H4.5V12H10.1042C10.0764 12.1389 10.0521 12.2708 10.0312 12.3958C10.0104 12.5208 10 12.6528 10 12.7917V13.1458C10 13.2708 10.0139 13.3889 10.0417 13.5H5.5L3 16ZM6 7.5H12V6H6V7.5ZM6 10.5H10V9H6V10.5ZM14.25 16V13.75H12V12.25H14.25V10H15.75V12.25H18V13.75H15.75V16H14.25Z" fill="#3A424A"/>
</svg>
