<svg width="20" height="20" viewBox="0 0 20 20" fill="none" xmlns="http://www.w3.org/2000/svg">
<path d="M1 15.5234C1.125 14.0373 1.58 12.6693 2.365 11.4193C3.14944 10.1693 4.19444 9.17622 5.5 8.4401L3.95833 5.77344C3.875 5.64844 3.85417 5.51649 3.89583 5.3776C3.9375 5.23872 4.02778 5.13455 4.16667 5.0651C4.27778 4.99566 4.40278 4.98177 4.54167 5.02344C4.68056 5.0651 4.79167 5.14844 4.875 5.27344L6.41667 7.9401C7.61111 7.4401 8.86111 7.1901 10.1667 7.1901C11.4722 7.1901 12.7222 7.4401 13.9167 7.9401L15.4583 5.27344C15.5417 5.14844 15.6528 5.0651 15.7917 5.02344C15.9306 4.98177 16.0556 4.99566 16.1667 5.0651C16.3056 5.13455 16.3958 5.23872 16.4375 5.3776C16.4792 5.51649 16.4583 5.64844 16.375 5.77344L14.8333 8.4401C16.1389 9.17622 17.1842 10.1693 17.9692 11.4193C18.7536 12.6693 19.2083 14.0373 19.3333 15.5234H1ZM6 13.2318C6.29167 13.2318 6.53833 13.1309 6.74 12.9293C6.94111 12.7282 7.04167 12.4818 7.04167 12.1901C7.04167 11.8984 6.94111 11.652 6.74 11.4509C6.53833 11.2493 6.29167 11.1484 6 11.1484C5.70833 11.1484 5.46194 11.2493 5.26083 11.4509C5.05917 11.652 4.95833 11.8984 4.95833 12.1901C4.95833 12.4818 5.05917 12.7282 5.26083 12.9293C5.46194 13.1309 5.70833 13.2318 6 13.2318ZM14.3333 13.2318C14.625 13.2318 14.8717 13.1309 15.0733 12.9293C15.2744 12.7282 15.375 12.4818 15.375 12.1901C15.375 11.8984 15.2744 11.652 15.0733 11.4509C14.8717 11.2493 14.625 11.1484 14.3333 11.1484C14.0417 11.1484 13.7953 11.2493 13.5942 11.4509C13.3925 11.652 13.2917 11.8984 13.2917 12.1901C13.2917 12.4818 13.3925 12.7282 13.5942 12.9293C13.7953 13.1309 14.0417 13.2318 14.3333 13.2318Z" fill="#3A424A"/>
</svg>
