<svg width="20" height="20" viewBox="0 0 20 20" fill="none" xmlns="http://www.w3.org/2000/svg">
<path d="M15.293 10.2461C15.2852 8.8125 15.9336 7.73047 17.2461 6.93359C16.5117 5.88281 15.4023 5.30469 13.9375 5.19141C12.5508 5.08203 11.0352 6 10.4805 6C9.89453 6 8.55078 5.23047 7.49609 5.23047C5.31641 5.26562 3 6.96875 3 10.4336C3 11.457 3.1875 12.5143 3.5625 13.6055C4.0625 15.0391 5.86719 18.5547 7.75 18.4961C8.73438 18.4727 9.42969 17.7969 10.7109 17.7969C11.9531 17.7969 12.5977 18.4961 13.6953 18.4961C15.5937 18.4688 17.2266 15.2734 17.7031 13.8359C15.1562 12.6367 15.293 10.3203 15.293 10.2461ZM13.082 3.83203C14.1484 2.56641 14.0508 1.41406 14.0195 1C13.0781 1.05469 11.9883 1.64063 11.3672 2.36328C10.6836 3.13672 10.2812 4.09375 10.3672 5.17188C11.3867 5.25 12.3164 4.72656 13.082 3.83203Z" fill="#3A424A"/>
</svg>
