<svg width="20" height="20" viewBox="0 0 20 20" fill="none" xmlns="http://www.w3.org/2000/svg">
<path d="M10 14C10.208 14 10.385 13.927 10.531 13.781C10.677 13.635 10.75 13.458 10.75 13.25C10.75 13.042 10.677 12.865 10.531 12.719C10.385 12.573 10.208 12.5 10 12.5C9.792 12.5 9.615 12.573 9.469 12.719C9.323 12.865 9.25 13.042 9.25 13.25C9.25 13.458 9.323 13.635 9.469 13.781C9.615 13.927 9.792 14 10 14ZM9.25 11H10.75V6H9.25V11ZM10 18C8.90267 18 7.868 17.7917 6.896 17.375C5.924 16.9583 5.07333 16.3853 4.344 15.656C3.61467 14.9267 3.04167 14.076 2.625 13.104C2.20833 12.132 2 11.0973 2 10C2 8.88867 2.20833 7.85033 2.625 6.885C3.04167 5.92033 3.61467 5.07333 4.344 4.344C5.07333 3.61467 5.924 3.04167 6.896 2.625C7.868 2.20833 8.90267 2 10 2C11.1113 2 12.1497 2.20833 13.115 2.625C14.0797 3.04167 14.9267 3.61467 15.656 4.344C16.3853 5.07333 16.9583 5.92033 17.375 6.885C17.7917 7.85033 18 8.88867 18 10C18 11.0973 17.7917 12.132 17.375 13.104C16.9583 14.076 16.3853 14.9267 15.656 15.656C14.9267 16.3853 14.0797 16.9583 13.115 17.375C12.1497 17.7917 11.1113 18 10 18Z" fill="#3A424A"/>
</svg>
