<svg width="20" height="20" viewBox="0 0 20 20" fill="none" xmlns="http://www.w3.org/2000/svg">
<path d="M8.29167 12.75L10 11.0417L11.7083 12.75L12.75 11.7083L11.0417 10L12.75 8.29167L11.7083 7.25L10 8.95833L8.29167 7.25L7.25 8.29167L8.95833 10L7.25 11.7083L8.29167 12.75ZM10 18C8.125 17.5417 6.57292 16.4792 5.34375 14.8125C4.11458 13.1458 3.5 11.2986 3.5 9.27083V4.5L10 2L16.5 4.5V9.27083C16.5 11.2986 15.8854 13.1458 14.6562 14.8125C13.4271 16.4792 11.875 17.5417 10 18ZM10 16.4375C11.4444 15.9931 12.6389 15.0972 13.5833 13.75C14.5278 12.4028 15 10.9097 15 9.27083V5.52083L10 3.60417L5 5.52083V9.27083C5 10.9097 5.47222 12.4028 6.41667 13.75C7.36111 15.0972 8.55556 15.9931 10 16.4375Z" fill="#3A424A"/>
</svg>
