<svg width="20" height="20" viewBox="0 0 20 20" fill="none" xmlns="http://www.w3.org/2000/svg">
<path d="M4.5 18C4.08333 18 3.72933 17.8507 3.438 17.552C3.146 17.2533 3 16.9027 3 16.5V5.5C3 5.09733 3.146 4.74667 3.438 4.448C3.72933 4.14933 4.08333 4 4.5 4H6V2H7.5V4H12.5V2H14V4H15.5C15.9167 4 16.2707 4.14933 16.562 4.448C16.854 4.74667 17 5.09733 17 5.5V16.5C17 16.9027 16.854 17.2533 16.562 17.552C16.2707 17.8507 15.9167 18 15.5 18H4.5ZM4.5 16.5H15.5V9H4.5V16.5ZM4.5 7.5H15.5V5.5H4.5V7.5ZM10 12C9.792 12 9.615 11.927 9.469 11.781C9.323 11.635 9.25 11.458 9.25 11.25C9.25 11.042 9.323 10.865 9.469 10.719C9.615 10.573 9.792 10.5 10 10.5C10.208 10.5 10.385 10.573 10.531 10.719C10.677 10.865 10.75 11.042 10.75 11.25C10.75 11.458 10.677 11.635 10.531 11.781C10.385 11.927 10.208 12 10 12ZM6.75 12C6.542 12 6.365 11.927 6.219 11.781C6.073 11.635 6 11.458 6 11.25C6 11.042 6.073 10.865 6.219 10.719C6.365 10.573 6.542 10.5 6.75 10.5C6.958 10.5 7.135 10.573 7.281 10.719C7.427 10.865 7.5 11.042 7.5 11.25C7.5 11.458 7.427 11.635 7.281 11.781C7.135 11.927 6.958 12 6.75 12ZM13.25 12C13.042 12 12.865 11.927 12.719 11.781C12.573 11.635 12.5 11.458 12.5 11.25C12.5 11.042 12.573 10.865 12.719 10.719C12.865 10.573 13.042 10.5 13.25 10.5C13.458 10.5 13.635 10.573 13.781 10.719C13.927 10.865 14 11.042 14 11.25C14 11.458 13.927 11.635 13.781 11.781C13.635 11.927 13.458 12 13.25 12ZM10 15C9.792 15 9.615 14.927 9.469 14.781C9.323 14.635 9.25 14.458 9.25 14.25C9.25 14.042 9.323 13.865 9.469 13.719C9.615 13.573 9.792 13.5 10 13.5C10.208 13.5 10.385 13.573 10.531 13.719C10.677 13.865 10.75 14.042 10.75 14.25C10.75 14.458 10.677 14.635 10.531 14.781C10.385 14.927 10.208 15 10 15ZM6.75 15C6.542 15 6.365 14.927 6.219 14.781C6.073 14.635 6 14.458 6 14.25C6 14.042 6.073 13.865 6.219 13.719C6.365 13.573 6.542 13.5 6.75 13.5C6.958 13.5 7.135 13.573 7.281 13.719C7.427 13.865 7.5 14.042 7.5 14.25C7.5 14.458 7.427 14.635 7.281 14.781C7.135 14.927 6.958 15 6.75 15ZM13.25 15C13.042 15 12.865 14.927 12.719 14.781C12.573 14.635 12.5 14.458 12.5 14.25C12.5 14.042 12.573 13.865 12.719 13.719C12.865 13.573 13.042 13.5 13.25 13.5C13.458 13.5 13.635 13.573 13.781 13.719C13.927 13.865 14 14.042 14 14.25C14 14.458 13.927 14.635 13.781 14.781C13.635 14.927 13.458 15 13.25 15Z" fill="#3A424A"/>
</svg>
