<svg width="20" height="20" viewBox="0 0 20 20" fill="none" xmlns="http://www.w3.org/2000/svg">
<path d="M8.9375 12.7823L13.8958 7.84479L12.8333 6.78229L8.9375 10.6573L7.16667 8.90729L6.10417 9.96979L8.9375 12.7823ZM10 17.7823C8.90278 17.7823 7.86806 17.574 6.89583 17.1573C5.92361 16.7406 5.07292 16.1677 4.34375 15.4385C3.61458 14.7094 3.04167 13.8587 2.625 12.8865C2.20833 11.9142 2 10.8795 2 9.78229C2 8.67118 2.20833 7.63298 2.625 6.6677C3.04167 5.70243 3.61458 4.8552 4.34375 4.12604C5.07292 3.39687 5.92361 2.82395 6.89583 2.40729C7.86806 1.99062 8.90278 1.78229 10 1.78229C11.1111 1.78229 12.1493 1.99062 13.1146 2.40729C14.0799 2.82395 14.9271 3.39687 15.6562 4.12604C16.3854 4.8552 16.9583 5.70243 17.375 6.6677C17.7917 7.63298 18 8.67118 18 9.78229C18 10.8795 17.7917 11.9142 17.375 12.8865C16.9583 13.8587 16.3854 14.7094 15.6562 15.4385C14.9271 16.1677 14.0799 16.7406 13.1146 17.1573C12.1493 17.574 11.1111 17.7823 10 17.7823ZM10 16.2823C11.8056 16.2823 13.3403 15.6503 14.6042 14.3865C15.8681 13.1226 16.5 11.5878 16.5 9.78229C16.5 7.97673 15.8681 6.44201 14.6042 5.17812C13.3403 3.91423 11.8056 3.28229 10 3.28229C8.19444 3.28229 6.65972 3.91423 5.39583 5.17812C4.13194 6.44201 3.5 7.97673 3.5 9.78229C3.5 11.5878 4.13194 13.1226 5.39583 14.3865C6.65972 15.6503 8.19444 16.2823 10 16.2823Z" fill="#3A424A"/>
</svg>
