<svg width="20" height="20" viewBox="0 0 20 20" fill="none" xmlns="http://www.w3.org/2000/svg">
<path d="M3.32568 17.5329C2.90902 17.5329 2.55502 17.3869 2.26368 17.0949C1.97168 16.8036 1.82568 16.4496 1.82568 16.0329V4.53293H3.32568V16.0329H7.53629V17.5329H3.32568Z" fill="#3A424A"/>
<path d="M9.03629 16.3421L14.3363 11.0421L16.4613 13.1671L11.1613 18.4671H9.03629V16.3421Z" fill="#3A424A"/>
<path d="M15.8257 9.57017C15.8072 9.58587 15.7891 9.60237 15.7713 9.61969C15.7679 9.62295 15.7646 9.62625 15.7613 9.62957L15.0613 10.3296L17.1863 12.4296L17.8988 11.7171C18.0905 11.5254 18.1821 11.2942 18.1738 11.0233C18.1655 10.7525 18.0655 10.5212 17.8738 10.3296L17.1738 9.62957C16.9821 9.4379 16.7467 9.34207 16.4675 9.34207C16.2189 9.34207 16.0049 9.41811 15.8257 9.57017Z" fill="#3A424A"/>
<path d="M15.8257 3.03293V7.9223C15.4078 8.03014 15.0232 8.24637 14.7006 8.56891L14.3425 8.927L14.3363 8.92075L14.3257 8.93135V3.03293H6.32568V13.0329H10.2241L8.72411 14.5329H6.32568C5.90902 14.5329 5.55502 14.3869 5.26368 14.0949C4.97168 13.8036 4.82568 13.4496 4.82568 13.0329V3.03293C4.82568 2.61626 4.97168 2.26226 5.26368 1.97093C5.55502 1.67893 5.90902 1.53293 6.32568 1.53293H14.3257C14.7424 1.53293 15.0964 1.67893 15.3877 1.97093C15.6797 2.26226 15.8257 2.61626 15.8257 3.03293Z" fill="#3A424A"/>
</svg>
