<svg width="20" height="20" viewBox="0 0 20 20" fill="none" xmlns="http://www.w3.org/2000/svg">
<path fill-rule="evenodd" clip-rule="evenodd" d="M12 12.2414C12 12.3397 12.0441 12.435 12.1277 12.4978C12.2705 12.6203 12.4912 12.6234 12.6377 12.5081C13.2891 11.9917 14.1261 11.7039 14.9793 11.7039C15.8516 11.7039 16.6986 12.0002 17.3604 12.5351C17.4956 12.6598 17.7218 12.654 17.8709 12.5367C17.96 12.4556 18 12.373 18 12.2699C18 12.1741 17.9579 12.0822 17.8817 12.0123C17.0704 11.3577 16.0408 11 14.9793 11C13.9382 11 12.9197 11.3483 12.1286 11.975C12.0458 12.0315 12 12.1313 12 12.2414ZM14.9897 13.5874C14.141 13.5874 13.4508 14.2244 13.4508 15C13.4508 15.7757 14.141 16.4126 14.9897 16.4126C15.8416 16.4126 16.5285 15.7821 16.5285 15C16.5285 14.2179 15.8416 13.5874 14.9897 13.5874ZM14.9896 14.1058C15.5285 14.1058 15.9637 14.5053 15.9637 15C15.9637 15.4946 15.5285 15.8942 14.9896 15.8942C14.4508 15.8942 14.0155 15.4946 14.0155 15C14.0155 14.5053 14.4508 14.1058 14.9896 14.1058ZM12.139 17.5201C12.0625 17.5903 12.0207 17.6718 12.0207 17.7681C12.0207 17.8798 12.0685 17.9772 12.1609 18.045C12.9532 18.6627 13.951 19 14.9896 19C16.0461 19 17.064 18.6486 17.8623 18.005C17.9438 17.9495 17.9896 17.8496 17.9896 17.7396C17.9896 17.6369 17.9416 17.5377 17.8508 17.4752C17.7302 17.362 17.5098 17.3565 17.3513 17.4657C16.6929 17.9961 15.8473 18.2866 14.9793 18.2866C14.134 18.2866 13.3073 18.0068 12.6577 17.5008C12.4902 17.3851 12.2801 17.3906 12.139 17.5201ZM13.0155 16.8454C13.062 17.0186 13.0982 17.0879 13.1915 17.1426C13.7103 17.5051 14.3287 17.6968 14.9793 17.6968C15.6447 17.6968 16.2987 17.4833 16.82 17.0964C16.9149 17.0107 16.9637 16.921 16.9637 16.8169C16.9637 16.7142 16.9157 16.615 16.8249 16.5525C16.7084 16.4431 16.5009 16.4319 16.3497 16.531C15.9506 16.8255 15.4646 16.9834 14.9689 16.9834C14.4888 16.9834 14.0309 16.838 13.6337 16.5624C13.4783 16.4604 13.2708 16.4716 13.1339 16.5973C13.0573 16.6676 13.0155 16.7491 13.0155 16.8454ZM13.1339 13.4027L13.1447 13.4118C13.2825 13.5203 13.483 13.5365 13.6295 13.4404C14.0304 13.1535 14.487 13.0071 14.9793 13.0071C15.4871 13.0071 15.9715 13.1659 16.3595 13.4612C16.5084 13.5784 16.7248 13.5609 16.8661 13.4312C16.9427 13.3609 16.9844 13.2794 16.9844 13.1831C16.9844 13.079 16.9356 12.9893 16.8558 12.916C16.3244 12.5102 15.6604 12.2937 14.9793 12.2937C14.3165 12.2937 13.6836 12.4961 13.1612 12.8736C13.0633 12.9455 13.0155 13.0429 13.0155 13.1546C13.0155 13.2509 13.0573 13.3324 13.1339 13.4027Z" fill="#3A424A"/>
<path d="M12.1579 10.75H6V9.25H14V10.0849C13.3506 10.1982 12.7246 10.4232 12.1579 10.75Z" fill="#3A424A"/>
<path d="M12.2271 16.1325C11.5372 16.3775 10.7948 16.5 10 16.5C8.19467 16.5 6.66 15.868 5.396 14.604C4.132 13.34 3.5 11.8053 3.5 10C3.5 8.19467 4.132 6.66 5.396 5.396C6.66 4.132 8.19467 3.5 10 3.5C11.8053 3.5 13.34 4.132 14.604 5.396C15.868 6.66 16.5 8.19467 16.5 10C16.5 10.0688 16.4991 10.1373 16.4972 10.2053C17.0115 10.3472 17.504 10.5613 17.9578 10.8427C17.9859 10.566 18 10.2851 18 10C18 8.88867 17.7917 7.85033 17.375 6.885C16.9583 5.92033 16.3853 5.07333 15.656 4.344C14.9267 3.61467 14.0797 3.04167 13.115 2.625C12.1497 2.20833 11.1113 2 10 2C8.90267 2 7.868 2.20833 6.896 2.625C5.924 3.04167 5.07333 3.61467 4.344 4.344C3.61467 5.07333 3.04167 5.92033 2.625 6.885C2.20833 7.85033 2 8.88867 2 10C2 11.0973 2.20833 12.132 2.625 13.104C3.04167 14.076 3.61467 14.9267 4.344 15.656C5.07333 16.3853 5.924 16.9583 6.896 17.375C7.868 17.7917 8.90267 18 10 18C10.351 18 10.6948 17.9792 11.0312 17.9376C11.0243 17.8818 11.0207 17.8252 11.0207 17.7681C11.0207 17.3386 11.2226 17.0039 11.4628 16.7834C11.6477 16.6136 11.8578 16.5074 12.0744 16.4559C12.1115 16.3372 12.1643 16.2292 12.2271 16.1325Z" fill="#3A424A"/>
<path d="M13.5413 15.4763C13.5446 15.4848 13.5481 15.4933 13.5516 15.5017C13.6406 15.7151 13.7845 15.9042 13.9674 16.0539L13.9797 16.0639C14.2046 16.2443 14.4869 16.3658 14.7977 16.4016C15.1 16.1745 15.386 15.926 15.656 15.656C15.6661 15.6459 15.6761 15.6358 15.6861 15.6257C15.5094 15.7914 15.2628 15.8942 14.9896 15.8942C14.4966 15.8942 14.0903 15.5597 14.0248 15.1239C13.8673 15.25 13.7062 15.3675 13.5413 15.4763Z" fill="#3A424A"/>
<path d="M15.0562 14.1079C15.5639 14.1392 15.9637 14.5259 15.9637 15C15.9637 15.2166 15.8802 15.415 15.7412 15.5696C16.0127 15.2897 16.2619 14.9925 16.4886 14.6779C16.4761 14.6285 16.4608 14.5801 16.4429 14.5329C16.3539 14.2986 16.1997 14.0926 16.0002 13.9333L15.9927 13.9274C15.8257 13.7958 15.6276 13.6967 15.4096 13.6403C15.3 13.7997 15.1822 13.9556 15.0562 14.1079Z" fill="#3A424A"/>
<path d="M15.7268 13.1276C15.8156 13.1573 15.9023 13.1925 15.9862 13.2329C16.1171 13.2959 16.2413 13.3715 16.357 13.4593L16.3595 13.4612C16.3765 13.4746 16.3943 13.4862 16.4128 13.4961C16.5567 13.573 16.7409 13.5461 16.8661 13.4312L16.8775 13.4204C16.8837 13.4144 16.8896 13.4082 16.8953 13.402C16.9532 13.3386 16.9844 13.2664 16.9844 13.1831C16.9844 13.1322 16.9728 13.0847 16.9515 13.0409C16.9451 13.0278 16.9378 13.0149 16.9297 13.0024C16.9097 12.9715 16.8848 12.9427 16.8558 12.916C16.8418 12.9053 16.8277 12.8948 16.8135 12.8844L16.804 12.8774C16.6565 12.7698 16.4993 12.6765 16.3349 12.5979C16.2384 12.5517 16.1394 12.5107 16.0383 12.4748C15.9478 12.6981 15.8439 12.9157 15.7268 13.1276Z" fill="#3A424A"/>
<path d="M16.2342 11.9139C16.503 12.0065 16.7602 12.1288 17.0001 12.2786C17.0771 12.3267 17.1524 12.3777 17.2257 12.4315C17.2406 12.4424 17.2554 12.4534 17.2702 12.4646C17.3006 12.4876 17.3307 12.5111 17.3604 12.5351C17.3679 12.5421 17.3757 12.5486 17.3838 12.5547C17.3963 12.5643 17.4095 12.5729 17.4232 12.5805C17.4657 12.6042 17.5131 12.6186 17.562 12.6241C17.6427 12.3946 17.7122 12.1617 17.7706 11.9255C17.6488 11.8335 17.5226 11.7479 17.3924 11.669C17.0804 11.4798 16.7459 11.3287 16.397 11.2183C16.3554 11.4556 16.3011 11.6874 16.2342 11.9139Z" fill="#3A424A"/>
<path d="M14.1562 16.8369C14.0199 16.7859 13.8879 16.7218 13.7613 16.6452C13.7181 16.6191 13.6756 16.5914 13.6337 16.5624C13.6253 16.5568 13.6166 16.5516 13.6078 16.5467C13.5907 16.5372 13.5731 16.5289 13.5552 16.5219C13.4134 16.467 13.2488 16.4919 13.1339 16.5973C13.1289 16.6019 13.1241 16.6065 13.1195 16.6111L13.1097 16.6212C13.0486 16.6859 13.0155 16.7598 13.0155 16.8454C13.0253 16.8817 13.0346 16.9135 13.0441 16.9415C13.0493 16.9569 13.0545 16.9711 13.0599 16.9844C13.0916 17.0621 13.1285 17.1057 13.1915 17.1426L13.2182 17.1611L13.2339 17.1717C13.2791 17.2021 13.325 17.2313 13.3716 17.2592C13.6428 17.1314 13.9044 16.9906 14.1562 16.8369Z" fill="#3A424A"/>
<path d="M12.7058 17.5376C12.6896 17.5255 12.6736 17.5132 12.6577 17.5008C12.6416 17.4897 12.6252 17.4797 12.6084 17.4709C12.602 17.4675 12.5955 17.4642 12.589 17.4611C12.4554 17.3981 12.3059 17.4044 12.1888 17.4813C12.1714 17.4927 12.1548 17.5056 12.139 17.5201C12.0674 17.5859 12.0262 17.6615 12.0212 17.7499C12.2532 17.6899 12.4814 17.6192 12.7058 17.5376Z" fill="#3A424A"/>
<path d="M15.0005 15.0695C14.9969 15.0772 14.9931 15.0836 14.9896 15.0888C14.9861 15.0836 14.9824 15.0772 14.9788 15.0695C14.9696 15.0494 14.9637 15.0249 14.9637 15C14.9637 14.975 14.9696 14.9505 14.9788 14.9305C14.9824 14.9227 14.9861 14.9164 14.9896 14.9112C14.9931 14.9164 14.9969 14.9227 15.0005 14.9305C15.0097 14.9505 15.0155 14.975 15.0155 15C15.0155 15.0249 15.0097 15.0494 15.0005 15.0695Z" fill="#3A424A"/>
</svg>
