<svg width="20" height="20" viewBox="0 0 20 20" fill="none" xmlns="http://www.w3.org/2000/svg">
<path d="M16.6369 19C16.5787 19 16.5213 18.9892 16.4646 18.9677C16.4078 18.9462 16.3584 18.9156 16.3164 18.8759L14.4217 17.0858C14.3797 17.0461 14.3457 16.998 14.3198 16.9414C14.2939 16.8848 14.2809 16.8291 14.2809 16.7742C14.2809 16.7193 14.2939 16.6642 14.3198 16.6089C14.3457 16.5536 14.3797 16.5061 14.4217 16.4664L15.3077 15.6244C15.3497 15.5847 15.4 15.5518 15.4585 15.5256C15.517 15.4994 15.5753 15.4864 15.6334 15.4864C15.6915 15.4864 15.7514 15.4994 15.8131 15.5256C15.8747 15.5518 15.9266 15.5847 15.9686 15.6244L17.8633 17.4195C17.9053 17.4592 17.9377 17.5058 17.9605 17.5594C17.9833 17.6131 17.9947 17.6673 17.9947 17.7222C17.9947 17.7771 17.9824 17.8337 17.9578 17.8919C17.9333 17.9502 17.9 17.9992 17.858 18.0389L16.9626 18.8759C16.9206 18.9156 16.8703 18.9462 16.8118 18.9677C16.7533 18.9892 16.695 19 16.6369 19ZM11.3992 18.995C11.3348 18.995 11.2726 18.9821 11.2127 18.9563C11.1529 18.9305 11.1019 18.8978 11.0599 18.8581L10.1686 18.0211C10.1266 17.9814 10.0951 17.9356 10.0741 17.8836C10.0531 17.8317 10.0426 17.7783 10.0426 17.7234C10.0426 17.6685 10.0546 17.6134 10.0788 17.5581C10.1029 17.5028 10.136 17.4553 10.178 17.4156L12.0412 15.6553H12.9857L13.4162 15.2486L11.9758 13.8877H11.3967L10 12.5821L11.1814 11.462L12.5728 12.7765V13.3236L14.0133 14.6845L15.0887 13.6685L14.6803 13.2687L15.2398 12.7402H14.3038L13.9335 12.3903L15.3998 11L15.7754 11.3549V12.2391L16.1089 11.919L17.6133 13.3452C17.7306 13.4561 17.8244 13.5872 17.8946 13.7386C17.9649 13.8901 18 14.0453 18 14.2043C18 14.3734 17.9613 14.5364 17.884 14.6932C17.8066 14.8501 17.704 14.9889 17.576 15.1098L16.5845 14.173L16.1089 14.6184L15.7005 14.2275L13.5828 16.2194V17.1117L11.729 18.867C11.687 18.9067 11.6376 18.9379 11.5808 18.9607C11.5241 18.9836 11.4635 18.995 11.3992 18.995Z" fill="#3A424A"/>
<path d="M17.7414 12.0398C17.9138 11.3858 18 10.7059 18 10C18 8.88867 17.7917 7.85033 17.375 6.885C16.9583 5.92033 16.3853 5.07333 15.656 4.344C14.9267 3.61467 14.0797 3.04167 13.115 2.625C12.1497 2.20833 11.1113 2 10 2C8.90267 2 7.868 2.20833 6.896 2.625C5.924 3.04167 5.07333 3.61467 4.344 4.344C3.61467 5.07333 3.04167 5.92033 2.625 6.885C2.20833 7.85033 2 8.88867 2 10C2 11.0973 2.20833 12.132 2.625 13.104C3.04167 14.076 3.61467 14.9267 4.344 15.656C5.07333 16.3853 5.924 16.9583 6.896 17.375C7.593 17.6738 8.32222 17.8654 9.08367 17.95C9.01555 17.6265 9.0455 16.8943 9.70398 16.502C9.70804 16.4996 9.71209 16.4972 9.71611 16.4947C8.03325 16.4315 6.59322 15.8012 5.396 14.604C4.132 13.34 3.5 11.8053 3.5 10C3.5 8.19467 4.132 6.66 5.396 5.396C6.66 4.132 8.19467 3.5 10 3.5C11.8053 3.5 13.34 4.132 14.604 5.396C15.868 6.66 16.5 8.19467 16.5 10C16.5 10.2627 16.4866 10.5196 16.4599 10.7709L17.7414 12.0398Z" fill="#3A424A"/>
<path d="M14 10.75H6V9.25H14V10.75Z" fill="#3A424A"/>
</svg>
