<svg width="20" height="20" viewBox="0 0 20 20" fill="none" xmlns="http://www.w3.org/2000/svg">
<path d="M3 4.49415V16L5.5 13.5H10.0417C10.0139 13.3889 10 13.2708 10 13.1458V12.7917C10 12.6528 10.0104 12.5208 10.0312 12.3958C10.0521 12.2708 10.0764 12.1389 10.1042 12H4.5V4.5H13.5V8.25C13.7361 8.16667 13.9826 8.10764 14.2396 8.07292C14.4965 8.03819 14.75 8.00694 15 7.97917V4.5C15 4.0875 14.8542 3.73438 14.5625 3.44063C14.2708 3.14688 13.9186 3 13.5059 3H4.50083C4.08811 3 3.73479 3.14583 3.44088 3.4375C3.14696 3.72917 3 4.08138 3 4.49415Z" fill="#3A424A"/>
<path d="M12 7.5H6V6H12V7.5Z" fill="#3A424A"/>
<path d="M10 10.5H6V9H10V10.5Z" fill="#3A424A"/>
<path d="M11.0996 14.357L15.1014 10.3552L16.7059 11.9597L12.7041 15.9615H11.0996V14.357Z" fill="#3A424A"/>
<path d="M16.226 9.24387C16.212 9.25572 16.1983 9.26818 16.1849 9.28125C16.1824 9.28372 16.1799 9.28621 16.1774 9.28872L15.6488 9.81726L17.2533 11.4029L17.7913 10.8649C17.936 10.7202 18.0052 10.5456 17.999 10.3411C17.9927 10.1366 17.9172 9.96198 17.7724 9.81726L17.2439 9.28872C17.0992 9.144 16.9214 9.07164 16.7106 9.07164C16.5229 9.07164 16.3613 9.12905 16.226 9.24387Z" fill="#3A424A"/>
</svg>
