<svg width="20" height="20" viewBox="0 0 20 20" fill="none" xmlns="http://www.w3.org/2000/svg">
<path d="M8 10.75L8 12.25L10.75 12.25L10.75 15L12.25 15L12.25 12.25L15 12.25L15 10.75L12.25 10.75L12.25 8L10.75 8L10.75 10.75L8 10.75ZM5 6.5C5 6.08333 5.146 5.72933 5.438 5.438C5.72933 5.146 6.08333 5 6.5 5L16.5 5C16.9167 5 17.2707 5.146 17.562 5.438C17.854 5.72933 18 6.08333 18 6.5L18 16.5C18 16.9167 17.854 17.2707 17.562 17.562C17.2707 17.854 16.9167 18 16.5 18L6.5 18C6.08333 18 5.72933 17.854 5.438 17.562C5.146 17.2707 5 16.9167 5 16.5L5 6.5ZM6.5 6.5L6.5 16.5L16.5 16.5L16.5 6.5L6.5 6.5ZM2 3.5C2 3.08333 2.146 2.72933 2.438 2.438C2.72933 2.146 3.08333 2 3.5 2L15 2L15 3.5L3.5 3.5L3.5 15L2 15L2 3.5Z" fill="#3A424A"/>
</svg>
