<svg width="20" height="20" viewBox="0 0 20 20" fill="none" xmlns="http://www.w3.org/2000/svg">
<path d="M13.271 11.146L11.979 9.85399C12.0343 9.32599 11.8747 8.87133 11.5 8.48999C11.1253 8.10799 10.674 7.94466 10.146 7.99999L8.854 6.70799C9.03467 6.63866 9.22233 6.58666 9.417 6.55199C9.611 6.51733 9.80533 6.49999 10 6.49999C10.972 6.49999 11.7983 6.84033 12.479 7.52099C13.1597 8.20166 13.5 9.02799 13.5 9.99999C13.5 10.1947 13.4827 10.389 13.448 10.583C13.4133 10.7777 13.3543 10.9653 13.271 11.146ZM16.042 13.917L14.958 12.833C15.458 12.4443 15.913 12.0173 16.323 11.552C16.733 11.0867 17.0767 10.5693 17.354 9.99999C16.6733 8.59733 15.67 7.49666 14.344 6.69799C13.0173 5.89933 11.5693 5.49999 10 5.49999C9.63867 5.49999 9.28467 5.52066 8.938 5.56199C8.59067 5.60399 8.25033 5.67366 7.917 5.77099L6.708 4.56199C7.236 4.35399 7.77433 4.20833 8.323 4.12499C8.87167 4.04166 9.43067 3.99999 10 3.99999C11.986 3.99999 13.802 4.53833 15.448 5.61499C17.094 6.69099 18.278 8.15266 19 9.99999C18.6947 10.792 18.2883 11.5107 17.781 12.156C17.2743 12.802 16.6947 13.389 16.042 13.917ZM16 18.125L13.292 15.417C12.764 15.611 12.2257 15.7567 11.677 15.854C11.1283 15.9513 10.5693 16 10 16C8.014 16 6.198 15.4617 4.552 14.385C2.906 13.309 1.722 11.8473 1 9.99999C1.30533 9.20799 1.708 8.48566 2.208 7.83299C2.708 7.18033 3.29133 6.58999 3.958 6.06199L1.875 3.97899L2.938 2.91699L17.062 17.062L16 18.125ZM5.021 7.14599C4.535 7.53466 4.08367 7.96166 3.667 8.42699C3.25033 8.89233 2.91 9.41666 2.646 9.99999C3.32667 11.4027 4.33 12.5033 5.656 13.302C6.98267 14.1007 8.43067 14.5 10 14.5C10.3613 14.5 10.7153 14.4757 11.062 14.427C11.4093 14.3783 11.7567 14.3123 12.104 14.229L11.167 13.292C10.9723 13.3613 10.7777 13.4133 10.583 13.448C10.389 13.4827 10.1947 13.5 10 13.5C9.028 13.5 8.20167 13.1597 7.521 12.479C6.84033 11.7983 6.5 10.972 6.5 9.99999C6.5 9.80533 6.52433 9.61099 6.573 9.41699C6.62167 9.22233 6.66667 9.02766 6.708 8.83299L5.021 7.14599Z" fill="#3A424A"/>
</svg>
