<svg width="20" height="20" viewBox="0 0 20 20" fill="none" xmlns="http://www.w3.org/2000/svg">
<path d="M12.9627 18.5L18.5 13.2193L16.1475 12.4583L17.4979 8.36181L11.8626 13.6108L14.3131 14.4035L12.9627 18.5Z" fill="#3A424A"/>
<path d="M3.74578 4.5599C3.58493 4.43163 3.5 4.23704 3.5 4.03607C3.5 3.81126 3.58814 3.6073 3.74758 3.49185C5.2702 2.21157 7.23055 1.5 9.2345 1.5C11.2778 1.5 13.2595 2.23071 14.821 3.5681C14.9677 3.71096 15.0488 3.89867 15.0488 4.09437C15.0488 4.30496 14.9718 4.47379 14.8003 4.63939C14.5133 4.87903 14.0779 4.89081 13.8176 4.63624C12.5438 3.54333 10.9136 2.93803 9.2345 2.93803C7.59223 2.93803 5.98134 3.52599 4.72743 4.58109C4.44549 4.81654 4.02066 4.81031 3.74578 4.5599Z" fill="#3A424A"/>
<path fill-rule="evenodd" clip-rule="evenodd" d="M6.2925 9.67191C6.2925 8.08728 7.621 6.78603 9.25448 6.78603C10.8944 6.78603 12.2165 8.07414 12.2165 9.67191C12.2165 11.2697 10.8944 12.5578 9.25448 12.5578C7.621 12.5578 6.2925 11.2565 6.2925 9.67191ZM11.1294 9.67185C11.1294 8.6613 10.2916 7.84508 9.25442 7.84508C8.21722 7.84508 7.37948 8.6613 7.37948 9.67185C7.37948 10.6824 8.21722 11.4986 9.25442 11.4986C10.2916 11.4986 11.1294 10.6824 11.1294 9.67185Z" fill="#3A424A"/>
<path d="M3.53989 15.3271C3.53989 15.1303 3.6203 14.9638 3.76764 14.8203C4.03912 14.5557 4.4435 14.5445 4.76591 14.7809C6.01635 15.8146 7.60744 16.3863 9.2345 16.3863C10.4338 16.3863 11.6107 16.0806 12.6482 15.5072L12.0299 17.3828C11.145 17.6859 10.2079 17.8437 9.25445 17.8437C7.25522 17.8437 5.33479 17.1547 3.80964 15.8926C3.63183 15.7542 3.53989 15.5552 3.53989 15.3271Z" fill="#3A424A"/>
<path d="M10.0177 13.6472C9.75377 13.6979 9.48492 13.7238 9.21455 13.7238C8.29051 13.7238 7.40908 13.4269 6.64461 12.8638C6.34549 12.6554 5.94611 12.6783 5.68247 12.9352C5.53513 13.0787 5.45473 13.2452 5.45473 13.442C5.5442 13.7957 5.61372 13.9375 5.79344 14.0492C6.79206 14.7897 7.98234 15.1813 9.2345 15.1813C9.98147 15.1813 10.721 15.033 11.4067 14.7525L9.49495 14.1341L10.0177 13.6472Z" fill="#3A424A"/>
<path d="M5.70325 6.4273L5.68247 6.40855C5.53513 6.265 5.45473 6.09853 5.45473 5.90172C5.45473 5.67365 5.54666 5.4746 5.73509 5.32774C6.74062 4.55649 7.95871 4.14299 9.2345 4.14299C10.5455 4.14299 11.8235 4.58536 12.8464 5.41431C13 5.56403 13.0941 5.74725 13.0941 5.96002C13.0941 6.15683 13.0136 6.3233 12.8663 6.46685C12.5944 6.73181 12.1777 6.76763 11.8912 6.52824C11.1444 5.9249 10.212 5.60046 9.2345 5.60046C8.28697 5.60046 7.40802 5.89951 6.63654 6.48575C6.35453 6.68201 5.96852 6.64883 5.70325 6.4273Z" fill="#3A424A"/>
</svg>
