<svg width="20" height="20" viewBox="0 0 20 20" fill="none" xmlns="http://www.w3.org/2000/svg">
<path d="M10 18.3333C8.06949 17.8472 6.47574 16.7395 5.21879 15.0104C3.96185 13.2812 3.33337 11.3611 3.33337 9.24996V4.16663L10 1.66663L16.6667 4.16663V9.24996C16.6667 10.4305 16.4653 11.5659 16.0625 12.6562C15.6598 13.7465 15.0834 14.7083 14.3334 15.5416L11.6667 12.875C11.4167 13.0277 11.1493 13.1423 10.8646 13.2187C10.5799 13.2951 10.2917 13.3333 10 13.3333C9.08337 13.3333 8.29865 13.0069 7.64587 12.3541C6.9931 11.7013 6.66671 10.9166 6.66671 9.99996C6.66671 9.08329 6.9931 8.29857 7.64587 7.64579C8.29865 6.99301 9.08337 6.66663 10 6.66663C10.9167 6.66663 11.7014 6.99301 12.3542 7.64579C13.007 8.29857 13.3334 9.08329 13.3334 9.99996C13.3334 10.3055 13.2952 10.6007 13.2188 10.8854C13.1424 11.1701 13.0278 11.4444 12.875 11.7083L14.125 12.9583C14.4028 12.3888 14.6181 11.7916 14.7709 11.1666C14.9237 10.5416 15 9.90274 15 9.24996V5.31246L10 3.43746L5.00004 5.31246V9.24996C5.00004 10.9305 5.47226 12.4583 6.41671 13.8333C7.36115 15.2083 8.5556 16.125 10 16.5833C10.3612 16.4722 10.7049 16.3298 11.0313 16.1562C11.3577 15.9826 11.6806 15.7777 12 15.5416L13.1667 16.7083C12.7084 17.0833 12.2118 17.4097 11.6771 17.6875C11.1424 17.9652 10.5834 18.1805 10 18.3333ZM10 11.6666C10.4584 11.6666 10.8507 11.5034 11.1771 11.177C11.5035 10.8507 11.6667 10.4583 11.6667 9.99996C11.6667 9.54163 11.5035 9.14926 11.1771 8.82288C10.8507 8.49649 10.4584 8.33329 10 8.33329C9.54171 8.33329 9.14935 8.49649 8.82296 8.82288C8.49657 9.14926 8.33337 9.54163 8.33337 9.99996C8.33337 10.4583 8.49657 10.8507 8.82296 11.177C9.14935 11.5034 9.54171 11.6666 10 11.6666Z" fill="#3A424A"/>
</svg>
