<svg width="20" height="20" viewBox="0 0 20 20" fill="none" xmlns="http://www.w3.org/2000/svg">
<path d="M3.64133 16.4004C3.03987 16.4004 2.54922 16.2035 2.16939 15.8098C1.78956 15.4161 1.59964 14.9324 1.59964 14.3587V5.6413C1.59964 5.05977 1.78956 4.5741 2.16939 4.1843C2.54922 3.79451 3.03987 3.59961 3.64133 3.59961H7.82337L10 5.77624H16.3795C16.975 5.77624 17.4571 5.9731 17.8261 6.36684C18.1951 6.76056 18.3934 7.24426 18.4212 7.81794H3.64133V14.4175L5.21922 9.31794H19.818L18.1649 14.6195C17.9596 15.2137 17.6979 15.6591 17.38 15.9556C17.0621 16.2521 16.5842 16.4004 15.9465 16.4004H3.64133Z" fill="#3A424A"/>
</svg>
