<svg width="20" height="20" viewBox="0 0 20 20" fill="none" xmlns="http://www.w3.org/2000/svg">
<path d="M3.41699 16.667C2.95833 16.667 2.55199 16.4897 2.19799 16.135C1.84399 15.781 1.66699 15.375 1.66699 14.917V5.08301C1.66699 4.62501 1.84399 4.21901 2.19799 3.86501C2.55199 3.51034 2.95833 3.33301 3.41699 3.33301H8.24999L9.91699 5.00001H16.667C17.125 5.00001 17.5173 5.17701 17.844 5.53101C18.17 5.88501 18.333 6.29134 18.333 6.75001H9.18799L7.52099 5.08301H3.41699V14.917L5.43799 8.50001H19.583L17.396 15.479C17.2847 15.8403 17.0867 16.1287 16.802 16.344C16.5173 16.5593 16.1943 16.667 15.833 16.667H3.41699ZM5.24999 14.917H15.75L17.25 10.167H6.74999L5.24999 14.917Z" fill="#3A424A"/>
</svg>
