<svg width="20" height="20" viewBox="0 0 20 20" fill="none" xmlns="http://www.w3.org/2000/svg">
<path d="M10 18C8.12533 17.5413 6.57333 16.4787 5.344 14.812C4.11467 13.1453 3.5 11.2983 3.5 9.271V4.5L10 2L16.5 4.5V9.271C16.5 11.2983 15.8853 13.1453 14.656 14.812C13.4267 16.4787 11.8747 17.5413 10 18ZM10 16.438C11.4447 15.9933 12.639 15.0973 13.583 13.75C14.5277 12.4027 15 10.9097 15 9.271V5.521L10 3.604L5 5.521V9.271C5 10.9097 5.47233 12.4027 6.417 13.75C7.361 15.0973 8.55533 15.9933 10 16.438Z" fill="#3A424A"/>
</svg>
