<svg width="20" height="20" viewBox="0 0 20 20" fill="none" xmlns="http://www.w3.org/2000/svg">
<path d="M12 16V14.5H13.75C13.958 14.5 14.135 14.427 14.281 14.281C14.427 14.135 14.5 13.958 14.5 13.75V12.25C14.5 11.6807 14.691 11.191 15.073 10.781C15.455 10.3717 15.9307 10.132 16.5 10.062V9.979C15.9307 9.86767 15.455 9.61067 15.073 9.208C14.691 8.80533 14.5 8.31933 14.5 7.75V6.25C14.5 6.042 14.427 5.865 14.281 5.719C14.135 5.573 13.958 5.5 13.75 5.5H12V4H13.75C14.3753 4 14.9067 4.21867 15.344 4.656C15.7813 5.09333 16 5.62467 16 6.25V7.75C16 7.958 16.073 8.135 16.219 8.281C16.365 8.427 16.542 8.5 16.75 8.5H18V11.5H16.75C16.542 11.5 16.365 11.573 16.219 11.719C16.073 11.865 16 12.042 16 12.25V13.75C16 14.3753 15.7813 14.9067 15.344 15.344C14.9067 15.7813 14.3753 16 13.75 16H12ZM6.25 16C5.62467 16 5.09333 15.7813 4.656 15.344C4.21867 14.9067 4 14.3753 4 13.75V12.25C4 12.042 3.927 11.865 3.781 11.719C3.635 11.573 3.458 11.5 3.25 11.5H2V8.5H3.25C3.458 8.5 3.635 8.427 3.781 8.281C3.927 8.135 4 7.958 4 7.75V6.25C4 5.62467 4.21867 5.09333 4.656 4.656C5.09333 4.21867 5.62467 4 6.25 4H8V5.5H6.25C6.042 5.5 5.865 5.573 5.719 5.719C5.573 5.865 5.5 6.042 5.5 6.25V7.75C5.5 8.33333 5.309 8.83 4.927 9.24C4.545 9.64933 4.06933 9.88867 3.5 9.958V10.042C4.06933 10.0973 4.545 10.3333 4.927 10.75C5.309 11.1667 5.5 11.6667 5.5 12.25V13.75C5.5 13.958 5.573 14.135 5.719 14.281C5.865 14.427 6.042 14.5 6.25 14.5H8V16H6.25Z" fill="#3A424A"/>
</svg>
