<svg width="20" height="20" viewBox="0 0 20 20" fill="none" xmlns="http://www.w3.org/2000/svg">
<path d="M12.4155 5.44446L9.45507 14.5556H7.58459L10.545 5.44446H12.4155Z" fill="#3A424A"/>
<path fill-rule="evenodd" clip-rule="evenodd" d="M16 3.5H4C3.72386 3.5 3.5 3.72386 3.5 4V16C3.5 16.2761 3.72386 16.5 4 16.5H16C16.2761 16.5 16.5 16.2761 16.5 16V4C16.5 3.72386 16.2761 3.5 16 3.5ZM4 2C2.89543 2 2 2.89543 2 4V16C2 17.1046 2.89543 18 4 18H16C17.1046 18 18 17.1046 18 16V4C18 2.89543 17.1046 2 16 2H4Z" fill="#3A424A"/>
</svg>
