<svg width="20" height="20" viewBox="0 0 20 20" fill="none" xmlns="http://www.w3.org/2000/svg">
<path d="M16 17H4C3.59733 17 3.24667 16.8507 2.948 16.552C2.64933 16.2533 2.5 15.9027 2.5 15.5V4.5C2.5 4.08333 2.64933 3.72933 2.948 3.438C3.24667 3.146 3.59733 3 4 3H16C16.4027 3 16.7533 3.146 17.052 3.438C17.3507 3.72933 17.5 4.08333 17.5 4.5V15.5C17.5 15.9027 17.3507 16.2533 17.052 16.552C16.7533 16.8507 16.4027 17 16 17ZM4 6.75H16V4.5H4V6.75ZM6.167 8.25H4V15.5H6.167V8.25ZM13.833 8.25V15.5H16V8.25H13.833ZM12.333 8.25H7.667V15.5H12.333V8.25Z" fill="#3A424A"/>
</svg>
