<svg width="20" height="20" viewBox="0 0 20 20" fill="none" xmlns="http://www.w3.org/2000/svg">
<path d="M3 6.75V4.495C3 4.08167 3.14687 3.72917 3.44062 3.4375C3.73437 3.14583 4.0875 3 4.5 3H15.5C15.9125 3 16.2656 3.14688 16.5594 3.44063C16.8531 3.73438 17 4.0875 17 4.5V6.75H3ZM4.5 17C4.0875 17 3.73437 16.8531 3.44062 16.5594C3.14687 16.2656 3 15.9125 3 15.5V8.25H6.5V17H4.5ZM13.5 17V8.25H17V15.5C17 15.9125 16.8531 16.2656 16.5594 16.5594C16.2656 16.8531 15.9125 17 15.5 17H13.5ZM8 17V8.25H12V17H8Z" fill="#3A424A"/>
</svg>
