<svg width="20" height="20" viewBox="0 0 20 20" fill="none" xmlns="http://www.w3.org/2000/svg">
<path fill-rule="evenodd" clip-rule="evenodd" d="M10 15.5C13.0376 15.5 15.5 13.0376 15.5 10C15.5 6.96243 13.0376 4.5 10 4.5C6.96243 4.5 4.5 6.96243 4.5 10C4.5 13.0376 6.96243 15.5 10 15.5ZM10 17C13.866 17 17 13.866 17 10C17 6.13401 13.866 3 10 3C6.13401 3 3 6.13401 3 10C3 13.866 6.13401 17 10 17Z" fill="#3A424A"/>
<path fill-rule="evenodd" clip-rule="evenodd" d="M9.25 8V5H10.75V8H9.25Z" fill="#3A424A"/>
<path fill-rule="evenodd" clip-rule="evenodd" d="M9.25 15.005V12.005H10.75V15.005H9.25Z" fill="#3A424A"/>
<path fill-rule="evenodd" clip-rule="evenodd" d="M11.9973 9.25H14.9973V10.75H11.9973V9.25Z" fill="#3A424A"/>
<path fill-rule="evenodd" clip-rule="evenodd" d="M5 9.25L8 9.25V10.75L5 10.75L5 9.25Z" fill="#3A424A"/>
<path d="M9 10C9 9.44772 9.44772 9 10 9C10.5523 9 11 9.44772 11 10C11 10.5523 10.5523 11 10 11C9.44772 11 9 10.5523 9 10Z" fill="#3A424A"/>
</svg>
