<svg width="20" height="20" viewBox="0 0 20 20" fill="none" xmlns="http://www.w3.org/2000/svg">
<path d="M11.9917 9.16663L13.3333 10.5083V9.16663H11.9917ZM14.1667 5.8333H10.8333V7.41663H14.1667C15.5917 7.41663 16.75 8.57497 16.75 9.99997C16.75 11.0583 16.1083 11.975 15.1917 12.3666L16.3583 13.5333C17.5417 12.8 18.3333 11.4916 18.3333 9.99997C18.3333 7.69997 16.4667 5.8333 14.1667 5.8333ZM1.66666 3.5583L4.25832 6.14997C2.74166 6.76663 1.66666 8.2583 1.66666 9.99997C1.66666 12.3 3.53332 14.1666 5.83332 14.1666H9.16666V12.5833H5.83332C4.40832 12.5833 3.24999 11.425 3.24999 9.99997C3.24999 8.67497 4.25832 7.5833 5.54999 7.44164L7.27499 9.16663H6.66666V10.8333H8.94166L10.8333 12.725V14.1666H12.275L15.6167 17.5083L16.7917 16.3333L2.84166 2.3833L1.66666 3.5583Z" fill="#3A424A"/>
</svg>
