<svg width="20" height="20" viewBox="0 0 20 20" fill="none" xmlns="http://www.w3.org/2000/svg">
<path d="M15.7083 13.3751L14.4583 12.0834C14.625 11.639 14.7569 11.1772 14.8542 10.698C14.9514 10.2188 15 9.73619 15 9.25008V5.31258L9.99999 3.43758L6.95832 4.58341L5.66666 3.29175L9.99999 1.66675L16.6667 4.16675V9.25008C16.6667 9.95842 16.5868 10.6598 16.4271 11.3542C16.2674 12.0487 16.0278 12.7223 15.7083 13.3751ZM16.5 18.8334L13.7917 16.1251C13.2639 16.6667 12.6771 17.1216 12.0312 17.4897C11.3854 17.8577 10.7083 18.139 9.99999 18.3334C8.06943 17.8473 6.47568 16.7397 5.21874 15.0105C3.9618 13.2813 3.33332 11.3612 3.33332 9.25008V5.66675L1.16666 3.50008L2.33332 2.33341L17.6667 17.6667L16.5 18.8334ZM9.99999 16.5834C10.4861 16.4306 10.9514 16.2154 11.3958 15.9376C11.8403 15.6598 12.25 15.3334 12.625 14.9584L4.99999 7.33342V9.25008C4.99999 10.9306 5.47221 12.4584 6.41666 13.8334C7.3611 15.2084 8.55555 16.1251 9.99999 16.5834Z" fill="#3A424A"/>
</svg>
