<svg width="20" height="20" viewBox="0 0 20 20" fill="none" xmlns="http://www.w3.org/2000/svg">
<path d="M3.31733 14.4524C2.94889 14.4524 2.6348 14.3212 2.37507 14.0589C2.11534 13.7966 1.98547 13.4812 1.98547 13.1127C1.98547 12.7443 2.11559 12.4302 2.37581 12.1705C2.63604 11.9107 2.94889 11.7809 3.31436 11.7809C3.38078 11.7809 3.44182 11.784 3.49747 11.7902C3.55313 11.7963 3.61188 11.8056 3.67372 11.818L7.38415 8.11646C7.35941 8.04869 7.34395 7.99006 7.33777 7.94059C7.33158 7.89112 7.32849 7.83317 7.32849 7.76676C7.32849 7.40128 7.45965 7.08843 7.72198 6.8282C7.98431 6.56798 8.2997 6.43787 8.66814 6.43787C9.03659 6.43787 9.35068 6.56866 9.6104 6.83024C9.87013 7.09183 10 7.40629 10 7.77362C10 7.81072 9.98145 7.92204 9.94434 8.10756L11.8897 10.0555C11.9533 10.0308 12.009 10.0153 12.0567 10.0092C12.1043 10.003 12.16 9.99988 12.2237 9.99988C12.2872 9.99988 12.3468 10.003 12.4025 10.0092C12.4582 10.0153 12.5169 10.0246 12.5787 10.037L15.3987 7.22336C15.3739 7.15732 15.3585 7.09956 15.3523 7.05009C15.3461 7.00061 15.343 6.94267 15.343 6.87625C15.343 6.51078 15.4742 6.19792 15.7365 5.9377C15.9988 5.67748 16.3142 5.54736 16.6827 5.54736C17.0511 5.54736 17.3652 5.67853 17.6249 5.94085C17.8847 6.20318 18.0145 6.51857 18.0145 6.88701C18.0145 7.25546 17.8844 7.56955 17.6242 7.82928C17.364 8.08901 17.0511 8.21887 16.6856 8.21887C16.6192 8.21887 16.5582 8.21578 16.5025 8.2096C16.4469 8.20341 16.3881 8.19414 16.3263 8.18177L13.5064 10.9954C13.5311 11.0614 13.5466 11.1192 13.5527 11.1687C13.5589 11.2181 13.562 11.2761 13.562 11.3425C13.562 11.708 13.4308 12.0208 13.1685 12.281C12.9062 12.5413 12.5908 12.6714 12.2224 12.6714C11.8539 12.6714 11.5398 12.5413 11.2801 12.281C11.0204 12.0208 10.8905 11.708 10.8905 11.3425C10.8905 11.2761 10.8936 11.215 10.8998 11.1594C10.906 11.1037 10.9152 11.045 10.9276 10.9831L8.99985 9.05372C8.9369 9.07845 8.88069 9.09391 8.83121 9.1001C8.78174 9.10628 8.72609 9.10938 8.66425 9.10938C8.60241 9.10938 8.48491 9.09701 8.31176 9.07227L4.60133 12.7738C4.62606 12.8416 4.64152 12.9002 4.64771 12.9497C4.65389 12.9991 4.65698 13.0571 4.65698 13.1235C4.65698 13.489 4.52582 13.8018 4.26349 14.0621C4.00116 14.3223 3.68578 14.4524 3.31733 14.4524Z" fill="#3A424A"/>
</svg>
