<svg width="20" height="20" viewBox="0 0 20 20" fill="none" xmlns="http://www.w3.org/2000/svg">
<path d="M10 9.79974C9.04892 9.79974 8.24441 9.47078 7.58649 8.81287C6.92859 8.15495 6.59964 7.35044 6.59964 6.39935C6.59964 5.44826 6.92859 4.64573 7.58649 3.99174C8.24441 3.33774 9.04892 3.01074 10 3.01074C10.9511 3.01074 11.7556 3.33774 12.4135 3.99174C13.0714 4.64573 13.4004 5.44826 13.4004 6.39935C13.4004 7.35044 13.0714 8.15495 12.4135 8.81287C11.7556 9.47078 10.9511 9.79974 10 9.79974ZM3.59964 16.6005V14.1766C3.59964 13.7841 3.70683 13.4149 3.92122 13.069C4.13563 12.723 4.4294 12.4367 4.80254 12.2101C5.58998 11.7578 6.42633 11.4096 7.31158 11.1657C8.19681 10.9217 9.09296 10.7997 10 10.7997C10.9221 10.7997 11.8259 10.9198 12.7115 11.1598C13.5971 11.3998 14.4257 11.746 15.1975 12.1983C15.5706 12.4099 15.8644 12.6911 16.0788 13.0418C16.2932 13.3925 16.4004 13.7706 16.4004 14.1759V16.6005H3.59964Z" fill="#3A424A"/>
</svg>
