<svg width="20" height="20" viewBox="0 0 20 20" fill="none" xmlns="http://www.w3.org/2000/svg">
<path d="M10 10C9.16667 10 8.45833 9.70833 7.875 9.125C7.29167 8.54167 7 7.83333 7 7C7 6.16667 7.29167 5.45833 7.875 4.875C8.45833 4.29167 9.16667 4 10 4C10.8333 4 11.5417 4.29167 12.125 4.875C12.7083 5.45833 13 6.16667 13 7C13 7.83333 12.7083 8.54167 12.125 9.125C11.5417 9.70833 10.8333 10 10 10ZM4 16V14C4 13.6807 4.08667 13.3787 4.26 13.094C4.434 12.8093 4.67367 12.5697 4.979 12.375C5.743 11.9303 6.552 11.59 7.406 11.354C8.26067 11.118 9.12533 11 10 11C10.8747 11 11.7393 11.118 12.594 11.354C13.448 11.59 14.257 11.9303 15.021 12.375C15.3263 12.5557 15.566 12.7917 15.74 13.083C15.9133 13.375 16 13.6807 16 14V16H4ZM5.5 14.5H14.5V14C14.5 13.9307 14.4793 13.8647 14.438 13.802C14.396 13.7393 14.3403 13.6943 14.271 13.667C13.6317 13.2777 12.951 12.986 12.229 12.792C11.507 12.5973 10.764 12.5 10 12.5C9.236 12.5 8.493 12.5973 7.771 12.792C7.049 12.986 6.36833 13.2777 5.729 13.667C5.65967 13.7223 5.604 13.7743 5.562 13.823C5.52067 13.8717 5.5 13.9307 5.5 14V14.5ZM10 8.5C10.4167 8.5 10.7707 8.354 11.062 8.062C11.354 7.77067 11.5 7.41667 11.5 7C11.5 6.58333 11.354 6.22933 11.062 5.938C10.7707 5.646 10.4167 5.5 10 5.5C9.58333 5.5 9.22933 5.646 8.938 5.938C8.646 6.22933 8.5 6.58333 8.5 7C8.5 7.41667 8.646 7.77067 8.938 8.062C9.22933 8.354 9.58333 8.5 10 8.5Z" fill="#3A424A"/>
</svg>
