<svg width="20" height="20" viewBox="0 0 20 20" fill="none" xmlns="http://www.w3.org/2000/svg">
<path d="M10.25 9.5H11.75V8H13.25V6.5H11.75V5H10.25V6.5H8.75V8H10.25V9.5ZM8.75 12.5H13.25V11H8.75V12.5ZM6.5 16C6.09733 16 5.74667 15.8507 5.448 15.552C5.14933 15.2533 5 14.9027 5 14.5V2.5C5 2.09733 5.14933 1.74667 5.448 1.448C5.74667 1.14933 6.09733 1 6.5 1H13L17 5V14.5C17 14.9027 16.8507 15.2533 16.552 15.552C16.2533 15.8507 15.9027 16 15.5 16H6.5ZM6.5 14.5H15.5V5.625L12.375 2.5H6.5V14.5ZM3.5 19C3.09733 19 2.74667 18.8507 2.448 18.552C2.14933 18.2533 2 17.9027 2 17.5V6H3.5V17.5H12.5V19H3.5Z" fill="#3A424A"/>
</svg>
