<svg width="20" height="20" viewBox="0 0 20 20" fill="none" xmlns="http://www.w3.org/2000/svg">
<path d="M4.5 9C4.09733 9 3.74667 8.854 3.448 8.562C3.14933 8.27067 3 7.91667 3 7.5V4.5C3 4.09733 3.14933 3.74667 3.448 3.448C3.74667 3.14933 4.09733 3 4.5 3H15.5C15.9167 3 16.2707 3.14933 16.562 3.448C16.854 3.74667 17 4.09733 17 4.5V7.5C17 7.91667 16.854 8.27067 16.562 8.562C16.2707 8.854 15.9167 9 15.5 9H4.5ZM4.5 7.5H15.5V4.5H4.5V7.5ZM4.5 17C4.09733 17 3.74667 16.854 3.448 16.562C3.14933 16.2707 3 15.9167 3 15.5V12.5C3 12.0973 3.14933 11.7467 3.448 11.448C3.74667 11.1493 4.09733 11 4.5 11H15.5C15.9167 11 16.2707 11.1493 16.562 11.448C16.854 11.7467 17 12.0973 17 12.5V15.5C17 15.9167 16.854 16.2707 16.562 16.562C16.2707 16.854 15.9167 17 15.5 17H4.5ZM4.5 15.5H15.5V12.5H4.5V15.5Z" fill="#3A424A"/>
</svg>
