<svg width="20" height="20" viewBox="0 0 20 20" fill="none" xmlns="http://www.w3.org/2000/svg">
<path d="M3.28001 16.7153C2.81799 16.7153 2.42248 16.5508 2.09347 16.2218C1.76445 15.8928 1.59995 15.4973 1.59995 15.0353V3.2748C1.59995 2.81278 1.76445 2.41726 2.09347 2.08825C2.42248 1.75923 2.81799 1.59473 3.28001 1.59473H15.0405C15.5025 1.59473 15.898 1.75923 16.227 2.08825C16.5561 2.41726 16.7206 2.81278 16.7206 3.2748V8.90303C16.4546 8.77702 16.1815 8.66852 15.9015 8.57751C15.6215 8.48651 15.3345 8.42001 15.0405 8.37801V3.2748H3.28001V15.0353H8.36222C8.40422 15.3433 8.47073 15.6373 8.56173 15.9173C8.65273 16.1973 8.76124 16.4633 8.88724 16.7153H3.28001ZM3.28001 15.0353V3.2748V8.37801V8.315V15.0353ZM4.96008 13.3552H8.38322C8.42522 13.0612 8.49173 12.7742 8.58273 12.4942C8.67374 12.2142 8.77524 11.9412 8.88724 11.6751H4.96008V13.3552ZM4.96008 9.99507H10.0843C10.5323 9.57505 11.0328 9.22504 11.5859 8.94503C12.1389 8.66502 12.7304 8.47601 13.3604 8.37801V8.315H4.96008V9.99507ZM4.96008 6.63493H13.3604V4.95486H4.96008V6.63493Z" fill="#3A424A"/>
<path d="M13.8048 16.3046H14.5925V13.6787H13.8048V16.3046ZM14.1987 12.891C14.3079 12.891 14.4009 12.8526 14.4775 12.776C14.5542 12.6993 14.5925 12.6063 14.5925 12.4971C14.5925 12.3879 14.5542 12.2949 14.4775 12.2182C14.4009 12.1416 14.3079 12.1032 14.1987 12.1032C14.0894 12.1032 13.9965 12.1416 13.9198 12.2182C13.8431 12.2949 13.8048 12.3879 13.8048 12.4971C13.8048 12.6063 13.8431 12.6993 13.9198 12.776C13.9965 12.8526 14.0894 12.891 14.1987 12.891ZM14.1987 18.4053C13.6224 18.4053 13.079 18.2958 12.5685 18.077C12.0581 17.8582 11.6113 17.5573 11.2283 17.1743C10.8453 16.7912 10.5444 16.3445 10.3255 15.834C10.1067 15.3236 9.99732 14.7802 9.99732 14.2039C9.99732 13.6203 10.1067 13.075 10.3255 12.568C10.5444 12.0614 10.8453 11.6166 11.2283 11.2336C11.6113 10.8505 12.0581 10.5496 12.5685 10.3308C13.079 10.112 13.6224 10.0026 14.1987 10.0026C14.7823 10.0026 15.3276 10.112 15.8346 10.3308C16.3412 10.5496 16.786 10.8505 17.169 11.2336C17.552 11.6166 17.853 12.0614 18.0718 12.568C18.2906 13.075 18.4 13.6203 18.4 14.2039C18.4 14.7802 18.2906 15.3236 18.0718 15.834C17.853 16.3445 17.552 16.7912 17.169 17.1743C16.786 17.5573 16.3412 17.8582 15.8346 18.077C15.3276 18.2958 14.7823 18.4053 14.1987 18.4053Z" fill="#3A424A"/>
</svg>
