<svg width="20" height="20" viewBox="0 0 20 20" fill="none" xmlns="http://www.w3.org/2000/svg">
<path d="M9.14583 15L13.75 10.3958L12.625 9.27083L9.14583 12.75L7.45833 11.0417L6.3125 12.1667L9.14583 15ZM5.49417 18C5.08139 18 4.72917 17.8531 4.4375 17.5594C4.14583 17.2656 4 16.9125 4 16.5V3.5C4 3.0875 4.14687 2.73438 4.44062 2.44063C4.73437 2.14688 5.0875 2 5.5 2H12L16 6V16.5C16 16.9125 15.8531 17.2656 15.5592 17.5594C15.2653 17.8531 14.9119 18 14.4992 18H5.49417ZM11 7V3.5H5.5V16.5H14.5V7H11Z" fill="#3A424A"/>
</svg>
