<svg width="20" height="20" viewBox="0 0 20 20" fill="none" xmlns="http://www.w3.org/2000/svg">
<path d="M7.79801 7.71381L3.81159 5.51543L10 2.08789L16.1676 5.51543L12.1902 7.71381C11.8937 7.42952 11.5553 7.21004 11.1748 7.05539C10.7944 6.90074 10.4028 6.82341 10 6.82341C9.59723 6.82341 9.20563 6.90074 8.8252 7.05539C8.44477 7.21004 8.10237 7.42952 7.79801 7.71381ZM9.07337 17.4014L2.88495 13.9627V7.10422L6.89222 9.34427C6.8584 9.42578 6.83847 9.51621 6.83243 9.61556C6.82639 9.71489 6.82337 9.84306 6.82337 10.0001C6.82337 10.7092 7.02974 11.3486 7.44249 11.9182C7.85523 12.4879 8.39885 12.8639 9.07337 13.0463V17.4014ZM9.99559 11.3234C9.62897 11.3234 9.31749 11.1938 9.06116 10.9345C8.80482 10.6752 8.67666 10.3623 8.67666 9.99564C8.67666 9.62902 8.8063 9.31754 9.06557 9.0612C9.32487 8.80487 9.63782 8.6767 10.0044 8.6767C10.3711 8.6767 10.6825 8.80634 10.9389 9.06562C11.1952 9.32491 11.3234 9.63786 11.3234 10.0045C11.3234 10.3711 11.1937 10.6826 10.9345 10.9389C10.6752 11.1952 10.3622 11.3234 9.99559 11.3234ZM10.9267 17.4014V13.058C11.6012 12.8757 12.1448 12.4999 12.5575 11.9308C12.9703 11.3616 13.1767 10.7148 13.1767 9.99024C13.1767 9.87361 13.1702 9.76063 13.1572 9.65133C13.1442 9.54202 13.1277 9.43967 13.1078 9.34427L17.1151 7.10422V13.9627L10.9267 17.4014Z" fill="#3A424A"/>
</svg>
