<svg width="20" height="20" viewBox="0 0 20 20" fill="none" xmlns="http://www.w3.org/2000/svg">
<path d="M10.2572 10.3695L11.6806 9.13781L11.9807 9.43512L10.7203 10.8282C10.8146 11.0916 10.7546 11.3974 10.5402 11.6097C10.2487 11.907 9.7685 11.907 9.46839 11.6097C9.16829 11.3209 9.16829 10.8452 9.46839 10.5479C9.68276 10.3355 9.99144 10.2761 10.2572 10.3695Z" fill="#3A424A"/>
<path fill-rule="evenodd" clip-rule="evenodd" d="M11.4491 1.97688V3.28504C15.179 3.95611 18 7.19254 18 11.0746C18 15.4493 14.4159 19 10 19C5.58414 19 2 15.4493 2 11.0746C2 7.20953 4.79528 3.99009 8.48231 3.29353V1.97688H8.01072V1H11.9207V1.97688H11.4491ZM10.2229 14.6848V15.1435C12.3151 15.0415 13.9871 13.3766 14.1158 11.2954H13.6527V10.8367H14.1158C14.0043 8.76404 12.3237 7.1076 10.2315 6.99717V7.45588H9.76849V7.00566C7.69346 7.13308 6.03001 8.77253 5.90997 10.8282H6.36442V11.2869H5.90139C6.01286 13.3511 7.67631 15.016 9.75991 15.135V14.6848H10.2229Z" fill="#3A424A"/>
</svg>
