<svg width="20" height="20" viewBox="0 0 20 20" fill="none" xmlns="http://www.w3.org/2000/svg">
<path d="M10 18C8.89756 18 7.86153 17.7917 6.89192 17.375C5.92231 16.9583 5.07292 16.3854 4.34375 15.6562C3.61458 14.9271 3.04167 14.0767 2.625 13.105C2.20833 12.1334 2 11.0952 2 9.99046C2 8.88571 2.20833 7.85069 2.625 6.88542C3.04167 5.92014 3.61458 5.07292 4.34375 4.34375C5.07292 3.61458 5.92231 3.04167 6.89192 2.625C7.86153 2.20833 8.89756 2 10 2C11.1873 2 12.3105 2.25347 13.3696 2.76042C14.4288 3.26736 15.3472 3.97222 16.125 4.875L10 11V3.5C8.19444 3.5 6.65972 4.13194 5.39583 5.39583C4.13194 6.65972 3.5 8.19444 3.5 10C3.5 11.8056 4.13194 13.3403 5.39583 14.6042C6.65972 15.8681 8.19444 16.5 10 16.5C10.9722 16.5 11.8924 16.2951 12.7604 15.8854C13.6285 15.4757 14.375 14.8958 15 14.1458V16.25C14.2917 16.8194 13.5094 17.2535 12.6531 17.5521C11.7968 17.8507 10.9124 18 10 18ZM16.5 15L16.4792 8H17.9792L18 15H16.5ZM17.2544 18C17.0431 18 16.8646 17.9285 16.7188 17.7856C16.5729 17.6427 16.5 17.4656 16.5 17.2544C16.5 17.0431 16.5715 16.8646 16.7144 16.7188C16.8573 16.5729 17.0344 16.5 17.2456 16.5C17.4569 16.5 17.6354 16.5715 17.7812 16.7144C17.9271 16.8573 18 17.0344 18 17.2456C18 17.4569 17.9285 17.6354 17.7856 17.7812C17.6427 17.9271 17.4656 18 17.2544 18Z" fill="#3A424A"/>
</svg>
