<svg width="20" height="20" viewBox="0 0 20 20" fill="none" xmlns="http://www.w3.org/2000/svg">
<path d="M10.0589 18.4004C8.9043 18.4004 7.81929 18.1815 6.80383 17.7439C5.78837 17.3062 4.8991 16.7048 4.13602 15.9397C3.37294 15.1745 2.77317 14.2818 2.33673 13.2615C1.90027 12.2412 1.68204 11.151 1.68204 9.99096C1.68204 8.83091 1.90019 7.74469 2.33648 6.73232C2.77278 5.71993 3.37515 4.82953 4.14356 4.06111C4.91198 3.29269 5.80477 2.69034 6.82194 2.25405C7.8391 1.81776 8.92594 1.59961 10.0824 1.59961C11.3639 1.59961 12.5735 1.88252 13.7111 2.44834C14.8488 3.01416 15.8261 3.79556 16.6431 4.79255L10.0824 11.365V3.6413C8.32398 3.6413 6.82458 4.26146 5.58425 5.5018C4.34392 6.74213 3.72375 8.24153 3.72375 9.99998C3.72375 11.7584 4.34392 13.2578 5.58425 14.4982C6.82458 15.7385 8.32398 16.3587 10.0824 16.3587C11.0233 16.3587 11.91 16.1636 12.7428 15.7735C13.5755 15.3834 14.2965 14.833 14.9058 14.1223V16.8506C14.2053 17.3651 13.4407 17.752 12.6119 18.0113C11.783 18.2707 10.9321 18.4004 10.0589 18.4004ZM16.4058 15L16.385 7.99998H18.2382L18.2591 15H16.4058ZM17.3368 18.2355C17.0588 18.2355 16.8243 18.1415 16.6334 17.9534C16.4424 17.7654 16.3469 17.5324 16.3469 17.2544C16.3469 16.9764 16.4409 16.7419 16.629 16.5509C16.817 16.36 17.0501 16.2645 17.328 16.2645C17.606 16.2645 17.8405 16.3585 18.0315 16.5465C18.2225 16.7346 18.318 16.9676 18.318 17.2456C18.318 17.5236 18.2239 17.7581 18.0359 17.949C17.8478 18.14 17.6148 18.2355 17.3368 18.2355Z" fill="#3A424A"/>
</svg>
