<svg width="20" height="20" viewBox="0 0 20 20" fill="none" xmlns="http://www.w3.org/2000/svg">
<path d="M10 18.3333C8.86111 18.3333 7.78472 18.1146 6.77083 17.6771C5.75695 17.2396 4.87153 16.6423 4.11458 15.8854C3.35764 15.1285 2.76042 14.243 2.32292 13.2291C1.88542 12.2153 1.66667 11.1389 1.66667 9.99998C1.66667 8.8472 1.88542 7.76734 2.32292 6.7604C2.76042 5.75345 3.35764 4.87151 4.11458 4.11456C4.87153 3.35762 5.75695 2.7604 6.77083 2.3229C7.78472 1.8854 8.86111 1.66665 10 1.66665C10.4444 1.66665 10.8715 1.6979 11.2813 1.7604C11.691 1.8229 12.0972 1.91665 12.5 2.04165V4.16665C12.5 4.62498 12.3368 5.01734 12.0104 5.34373C11.684 5.67012 11.2917 5.83331 10.8333 5.83331H9.16667V7.49998C9.16667 7.73609 9.08681 7.93401 8.92708 8.09373C8.76736 8.25345 8.56945 8.33331 8.33333 8.33331H6.66667V9.99998H11.6667C11.9028 9.99998 12.1007 10.0798 12.2604 10.2396C12.4201 10.3993 12.5 10.5972 12.5 10.8333V13.3333H13.3333C13.7083 13.3333 14.0382 13.4444 14.3229 13.6666C14.6076 13.8889 14.8056 14.1666 14.9167 14.5C15.4583 13.8889 15.8854 13.2048 16.1979 12.4479C16.5104 11.691 16.6667 10.875 16.6667 9.99998C16.6667 9.8472 16.6597 9.70831 16.6458 9.58331C16.6319 9.45831 16.6111 9.31942 16.5833 9.16665H18.2917C18.3194 9.31942 18.3333 9.45831 18.3333 9.58331V9.99998C18.3333 11.1389 18.1146 12.2153 17.6771 13.2291C17.2396 14.243 16.6424 15.1285 15.8854 15.8854C15.1285 16.6423 14.2465 17.2396 13.2396 17.6771C12.2326 18.1146 11.1528 18.3333 10 18.3333ZM9.16667 16.625V15C8.70833 15 8.31597 14.8368 7.98958 14.5104C7.6632 14.184 7.5 13.7916 7.5 13.3333V12.5L3.5 8.49998C3.45833 8.74998 3.42014 8.99998 3.38542 9.24998C3.3507 9.49998 3.33333 9.74998 3.33333 9.99998C3.33333 11.7222 3.89236 13.2048 5.01042 14.4479C6.12847 15.691 7.51389 16.4166 9.16667 16.625ZM15 7.49998C14.7639 7.49998 14.566 7.42012 14.4063 7.2604C14.2465 7.10067 14.1667 6.90276 14.1667 6.66665V4.16665C14.1667 3.93054 14.2465 3.73262 14.4063 3.5729C14.566 3.41317 14.7639 3.33331 15 3.33331V2.49998C15 2.04165 15.1632 1.64929 15.4896 1.3229C15.816 0.996507 16.2083 0.833313 16.6667 0.833313C17.125 0.833313 17.5174 0.996507 17.8438 1.3229C18.1701 1.64929 18.3333 2.04165 18.3333 2.49998V3.33331C18.5694 3.33331 18.7674 3.41317 18.9271 3.5729C19.0868 3.73262 19.1667 3.93054 19.1667 4.16665V6.66665C19.1667 6.90276 19.0868 7.10067 18.9271 7.2604C18.7674 7.42012 18.5694 7.49998 18.3333 7.49998H15ZM15.8333 3.33331H17.5V2.49998C17.5 2.26387 17.4201 2.06595 17.2604 1.90623C17.1007 1.74651 16.9028 1.66665 16.6667 1.66665C16.4306 1.66665 16.2326 1.74651 16.0729 1.90623C15.9132 2.06595 15.8333 2.26387 15.8333 2.49998V3.33331Z" fill="#3A424A"/>
</svg>
