<svg width="20" height="20" viewBox="0 0 20 20" fill="none" xmlns="http://www.w3.org/2000/svg">
<path d="M4.5 17C4.08333 17 3.72917 16.8542 3.4375 16.5625C3.14583 16.2708 3 15.9167 3 15.5V5.625C3 5.43056 3.04167 5.24306 3.125 5.0625C3.20833 4.88194 3.3125 4.71528 3.4375 4.5625L4.5625 3.4375C4.6875 3.28472 4.84722 3.17361 5.04167 3.10417C5.23611 3.03472 5.43056 3 5.625 3H14.375C14.5694 3 14.7604 3.03472 14.9479 3.10417C15.1354 3.17361 15.2986 3.28472 15.4375 3.4375L16.5625 4.5625C16.6875 4.71528 16.7917 4.88194 16.875 5.0625C16.9583 5.24306 17 5.43056 17 5.625V15.5C17 15.9167 16.8542 16.2708 16.5625 16.5625C16.2708 16.8542 15.9167 17 15.5 17H4.5ZM4.625 5.5H15.375L14.375 4.5H5.625L4.625 5.5ZM11.9792 14.0208L14.75 11.25L11.9792 8.47917L10.9167 9.52083L12.625 11.25L10.9167 12.9792L11.9792 14.0208ZM8.02083 14.0208L9.08333 12.9792L7.375 11.25L9.08333 9.52083L8.02083 8.47917L5.25 11.25L8.02083 14.0208Z" fill="#3A424A"/>
</svg>
