<svg width="20" height="20" viewBox="0 0 20 20" fill="none" xmlns="http://www.w3.org/2000/svg">
<path d="M5 18C4.36133 18 3.86833 17.83 3.521 17.49C3.17367 17.1493 3 16.6527 3 16V13H5V2L6.208 3.208L7.396 2L8.604 3.208L9.792 2L11 3.208L12.208 2L13.396 3.208L14.604 2L15.792 3.208L17 2V15.75C17 16.4027 16.7847 16.941 16.354 17.365C15.9233 17.7883 15.3887 18 14.75 18H5ZM14.75 16.5C14.972 16.5 15.1527 16.434 15.292 16.302C15.4307 16.17 15.5 15.986 15.5 15.75V4.5H6.5V13H14V15.75C14 15.986 14.0693 16.17 14.208 16.302C14.3473 16.434 14.528 16.5 14.75 16.5ZM7.5 7.5V6H12V7.5H7.5ZM7.5 10V8.5H12V10H7.5ZM13.75 7.5C13.5553 7.5 13.3817 7.427 13.229 7.281C13.0763 7.135 13 6.958 13 6.75C13 6.542 13.0763 6.365 13.229 6.219C13.3817 6.073 13.5553 6 13.75 6C13.958 6 14.135 6.073 14.281 6.219C14.427 6.365 14.5 6.542 14.5 6.75C14.5 6.958 14.427 7.135 14.281 7.281C14.135 7.427 13.958 7.5 13.75 7.5ZM13.75 10C13.5553 10 13.3817 9.927 13.229 9.781C13.0763 9.635 13 9.458 13 9.25C13 9.042 13.0763 8.865 13.229 8.719C13.3817 8.573 13.5553 8.5 13.75 8.5C13.958 8.5 14.135 8.573 14.281 8.719C14.427 8.865 14.5 9.042 14.5 9.25C14.5 9.458 14.427 9.635 14.281 9.781C14.135 9.927 13.958 10 13.75 10ZM5 16.5H12.5V14.5H4.5V16C4.5 16.236 4.52433 16.3783 4.573 16.427C4.62167 16.4757 4.764 16.5 5 16.5Z" fill="#3A424A"/>
</svg>
