<svg width="20" height="20" viewBox="0 0 20 20" fill="none" xmlns="http://www.w3.org/2000/svg">
<path d="M14.3125 18L14.0625 16.8333C13.8681 16.7639 13.684 16.684 13.5104 16.5938C13.3368 16.5035 13.1736 16.3889 13.0208 16.25L11.875 16.6042L11.2083 15.4583L12.0625 14.625C12.0208 14.4306 12 14.2292 12 14.0208C12 13.8125 12.0208 13.6111 12.0625 13.4167L11.2083 12.6042L11.875 11.4375L13 11.7708C13.1528 11.6181 13.3194 11.4931 13.5 11.3958C13.6806 11.2986 13.8681 11.2222 14.0625 11.1667L14.3333 10H15.6667L15.9375 11.1667C16.1319 11.2361 16.3229 11.316 16.5104 11.4062C16.6979 11.4965 16.8611 11.6181 17 11.7708L18.125 11.4583L18.7917 12.6042L17.9583 13.3958C18 13.5903 18.0174 13.7951 18.0104 14.0104C18.0035 14.2257 17.9792 14.4306 17.9375 14.625L18.7917 15.4375L18.125 16.5833L16.9792 16.25C16.8264 16.3889 16.6632 16.5035 16.4896 16.5938C16.316 16.684 16.1319 16.7639 15.9375 16.8333L15.6458 18H14.3125ZM15 15.5C15.4167 15.5 15.7708 15.3542 16.0625 15.0625C16.3542 14.7708 16.5 14.4167 16.5 14C16.5 13.5833 16.3542 13.2292 16.0625 12.9375C15.7708 12.6458 15.4167 12.5 15 12.5C14.5833 12.5 14.2292 12.6458 13.9375 12.9375C13.6458 13.2292 13.5 13.5833 13.5 14C13.5 14.4167 13.6458 14.7708 13.9375 15.0625C14.2292 15.3542 14.5833 15.5 15 15.5ZM3.5 16C3.09722 16 2.74653 15.8507 2.44792 15.5521C2.14931 15.2535 2 14.9028 2 14.5V5.5C2 5.09722 2.14931 4.74653 2.44792 4.44792C2.74653 4.14931 3.09722 4 3.5 4H16.5C16.9167 4 17.2708 4.14931 17.5625 4.44792C17.8542 4.74653 18 5.09722 18 5.5V9.39583C17.7639 9.24306 17.5243 9.10764 17.2813 8.98958C17.0382 8.87153 16.7778 8.77778 16.5 8.70833V7H3.5V10H11.2083C10.6806 10.5 10.2604 11.0938 9.94792 11.7812C9.63542 12.4688 9.47917 13.2083 9.47917 14C9.47917 14.3611 9.51389 14.7049 9.58333 15.0312C9.65278 15.3576 9.74306 15.6806 9.85417 16H3.5Z" fill="#3A424A"/>
</svg>
