<svg width="20" height="20" viewBox="0 0 20 20" fill="none" xmlns="http://www.w3.org/2000/svg">
<path d="M5.05887 18.7183C4.26951 18.7183 3.64856 18.4955 3.19601 18.0499C2.74346 17.6043 2.51718 16.9799 2.51718 16.1766V12.788H4.69383V1.72913L6.00814 3.00813L7.26629 1.72913L8.54529 3.00813L9.8152 1.72913L11.0942 3.00813L12.3732 1.72913L13.6313 3.00813L14.9103 1.72913L16.1685 3.00813L17.4828 1.72913V15.9266C17.4828 16.7299 17.2149 17.396 16.679 17.9249C16.1431 18.4538 15.4805 18.7183 14.6911 18.7183H5.05887ZM14.6911 16.6766C14.9133 16.6766 15.0939 16.6107 15.2328 16.4787C15.3717 16.3468 15.4411 16.1627 15.4411 15.9266V4.82971H6.73551V12.788H13.9411V15.9266C13.955 16.1627 14.0279 16.3468 14.1599 16.4787C14.2918 16.6107 14.4689 16.6766 14.6911 16.6766ZM7.73551 7.92392V6.42392H11.9411V7.92392H7.73551ZM7.73551 10.4239V8.92392H11.9411V10.4239H7.73551ZM13.6911 7.92392C13.4967 7.92392 13.3231 7.851 13.1703 7.70517C13.0175 7.55933 12.9411 7.38225 12.9411 7.17392C12.9411 6.96558 13.0175 6.7885 13.1703 6.64267C13.3231 6.49683 13.4967 6.42392 13.6911 6.42392C13.8995 6.42392 14.0765 6.49683 14.2224 6.64267C14.3682 6.7885 14.4411 6.96558 14.4411 7.17392C14.4411 7.38225 14.3682 7.55933 14.2224 7.70517C14.0765 7.851 13.8995 7.92392 13.6911 7.92392ZM13.6911 10.4239C13.4967 10.4239 13.3231 10.351 13.1703 10.2052C13.0175 10.0593 12.9411 9.88225 12.9411 9.67392C12.9411 9.46558 13.0175 9.2885 13.1703 9.14267C13.3231 8.99683 13.4967 8.92392 13.6911 8.92392C13.8995 8.92392 14.0765 8.99683 14.2224 9.14267C14.3682 9.2885 14.4411 9.46558 14.4411 9.67392C14.4411 9.88225 14.3682 10.0593 14.2224 10.2052C14.0765 10.351 13.8995 10.4239 13.6911 10.4239Z" fill="#3A424A"/>
</svg>
