<svg width="20" height="20" viewBox="0 0 20 20" fill="none" xmlns="http://www.w3.org/2000/svg">
<path fill-rule="evenodd" clip-rule="evenodd" d="M5.34375 14.8125C6.57292 16.4792 8.125 17.5417 10 18C11.875 17.5417 13.4271 16.4792 14.6562 14.8125C15.8854 13.1458 16.5 11.2986 16.5 9.27083V4.5L10 2L3.5 4.5V9.27083C3.5 11.2986 4.11458 13.1458 5.34375 14.8125ZM10 3.60419L5 5.52085V9.27085C5 10.007 5.10417 10.7222 5.3125 11.4167C5.52083 12.1111 5.80556 12.757 6.16667 13.3542L7.10417 14.5834C7.50694 15.0139 7.95139 15.3889 8.4375 15.7084C8.92361 16.0278 9.44444 16.2709 10 16.4375C10.5556 16.2709 11.0764 16.0278 11.5625 15.7084C12.0486 15.3889 12.4931 15.0139 12.8958 14.5834L13.8333 13.3542C14.1944 12.757 14.4792 12.1111 14.6875 11.4167C14.8958 10.7222 15 10.007 15 9.27085V5.52085L10 3.60419Z" fill="#3A424A"/>
<path d="M14.0242 13.0208H5.97576C6.03683 13.1336 6.10046 13.2447 6.16667 13.3542L7.05647 14.5208H12.9435L13.8333 13.3542C13.8995 13.2447 13.9632 13.1336 14.0242 13.0208Z" fill="#3A424A"/>
<path fill-rule="evenodd" clip-rule="evenodd" d="M8.26913 7.72614V10.2261H11.7309V7.72614H8.26913ZM7.69217 6.47614C7.05488 6.47614 6.53825 6.84923 6.53825 7.30947V10.6428C6.53825 11.103 7.05488 11.4761 7.69217 11.4761H12.3078C12.9451 11.4761 13.4617 11.103 13.4617 10.6428V7.30947C13.4617 6.84923 12.9451 6.47614 12.3078 6.47614H7.69217Z" fill="#3A424A"/>
</svg>
