<svg width="20" height="20" viewBox="0 0 20 20" fill="none" xmlns="http://www.w3.org/2000/svg">
<path fill-rule="evenodd" clip-rule="evenodd" d="M13.6156 16.2741L13.6169 16.2719L14.7101 14.375H9.9939C9.76915 14.7068 9.38918 14.9248 8.95829 14.9248C8.26793 14.9248 7.70829 14.3652 7.70829 13.6748C7.70829 12.9844 8.26793 12.4248 8.95829 12.4248C9.45138 12.4248 9.87778 12.7103 10.0812 13.125H15.4305L17.2186 10.0223L13.6293 3.73165L6.37681 3.73176L6.37241 3.7317L2.76893 10.0198L6.37241 16.2741H13.6156ZM5.91661 7.54169C5.91661 7.99744 6.16052 8.39623 6.52493 8.61464V10C6.52493 10.1151 6.43166 10.2084 6.3166 10.2084H2.87814L3.59983 11.4584H6.3166C7.12201 11.4584 7.77493 10.8054 7.77493 10V8.63394C8.15774 8.42028 8.41661 8.01122 8.41661 7.54169C8.41661 6.85133 7.85697 6.29169 7.16661 6.29169C6.47626 6.29169 5.91661 6.85133 5.91661 7.54169Z" fill="#3A424A"/>
<path fill-rule="evenodd" clip-rule="evenodd" d="M18.6855 10.8334C18.9833 10.3177 18.9833 9.68237 18.6855 9.1667L15.0644 2.8948C14.7667 2.37913 14.2165 2.06146 13.6211 2.06146H6.37891C5.78346 2.06146 5.23325 2.37913 4.93553 2.8948L1.31445 9.1667C1.01673 9.68236 1.01673 10.3177 1.31445 10.8334L4.93553 17.1053C5.23325 17.6209 5.78346 17.9386 6.3789 17.9386H13.6211C14.2165 17.9386 14.7667 17.6209 15.0644 17.1053L18.6855 10.8334ZM13.9196 3.23164L17.7949 10.0236L13.9045 16.7741H6.08343L2.19226 10.0205L6.08265 3.2317L13.9196 3.23164Z" fill="#3A424A"/>
</svg>
