<svg width="20" height="20" viewBox="0 0 20 20" fill="none" xmlns="http://www.w3.org/2000/svg">
<path d="M4.6413 17.4004C4.07178 17.4004 3.58912 17.2025 3.19332 16.8067C2.79751 16.4108 2.59961 15.9282 2.59961 15.3587V4.6413C2.59961 4.07178 2.79751 3.58912 3.19332 3.19332C3.58912 2.79751 4.07178 2.59961 4.6413 2.59961H12.9411L17.4004 7.05886V15.3587C17.4004 15.9282 17.2025 16.4108 16.8067 16.8067C16.4108 17.2025 15.9282 17.4004 15.3587 17.4004H4.6413ZM6.74559 14.0942C6.98355 14.0942 7.18447 14.0137 7.34836 13.8527C7.51225 13.6918 7.59419 13.4923 7.59419 13.2544C7.59419 13.0164 7.51371 12.8155 7.35273 12.6516C7.19178 12.4877 6.99232 12.4058 6.75438 12.4058C6.51642 12.4058 6.3155 12.4863 6.15161 12.6472C5.98772 12.8082 5.90578 13.0076 5.90578 13.2456C5.90578 13.4835 5.98626 13.6845 6.14723 13.8484C6.30819 14.0122 6.50764 14.0942 6.74559 14.0942ZM6.74559 10.8442C6.98355 10.8442 7.18447 10.7637 7.34836 10.6027C7.51225 10.4418 7.59419 10.2423 7.59419 10.0044C7.59419 9.76642 7.51371 9.5655 7.35273 9.40161C7.19178 9.23772 6.99232 9.15578 6.75438 9.15578C6.51642 9.15578 6.3155 9.23626 6.15161 9.39723C5.98772 9.55819 5.90578 9.75764 5.90578 9.99559C5.90578 10.2335 5.98626 10.4345 6.14723 10.5984C6.30819 10.7622 6.50764 10.8442 6.74559 10.8442ZM6.74559 7.59419C6.98355 7.59419 7.18447 7.51371 7.34836 7.35274C7.51225 7.19178 7.59419 6.99233 7.59419 6.75438C7.59419 6.51642 7.51371 6.3155 7.35273 6.15161C7.19178 5.98772 6.99232 5.90578 6.75438 5.90578C6.51642 5.90578 6.3155 5.98626 6.15161 6.14723C5.98772 6.30819 5.90578 6.50764 5.90578 6.74559C5.90578 6.98355 5.98626 7.18447 6.14723 7.34836C6.30819 7.51225 6.50764 7.59419 6.74559 7.59419ZM11.6703 8.32971H15.3587L11.6703 4.6413V8.32971Z" fill="#3A424A"/>
</svg>
