<svg width="20" height="20" viewBox="0 0 20 20" fill="none" xmlns="http://www.w3.org/2000/svg">
<path d="M7.30432 18.7337L6.96826 15.9791C6.89218 15.9193 6.79631 15.8565 6.68068 15.7907C6.56505 15.7249 6.46134 15.67 6.36955 15.6259L3.8143 16.7056L1.10684 12.0072L3.28438 10.3532C3.29223 10.3013 3.29615 10.2424 3.29615 10.1766V9.82332C3.29615 9.7575 3.29223 9.69862 3.28438 9.64669L1.10684 7.99269L3.8143 3.31786L6.39311 4.3858C6.48489 4.34171 6.58271 4.28873 6.68657 4.22684C6.79043 4.16494 6.88433 4.1041 6.96826 4.04432L7.30432 1.26624H12.6957L13.0317 4.04432C13.1078 4.1041 13.2037 4.16494 13.3193 4.22684C13.4349 4.28873 13.5386 4.34171 13.6304 4.3858L16.1857 3.31786L18.8931 7.99269L16.7247 9.64669C16.7168 9.69862 16.7129 9.7575 16.7129 9.82332V9.99994C16.7129 10.0519 16.7109 10.1107 16.707 10.1766C16.7031 10.2424 16.7089 10.3013 16.7247 10.3532L18.8931 12.0072L16.1739 16.7056L13.6069 15.6259C13.5151 15.67 13.4173 15.7249 13.3134 15.7907C13.2095 15.8565 13.1156 15.9193 13.0317 15.9791L12.6957 18.7337H7.30432ZM9.96465 12.9791C10.7841 12.9791 11.4855 12.6874 12.0688 12.1041C12.6522 11.5208 12.9438 10.8194 12.9438 9.99994C12.9438 9.1805 12.6522 8.47911 12.0688 7.89578C11.4855 7.31244 10.7841 7.02078 9.96465 7.02078C9.15307 7.02078 8.45365 7.31244 7.86638 7.89578C7.27912 8.47911 6.98549 9.1805 6.98549 9.99994C6.98549 10.8194 7.27912 11.5208 7.86638 12.1041C8.45365 12.6874 9.15307 12.9791 9.96465 12.9791Z" fill="#3A424A"/>
</svg>
