<svg width="20" height="20" viewBox="0 0 20 20" fill="none" xmlns="http://www.w3.org/2000/svg">
<path d="M7.64583 18.3333L7.33333 15.7083C7.19444 15.625 7.04167 15.5347 6.875 15.4375C6.70833 15.3403 6.55556 15.25 6.41667 15.1667L3.97917 16.1875L1.625 12.125L3.70833 10.5417V9.45832L1.625 7.87499L3.97917 3.81249L6.41667 4.83332C6.55556 4.74999 6.70833 4.65971 6.875 4.56249C7.04167 4.46527 7.19444 4.37499 7.33333 4.29166L7.64583 1.66666H12.3542L12.6667 4.29166C12.8056 4.37499 12.9583 4.46527 13.125 4.56249C13.2917 4.65971 13.4444 4.74999 13.5833 4.83332L16.0208 3.81249L18.375 7.87499L16.3125 9.45832V10.5417L18.375 12.125L16.0208 16.1875L13.5833 15.1667C13.4444 15.25 13.2917 15.3403 13.125 15.4375C12.9583 15.5347 12.8056 15.625 12.6667 15.7083L12.3542 18.3333H7.64583ZM10 12.9792C10.8194 12.9792 11.5208 12.6875 12.1042 12.1042C12.6875 11.5208 12.9792 10.8194 12.9792 9.99999C12.9792 9.18055 12.6875 8.47916 12.1042 7.89582C11.5208 7.31249 10.8194 7.02082 10 7.02082C9.18056 7.02082 8.47917 7.31249 7.89583 7.89582C7.3125 8.47916 7.02083 9.18055 7.02083 9.99999C7.02083 10.8194 7.3125 11.5208 7.89583 12.1042C8.47917 12.6875 9.18056 12.9792 10 12.9792ZM10 11.2292C9.66667 11.2292 9.37847 11.1076 9.13542 10.8646C8.89236 10.6215 8.77083 10.3333 8.77083 9.99999C8.77083 9.66666 8.89236 9.37846 9.13542 9.13541C9.37847 8.89235 9.66667 8.77082 10 8.77082C10.3333 8.77082 10.6215 8.89235 10.8646 9.13541C11.1076 9.37846 11.2292 9.66666 11.2292 9.99999C11.2292 10.3333 11.1076 10.6215 10.8646 10.8646C10.6215 11.1076 10.3333 11.2292 10 11.2292ZM9.16667 16.5833H10.8333L11.0833 14.4167C11.4861 14.3055 11.875 14.1389 12.25 13.9167C12.625 13.6944 12.9653 13.4305 13.2708 13.125L15.2917 13.9792L16.125 12.6042L14.3542 11.25C14.4236 11.0555 14.4722 10.8542 14.5 10.6458C14.5278 10.4375 14.5417 10.2222 14.5417 9.99999C14.5417 9.80555 14.5278 9.60763 14.5 9.40624C14.4722 9.20485 14.4306 8.99305 14.375 8.77082L16.1458 7.39582L15.3125 6.02082L13.2917 6.89582C12.9722 6.57638 12.6285 6.30902 12.2604 6.09374C11.8924 5.87846 11.5069 5.71527 11.1042 5.60416L10.8333 3.41666H9.16667L8.89583 5.60416C8.49306 5.71527 8.10764 5.87846 7.73958 6.09374C7.37153 6.30902 7.03472 6.56943 6.72917 6.87499L4.70833 6.02082L3.875 7.39582L5.625 8.74999C5.56944 8.97221 5.52778 9.18749 5.5 9.39582C5.47222 9.60416 5.45833 9.80555 5.45833 9.99999C5.45833 10.1944 5.47222 10.3924 5.5 10.5937C5.52778 10.7951 5.56944 11.0069 5.625 11.2292L3.875 12.6042L4.70833 13.9792L6.72917 13.125C7.03472 13.4305 7.37153 13.691 7.73958 13.9062C8.10764 14.1215 8.49306 14.2847 8.89583 14.3958L9.16667 16.5833Z" fill="#3A424A"/>
</svg>
