<svg width="20" height="20" viewBox="0 0 20 20" fill="none" xmlns="http://www.w3.org/2000/svg">
<path fill-rule="evenodd" clip-rule="evenodd" d="M13.6211 16.272L17.2422 10.0001L13.6211 3.72819L6.37892 3.72819L2.75784 10.0001L6.37892 16.272H13.6211ZM18.6855 10.8334C18.9833 10.3178 18.9833 9.68243 18.6855 9.16676L15.0645 2.89486C14.7667 2.37919 14.2165 2.06152 13.6211 2.06152L6.37892 2.06152C5.78348 2.06152 5.23327 2.37919 4.93554 2.89486L1.31446 9.16676C1.01674 9.68243 1.01674 10.3178 1.31446 10.8334L4.93554 17.1053C5.23327 17.621 5.78348 17.9387 6.37892 17.9387H13.6211C14.2165 17.9387 14.7667 17.621 15.0645 17.1053L18.6855 10.8334Z" fill="#3A424A"/>
<path d="M10.2083 13.6749C10.2083 14.3652 9.64867 14.9249 8.95831 14.9249C8.26796 14.9249 7.70831 14.3652 7.70831 13.6749C7.70831 12.9845 8.26796 12.4249 8.95831 12.4249C9.64867 12.4249 10.2083 12.9845 10.2083 13.6749Z" fill="#3A424A"/>
<path d="M8.41664 7.54174C8.41664 8.2321 7.85699 8.79174 7.16664 8.79174C6.47628 8.79174 5.91664 8.2321 5.91664 7.54174C5.91664 6.85139 6.47628 6.29174 7.16664 6.29174C7.85699 6.29174 8.41664 6.85139 8.41664 7.54174Z" fill="#3A424A"/>
<path d="M3.59986 11.4584H6.31662C7.12204 11.4584 7.77495 10.8055 7.77495 10.0001V8.634C7.59492 8.73448 7.38746 8.79174 7.16664 8.79174C6.93204 8.79174 6.71253 8.72712 6.52495 8.61469V10.0001C6.52495 10.1151 6.43168 10.2084 6.31662 10.2084H2.87817L3.59986 11.4584Z" fill="#3A424A"/>
<path d="M15.438 13.1251H10.0812C10.1626 13.291 10.2083 13.4776 10.2083 13.6749C10.2083 13.9343 10.1293 14.1753 9.99393 14.3751H14.7163L15.438 13.1251Z" fill="#3A424A"/>
</svg>
