<svg width="20" height="20" viewBox="0 0 20 20" fill="none" xmlns="http://www.w3.org/2000/svg">
<path d="M14.1377 17.7682L8.9583 12.5797C8.70408 12.6673 8.44834 12.728 8.19109 12.7618C7.93386 12.7956 7.65155 12.8125 7.34418 12.8125C5.86108 12.8125 4.59266 12.2857 3.53891 11.2319C2.48516 10.1782 1.95828 8.90973 1.95828 7.42664C1.95828 6.92483 2.04147 6.40052 2.20784 5.85372C2.37421 5.30691 2.60413 4.83212 2.89762 4.42934L5.98909 7.54166L7.4266 6.10416L4.31428 2.99184C4.70739 2.72795 5.1852 2.5089 5.7477 2.33468C6.31021 2.16047 6.84237 2.07336 7.34418 2.07336C8.82728 2.07336 10.0903 2.5948 11.1331 3.63768C12.176 4.68055 12.6975 5.94354 12.6975 7.42664C12.6975 7.69475 12.6825 7.96679 12.6526 8.24276C12.6227 8.51872 12.5601 8.79559 12.4647 9.07336L17.6649 14.2527C17.9022 14.4901 18.0208 14.7739 18.0208 15.1042C18.0208 15.4345 17.9022 15.7183 17.6649 15.9557L15.8732 17.7682C15.622 18.0055 15.3327 18.1241 15.0054 18.1241C14.6781 18.1241 14.3889 18.0055 14.1377 17.7682Z" fill="#3A424A"/>
</svg>
