<svg width="20" height="20" viewBox="0 0 20 20" fill="none" xmlns="http://www.w3.org/2000/svg">
<path d="M14.2083 17.25L9.2244 12.25C8.9498 12.3611 8.67014 12.4375 8.38542 12.4792C8.10069 12.5208 7.8125 12.5417 7.52083 12.5417C6.12615 12.5417 4.94068 12.0535 3.96442 11.0773C2.98814 10.101 2.5 8.91552 2.5 7.52084C2.5 7.03473 2.56944 6.55557 2.70833 6.08334C2.84722 5.61112 3.05556 5.17362 3.33333 4.77084L6.35417 7.81251L7.79167 6.37501L4.75 3.33334C5.16667 3.06945 5.61111 2.86807 6.08333 2.72918C6.55556 2.59029 7.03472 2.52084 7.52083 2.52084C8.90972 2.52084 10.0903 3.00695 11.0625 3.97918C12.0347 4.9514 12.5208 6.13195 12.5208 7.52084C12.5208 7.81251 12.5 8.10418 12.4583 8.39584C12.4167 8.68751 12.3403 8.97088 12.2292 9.24595L17.2332 14.2385C17.3972 14.4036 17.4792 14.603 17.4792 14.8368C17.4792 15.0706 17.3941 15.2734 17.224 15.4453L15.4375 17.25C15.2569 17.4167 15.0521 17.5 14.8229 17.5C14.5938 17.5 14.3889 17.4167 14.2083 17.25ZM14.8125 15.375L15.3542 14.8333L10.0833 9.56251C10.3472 9.27084 10.5312 8.94793 10.6354 8.59376C10.7396 8.23959 10.7917 7.87501 10.7917 7.50001C10.7917 6.70834 10.5417 6.01043 10.0417 5.40626C9.54167 4.80209 8.91667 4.42362 8.16667 4.27084L9.60417 5.72918C9.77083 5.90973 9.85764 6.11112 9.86458 6.33334C9.87153 6.55557 9.78472 6.75696 9.60417 6.93751L6.9375 9.60418C6.75694 9.78473 6.55556 9.87154 6.33333 9.86459C6.11111 9.85765 5.90972 9.77084 5.72917 9.60418L4.27083 8.16668C4.42361 8.91668 4.80208 9.54168 5.40625 10.0417C6.01042 10.5417 6.70833 10.7917 7.5 10.7917C7.85704 10.7917 8.21408 10.7361 8.57113 10.625C8.92817 10.5139 9.25088 10.3403 9.53927 10.1042L14.8125 15.375Z" fill="#3A424A"/>
</svg>
