<svg width="20" height="20" viewBox="0 0 20 20" fill="none" xmlns="http://www.w3.org/2000/svg">
<path d="M7.55887 15.6123C7.05586 15.6123 6.63496 15.4405 6.29618 15.0969C5.95742 14.7533 5.78804 14.3349 5.78804 13.8414V12.5706H15.6295V5.75266H16.9004C17.3938 5.75266 17.8123 5.92445 18.1558 6.26803C18.4994 6.6116 18.6712 7.03009 18.6712 7.52349V18.7183L15.5652 15.6123H7.55887ZM1.32877 14.2472V3.05247C1.32877 2.55905 1.50056 2.14056 1.84414 1.79699C2.18771 1.45341 2.6062 1.28162 3.09962 1.28162H12.3587C12.8521 1.28162 13.2706 1.45341 13.6142 1.79699C13.9577 2.14056 14.1295 2.55905 14.1295 3.05247V9.29976C14.1295 9.79316 13.9577 10.2117 13.6142 10.5552C13.2706 10.8988 12.8521 11.0706 12.3587 11.0706H4.51718L1.32877 14.2472Z" fill="#3A424A"/>
</svg>
