<svg width="20" height="20" viewBox="0 0 20 20" fill="none" xmlns="http://www.w3.org/2000/svg">
<path d="M1.66666 14.1667V2.50001C1.66666 2.26389 1.75 2.06598 1.91666 1.90626C2.08333 1.74653 2.28472 1.66667 2.52083 1.66667H13.3333C13.5556 1.66667 13.75 1.74653 13.9167 1.90626C14.0833 2.06598 14.1667 2.26389 14.1667 2.50001V10C14.1667 10.2222 14.0833 10.4167 13.9167 10.5833C13.75 10.75 13.5556 10.8333 13.3333 10.8333H5.0625L1.66666 14.1667ZM5.89583 15C5.67361 15 5.47916 14.9167 5.3125 14.75C5.14583 14.5833 5.0625 14.3889 5.0625 14.1667V12.5833H15.9167V5.02084H17.4792C17.7153 5.02084 17.9167 5.10417 18.0833 5.27084C18.25 5.43751 18.3333 5.63889 18.3333 5.87501V18.3333L15 15H5.89583ZM12.4167 3.41667H3.41666V10L4.35416 9.08334H12.4167V3.41667Z" fill="#3A424A"/>
</svg>
