<svg width="20" height="20" viewBox="0 0 20 20" fill="none" xmlns="http://www.w3.org/2000/svg">
<path d="M10.0648 18C8.94688 18 7.89882 17.7871 6.92063 17.3612C5.94257 16.9354 5.09083 16.3599 4.36542 15.6346C3.64014 14.9092 3.06458 14.0574 2.63875 13.0794C2.21292 12.1012 2 11.0531 2 9.93521C2 7.99229 2.61111 6.27431 3.83333 4.78125C5.05556 3.28819 6.63889 2.36111 8.58333 2C8.34722 3.375 8.42708 4.68056 8.82292 5.91667C9.21875 7.15278 9.89583 8.25 10.8542 9.20833C11.7847 10.1389 12.8819 10.7986 14.1458 11.1875C15.4097 11.5764 16.6944 11.6528 18 11.4167C17.6667 13.3333 16.7465 14.9097 15.2396 16.1458C13.7326 17.3819 12.0077 18 10.0648 18ZM10.0625 16.5C11.2847 16.5 12.4236 16.1875 13.4792 15.5625C14.5347 14.9375 15.3333 14.0903 15.875 13.0208C14.7222 12.9514 13.6215 12.6771 12.5729 12.1979C11.5243 11.7188 10.5903 11.0694 9.77083 10.25C8.9375 9.41667 8.28472 8.47917 7.8125 7.4375C7.34028 6.39583 7.0625 5.29167 6.97917 4.125C5.90972 4.69444 5.0625 5.50125 4.4375 6.54542C3.8125 7.58972 3.5 8.72042 3.5 9.9375C3.5 11.7604 4.13806 13.3099 5.41417 14.5858C6.69014 15.8619 8.23958 16.5 10.0625 16.5Z" fill="#3A424A"/>
</svg>
