<svg width="20" height="20" viewBox="0 0 20 20" fill="none" xmlns="http://www.w3.org/2000/svg">
<path d="M5.63543 18.3651C5.07372 18.3651 4.594 18.1652 4.19626 17.7653C3.79851 17.3655 3.59964 16.8848 3.59964 16.3234V8.60599C3.59964 8.04453 3.79956 7.56389 4.19939 7.16406C4.59921 6.76422 5.07986 6.56431 5.64133 6.56431H5.82337V4.90581C5.82337 3.73633 6.22953 2.74197 7.04185 1.92272C7.85418 1.10347 8.84181 0.693848 10.0047 0.693848C11.1677 0.693848 12.1537 1.10347 12.9629 1.92272C13.7721 2.74197 14.1767 3.73633 14.1767 4.90581V6.56431H14.3587C14.9202 6.56431 15.4008 6.76422 15.8006 7.16406C16.2005 7.56389 16.4004 8.04453 16.4004 8.60599V16.3234C16.4004 16.8848 16.2004 17.3655 15.8004 17.7653C15.4004 18.1652 14.9196 18.3651 14.3579 18.3651H5.63543ZM10.0044 13.9647C10.4182 13.9647 10.7708 13.8174 11.0625 13.5228C11.3542 13.2281 11.5 12.874 11.5 12.4603C11.5 12.0465 11.3527 11.6938 11.0581 11.4022C10.7635 11.1105 10.4093 10.9647 9.9956 10.9647C9.58188 10.9647 9.22918 11.112 8.93752 11.4066C8.64585 11.7012 8.50002 12.0554 8.50002 12.4691C8.50002 12.8828 8.64732 13.2355 8.94193 13.5272C9.23656 13.8188 9.59072 13.9647 10.0044 13.9647ZM7.86508 6.56431H12.135V4.90581C12.135 4.30296 11.9292 3.79054 11.5177 3.36854C11.1061 2.94654 10.6003 2.73553 10 2.73553C9.39978 2.73553 8.8939 2.94654 8.48237 3.36854C8.07084 3.79054 7.86508 4.30296 7.86508 4.90581V6.56431Z" fill="#3A424A"/>
</svg>
