<svg width="20" height="20" viewBox="0 0 20 20" fill="none" xmlns="http://www.w3.org/2000/svg">
<path d="M5 18.3333C4.54167 18.3333 4.14945 18.1703 3.82334 17.8442C3.49667 17.5175 3.33334 17.125 3.33334 16.6667V8.33333C3.33334 7.87499 3.49667 7.48249 3.82334 7.15583C4.14945 6.82972 4.54167 6.66666 5 6.66666H5.83334V4.99999C5.83334 3.84722 6.23972 2.86444 7.0525 2.05166C7.86473 1.23944 8.84722 0.833328 10 0.833328C11.1528 0.833328 12.1356 1.23944 12.9483 2.05166C13.7606 2.86444 14.1667 3.84722 14.1667 4.99999V6.66666H15C15.4583 6.66666 15.8508 6.82972 16.1775 7.15583C16.5036 7.48249 16.6667 7.87499 16.6667 8.33333V16.6667C16.6667 17.125 16.5036 17.5175 16.1775 17.8442C15.8508 18.1703 15.4583 18.3333 15 18.3333H5ZM5 16.6667H15V8.33333H5V16.6667ZM10 14.1667C10.4583 14.1667 10.8508 14.0036 11.1775 13.6775C11.5036 13.3508 11.6667 12.9583 11.6667 12.5C11.6667 12.0417 11.5036 11.6492 11.1775 11.3225C10.8508 10.9964 10.4583 10.8333 10 10.8333C9.54167 10.8333 9.14945 10.9964 8.82334 11.3225C8.49667 11.6492 8.33334 12.0417 8.33334 12.5C8.33334 12.9583 8.49667 13.3508 8.82334 13.6775C9.14945 14.0036 9.54167 14.1667 10 14.1667ZM7.5 6.66666H12.5V4.99999C12.5 4.30555 12.2569 3.71527 11.7708 3.22916C11.2847 2.74305 10.6944 2.49999 10 2.49999C9.30556 2.49999 8.71528 2.74305 8.22917 3.22916C7.74306 3.71527 7.5 4.30555 7.5 4.99999V6.66666Z" fill="#3A424A"/>
</svg>
