<svg width="20" height="20" viewBox="0 0 20 20" fill="none" xmlns="http://www.w3.org/2000/svg">
<path d="M3.83333 15.1042C3.33333 14.4931 2.92708 13.8229 2.61458 13.0938C2.30208 12.3646 2.11111 11.5833 2.04167 10.75H3.54167C3.61111 11.375 3.76736 11.9618 4.01042 12.5104C4.25347 13.059 4.55556 13.5625 4.91667 14.0208L3.83333 15.1042ZM2.04167 9.25C2.11111 8.41667 2.30208 7.63542 2.61458 6.90625C2.92708 6.17708 3.33333 5.50694 3.83333 4.89583L4.91667 5.97917C4.55556 6.4375 4.25347 6.94097 4.01042 7.48958C3.76736 8.03819 3.61111 8.625 3.54167 9.25H2.04167ZM9.25 17.9583C8.41667 17.8889 7.63542 17.6979 6.90625 17.3854C6.17708 17.0729 5.50695 16.6667 4.89583 16.1667L5.97917 15.0833C6.4375 15.4444 6.94097 15.7465 7.48958 15.9896C8.0382 16.2326 8.625 16.3889 9.25 16.4583V17.9583ZM5.97917 4.91667L4.89583 3.83333C5.50695 3.33333 6.17708 2.92708 6.90625 2.61458C7.63542 2.30208 8.41667 2.11111 9.25 2.04167V3.54167C8.625 3.61111 8.0382 3.76736 7.48958 4.01042C6.94097 4.25347 6.4375 4.55556 5.97917 4.91667ZM10.75 17.9583V16.4583C11.375 16.3889 11.9618 16.2326 12.5104 15.9896C13.059 15.7465 13.5625 15.4444 14.0208 15.0833L15.1042 16.1667C14.4931 16.6667 13.8229 17.0729 13.0938 17.3854C12.3646 17.6979 11.5833 17.8889 10.75 17.9583ZM14.0208 4.91667C13.5625 4.55556 13.059 4.25347 12.5104 4.01042C11.9618 3.76736 11.375 3.61111 10.75 3.54167V2.04167C11.5833 2.11111 12.3646 2.30208 13.0938 2.61458C13.8229 2.92708 14.4931 3.33333 15.1042 3.83333L14.0208 4.91667ZM16.1667 15.1042L15.0833 14.0208C15.4444 13.5625 15.7465 13.059 15.9896 12.5104C16.2326 11.9618 16.3889 11.375 16.4583 10.75H17.9583C17.8889 11.5833 17.6979 12.3646 17.3854 13.0938C17.0729 13.8229 16.6667 14.4931 16.1667 15.1042ZM16.4583 9.25C16.3889 8.625 16.2326 8.03819 15.9896 7.48958C15.7465 6.94097 15.4444 6.4375 15.0833 5.97917L16.1667 4.89583C16.6667 5.50694 17.0729 6.17708 17.3854 6.90625C17.6979 7.63542 17.8889 8.41667 17.9583 9.25H16.4583ZM9.27083 14V8.85417L7.08333 11.0417L6.02083 10L10.0208 6L14.0208 10L12.9583 11.0417L10.7708 8.85417V14H9.27083Z" fill="#3A424A"/>
</svg>
