<svg width="20" height="20" viewBox="0 0 20 20" fill="none" xmlns="http://www.w3.org/2000/svg">
<path d="M8 12.5L9.0625 11.4375L7.625 10L9.0625 8.5625L8 7.5L5.5 10L8 12.5ZM12 12.5L14.5 10L12 7.5L10.9375 8.5625L12.375 10L10.9375 11.4375L12 12.5ZM4.5 17C4.0875 17 3.73437 16.8531 3.44062 16.5594C3.14687 16.2656 3 15.9125 3 15.5V4.5C3 4.0875 3.14687 3.73437 3.44062 3.44062C3.73437 3.14687 4.0875 3 4.5 3H15.5C15.9125 3 16.2656 3.14687 16.5594 3.44062C16.8531 3.73437 17 4.0875 17 4.5V15.5C17 15.9125 16.8531 16.2656 16.5594 16.5594C16.2656 16.8531 15.9125 17 15.5 17H4.5ZM4.5 15.5H15.5V4.5H4.5V15.5Z" fill="#3A424A"/>
</svg>
