<svg width="20" height="20" viewBox="0 0 20 20" fill="none" xmlns="http://www.w3.org/2000/svg">
<mask id="mask0_2421_26" style="mask-type:alpha" maskUnits="userSpaceOnUse" x="0" y="0" width="20" height="20">
<rect width="20" height="20" fill="#D9D9D9"/>
</mask>
<g mask="url(#mask0_2421_26)">
<path d="M12.8333 12.1458L13.8958 11.0833L12.1458 9.33333C12.2569 9.125 12.3438 8.91125 12.4062 8.69208C12.4688 8.47292 12.5 8.24222 12.5 8C12.5 7.25 12.2326 6.60764 11.6979 6.07292C11.1632 5.53819 10.5104 5.27083 9.73958 5.27083C8.96875 5.27083 8.31944 5.53514 7.79167 6.06375C7.26389 6.59236 7 7.24167 7 8.01167C7 8.78167 7.26389 9.43056 7.79167 9.95833C8.31944 10.4861 8.96528 10.75 9.72917 10.75C9.95139 10.75 10.1736 10.7222 10.3958 10.6667C10.6181 10.6111 10.8472 10.5208 11.0833 10.3958L12.8333 12.1458ZM9.77083 9.25C9.4375 9.25 9.14236 9.12583 8.88542 8.8775C8.62847 8.62903 8.5 8.33042 8.5 7.98167C8.5 7.63278 8.62847 7.33681 8.88542 7.09375C9.14236 6.85069 9.4375 6.72917 9.77083 6.72917C10.1181 6.72917 10.4132 6.85764 10.6562 7.11458C10.8993 7.37153 11.0208 7.66667 11.0208 8C11.0208 8.33333 10.8985 8.625 10.6538 8.875C10.4089 9.125 10.1146 9.25 9.77083 9.25ZM3.5 14.5C3.0875 14.5 2.73438 14.3531 2.44063 14.0594C2.14688 13.7656 2 13.4125 2 13V4.5C2 4.0875 2.14688 3.73438 2.44063 3.44063C2.73438 3.14688 3.0875 3 3.5 3H16.5C16.9125 3 17.2656 3.14688 17.5594 3.44063C17.8531 3.73438 18 4.0875 18 4.5V13C18 13.4125 17.8531 13.7656 17.5594 14.0594C17.2656 14.3531 16.9125 14.5 16.5 14.5H3.5ZM1 17V15.5H19V17H1Z" fill="#3A424A"/>
</g>
</svg>
