<svg width="20" height="20" viewBox="0 0 20 20" fill="none" xmlns="http://www.w3.org/2000/svg">
<path d="M10 18.7337C8.80615 18.7337 7.67874 18.5032 6.61775 18.0422C5.55675 17.5811 4.63012 16.9544 3.83786 16.1622C3.04558 15.3699 2.41891 14.4433 1.95785 13.3823C1.49681 12.3213 1.26629 11.1939 1.26629 10C1.26629 8.80013 1.49681 7.6712 1.95785 6.61321C2.41891 5.55524 3.04558 4.63012 3.83786 3.83786C4.63012 3.04558 5.55675 2.41891 6.61775 1.95786C7.67874 1.49682 8.80615 1.2663 10 1.2663C11.1999 1.2663 12.3288 1.49682 13.3868 1.95786C14.4448 2.41891 15.3699 3.04558 16.1621 3.83786C16.9544 4.63012 17.5811 5.55524 18.0421 6.61321C18.5032 7.6712 18.7337 8.80013 18.7337 10C18.7337 11.1939 18.5032 12.3213 18.0421 13.3823C17.5811 14.4433 16.9544 15.3699 16.1621 16.1622C15.3699 16.9544 14.4448 17.5811 13.3868 18.0422C12.3288 18.5032 11.1999 18.7337 10 18.7337ZM9.97646 16.4955C10.3062 16.0112 10.603 15.5002 10.8669 14.9624C11.1307 14.4247 11.346 13.8581 11.5127 13.2627H8.47554C8.64221 13.8581 8.8516 14.4247 9.10371 14.9624C9.35582 15.5002 9.64674 16.0112 9.97646 16.4955ZM7.86867 16.1621C7.60296 15.7195 7.38421 15.2517 7.21242 14.7586C7.04061 14.2656 6.89221 13.7669 6.76721 13.2627H4.37954C4.75876 13.9414 5.24457 14.5338 5.83696 15.0399C6.42935 15.5459 7.10658 15.92 7.86867 16.1621ZM12.096 16.1621C12.8581 15.92 13.5392 15.5459 14.1395 15.0399C14.7397 14.5338 15.2295 13.9414 15.6087 13.2627H13.221C13.096 13.7669 12.9437 14.2656 12.764 14.7586C12.5844 15.2517 12.3617 15.7195 12.096 16.1621ZM3.68298 11.6313H6.43388C6.39221 11.3536 6.36096 11.0832 6.34013 10.8202C6.31929 10.5572 6.30888 10.2838 6.30888 10C6.30888 9.70834 6.31929 9.43298 6.34013 9.17392C6.36096 8.91487 6.39221 8.64645 6.43388 8.36867H3.68298C3.61354 8.63859 3.56145 8.90504 3.52673 9.16803C3.49201 9.43101 3.47465 9.70834 3.47465 10C3.47465 10.2838 3.49201 10.5592 3.52673 10.8261C3.56145 11.093 3.61354 11.3614 3.68298 11.6313ZM8.10054 11.6313H11.8877C11.9294 11.3536 11.9567 11.0832 11.9696 10.8202C11.9826 10.5572 11.9891 10.2838 11.9891 10C11.9891 9.70834 11.9826 9.43298 11.9696 9.17392C11.9567 8.91487 11.9294 8.64645 11.8877 8.36867H8.10054C8.05888 8.64645 8.02763 8.91487 8.00679 9.17392C7.98596 9.43298 7.97554 9.70834 7.97554 10C7.97554 10.2838 7.98596 10.5572 8.00679 10.8202C8.02763 11.0832 8.05888 11.3536 8.10054 11.6313ZM13.5544 11.6313H16.2935C16.3629 11.3614 16.415 11.093 16.4497 10.8261C16.4845 10.5592 16.5018 10.2838 16.5018 10C16.5018 9.70834 16.4845 9.43101 16.4497 9.16803C16.415 8.90504 16.3629 8.63859 16.2935 8.36867H13.5544C13.5882 8.64645 13.6135 8.91487 13.6304 9.17392C13.6473 9.43298 13.6558 9.70834 13.6558 10C13.6558 10.2838 13.6473 10.5572 13.6304 10.8202C13.6135 11.0832 13.5882 11.3536 13.5544 11.6313ZM13.221 6.72555H15.6087C15.2295 6.04681 14.7397 5.45639 14.1395 4.95428C13.5392 4.45215 12.8581 4.08002 12.096 3.83788C12.3617 4.28051 12.5844 4.74639 12.764 5.23553C12.9437 5.72465 13.096 6.22132 13.221 6.72555ZM8.47554 6.72555H11.5127C11.3539 6.13014 11.1425 5.56553 10.8786 5.03171C10.6147 4.49789 10.314 3.98884 9.97646 3.50455C9.64674 3.98884 9.35582 4.49789 9.10371 5.03171C8.8516 5.56553 8.64221 6.13014 8.47554 6.72555ZM4.37954 6.72555H6.76721C6.89221 6.22132 7.04061 5.72465 7.21242 5.23553C7.38421 4.74639 7.60296 4.28051 7.86867 3.83788C7.10658 4.08002 6.42935 4.45215 5.83696 4.95428C5.24457 5.45639 4.75876 6.04681 4.37954 6.72555Z" fill="#3A424A"/>
</svg>
