<svg width="20" height="20" viewBox="0 0 20 20" fill="none" xmlns="http://www.w3.org/2000/svg">
<path d="M2.229 14.875L1 14L5 7.5L7.5 10.5L11 5L13.5 8.5C13.208 8.5 12.9267 8.52067 12.656 8.562C12.3853 8.604 12.118 8.67367 11.854 8.771L11.062 7.688L7.667 13.042L5.188 10.062L2.229 14.875ZM17.938 19L15.375 16.438C15.097 16.618 14.802 16.7567 14.49 16.854C14.1773 16.9513 13.8473 17 13.5 17C12.528 17 11.7017 16.6597 11.021 15.979C10.3403 15.2983 10 14.472 10 13.5C10 12.528 10.3403 11.7017 11.021 11.021C11.7017 10.3403 12.528 10 13.5 10C14.472 10 15.2983 10.3403 15.979 11.021C16.6597 11.7017 17 12.528 17 13.5C17 13.8473 16.9513 14.1773 16.854 14.49C16.7567 14.802 16.618 15.097 16.438 15.375L19 17.938L17.938 19ZM13.5 15.5C14.0553 15.5 14.5277 15.3057 14.917 14.917C15.3057 14.5277 15.5 14.0553 15.5 13.5C15.5 12.9447 15.3057 12.4723 14.917 12.083C14.5277 11.6943 14.0553 11.5 13.5 11.5C12.9447 11.5 12.4723 11.6943 12.083 12.083C11.6943 12.4723 11.5 12.9447 11.5 13.5C11.5 14.0553 11.6943 14.5277 12.083 14.917C12.4723 15.3057 12.9447 15.5 13.5 15.5ZM15.125 8.771C14.875 8.67367 14.611 8.604 14.333 8.562C14.0557 8.52067 13.778 8.5 13.5 8.5L17.771 2L19 2.875L15.125 8.771Z" fill="#3A424A"/>
</svg>
