<svg width="20" height="20" viewBox="0 0 20 20" fill="none" xmlns="http://www.w3.org/2000/svg">
<path d="M9.97646 17.4004C7.9221 17.4004 6.17511 16.6825 4.7355 15.2468C3.29587 13.8111 2.57999 12.0622 2.58783 9.99998H4.61775C4.62561 11.4746 5.15203 12.7364 6.19702 13.7853C7.24201 14.8342 8.50182 15.3587 9.97646 15.3587C11.4511 15.3587 12.7129 14.8342 13.7618 13.7853C14.8107 12.7364 15.3351 11.4746 15.3351 9.99998C15.3351 8.52535 14.8107 7.26357 13.7618 6.21467C12.7129 5.16576 11.4511 4.6413 9.97646 4.6413C9.20954 4.6413 8.49258 4.78571 7.82558 5.07453C7.15857 5.36336 6.58749 5.77178 6.11233 6.2998H8.01177V7.99998H2.69383V2.70559H4.37046V5.23728C5.04861 4.41965 5.8673 3.77563 6.82654 3.30521C7.78578 2.83481 8.83575 2.59961 9.97646 2.59961C10.9958 2.59961 11.9555 2.79414 12.8556 3.18321C13.7557 3.57228 14.5397 4.1008 15.2077 4.76876C15.8756 5.43671 16.4042 6.22074 16.7932 7.12084C17.1823 8.02095 17.3768 8.98067 17.3768 9.99998C17.3768 11.0193 17.1823 11.979 16.7932 12.8791C16.4042 13.7792 15.8756 14.5633 15.2077 15.2312C14.5397 15.8992 13.7557 16.4277 12.8556 16.8168C11.9555 17.2058 10.9958 17.4004 9.97646 17.4004ZM12.0009 12.9275L9.16756 10.0942V5.99998H10.8442V9.37498L13.2047 11.7237L12.0009 12.9275Z" fill="#3A424A"/>
</svg>
