<svg width="20" height="20" viewBox="0 0 20 20" fill="none" xmlns="http://www.w3.org/2000/svg">
<path d="M2.29981 14.9692L0.634937 13.7881L4.96467 6.74634L7.25271 9.49905L10.5172 4.37589L13.3469 8.39403C12.9767 8.41759 12.6189 8.47964 12.2735 8.58018C11.9281 8.68072 11.5999 8.8267 11.2889 9.01814L10.5915 8.07611L7.49002 12.9592L5.22283 10.2392L2.29981 14.9692ZM17.914 19.3651L15.3161 16.7555C15.0383 16.9046 14.755 17.02 14.466 17.1015C14.1771 17.183 13.8708 17.2238 13.5471 17.2238C12.5278 17.2238 11.6602 16.8658 10.9443 16.1499C10.2284 15.434 9.87046 14.5664 9.87046 13.5471C9.87046 12.5278 10.2284 11.6582 10.9443 10.9384C11.6602 10.2186 12.5278 9.8587 13.5471 9.8587C14.5664 9.8587 15.434 10.2186 16.1499 10.9384C16.8658 11.6582 17.2238 12.5278 17.2238 13.5471C17.2238 13.8708 17.181 14.1791 17.0956 14.4719C17.0101 14.7648 16.8928 15.0462 16.7437 15.3161L19.3651 17.914L17.914 19.3651ZM13.5471 15.1821C14.0006 15.1821 14.3865 15.023 14.7047 14.7047C15.0229 14.3865 15.182 14.0006 15.182 13.5471C15.182 13.0936 15.0229 12.7058 14.7047 12.3837C14.3865 12.0615 14.0006 11.9004 13.5471 11.9004C13.0936 11.9004 12.7058 12.0615 12.3836 12.3837C12.0615 12.7058 11.9004 13.0936 11.9004 13.5471C11.9004 14.0006 12.0615 14.3865 12.3836 14.7047C12.7058 15.023 13.0936 15.1821 13.5471 15.1821ZM15.3841 8.67666C15.032 8.53234 14.668 8.43934 14.2921 8.39768C13.9162 8.35601 13.5383 8.35088 13.1585 8.38228L17.712 1.28168L19.3651 2.47463L15.3841 8.67666Z" fill="#3A424A"/>
</svg>
