<svg width="20" height="20" viewBox="0 0 20 20" fill="none" xmlns="http://www.w3.org/2000/svg">
<path d="M4.85417 15.125C4.25694 14.5278 3.79861 13.8421 3.47917 13.0679C3.15972 12.2937 3 11.4933 3 10.6667C3 9.72222 3.15972 8.82986 3.47917 7.98958C3.79861 7.14931 4.26389 6.40972 4.875 5.77083C5.36111 5.25695 5.90625 4.83681 6.51042 4.51042C7.11458 4.18403 7.84028 3.9375 8.6875 3.77083C9.53472 3.60417 10.5382 3.51042 11.6979 3.48958C12.8576 3.46875 14.2292 3.51389 15.8125 3.625C15.9514 5.41667 16.0278 6.92361 16.0417 8.14583C16.0556 9.36806 15.9965 10.4028 15.8646 11.25C15.7326 12.0972 15.5174 12.809 15.2188 13.3854C14.9201 13.9618 14.5208 14.5 14.0208 15C13.3819 15.6528 12.6721 16.1493 11.8914 16.4896C11.1107 16.8299 10.3135 17 9.5 17C8.61111 17 7.76736 16.8403 6.96875 16.5208C6.17014 16.2014 5.46528 15.7361 4.85417 15.125ZM7 14.875C7.38889 15.0833 7.79167 15.2431 8.20833 15.3542C8.625 15.4653 9.05556 15.5139 9.5 15.5C10.125 15.4861 10.7222 15.3507 11.2917 15.0938C11.8611 14.8368 12.4167 14.4514 12.9583 13.9375C13.3194 13.5903 13.6181 13.1667 13.8542 12.6667C14.0903 12.1667 14.2674 11.5556 14.3854 10.8333C14.5035 10.1111 14.566 9.27431 14.5729 8.32292C14.5799 7.37153 14.5347 6.27778 14.4375 5.04167C13.3819 4.95833 12.4132 4.93056 11.5312 4.95833C10.6493 4.98611 9.85417 5.07292 9.14583 5.21875C8.4375 5.36458 7.81944 5.56945 7.29167 5.83333C6.76389 6.09722 6.32639 6.41667 5.97917 6.79167C5.50694 7.30556 5.14236 7.88195 4.88542 8.52083C4.62847 9.15972 4.5 9.80556 4.5 10.4583C4.5 11.0972 4.60417 11.7014 4.8125 12.2708C5.02083 12.8403 5.32639 13.3681 5.72917 13.8542C6.27083 12.7153 6.98958 11.6944 7.88542 10.7917C8.78125 9.88889 9.81944 9.125 11 8.5C9.91667 9.45833 9.05903 10.4549 8.42708 11.4896C7.79514 12.5243 7.31944 13.6528 7 14.875Z" fill="#3A424A"/>
</svg>
