<svg width="20" height="20" viewBox="0 0 20 20" fill="none" xmlns="http://www.w3.org/2000/svg">
<path d="M9.5 17C9.01389 17 8.53819 16.9479 8.07292 16.8437C7.60764 16.7396 7.15278 16.5903 6.70833 16.3958C6.81944 14.8403 7.27431 13.3958 8.07292 12.0625C8.87153 10.7292 9.84722 9.54166 11 8.49999C9.61111 9.24999 8.37847 10.1979 7.30208 11.3437C6.22569 12.4896 5.5 13.8333 5.125 15.375C5.06944 15.3333 5.02083 15.2951 4.97917 15.2604C4.9375 15.2257 4.89583 15.1805 4.85417 15.125C4.27083 14.5139 3.81597 13.8264 3.48958 13.0625C3.16319 12.2986 3 11.5 3 10.6667C3 9.72221 3.16667 8.81944 3.5 7.95832C3.83333 7.09721 4.29167 6.36805 4.875 5.77082C5.90278 4.72916 7.22222 4.05207 8.83333 3.73957C10.4444 3.42707 12.7708 3.38888 15.8125 3.62499C16.0625 7.05555 16.0625 9.56596 15.8125 11.1562C15.5625 12.7465 14.9653 14.0278 14.0208 15C13.4097 15.6389 12.7118 16.1319 11.9271 16.4792C11.1424 16.8264 10.3333 17 9.5 17Z" fill="#3A424A"/>
</svg>
