<svg width="20" height="20" viewBox="0 0 20 20" fill="none" xmlns="http://www.w3.org/2000/svg">
<path d="M4.5 16V14.5H6L7.43771 9.58958C7.53479 9.26597 7.71528 9.00347 7.97917 8.80208C8.24306 8.60069 8.53875 8.5 8.86625 8.5H11.1337C11.4613 8.5 11.7569 8.60069 12.0208 8.80208C12.2847 9.00347 12.4652 9.26597 12.5623 9.58958L14 14.5H15.5V16H4.5ZM9.25 7V3H10.75V7H9.25ZM13.7083 8.83333L12.6458 7.79167L15.4792 4.95833L16.5417 6.02083L13.7083 8.83333ZM14.5 12.25V10.75H18.5V12.25H14.5ZM6.29167 8.85417L3.45833 6.02083L4.52083 4.95833L7.33333 7.79167L6.29167 8.85417ZM1.5 12.25V10.75H5.5V12.25H1.5Z" fill="#3A424A"/>
</svg>
