<svg width="20" height="20" viewBox="0 0 20 20" fill="none" xmlns="http://www.w3.org/2000/svg">
<path d="M1 18L2.6875 12.25C2.46528 11.75 2.29514 11.2292 2.17708 10.6875C2.05903 10.1458 2 9.58333 2 9C2 7.88889 2.20833 6.85069 2.625 5.88542C3.04167 4.92014 3.61458 4.07292 4.34375 3.34375C5.07292 2.61458 5.92332 2.04167 6.89496 1.625C7.86661 1.20833 8.90481 1 10.0095 1C11.1143 1 12.1493 1.20833 13.1146 1.625C14.0799 2.04167 14.9271 2.61458 15.6562 3.34375C16.3854 4.07292 16.9583 4.92169 17.375 5.89008C17.7917 6.85849 18 7.89321 18 8.99425C18 10.0953 17.7917 11.1319 17.375 12.1042C16.9583 13.0764 16.3854 13.9271 15.6562 14.6562C14.9271 15.3854 14.0799 15.9583 13.1146 16.375C12.1493 16.7917 11.1111 17 10 17C9.41667 17 8.85417 16.941 8.3125 16.8229C7.77083 16.7049 7.25 16.5347 6.75 16.3125L1 18ZM3.22917 15.7708L6.85417 14.7083C7.00694 14.7778 7.36111 14.9271 7.91667 15.1562C8.47222 15.3854 9.16667 15.5 10 15.5C11.8056 15.5 13.3403 14.8681 14.6042 13.6042C15.8681 12.3403 16.5 10.8056 16.5 9C16.5 7.19444 15.8681 5.65972 14.6042 4.39583C13.3403 3.13194 11.8056 2.5 10 2.5C8.19444 2.5 6.65972 3.13194 5.39583 4.39583C4.13194 5.65972 3.5 7.19444 3.5 9C3.5 9.83333 3.61111 10.5243 3.83333 11.0729C4.05556 11.6215 4.20833 11.9792 4.29167 12.1458L3.22917 15.7708ZM9.25 12H10.75V9.75H13V8.25H10.75V6H9.25V8.25H7V9.75H9.25V12Z" fill="#3A424A"/>
</svg>
