<svg width="20" height="20" viewBox="0 0 20 20" fill="none" xmlns="http://www.w3.org/2000/svg">
<path d="M12.0047 15C11.446 15 10.9722 14.8071 10.5833 14.4213C10.1944 14.0356 9.99998 13.5634 9.99998 13.0047C9.99998 12.446 10.1929 11.9722 10.5786 11.5833C10.9644 11.1944 11.4366 11 11.9953 11C12.554 11 13.0278 11.1929 13.4167 11.5786C13.8055 11.9644 14 12.4366 14 12.9953C14 13.554 13.8071 14.0278 13.4213 14.4167C13.0356 14.8055 12.5634 15 12.0047 15ZM4.6413 18.4004C4.07178 18.4004 3.58912 18.2 3.19332 17.7994C2.79751 17.3987 2.59961 16.9185 2.59961 16.3587V5.6413C2.59961 5.08151 2.79751 4.60128 3.19332 4.20061C3.58912 3.79994 4.07178 3.59961 4.6413 3.59961H5.99998V1.59961H7.77084V3.59961H12.2291V1.59961H14V3.59961H15.3587C15.9282 3.59961 16.4108 3.79994 16.8067 4.20061C17.2025 4.60128 17.4004 5.08151 17.4004 5.6413V16.3587C17.4004 16.9185 17.2025 17.3987 16.8067 17.7994C16.4108 18.2 15.9282 18.4004 15.3587 18.4004H4.6413ZM4.6413 16.3587H15.3587V8.99998H4.6413V16.3587Z" fill="#3A424A"/>
</svg>
