<svg width="20" height="20" viewBox="0 0 20 20" fill="none" xmlns="http://www.w3.org/2000/svg">
<path d="M17.5 6.66669C16.2917 6.66669 15.6167 7.86669 15.8917 8.75835L12.9333 11.725C12.6833 11.65 12.3167 11.65 12.0667 11.725L9.94167 9.60002C10.225 8.70835 9.55 7.50002 8.33333 7.50002C7.125 7.50002 6.44167 8.70002 6.725 9.60002L2.925 13.3917C2.03333 13.1167 0.833332 13.7917 0.833332 15C0.833332 15.9167 1.58333 16.6667 2.5 16.6667C3.70833 16.6667 4.38333 15.4667 4.10833 14.575L7.9 10.775C8.15 10.85 8.51667 10.85 8.76667 10.775L10.8917 12.9C10.6083 13.7917 11.2833 15 12.5 15C13.7083 15 14.3917 13.8 14.1083 12.9L17.075 9.94169C17.9667 10.2167 19.1667 9.54169 19.1667 8.33335C19.1667 7.41669 18.4167 6.66669 17.5 6.66669Z" fill="#3A424A" stroke="#3A424A" stroke-width="0.5"/>
<path d="M12.5 7.5L13.2833 5.775L15 5L13.2833 4.225L12.5 2.5L11.7333 4.225L10 5L11.7333 5.775L12.5 7.5Z" fill="#3A424A"/>
<path d="M2.91667 9.16667L3.33333 7.5L5 7.08333L3.33333 6.66667L2.91667 5L2.5 6.66667L0.833332 7.08333L2.5 7.5L2.91667 9.16667Z" fill="#3A424A"/>
</svg>
