<svg width="20" height="20" viewBox="0 0 20 20" fill="none" xmlns="http://www.w3.org/2000/svg">
<path d="M14.5 18C13.8056 18 13.2153 17.7569 12.7292 17.2708C12.2431 16.7847 12 16.1944 12 15.5C12 15.3889 12.0069 15.2882 12.0208 15.1979C12.0347 15.1076 12.0556 15.0069 12.0833 14.8958L7.125 11.875C6.91667 12.0972 6.67118 12.2569 6.38854 12.3542C6.10576 12.4514 5.80958 12.5 5.5 12.5C4.80556 12.5 4.21528 12.2569 3.72917 11.7708C3.24306 11.2847 3 10.6944 3 10C3 9.30556 3.24306 8.71528 3.72917 8.22917C4.21528 7.74306 4.80556 7.5 5.5 7.5C5.80556 7.5 6.10069 7.55208 6.38542 7.65625C6.67014 7.76042 6.91667 7.91667 7.125 8.125L12.0833 5.10417C12.0556 4.99306 12.0347 4.89236 12.0208 4.80208C12.0069 4.71181 12 4.61111 12 4.5C12 3.80556 12.2431 3.21528 12.7292 2.72917C13.2153 2.24306 13.8056 2 14.5 2C15.1944 2 15.7847 2.24306 16.2708 2.72917C16.7569 3.21528 17 3.80556 17 4.5C17 5.19444 16.7569 5.78472 16.2708 6.27083C15.7847 6.75694 15.1944 7 14.5 7C14.1904 7 13.8942 6.95139 13.6115 6.85417C13.3288 6.75694 13.0833 6.59722 12.875 6.375L7.91667 9.39583C7.94444 9.50694 7.96528 9.60764 7.97917 9.69792C7.99306 9.78819 8 9.88889 8 10C8 10.1111 7.99306 10.2118 7.97917 10.3021C7.96528 10.3924 7.94444 10.4931 7.91667 10.6042L12.875 13.625C13.0833 13.3889 13.3288 13.2257 13.6115 13.1354C13.8942 13.0451 14.1904 13 14.5 13C15.1944 13 15.7847 13.2431 16.2708 13.7292C16.7569 14.2153 17 14.8056 17 15.5C17 16.1944 16.7569 16.7847 16.2708 17.2708C15.7847 17.7569 15.1944 18 14.5 18Z" fill="#3A424A"/>
</svg>
