<svg width="20" height="20" viewBox="0 0 20 20" fill="none" xmlns="http://www.w3.org/2000/svg">
<path d="M4.5 17C4.0875 17 3.73437 16.8531 3.44062 16.5594C3.14687 16.2656 3 15.9125 3 15.5V4.5C3 4.0875 3.14687 3.73438 3.44062 3.44063C3.73437 3.14688 4.0875 3 4.5 3H8.0625C8.17361 2.56944 8.40625 2.21181 8.76042 1.92708C9.11458 1.64236 9.52778 1.5 10 1.5C10.4722 1.5 10.8854 1.64236 11.2396 1.92708C11.5938 2.21181 11.8264 2.56944 11.9375 3H15.5C15.9125 3 16.2656 3.14688 16.5594 3.44063C16.8531 3.73438 17 4.0875 17 4.5V9.875C16.7625 9.795 16.5188 9.72611 16.2688 9.66833C16.0188 9.61056 15.7625 9.56833 15.5 9.54167V4.5H4.5V15.5H9.52083C9.54694 15.7711 9.58819 16.0299 9.64458 16.2763C9.70097 16.5226 9.77083 16.7639 9.85417 17H4.5ZM4.5 15.5V4.5V9.54167V9.5V15.5ZM6 14H9.58333C9.63889 13.7361 9.70965 13.4794 9.79563 13.2298C9.8816 12.9803 9.9775 12.7371 10.0833 12.5H6V14ZM6 10.75H11.5C11.8611 10.4722 12.25 10.2326 12.6667 10.0312C13.0833 9.82986 13.5278 9.6875 14 9.60417V9.25H6V10.75ZM6 7.5H14V6H6V7.5ZM10 4C10.1444 4 10.2639 3.95278 10.3583 3.85833C10.4528 3.76389 10.5 3.64444 10.5 3.5C10.5 3.35556 10.4528 3.23611 10.3583 3.14167C10.2639 3.04722 10.1444 3 10 3C9.85556 3 9.73611 3.04722 9.64167 3.14167C9.54722 3.23611 9.5 3.35556 9.5 3.5C9.5 3.64444 9.54722 3.76389 9.64167 3.85833C9.73611 3.95278 9.85556 4 10 4ZM14.9952 19C13.8873 19 12.9444 18.6095 12.1667 17.8285C11.3889 17.0477 11 16.1033 11 14.9952C11 13.8873 11.3905 12.9444 12.1715 12.1667C12.9523 11.3889 13.8967 11 15.0048 11C16.1127 11 17.0556 11.3905 17.8333 12.1715C18.6111 12.9523 19 13.8967 19 15.0048C19 16.1127 18.6095 17.0556 17.8285 17.8333C17.0477 18.6111 16.1033 19 14.9952 19ZM15 18C15.75 18 16.3993 17.7604 16.9479 17.2812C17.4965 16.8021 17.8333 16.2083 17.9583 15.5H16.9933C16.72 15.5 16.4861 15.4042 16.2917 15.2125C16.0972 15.0208 16 14.7833 16 14.5H14V14C14 13.7167 14.0958 13.4792 14.2875 13.2875C14.4792 13.0958 14.7167 13 15 13H15.5C15.5 12.8194 15.5451 12.6597 15.6354 12.5208C15.7257 12.3819 15.8403 12.2639 15.9792 12.1667C15.8264 12.1111 15.6667 12.0694 15.5 12.0417C15.3333 12.0139 15.1667 12 15 12C14.1714 12 13.4642 12.2928 12.8785 12.8785C12.2928 13.4642 12 14.1714 12 15H14C14.4125 15 14.7656 15.1469 15.0594 15.4406C15.3531 15.7344 15.5 16.0875 15.5 16.5V17H14V17.8125C14.1528 17.8681 14.3125 17.9132 14.4792 17.9479C14.6458 17.9826 14.8194 18 15 18Z" fill="#3A424A"/>
</svg>
