<svg width="20" height="20" viewBox="0 0 20 20" fill="none" xmlns="http://www.w3.org/2000/svg">
<path d="M9.25 15H10.75V14H11C11.2833 14 11.5208 13.9042 11.7125 13.7125C11.9042 13.5208 12 13.2833 12 13V11.5C12 11.2167 11.9042 10.9792 11.7125 10.7875C11.5208 10.5958 11.2833 10.5 11 10.5H9V9H12V8H10.75V7H9.25V8H9C8.71667 8 8.47917 8.09583 8.2875 8.2875C8.09583 8.47917 8 8.71667 8 9V10.5C8 10.7833 8.09583 11.0208 8.2875 11.2125C8.47917 11.4042 8.71667 11.5 9 11.5H11V13H8V14H9.25V15ZM5.49417 18C5.08139 18 4.72917 17.8531 4.4375 17.5594C4.14583 17.2656 4 16.9125 4 16.5V3.5C4 3.0875 4.14687 2.73438 4.44062 2.44063C4.73437 2.14688 5.0875 2 5.5 2H12L16 6V16.5C16 16.9125 15.8531 17.2656 15.5592 17.5594C15.2653 17.8531 14.9119 18 14.4992 18H5.49417ZM5.5 16.5H14.5V6.625L11.375 3.5H5.5V16.5Z" fill="#3A424A"/>
</svg>
