<svg width="20" height="20" viewBox="0 0 20 20" fill="none" xmlns="http://www.w3.org/2000/svg">
<path d="M5 17L3 8H17L15 17H5ZM6.20833 15.5H13.7917L15.125 9.5H4.875L6.20833 15.5ZM8.75 12.5H11.25C11.4625 12.5 11.6406 12.4285 11.7844 12.2856C11.9281 12.1427 12 11.9656 12 11.7544C12 11.5431 11.9281 11.3646 11.7844 11.2188C11.6406 11.0729 11.4625 11 11.25 11H8.75C8.5375 11 8.35938 11.0715 8.21563 11.2144C8.07188 11.3573 8 11.5344 8 11.7456C8 11.9569 8.07188 12.1354 8.21563 12.2812C8.35938 12.4271 8.5375 12.5 8.75 12.5ZM4.75 7C4.5375 7 4.35938 6.92855 4.21563 6.78565C4.07188 6.64273 4 6.46565 4 6.2544C4 6.04313 4.07188 5.86458 4.21563 5.71875C4.35938 5.57292 4.5375 5.5 4.75 5.5H15.25C15.4625 5.5 15.6406 5.57145 15.7844 5.71435C15.9281 5.85727 16 6.03435 16 6.2456C16 6.45687 15.9281 6.63542 15.7844 6.78125C15.6406 6.92708 15.4625 7 15.25 7H4.75ZM6.75 4.5C6.5375 4.5 6.35938 4.42855 6.21563 4.28565C6.07188 4.14273 6 3.96565 6 3.7544C6 3.54313 6.07188 3.36458 6.21563 3.21875C6.35938 3.07292 6.5375 3 6.75 3H13.25C13.4625 3 13.6406 3.07145 13.7844 3.21435C13.9281 3.35727 14 3.53435 14 3.7456C14 3.95687 13.9281 4.13542 13.7844 4.28125C13.6406 4.42708 13.4625 4.5 13.25 4.5H6.75Z" fill="#3A424A"/>
</svg>
