<svg width="20" height="20" viewBox="0 0 20 20" fill="none" xmlns="http://www.w3.org/2000/svg">
<path d="M4.79981 17.7654L2.71738 8.29438H17.2826L15.2002 17.7654H4.79981ZM8.75 13.4067H11.25C11.5332 13.4067 11.7741 13.3078 11.9728 13.1099C12.1715 12.9121 12.2709 12.6722 12.2709 12.3903C12.2709 12.1084 12.1715 11.867 11.9728 11.6662C11.7741 11.4654 11.5332 11.3651 11.25 11.3651H8.75C8.46685 11.3651 8.22592 11.464 8.02721 11.6618C7.8285 11.8597 7.72915 12.0996 7.72915 12.3815C7.72915 12.6634 7.8285 12.9048 8.02721 13.1056C8.22592 13.3063 8.46685 13.4067 8.75 13.4067ZM4.75 7.30615C4.46685 7.30615 4.22592 7.20722 4.02721 7.00936C3.8285 6.8115 3.72915 6.57161 3.72915 6.2897C3.72915 6.00779 3.8285 5.76645 4.02721 5.56565C4.22592 5.36486 4.46685 5.26447 4.75 5.26447H15.25C15.5332 5.26447 15.7741 5.3634 15.9728 5.56126C16.1715 5.75912 16.2709 5.99901 16.2709 6.28092C16.2709 6.56284 16.1715 6.8042 15.9728 7.00499C15.7741 7.20576 15.5332 7.30615 15.25 7.30615H4.75ZM6.75 4.26447C6.46685 4.26447 6.22592 4.16554 6.02721 3.96767C5.8285 3.76981 5.72915 3.52993 5.72915 3.24801C5.72915 2.96609 5.8285 2.72474 6.02721 2.52395C6.22592 2.32317 6.46685 2.22278 6.75 2.22278H13.25C13.5332 2.22278 13.7741 2.32171 13.9728 2.51957C14.1715 2.71743 14.2709 2.95732 14.2709 3.23924C14.2709 3.52115 14.1715 3.7625 13.9728 3.96328C13.7741 4.16407 13.5332 4.26447 13.25 4.26447H6.75Z" fill="#3A424A"/>
</svg>
