<svg width="20" height="20" viewBox="0 0 20 20" fill="none" xmlns="http://www.w3.org/2000/svg">
<path d="M4.5 17C3.875 17 3.42361 16.7188 3.14583 16.1562C2.86805 15.5938 2.92361 15.0694 3.3125 14.5833L7.5 9.5V4.5H6.75437C6.54312 4.5 6.36458 4.42854 6.21875 4.28563C6.07292 4.14271 6 3.96563 6 3.75438C6 3.54313 6.07187 3.36458 6.21562 3.21875C6.35937 3.07292 6.5375 3 6.75 3H13.25C13.4625 3 13.6406 3.07146 13.7844 3.21437C13.9281 3.35729 14 3.53437 14 3.74562C14 3.95687 13.9281 4.13542 13.7844 4.28125C13.6406 4.42708 13.4625 4.5 13.25 4.5H12.5V9.5L16.6879 14.579C17.0904 15.068 17.1528 15.5938 16.875 16.1562C16.5972 16.7188 16.1389 17 15.5 17H4.5ZM6.625 14.5H13.375L10.7917 11.3333H9.20833L6.625 14.5ZM4.5 15.5H15.5L11 10V4.5H9V10L4.5 15.5Z" fill="#3A424A"/>
</svg>
