<svg width="20" height="20" viewBox="0 0 20 20" fill="none" xmlns="http://www.w3.org/2000/svg">
<path d="M9.99613 18.7337C8.79702 18.7337 7.665 18.5052 6.60008 18.048C5.53517 17.5909 4.60854 16.9682 3.82019 16.1798C3.03184 15.3915 2.40911 14.4646 1.95198 13.3991C1.49486 12.3336 1.26629 11.2024 1.26629 10.0056C1.26629 8.79414 1.49486 7.65747 1.95198 6.59559C2.40911 5.53368 3.03184 4.60856 3.82019 3.82021C4.60854 3.03186 5.53604 2.40913 6.60271 1.952C7.66939 1.49488 8.80182 1.26632 10 1.26632C10.4417 1.26632 10.8661 1.29364 11.2733 1.34827C11.6805 1.40293 12.0776 1.48883 12.4647 1.60598V4.27267C12.4647 4.72129 12.3026 5.10534 11.9785 5.42482C11.6545 5.74427 11.2649 5.904 10.8098 5.904H9.19021V7.53536C9.19021 7.75576 9.11186 7.94779 8.95515 8.11144C8.79844 8.27508 8.60425 8.3569 8.37259 8.3569H6.73731V9.97648H11.6431C11.8635 9.97648 12.0556 10.0583 12.2192 10.2219C12.3828 10.3856 12.4647 10.5776 12.4647 10.798V13.2391H13.2627C13.6377 13.2391 13.9643 13.3503 14.2424 13.5725C14.5206 13.7947 14.7139 14.0725 14.8225 14.4058C15.3484 13.8104 15.7657 13.1382 16.0743 12.3891C16.3828 11.64 16.5371 10.8358 16.5371 9.97648C16.5371 9.8394 16.5341 9.70443 16.5281 9.57159C16.522 9.43874 16.5051 9.30377 16.4774 9.16669H18.7038C18.7316 9.30377 18.7455 9.43874 18.7455 9.57159V10C18.7455 11.1982 18.5169 12.3306 18.0598 13.3973C17.6027 14.464 16.978 15.3915 16.1857 16.1798C15.3934 16.9682 14.4672 17.5909 13.407 18.048C12.3468 18.5052 11.2099 18.7337 9.99613 18.7337ZM9.19021 16.4837V14.8705C8.73974 14.8705 8.35523 14.7132 8.03669 14.3986C7.71815 14.084 7.55888 13.6975 7.55888 13.2391V12.4278L3.64004 8.52357C3.59922 8.77357 3.56145 9.01834 3.52673 9.25788C3.49201 9.49741 3.47465 9.73694 3.47465 9.97648C3.47465 11.6594 4.0219 13.1146 5.1164 14.342C6.2109 15.5693 7.56883 16.2832 9.19021 16.4837ZM15.0589 7.67667C14.7521 7.67667 14.4914 7.56933 14.2767 7.35465C14.062 7.13997 13.9547 6.87925 13.9547 6.57248V4.40221C13.9547 4.10605 14.0306 3.85779 14.1825 3.65744C14.3344 3.45708 14.5362 3.33727 14.788 3.29802V2.47648C14.788 1.96633 14.9697 1.52961 15.333 1.16632C15.6963 0.803038 16.133 0.621399 16.6431 0.621399C17.1565 0.621399 17.596 0.803038 17.9616 1.16632C18.3272 1.52961 18.51 1.96633 18.51 2.47648V3.29802C18.7618 3.33727 18.9636 3.45708 19.1155 3.65744C19.2674 3.85779 19.3433 4.10605 19.3433 4.40221V6.57248C19.3433 6.87925 19.236 7.13997 19.0213 7.35465C18.8066 7.56933 18.5459 7.67667 18.2391 7.67667H15.0589ZM15.8922 3.29802H17.4058V2.35871C17.4058 2.14261 17.3327 1.96148 17.1865 1.81529C17.0403 1.66913 16.8592 1.59605 16.6431 1.59605C16.4304 1.59605 16.252 1.66913 16.1081 1.81529C15.9642 1.96148 15.8922 2.14261 15.8922 2.35871V3.29802Z" fill="#3A424A"/>
</svg>
