<svg width="20" height="20" viewBox="0 0 20 20" fill="none" xmlns="http://www.w3.org/2000/svg">
<path d="M4.74542 18C3.98458 18 3.33681 17.7311 2.80208 17.1933C2.26736 16.6556 2 16.0063 2 15.2454C2 14.4846 2.26847 13.8368 2.80542 13.3021C3.3425 12.7674 3.9909 12.5 4.75063 12.5C4.98632 12.5 5.21743 12.5312 5.44396 12.5938C5.67035 12.6562 5.88347 12.7431 6.08333 12.8542L9.25 9.67875V7.39583C8.66333 7.22472 8.18333 6.89889 7.81 6.41833C7.43667 5.93778 7.25 5.38153 7.25 4.74958C7.25 3.98597 7.51889 3.33681 8.05667 2.80208C8.59444 2.26736 9.24375 2 10.0046 2C10.7654 2 11.4132 2.26806 11.9479 2.80417C12.4826 3.34028 12.75 3.98757 12.75 4.74604C12.75 5.37368 12.5633 5.92917 12.19 6.4125C11.8167 6.89583 11.3367 7.22361 10.75 7.39583V9.67812L13.9106 12.8542C14.1159 12.7431 14.3315 12.6562 14.5573 12.5938C14.783 12.5312 15.0137 12.5 15.2494 12.5C16.0091 12.5 16.6575 12.7689 17.1946 13.3067C17.7315 13.8444 18 14.4937 18 15.2546C18 16.0154 17.7311 16.6632 17.1933 17.1979C16.6556 17.7326 16.0063 18 15.2454 18C14.4846 18 13.8368 17.7315 13.3021 17.1946C12.7674 16.6575 12.5 16.0091 12.5 15.2494C12.5 15.0137 12.5312 14.7826 12.5938 14.556C12.6562 14.3297 12.7431 14.1165 12.8542 13.9167L10 11.0625L7.14583 13.9167C7.25694 14.115 7.34375 14.3265 7.40625 14.5512C7.46875 14.7761 7.5 15.0075 7.5 15.2454C7.5 16.0124 7.23111 16.6632 6.69333 17.1979C6.15556 17.7326 5.50625 18 4.74542 18ZM15.25 16.5C15.5972 16.5 15.8924 16.3785 16.1354 16.1354C16.3785 15.8924 16.5 15.5972 16.5 15.25C16.5 14.9028 16.3785 14.6076 16.1354 14.3646C15.8924 14.1215 15.5972 14 15.25 14C14.9028 14 14.6076 14.1215 14.3646 14.3646C14.1215 14.6076 14 14.9028 14 15.25C14 15.5972 14.1215 15.8924 14.3646 16.1354C14.6076 16.3785 14.9028 16.5 15.25 16.5ZM10 6C10.3472 6 10.6424 5.87847 10.8854 5.63542C11.1285 5.39236 11.25 5.09722 11.25 4.75C11.25 4.40278 11.1285 4.10764 10.8854 3.86458C10.6424 3.62153 10.3472 3.5 10 3.5C9.65278 3.5 9.35764 3.62153 9.11458 3.86458C8.87153 4.10764 8.75 4.40278 8.75 4.75C8.75 5.09722 8.87153 5.39236 9.11458 5.63542C9.35764 5.87847 9.65278 6 10 6ZM4.75 16.5C5.09722 16.5 5.39236 16.3785 5.63542 16.1354C5.87847 15.8924 6 15.5972 6 15.25C6 14.9028 5.87847 14.6076 5.63542 14.3646C5.39236 14.1215 5.09722 14 4.75 14C4.40278 14 4.10764 14.1215 3.86458 14.3646C3.62153 14.6076 3.5 14.9028 3.5 15.25C3.5 15.5972 3.62153 15.8924 3.86458 16.1354C4.10764 16.3785 4.40278 16.5 4.75 16.5Z" fill="#3A424A"/>
</svg>
