<svg width="20" height="20" viewBox="0 0 20 20" fill="none" xmlns="http://www.w3.org/2000/svg">
<path d="M4.61583 18.4004C3.78028 18.4004 3.06868 18.1051 2.48104 17.5144C1.8934 16.9237 1.59958 16.2106 1.59958 15.375C1.59958 14.5393 1.89451 13.8277 2.48437 13.24C3.07437 12.6525 3.7866 12.3588 4.62104 12.3588C4.84618 12.3588 5.06701 12.3848 5.28354 12.4369C5.50007 12.489 5.70389 12.5613 5.895 12.654L8.97917 9.56107V7.45482C8.38458 7.23648 7.90264 6.87329 7.53333 6.36523C7.16389 5.85732 6.97917 5.27558 6.97917 4.62003C6.97917 3.78169 7.27451 3.06871 7.86521 2.48107C8.4559 1.89343 9.16903 1.59961 10.0046 1.59961C10.8403 1.59961 11.5519 1.89412 12.1394 2.48315C12.727 3.07218 13.0208 3.78329 13.0208 4.61648C13.0208 5.26773 12.8361 5.84878 12.4667 6.35961C12.0974 6.87044 11.6154 7.23551 11.0208 7.45482V9.56044L14.0992 12.654C14.2954 12.5613 14.5015 12.489 14.7175 12.4369C14.9335 12.3848 15.154 12.3588 15.379 12.3588C16.2134 12.3588 16.9256 12.6541 17.5156 13.2448C18.1055 13.8355 18.4004 14.5486 18.4004 15.3842C18.4004 16.2197 18.1051 16.9313 17.5144 17.519C16.9237 18.1066 16.2106 18.4004 15.375 18.4004C14.5393 18.4004 13.8276 18.1055 13.24 17.5157C12.6525 16.9257 12.3587 16.2134 12.3587 15.379C12.3587 15.1538 12.3848 14.933 12.4369 14.7165C12.489 14.5 12.5613 14.2961 12.654 14.105L10 11.4511L7.34604 14.105C7.43868 14.2946 7.51104 14.4968 7.56312 14.7117C7.61521 14.9264 7.64125 15.1475 7.64125 15.375C7.64125 16.2167 7.3459 16.9313 6.75521 17.519C6.16451 18.1066 5.45139 18.4004 4.61583 18.4004ZM4.61583 16.3034C4.88792 16.3034 5.11917 16.2082 5.30958 16.0178C5.49986 15.8274 5.595 15.5962 5.595 15.3242C5.595 15.0522 5.49986 14.821 5.30958 14.6307C5.11917 14.4403 4.88792 14.3451 4.61583 14.3451C4.34389 14.3451 4.11271 14.4403 3.92229 14.6307C3.73187 14.821 3.63667 15.0522 3.63667 15.3242C3.63667 15.5962 3.73187 15.8274 3.92229 16.0178C4.11271 16.2082 4.34389 16.3034 4.61583 16.3034ZM15.375 16.3079C15.6469 16.3079 15.8781 16.2127 16.0685 16.0222C16.259 15.8318 16.3542 15.6006 16.3542 15.3287C16.3542 15.0566 16.259 14.8254 16.0685 14.635C15.8781 14.4447 15.6469 14.3495 15.375 14.3495C15.1031 14.3495 14.8719 14.4447 14.6815 14.635C14.491 14.8254 14.3958 15.0566 14.3958 15.3287C14.3958 15.6006 14.491 15.8318 14.6815 16.0222C14.8719 16.2127 15.1031 16.3079 15.375 16.3079ZM10.0046 5.52591C10.2767 5.52591 10.5079 5.43077 10.6983 5.2405C10.8886 5.05008 10.9837 4.81883 10.9837 4.54675C10.9837 4.2748 10.8886 4.04362 10.6983 3.8532C10.5079 3.66279 10.2767 3.56758 10.0046 3.56758C9.73264 3.56758 9.50146 3.66279 9.31104 3.8532C9.12063 4.04362 9.02542 4.2748 9.02542 4.54675C9.02542 4.81883 9.12063 5.05008 9.31104 5.2405C9.50146 5.43077 9.73264 5.52591 10.0046 5.52591Z" fill="#3A424A"/>
</svg>
