<svg width="20" height="20" viewBox="0 0 20 20" fill="none" xmlns="http://www.w3.org/2000/svg">
<path d="M9.9956 12.317C9.61328 12.317 9.29199 12.1854 9.03172 11.9222C8.77146 11.659 8.64133 11.3362 8.64133 10.9539C8.64133 10.5716 8.77293 10.2503 9.03614 9.99003C9.29936 9.72976 9.62213 9.59963 10.0044 9.59963C10.3868 9.59963 10.708 9.73124 10.9683 9.99444C11.2286 10.2577 11.3587 10.5804 11.3587 10.9627C11.3587 11.3451 11.2271 11.6663 10.9639 11.9266C10.7007 12.1869 10.3779 12.317 9.9956 12.317ZM5.64133 1.59961H12.1649L16.4004 5.83513V16.3587C16.4004 16.9282 16.2024 17.4108 15.8064 17.8067C15.4105 18.2025 14.9276 18.4004 14.3579 18.4004H5.63543C5.06568 18.4004 4.58395 18.2025 4.19022 17.8067C3.7965 17.4108 3.59964 16.9282 3.59964 16.3587V3.6413C3.59964 3.07178 3.79754 2.58912 4.19335 2.19332C4.58915 1.79751 5.07181 1.59961 5.64133 1.59961ZM10 14.1703C10.3249 14.1703 10.6232 14.139 10.895 14.0765C11.1667 14.014 11.4067 13.9094 11.6151 13.7627L14.1993 16.3587H14.3587V14.1223L12.7953 12.5942C12.9263 12.3859 13.0286 12.1463 13.1019 11.8754C13.1753 11.6046 13.212 11.2989 13.212 10.9583C13.212 10.0543 12.9026 9.29301 12.284 8.67434C11.6653 8.05569 10.904 7.74636 10 7.74636C9.09603 7.74636 8.3347 8.05569 7.71604 8.67434C7.09738 9.29301 6.78806 10.0543 6.78806 10.9583C6.78806 11.8623 7.09738 12.6236 7.71604 13.2423C8.3347 13.861 9.09603 14.1703 10 14.1703Z" fill="#3A424A"/>
</svg>
