<svg width="20" height="20" viewBox="0 0 20 20" fill="none" xmlns="http://www.w3.org/2000/svg">
<path d="M1.64 17.3583V2.64001H10.3701V5.64001H18.3701V17.3583H1.64ZM3.50506 15.4933H5.00506V13.9933H3.50506V15.4933ZM3.50506 12.3266H5.00506V10.8266H3.50506V12.3266ZM3.50506 9.15997H5.00506V7.65997H3.50506V9.15997ZM3.50506 5.99331H5.00506V4.49331H3.50506V5.99331ZM7.00506 15.4933H8.50506V13.9933H7.00506V15.4933ZM7.00506 12.3266H8.50506V10.8266H7.00506V12.3266ZM7.00506 9.15997H8.50506V7.65997H7.00506V9.15997ZM7.00506 5.99331H8.50506V4.49331H7.00506V5.99331ZM10.0051 15.4933H16.5051V7.49331H10.0051V9.15997H11.5051V10.66H10.0051V12.3266H11.5051V13.8266H10.0051V15.4933ZM13.5051 10.66V9.15997H15.0051V10.66H13.5051ZM13.5051 13.8266V12.3266H15.0051V13.8266H13.5051Z" fill="#3A424A"/>
</svg>
