<svg width="20" height="20" viewBox="0 0 20 20" fill="none" xmlns="http://www.w3.org/2000/svg">
<path fill-rule="evenodd" clip-rule="evenodd" d="M0.864347 10.8861C0.376192 10.3979 0.37619 9.60648 0.864346 9.11832L9.11838 0.864285C9.60654 0.376129 10.398 0.376132 10.8861 0.864286L19.1357 9.11386C19.6239 9.60202 19.6239 10.3935 19.1357 10.8816L10.8817 19.1357C10.3935 19.6238 9.60208 19.6238 9.11393 19.1357L0.864347 10.8861ZM2.33749 10.0022L9.99781 17.6625L17.6626 9.99775L10.0023 2.33742L2.33749 10.0022Z" fill="#3A424A"/>
<path d="M11.1911 6.51809C11.1026 6.79537 10.9199 7.03058 10.6807 7.18615L12.8089 9.31439C12.9657 9.07581 13.2019 8.89412 13.48 8.80697L11.1911 6.51809Z" fill="#3A424A"/>
<path d="M13.48 11.193C13.202 11.1058 12.9657 10.9241 12.8089 10.6856L10.6805 12.814C10.9197 12.9697 11.1023 13.2049 11.1907 13.4823L13.48 11.193Z" fill="#3A424A"/>
<path d="M8.80872 13.4815C8.89732 13.2043 9.08005 12.9691 9.31932 12.8136L7.1913 10.6856C7.0345 10.9242 6.79824 11.1058 6.52016 11.193L8.80872 13.4815Z" fill="#3A424A"/>
<path d="M6.5202 8.80695C6.79828 8.89409 7.03453 9.07578 7.19132 9.31435L9.31954 7.18613C9.08031 7.03055 8.89763 6.79532 8.80911 6.51804L6.5202 8.80695Z" fill="#3A424A"/>
<path d="M6.14595 11.25C6.83631 11.25 7.39595 10.6903 7.39595 9.99996C7.39595 9.3096 6.83631 8.74996 6.14595 8.74996C5.4556 8.74996 4.89595 9.3096 4.89595 9.99996C4.89595 10.6903 5.4556 11.25 6.14595 11.25Z" fill="#3A424A"/>
<path d="M13.8543 11.25C14.5446 11.25 15.1043 10.6903 15.1043 9.99996C15.1043 9.3096 14.5446 8.74996 13.8543 8.74996C13.1639 8.74996 12.6043 9.3096 12.6043 9.99996C12.6043 10.6903 13.1639 11.25 13.8543 11.25Z" fill="#3A424A"/>
<path d="M10.0001 7.38748C10.6905 7.38748 11.2501 6.82783 11.2501 6.13748C11.2501 5.44712 10.6905 4.88748 10.0001 4.88748C9.30976 4.88748 8.75012 5.44712 8.75012 6.13748C8.75012 6.82783 9.30976 7.38748 10.0001 7.38748Z" fill="#3A424A"/>
<path d="M9.99961 15.1125C10.69 15.1125 11.2496 14.5528 11.2496 13.8625C11.2496 13.1721 10.69 12.6125 9.99961 12.6125C9.30926 12.6125 8.74961 13.1721 8.74961 13.8625C8.74961 14.5528 9.30926 15.1125 9.99961 15.1125Z" fill="#3A424A"/>
</svg>
