<svg width="20" height="20" viewBox="0 0 20 20" fill="none" xmlns="http://www.w3.org/2000/svg">
<path d="M10.6806 7.18613C10.4848 7.31347 10.2511 7.38745 10.0001 7.38745C9.74906 7.38745 9.51532 7.31346 9.31949 7.1861L7.19127 9.31432C7.32064 9.51118 7.39591 9.74677 7.39591 9.99993C7.39591 10.2531 7.32063 10.4887 7.19125 10.6856L9.31927 12.8136C9.51505 12.6864 9.74867 12.6124 9.99956 12.6124C10.2507 12.6124 10.4845 12.6865 10.6804 12.814L12.8089 10.6855C12.6795 10.4887 12.6042 10.2531 12.6042 9.99993C12.6042 9.74678 12.6795 9.51121 12.8088 9.31436L10.6806 7.18613Z" fill="#3A424A"/>
<path fill-rule="evenodd" clip-rule="evenodd" d="M17.6662 9.99431L10.0022 2.33431L2.33068 9.99869L9.99818 17.6701L17.6662 9.99431ZM6.52011 11.193L8.80867 13.4815C8.77028 13.6016 8.74956 13.7296 8.74956 13.8624C8.74956 14.5528 9.30921 15.1124 9.99956 15.1124C10.6899 15.1124 11.2496 14.5528 11.2496 13.8624C11.2496 13.7299 11.2289 13.6021 11.1907 13.4822L13.48 11.1929C13.5981 11.23 13.7239 11.2499 13.8542 11.2499C14.5446 11.2499 15.1042 10.6903 15.1042 9.99993C15.1042 9.30958 14.5446 8.74993 13.8542 8.74993C13.7238 8.74993 13.5981 8.7699 13.4799 8.80694L11.1911 6.51807C11.2294 6.39806 11.2501 6.27017 11.2501 6.13745C11.2501 5.4471 10.6904 4.88745 10.0001 4.88745C9.30972 4.88745 8.75007 5.4471 8.75007 6.13745C8.75007 6.27015 8.77075 6.39802 8.80906 6.51802L6.52015 8.80692C6.40199 8.76989 6.27628 8.74993 6.14591 8.74993C5.45555 8.74993 4.8959 9.30958 4.8959 9.99993C4.8959 10.6903 5.45555 11.2499 6.14591 11.2499C6.27627 11.2499 6.40196 11.23 6.52011 11.193Z" fill="#3A424A"/>
<path fill-rule="evenodd" clip-rule="evenodd" d="M0.864316 9.11832C0.37616 9.60648 0.376161 10.3979 0.864316 10.8861L9.1139 19.1357C9.60205 19.6238 10.3935 19.6238 10.8817 19.1357L19.1357 10.8816C19.6239 10.3935 19.6239 9.60202 19.1357 9.11386L10.8861 0.864286C10.398 0.376132 9.60651 0.376129 9.11835 0.864285L0.864316 9.11832ZM18.3732 9.99404L10.0022 1.62732L1.62302 9.99795L9.99827 18.3775L18.3732 9.99404Z" fill="#3A424A"/>
</svg>
