<svg width="20" height="20" viewBox="0 0 20 20" fill="none" xmlns="http://www.w3.org/2000/svg">
<path d="M8.79167 12.5H11.2083L10.75 9.8125C10.9826 9.68831 11.1657 9.50822 11.2994 9.27223C11.4331 9.03626 11.5 8.77544 11.5 8.48979C11.5 8.07993 11.3527 7.72917 11.0581 7.4375C10.7635 7.14583 10.4093 7 9.99558 7C9.58186 7 9.22917 7.14688 8.9375 7.44063C8.64583 7.73438 8.5 8.0875 8.5 8.5C8.5 8.78344 8.56686 9.04225 8.70058 9.27642C8.83431 9.51057 9.01744 9.68926 9.25 9.8125L8.79167 12.5ZM10 18C8.125 17.5417 6.57292 16.4803 5.34375 14.8158C4.11458 13.1513 3.5 11.303 3.5 9.27083V4.5L10 2L16.5 4.5V9.27083C16.5 11.303 15.8854 13.1513 14.6562 14.8158C13.4271 16.4803 11.875 17.5417 10 18Z" fill="#3A424A"/>
</svg>
