<svg width="20" height="20" viewBox="0 0 20 20" fill="none" xmlns="http://www.w3.org/2000/svg">
<path d="M3.59964 15.9004V13.8587H4.45833V9.25905C4.45833 7.94866 4.85145 6.78607 5.63768 5.77128C6.4239 4.75647 7.4544 4.12618 8.72916 3.8804V2.87044C8.72916 2.51743 8.85272 2.21737 9.09983 1.97026C9.34694 1.72316 9.647 1.59961 10 1.59961C10.353 1.59961 10.6531 1.72316 10.9002 1.97026C11.1473 2.21737 11.2709 2.51743 11.2709 2.87044V3.8804C12.5535 4.12618 13.5859 4.75451 14.3682 5.76538C15.1505 6.77626 15.5417 7.94081 15.5417 9.25905V13.8587H16.4004V15.9004H3.59964ZM10.0074 18.5299C9.55479 18.5299 9.16883 18.3703 8.84949 18.0512C8.53015 17.7321 8.37047 17.3485 8.37047 16.9004H11.6413C11.6413 17.3563 11.4813 17.7419 11.1613 18.0571C10.8414 18.3723 10.4567 18.5299 10.0074 18.5299Z" fill="#3A424A"/>
</svg>
