<svg width="20" height="20" viewBox="0 0 20 20" fill="none" xmlns="http://www.w3.org/2000/svg">
<path d="M3.33334 15.8333V14.1666H5V8.33329C5 7.18052 5.34722 6.15607 6.04167 5.25996C6.73611 4.3644 7.63889 3.77774 8.75 3.49996V2.91663C8.75 2.5694 8.87167 2.2744 9.115 2.03163C9.35778 1.78829 9.65278 1.66663 10 1.66663C10.3472 1.66663 10.6422 1.78829 10.885 2.03163C11.1283 2.2744 11.25 2.5694 11.25 2.91663V3.49996C12.3611 3.77774 13.2639 4.3644 13.9583 5.25996C14.6528 6.15607 15 7.18052 15 8.33329V14.1666H16.6667V15.8333H3.33334ZM10 18.3333C9.54167 18.3333 9.14945 18.1702 8.82334 17.8441C8.49667 17.5175 8.33334 17.125 8.33334 16.6666H11.6667C11.6667 17.125 11.5036 17.5175 11.1775 17.8441C10.8508 18.1702 10.4583 18.3333 10 18.3333ZM6.66667 14.1666H13.3333V8.33329C13.3333 7.41663 13.0069 6.6319 12.3542 5.97913C11.7014 5.32635 10.9167 4.99996 10 4.99996C9.08334 4.99996 8.29861 5.32635 7.64584 5.97913C6.99306 6.6319 6.66667 7.41663 6.66667 8.33329V14.1666Z" fill="#3A424A"/>
</svg>
