<svg width="20" height="20" viewBox="0 0 20 20" fill="none" xmlns="http://www.w3.org/2000/svg">
<path d="M10.4974 6.28805C10.0372 6.28805 9.66408 6.66114 9.66408 7.12138C9.66408 7.58162 10.0372 7.95471 10.4974 7.95471C10.9577 7.95471 11.3307 7.58162 11.3307 7.12138C11.3307 6.66114 10.9577 6.28805 10.4974 6.28805Z" fill="#3A424A"/>
<path fill-rule="evenodd" clip-rule="evenodd" d="M15.9808 9.30997C15.9808 12.9942 12.9942 15.9808 9.30997 15.9808C5.62578 15.9808 2.63916 12.9942 2.63916 9.30997C2.63916 5.62578 5.62578 2.63916 9.30997 2.63916C12.9942 2.63916 15.9808 5.62578 15.9808 9.30997ZM8.83075 7.12138C8.83075 6.2009 9.57694 5.45471 10.4974 5.45471C11.4179 5.45471 12.1641 6.2009 12.1641 7.12138C12.1641 8.04185 11.4179 8.78805 10.4974 8.78805C9.57694 8.78805 8.83075 8.04185 8.83075 7.12138Z" fill="#3A424A"/>
<path fill-rule="evenodd" clip-rule="evenodd" d="M9.24785 1C4.69269 1 1 4.69269 1 9.24785C1 13.803 4.69269 17.4957 9.24785 17.4957C13.803 17.4957 17.4957 13.803 17.4957 9.24785C17.4957 4.69269 13.803 1 9.24785 1ZM9.30997 16.4808C13.2703 16.4808 16.4808 13.2703 16.4808 9.30997C16.4808 5.34964 13.2703 2.13916 9.30997 2.13916C5.34964 2.13916 2.13916 5.34964 2.13916 9.30997C2.13916 13.2703 5.34964 16.4808 9.30997 16.4808Z" fill="#3A424A"/>
<path d="M15.4343 17.5755L13.9108 16.052C14.7834 15.4529 15.535 14.6902 16.1214 13.8081L17.6605 15.3472C18.2758 15.9626 18.2758 16.9602 17.6605 17.5755C17.6605 17.5755 18.2779 16.9602 17.6626 17.5755C17.0472 18.1909 16.0496 18.1909 15.4343 17.5755Z" fill="#3A424A"/>
</svg>
