<svg width="20" height="20" viewBox="0 0 20 20" fill="none" xmlns="http://www.w3.org/2000/svg">
<path d="M3.64131 17.4004C3.0718 17.4004 2.58914 17.2025 2.19333 16.8067C1.79753 16.4108 1.59962 15.9282 1.59962 15.3587V4.6413C1.59962 4.07178 1.79753 3.58912 2.19333 3.19332C2.58914 2.79751 3.0718 2.59961 3.64131 2.59961H16.3587C16.9282 2.59961 17.4109 2.79751 17.8067 3.19332C18.2025 3.58912 18.4004 4.07178 18.4004 4.6413V15.3587C18.4004 15.9282 18.2025 16.4108 17.8067 16.8067C17.4109 17.2025 16.9282 17.4004 16.3587 17.4004H3.64131ZM4.83154 14.0208H8.73733V12.5208H4.83154V14.0208ZM12.125 12.5L15.5725 9.05253L14.51 7.99003L12.125 10.375L11.0625 9.31248L10 10.375L12.125 12.5ZM4.83154 10.75H8.73733V9.24998H4.83154V10.75ZM4.83154 7.49998H8.73733V5.99998H4.83154V7.49998Z" fill="#3A424A"/>
</svg>
