<svg width="20" height="20" viewBox="0 0 20 20" fill="none" xmlns="http://www.w3.org/2000/svg">
<path fill-rule="evenodd" clip-rule="evenodd" d="M9.1671 2.62858C5.53241 2.62858 2.58592 5.57508 2.58592 9.20976C2.58592 12.8444 5.53241 15.7909 9.1671 15.7909C12.8018 15.7909 15.7483 12.8444 15.7483 9.20976C15.7483 5.57508 12.8018 2.62858 9.1671 2.62858ZM0.91925 9.20976C0.91925 4.6546 4.61194 0.961914 9.1671 0.961914C13.7223 0.961914 17.4149 4.6546 17.4149 9.20976C17.4149 13.7649 13.7223 17.4576 9.1671 17.4576C4.61194 17.4576 0.91925 13.7649 0.91925 9.20976Z" fill="#3A424A"/>
<path d="M13.83 16.014L15.3535 17.5374C15.9689 18.1528 16.9665 18.1528 17.5818 17.5374C18.1972 16.9221 17.5797 17.5374 17.5797 17.5374C18.1951 16.9221 18.1951 15.9245 17.5797 15.3091L16.0406 13.7701C15.4543 14.6521 14.7027 15.4148 13.83 16.014Z" fill="#3A424A"/>
<path fill-rule="evenodd" clip-rule="evenodd" d="M10.4167 6.25C9.95644 6.25 9.58334 6.6231 9.58334 7.08333C9.58334 7.54357 9.95644 7.91667 10.4167 7.91667C10.8769 7.91667 11.25 7.54357 11.25 7.08333C11.25 6.6231 10.8769 6.25 10.4167 6.25ZM8.75001 7.08333C8.75001 6.16286 9.4962 5.41667 10.4167 5.41667C11.3372 5.41667 12.0833 6.16286 12.0833 7.08333C12.0833 8.00381 11.3372 8.75 10.4167 8.75C9.4962 8.75 8.75001 8.00381 8.75001 7.08333Z" fill="#3A424A"/>
</svg>
