<svg width="20" height="20" viewBox="0 0 20 20" fill="none" xmlns="http://www.w3.org/2000/svg">
<path d="M10 15C9.19444 15 8.41667 15.1285 7.66667 15.3854C6.91667 15.6424 6.22222 16.0139 5.58333 16.5H14.4167C13.7917 16.0139 13.1007 15.6424 12.3438 15.3854C11.5868 15.1285 10.8056 15 10 15ZM4.5 15.3958C5.26389 14.7708 6.12153 14.2986 7.07292 13.9792C8.02431 13.6597 9 13.5 10 13.5C11 13.5 11.9757 13.6562 12.9271 13.9688C13.8785 14.2812 14.7361 14.7569 15.5 15.3958V5.5H4.5V15.3958ZM9.99496 12.5C9.16499 12.5 8.45833 12.2067 7.875 11.62C7.29167 11.0333 7 10.3249 7 9.49496C7 8.66499 7.29335 7.95833 7.88004 7.375C8.46675 6.79167 9.17508 6.5 10.005 6.5C10.835 6.5 11.5417 6.79335 12.125 7.38004C12.7083 7.96675 13 8.67508 13 9.50504C13 10.335 12.7067 11.0417 12.12 11.625C11.5333 12.2083 10.8249 12.5 9.99496 12.5ZM10 11C10.4167 11 10.7708 10.8542 11.0625 10.5625C11.3542 10.2708 11.5 9.91667 11.5 9.5C11.5 9.08333 11.3542 8.72917 11.0625 8.4375C10.7708 8.14583 10.4167 8 10 8C9.58333 8 9.22917 8.14583 8.9375 8.4375C8.64583 8.72917 8.5 9.08333 8.5 9.5C8.5 9.91667 8.64583 10.2708 8.9375 10.5625C9.22917 10.8542 9.58333 11 10 11ZM4.5 18C4.09722 18 3.74653 17.8507 3.44792 17.5521C3.14931 17.2535 3 16.9028 3 16.5V5.5C3 5.09722 3.14931 4.74653 3.44792 4.44792C3.74653 4.14931 4.09722 4 4.5 4H6V2H7.5V4H12.5V2H14V4H15.5C15.9125 4 16.2656 4.14931 16.5594 4.44792C16.8531 4.74653 17 5.09722 17 5.5V16.5C17 16.9028 16.8531 17.2535 16.5594 17.5521C16.2656 17.8507 15.9125 18 15.5 18H4.5Z" fill="#3A424A"/>
</svg>
