<svg width="20" height="20" viewBox="0 0 20 20" fill="none" xmlns="http://www.w3.org/2000/svg">
<path d="M4.6413 15.019C5.40519 14.4332 6.23927 13.9944 7.14355 13.7024C8.04784 13.4105 8.99998 13.2645 9.99998 13.2645C11 13.2645 11.9521 13.403 12.8564 13.6802C13.7607 13.9574 14.5948 14.3958 15.3587 14.9954V5.6413H4.6413V15.019ZM9.99494 12.7355C9.13357 12.7355 8.40337 12.4343 7.80434 11.8319C7.2053 11.2295 6.90578 10.4976 6.90578 9.63626C6.90578 8.77488 7.20698 8.04664 7.80938 7.45153C8.41178 6.85642 9.14367 6.55886 10.005 6.55886C10.8664 6.55886 11.5966 6.8581 12.1956 7.45659C12.7947 8.05506 13.0942 8.78498 13.0942 9.64634C13.0942 10.5077 12.793 11.2379 12.1906 11.8369C11.5882 12.436 10.8563 12.7355 9.99494 12.7355ZM4.6413 18.4004C4.08151 18.4004 3.60128 18.2 3.20061 17.7994C2.79994 17.3987 2.59961 16.9185 2.59961 16.3587V5.6413C2.59961 5.08151 2.79994 4.60128 3.20061 4.20061C3.60128 3.79994 4.08151 3.59961 4.6413 3.59961H5.99998V1.59961H7.77084V3.59961H12.2291V1.59961H14V3.59961H15.3587C15.9282 3.59961 16.4108 3.79994 16.8067 4.20061C17.2025 4.60128 17.4004 5.08151 17.4004 5.6413V16.3587C17.4004 16.9185 17.2025 17.3987 16.8067 17.7994C16.4108 18.2 15.9282 18.4004 15.3587 18.4004H4.6413Z" fill="#3A424A"/>
</svg>
