<svg width="20" height="20" viewBox="0 0 20 20" fill="none" xmlns="http://www.w3.org/2000/svg">
<path d="M10.0058 18C8.90472 18 7.86806 17.7917 6.89583 17.375C5.92361 16.9583 5.07292 16.3854 4.34375 15.6562C3.61458 14.9271 3.04167 14.0767 2.625 13.105C2.20833 12.1333 2 11.0951 2 9.99042C2 8.88569 2.20833 7.85069 2.625 6.88542C3.04167 5.92014 3.61458 5.07292 4.34375 4.34375C5.07292 3.61458 5.92229 3.04167 6.89188 2.625C7.86146 2.20833 8.8975 2 10 2C10.3814 2 10.7545 2.02778 11.1194 2.08333C11.4842 2.13889 11.8472 2.21528 12.2083 2.3125L11.7917 3.75C11.5139 3.63889 11.2222 3.56944 10.9167 3.54167C10.6111 3.51389 10.3056 3.5 10 3.5C9.66667 4.02778 9.40382 4.58778 9.21146 5.18C9.01924 5.77222 8.86542 6.37889 8.75 7H11V8.5H8.56292C8.53486 8.75 8.51736 9 8.51042 9.25C8.50347 9.5 8.5 9.75 8.5 10C8.5 10.25 8.50521 10.5 8.51562 10.75C8.52604 11 8.54167 11.25 8.5625 11.5H11.4333C11.4639 11.2639 11.4826 11.0139 11.4896 10.75C11.4965 10.4861 11.5 10.2361 11.5 10H13V10.75C13 11.0139 12.9861 11.2639 12.9583 11.5H16.3125C16.375 11.25 16.4219 11 16.4531 10.75C16.4844 10.5 16.5 10.25 16.5 10H18C18 11.1025 17.7917 12.1385 17.375 13.1081C16.9583 14.0777 16.3854 14.9271 15.6562 15.6562C14.9271 16.3854 14.0783 16.9583 13.11 17.375C12.1415 17.7917 11.1068 18 10.0058 18ZM3.6875 11.5H7.04167C7.01389 11.2361 6.99653 10.9792 6.98958 10.7292C6.98264 10.4792 6.97917 10.2222 6.97917 9.95833C6.97917 9.72222 6.98264 9.47917 6.98958 9.22917C6.99653 8.97917 7.01389 8.73611 7.04167 8.5H3.6875C3.63194 8.75 3.58681 9 3.55208 9.25C3.51736 9.5 3.5 9.75 3.5 10C3.5 10.25 3.51736 10.5 3.55208 10.75C3.58681 11 3.63194 11.25 3.6875 11.5ZM8.125 16.2292C7.88889 15.7153 7.70486 15.2049 7.57292 14.6979C7.44097 14.191 7.32639 13.625 7.22917 13H4.25C4.65278 13.7639 5.1875 14.4306 5.85417 15C6.52083 15.5694 7.27778 15.9792 8.125 16.2292ZM4.25 7H7.22917C7.32639 6.375 7.4375 5.80903 7.5625 5.30208C7.6875 4.79514 7.875 4.28472 8.125 3.77083C7.27778 4.02083 6.52083 4.42361 5.85417 4.97917C5.1875 5.53472 4.65278 6.20833 4.25 7ZM10 16.4583C10.3472 15.9306 10.6146 15.375 10.8021 14.7917C10.9896 14.2083 11.1389 13.6111 11.25 13H8.75C8.875 13.6111 9.02778 14.2083 9.20833 14.7917C9.38889 15.375 9.65278 15.9306 10 16.4583ZM11.875 16.2292C12.7222 15.9792 13.4792 15.5694 14.1458 15C14.8125 14.4306 15.3472 13.7639 15.75 13H12.7708C12.6736 13.625 12.559 14.191 12.4271 14.6979C12.2951 15.2049 12.1111 15.7153 11.875 16.2292Z" fill="#3A424A"/>
<path d="M15.0962 9.30306C14.2771 9.07554 13.5946 8.4982 13.0485 7.57105C12.5025 6.64391 12.2294 5.58309 12.2294 4.3886C12.5935 4.3886 13.0002 4.28337 13.4495 4.07292C13.8989 3.86246 14.4478 3.55815 15.0962 3.15999C15.7446 3.55815 16.2935 3.86246 16.7429 4.07292C17.1922 4.28337 17.5989 4.3886 17.963 4.3886C17.963 5.58309 17.6899 6.64391 17.1439 7.57105C16.5978 8.4982 15.9153 9.07554 15.0962 9.30306ZM15.0962 7.98912C15.4716 7.78435 15.7958 7.44592 16.0688 6.97381C16.3419 6.5017 16.5353 5.9585 16.649 5.34419C16.4101 5.25318 16.1655 5.14511 15.9153 5.01997C15.665 4.89484 15.392 4.75264 15.0962 4.59337V7.98912Z" fill="#3A424A"/>
</svg>
