<svg width="20" height="20" viewBox="0 0 20 20" fill="none" xmlns="http://www.w3.org/2000/svg">
<path d="M15.1433 13.375L10.8836 17.6338L10.7889 17.7198C10.3305 18.0934 9.66909 18.0934 9.21073 17.7198L9.116 17.6338L7.31132 15.8291L12.4539 10.6856L15.1433 13.375ZM9.43143 15.8282L9.99979 16.3965L13.0213 13.3741L12.4539 12.8067L9.43143 15.8282ZM9.31425 12.4541L6.62479 15.1436L2.366 10.8838C1.878 10.3955 1.878 9.60455 2.366 9.11625L4.17069 7.31156L9.31425 12.4541ZM3.60233 10L6.62479 13.0215L7.19218 12.4541L4.17069 9.43168L3.60233 10ZM17.6336 9.11625C18.1216 9.60455 18.1216 10.3955 17.6336 10.8838L15.8289 12.6885L10.6853 7.54594L13.3748 4.85648L17.6336 9.11625ZM12.8064 7.54496L15.8279 10.5674L16.3963 9.99906L13.3738 6.97758L12.8064 7.54496ZM9.116 2.36625C9.6043 1.87824 10.3953 1.87824 10.8836 2.36625L12.6883 4.17093L7.54569 9.31449L4.85624 6.62504L9.116 2.36625ZM6.97733 6.62504L7.54471 7.19242L10.5672 4.17093L9.99882 3.60258L6.97733 6.62504Z" fill="#3A424A"/>
</svg>
