<svg width="20" height="20" viewBox="0 0 20 20" fill="none" xmlns="http://www.w3.org/2000/svg">
<path d="M10.8843 17.6337L15.1433 13.3747L12.4543 10.6858L7.31108 15.8291L9.11573 17.6337C9.6041 18.1221 10.3959 18.1221 10.8843 17.6337Z" fill="#3A424A"/>
<path d="M12.6889 4.17093L7.54565 9.31419L4.85673 6.62527L9.11573 2.36628C9.6041 1.87791 10.3959 1.87791 10.8843 2.36628L12.6889 4.17093Z" fill="#3A424A"/>
<path d="M2.36628 10.8843L6.62527 15.1433L9.31419 12.4543L4.17093 7.31108L2.36628 9.11573C1.87791 9.6041 1.87791 10.3959 2.36628 10.8843Z" fill="#3A424A"/>
<path d="M17.6337 10.8843L15.8291 12.6889L10.6858 7.54565L13.3747 4.85673L17.6337 9.11573C18.1221 9.6041 18.1221 10.3959 17.6337 10.8843Z" fill="#3A424A"/>
</svg>
