<svg width="20" height="20" viewBox="0 0 20 20" fill="none" xmlns="http://www.w3.org/2000/svg">
<path d="M10.0092 18.4004C8.85088 18.4004 7.76207 18.1822 6.74275 17.7459C5.72342 17.3096 4.82954 16.7073 4.06112 15.9389C3.29271 15.1704 2.69035 14.2765 2.25406 13.257C1.81777 12.2374 1.59962 11.1518 1.59962 9.99998C1.59962 9.77592 1.6268 9.42113 1.68115 8.93563C1.73549 8.45014 1.86819 7.89611 2.07925 7.27353C2.29029 6.65094 2.60007 6.00692 3.00858 5.34146C3.41711 4.67599 3.97554 4.05159 4.68387 3.46826L11.0915 9.90851L9.90852 11.0915L4.94021 6.1558C4.53676 6.69209 4.21942 7.28178 3.98817 7.92486C3.75693 8.56794 3.64131 9.25965 3.64131 9.99998C3.64131 11.7741 4.25756 13.2775 5.49004 14.5099C6.72253 15.7424 8.22585 16.3587 10 16.3587C11.7742 16.3587 13.2775 15.7424 14.51 14.5099C15.7424 13.2775 16.3587 11.7741 16.3587 9.99998C16.3587 8.38382 15.8282 6.9834 14.7672 5.79874C13.7062 4.61407 12.3986 3.90881 10.8442 3.68296V6.1413H9.15579V1.64128C9.2965 1.62739 9.4372 1.61697 9.5779 1.61003C9.7186 1.60308 9.85931 1.59961 10 1.59961C11.1518 1.59961 12.2375 1.81776 13.257 2.25405C14.2765 2.69034 15.167 3.28922 15.9285 4.05069C16.6899 4.81217 17.2923 5.70433 17.7355 6.72719C18.1788 7.75004 18.4004 8.83926 18.4004 9.99486C18.4004 11.1505 18.1822 12.2379 17.7459 13.2572C17.3096 14.2766 16.7073 15.1704 15.9389 15.9389C15.1705 16.7073 14.2796 17.3096 13.2664 17.7459C12.2532 18.1822 11.1675 18.4004 10.0092 18.4004ZM10 14.8587C9.68997 14.8587 9.4301 14.7538 9.22038 14.5441C9.01065 14.3344 8.90579 14.0745 8.90579 13.7645C8.90579 13.4544 9.01065 13.1946 9.22038 12.9848C9.4301 12.7751 9.68997 12.6703 10 12.6703C10.31 12.6703 10.5699 12.7751 10.7796 12.9848C10.9893 13.1946 11.0942 13.4544 11.0942 13.7645C11.0942 14.0745 10.9893 14.3344 10.7796 14.5441C10.5699 14.7538 10.31 14.8587 10 14.8587ZM5.76448 11.0942C5.45445 11.0942 5.19458 10.9893 4.98485 10.7796C4.77513 10.5699 4.67027 10.31 4.67027 9.99998C4.67027 9.68996 4.77513 9.43008 4.98485 9.22036C5.19458 9.01064 5.45445 8.90578 5.76448 8.90578C6.07451 8.90578 6.33438 9.01064 6.5441 9.22036C6.75383 9.43008 6.85869 9.68996 6.85869 9.99998C6.85869 10.31 6.75383 10.5699 6.5441 10.7796C6.33438 10.9893 6.07451 11.0942 5.76448 11.0942ZM14.2355 11.0942C13.9255 11.0942 13.6656 10.9893 13.4559 10.7796C13.2462 10.5699 13.1413 10.31 13.1413 9.99998C13.1413 9.68996 13.2462 9.43008 13.4559 9.22036C13.6656 9.01064 13.9255 8.90578 14.2355 8.90578C14.5455 8.90578 14.8054 9.01064 15.0151 9.22036C15.2249 9.43008 15.3297 9.68996 15.3297 9.99998C15.3297 10.31 15.2249 10.5699 15.0151 10.7796C14.8054 10.9893 14.5455 11.0942 14.2355 11.0942Z" fill="#3A424A"/>
</svg>
