<svg width="20" height="20" viewBox="0 0 20 20" fill="none" xmlns="http://www.w3.org/2000/svg">
<path d="M16.7083 17.7708L14.5 15.5625V17.25H13V13H17.25V14.5H15.5625L17.7708 16.7083L16.7083 17.7708ZM10 18C8.90278 18 7.86806 17.7917 6.89583 17.375C5.92361 16.9583 5.07292 16.3854 4.34375 15.6562C3.61458 14.9271 3.04167 14.0764 2.625 13.1042C2.20833 12.1319 2 11.0972 2 10C2 8.88889 2.20833 7.85069 2.625 6.88542C3.04167 5.92014 3.61458 5.07292 4.34375 4.34375C5.07292 3.61458 5.92361 3.04167 6.89583 2.625C7.86806 2.20833 8.90278 2 10 2C11.1111 2 12.1493 2.20833 13.1146 2.625C14.0799 3.04167 14.9271 3.61458 15.6562 4.34375C16.3854 5.07292 16.9583 5.92014 17.375 6.88542C17.7917 7.85069 18 8.88889 18 10C18 10.25 17.9861 10.5 17.9583 10.75C17.9306 11 17.8958 11.25 17.8542 11.5H16.3125C16.3681 11.25 16.4132 11 16.4479 10.75C16.4826 10.5 16.5 10.25 16.5 10C16.5 9.75 16.4826 9.5 16.4479 9.25C16.4132 9 16.3681 8.75 16.3125 8.5H12.9583C12.9861 8.73611 13.0035 8.97917 13.0104 9.22917C13.0174 9.47917 13.0208 9.72222 13.0208 9.95833C13.0208 10.2222 13.0139 10.4792 13 10.7292C12.9861 10.9792 12.9722 11.2361 12.9583 11.5H11.4375C11.4514 11.2361 11.4653 10.9757 11.4792 10.7188C11.4931 10.4618 11.5 10.2014 11.5 9.9375C11.5 9.70139 11.4965 9.46181 11.4896 9.21875C11.4826 8.97569 11.4653 8.73611 11.4375 8.5H8.5625C8.53472 8.75 8.51736 9 8.51042 9.25C8.50347 9.5 8.5 9.75 8.5 10C8.5 10.25 8.50347 10.5 8.51042 10.75C8.51736 11 8.53472 11.25 8.5625 11.5H10.5V13H8.75C8.86111 13.625 9.01389 14.2326 9.20833 14.8229C9.40278 15.4132 9.66667 15.9722 10 16.5C10.25 16.5 10.5035 16.4861 10.7604 16.4583C11.0174 16.4306 11.2639 16.3819 11.5 16.3125V17.8542C11.2639 17.9236 11.0174 17.9653 10.7604 17.9792C10.5035 17.9931 10.25 18 10 18ZM3.6875 11.5H7.04167C7.01389 11.2639 6.99653 11.0208 6.98958 10.7708C6.98264 10.5208 6.97917 10.2778 6.97917 10.0417C6.97917 9.77778 6.98264 9.52083 6.98958 9.27083C6.99653 9.02083 7.01389 8.76389 7.04167 8.5H3.6875C3.63194 8.75 3.58681 9 3.55208 9.25C3.51736 9.5 3.5 9.75 3.5 10C3.5 10.25 3.51736 10.5 3.55208 10.75C3.58681 11 3.63194 11.25 3.6875 11.5ZM4.25 7H7.22917C7.3125 6.44444 7.42361 5.89583 7.5625 5.35417C7.70139 4.8125 7.88194 4.28472 8.10417 3.77083C7.27083 4.02083 6.52083 4.42361 5.85417 4.97917C5.1875 5.53472 4.65278 6.20833 4.25 7ZM8.125 16.2292C7.875 15.7153 7.68403 15.1875 7.55208 14.6458C7.42014 14.1042 7.3125 13.5556 7.22917 13H4.25C4.65278 13.7917 5.1875 14.4653 5.85417 15.0208C6.52083 15.5764 7.27778 15.9792 8.125 16.2292ZM8.75 7H11.25C11.1389 6.38889 10.9896 5.79167 10.8021 5.20833C10.6146 4.625 10.3472 4.07639 10 3.5625C9.65278 4.07639 9.38889 4.625 9.20833 5.20833C9.02778 5.79167 8.875 6.38889 8.75 7ZM12.7708 7H15.75C15.3472 6.20833 14.8125 5.53472 14.1458 4.97917C13.4792 4.42361 12.7292 4.02083 11.8958 3.77083C12.1181 4.28472 12.2986 4.8125 12.4375 5.35417C12.5764 5.89583 12.6875 6.44444 12.7708 7Z" fill="#3A424A"/>
</svg>
