<svg width="20" height="20" viewBox="0 0 20 20" fill="none" xmlns="http://www.w3.org/2000/svg">
<path d="M5.83333 2.49992H3.33333V4.99992H1.66667V0.833252H5.83333V2.49992ZM18.3333 4.99992V0.833252H14.1667V2.49992H16.6667V4.99992H18.3333ZM5.83333 17.4999H3.33333V14.9999H1.66667V19.1666H5.83333V17.4999ZM16.6667 14.9999V17.4999H14.1667V19.1666H18.3333V14.9999H16.6667ZM15.8333 14.9999C15.8333 15.9166 15.0833 16.6666 14.1667 16.6666H5.83333C4.91667 16.6666 4.16667 15.9166 4.16667 14.9999V4.99992C4.16667 4.08325 4.91667 3.33325 5.83333 3.33325H14.1667C15.0833 3.33325 15.8333 4.08325 15.8333 4.99992V14.9999ZM12.5 6.66659H7.5V8.33325H12.5V6.66659ZM12.5 9.16659H7.5V10.8333H12.5V9.16659ZM12.5 11.6666H7.5V13.3333H12.5V11.6666Z" fill="#3A424A"/>
</svg>
