<svg width="21" height="20" viewBox="0 0 21 20" fill="none" xmlns="http://www.w3.org/2000/svg">
<path d="M9.79125 18.3795C8.64933 18.3415 7.5823 18.0978 6.59014 17.6486C5.59799 17.1993 4.73175 16.5939 3.99141 15.8324C3.25107 15.071 2.6703 14.192 2.2491 13.1957C1.82791 12.1993 1.61731 11.134 1.61731 9.99999C1.61731 8.83392 1.83546 7.74469 2.27175 6.73232C2.70804 5.71993 3.31039 4.82953 4.07881 4.06111C4.84723 3.29269 5.7411 2.69034 6.76044 2.25405C7.77975 1.81776 8.8655 1.59961 10.0177 1.59961C11.1838 1.59961 12.273 1.81776 13.2854 2.25405C14.2977 2.69034 15.1881 3.29269 15.9566 4.06111C16.725 4.82953 17.3273 5.71993 17.7636 6.73232C18.1999 7.74469 18.4181 8.83392 18.4181 9.99999V10.2228C18.4181 10.2941 18.4141 10.3683 18.4063 10.4456C18.076 10.2343 17.7466 10.0599 17.4181 9.92253C17.0895 9.78515 16.7305 9.66302 16.341 9.55613C16.2384 7.8629 15.5719 6.45378 14.3415 5.3288C13.1111 4.2038 11.6463 3.6413 9.94704 3.6413C9.29728 3.6413 8.66352 3.7432 8.04577 3.94701C7.42802 4.1508 6.8471 4.45439 6.30302 4.85778L11.2813 9.83603C10.9588 9.97854 10.6422 10.1309 10.3315 10.293C10.0208 10.4551 9.72298 10.6479 9.43796 10.8714L4.86371 6.30888C4.46032 6.86866 4.15868 7.46135 3.95881 8.08694C3.75893 8.71256 3.659 9.35024 3.659 9.99999C3.659 11.1902 3.97663 12.2966 4.61189 13.3193C5.24714 14.3419 6.11912 15.1159 7.22781 15.6413C7.54846 16.2204 7.91652 16.7285 8.332 17.1658C8.74746 17.603 9.23387 18.0075 9.79125 18.3795ZM14.2677 16.5C15.0575 16.5 15.8136 16.3372 16.5358 16.0118C17.258 15.6863 17.8492 15.1823 18.3094 14.5C17.8492 13.8176 17.258 13.3137 16.5358 12.9882C15.8136 12.6627 15.0575 12.5 14.2677 12.5C13.4778 12.5 12.7218 12.6627 11.9996 12.9882C11.2773 13.3137 10.6862 13.8176 10.226 14.5C10.6862 15.1823 11.2773 15.6863 11.9996 16.0118C12.7218 16.3372 13.4778 16.5 14.2677 16.5ZM14.2677 18.1766C13.0237 18.1766 11.8524 17.8667 10.7536 17.2468C9.65491 16.627 8.84286 15.7113 8.3175 14.5C8.84286 13.2886 9.65491 12.373 10.7536 11.7532C11.8524 11.1333 13.0237 10.8233 14.2677 10.8233C15.5116 10.8233 16.683 11.1333 17.7817 11.7532C18.8805 12.373 19.6925 13.2886 20.2179 14.5C19.6925 15.7113 18.8805 16.627 17.7817 17.2468C16.683 17.8667 15.5116 18.1766 14.2677 18.1766ZM14.2677 15.8442C13.8891 15.8442 13.5704 15.7148 13.3116 15.456C13.0529 15.1973 12.9235 14.8786 12.9235 14.5C12.9235 14.1214 13.0529 13.8027 13.3116 13.5439C13.5704 13.2852 13.8891 13.1558 14.2677 13.1558C14.6463 13.1558 14.965 13.2852 15.2237 13.5439C15.4825 13.8027 15.6119 14.1214 15.6119 14.5C15.6119 14.8786 15.4825 15.1973 15.2237 15.456C14.965 15.7148 14.6463 15.8442 14.2677 15.8442Z" fill="#3A424A"/>
</svg>
