<svg width="20" height="20" viewBox="0 0 20 20" fill="none" xmlns="http://www.w3.org/2000/svg">
<path fill-rule="evenodd" clip-rule="evenodd" d="M10.0042 1.69397L3.17087 5.63564C3.17087 8.57448 4.12811 11.3887 5.8132 13.6949C5.95935 13.8949 6.11097 14.0911 6.26793 14.2832C6.92346 15.0856 7.67189 15.817 8.50231 16.4591C8.97684 16.826 9.47815 17.1638 10.0042 17.469C14.2209 15.0273 16.8292 10.4856 16.8375 5.61898L10.0042 1.69397ZM10.3873 10.0535C11.131 9.88448 11.6944 9.20839 11.6944 8.40836C11.6944 7.4731 10.9395 6.71814 10.0042 6.71814C9.06896 6.71814 8.314 7.4731 8.314 8.40836C8.314 9.20839 8.8774 9.88448 9.6211 10.0535L8.8436 11.5296C8.67457 11.8451 8.88867 12.2282 9.22671 12.2282H10.7817C11.1198 12.2282 11.3226 11.8451 11.1648 11.5296L10.3873 10.0535Z" fill="#3A424A"/>
<path fill-rule="evenodd" clip-rule="evenodd" d="M10.0375 19.1606C9.73751 19.1606 9.47918 19.094 9.25418 18.9606L9.17918 18.919C4.45418 16.1856 1.52085 11.1023 1.50418 5.6523V5.51897C1.50418 5.0023 1.77918 4.51897 2.22918 4.2523L9.27085 0.193965C9.50418 0.0606318 9.77918 -0.0143683 10.0375 0.00229841C10.2708 0.00229841 10.5208 0.0689651 10.7458 0.202298L17.6792 4.21063C18.1792 4.5023 18.4958 5.04397 18.4958 5.61897C18.4958 11.094 15.5542 16.1856 10.8208 18.9273L10.7375 18.9773C10.5208 19.1023 10.2875 19.169 10.0458 19.1773L10.0375 19.1606ZM2.67087 5.34684L10.0037 1.11707L17.338 5.32985L17.3375 5.61984C17.3289 10.6637 14.6264 15.3703 10.2548 17.9017L10.004 18.0469L9.75328 17.9015C5.3919 15.371 2.67087 10.6819 2.67087 5.63565V5.34684Z" fill="#3A424A"/>
</svg>
