<svg width="20" height="20" viewBox="0 0 20 20" fill="none" xmlns="http://www.w3.org/2000/svg">
<path d="M10.0375 19.5771C9.7375 19.5771 9.47917 19.5105 9.25417 19.3771L9.17917 19.3355C4.45417 16.6021 1.52083 11.5188 1.50417 6.0688V5.93547C1.50417 5.4188 1.77917 4.93547 2.22917 4.6688L9.27083 0.610469C9.50417 0.477136 9.77917 0.402136 10.0375 0.418802C10.2708 0.418802 10.5208 0.485469 10.7458 0.618802L17.6792 4.62714C18.1792 4.9188 18.4958 5.46047 18.4958 6.03547C18.4958 11.5105 15.5542 16.6021 10.8208 19.3438L10.7375 19.3938C10.5208 19.5188 10.2875 19.5855 10.0458 19.5938L10.0375 19.5771ZM3.17083 6.05214C3.17083 10.9188 5.79583 15.4438 10.0042 17.8855C14.2208 15.4438 16.8292 10.9021 16.8375 6.03547L10.0042 2.11047L3.17083 6.05214Z" fill="#3A424A"/>
<path d="M10.3873 10.47C11.131 10.301 11.6944 9.6249 11.6944 8.82486C11.6944 7.88961 10.9394 7.13464 10.0042 7.13464C9.0689 7.13464 8.31393 7.88961 8.31393 8.82486C8.31393 9.6249 8.87734 10.301 9.62103 10.47L8.84354 11.9461C8.67451 12.2616 8.88861 12.6447 9.22665 12.6447H10.7817C11.1197 12.6447 11.3225 12.2616 11.1648 11.9461L10.3873 10.47Z" fill="#3A424A"/>
</svg>
