<svg width="20" height="20" viewBox="0 0 20 20" fill="none" xmlns="http://www.w3.org/2000/svg">
<path d="M9.77074 8.49089L16.0506 12.9682C15.6382 14.08 15.0455 15.08 14.2726 15.9682C13.4996 16.8565 12.5893 17.5498 11.5416 18.048V12.0244H7.99988V18.048C6.95219 17.5498 6.04186 16.8531 5.2689 15.9578C4.49596 15.0626 3.90327 14.0591 3.49084 12.9474L9.77074 8.49089ZM9.77074 1.88306L16.6711 4.52437V9.38941C16.6711 9.61163 16.6627 9.85197 16.6458 10.1104C16.6289 10.3689 16.6104 10.6092 16.5905 10.8315L9.77074 5.95372L2.95097 10.8315C2.9389 10.6092 2.92244 10.3689 2.90161 10.1104C2.88078 9.85197 2.87036 9.61163 2.87036 9.38941V4.52437L9.77074 1.88306Z" fill="#3A424A"/>
</svg>
