<svg width="20" height="20" viewBox="0 0 20 20" fill="none" xmlns="http://www.w3.org/2000/svg">
<path d="M10.0405 18.3071C8.16553 17.8349 6.61344 16.7655 5.38428 15.0988C4.15511 13.4321 3.54053 11.5849 3.54053 9.55713V4.80713L10.0405 2.30713L16.5405 4.80713V9.55713C16.5405 11.5849 15.9294 13.4321 14.7072 15.0988C13.485 16.7655 11.9294 17.8349 10.0405 18.3071ZM10.0405 8.14046L5.26969 11.5155C5.51969 12.4599 5.92942 13.3245 6.49886 14.1092C7.06831 14.8939 7.74886 15.5294 8.54053 16.0155V12.3071H11.5405V16.0155C12.3322 15.5294 13.0127 14.8939 13.5822 14.1092C14.1516 13.3245 14.5614 12.4599 14.8114 11.5155L10.0405 8.14046ZM10.0405 3.9113L5.04053 5.82796L5.01969 9.86963L10.0405 6.30713L15.0614 9.86963L15.0405 5.82796L10.0405 3.9113Z" fill="#3A424A"/>
</svg>
