<svg width="20" height="20" viewBox="0 0 20 20" fill="none" xmlns="http://www.w3.org/2000/svg">
<path d="M6 12.5C6.69444 12.5 7.28472 12.2569 7.77083 11.7708C8.25694 11.2847 8.5 10.6944 8.5 10C8.5 9.30556 8.25694 8.71528 7.77083 8.22917C7.28472 7.74306 6.69444 7.5 6 7.5C5.30556 7.5 4.71528 7.74306 4.22917 8.22917C3.74306 8.71528 3.5 9.30556 3.5 10C3.5 10.6944 3.74306 11.2847 4.22917 11.7708C4.71528 12.2569 5.30556 12.5 6 12.5ZM6 15C4.61111 15 3.43056 14.5139 2.45833 13.5417C1.48611 12.5694 1 11.3889 1 10C1 8.61111 1.48611 7.43056 2.45833 6.45833C3.43056 5.48611 4.61111 5 6 5C7.08333 5 8.05903 5.32292 8.92708 5.96875C9.79514 6.61458 10.4028 7.45833 10.75 8.5H17.5L19 10L16.25 13.3125L14.5 11.5L13 13L11.5 11.5H10.75C10.4167 12.5417 9.81302 13.3854 8.93906 14.0312C8.06509 14.6771 7.0854 15 6 15Z" fill="#3A424A"/>
</svg>
