<svg width="20" height="20" viewBox="0 0 20 20" fill="none" xmlns="http://www.w3.org/2000/svg">
<path d="M5.83334 11.6667C5.375 11.6667 4.98278 11.5033 4.65667 11.1767C4.33 10.8506 4.16667 10.4583 4.16667 10C4.16667 9.54167 4.33 9.14917 4.65667 8.8225C4.98278 8.49639 5.375 8.33333 5.83334 8.33333C6.29167 8.33333 6.68389 8.49639 7.01 8.8225C7.33667 9.14917 7.5 9.54167 7.5 10C7.5 10.4583 7.33667 10.8506 7.01 11.1767C6.68389 11.5033 6.29167 11.6667 5.83334 11.6667ZM5.83334 15C4.44445 15 3.26389 14.5139 2.29167 13.5417C1.31945 12.5694 0.833336 11.3889 0.833336 10C0.833336 8.61111 1.31945 7.43056 2.29167 6.45833C3.26389 5.48611 4.44445 5 5.83334 5C6.76389 5 7.60778 5.22917 8.365 5.6875C9.12167 6.14583 9.72222 6.75 10.1667 7.5H17.5L20 10L16.25 13.75L14.5833 12.5L12.9167 13.75L11.1458 12.5H10.1667C9.72222 13.25 9.12167 13.8542 8.365 14.3125C7.60778 14.7708 6.76389 15 5.83334 15ZM5.83334 13.3333C6.61111 13.3333 7.29528 13.0972 7.88584 12.625C8.47584 12.1528 8.86806 11.5556 9.0625 10.8333H11.6667L12.875 11.6875L14.5833 10.4167L16.0625 11.5625L17.625 10L16.7917 9.16667H9.0625C8.86806 8.44444 8.47584 7.84722 7.88584 7.375C7.29528 6.90278 6.61111 6.66667 5.83334 6.66667C4.91667 6.66667 4.13195 6.99306 3.47917 7.64583C2.82639 8.29861 2.5 9.08333 2.5 10C2.5 10.9167 2.82639 11.7014 3.47917 12.3542C4.13195 13.0069 4.91667 13.3333 5.83334 13.3333Z" fill="#3A424A"/>
</svg>
