<svg width="20" height="20" viewBox="0 0 20 20" fill="none" xmlns="http://www.w3.org/2000/svg">
<path d="M5.74563 13C5.95688 13 6.13542 12.9285 6.28125 12.7856C6.42708 12.6427 6.5 12.4656 6.5 12.2544C6.5 12.0431 6.42854 11.8646 6.28562 11.7188C6.14271 11.5729 5.96563 11.5 5.75437 11.5C5.54312 11.5 5.36458 11.5715 5.21875 11.7144C5.07292 11.8573 5 12.0344 5 12.2456C5 12.4569 5.07146 12.6354 5.21438 12.7812C5.35729 12.9271 5.53438 13 5.74563 13ZM5 10.5H6.5V7H5V10.5ZM9 12.5H15V11H9V12.5ZM9 9H15V7.5H9V9ZM3.5 16C3.0875 16 2.73438 15.8531 2.44063 15.5592C2.14688 15.2653 2 14.9119 2 14.4992V5.49417C2 5.08139 2.14688 4.72917 2.44063 4.4375C2.73438 4.14583 3.0875 4 3.5 4H16.5C16.9125 4 17.2656 4.14694 17.5594 4.44083C17.8531 4.73472 18 5.08806 18 5.50083V14.5058C18 14.9186 17.8531 15.2708 17.5594 15.5625C17.2656 15.8542 16.9125 16 16.5 16H3.5Z" fill="#3A424A"/>
</svg>
