<svg width="20" height="20" viewBox="0 0 20 20" fill="none" xmlns="http://www.w3.org/2000/svg">
<path d="M9 17V15.5H15.5V9.9375C15.5 9.17632 15.3561 8.46107 15.0684 7.79175C14.7807 7.12244 14.3883 6.53844 13.8913 6.03973C13.3943 5.54102 12.8112 5.14583 12.1418 4.85417C11.4725 4.5625 10.7572 4.41667 9.99598 4.41667C9.23477 4.41667 8.5199 4.56181 7.85135 4.85208C7.18281 5.14236 6.59948 5.53819 6.10135 6.03958C5.60323 6.54097 5.21181 7.12591 4.92708 7.7944C4.64236 8.4629 4.5 9.17726 4.5 9.9375V14.6667H3.5C3.0875 14.6667 2.73438 14.5157 2.44063 14.2138C2.14688 13.9119 2 13.549 2 13.125V11.5833C2 11.2584 2.09028 10.9723 2.27083 10.725C2.45139 10.4778 2.69444 10.3194 3 10.25L3.0625 9.1875C3.1875 8.3125 3.45139 7.49653 3.85417 6.73958C4.25694 5.98264 4.76736 5.32639 5.38542 4.77083C6.00347 4.21528 6.70833 3.78125 7.5 3.46875C8.29167 3.15625 9.12166 3 9.98998 3C10.8717 3 11.7083 3.15625 12.5 3.46875C13.2917 3.78125 13.9965 4.21528 14.6146 4.77083C15.2326 5.32639 15.7431 5.97917 16.1458 6.72917C16.5486 7.47917 16.8125 8.29167 16.9375 9.16667L17 10.25C17.2917 10.3194 17.5312 10.4688 17.7188 10.6979C17.9062 10.9271 18 11.1944 18 11.5V13.25C18 13.5501 17.9062 13.8161 17.7188 14.048C17.5312 14.2799 17.2917 14.4306 17 14.5V15.5C17 15.9125 16.8531 16.2656 16.5594 16.5594C16.2656 16.8531 15.9125 17 15.5 17H9ZM7.7544 11.5C7.54313 11.5 7.36458 11.4285 7.21875 11.2856C7.07292 11.1427 7 10.9656 7 10.7544C7 10.5431 7.07145 10.3646 7.21435 10.2188C7.35727 10.0729 7.53435 10 7.7456 10C7.95687 10 8.13542 10.0715 8.28125 10.2144C8.42708 10.3573 8.5 10.5344 8.5 10.7456C8.5 10.9569 8.42855 11.1354 8.28565 11.2812C8.14273 11.4271 7.96565 11.5 7.7544 11.5ZM12.2544 11.5C12.0431 11.5 11.8646 11.4285 11.7188 11.2856C11.5729 11.1427 11.5 10.9656 11.5 10.7544C11.5 10.5431 11.5715 10.3646 11.7144 10.2188C11.8573 10.0729 12.0344 10 12.2456 10C12.4569 10 12.6354 10.0715 12.7812 10.2144C12.9271 10.3573 13 10.5344 13 10.7456C13 10.9569 12.9285 11.1354 12.7856 11.2812C12.6427 11.4271 12.4656 11.5 12.2544 11.5ZM5.51133 10.4583C5.46211 9.79167 5.54167 9.15972 5.75 8.5625C5.95833 7.96528 6.26736 7.4375 6.67708 6.97917C7.08681 6.52083 7.58333 6.15972 8.16667 5.89583C8.75 5.63194 9.375 5.5 10.0417 5.5C11.1871 5.5 12.1783 5.88194 13.0153 6.64583C13.8523 7.40972 14.3333 8.36111 14.4583 9.5C13.2778 9.5 12.2049 9.17708 11.2396 8.53125C10.2743 7.88542 9.52778 7.04167 9 6C8.80556 6.98611 8.40625 7.87153 7.80208 8.65625C7.19792 9.44097 6.43433 10.0417 5.51133 10.4583Z" fill="#3A424A"/>
</svg>
