<svg width="20" height="20" viewBox="0 0 20 20" fill="none" xmlns="http://www.w3.org/2000/svg">
<path d="M11.5 9.5C12.1944 9.5 12.7847 9.25694 13.2708 8.77083C13.7569 8.28472 14 7.69444 14 7C14 6.30556 13.7569 5.71528 13.2708 5.22917C12.7847 4.74306 12.1944 4.5 11.5 4.5C10.8056 4.5 10.2153 4.74306 9.72917 5.22917C9.24306 5.71528 9 6.30556 9 7C9 7.69444 9.24306 8.28472 9.72917 8.77083C10.2153 9.25694 10.8056 9.5 11.5 9.5ZM6.5 12.8542C7.125 12.1042 7.87153 11.5243 8.73958 11.1146C9.60764 10.7049 10.5278 10.5 11.5 10.5C12.4722 10.5 13.3924 10.7049 14.2604 11.1146C15.1285 11.5243 15.875 12.1042 16.5 12.8542V3.5H6.5V12.8542ZM6.5 15C6.0875 15 5.73438 14.8531 5.44062 14.5594C5.14687 14.2656 5 13.9125 5 13.5V3.5C5 3.0875 5.14687 2.73437 5.44062 2.44062C5.73438 2.14687 6.0875 2 6.5 2H16.5C16.9125 2 17.2656 2.14687 17.5594 2.44062C17.8531 2.73437 18 3.0875 18 3.5V13.5C18 13.9125 17.8531 14.2656 17.5594 14.5594C17.2656 14.8531 16.9125 15 16.5 15H6.5ZM3.5 18C3.0875 18 2.73438 17.8531 2.44063 17.5594C2.14688 17.2656 2 16.9125 2 16.5V5H3.5V16.5H15V18H3.5ZM11.5 8C11.2167 8 10.9792 7.90417 10.7875 7.7125C10.5958 7.52083 10.5 7.28333 10.5 7C10.5 6.71667 10.5958 6.47917 10.7875 6.2875C10.9792 6.09583 11.2167 6 11.5 6C11.7833 6 12.0208 6.09583 12.2125 6.2875C12.4042 6.47917 12.5 6.71667 12.5 7C12.5 7.28333 12.4042 7.52083 12.2125 7.7125C12.0208 7.90417 11.7833 8 11.5 8ZM7.95833 13.5H15.0417C14.5694 13.0278 14.0278 12.6597 13.4167 12.3958C12.8056 12.1319 12.1667 12 11.5 12C10.8333 12 10.1944 12.1319 9.58333 12.3958C8.97222 12.6597 8.43056 13.0278 7.95833 13.5Z" fill="#3A424A"/>
</svg>
