<svg width="20" height="20" viewBox="0 0 20 20" fill="none" xmlns="http://www.w3.org/2000/svg">
<path d="M4.5 17C4.08333 17 3.72917 16.8542 3.4375 16.5625C3.14583 16.2708 3 15.9167 3 15.5V4.5C3 4.08333 3.14583 3.72917 3.4375 3.4375C3.72917 3.14583 4.08333 3 4.5 3H15.5C15.9167 3 16.2708 3.14583 16.5625 3.4375C16.8542 3.72917 17 4.08333 17 4.5V15.5C17 15.9167 16.8542 16.2708 16.5625 16.5625C16.2708 16.8542 15.9167 17 15.5 17H4.5ZM11.9375 15.5H13L15.5 13H14.4375L11.9375 15.5ZM6.8125 11.5L9.1875 9.125L10.6875 10.625L14.25 7.0625L13.1875 6L10.6875 8.5L9.1875 7L5.75 10.4375L6.8125 11.5ZM4.5 15.5H5.5625L8.0625 13H7L4.5 15.5ZM10.5208 15.5L13.0208 13H11.9583L9.45833 15.5H10.5208ZM8.04167 15.5L10.5417 13H9.47917L6.97917 15.5H8.04167Z" fill="#3A424A"/>
</svg>
