<svg width="20" height="20" viewBox="0 0 20 20" fill="none" xmlns="http://www.w3.org/2000/svg">
<path d="M4.5 17C4.0875 17 3.73437 16.8531 3.44062 16.5594C3.14687 16.2656 3 15.9125 3 15.5V4.5C3 4.0875 3.14687 3.73438 3.44062 3.44063C3.73437 3.14688 4.0875 3 4.5 3H15.5C15.9125 3 16.2656 3.14688 16.5594 3.44063C16.8531 3.73438 17 4.0875 17 4.5V15.5C17 15.9125 16.8531 16.2656 16.5594 16.5594C16.2656 16.8531 15.9125 17 15.5 17H4.5ZM13 15.5H15.5V13L13 15.5ZM5.5625 15.5H6.97917L9.47917 13H10.5417L8.04167 15.5H9.45833L11.9583 13H13.0208L10.5208 15.5H11.9375L14.4375 13H15.5V4.5H4.5V15.5L7 13H8.0625L5.5625 15.5ZM6.8125 11.5L5.75 10.4375L9.1875 7L10.6875 8.5L13.1875 6L14.25 7.0625L10.6875 10.625L9.1875 9.125L6.8125 11.5Z" fill="#3A424A"/>
</svg>
