<svg width="20" height="20" viewBox="0 0 20 20" fill="none" xmlns="http://www.w3.org/2000/svg">
<path d="M0.833336 16.6666V14.3333C0.833336 13.861 0.955003 13.4269 1.19834 13.0308C1.44111 12.6352 1.76389 12.3333 2.16667 12.1249C3.02778 11.6944 3.90278 11.3713 4.79167 11.1558C5.68056 10.9408 6.58334 10.8333 7.5 10.8333C8.41667 10.8333 9.31945 10.9408 10.2083 11.1558C11.0972 11.3713 11.9722 11.6944 12.8333 12.1249C13.2361 12.3333 13.5589 12.6352 13.8017 13.0308C14.045 13.4269 14.1667 13.861 14.1667 14.3333V16.6666H0.833336ZM15.8333 16.6666V14.1666C15.8333 13.5555 15.6633 12.9685 15.3233 12.4058C14.9828 11.8435 14.5 11.361 13.875 10.9583C14.5833 11.0416 15.25 11.1838 15.875 11.3849C16.5 11.5866 17.0833 11.8333 17.625 12.1249C18.125 12.4027 18.5069 12.7116 18.7708 13.0516C19.0347 13.3921 19.1667 13.7638 19.1667 14.1666V16.6666H15.8333ZM7.5 9.99992C6.58334 9.99992 5.79861 9.67353 5.14584 9.02075C4.49306 8.36797 4.16667 7.58325 4.16667 6.66659C4.16667 5.74992 4.49306 4.9652 5.14584 4.31242C5.79861 3.65964 6.58334 3.33325 7.5 3.33325C8.41667 3.33325 9.20139 3.65964 9.85417 4.31242C10.5069 4.9652 10.8333 5.74992 10.8333 6.66659C10.8333 7.58325 10.5069 8.36797 9.85417 9.02075C9.20139 9.67353 8.41667 9.99992 7.5 9.99992ZM15.8333 6.66659C15.8333 7.58325 15.5069 8.36797 14.8542 9.02075C14.2014 9.67353 13.4167 9.99992 12.5 9.99992C12.3472 9.99992 12.1528 9.9827 11.9167 9.94825C11.6806 9.91325 11.4861 9.87492 11.3333 9.83325C11.7083 9.38881 11.9964 8.89575 12.1975 8.35408C12.3992 7.81242 12.5 7.24992 12.5 6.66659C12.5 6.08325 12.3992 5.52075 12.1975 4.97909C11.9964 4.43742 11.7083 3.94436 11.3333 3.49992C11.5278 3.43047 11.7222 3.3852 11.9167 3.36409C12.1111 3.34353 12.3056 3.33325 12.5 3.33325C13.4167 3.33325 14.2014 3.65964 14.8542 4.31242C15.5069 4.9652 15.8333 5.74992 15.8333 6.66659ZM2.5 14.9999H12.5V14.3333C12.5 14.1805 12.4619 14.0416 12.3858 13.9166C12.3092 13.7916 12.2083 13.6944 12.0833 13.6249C11.3333 13.2499 10.5764 12.9685 9.8125 12.7808C9.04861 12.5935 8.27778 12.4999 7.5 12.4999C6.72222 12.4999 5.95139 12.5935 5.1875 12.7808C4.42361 12.9685 3.66667 13.2499 2.91667 13.6249C2.79167 13.6944 2.69111 13.7916 2.615 13.9166C2.53834 14.0416 2.5 14.1805 2.5 14.3333V14.9999ZM7.5 8.33325C7.95834 8.33325 8.35084 8.16992 8.6775 7.84325C9.00361 7.51714 9.16667 7.12492 9.16667 6.66659C9.16667 6.20825 9.00361 5.81603 8.6775 5.48992C8.35084 5.16325 7.95834 4.99992 7.5 4.99992C7.04167 4.99992 6.64945 5.16325 6.32334 5.48992C5.99667 5.81603 5.83334 6.20825 5.83334 6.66659C5.83334 7.12492 5.99667 7.51714 6.32334 7.84325C6.64945 8.16992 7.04167 8.33325 7.5 8.33325Z" fill="#3A424A"/>
</svg>
