<svg width="20" height="20" viewBox="0 0 20 20" fill="none" xmlns="http://www.w3.org/2000/svg">
<path d="M3.5 18C3.0875 18 2.73438 17.8531 2.44063 17.5594C2.14688 17.2656 2 16.9125 2 16.5V9.5C2 9.0875 2.14688 8.73438 2.44063 8.44063C2.73438 8.14688 3.0875 8 3.5 8H5V3.5C5 3.0875 5.14687 2.73438 5.44062 2.44063C5.73438 2.14688 6.0875 2 6.5 2H16.5C16.9125 2 17.2656 2.14688 17.5594 2.44063C17.8531 2.73438 18 3.0875 18 3.5V10.5C18 10.9125 17.8531 11.2656 17.5594 11.5594C17.2656 11.8531 16.9125 12 16.5 12H15V16.5C15 16.9125 14.8531 17.2656 14.5594 17.5594C14.2656 17.8531 13.9125 18 13.5 18H3.5ZM3.5 16.5H13.5V11H3.5V16.5ZM15 10.5H16.5V5H6.5V8H13.5C13.9125 8 14.2656 8.14688 14.5594 8.44063C14.8531 8.73438 15 9.0875 15 9.5V10.5Z" fill="#3A424A"/>
</svg>
