<svg width="20" height="20" viewBox="0 0 20 20" fill="none" xmlns="http://www.w3.org/2000/svg">
<path d="M10.0058 18C8.90472 18 7.86806 17.7917 6.89583 17.375C5.92361 16.9583 5.07292 16.3854 4.34375 15.6562C3.61458 14.9271 3.04167 14.0767 2.625 13.105C2.20833 12.1333 2 11.0951 2 9.99042C2 8.88569 2.20833 7.85069 2.625 6.88542C3.04167 5.92014 3.61458 5.07292 4.34375 4.34375C5.07292 3.61458 5.92333 3.04167 6.895 2.625C7.86667 2.20833 8.90486 2 10.0096 2C11.1143 2 12.1493 2.20833 13.1146 2.625C14.0799 3.04167 14.9271 3.61458 15.6562 4.34375C16.3854 5.07292 16.9583 5.92167 17.375 6.89C17.7917 7.85847 18 8.89319 18 9.99417C18 11.0953 17.7917 12.1319 17.375 13.1042C16.9583 14.0764 16.3854 14.9271 15.6562 15.6562C14.9271 16.3854 14.0783 16.9583 13.11 17.375C12.1415 17.7917 11.1068 18 10.0058 18ZM7.75458 10.75C8.51542 10.75 9.16319 10.4811 9.69792 9.94333C10.2326 9.40556 10.5 8.75625 10.5 7.99542C10.5 7.23458 10.2311 6.58681 9.69333 6.05208C9.15556 5.51736 8.50625 5.25 7.74542 5.25C6.98458 5.25 6.33681 5.51889 5.80208 6.05667C5.26736 6.59444 5 7.24375 5 8.00458C5 8.76542 5.26889 9.41319 5.80667 9.94792C6.34444 10.4826 6.99375 10.75 7.75458 10.75ZM13.4952 11.5C14.054 11.5 14.5278 11.3072 14.9167 10.9215C15.3056 10.5356 15.5 10.0634 15.5 9.50479C15.5 8.94604 15.3072 8.47222 14.9215 8.08333C14.5356 7.69444 14.0634 7.5 13.5048 7.5C12.946 7.5 12.4722 7.69285 12.0833 8.07854C11.6944 8.46438 11.5 8.9366 11.5 9.49521C11.5 10.054 11.6928 10.5278 12.0785 10.9167C12.4644 11.3056 12.9366 11.5 13.4952 11.5ZM10 16.5C11.1585 16.5 12.2148 16.2241 13.169 15.6723C14.123 15.1206 14.8931 14.3896 15.4792 13.4792C15.1736 13.3125 14.8544 13.191 14.5215 13.1146C14.1885 13.0382 13.8481 13 13.5 13C12.4583 13 11.5312 13.3194 10.7188 13.9583C9.90625 14.5972 9.38194 15.4236 9.14583 16.4375C9.28472 16.4613 9.42361 16.4776 9.5625 16.4867C9.70139 16.4956 9.84722 16.5 10 16.5ZM7.75 16.1042C7.86111 15.2292 8.25694 14.4306 8.9375 13.7083C9.61806 12.9861 10.0972 12.5486 10.375 12.3958C9.94472 12.2771 9.51076 12.1815 9.07313 12.109C8.63549 12.0363 8.19576 12 7.75396 12C7.13285 12 6.51854 12.066 5.91104 12.1979C5.30368 12.3299 4.70833 12.5278 4.125 12.7917C4.48611 13.5556 4.97917 14.2257 5.60417 14.8021C6.22917 15.3785 6.94444 15.8125 7.75 16.1042Z" fill="#3A424A"/>
</svg>
