<svg width="20" height="20" viewBox="0 0 20 20" fill="none" xmlns="http://www.w3.org/2000/svg">
<path d="M9.14583 16.4375C9.38194 15.4236 9.90625 14.5972 10.7188 13.9583C11.5312 13.3194 12.4583 13 13.5 13C13.8481 13 14.1885 13.0382 14.5215 13.1146C14.8544 13.191 15.1736 13.3125 15.4792 13.4792C15.8125 12.9514 16.066 12.3958 16.2396 11.8125C16.4132 11.2292 16.5 10.625 16.5 10C16.5 8.19444 15.8681 6.65972 14.6042 5.39583C13.3403 4.13194 11.8056 3.5 10 3.5C8.19444 3.5 6.65972 4.13194 5.39583 5.39583C4.13194 6.65972 3.5 8.19444 3.5 10C3.5 10.4861 3.54861 10.9618 3.64583 11.4271C3.74306 11.8924 3.90278 12.3403 4.125 12.7708C4.70833 12.5069 5.30368 12.3125 5.91104 12.1875C6.51854 12.0625 7.13285 12 7.75396 12C8.19576 12 8.63549 12.0363 9.07313 12.109C9.51076 12.1815 9.94472 12.2771 10.375 12.3958C10.0972 12.5486 9.84375 12.7326 9.61458 12.9479C9.38542 13.1632 9.16667 13.3819 8.95833 13.6042C8.76389 13.5764 8.5625 13.5521 8.35417 13.5312C8.14583 13.5104 7.94444 13.5 7.75 13.5C7.26819 13.5 6.79007 13.5486 6.31563 13.6458C5.84132 13.7431 5.38194 13.8819 4.9375 14.0625C5.45139 14.7292 6.07292 15.2674 6.80208 15.6771C7.53125 16.0868 8.3125 16.3403 9.14583 16.4375ZM10.0058 18C8.90472 18 7.86806 17.7917 6.89583 17.375C5.92361 16.9583 5.07292 16.3854 4.34375 15.6562C3.61458 14.9271 3.04167 14.0767 2.625 13.105C2.20833 12.1333 2 11.0951 2 9.99042C2 8.88569 2.20833 7.85069 2.625 6.88542C3.04167 5.92014 3.61458 5.07292 4.34375 4.34375C5.07292 3.61458 5.92333 3.04167 6.895 2.625C7.86667 2.20833 8.90486 2 10.0096 2C11.1143 2 12.1493 2.20833 13.1146 2.625C14.0799 3.04167 14.9271 3.61458 15.6562 4.34375C16.3854 5.07292 16.9583 5.92167 17.375 6.89C17.7917 7.85847 18 8.89319 18 9.99417C18 11.0953 17.7917 12.1319 17.375 13.1042C16.9583 14.0764 16.3854 14.9271 15.6562 15.6562C14.9271 16.3854 14.0783 16.9583 13.11 17.375C12.1415 17.7917 11.1068 18 10.0058 18ZM7.74542 10.75C6.98458 10.75 6.33681 10.4811 5.80208 9.94333C5.26736 9.40556 5 8.75625 5 7.99542C5 7.23458 5.26889 6.58681 5.80667 6.05208C6.34444 5.51736 6.99375 5.25 7.75458 5.25C8.51542 5.25 9.16319 5.51889 9.69792 6.05667C10.2326 6.59444 10.5 7.24375 10.5 8.00458C10.5 8.76542 10.2311 9.41319 9.69333 9.94792C9.15556 10.4826 8.50625 10.75 7.74542 10.75ZM7.75 9.25C8.09722 9.25 8.39236 9.12847 8.63542 8.88542C8.87847 8.64236 9 8.34722 9 8C9 7.65278 8.87847 7.35764 8.63542 7.11458C8.39236 6.87153 8.09722 6.75 7.75 6.75C7.40278 6.75 7.10764 6.87153 6.86458 7.11458C6.62153 7.35764 6.5 7.65278 6.5 8C6.5 8.34722 6.62153 8.64236 6.86458 8.88542C7.10764 9.12847 7.40278 9.25 7.75 9.25ZM13.5048 11.5C12.946 11.5 12.4722 11.3072 12.0833 10.9215C11.6944 10.5356 11.5 10.0634 11.5 9.50479C11.5 8.94604 11.6928 8.47222 12.0785 8.08333C12.4644 7.69444 12.9366 7.5 13.4952 7.5C14.054 7.5 14.5278 7.69285 14.9167 8.07854C15.3056 8.46438 15.5 8.9366 15.5 9.49521C15.5 10.054 15.3072 10.5278 14.9215 10.9167C14.5356 11.3056 14.0634 11.5 13.5048 11.5Z" fill="#3A424A"/>
</svg>
