<svg width="20" height="20" viewBox="0 0 20 20" fill="none" xmlns="http://www.w3.org/2000/svg">
<path fill-rule="evenodd" clip-rule="evenodd" d="M15.0645 17.1052L18.6856 10.8333C18.9833 10.3176 18.9833 9.6823 18.6856 9.16664L15.0645 2.89474C14.7668 2.37907 14.2165 2.0614 13.6211 2.0614H6.37894C5.78349 2.0614 5.23328 2.37907 4.93556 2.89473L1.31448 9.16664C1.01676 9.6823 1.01676 10.3176 1.31448 10.8333L4.93556 17.1052C5.23328 17.6209 5.78349 17.9385 6.37894 17.9385H13.6211C14.2165 17.9385 14.7668 17.6209 15.0645 17.1052ZM13.6211 16.2719L14.7163 14.375H9.99423C9.99423 14.375 9.64857 14.9248 8.95821 14.9248C8.26786 14.9248 7.70821 14.3651 7.70821 13.6748C7.70821 12.9844 8.26786 12.4248 8.95821 12.4248C9.63464 12.4248 10.0815 13.125 10.0815 13.125H15.438L17.2422 9.99997L13.6211 3.72807L6.37894 3.72807L2.75785 9.99997L2.87815 10.2083H6.26304C6.3781 10.2083 6.47137 10.115 6.47137 9.99999V8.61468C6.10689 8.39629 5.86292 7.99746 5.86292 7.54165C5.86292 6.85129 6.42256 6.29165 7.11292 6.29165C7.80327 6.29165 8.36292 6.85129 8.36292 7.54165C8.36292 8.22764 7.72137 8.6339 7.72137 8.6339V9.99999C7.72137 10.8054 7.06845 11.4583 6.26304 11.4583H3.59983L6.37894 16.2719H13.6211Z" fill="#3A424A"/>
</svg>
