<svg width="20" height="20" viewBox="0 0 20 20" fill="none" xmlns="http://www.w3.org/2000/svg">
<path d="M7.8278 8.16594C8.55642 8.16594 9.14707 7.57972 9.14707 6.85658C9.14707 6.13345 8.55642 5.54723 7.8278 5.54723C7.09919 5.54723 6.50853 6.13345 6.50853 6.85658C6.50853 7.57972 7.09919 8.16594 7.8278 8.16594Z" fill="#427100"/>
<path d="M8.68069 14.8009C9.4093 14.8009 9.99996 14.2147 9.99996 13.4916C9.99996 12.7684 9.4093 12.1822 8.68069 12.1822C7.95208 12.1822 7.36142 12.7684 7.36142 13.4916C7.36142 14.2147 7.95208 14.8009 8.68069 14.8009Z" fill="#427100"/>
<path d="M3.51288 10.9437L3.26851 10.5237C3.24885 10.4899 3.23125 10.4553 3.21569 10.42H5.77278C6.79283 10.42 7.61975 9.5993 7.61975 8.58691V8.14972C7.68752 8.16038 7.75701 8.16594 7.8278 8.16594C7.93804 8.16594 8.04511 8.1525 8.14746 8.12722V8.58691C8.14746 9.88855 7.08428 10.9437 5.77278 10.9437H3.51288Z" fill="#4AA800"/>
<path d="M14.8526 13.7534L15.1572 13.2297H9.97356C9.99087 13.3143 9.99996 13.4019 9.99996 13.4916C9.99996 13.5812 9.99088 13.6688 9.97357 13.7534H14.8526Z" fill="#4AA800"/>
<path fill-rule="evenodd" clip-rule="evenodd" d="M3.25638 9.49716C3.07556 9.80799 3.07556 10.192 3.25638 10.5028L6.1927 15.5505C6.37176 15.8583 6.70099 16.0476 7.05709 16.0476H12.9428C13.2989 16.0476 13.6282 15.8583 13.8072 15.5505L16.7436 10.5028C16.9244 10.192 16.9244 9.80799 16.7436 9.49716L13.8072 4.44952C13.6282 4.14172 13.2989 3.95235 12.9428 3.95235H7.05709C6.70099 3.95235 6.37176 4.14172 6.1927 4.44952L3.25638 9.49716ZM9.14707 6.85658C9.14707 7.47032 8.72162 7.9854 8.14746 8.12722V8.58691C8.14746 9.88855 7.08428 10.9437 5.77278 10.9437H3.51288L3.26851 10.5237C3.24885 10.4899 3.23125 10.4553 3.21569 10.42H5.77278C6.79283 10.42 7.61975 9.5993 7.61975 8.58691V8.14972C6.98999 8.05071 6.50853 7.50946 6.50853 6.85658C6.50853 6.13345 7.09919 5.54723 7.8278 5.54723C8.55642 5.54723 9.14707 6.13345 9.14707 6.85658ZM9.97357 13.7534C9.85136 14.3511 9.31896 14.8009 8.68069 14.8009C7.95208 14.8009 7.36142 14.2147 7.36142 13.4916C7.36142 12.7684 7.95208 12.1822 8.68069 12.1822C9.32961 12.1822 9.8691 12.6472 9.97935 13.2598C9.97754 13.2497 9.97561 13.2397 9.97356 13.2297H15.1572L14.8526 13.7534H9.97357Z" fill="#D0FF00"/>
<path fill-rule="evenodd" clip-rule="evenodd" d="M5.23029 3.37179L1.83154 9.21435C1.54874 9.70049 1.54874 10.2994 1.83154 10.7856L5.23029 16.6281C5.51309 17.1143 6.03572 17.4137 6.60132 17.4137H13.3988C13.9644 17.4137 14.487 17.1143 14.7698 16.6281L18.1686 10.7856C18.4514 10.2994 18.4514 9.70049 18.1686 9.21435L14.7698 3.37179C14.487 2.88565 13.9644 2.58618 13.3988 2.58618H6.60132C6.03572 2.58618 5.51309 2.88565 5.23029 3.37179ZM1.37453 8.95248C0.99747 9.60067 0.99747 10.3993 1.37453 11.0474L4.77329 16.89C5.15035 17.5382 5.84719 17.9375 6.60132 17.9375H13.3988C14.1529 17.9375 14.8498 17.5382 15.2269 16.89L18.6256 11.0474C19.0027 10.3993 19.0027 9.60067 18.6256 8.95248L15.2269 3.10992C14.8498 2.46174 14.1529 2.06244 13.3988 2.06244H6.60132C5.84719 2.06244 5.15035 2.46174 4.77329 3.10992L1.37453 8.95248Z" fill="#3A424A"/>
</svg>
