<svg width="20" height="20" viewBox="0 0 20 20" fill="none" xmlns="http://www.w3.org/2000/svg">
<path d="M3.25645 10.5028C3.07562 10.192 3.07562 9.808 3.25645 9.49716L6.19278 4.44951C6.37184 4.1417 6.70107 3.95234 7.05717 3.95234H12.9429C13.299 3.95234 13.6283 4.1417 13.8073 4.44951L16.7437 9.49716C16.9245 9.808 16.9245 10.192 16.7437 10.5028L13.8073 15.5505C13.6283 15.8583 13.299 16.0476 12.9429 16.0476H7.05717C6.70107 16.0476 6.37184 15.8583 6.19278 15.5505L3.25645 10.5028Z" fill="#D0FF00"/>
<path fill-rule="evenodd" clip-rule="evenodd" d="M6.66099 4.72185L3.72465 9.7695C3.64178 9.91196 3.64178 10.088 3.72465 10.2304L6.66099 15.2781C6.74306 15.4192 6.89395 15.5059 7.05716 15.5059H12.9429C13.1062 15.5059 13.2571 15.4192 13.3391 15.2781L16.2755 10.2304C16.3583 10.088 16.3583 9.91196 16.2755 9.7695L13.3391 4.72185C13.2571 4.58077 13.1062 4.49398 12.9429 4.49398H7.05717C6.89395 4.49398 6.74306 4.58077 6.66099 4.72185ZM3.25645 9.49716C3.07562 9.808 3.07562 10.192 3.25645 10.5028L6.19278 15.5505C6.37184 15.8583 6.70107 16.0476 7.05717 16.0476H12.9429C13.299 16.0476 13.6283 15.8583 13.8073 15.5505L16.7437 10.5028C16.9245 10.192 16.9245 9.808 16.7437 9.49716L13.8073 4.44951C13.6283 4.1417 13.299 3.95234 12.9429 3.95234H7.05717C6.70107 3.95234 6.37184 4.1417 6.19278 4.44951L3.25645 9.49716Z" fill="#355000"/>
<path d="M10.6157 4.49398L10.6157 7.88323C10.6157 9.05941 11.4838 10.0344 12.6188 10.2114C12.6075 10.1426 12.6017 10.072 12.6017 9.99999C12.6017 9.89086 12.6151 9.78483 12.6405 9.68348C11.7877 9.52119 11.1434 8.77689 11.1434 7.88323L11.1434 4.49398H10.6157Z" fill="#4AA800"/>
<path d="M14.5307 13.2297H9.97365C9.99096 13.3143 10 13.4019 10 13.4916C10 13.5813 9.99097 13.6688 9.97366 13.7534H14.2261L14.5307 13.2297Z" fill="#4AA800"/>
<path d="M4.13964 10.9438H5.77285C7.08436 10.9438 8.14754 9.88857 8.14754 8.58693V8.12723C8.04519 8.15251 7.93812 8.16595 7.82789 8.16595C7.75709 8.16595 7.68761 8.1604 7.61983 8.14974V8.58693C7.61983 9.59932 6.79291 10.42 5.77285 10.42H3.83496L4.13964 10.9438Z" fill="#4AA800"/>
<path d="M3.51298 10.9438L3.26487 10.5173C3.2661 10.5194 3.26733 10.5215 3.26858 10.5237L3.51298 10.9438Z" fill="#4AA800"/>
<path d="M7.82789 8.16595C8.5565 8.16595 9.14716 7.57976 9.14716 6.85663C9.14716 6.13349 8.5565 5.54727 7.82789 5.54727C7.09927 5.54727 6.50861 6.13349 6.50861 6.85663C6.50861 7.57976 7.09927 8.16595 7.82789 8.16595Z" fill="#427100"/>
<path d="M8.68078 14.801C9.40939 14.801 10 14.2147 10 13.4916C10 12.7685 9.40939 12.1823 8.68078 12.1823C7.95216 12.1823 7.3615 12.7685 7.3615 13.4916C7.3615 14.2148 7.95216 14.801 8.68078 14.801Z" fill="#427100"/>
<path d="M13.9209 11.3094C14.6495 11.3094 15.2402 10.7232 15.2402 10C15.2402 9.27688 14.6495 8.69066 13.9209 8.69066C13.1923 8.69066 12.6017 9.27685 12.6017 9.99999C12.6017 10.7231 13.1923 11.3094 13.9209 11.3094Z" fill="#427100"/>
<path fill-rule="evenodd" clip-rule="evenodd" d="M5.23025 3.37179L1.83148 9.21437C1.54868 9.70051 1.54868 10.2995 1.83148 10.7856L5.23025 16.6282C5.51304 17.1143 6.03568 17.4138 6.60127 17.4138H13.3988C13.9644 17.4138 14.487 17.1143 14.7698 16.6282L18.1686 10.7856C18.4514 10.2995 18.4514 9.70051 18.1686 9.21437L14.7698 3.37179C14.487 2.88566 13.9644 2.58618 13.3988 2.58618H6.60127C6.03568 2.58618 5.51304 2.88566 5.23025 3.37179ZM1.37447 8.9525C0.997409 9.60069 0.997409 10.3993 1.37447 11.0475L4.77324 16.89C5.1503 17.5382 5.84714 17.9375 6.60127 17.9375H13.3988C14.1529 17.9375 14.8498 17.5382 15.2268 16.89L18.6256 11.0475C19.0027 10.3993 19.0027 9.60069 18.6256 8.9525L15.2268 3.10992C14.8498 2.46174 14.1529 2.06244 13.3988 2.06244H6.60127C5.84714 2.06244 5.1503 2.46174 4.77324 3.10992L1.37447 8.9525Z" fill="#3A424A"/>
</svg>
