<svg width="20" height="20" viewBox="0 0 20 20" fill="none" xmlns="http://www.w3.org/2000/svg">
<path fill-rule="evenodd" clip-rule="evenodd" d="M6.65802 4.20459L3.32468 9.97812L6.65802 15.7516H13.3247L16.6581 9.97812L13.3247 4.20459H6.65802ZM4.80476 11.4584L6.97075 15.21H13.012L13.494 14.375H9.99427C9.99427 14.375 9.6486 14.9248 8.95824 14.9248C8.26788 14.9248 7.70824 14.3652 7.70824 13.6748C7.70824 12.9844 8.26788 12.4248 8.95824 12.4248C9.63467 12.4248 10.0816 13.125 10.0816 13.125H14.2157L16.0326 9.97812L13.012 4.74626H11.3247V9.1234C11.3247 9.23846 11.418 9.33173 11.533 9.33173H12.9183C13.1367 8.96724 13.5356 8.72327 13.9914 8.72327C14.6817 8.72327 15.2414 9.28292 15.2414 9.97328C15.2414 10.6636 14.6817 11.2233 13.9914 11.2233C13.3054 11.2233 12.8991 10.5817 12.8991 10.5817H11.533C10.7276 10.5817 10.0747 9.92881 10.0747 9.12339V4.74626H6.97075L3.95014 9.97812L4.08307 10.2084H6.26306C6.37812 10.2084 6.47139 10.1151 6.47139 10V8.6147C6.10691 8.39632 5.86293 7.99748 5.86293 7.54167C5.86293 6.85131 6.42258 6.29166 7.11294 6.29166C7.8033 6.29166 8.36294 6.85131 8.36294 7.54167C8.36294 8.22767 7.7214 8.63392 7.7214 8.63392V10C7.7214 10.8054 7.06848 11.4584 6.26306 11.4584H4.80476Z" fill="#3A424A"/>
<path fill-rule="evenodd" clip-rule="evenodd" d="M15.0645 17.1053L18.6856 10.8333C18.9834 10.3177 18.9834 9.68233 18.6856 9.16666L15.0645 2.89474C14.7668 2.37907 14.2166 2.0614 13.6212 2.0614H6.37896C5.78351 2.0614 5.2333 2.37907 4.93558 2.89474L1.31448 9.16666C1.01676 9.68233 1.01676 10.3177 1.31448 10.8333L4.93557 17.1053C5.2333 17.6209 5.78351 17.9386 6.37896 17.9386H13.6211C14.2166 17.9386 14.7668 17.6209 15.0645 17.1053ZM6.37896 16.2719H13.6211L17.2422 10L13.6212 3.72807L6.37896 3.72807L2.75786 10L6.37896 16.2719Z" fill="#3A424A"/>
</svg>
