<svg width="20" height="20" viewBox="0 0 20 20" fill="none" xmlns="http://www.w3.org/2000/svg">
<path fill-rule="evenodd" clip-rule="evenodd" d="M8.80878 13.4816L6.52023 11.193C6.40208 11.23 6.27638 11.25 6.14602 11.25C5.45566 11.25 4.89602 10.6904 4.89602 10C4.89602 9.30964 5.45566 8.75 6.14602 8.75C6.27639 8.75 6.4021 8.76995 6.52026 8.80698L8.80917 6.51808C8.77086 6.39808 8.75018 6.27021 8.75018 6.13751C8.75018 5.44716 9.30983 4.88751 10.0002 4.88751C10.6905 4.88751 11.2502 5.44716 11.2502 6.13751C11.2502 6.27023 11.2295 6.39812 11.1912 6.51813L13.4801 8.807C13.5982 8.76996 13.724 8.75 13.8543 8.75C14.5447 8.75 15.1043 9.30964 15.1043 10C15.1043 10.6904 14.5447 11.25 13.8543 11.25C13.724 11.25 13.5983 11.23 13.4801 11.193L11.1908 13.4823C11.229 13.6022 11.2497 13.7299 11.2497 13.8625C11.2497 14.5529 10.69 15.1125 9.99967 15.1125C9.30932 15.1125 8.74967 14.5529 8.74967 13.8625C8.74967 13.7297 8.77039 13.6017 8.80878 13.4816ZM10.0002 7.38751C10.2512 7.38751 10.4849 7.31353 10.6807 7.18619L12.809 9.31442C12.6796 9.51127 12.6043 9.74684 12.6043 10C12.6043 10.2532 12.6796 10.4887 12.809 10.6856L10.6805 12.814C10.4847 12.6866 10.2508 12.6125 9.99967 12.6125C9.74878 12.6125 9.51516 12.6864 9.31938 12.8137L7.19136 10.6856C7.32074 10.4888 7.39602 10.2532 7.39602 10C7.39602 9.74683 7.32075 9.51124 7.19138 9.31438L9.3196 7.18616C9.51544 7.31355 9.74914 7.38751 10.0002 7.38751Z" fill="#3A424A"/>
<path fill-rule="evenodd" clip-rule="evenodd" d="M0.864346 9.11832C0.37619 9.60648 0.376192 10.3979 0.864347 10.8861L9.11393 19.1357C9.60208 19.6238 10.3935 19.6238 10.8817 19.1357L19.1357 10.8816C19.6239 10.3935 19.6239 9.60202 19.1357 9.11386L10.8861 0.864286C10.398 0.376132 9.60654 0.376129 9.11838 0.864285L0.864346 9.11832ZM9.99781 17.6625L2.33749 10.0022L10.0023 2.33743L17.6626 9.99775L9.99781 17.6625Z" fill="#3A424A"/>
</svg>
