<svg width="20" height="20" viewBox="0 0 20 20" fill="none" xmlns="http://www.w3.org/2000/svg">
<path fill-rule="evenodd" clip-rule="evenodd" d="M6.52025 11.1931L8.8088 13.4816C8.77042 13.6017 8.7497 13.7297 8.7497 13.8625C8.7497 14.5529 9.30935 15.1125 9.9997 15.1125C10.6901 15.1125 11.2497 14.5529 11.2497 13.8625C11.2497 13.73 11.2291 13.6022 11.1908 13.4823L13.4801 11.193C13.5983 11.2301 13.724 11.25 13.8544 11.25C14.5447 11.25 15.1044 10.6904 15.1044 10C15.1044 9.30967 14.5447 8.75002 13.8544 8.75002C13.724 8.75002 13.5983 8.76999 13.4801 8.80703L11.1912 6.51815C11.2295 6.39814 11.2502 6.27025 11.2502 6.13753C11.2502 5.44717 10.6906 4.88753 10.0002 4.88753C9.30985 4.88753 8.75021 5.44717 8.75021 6.13753C8.75021 6.27023 8.77089 6.3981 8.8092 6.5181L6.52028 8.80701C6.40212 8.76998 6.27641 8.75002 6.14603 8.75002C5.45568 8.75002 4.89603 9.30967 4.89603 10C4.89603 10.6904 5.45568 11.25 6.14603 11.25C6.27639 11.25 6.40209 11.2301 6.52025 11.1931ZM10.6808 7.18621C10.4849 7.31355 10.2512 7.38753 10.0002 7.38753C9.74917 7.38753 9.51547 7.31357 9.31962 7.18618L7.1914 9.31441C7.32077 9.51126 7.39604 9.74685 7.39604 10C7.39604 10.2532 7.32077 10.4888 7.19138 10.6857L9.31941 12.8137C9.51518 12.6865 9.74881 12.6125 9.9997 12.6125C10.2508 12.6125 10.4847 12.6866 10.6806 12.8141L12.809 10.6856C12.6796 10.4888 12.6044 10.2532 12.6044 10C12.6044 9.74687 12.6796 9.5113 12.809 9.31445L10.6808 7.18621Z" fill="#3A424A"/>
<path fill-rule="evenodd" clip-rule="evenodd" d="M17.0203 10.0001L10 2.97982L2.97977 10.0001L10 17.0203L17.0203 10.0001ZM10 16.3132L3.68688 10.0001L10 3.68692L16.3131 10.0001L10 16.3132Z" fill="#3A424A"/>
<path fill-rule="evenodd" clip-rule="evenodd" d="M0.864348 10.8861C0.376192 10.398 0.37619 9.6065 0.864347 9.11835L9.11841 0.864286C9.60657 0.376128 10.398 0.376131 10.8862 0.864287L19.1358 9.11389C19.6239 9.60205 19.6239 10.3935 19.1358 10.8817L10.8817 19.1357C10.3936 19.6239 9.60211 19.6239 9.11395 19.1357L0.864348 10.8861ZM2.33749 10.0022L9.99784 17.6626L17.6626 9.99778L10.0023 2.33743L2.33749 10.0022Z" fill="#3A424A"/>
</svg>
