<svg width="20" height="20" viewBox="0 0 20 20" fill="none" xmlns="http://www.w3.org/2000/svg">
<path d="M5.43036 11.482C6.24887 11.482 6.9124 10.8184 6.9124 9.99992C6.9124 9.18141 6.24887 8.51788 5.43036 8.51788C4.61185 8.51788 3.94832 9.18141 3.94832 9.99992C3.94832 10.8184 4.61185 11.482 5.43036 11.482Z" fill="#80144E"/>
<path d="M14.5696 11.482C15.3881 11.482 16.0516 10.8184 16.0516 9.99992C16.0516 9.18141 15.3881 8.51788 14.5696 8.51788C13.7511 8.51788 13.0876 9.18141 13.0876 9.99992C13.0876 10.8184 13.7511 11.482 14.5696 11.482Z" fill="#80144E"/>
<path d="M9.99998 6.90247C10.8185 6.90247 11.482 6.23893 11.482 5.42042C11.482 4.60191 10.8185 3.93838 9.99998 3.93838C9.18148 3.93838 8.51794 4.60191 8.51794 5.42042C8.51794 6.23893 9.18148 6.90247 9.99998 6.90247Z" fill="#80144E"/>
<path d="M9.99938 16.0615C10.8179 16.0615 11.4814 15.398 11.4814 14.5794C11.4814 13.7609 10.8179 13.0974 9.99938 13.0974C9.18087 13.0974 8.51734 13.7609 8.51734 14.5794C8.51734 15.398 9.18087 16.0615 9.99938 16.0615Z" fill="#80144E"/>
<path fill-rule="evenodd" clip-rule="evenodd" d="M2.83893 10.4541C2.58813 10.2033 2.58813 9.79664 2.83893 9.54584L9.54587 2.83887C9.79667 2.58807 10.2033 2.58807 10.4541 2.83887L17.161 9.54584C17.4118 9.79664 17.4118 10.2033 17.161 10.4541L10.4541 17.161C10.2033 17.4118 9.79667 17.4118 9.54587 17.161L2.83893 10.4541ZM9.99998 6.90247C10.3693 6.90247 10.7071 6.76739 10.9666 6.54394L13.4507 9.02806C13.582 8.87697 13.7435 8.75273 13.9257 8.6647L11.332 6.071C11.4281 5.8746 11.482 5.65381 11.482 5.42042C11.482 4.60191 10.8185 3.93838 9.99998 3.93838C9.18148 3.93838 8.51794 4.60191 8.51794 5.42042C8.51794 6.23893 9.18148 6.90247 9.99998 6.90247ZM8.66802 6.07104L6.07434 8.66473C5.87961 8.57063 5.66113 8.51788 5.43036 8.51788C4.61185 8.51788 3.94832 9.18141 3.94832 9.99992C3.94832 10.8184 4.61185 11.482 5.43036 11.482C5.66112 11.482 5.87959 11.4292 6.07432 11.3351L8.66761 13.9284C8.75653 13.7469 8.88149 13.5862 9.03317 13.4556L6.54932 10.9718C6.77549 10.7116 6.9124 10.3717 6.9124 9.99992C6.9124 9.62811 6.7755 9.28829 6.54934 9.0281L9.03346 6.54397C8.88181 6.4134 8.75689 6.25265 8.66802 6.07104ZM11.3316 13.9293L13.9257 11.3352C14.1204 11.4292 14.3389 11.482 14.5696 11.482C15.3881 11.482 16.0516 10.8184 16.0516 9.99992C16.0516 9.18141 15.3881 8.51788 14.5696 8.51788C13.7511 8.51788 13.0876 9.18141 13.0876 9.99992C13.0876 10.3987 13.2451 10.7608 13.5014 11.0272C13.484 11.0092 13.4671 10.9907 13.4507 10.9718L10.9663 13.4562C10.7068 13.2326 10.3688 13.0974 9.99938 13.0974C9.18087 13.0974 8.51734 13.7609 8.51734 14.5794C8.51734 15.398 9.18087 16.0615 9.99938 16.0615C10.8179 16.0615 11.4814 15.398 11.4814 14.5794C11.4814 14.3462 11.4276 14.1256 11.3316 13.9293Z" fill="#F4BEDB"/>
<path d="M6.07434 8.66473C6.25655 8.75277 6.41799 8.877 6.54934 9.0281L9.03346 6.54397C8.88181 6.4134 8.75689 6.25265 8.66802 6.07104L6.07434 8.66473Z" fill="#4D1935"/>
<path d="M11.332 6.071C11.2431 6.25261 11.1182 6.41336 10.9666 6.54394L13.4507 9.02806C13.582 8.87697 13.7435 8.75273 13.9257 8.6647L11.332 6.071Z" fill="#4D1935"/>
<path d="M13.9257 11.3352C13.7435 11.2471 13.5821 11.1229 13.4507 10.9718L10.9663 13.4562C11.1179 13.5869 11.2428 13.7477 11.3316 13.9293L13.9257 11.3352Z" fill="#4D1935"/>
<path d="M8.66761 13.9284C8.75653 13.7469 8.88149 13.5862 9.03317 13.4556L6.54932 10.9718C6.41797 11.1229 6.25652 11.2471 6.07432 11.3351L8.66761 13.9284Z" fill="#4D1935"/>
<path fill-rule="evenodd" clip-rule="evenodd" d="M2.83893 9.54584C2.58813 9.79664 2.58813 10.2033 2.83893 10.4541L9.54587 17.161C9.79667 17.4118 10.2033 17.4118 10.4541 17.161L17.161 10.4541C17.4118 10.2033 17.4118 9.79664 17.161 9.54584L10.4541 2.83887C10.2033 2.58807 9.79667 2.58807 9.54587 2.83887L2.83893 9.54584ZM2.45468 9.16159C1.99166 9.62461 1.99166 10.3753 2.45468 10.8383L9.16162 17.5453C9.62464 18.0083 10.3753 18.0083 10.8384 17.5453L17.5453 10.8383C18.0083 10.3753 18.0083 9.62461 17.5453 9.16159L10.8384 2.45463C10.3753 1.99161 9.62464 1.99161 9.16162 2.45462L2.45468 9.16159Z" fill="#4D1935"/>
<path fill-rule="evenodd" clip-rule="evenodd" d="M1.19456 11.6794C0.268522 10.7533 0.268522 9.25194 1.19456 8.3259L8.32596 1.19447C9.252 0.26843 10.7534 0.268429 11.6794 1.19447L18.8056 8.32062C19.7316 9.24665 19.7316 10.7481 18.8056 11.6741L11.6742 18.8055C10.7481 19.7316 9.24672 19.7316 8.32068 18.8055L1.19456 11.6794ZM1.61374 8.74508L8.74515 1.61365C9.43968 0.919125 10.5657 0.919124 11.2603 1.61365L18.3864 8.7398C19.0809 9.43433 19.0809 10.5604 18.3864 11.2549L11.255 18.3863C10.5604 19.0809 9.43439 19.0809 8.73987 18.3863L1.61374 11.2602C0.919215 10.5657 0.919214 9.43961 1.61374 8.74508Z" fill="#3A424A"/>
</svg>
