<svg width="20" height="20" viewBox="0 0 20 20" fill="none" xmlns="http://www.w3.org/2000/svg">
<path fill-rule="evenodd" clip-rule="evenodd" d="M2.45467 10.8383C1.99166 10.3753 1.99166 9.62463 2.45467 9.16161L9.1616 2.45467C9.62461 1.99165 10.3753 1.99165 10.8383 2.45467L17.5452 9.16161C18.0083 9.62463 18.0083 10.3753 17.5452 10.8383L10.8383 17.5453C10.3753 18.0083 9.62461 18.0083 9.1616 17.5453L2.45467 10.8383ZM10.9665 6.54397C10.707 6.76743 10.3693 6.90251 9.99997 6.90251C9.18147 6.90251 8.51794 6.23898 8.51794 5.42047C8.51794 4.60196 9.18147 3.93843 9.99997 3.93843C10.8185 3.93843 11.482 4.60196 11.482 5.42047C11.482 5.65385 11.4281 5.87464 11.332 6.07103L13.9256 8.66472C13.7434 8.75276 13.582 8.87699 13.4506 9.02809L10.9665 6.54397ZM6.07432 8.66475L8.66799 6.07107C8.75686 6.25268 8.88179 6.41343 9.03343 6.544L6.54932 9.02813C6.77548 9.28831 6.9124 9.62814 6.9124 9.99995C6.9124 10.3718 6.77547 10.7116 6.5493 10.9718L9.03314 13.4556C8.88146 13.5862 8.75651 13.7469 8.66758 13.9285L6.0743 11.3352C5.87957 11.4292 5.66113 11.482 5.43036 11.482C4.61186 11.482 3.94833 10.8185 3.94833 9.99995C3.94833 9.18144 4.61186 8.51791 5.43036 8.51791C5.66114 8.51791 5.87959 8.57066 6.07432 8.66475ZM13.9257 11.3352L11.3316 13.9293C11.4275 14.1256 11.4814 14.3462 11.4814 14.5795C11.4814 15.398 10.8179 16.0615 9.99937 16.0615C9.18086 16.0615 8.51733 15.398 8.51733 14.5795C8.51733 13.761 9.18086 13.0974 9.99937 13.0974C10.3688 13.0974 10.7067 13.2326 10.9663 13.4562L13.4507 10.9718C13.4671 10.9907 13.484 11.0092 13.5013 11.0272C13.2451 10.7608 13.0875 10.3988 13.0875 9.99995C13.0875 9.18144 13.7511 8.51791 14.5696 8.51791C15.3881 8.51791 16.0516 9.18144 16.0516 9.99995C16.0516 10.8185 15.3881 11.482 14.5696 11.482C14.3388 11.482 14.1204 11.4293 13.9257 11.3352Z" fill="#F4BEDB"/>
<path d="M6.07432 8.66475C6.25653 8.75279 6.41797 8.87703 6.54932 9.02813L9.03343 6.544C8.88179 6.41343 8.75686 6.25268 8.66799 6.07107L6.07432 8.66475Z" fill="#4D1935"/>
<path d="M11.332 6.07103C11.2431 6.25264 11.1182 6.41339 10.9665 6.54397L13.4506 9.02809C13.582 8.87699 13.7434 8.75276 13.9256 8.66472L11.332 6.07103Z" fill="#4D1935"/>
<path d="M13.9257 11.3352C13.7435 11.2472 13.582 11.1229 13.4507 10.9718L10.9663 13.4562C11.1179 13.5869 11.2427 13.7477 11.3316 13.9293L13.9257 11.3352Z" fill="#4D1935"/>
<path d="M8.66758 13.9285C8.75651 13.7469 8.88146 13.5862 9.03314 13.4556L6.5493 10.9718C6.41795 11.1229 6.25651 11.2471 6.0743 11.3352L8.66758 13.9285Z" fill="#4D1935"/>
<path d="M5.43036 11.482C6.24887 11.482 6.9124 10.8185 6.9124 9.99995C6.9124 9.18144 6.24887 8.51791 5.43036 8.51791C4.61186 8.51791 3.94833 9.18144 3.94833 9.99995C3.94833 10.8185 4.61186 11.482 5.43036 11.482Z" fill="#80144E"/>
<path d="M14.5696 11.482C15.3881 11.482 16.0516 10.8185 16.0516 9.99995C16.0516 9.18144 15.3881 8.51791 14.5696 8.51791C13.7511 8.51791 13.0875 9.18144 13.0875 9.99995C13.0875 10.8185 13.7511 11.482 14.5696 11.482Z" fill="#80144E"/>
<path d="M9.99997 6.90251C10.8185 6.90251 11.482 6.23898 11.482 5.42047C11.482 4.60196 10.8185 3.93843 9.99997 3.93843C9.18147 3.93843 8.51794 4.60196 8.51794 5.42047C8.51794 6.23898 9.18147 6.90251 9.99997 6.90251Z" fill="#80144E"/>
<path d="M9.99937 16.0615C10.8179 16.0615 11.4814 15.398 11.4814 14.5795C11.4814 13.761 10.8179 13.0974 9.99937 13.0974C9.18086 13.0974 8.51733 13.761 8.51733 14.5795C8.51733 15.398 9.18086 16.0615 9.99937 16.0615Z" fill="#80144E"/>
<path fill-rule="evenodd" clip-rule="evenodd" d="M1.19452 11.6793C0.268492 10.7533 0.268492 9.25191 1.19452 8.32587L8.32591 1.19447C9.25194 0.268431 10.7533 0.268429 11.6794 1.19446L18.8055 8.32059C19.7315 9.24663 19.7315 10.748 18.8055 11.6741L11.6741 18.8055C10.7481 19.7315 9.24666 19.7315 8.32063 18.8055L1.19452 11.6793ZM1.61371 8.74506L8.74509 1.61365C9.43962 0.919123 10.5657 0.919123 11.2602 1.61365L18.3863 8.73977C19.0808 9.4343 19.0808 10.5604 18.3863 11.2549L11.2549 18.3863C10.5604 19.0808 9.43434 19.0808 8.73981 18.3863L1.61371 11.2602C0.919183 10.5656 0.919183 9.43958 1.61371 8.74506Z" fill="#3A424A"/>
</svg>
