<svg width="20" height="20" viewBox="0 0 20 20" fill="none" xmlns="http://www.w3.org/2000/svg">
<path fill-rule="evenodd" clip-rule="evenodd" d="M9.34286 7.84259C9.34286 7.01416 10.0144 6.34259 10.8429 6.34259C11.6713 6.34259 12.3429 7.01416 12.3429 7.84259C12.3429 8.67102 11.6713 9.34259 10.8429 9.34259C10.0144 9.34259 9.34286 8.67102 9.34286 7.84259ZM10.8429 7.09259C10.4287 7.09259 10.0929 7.42838 10.0929 7.84259C10.0929 8.2568 10.4287 8.59259 10.8429 8.59259C11.2571 8.59259 11.5929 8.2568 11.5929 7.84259C11.5929 7.42838 11.2571 7.09259 10.8429 7.09259Z" fill="#3A424A"/>
<path fill-rule="evenodd" clip-rule="evenodd" d="M2.29514 9.75637C2.29514 5.65673 5.61855 2.33331 9.7182 2.33331C13.8178 2.33331 17.1413 5.65673 17.1413 9.75637C17.1413 11.2739 16.6859 12.685 15.9044 13.8606L17.2895 15.2458C17.8434 15.7996 17.8434 16.6974 17.2895 17.2513C17.2895 17.2513 17.8452 16.6974 17.2914 17.2513C16.7376 17.8051 15.8398 17.8051 15.286 17.2513L13.9148 15.8801C12.7211 16.6998 11.2757 17.1794 9.7182 17.1794C5.61855 17.1794 2.29514 13.856 2.29514 9.75637ZM9.7182 3.83331C6.44698 3.83331 3.79514 6.48516 3.79514 9.75637C3.79514 13.0276 6.44698 15.6794 9.7182 15.6794C12.9894 15.6794 15.6413 13.0276 15.6413 9.75637C15.6413 6.48516 12.9894 3.83331 9.7182 3.83331Z" fill="#3A424A"/>
</svg>
