<svg width="20" height="20" viewBox="0 0 20 20" fill="none" xmlns="http://www.w3.org/2000/svg">
<path d="M18.0795 18.0315C17.4326 18.6784 16.3837 18.6784 15.7368 18.0315L13.4471 15.7421C13.9108 15.4463 14.3546 15.0952 14.7586 14.689C15.1627 14.2828 15.505 13.8589 15.792 13.4041L18.0773 15.6891C18.7243 16.336 18.7243 17.3846 18.0773 18.0315H18.0795Z" fill="#004099"/>
<path d="M11.3006 7.93805C12.0189 7.93805 12.6012 7.35582 12.6012 6.6376C12.6012 5.91938 12.0189 5.33714 11.3006 5.33714C10.5823 5.33714 9.99997 5.91938 9.99997 6.6376C9.99997 7.35582 10.5823 7.93805 11.3006 7.93805Z" fill="#99DDFF"/>
<path fill-rule="evenodd" clip-rule="evenodd" d="M15.3755 9.27743C15.3755 12.6695 12.6253 15.4193 9.23274 15.4193C5.84021 15.4193 3.09003 12.6695 3.09003 9.27743C3.09003 5.88537 5.84021 3.13556 9.23274 3.13556C12.6253 3.13556 15.3755 5.88537 15.3755 9.27743ZM12.6012 6.6376C12.6012 7.35582 12.0189 7.93805 11.3006 7.93805C10.5823 7.93805 9.99997 7.35582 9.99997 6.6376C9.99997 5.91938 10.5823 5.33714 11.3006 5.33714C12.0189 5.33714 12.6012 5.91938 12.6012 6.6376Z" fill="#28A2FD"/>
<path fill-rule="evenodd" clip-rule="evenodd" d="M9.23272 16.546C13.2476 16.546 16.5023 13.2917 16.5023 9.27742C16.5023 5.26312 13.2476 2.00888 9.23272 2.00888C5.21786 2.00888 1.96317 5.26312 1.96317 9.27742C1.96317 13.2917 5.21786 16.546 9.23272 16.546ZM17.0279 9.27742C17.0279 13.582 13.5379 17.0716 9.23272 17.0716C4.92754 17.0716 1.4375 13.582 1.4375 9.27742C1.4375 4.97283 4.92754 1.48328 9.23272 1.48328C13.5379 1.48328 17.0279 4.97283 17.0279 9.27742Z" fill="#3A424A"/>
</svg>
