<svg width="20" height="20" viewBox="0 0 20 20" fill="none" xmlns="http://www.w3.org/2000/svg">
<path d="M18.0795 18.0316C17.4326 18.6784 16.3838 18.6784 15.7368 18.0316L13.4471 15.7422C13.9108 15.4463 14.3546 15.0953 14.7587 14.6891C15.1627 14.2828 15.505 13.859 15.792 13.4042L18.0773 15.6892C18.7243 16.336 18.7243 17.3847 18.0773 18.0316H18.0795Z" fill="#004099"/>
<path d="M11.3006 7.93809C12.0189 7.93809 12.6012 7.35586 12.6012 6.63763C12.6012 5.91941 12.0189 5.33717 11.3006 5.33717C10.5823 5.33717 9.99997 5.91941 9.99997 6.63763C9.99997 7.35586 10.5823 7.93809 11.3006 7.93809Z" fill="#99DDFF"/>
<path fill-rule="evenodd" clip-rule="evenodd" d="M15.3755 9.27747C15.3755 12.6695 12.6253 15.4194 9.23274 15.4194C5.8402 15.4194 3.09001 12.6695 3.09001 9.27747C3.09001 5.8854 5.8402 3.13558 9.23274 3.13558C12.6253 3.13558 15.3755 5.8854 15.3755 9.27747ZM12.6012 6.63763C12.6012 7.35586 12.0189 7.93809 11.3006 7.93809C10.5823 7.93809 9.99997 7.35586 9.99997 6.63763C9.99997 5.91941 10.5823 5.33717 11.3006 5.33717C12.0189 5.33717 12.6012 5.91941 12.6012 6.63763Z" fill="#28A2FD"/>
<path fill-rule="evenodd" clip-rule="evenodd" d="M15.9171 9.27749C15.9171 12.9688 12.9244 15.961 9.23274 15.961C5.54112 15.961 2.54834 12.9688 2.54834 9.27749C2.54834 5.58619 5.54112 2.59393 9.23274 2.59393C12.9244 2.59393 15.9171 5.58619 15.9171 9.27749ZM9.23274 15.4194C12.6253 15.4194 15.3755 12.6695 15.3755 9.27747C15.3755 5.8854 12.6253 3.13558 9.23274 3.13558C5.8402 3.13558 3.09001 5.8854 3.09001 9.27747C3.09001 12.6695 5.8402 15.4194 9.23274 15.4194Z" fill="#004099"/>
<path fill-rule="evenodd" clip-rule="evenodd" d="M15.3959 9.2708C15.3959 12.6651 12.6442 15.4167 9.25 15.4167C5.85581 15.4167 3.10415 12.6651 3.10415 9.2708C3.10415 5.87646 5.85581 3.12493 9.25 3.12493C12.6442 3.12493 15.3959 5.87646 15.3959 9.2708ZM9.25 14.9186C12.3692 14.9186 14.8978 12.39 14.8978 9.2708C14.8978 6.15162 12.3692 3.62302 9.25 3.62302C6.13079 3.62302 3.60218 6.15162 3.60218 9.2708C3.60218 12.39 6.13079 14.9186 9.25 14.9186Z" fill="#0080FF"/>
<path fill-rule="evenodd" clip-rule="evenodd" d="M9.23274 16.546C13.2476 16.546 16.5023 13.2918 16.5023 9.27744C16.5023 5.26313 13.2476 2.00888 9.23274 2.00888C5.21787 2.00888 1.96317 5.26313 1.96317 9.27744C1.96317 13.2918 5.21787 16.546 9.23274 16.546ZM17.028 9.27744C17.028 13.582 13.5379 17.0716 9.23274 17.0716C4.92755 17.0716 1.4375 13.582 1.4375 9.27744C1.4375 4.97284 4.92755 1.48328 9.23274 1.48328C13.5379 1.48328 17.028 4.97284 17.028 9.27744Z" fill="#3A424A"/>
</svg>
