<svg width="20" height="20" viewBox="0 0 20 20" fill="none" xmlns="http://www.w3.org/2000/svg">
<path fill-rule="evenodd" clip-rule="evenodd" d="M9.44805 7.84261C9.44805 7.01418 10.1196 6.3426 10.9481 6.3426C11.7765 6.3426 12.4481 7.01418 12.4481 7.84261C12.4481 8.67104 11.7765 9.34261 10.9481 9.34261C10.1196 9.34261 9.44805 8.67104 9.44805 7.84261ZM10.9481 7.09261C10.5338 7.09261 10.1981 7.42839 10.1981 7.84261C10.1981 8.25682 10.5338 8.59261 10.9481 8.59261C11.3623 8.59261 11.6981 8.25682 11.6981 7.84261C11.6981 7.42839 11.3623 7.09261 10.9481 7.09261Z" fill="#3A424A"/>
<path fill-rule="evenodd" clip-rule="evenodd" d="M2.4003 9.7564C2.4003 5.65674 5.72373 2.33331 9.82338 2.33331C13.923 2.33331 17.2465 5.65674 17.2465 9.7564C17.2465 11.2739 16.7911 12.6851 16.0096 13.8607L17.3947 15.2458C17.9486 15.7997 17.9486 16.6975 17.3947 17.2513C17.3947 17.2513 17.9505 16.6975 17.3966 17.2513C16.8428 17.8051 15.945 17.8051 15.3912 17.2513L14.02 15.8802C12.8263 16.6998 11.3808 17.1795 9.82338 17.1795C5.72373 17.1795 2.4003 13.8561 2.4003 9.7564ZM9.82338 3.83332C6.55216 3.83332 3.9003 6.48517 3.9003 9.7564C3.9003 13.0276 6.55216 15.6795 9.82338 15.6795C13.0946 15.6795 15.7465 13.0276 15.7465 9.7564C15.7465 6.48517 13.0946 3.83332 9.82338 3.83332Z" fill="#3A424A"/>
<path fill-rule="evenodd" clip-rule="evenodd" d="M9.8268 14.5163C12.4584 14.5163 14.5917 12.383 14.5917 9.7514C14.5917 7.11984 12.4584 4.98654 9.8268 4.98654C7.19524 4.98654 5.06194 7.11984 5.06194 9.7514C5.06194 12.383 7.19524 14.5163 9.8268 14.5163ZM9.8268 15.0952C12.7781 15.0952 15.1706 12.7027 15.1706 9.7514C15.1706 6.80012 12.7781 4.40763 9.8268 4.40763C6.87552 4.40763 4.48303 6.80012 4.48303 9.7514C4.48303 12.7027 6.87552 15.0952 9.8268 15.0952Z" fill="#3A424A"/>
</svg>
