<svg width="20" height="20" viewBox="0 0 20 20" fill="none" xmlns="http://www.w3.org/2000/svg">
<path d="M6.75909 15.5979L12.357 10L15.5979 13.2409L11.1785 17.6603C10.5276 18.3112 9.47236 18.3112 8.82149 17.6603L6.75909 15.5979Z" fill="#FF6600"/>
<path d="M10 7.643L13.2409 4.4021L17.6603 8.8215C18.3112 9.47237 18.3112 10.5276 17.6603 11.1785L15.5979 13.2409L10 7.643Z" fill="#D0FF00"/>
<path d="M2.33969 11.1785C1.68881 10.5276 1.68881 9.47235 2.33969 8.82148L4.40208 6.75909L10 12.357L6.7591 15.5979L2.33969 11.1785Z" fill="#80144E"/>
<path d="M4.40207 6.75912L8.82149 2.33972C9.47236 1.68884 10.5276 1.68884 11.1785 2.33972L13.2409 4.4021L7.64298 10L4.40207 6.75912Z" fill="#006AFF"/>
</svg>
