<svg width="20" height="20" viewBox="0 0 20 20" fill="none" xmlns="http://www.w3.org/2000/svg">
<path d="M10.9787 18.4487L15.6924 13.735L12.7164 10.759L7.02396 16.4514L9.0213 18.4487C9.56181 18.9892 10.4382 18.9892 10.9787 18.4487Z" fill="#3A424A"/>
<path d="M12.976 3.54853L7.28358 9.24093L4.30756 6.26492L9.0213 1.5512C9.56181 1.01069 10.4382 1.01069 10.9787 1.5512L12.976 3.54853Z" fill="#3A424A"/>
<path d="M1.5512 10.9786L6.26493 15.6924L9.24095 12.7164L3.54853 7.02395L1.5512 9.02128C1.01069 9.56179 1.01068 10.4381 1.5512 10.9786Z" fill="#3A424A"/>
<path d="M18.4488 10.9786L16.4514 12.976L10.759 7.28357L13.735 4.30755L18.4488 9.02128C18.9893 9.56179 18.9893 10.4381 18.4488 10.9786Z" fill="#3A424A"/>
</svg>
