<svg width="20" height="20" viewBox="0 0 20 20" fill="none" xmlns="http://www.w3.org/2000/svg">
<path d="M10.9787 18.4488L15.6925 13.735L12.7164 10.759L7.02401 16.4514L9.02135 18.4488C9.56187 18.9893 10.4382 18.9893 10.9787 18.4488Z" fill="#3A424A"/>
<path d="M12.9761 3.54853L7.28363 9.24095L4.3076 6.26493L9.02135 1.5512C9.56187 1.01068 10.4382 1.01068 10.9787 1.5512L12.9761 3.54853Z" fill="#3A424A"/>
<path d="M1.55123 10.9787L6.26498 15.6924L9.24101 12.7164L3.54857 7.02396L1.55123 9.0213C1.01072 9.56181 1.01071 10.4382 1.55123 10.9787Z" fill="#3A424A"/>
<path d="M18.4488 10.9787L16.4515 12.976L10.7591 7.28358L13.7351 4.30756L18.4488 9.0213C18.9894 9.56181 18.9894 10.4382 18.4488 10.9787Z" fill="#3A424A"/>
</svg>
