<svg width="20" height="20" viewBox="0 0 20 20" fill="none" xmlns="http://www.w3.org/2000/svg">
<path d="M6.75912 15.5979L12.3571 10L15.598 13.2409L11.1786 17.6603C10.5277 18.3112 9.4724 18.3112 8.82153 17.6603L6.75912 15.5979Z" fill="#FF6600"/>
<path d="M10 7.64301L13.2409 4.4021L17.6604 8.82152C18.3113 9.47239 18.3113 10.5277 17.6604 11.1785L15.598 13.2409L10 7.64301Z" fill="#D0FF00"/>
<path d="M2.33969 11.1785C1.68881 10.5276 1.68881 9.47236 2.33969 8.82149L4.40209 6.75909L10 12.357L6.75912 15.5979L2.33969 11.1785Z" fill="#80144E"/>
<path d="M4.40207 6.75914L8.8215 2.33972C9.47238 1.68884 10.5277 1.68884 11.1785 2.33972L13.2409 4.40211L7.64298 10L4.40207 6.75914Z" fill="#006AFF"/>
</svg>
