<svg width="20" height="20" viewBox="0 0 20 20" fill="none" xmlns="http://www.w3.org/2000/svg">
<path d="M11.6945 8.81967C11.6945 9.61971 11.1311 10.2958 10.3874 10.4648L11.1649 11.9409C11.3226 12.2564 11.1198 12.6396 10.7818 12.6396H9.22676C8.88872 12.6396 8.67463 12.2564 8.84365 11.9409L9.62115 10.4648C8.87745 10.2958 8.31405 9.61971 8.31405 8.81967C8.31405 7.88442 9.06901 7.12946 10.0043 7.12946C10.9395 7.12946 11.6945 7.88442 11.6945 8.81967Z" fill="#3A424A"/>
<path fill-rule="evenodd" clip-rule="evenodd" d="M9.25415 19.3719C9.47915 19.5053 9.73748 19.5719 10.0375 19.5719L10.0458 19.5886C10.2875 19.5803 10.5208 19.5136 10.7375 19.3886L10.8208 19.3386C15.5542 16.5969 18.4958 11.5053 18.4958 6.03028C18.4958 5.45528 18.1792 4.91361 17.6792 4.62195L10.7458 0.613614C10.5208 0.480281 10.2708 0.413614 10.0375 0.413614C9.77915 0.396948 9.50415 0.471948 9.27082 0.605281L2.22915 4.66361C1.77915 4.93028 1.50415 5.41361 1.50415 5.93028V6.06361C1.52082 11.5136 4.45415 16.5969 9.17915 19.3303L9.25415 19.3719ZM10.0042 17.8803C5.79582 15.4386 3.17082 10.9136 3.17082 6.04695L10.0042 2.10528L16.8375 6.03028C16.8292 10.8969 14.2208 15.4386 10.0042 17.8803Z" fill="#3A424A"/>
</svg>
