<svg width="20" height="20" viewBox="0 0 20 20" fill="none" xmlns="http://www.w3.org/2000/svg">
<path d="M16.6015 6.56505C16.6015 10.3908 14.0042 14.9741 10.3474 17.4169L10.2747 17.4595C10.1945 17.5047 10.1043 17.5298 10.014 17.5323C9.91629 17.5323 9.81352 17.5097 9.72829 17.4595L9.64808 17.4144C5.25416 14.5575 3.39905 9.9741 3.39905 6.57258V6.48978C3.39905 6.29407 3.50433 6.11342 3.67227 6.01305L9.72829 2.51538C9.81602 2.4652 9.91629 2.44011 10.014 2.44262C10.1043 2.44262 10.1945 2.46771 10.2747 2.51538L16.2581 5.97291C16.4711 6.09585 16.6015 6.32167 16.6015 6.56756V6.56505Z" fill="#FF6600"/>
<path d="M10.3102 10.3435C10.9178 10.2029 11.3707 9.6579 11.3707 9.00698C11.3707 8.24935 10.7572 7.63517 10.0003 7.63517C9.24339 7.63517 8.62981 8.24935 8.62981 9.00698C8.62981 9.65789 9.08271 10.2029 9.69029 10.3435L9.06408 11.5419C8.93034 11.7959 9.09974 12.111 9.37019 12.111H10.6303C10.9008 12.111 11.0702 11.7959 10.9365 11.5419L10.3102 10.3435Z" fill="#FFD1B3"/>
<path fill-rule="evenodd" clip-rule="evenodd" d="M9.72049 0.506302C9.88862 0.410012 10.0951 0.409922 10.2633 0.506065L18.2022 5.04351C18.3693 5.13902 18.48 5.31736 18.4766 5.52098C18.3852 10.9473 15.1893 17.0625 10.2392 19.5099C10.0798 19.5887 9.89145 19.5838 9.73652 19.4977C4.65707 16.6747 1.57847 11.4365 1.52334 5.52175C1.52149 5.32351 1.6277 5.14107 1.79792 5.04359L9.72049 0.506302ZM17.9182 5.88677C17.9282 5.65932 17.8067 5.44793 17.6091 5.33496L10.3019 1.15854C10.11 1.04886 9.87433 1.04896 9.68252 1.15881L2.38738 5.33676C2.19155 5.44891 2.07066 5.65855 2.07772 5.88411C2.24867 11.3424 5.08598 16.155 9.71487 18.8555C9.89193 18.9588 10.1099 18.9646 10.2908 18.8682C14.7793 16.4762 17.6977 10.9063 17.9182 5.88677Z" fill="#3A424A"/>
</svg>
