<svg width="20" height="20" viewBox="0 0 20 20" fill="none" xmlns="http://www.w3.org/2000/svg">
<path d="M16.6599 6.59095C16.5626 10.8333 14.0626 15 10.4058 17.4428L10.3331 17.4855C10.2529 17.5306 10.1627 17.6225 10.0724 17.6251C9.97467 17.6251 9.8719 17.5356 9.78667 17.4855L9.70646 17.4403C5.31253 14.5834 3.45741 10 3.45741 6.59847V6.51567C3.45741 6.31996 3.56269 6.13931 3.73063 6.03895L9.78667 2.54126C9.8744 2.49108 9.97467 2.46599 10.0724 2.4685C10.1627 2.4685 10.2529 2.49359 10.3331 2.54126L16.3165 5.9988C16.5295 6.12175 16.6599 6.34756 16.6599 6.59346V6.59095Z" fill="#FF6600"/>
<path fill-rule="evenodd" clip-rule="evenodd" d="M17.2015 6.59099C17.2007 6.15267 16.9674 5.74918 16.5875 5.52985L10.6065 2.07368C10.4478 1.98014 10.2661 1.92816 10.0794 1.92689C9.88397 1.92315 9.68859 1.97339 9.51773 2.07111L3.45973 5.56993L3.45277 5.57402C3.12575 5.76944 2.91574 6.12416 2.91574 6.51572V6.59852C2.91574 10.1722 4.85447 14.9317 9.41119 17.8945L9.42566 17.9039L9.5147 17.954C9.52049 17.9576 9.53021 17.9639 9.55296 17.9791L9.55487 17.9804C9.57674 17.995 9.61173 18.0183 9.6498 18.0408C9.71514 18.0793 9.8712 18.1668 10.0724 18.1668H10.08L10.0875 18.1666C10.1988 18.1635 10.2906 18.1336 10.3547 18.1058C10.4184 18.0783 10.4705 18.0461 10.5048 18.0234C10.5314 18.0059 10.5601 17.9854 10.5763 17.9738C10.5797 17.9713 10.5825 17.9693 10.5847 17.9678C10.5949 17.9605 10.6002 17.957 10.6019 17.9558L10.6936 17.902L10.7067 17.8933C14.4927 15.3642 17.0996 11.0424 17.2014 6.60341L17.2015 6.5935M16.6599 6.59346V6.59095C16.6599 6.58888 16.6598 6.58685 16.6598 6.58478C16.6568 6.34228 16.527 6.12029 16.3165 5.9988L10.3331 2.54126C10.2529 2.49359 10.1627 2.4685 10.0724 2.4685C9.97467 2.46599 9.8744 2.49108 9.78667 2.54126L3.73063 6.03895C3.56269 6.13931 3.45741 6.31996 3.45741 6.51567V6.59847C3.45741 10 5.31253 14.5834 9.70646 17.4403L9.78667 17.4855C9.80732 17.4976 9.829 17.5121 9.85139 17.5271C9.92141 17.5738 9.99836 17.6251 10.0724 17.6251C10.135 17.6233 10.1975 17.5787 10.2567 17.5364C10.2829 17.5176 10.3085 17.4993 10.3331 17.4855L10.4058 17.4428C14.0618 15.0005 16.5616 10.835 16.6599 6.59346Z" fill="#852100"/>
<path fill-rule="evenodd" clip-rule="evenodd" d="M16.1181 6.58942C16.0214 10.6266 13.6351 14.6282 10.1179 16.9837L10.062 17.0165L10.0599 17.0177L9.98738 16.9769C5.76657 14.2252 3.99906 9.82421 3.99906 6.5985V6.5157C3.99906 6.5157 3.99901 6.51434 4.00044 6.51186C4.00181 6.50947 4.00407 6.50687 4.00728 6.5047L10.0556 3.01147L10.0589 3.0102L10.0618 3.01009L16.0454 6.46782C16.0897 6.49334 16.1168 6.53874 16.1181 6.58942ZM16.6599 6.59346C16.5616 10.835 14.0618 15.0005 10.4058 17.4428L10.3331 17.4855C10.3085 17.4993 10.2829 17.5176 10.2567 17.5364C10.1975 17.5787 10.135 17.6233 10.0724 17.6251C9.99836 17.6251 9.92141 17.5738 9.85139 17.5271C9.829 17.5121 9.80732 17.4976 9.78667 17.4855L9.70646 17.4403C5.31253 14.5834 3.45741 10 3.45741 6.59847V6.51567C3.45741 6.31996 3.56269 6.13931 3.73063 6.03895L9.78667 2.54126C9.8744 2.49108 9.97467 2.46599 10.0724 2.4685C10.1627 2.4685 10.2529 2.49359 10.3331 2.54126L16.3165 5.9988C16.527 6.12029 16.6568 6.34228 16.6598 6.58478L16.6599 6.59095V6.59346ZM10.0724 17.1957V17.0834C10.0812 17.0834 10.0897 17.0837 10.0977 17.0843L10.1206 17.1234L10.0724 17.1957Z" fill="#FFA66B"/>
<path d="M10.3686 10.3695C10.9762 10.2289 11.4291 9.68384 11.4291 9.03292C11.4291 8.27529 10.8155 7.66111 10.0587 7.66111C9.30177 7.66111 8.68819 8.27529 8.68819 9.03292C8.68819 9.68384 9.14109 10.2289 9.74867 10.3695L9.12246 11.5678C8.98871 11.8218 9.15812 12.1369 9.42857 12.1369H10.6887C10.9592 12.1369 11.1286 11.8218 10.9948 11.5678L10.3686 10.3695Z" fill="#FFD1B3"/>
<path fill-rule="evenodd" clip-rule="evenodd" d="M9.72612 0.695839C9.89089 0.60147 10.0932 0.601382 10.2581 0.695607L18.0386 5.14252C18.2023 5.23611 18.3108 5.4109 18.3075 5.61045C18.218 10.9285 15.0858 16.9217 10.2345 19.3203C10.0783 19.3975 9.89367 19.3927 9.74182 19.3083C4.76373 16.5416 1.74656 11.4079 1.69253 5.61121C1.69072 5.41692 1.79481 5.23813 1.96163 5.14259L9.72612 0.695839ZM17.7603 5.96895C17.7701 5.74603 17.651 5.53886 17.4573 5.42814L10.2959 1.33506C10.1078 1.22757 9.87688 1.22767 9.6889 1.33533L2.53933 5.42992C2.34741 5.53983 2.22893 5.74528 2.23585 5.96634C2.40338 11.3157 5.18408 16.0323 9.72061 18.6789C9.89413 18.7802 10.1078 18.7858 10.2851 18.6913C14.6839 16.3471 17.5441 10.8883 17.7603 5.96895Z" fill="#3A424A"/>
</svg>
