<svg width="20" height="20" viewBox="0 0 20 20" fill="none" xmlns="http://www.w3.org/2000/svg">
<path d="M11.6904 8.78338C11.6904 9.58342 11.127 10.2595 10.3833 10.4285L11.1608 11.9047C11.3185 12.2202 11.1157 12.6033 10.7777 12.6033H9.22267C8.88462 12.6033 8.67053 12.2202 8.83955 11.9047L9.61705 10.4285C8.87335 10.2595 8.30995 9.58342 8.30995 8.78338C8.30995 7.84812 9.06491 7.09316 10.0002 7.09316C10.9354 7.09316 11.6904 7.84812 11.6904 8.78338Z" fill="#3A424A"/>
<path fill-rule="evenodd" clip-rule="evenodd" d="M9.25005 19.3357C9.47506 19.469 9.73339 19.5357 10.0334 19.5357L10.0417 19.5524C10.2834 19.544 10.5167 19.4774 10.7334 19.3524L10.8167 19.3024C15.5501 16.5607 18.4917 11.469 18.4917 5.99398C18.4917 5.41898 18.1751 4.87731 17.6751 4.58564L10.7417 0.577299C10.5167 0.443965 10.2667 0.377298 10.0334 0.377298C9.77506 0.360632 9.50005 0.435632 9.26672 0.568966L2.22503 4.62731C1.77503 4.89398 1.50003 5.37731 1.50003 5.89398V6.02732C1.5167 11.4773 4.45004 16.5607 9.17505 19.294L9.25005 19.3357ZM10.0001 17.844C5.79171 15.4023 3.1667 10.8773 3.1667 6.01065L10.0001 2.06897L16.8334 5.99398C16.8251 10.8607 14.2167 15.4023 10.0001 17.844Z" fill="#3A424A"/>
<path fill-rule="evenodd" clip-rule="evenodd" d="M15.8122 6.58584L9.99623 3.23192L4.19613 6.5063C4.31358 10.6772 6.75593 14.6895 9.98591 16.7567C13.2279 14.6881 15.6927 10.6774 15.8122 6.58584ZM9.98552 17.3933C13.6006 15.2396 16.3584 10.7917 16.3584 6.27555L9.99909 2.60828L3.65004 6.19256C3.65004 10.7917 6.37959 15.2396 9.98552 17.3933Z" fill="#3A424A"/>
</svg>
